<?xml version="1.0" encoding="UTF-8" standalone="no"?>
<!DOCTYPE svg PUBLIC "-//W3C//DTD SVG 1.1//EN"
 "http://www.w3.org/Graphics/SVG/1.1/DTD/svg11.dtd">
<!-- Generated by graphviz version 2.43.0 (0)
 -->
<!-- Title: %3 Pages: 1 -->
<svg width="1070pt" height="386pt"
 viewBox="0.00 0.00 1069.51 386.00" xmlns="http://www.w3.org/2000/svg" xmlns:xlink="http://www.w3.org/1999/xlink">
<g id="graph0" class="graph" transform="scale(1 1) rotate(0) translate(4 382)">
<title>%3</title>
<polygon fill="white" stroke="transparent" points="-4,4 -4,-382 1065.51,-382 1065.51,4 -4,4"/>
<!-- fake -->
<g id="node1" class="node">
<title>fake</title>
</g>
<!-- 0 -->
<g id="node2" class="node">
<title>0</title>
<ellipse fill="none" stroke="black" cx="562.51" cy="-287" rx="27" ry="18"/>
<text text-anchor="middle" x="562.51" y="-283.3" font-family="Times,serif" font-size="14.00">0</text>
</g>
<!-- fake&#45;&gt;0 -->
<g id="edge1" class="edge">
<title>fake&#45;&gt;0</title>
<path fill="none" stroke="black" stroke-width="2" d="M562.51,-341.81C562.51,-333.79 562.51,-324.05 562.51,-315.07"/>
<polygon fill="black" stroke="black" stroke-width="2" points="566.01,-315.03 562.51,-305.03 559.01,-315.03 566.01,-315.03"/>
</g>
<!-- 0&#45;&gt;0 -->
<g id="edge5" class="edge">
<title>0&#45;&gt;0</title>
<path fill="none" stroke="black" d="M587.95,-293.69C598.53,-294.15 607.51,-291.92 607.51,-287 607.51,-283.77 603.64,-281.7 597.99,-280.79"/>
<polygon fill="black" stroke="black" points="598.1,-277.29 587.95,-280.31 597.77,-284.28 598.1,-277.29"/>
<text text-anchor="middle" x="614.51" y="-283.3" font-family="Times,serif" font-size="14.00">{}</text>
</g>
<!-- 1 -->
<g id="node3" class="node">
<title>1</title>
<ellipse fill="none" stroke="black" cx="442.51" cy="-200" rx="27" ry="18"/>
<text text-anchor="middle" x="442.51" y="-196.3" font-family="Times,serif" font-size="14.00">1</text>
</g>
<!-- 0&#45;&gt;1 -->
<g id="edge2" class="edge">
<title>0&#45;&gt;1</title>
<path fill="none" stroke="black" d="M535.34,-285.08C488.07,-282.85 393.78,-275.37 373.51,-251 359.54,-234.21 384.64,-220.15 408.38,-211.26"/>
<polygon fill="black" stroke="black" points="409.74,-214.5 418.02,-207.89 407.42,-207.89 409.74,-214.5"/>
<text text-anchor="middle" x="397.01" y="-239.8" font-family="Times,serif" font-size="14.00">{c1, c2}</text>
</g>
<!-- 0&#45;&gt;1 -->
<g id="edge3" class="edge">
<title>0&#45;&gt;1</title>
<path fill="none" stroke="black" d="M535.5,-286.55C507.49,-285.5 464.88,-278.98 443.51,-251 438.6,-244.57 437.13,-236.2 437.24,-228.15"/>
<polygon fill="black" stroke="black" points="440.75,-228.22 438.16,-217.94 433.78,-227.59 440.75,-228.22"/>
<text text-anchor="middle" x="467.01" y="-239.8" font-family="Times,serif" font-size="14.00">{c0, c2}</text>
</g>
<!-- 0&#45;&gt;1 -->
<g id="edge4" class="edge">
<title>0&#45;&gt;1</title>
<path fill="none" stroke="black" d="M544.54,-273.27C524.48,-259.07 491.82,-235.93 468.87,-219.67"/>
<polygon fill="black" stroke="black" points="470.78,-216.74 460.59,-213.81 466.73,-222.45 470.78,-216.74"/>
<text text-anchor="middle" x="523.01" y="-239.8" font-family="Times,serif" font-size="14.00">{c2}</text>
</g>
<!-- 0&#45;&gt;1 -->
<g id="edge6" class="edge">
<title>0&#45;&gt;1</title>
<path fill="none" stroke="black" d="M558.76,-269.13C555.57,-258.35 549.95,-244.79 540.51,-236 523.54,-220.2 498.96,-211.45 478.66,-206.65"/>
<polygon fill="black" stroke="black" points="479.31,-203.21 468.8,-204.54 477.84,-210.05 479.31,-203.21"/>
<text text-anchor="middle" x="584.01" y="-239.8" font-family="Times,serif" font-size="14.00">{c0, c1, c2}</text>
</g>
<!-- 2 -->
<g id="node4" class="node">
<title>2</title>
<ellipse fill="none" stroke="black" cx="587.51" cy="-22" rx="27" ry="18"/>
<text text-anchor="middle" x="587.51" y="-18.3" font-family="Times,serif" font-size="14.00">2</text>
</g>
<!-- 0&#45;&gt;2 -->
<g id="edge7" class="edge">
<title>0&#45;&gt;2</title>
<path fill="none" stroke="black" d="M586.35,-278.44C599.21,-273 613.96,-264.25 621.51,-251 658.88,-185.37 622.67,-92.59 601.06,-48.36"/>
<polygon fill="black" stroke="black" points="604.07,-46.55 596.44,-39.19 597.81,-49.7 604.07,-46.55"/>
<text text-anchor="middle" x="660.01" y="-152.8" font-family="Times,serif" font-size="14.00">{c0, c1}</text>
</g>
<!-- 0&#45;&gt;2 -->
<g id="edge8" class="edge">
<title>0&#45;&gt;2</title>
<path fill="none" stroke="black" d="M587.02,-279.09C603.14,-273.56 623.87,-264.49 638.51,-251 671.14,-220.92 676.25,-206.93 687.51,-164 700.91,-112.89 648.57,-65.38 614.58,-40.7"/>
<polygon fill="black" stroke="black" points="616.58,-37.83 606.38,-34.93 612.55,-43.55 616.58,-37.83"/>
<text text-anchor="middle" x="703.01" y="-152.8" font-family="Times,serif" font-size="14.00">{c1}</text>
</g>
<!-- 0&#45;&gt;2 -->
<g id="edge9" class="edge">
<title>0&#45;&gt;2</title>
<path fill="none" stroke="black" d="M588.04,-280.53C608.61,-275.29 637.61,-265.92 659.51,-251 698.53,-224.41 708.02,-209.54 720.51,-164 736.62,-105.19 663.29,-58.99 619.06,-37.02"/>
<polygon fill="black" stroke="black" points="620.37,-33.76 609.84,-32.57 617.33,-40.07 620.37,-33.76"/>
<text text-anchor="middle" x="736.01" y="-152.8" font-family="Times,serif" font-size="14.00">{c0}</text>
</g>
<!-- 1&#45;&gt;1 -->
<g id="edge21" class="edge">
<title>1&#45;&gt;1</title>
<path fill="none" stroke="black" d="M467.04,-207.75C478.01,-208.49 487.51,-205.91 487.51,-200 487.51,-196.03 483.22,-193.56 477.08,-192.59"/>
<polygon fill="black" stroke="black" points="477.15,-189.09 467.04,-192.25 476.91,-196.09 477.15,-189.09"/>
<text text-anchor="middle" x="494.51" y="-196.3" font-family="Times,serif" font-size="14.00">{}</text>
</g>
<!-- 1&#45;&gt;2 -->
<g id="edge23" class="edge">
<title>1&#45;&gt;2</title>
<path fill="none" stroke="black" d="M440.73,-181.96C439.32,-159.98 439.93,-121.43 457.51,-95 483.82,-55.42 509.35,-65.96 551.51,-44 554.09,-42.65 556.76,-41.21 559.41,-39.73"/>
<polygon fill="black" stroke="black" points="561.32,-42.68 568.27,-34.68 557.85,-36.6 561.32,-42.68"/>
<text text-anchor="middle" x="481.01" y="-109.3" font-family="Times,serif" font-size="14.00">{c0, c2}</text>
</g>
<!-- 1&#45;&gt;2 -->
<g id="edge24" class="edge">
<title>1&#45;&gt;2</title>
<path fill="none" stroke="black" d="M456.42,-184.46C469.23,-170.91 488.61,-149.98 504.51,-131 528.1,-102.83 553.63,-69.07 570.05,-46.89"/>
<polygon fill="black" stroke="black" points="572.97,-48.83 576.09,-38.7 567.33,-44.67 572.97,-48.83"/>
<text text-anchor="middle" x="546.01" y="-109.3" font-family="Times,serif" font-size="14.00">{c2}</text>
</g>
<!-- 1&#45;&gt;2 -->
<g id="edge25" class="edge">
<title>1&#45;&gt;2</title>
<path fill="none" stroke="black" d="M467.01,-191.94C494.8,-182.63 539.37,-163.5 563.51,-131 580.98,-107.46 586.15,-73.6 587.48,-50.1"/>
<polygon fill="black" stroke="black" points="590.97,-50.22 587.84,-40.1 583.98,-49.96 590.97,-50.22"/>
<text text-anchor="middle" x="593.01" y="-109.3" font-family="Times,serif" font-size="14.00">{c0}</text>
</g>
<!-- 3 -->
<g id="node5" class="node">
<title>3</title>
<ellipse fill="none" stroke="black" cx="241.51" cy="-113" rx="27" ry="18"/>
<text text-anchor="middle" x="241.51" y="-109.3" font-family="Times,serif" font-size="14.00">3</text>
</g>
<!-- 1&#45;&gt;3 -->
<g id="edge18" class="edge">
<title>1&#45;&gt;3</title>
<path fill="none" stroke="black" d="M415.58,-197.5C350.42,-193.58 188.42,-182.11 172.51,-164 158.09,-147.59 183.26,-133.48 207.14,-124.47"/>
<polygon fill="black" stroke="black" points="208.57,-127.68 216.84,-121.04 206.24,-121.08 208.57,-127.68"/>
<text text-anchor="middle" x="196.01" y="-152.8" font-family="Times,serif" font-size="14.00">{c0, c1}</text>
</g>
<!-- 1&#45;&gt;3 -->
<g id="edge19" class="edge">
<title>1&#45;&gt;3</title>
<path fill="none" stroke="black" d="M415.39,-198.35C366.02,-196.53 264.53,-189.69 242.51,-164 237.1,-157.7 235.6,-149.13 235.83,-140.86"/>
<polygon fill="black" stroke="black" points="239.33,-141.06 236.89,-130.75 232.37,-140.33 239.33,-141.06"/>
<text text-anchor="middle" x="266.01" y="-152.8" font-family="Times,serif" font-size="14.00">{c1, c2}</text>
</g>
<!-- 1&#45;&gt;3 -->
<g id="edge20" class="edge">
<title>1&#45;&gt;3</title>
<path fill="none" stroke="black" d="M416.41,-194.76C389.48,-189.76 346.69,-180.02 312.51,-164 307.61,-161.7 285.89,-146.27 267.75,-133.15"/>
<polygon fill="black" stroke="black" points="269.37,-130 259.22,-126.96 265.26,-135.66 269.37,-130"/>
<text text-anchor="middle" x="346.01" y="-152.8" font-family="Times,serif" font-size="14.00">{c0, c1, c2}</text>
</g>
<!-- 1&#45;&gt;3 -->
<g id="edge22" class="edge">
<title>1&#45;&gt;3</title>
<path fill="none" stroke="black" d="M426.8,-185.27C411.62,-172.25 389.52,-153.96 379.51,-149 347.05,-132.94 306.55,-123.8 277.83,-118.92"/>
<polygon fill="black" stroke="black" points="278.26,-115.44 267.83,-117.3 277.14,-122.35 278.26,-115.44"/>
<text text-anchor="middle" x="414.01" y="-152.8" font-family="Times,serif" font-size="14.00">{c1}</text>
</g>
<!-- 2&#45;&gt;2 -->
<g id="edge34" class="edge">
<title>2&#45;&gt;2</title>
<path fill="none" stroke="black" d="M614.75,-23.5C624.53,-23.53 632.51,-23.03 632.51,-22 632.51,-21.37 629.54,-20.94 625.02,-20.71"/>
<polygon fill="black" stroke="black" points="624.81,-17.2 614.75,-20.5 624.67,-24.2 624.81,-17.2"/>
<text text-anchor="middle" x="656.01" y="-18.3" font-family="Times,serif" font-size="14.00">{c0, c1}</text>
</g>
<!-- 2&#45;&gt;2 -->
<g id="edge35" class="edge">
<title>2&#45;&gt;2</title>
<path fill="none" stroke="black" d="M614.4,-24.43C642.83,-25.68 679.51,-24.87 679.51,-22 679.51,-19.46 650.92,-18.53 624.66,-19.22"/>
<polygon fill="black" stroke="black" points="624.27,-15.73 614.4,-19.57 624.51,-22.72 624.27,-15.73"/>
<text text-anchor="middle" x="703.01" y="-18.3" font-family="Times,serif" font-size="14.00">{c0, c2}</text>
</g>
<!-- 2&#45;&gt;2 -->
<g id="edge36" class="edge">
<title>2&#45;&gt;2</title>
<path fill="none" stroke="black" d="M614.41,-25.02C657.12,-27.73 726.51,-26.72 726.51,-22 726.51,-17.64 667.29,-16.45 624.59,-18.43"/>
<polygon fill="black" stroke="black" points="624.2,-14.94 614.41,-18.98 624.58,-21.93 624.2,-14.94"/>
<text text-anchor="middle" x="760.01" y="-18.3" font-family="Times,serif" font-size="14.00">{c0, c1, c2}</text>
</g>
<!-- 2&#45;&gt;2 -->
<g id="edge37" class="edge">
<title>2&#45;&gt;2</title>
<path fill="none" stroke="black" d="M614.09,-25.32C673.18,-29.78 793.51,-28.67 793.51,-22 793.51,-15.69 685.98,-14.36 624.3,-18"/>
<polygon fill="black" stroke="black" points="623.83,-14.52 614.09,-18.68 624.3,-21.5 623.83,-14.52"/>
<text text-anchor="middle" x="807.01" y="-18.3" font-family="Times,serif" font-size="14.00">{c2}</text>
</g>
<!-- 2&#45;&gt;2 -->
<g id="edge38" class="edge">
<title>2&#45;&gt;2</title>
<path fill="none" stroke="black" d="M613.98,-25.79C679.83,-31.78 820.51,-30.52 820.51,-22 820.51,-13.9 693.23,-12.36 624.13,-17.38"/>
<polygon fill="black" stroke="black" points="623.66,-13.91 613.98,-18.21 624.23,-20.89 623.66,-13.91"/>
<text text-anchor="middle" x="827.51" y="-18.3" font-family="Times,serif" font-size="14.00">{}</text>
</g>
<!-- 2&#45;&gt;2 -->
<g id="edge39" class="edge">
<title>2&#45;&gt;2</title>
<path fill="none" stroke="black" d="M614.05,-26.25C684.98,-33.78 838.51,-32.36 838.51,-22 838.51,-12.11 698.47,-10.37 624.09,-16.79"/>
<polygon fill="black" stroke="black" points="623.67,-13.31 614.05,-17.75 624.34,-20.28 623.67,-13.31"/>
<text text-anchor="middle" x="852.01" y="-18.3" font-family="Times,serif" font-size="14.00">{c1}</text>
</g>
<!-- 2&#45;&gt;2 -->
<g id="edge40" class="edge">
<title>2&#45;&gt;2</title>
<path fill="none" stroke="black" d="M613.83,-26.56C691.32,-35.78 865.51,-34.26 865.51,-22 865.51,-10.24 705.32,-8.36 623.84,-16.36"/>
<polygon fill="black" stroke="black" points="623.4,-12.88 613.83,-17.44 624.15,-19.84 623.4,-12.88"/>
<text text-anchor="middle" x="879.01" y="-18.3" font-family="Times,serif" font-size="14.00">{c0}</text>
</g>
<!-- 2&#45;&gt;2 -->
<g id="edge41" class="edge">
<title>2&#45;&gt;2</title>
<path fill="none" stroke="black" d="M613.59,-26.82C697.51,-37.79 892.51,-36.19 892.51,-22 892.51,-8.35 712.08,-6.35 623.65,-15.98"/>
<polygon fill="black" stroke="black" points="623.11,-12.52 613.59,-17.18 623.94,-19.47 623.11,-12.52"/>
<text text-anchor="middle" x="916.01" y="-18.3" font-family="Times,serif" font-size="14.00">{c1, c2}</text>
</g>
<!-- 3&#45;&gt;2 -->
<g id="edge31" class="edge">
<title>3&#45;&gt;2</title>
<path fill="none" stroke="black" d="M250.53,-95.9C258,-84.28 269.76,-69.38 284.51,-62 337.69,-35.39 494.65,-61.44 551.51,-44 554.52,-43.07 557.55,-41.86 560.51,-40.47"/>
<polygon fill="black" stroke="black" points="562.41,-43.43 569.58,-35.63 559.11,-37.25 562.41,-43.43"/>
<text text-anchor="middle" x="298.01" y="-65.8" font-family="Times,serif" font-size="14.00">{c2}</text>
</g>
<!-- 3&#45;&gt;2 -->
<g id="edge32" class="edge">
<title>3&#45;&gt;2</title>
<path fill="none" stroke="black" d="M262.97,-102.05C277,-95.36 295.59,-86.13 311.51,-77 322.09,-70.93 322.96,-65.96 334.51,-62 426.05,-30.61 459.21,-73.1 551.51,-44 554.51,-43.05 557.54,-41.82 560.5,-40.42"/>
<polygon fill="black" stroke="black" points="562.4,-43.37 569.56,-35.57 559.09,-37.2 562.4,-43.37"/>
<text text-anchor="middle" x="348.01" y="-65.8" font-family="Times,serif" font-size="14.00">{c1}</text>
</g>
<!-- 3&#45;&gt;2 -->
<g id="edge33" class="edge">
<title>3&#45;&gt;2</title>
<path fill="none" stroke="black" d="M267.1,-106.84C291.94,-101.3 330.35,-91.32 361.51,-77 372.59,-71.9 373.01,-66.1 384.51,-62 454.82,-36.92 480.59,-67.32 551.51,-44 554.5,-43.01 557.52,-41.76 560.47,-40.35"/>
<polygon fill="black" stroke="black" points="562.38,-43.29 569.53,-35.47 559.06,-37.13 562.38,-43.29"/>
<text text-anchor="middle" x="408.01" y="-65.8" font-family="Times,serif" font-size="14.00">{c1, c2}</text>
</g>
<!-- 3&#45;&gt;3 -->
<g id="edge29" class="edge">
<title>3&#45;&gt;3</title>
<path fill="none" stroke="black" d="M266.04,-120.75C277.01,-121.49 286.51,-118.91 286.51,-113 286.51,-109.03 282.22,-106.56 276.08,-105.59"/>
<polygon fill="black" stroke="black" points="276.15,-102.09 266.04,-105.25 275.91,-109.09 276.15,-102.09"/>
<text text-anchor="middle" x="293.51" y="-109.3" font-family="Times,serif" font-size="14.00">{}</text>
</g>
<!-- 4 -->
<g id="node6" class="node">
<title>4</title>
<ellipse fill="none" stroke="black" cx="73.51" cy="-22" rx="18" ry="18"/>
<ellipse fill="none" stroke="black" cx="73.51" cy="-22" rx="22" ry="22"/>
<text text-anchor="middle" x="73.51" y="-18.3" font-family="Times,serif" font-size="14.00">4</text>
</g>
<!-- 3&#45;&gt;4 -->
<g id="edge26" class="edge">
<title>3&#45;&gt;4</title>
<path fill="none" stroke="black" d="M214.24,-112.22C157.83,-112.04 31.34,-108.09 4.51,-77 -10.94,-59.11 17.78,-43.04 42.75,-33.18"/>
<polygon fill="black" stroke="black" points="44.23,-36.36 52.38,-29.59 41.78,-29.8 44.23,-36.36"/>
<text text-anchor="middle" x="28.01" y="-65.8" font-family="Times,serif" font-size="14.00">{c0, c2}</text>
</g>
<!-- 3&#45;&gt;4 -->
<g id="edge27" class="edge">
<title>3&#45;&gt;4</title>
<path fill="none" stroke="black" d="M214.47,-110.31C171.84,-107.04 92.02,-98.17 74.51,-77 69.15,-70.53 67.42,-61.98 67.43,-53.59"/>
<polygon fill="black" stroke="black" points="70.93,-53.83 68.19,-43.59 63.95,-53.3 70.93,-53.83"/>
<text text-anchor="middle" x="88.01" y="-65.8" font-family="Times,serif" font-size="14.00">{c0}</text>
</g>
<!-- 3&#45;&gt;4 -->
<g id="edge28" class="edge">
<title>3&#45;&gt;4</title>
<path fill="none" stroke="black" d="M215.26,-108.18C190.43,-103.67 152.84,-94.46 124.51,-77 112.38,-69.53 101.22,-58.45 92.45,-48.27"/>
<polygon fill="black" stroke="black" points="95.02,-45.88 85.96,-40.38 89.62,-50.33 95.02,-45.88"/>
<text text-anchor="middle" x="158.01" y="-65.8" font-family="Times,serif" font-size="14.00">{c0, c1, c2}</text>
</g>
<!-- 3&#45;&gt;4 -->
<g id="edge30" class="edge">
<title>3&#45;&gt;4</title>
<path fill="none" stroke="black" d="M229.42,-96.53C220.11,-85.53 206.35,-71.15 191.51,-62 164.67,-45.46 130.02,-35.09 105.23,-29.24"/>
<polygon fill="black" stroke="black" points="105.78,-25.78 95.25,-27.01 104.25,-32.61 105.78,-25.78"/>
<text text-anchor="middle" x="234.01" y="-65.8" font-family="Times,serif" font-size="14.00">{c0, c1}</text>
</g>
<!-- 4&#45;&gt;4 -->
<g id="edge10" class="edge">
<title>4&#45;&gt;4</title>
<path fill="none" stroke="black" d="M95.72,-23.48C105.3,-23.6 113.51,-23.11 113.51,-22 113.51,-21.32 110.46,-20.88 105.91,-20.66"/>
<polygon fill="black" stroke="black" points="105.77,-17.16 95.72,-20.52 105.67,-24.15 105.77,-17.16"/>
<text text-anchor="middle" x="137.01" y="-18.3" font-family="Times,serif" font-size="14.00">{c0, c1}</text>
</g>
<!-- 4&#45;&gt;4 -->
<g id="edge11" class="edge">
<title>4&#45;&gt;4</title>
<path fill="none" stroke="black" d="M95.68,-24.27C122.84,-25.74 160.51,-24.98 160.51,-22 160.51,-19.38 131.41,-18.47 105.92,-19.29"/>
<polygon fill="black" stroke="black" points="105.52,-15.8 95.68,-19.73 105.82,-22.8 105.52,-15.8"/>
<text text-anchor="middle" x="184.01" y="-18.3" font-family="Times,serif" font-size="14.00">{c1, c2}</text>
</g>
<!-- 4&#45;&gt;4 -->
<g id="edge12" class="edge">
<title>4&#45;&gt;4</title>
<path fill="none" stroke="black" d="M95.57,-24.76C136.11,-27.78 207.51,-26.86 207.51,-22 207.51,-17.52 146.83,-16.38 105.59,-18.6"/>
<polygon fill="black" stroke="black" points="105.33,-15.11 95.57,-19.24 105.77,-22.1 105.33,-15.11"/>
<text text-anchor="middle" x="221.01" y="-18.3" font-family="Times,serif" font-size="14.00">{c2}</text>
</g>
<!-- 4&#45;&gt;4 -->
<g id="edge13" class="edge">
<title>4&#45;&gt;4</title>
<path fill="none" stroke="black" d="M95.53,-25.26C143.47,-29.79 234.51,-28.7 234.51,-22 234.51,-15.74 155.16,-14.38 105.61,-17.91"/>
<polygon fill="black" stroke="black" points="105.21,-14.43 95.53,-18.74 105.78,-21.41 105.21,-14.43"/>
<text text-anchor="middle" x="248.01" y="-18.3" font-family="Times,serif" font-size="14.00">{c0}</text>
</g>
<!-- 4&#45;&gt;4 -->
<g id="edge14" class="edge">
<title>4&#45;&gt;4</title>
<path fill="none" stroke="black" d="M95.25,-25.63C150.23,-31.8 261.51,-30.59 261.51,-22 261.51,-13.91 162.89,-12.36 105.46,-17.36"/>
<polygon fill="black" stroke="black" points="104.85,-13.91 95.25,-18.37 105.54,-20.87 104.85,-13.91"/>
<text text-anchor="middle" x="295.01" y="-18.3" font-family="Times,serif" font-size="14.00">{c0, c1, c2}</text>
</g>
<!-- 4&#45;&gt;4 -->
<g id="edge15" class="edge">
<title>4&#45;&gt;4</title>
<path fill="none" stroke="black" d="M95.52,-25.78C164.27,-33.83 328.51,-32.57 328.51,-22 328.51,-11.93 179.31,-10.31 105.79,-17.15"/>
<polygon fill="black" stroke="black" points="105.1,-13.7 95.52,-18.22 105.83,-20.67 105.1,-13.7"/>
<text text-anchor="middle" x="342.01" y="-18.3" font-family="Times,serif" font-size="14.00">{c1}</text>
</g>
<!-- 4&#45;&gt;4 -->
<g id="edge16" class="edge">
<title>4&#45;&gt;4</title>
<path fill="none" stroke="black" d="M95.24,-26.03C170.14,-35.84 355.51,-34.5 355.51,-22 355.51,-10.04 185.73,-8.3 105.48,-16.77"/>
<polygon fill="black" stroke="black" points="104.76,-13.33 95.24,-17.97 105.58,-20.28 104.76,-13.33"/>
<text text-anchor="middle" x="379.01" y="-18.3" font-family="Times,serif" font-size="14.00">{c0, c2}</text>
</g>
<!-- 4&#45;&gt;4 -->
<g id="edge17" class="edge">
<title>4&#45;&gt;4</title>
<path fill="none" stroke="black" d="M95.23,-26.19C179.2,-37.85 402.51,-36.45 402.51,-22 402.51,-8.1 195.88,-6.27 105.41,-16.53"/>
<polygon fill="black" stroke="black" points="104.72,-13.09 95.23,-17.81 105.59,-20.04 104.72,-13.09"/>
<text text-anchor="middle" x="409.51" y="-18.3" font-family="Times,serif" font-size="14.00">{}</text>
</g>
</g>
</svg>
