<?xml version="1.0" encoding="UTF-8" standalone="no"?>
<!DOCTYPE svg PUBLIC "-//W3C//DTD SVG 1.1//EN"
 "http://www.w3.org/Graphics/SVG/1.1/DTD/svg11.dtd">
<!-- Generated by graphviz version 2.43.0 (0)
 -->
<!-- Title: %3 Pages: 1 -->
<svg width="1074pt" height="386pt"
 viewBox="0.00 0.00 1073.61 386.00" xmlns="http://www.w3.org/2000/svg" xmlns:xlink="http://www.w3.org/1999/xlink">
<g id="graph0" class="graph" transform="scale(1 1) rotate(0) translate(4 382)">
<title>%3</title>
<polygon fill="white" stroke="transparent" points="-4,4 -4,-382 1069.61,-382 1069.61,4 -4,4"/>
<!-- fake -->
<g id="node1" class="node">
<title>fake</title>
</g>
<!-- 0 -->
<g id="node2" class="node">
<title>0</title>
<ellipse fill="none" stroke="black" cx="584.61" cy="-287" rx="27" ry="18"/>
<text text-anchor="middle" x="584.61" y="-283.3" font-family="Times,serif" font-size="14.00">0</text>
</g>
<!-- fake&#45;&gt;0 -->
<g id="edge1" class="edge">
<title>fake&#45;&gt;0</title>
<path fill="none" stroke="black" stroke-width="2" d="M584.61,-341.81C584.61,-333.79 584.61,-324.05 584.61,-315.07"/>
<polygon fill="black" stroke="black" stroke-width="2" points="588.11,-315.03 584.61,-305.03 581.11,-315.03 588.11,-315.03"/>
</g>
<!-- 0&#45;&gt;0 -->
<g id="edge11" class="edge">
<title>0&#45;&gt;0</title>
<path fill="none" stroke="black" d="M610.05,-293.69C620.64,-294.15 629.61,-291.92 629.61,-287 629.61,-283.77 625.75,-281.7 620.1,-280.79"/>
<polygon fill="black" stroke="black" points="620.21,-277.29 610.05,-280.31 619.88,-284.28 620.21,-277.29"/>
<text text-anchor="middle" x="636.61" y="-283.3" font-family="Times,serif" font-size="14.00">{}</text>
</g>
<!-- 1 -->
<g id="node3" class="node">
<title>1</title>
<ellipse fill="none" stroke="black" cx="444.61" cy="-200" rx="27" ry="18"/>
<text text-anchor="middle" x="444.61" y="-196.3" font-family="Times,serif" font-size="14.00">1</text>
</g>
<!-- 0&#45;&gt;1 -->
<g id="edge10" class="edge">
<title>0&#45;&gt;1</title>
<path fill="none" stroke="black" d="M557.43,-285.62C506.25,-284.26 398.61,-278.17 375.61,-251 361.5,-234.33 386.62,-220.25 410.41,-211.33"/>
<polygon fill="black" stroke="black" points="411.79,-214.55 420.06,-207.94 409.47,-207.95 411.79,-214.55"/>
<text text-anchor="middle" x="399.11" y="-239.8" font-family="Times,serif" font-size="14.00">{c0, c2}</text>
</g>
<!-- 0&#45;&gt;1 -->
<g id="edge12" class="edge">
<title>0&#45;&gt;1</title>
<path fill="none" stroke="black" d="M558.21,-283.14C521.91,-278.6 459.48,-268.43 445.61,-251 440.52,-244.6 439.04,-236.14 439.2,-228"/>
<polygon fill="black" stroke="black" points="442.69,-228.32 440.14,-218.04 435.72,-227.67 442.69,-228.32"/>
<text text-anchor="middle" x="479.11" y="-239.8" font-family="Times,serif" font-size="14.00">{c0, c1, c2}</text>
</g>
<!-- 0&#45;&gt;1 -->
<g id="edge13" class="edge">
<title>0&#45;&gt;1</title>
<path fill="none" stroke="black" d="M566.89,-273.3C549.2,-260.69 523.18,-242.35 512.61,-236 500.67,-228.82 487.09,-221.65 475.22,-215.68"/>
<polygon fill="black" stroke="black" points="476.65,-212.48 466.14,-211.18 473.54,-218.75 476.65,-212.48"/>
<text text-anchor="middle" x="547.11" y="-239.8" font-family="Times,serif" font-size="14.00">{c0}</text>
</g>
<!-- 0&#45;&gt;1 -->
<g id="edge14" class="edge">
<title>0&#45;&gt;1</title>
<path fill="none" stroke="black" d="M581.02,-268.96C577.89,-258.11 572.29,-244.53 562.61,-236 540.21,-216.26 507.1,-207.64 481.65,-203.88"/>
<polygon fill="black" stroke="black" points="481.98,-200.4 471.62,-202.59 481.09,-207.34 481.98,-200.4"/>
<text text-anchor="middle" x="596.11" y="-239.8" font-family="Times,serif" font-size="14.00">{c0, c1}</text>
</g>
<!-- 2 -->
<g id="node4" class="node">
<title>2</title>
<ellipse fill="none" stroke="black" cx="591.61" cy="-22" rx="27" ry="18"/>
<text text-anchor="middle" x="591.61" y="-18.3" font-family="Times,serif" font-size="14.00">2</text>
</g>
<!-- 0&#45;&gt;2 -->
<g id="edge15" class="edge">
<title>0&#45;&gt;2</title>
<path fill="none" stroke="black" d="M603.81,-274.07C611.48,-268.17 619.46,-260.31 623.61,-251 626.33,-244.91 623.82,-242.66 623.61,-236 621.61,-173.24 626.25,-156.71 614.61,-95 611.68,-79.48 606.43,-62.65 601.68,-49.16"/>
<polygon fill="black" stroke="black" points="604.9,-47.78 598.19,-39.57 598.32,-50.17 604.9,-47.78"/>
<text text-anchor="middle" x="646.11" y="-152.8" font-family="Times,serif" font-size="14.00">{c1, c2}</text>
</g>
<!-- 0&#45;&gt;2 -->
<g id="edge16" class="edge">
<title>0&#45;&gt;2</title>
<path fill="none" stroke="black" d="M605.94,-275.8C616.61,-269.81 629.05,-261.38 637.61,-251 664.24,-218.72 665.45,-205.04 673.61,-164 683.06,-116.47 643.24,-69.49 615.8,-43.55"/>
<polygon fill="black" stroke="black" points="617.83,-40.67 608.09,-36.51 613.11,-45.84 617.83,-40.67"/>
<text text-anchor="middle" x="688.11" y="-152.8" font-family="Times,serif" font-size="14.00">{c1}</text>
</g>
<!-- 0&#45;&gt;2 -->
<g id="edge17" class="edge">
<title>0&#45;&gt;2</title>
<path fill="none" stroke="black" d="M608.19,-278.2C623.23,-272.4 642.48,-263.34 656.61,-251 690.04,-221.82 695.42,-207.19 705.61,-164 717.3,-114.48 691.44,-96.03 653.61,-62 643.86,-53.23 631.91,-45.2 621.1,-38.73"/>
<polygon fill="black" stroke="black" points="622.78,-35.66 612.37,-33.69 619.28,-41.72 622.78,-35.66"/>
<text text-anchor="middle" x="721.11" y="-152.8" font-family="Times,serif" font-size="14.00">{c2}</text>
</g>
<!-- 1&#45;&gt;1 -->
<g id="edge5" class="edge">
<title>1&#45;&gt;1</title>
<path fill="none" stroke="black" d="M469.14,-207.75C480.12,-208.49 489.61,-205.91 489.61,-200 489.61,-196.03 485.33,-193.56 479.19,-192.59"/>
<polygon fill="black" stroke="black" points="479.26,-189.09 469.14,-192.25 479.02,-196.09 479.26,-189.09"/>
<text text-anchor="middle" x="496.61" y="-196.3" font-family="Times,serif" font-size="14.00">{}</text>
</g>
<!-- 1&#45;&gt;2 -->
<g id="edge7" class="edge">
<title>1&#45;&gt;2</title>
<path fill="none" stroke="black" d="M442.83,-181.96C441.42,-159.98 442.04,-121.43 459.61,-95 486.36,-54.77 512.56,-65.92 555.61,-44 558.21,-42.68 560.88,-41.25 563.54,-39.78"/>
<polygon fill="black" stroke="black" points="565.44,-42.73 572.41,-34.75 561.98,-36.65 565.44,-42.73"/>
<text text-anchor="middle" x="483.11" y="-109.3" font-family="Times,serif" font-size="14.00">{c0, c2}</text>
</g>
<!-- 1&#45;&gt;2 -->
<g id="edge8" class="edge">
<title>1&#45;&gt;2</title>
<path fill="none" stroke="black" d="M458.47,-184.42C471.25,-170.83 490.6,-149.89 506.61,-131 530.72,-102.56 557.06,-68.6 573.93,-46.46"/>
<polygon fill="black" stroke="black" points="576.86,-48.38 580.12,-38.3 571.29,-44.15 576.86,-48.38"/>
<text text-anchor="middle" x="549.11" y="-109.3" font-family="Times,serif" font-size="14.00">{c0}</text>
</g>
<!-- 1&#45;&gt;2 -->
<g id="edge9" class="edge">
<title>1&#45;&gt;2</title>
<path fill="none" stroke="black" d="M469.27,-191.96C497.23,-182.67 542.12,-163.56 566.61,-131 584.27,-107.53 589.76,-73.65 591.31,-50.13"/>
<polygon fill="black" stroke="black" points="594.81,-50.27 591.78,-40.12 587.82,-49.94 594.81,-50.27"/>
<text text-anchor="middle" x="597.11" y="-109.3" font-family="Times,serif" font-size="14.00">{c2}</text>
</g>
<!-- 3 -->
<g id="node5" class="node">
<title>3</title>
<ellipse fill="none" stroke="black" cx="243.61" cy="-113" rx="27" ry="18"/>
<text text-anchor="middle" x="243.61" y="-109.3" font-family="Times,serif" font-size="14.00">3</text>
</g>
<!-- 1&#45;&gt;3 -->
<g id="edge2" class="edge">
<title>1&#45;&gt;3</title>
<path fill="none" stroke="black" d="M417.69,-197.5C352.53,-193.58 190.52,-182.11 174.61,-164 160.19,-147.59 185.36,-133.48 209.25,-124.47"/>
<polygon fill="black" stroke="black" points="210.68,-127.68 218.94,-121.04 208.35,-121.08 210.68,-127.68"/>
<text text-anchor="middle" x="198.11" y="-152.8" font-family="Times,serif" font-size="14.00">{c0, c1}</text>
</g>
<!-- 1&#45;&gt;3 -->
<g id="edge3" class="edge">
<title>1&#45;&gt;3</title>
<path fill="none" stroke="black" d="M417.49,-198.35C368.12,-196.53 266.64,-189.69 244.61,-164 239.21,-157.7 237.7,-149.13 237.93,-140.86"/>
<polygon fill="black" stroke="black" points="241.43,-141.06 239,-130.75 234.47,-140.33 241.43,-141.06"/>
<text text-anchor="middle" x="268.11" y="-152.8" font-family="Times,serif" font-size="14.00">{c1, c2}</text>
</g>
<!-- 1&#45;&gt;3 -->
<g id="edge4" class="edge">
<title>1&#45;&gt;3</title>
<path fill="none" stroke="black" d="M418.52,-194.76C391.58,-189.76 348.79,-180.02 314.61,-164 309.71,-161.7 287.99,-146.27 269.85,-133.15"/>
<polygon fill="black" stroke="black" points="271.47,-130 261.32,-126.96 267.36,-135.66 271.47,-130"/>
<text text-anchor="middle" x="328.11" y="-152.8" font-family="Times,serif" font-size="14.00">{c1}</text>
</g>
<!-- 1&#45;&gt;3 -->
<g id="edge6" class="edge">
<title>1&#45;&gt;3</title>
<path fill="none" stroke="black" d="M421.72,-190.17C405.46,-183.61 383.29,-174.08 364.61,-164 353.87,-158.2 352.54,-154.42 341.61,-149 321.08,-138.81 296.82,-130.13 277.58,-123.96"/>
<polygon fill="black" stroke="black" points="278.61,-120.61 268.02,-120.96 276.52,-127.29 278.61,-120.61"/>
<text text-anchor="middle" x="398.11" y="-152.8" font-family="Times,serif" font-size="14.00">{c0, c1, c2}</text>
</g>
<!-- 2&#45;&gt;2 -->
<g id="edge34" class="edge">
<title>2&#45;&gt;2</title>
<path fill="none" stroke="black" d="M618.85,-23.5C628.64,-23.53 636.61,-23.03 636.61,-22 636.61,-21.37 633.65,-20.94 629.12,-20.71"/>
<polygon fill="black" stroke="black" points="628.92,-17.2 618.85,-20.5 628.78,-24.2 628.92,-17.2"/>
<text text-anchor="middle" x="660.11" y="-18.3" font-family="Times,serif" font-size="14.00">{c0, c1}</text>
</g>
<!-- 2&#45;&gt;2 -->
<g id="edge35" class="edge">
<title>2&#45;&gt;2</title>
<path fill="none" stroke="black" d="M618.5,-24.43C646.93,-25.68 683.61,-24.87 683.61,-22 683.61,-19.46 655.03,-18.53 628.77,-19.22"/>
<polygon fill="black" stroke="black" points="628.38,-15.73 618.5,-19.57 628.62,-22.72 628.38,-15.73"/>
<text text-anchor="middle" x="707.11" y="-18.3" font-family="Times,serif" font-size="14.00">{c0, c2}</text>
</g>
<!-- 2&#45;&gt;2 -->
<g id="edge36" class="edge">
<title>2&#45;&gt;2</title>
<path fill="none" stroke="black" d="M618.51,-25.02C661.22,-27.73 730.61,-26.72 730.61,-22 730.61,-17.64 671.39,-16.45 628.69,-18.43"/>
<polygon fill="black" stroke="black" points="628.31,-14.94 618.51,-18.98 628.69,-21.93 628.31,-14.94"/>
<text text-anchor="middle" x="737.61" y="-18.3" font-family="Times,serif" font-size="14.00">{}</text>
</g>
<!-- 2&#45;&gt;2 -->
<g id="edge37" class="edge">
<title>2&#45;&gt;2</title>
<path fill="none" stroke="black" d="M618.35,-25.66C666.75,-29.72 748.61,-28.5 748.61,-22 748.61,-15.93 677.26,-14.47 628.4,-17.6"/>
<polygon fill="black" stroke="black" points="628.07,-14.12 618.35,-18.34 628.58,-21.1 628.07,-14.12"/>
<text text-anchor="middle" x="772.11" y="-18.3" font-family="Times,serif" font-size="14.00">{c1, c2}</text>
</g>
<!-- 2&#45;&gt;2 -->
<g id="edge38" class="edge">
<title>2&#45;&gt;2</title>
<path fill="none" stroke="black" d="M618.01,-25.96C678.15,-31.76 795.61,-30.44 795.61,-22 795.61,-14.01 690.21,-12.4 627.98,-17.19"/>
<polygon fill="black" stroke="black" points="627.67,-13.7 618.01,-18.04 628.27,-20.67 627.67,-13.7"/>
<text text-anchor="middle" x="829.11" y="-18.3" font-family="Times,serif" font-size="14.00">{c0, c1, c2}</text>
</g>
<!-- 2&#45;&gt;2 -->
<g id="edge39" class="edge">
<title>2&#45;&gt;2</title>
<path fill="none" stroke="black" d="M618.17,-26.15C692.66,-33.79 862.61,-32.41 862.61,-22 862.61,-12.04 706.95,-10.35 628.28,-16.92"/>
<polygon fill="black" stroke="black" points="627.8,-13.45 618.17,-17.85 628.45,-20.42 627.8,-13.45"/>
<text text-anchor="middle" x="876.11" y="-18.3" font-family="Times,serif" font-size="14.00">{c0}</text>
</g>
<!-- 2&#45;&gt;2 -->
<g id="edge40" class="edge">
<title>2&#45;&gt;2</title>
<path fill="none" stroke="black" d="M617.97,-26.47C698.81,-35.79 889.61,-34.3 889.61,-22 889.61,-10.18 713.42,-8.34 627.93,-16.49"/>
<polygon fill="black" stroke="black" points="627.56,-13.01 617.97,-17.53 628.28,-19.97 627.56,-13.01"/>
<text text-anchor="middle" x="903.11" y="-18.3" font-family="Times,serif" font-size="14.00">{c1}</text>
</g>
<!-- 2&#45;&gt;2 -->
<g id="edge41" class="edge">
<title>2&#45;&gt;2</title>
<path fill="none" stroke="black" d="M617.83,-26.75C704.96,-37.8 916.61,-36.22 916.61,-22 916.61,-8.31 720.38,-6.33 628.03,-16.07"/>
<polygon fill="black" stroke="black" points="627.36,-12.63 617.83,-17.25 628.17,-19.58 627.36,-12.63"/>
<text text-anchor="middle" x="930.11" y="-18.3" font-family="Times,serif" font-size="14.00">{c2}</text>
</g>
<!-- 3&#45;&gt;2 -->
<g id="edge31" class="edge">
<title>3&#45;&gt;2</title>
<path fill="none" stroke="black" d="M252.33,-95.42C259.37,-83.88 270.44,-69.29 284.61,-62 338.28,-34.39 497.9,-61.67 555.61,-44 558.63,-43.08 561.66,-41.86 564.62,-40.47"/>
<polygon fill="black" stroke="black" points="566.51,-43.43 573.69,-35.63 563.22,-37.25 566.51,-43.43"/>
<text text-anchor="middle" x="308.11" y="-65.8" font-family="Times,serif" font-size="14.00">{c0, c1}</text>
</g>
<!-- 3&#45;&gt;2 -->
<g id="edge32" class="edge">
<title>3&#45;&gt;2</title>
<path fill="none" stroke="black" d="M267.33,-104.02C285.37,-97.61 310.59,-87.9 331.61,-77 342.45,-71.38 343.08,-66 354.61,-62 439.36,-32.63 470.16,-71.25 555.61,-44 558.62,-43.04 561.64,-41.8 564.59,-40.4"/>
<polygon fill="black" stroke="black" points="566.5,-43.35 573.66,-35.54 563.19,-37.18 566.5,-43.35"/>
<text text-anchor="middle" x="368.11" y="-65.8" font-family="Times,serif" font-size="14.00">{c0}</text>
</g>
<!-- 3&#45;&gt;2 -->
<g id="edge33" class="edge">
<title>3&#45;&gt;2</title>
<path fill="none" stroke="black" d="M269.63,-108.04C298.01,-103.12 344.37,-93.32 381.61,-77 392.79,-72.1 393.14,-66.16 404.61,-62 468.14,-38.93 491.53,-65.48 555.61,-44 558.6,-43 561.62,-41.73 564.56,-40.31"/>
<polygon fill="black" stroke="black" points="566.48,-43.25 573.62,-35.43 563.16,-37.09 566.48,-43.25"/>
<text text-anchor="middle" x="418.11" y="-65.8" font-family="Times,serif" font-size="14.00">{c1}</text>
</g>
<!-- 3&#45;&gt;3 -->
<g id="edge28" class="edge">
<title>3&#45;&gt;3</title>
<path fill="none" stroke="black" d="M268.14,-120.75C279.12,-121.49 288.61,-118.91 288.61,-113 288.61,-109.03 284.33,-106.56 278.19,-105.59"/>
<polygon fill="black" stroke="black" points="278.26,-102.09 268.14,-105.25 278.02,-109.09 278.26,-102.09"/>
<text text-anchor="middle" x="295.61" y="-109.3" font-family="Times,serif" font-size="14.00">{}</text>
</g>
<!-- 4 -->
<g id="node6" class="node">
<title>4</title>
<ellipse fill="none" stroke="black" cx="77.61" cy="-22" rx="18" ry="18"/>
<ellipse fill="none" stroke="black" cx="77.61" cy="-22" rx="22" ry="22"/>
<text text-anchor="middle" x="77.61" y="-18.3" font-family="Times,serif" font-size="14.00">4</text>
</g>
<!-- 3&#45;&gt;4 -->
<g id="edge26" class="edge">
<title>3&#45;&gt;4</title>
<path fill="none" stroke="black" d="M216.55,-112.26C159.88,-112.17 31.76,-108.41 4.61,-77 -11.73,-58.09 20.16,-41.89 46.82,-32.3"/>
<polygon fill="black" stroke="black" points="47.96,-35.61 56.3,-29.07 45.71,-28.98 47.96,-35.61"/>
<text text-anchor="middle" x="38.11" y="-65.8" font-family="Times,serif" font-size="14.00">{c0, c1, c2}</text>
</g>
<!-- 3&#45;&gt;4 -->
<g id="edge27" class="edge">
<title>3&#45;&gt;4</title>
<path fill="none" stroke="black" d="M217.28,-108.96C179.42,-104.08 112.24,-93.36 94.61,-77 88.09,-70.94 84.05,-62.41 81.56,-53.92"/>
<polygon fill="black" stroke="black" points="84.96,-53.07 79.29,-44.11 78.14,-54.65 84.96,-53.07"/>
<text text-anchor="middle" x="108.11" y="-65.8" font-family="Times,serif" font-size="14.00">{c2}</text>
</g>
<!-- 3&#45;&gt;4 -->
<g id="edge29" class="edge">
<title>3&#45;&gt;4</title>
<path fill="none" stroke="black" d="M218.61,-105.71C197.98,-99.92 168.33,-90.24 144.61,-77 128.77,-68.16 112.89,-55.56 100.56,-44.75"/>
<polygon fill="black" stroke="black" points="102.79,-42.05 93.01,-37.97 98.11,-47.26 102.79,-42.05"/>
<text text-anchor="middle" x="168.11" y="-65.8" font-family="Times,serif" font-size="14.00">{c0, c2}</text>
</g>
<!-- 3&#45;&gt;4 -->
<g id="edge30" class="edge">
<title>3&#45;&gt;4</title>
<path fill="none" stroke="black" d="M230.89,-96.59C221.13,-85.63 206.79,-71.26 191.61,-62 165.79,-46.25 132.77,-35.85 108.91,-29.78"/>
<polygon fill="black" stroke="black" points="109.53,-26.33 98.98,-27.37 107.87,-33.13 109.53,-26.33"/>
<text text-anchor="middle" x="234.11" y="-65.8" font-family="Times,serif" font-size="14.00">{c1, c2}</text>
</g>
<!-- 4&#45;&gt;4 -->
<g id="edge18" class="edge">
<title>4&#45;&gt;4</title>
<path fill="none" stroke="black" d="M99.82,-23.48C109.41,-23.6 117.61,-23.11 117.61,-22 117.61,-21.32 114.56,-20.88 110.02,-20.66"/>
<polygon fill="black" stroke="black" points="109.87,-17.16 99.82,-20.52 109.77,-24.15 109.87,-17.16"/>
<text text-anchor="middle" x="141.11" y="-18.3" font-family="Times,serif" font-size="14.00">{c0, c1}</text>
</g>
<!-- 4&#45;&gt;4 -->
<g id="edge19" class="edge">
<title>4&#45;&gt;4</title>
<path fill="none" stroke="black" d="M99.79,-24.27C126.94,-25.74 164.61,-24.98 164.61,-22 164.61,-19.38 135.51,-18.47 110.03,-19.29"/>
<polygon fill="black" stroke="black" points="109.63,-15.8 99.79,-19.73 109.93,-22.8 109.63,-15.8"/>
<text text-anchor="middle" x="178.11" y="-18.3" font-family="Times,serif" font-size="14.00">{c2}</text>
</g>
<!-- 4&#45;&gt;4 -->
<g id="edge20" class="edge">
<title>4&#45;&gt;4</title>
<path fill="none" stroke="black" d="M99.61,-24.91C135.31,-27.75 191.61,-26.78 191.61,-22 191.61,-17.65 144.97,-16.45 109.68,-18.41"/>
<polygon fill="black" stroke="black" points="109.36,-14.93 99.61,-19.09 109.83,-21.91 109.36,-14.93"/>
<text text-anchor="middle" x="205.11" y="-18.3" font-family="Times,serif" font-size="14.00">{c1}</text>
</g>
<!-- 4&#45;&gt;4 -->
<g id="edge21" class="edge">
<title>4&#45;&gt;4</title>
<path fill="none" stroke="black" d="M99.45,-25.39C143.05,-29.77 218.61,-28.64 218.61,-22 218.61,-15.85 153.85,-14.43 109.64,-17.73"/>
<polygon fill="black" stroke="black" points="109.11,-14.26 99.45,-18.61 109.71,-21.24 109.11,-14.26"/>
<text text-anchor="middle" x="242.11" y="-18.3" font-family="Times,serif" font-size="14.00">{c1, c2}</text>
</g>
<!-- 4&#45;&gt;4 -->
<g id="edge22" class="edge">
<title>4&#45;&gt;4</title>
<path fill="none" stroke="black" d="M99.35,-25.63C154.34,-31.8 265.61,-30.59 265.61,-22 265.61,-13.91 167,-12.36 109.56,-17.36"/>
<polygon fill="black" stroke="black" points="108.96,-13.91 99.35,-18.37 109.65,-20.87 108.96,-13.91"/>
<text text-anchor="middle" x="272.61" y="-18.3" font-family="Times,serif" font-size="14.00">{}</text>
</g>
<!-- 4&#45;&gt;4 -->
<g id="edge23" class="edge">
<title>4&#45;&gt;4</title>
<path fill="none" stroke="black" d="M99.31,-25.99C159.62,-33.81 283.61,-32.48 283.61,-22 283.61,-12.08 172.36,-10.36 109.35,-16.85"/>
<polygon fill="black" stroke="black" points="108.84,-13.39 99.31,-18.01 109.64,-20.34 108.84,-13.39"/>
<text text-anchor="middle" x="297.11" y="-18.3" font-family="Times,serif" font-size="14.00">{c0}</text>
</g>
<!-- 4&#45;&gt;4 -->
<g id="edge24" class="edge">
<title>4&#45;&gt;4</title>
<path fill="none" stroke="black" d="M99.53,-26.28C166.84,-35.81 310.61,-34.39 310.61,-22 310.61,-10.19 180,-8.34 109.48,-16.45"/>
<polygon fill="black" stroke="black" points="109.01,-12.98 99.53,-17.72 109.89,-19.92 109.01,-12.98"/>
<text text-anchor="middle" x="344.11" y="-18.3" font-family="Times,serif" font-size="14.00">{c0, c1, c2}</text>
</g>
<!-- 4&#45;&gt;4 -->
<g id="edge25" class="edge">
<title>4&#45;&gt;4</title>
<path fill="none" stroke="black" d="M99.35,-26.3C179.26,-37.84 377.61,-36.41 377.61,-22 377.61,-8.17 194.82,-6.29 109.5,-16.37"/>
<polygon fill="black" stroke="black" points="108.82,-12.93 99.35,-17.7 109.72,-19.87 108.82,-12.93"/>
<text text-anchor="middle" x="401.11" y="-18.3" font-family="Times,serif" font-size="14.00">{c0, c2}</text>
</g>
</g>
</svg>
