<?xml version="1.0" encoding="UTF-8" standalone="no"?>
<!DOCTYPE svg PUBLIC "-//W3C//DTD SVG 1.1//EN"
 "http://www.w3.org/Graphics/SVG/1.1/DTD/svg11.dtd">
<!-- Generated by graphviz version 2.43.0 (0)
 -->
<!-- Title: %3 Pages: 1 -->
<svg width="1069pt" height="386pt"
 viewBox="0.00 0.00 1069.45 386.00" xmlns="http://www.w3.org/2000/svg" xmlns:xlink="http://www.w3.org/1999/xlink">
<g id="graph0" class="graph" transform="scale(1 1) rotate(0) translate(4 382)">
<title>%3</title>
<polygon fill="white" stroke="transparent" points="-4,4 -4,-382 1065.45,-382 1065.45,4 -4,4"/>
<!-- fake -->
<g id="node1" class="node">
<title>fake</title>
</g>
<!-- 0 -->
<g id="node2" class="node">
<title>0</title>
<ellipse fill="none" stroke="black" cx="562.45" cy="-287" rx="27" ry="18"/>
<text text-anchor="middle" x="562.45" y="-283.3" font-family="Times,serif" font-size="14.00">0</text>
</g>
<!-- fake&#45;&gt;0 -->
<g id="edge1" class="edge">
<title>fake&#45;&gt;0</title>
<path fill="none" stroke="black" stroke-width="2" d="M562.45,-341.81C562.45,-333.79 562.45,-324.05 562.45,-315.07"/>
<polygon fill="black" stroke="black" stroke-width="2" points="565.95,-315.03 562.45,-305.03 558.95,-315.03 565.95,-315.03"/>
</g>
<!-- 0&#45;&gt;0 -->
<g id="edge3" class="edge">
<title>0&#45;&gt;0</title>
<path fill="none" stroke="black" d="M587.89,-293.69C598.48,-294.15 607.45,-291.92 607.45,-287 607.45,-283.77 603.58,-281.7 597.94,-280.79"/>
<polygon fill="black" stroke="black" points="598.05,-277.29 587.89,-280.31 597.71,-284.28 598.05,-277.29"/>
<text text-anchor="middle" x="614.45" y="-283.3" font-family="Times,serif" font-size="14.00">{}</text>
</g>
<!-- 1 -->
<g id="node3" class="node">
<title>1</title>
<ellipse fill="none" stroke="black" cx="422.45" cy="-200" rx="27" ry="18"/>
<text text-anchor="middle" x="422.45" y="-196.3" font-family="Times,serif" font-size="14.00">1</text>
</g>
<!-- 0&#45;&gt;1 -->
<g id="edge2" class="edge">
<title>0&#45;&gt;1</title>
<path fill="none" stroke="black" d="M535.28,-285.08C488.01,-282.85 393.72,-275.37 373.45,-251 363.25,-238.74 376.38,-225.91 391.61,-216.31"/>
<polygon fill="black" stroke="black" points="393.76,-219.11 400.66,-211.07 390.25,-213.06 393.76,-219.11"/>
<text text-anchor="middle" x="386.95" y="-239.8" font-family="Times,serif" font-size="14.00">{c2}</text>
</g>
<!-- 0&#45;&gt;1 -->
<g id="edge4" class="edge">
<title>0&#45;&gt;1</title>
<path fill="none" stroke="black" d="M536.05,-283.14C499.75,-278.6 437.32,-268.43 423.45,-251 418.36,-244.6 416.88,-236.14 417.04,-228"/>
<polygon fill="black" stroke="black" points="420.52,-228.32 417.98,-218.04 413.56,-227.67 420.52,-228.32"/>
<text text-anchor="middle" x="446.95" y="-239.8" font-family="Times,serif" font-size="14.00">{c1, c2}</text>
</g>
<!-- 0&#45;&gt;1 -->
<g id="edge5" class="edge">
<title>0&#45;&gt;1</title>
<path fill="none" stroke="black" d="M540.88,-276.05C527.05,-269.43 508.87,-260.28 493.45,-251 484.59,-245.67 464.86,-231.71 448.44,-219.89"/>
<polygon fill="black" stroke="black" points="450.38,-216.98 440.23,-213.96 446.29,-222.65 450.38,-216.98"/>
<text text-anchor="middle" x="516.95" y="-239.8" font-family="Times,serif" font-size="14.00">{c0, c2}</text>
</g>
<!-- 0&#45;&gt;1 -->
<g id="edge6" class="edge">
<title>0&#45;&gt;1</title>
<path fill="none" stroke="black" d="M558.86,-268.96C555.73,-258.11 550.13,-244.53 540.45,-236 518.04,-216.26 484.94,-207.64 459.49,-203.88"/>
<polygon fill="black" stroke="black" points="459.82,-200.4 449.45,-202.59 458.93,-207.34 459.82,-200.4"/>
<text text-anchor="middle" x="583.95" y="-239.8" font-family="Times,serif" font-size="14.00">{c0, c1, c2}</text>
</g>
<!-- 2 -->
<g id="node4" class="node">
<title>2</title>
<ellipse fill="none" stroke="black" cx="587.45" cy="-22" rx="27" ry="18"/>
<text text-anchor="middle" x="587.45" y="-18.3" font-family="Times,serif" font-size="14.00">2</text>
</g>
<!-- 0&#45;&gt;2 -->
<g id="edge7" class="edge">
<title>0&#45;&gt;2</title>
<path fill="none" stroke="black" d="M586.29,-278.44C599.15,-273 613.9,-264.25 621.45,-251 658.83,-185.37 622.62,-92.59 601,-48.36"/>
<polygon fill="black" stroke="black" points="604.01,-46.55 596.39,-39.19 597.76,-49.7 604.01,-46.55"/>
<text text-anchor="middle" x="659.95" y="-152.8" font-family="Times,serif" font-size="14.00">{c0, c1}</text>
</g>
<!-- 0&#45;&gt;2 -->
<g id="edge8" class="edge">
<title>0&#45;&gt;2</title>
<path fill="none" stroke="black" d="M586.96,-279.09C603.08,-273.56 623.82,-264.49 638.45,-251 671.08,-220.92 676.19,-206.93 687.45,-164 700.85,-112.89 648.51,-65.38 614.52,-40.7"/>
<polygon fill="black" stroke="black" points="616.52,-37.83 606.33,-34.93 612.49,-43.55 616.52,-37.83"/>
<text text-anchor="middle" x="702.95" y="-152.8" font-family="Times,serif" font-size="14.00">{c0}</text>
</g>
<!-- 0&#45;&gt;2 -->
<g id="edge9" class="edge">
<title>0&#45;&gt;2</title>
<path fill="none" stroke="black" d="M587.98,-280.53C608.55,-275.29 637.55,-265.92 659.45,-251 698.48,-224.41 707.97,-209.54 720.45,-164 736.56,-105.19 663.23,-58.99 619,-37.02"/>
<polygon fill="black" stroke="black" points="620.31,-33.76 609.78,-32.57 617.27,-40.07 620.31,-33.76"/>
<text text-anchor="middle" x="735.95" y="-152.8" font-family="Times,serif" font-size="14.00">{c1}</text>
</g>
<!-- 1&#45;&gt;1 -->
<g id="edge18" class="edge">
<title>1&#45;&gt;1</title>
<path fill="none" stroke="black" d="M446.98,-207.75C457.96,-208.49 467.45,-205.91 467.45,-200 467.45,-196.03 463.16,-193.56 457.02,-192.59"/>
<polygon fill="black" stroke="black" points="457.1,-189.09 446.98,-192.25 456.85,-196.09 457.1,-189.09"/>
<text text-anchor="middle" x="474.45" y="-196.3" font-family="Times,serif" font-size="14.00">{}</text>
</g>
<!-- 1&#45;&gt;2 -->
<g id="edge23" class="edge">
<title>1&#45;&gt;2</title>
<path fill="none" stroke="black" d="M426.59,-182.19C433.19,-156.41 446.46,-108.66 457.45,-95 487.24,-57.97 509.29,-65.96 551.45,-44 554.04,-42.65 556.7,-41.21 559.35,-39.73"/>
<polygon fill="black" stroke="black" points="561.26,-42.68 568.21,-34.68 557.79,-36.6 561.26,-42.68"/>
<text text-anchor="middle" x="480.95" y="-109.3" font-family="Times,serif" font-size="14.00">{c0, c2}</text>
</g>
<!-- 1&#45;&gt;2 -->
<g id="edge24" class="edge">
<title>1&#45;&gt;2</title>
<path fill="none" stroke="black" d="M440.06,-186.23C457.35,-173.28 484.04,-152.18 504.45,-131 530.09,-104.39 555.35,-70.03 571.14,-47.29"/>
<polygon fill="black" stroke="black" points="574.13,-49.12 576.91,-38.9 568.36,-45.16 574.13,-49.12"/>
<text text-anchor="middle" x="547.95" y="-109.3" font-family="Times,serif" font-size="14.00">{c0}</text>
</g>
<!-- 1&#45;&gt;2 -->
<g id="edge25" class="edge">
<title>1&#45;&gt;2</title>
<path fill="none" stroke="black" d="M447.99,-194.13C480.5,-186.55 535.97,-168.67 565.45,-131 583.45,-108 587.8,-74.04 588.39,-50.36"/>
<polygon fill="black" stroke="black" points="591.89,-50.29 588.43,-40.28 584.89,-50.26 591.89,-50.29"/>
<text text-anchor="middle" x="594.95" y="-109.3" font-family="Times,serif" font-size="14.00">{c2}</text>
</g>
<!-- 3 -->
<g id="node5" class="node">
<title>3</title>
<ellipse fill="none" stroke="black" cx="221.45" cy="-113" rx="27" ry="18"/>
<text text-anchor="middle" x="221.45" y="-109.3" font-family="Times,serif" font-size="14.00">3</text>
</g>
<!-- 1&#45;&gt;3 -->
<g id="edge19" class="edge">
<title>1&#45;&gt;3</title>
<path fill="none" stroke="black" d="M395.04,-199.46C336.26,-199.8 201.07,-196.9 172.45,-164 161.82,-151.77 175.54,-138.72 191.15,-129.02"/>
<polygon fill="black" stroke="black" points="192.94,-132.02 199.86,-124 189.45,-125.96 192.94,-132.02"/>
<text text-anchor="middle" x="185.95" y="-152.8" font-family="Times,serif" font-size="14.00">{c1}</text>
</g>
<!-- 1&#45;&gt;3 -->
<g id="edge20" class="edge">
<title>1&#45;&gt;3</title>
<path fill="none" stroke="black" d="M395.33,-198.35C345.96,-196.53 244.48,-189.69 222.45,-164 217.04,-157.7 215.54,-149.13 215.77,-140.86"/>
<polygon fill="black" stroke="black" points="219.27,-141.06 216.84,-130.75 212.31,-140.33 219.27,-141.06"/>
<text text-anchor="middle" x="245.95" y="-152.8" font-family="Times,serif" font-size="14.00">{c0, c1}</text>
</g>
<!-- 1&#45;&gt;3 -->
<g id="edge21" class="edge">
<title>1&#45;&gt;3</title>
<path fill="none" stroke="black" d="M396.36,-194.76C369.42,-189.76 326.63,-180.02 292.45,-164 287.55,-161.7 265.83,-146.27 247.69,-133.15"/>
<polygon fill="black" stroke="black" points="249.31,-130 239.16,-126.96 245.2,-135.66 249.31,-130"/>
<text text-anchor="middle" x="325.95" y="-152.8" font-family="Times,serif" font-size="14.00">{c0, c1, c2}</text>
</g>
<!-- 1&#45;&gt;3 -->
<g id="edge22" class="edge">
<title>1&#45;&gt;3</title>
<path fill="none" stroke="black" d="M406.74,-185.27C391.57,-172.25 369.46,-153.96 359.45,-149 326.99,-132.94 286.49,-123.8 257.78,-118.92"/>
<polygon fill="black" stroke="black" points="258.2,-115.44 247.77,-117.3 257.09,-122.35 258.2,-115.44"/>
<text text-anchor="middle" x="403.95" y="-152.8" font-family="Times,serif" font-size="14.00">{c1, c2}</text>
</g>
<!-- 2&#45;&gt;2 -->
<g id="edge34" class="edge">
<title>2&#45;&gt;2</title>
<path fill="none" stroke="black" d="M614.69,-23.5C624.47,-23.53 632.45,-23.03 632.45,-22 632.45,-21.37 629.49,-20.94 624.96,-20.71"/>
<polygon fill="black" stroke="black" points="624.76,-17.2 614.69,-20.5 624.62,-24.2 624.76,-17.2"/>
<text text-anchor="middle" x="655.95" y="-18.3" font-family="Times,serif" font-size="14.00">{c0, c2}</text>
</g>
<!-- 2&#45;&gt;2 -->
<g id="edge35" class="edge">
<title>2&#45;&gt;2</title>
<path fill="none" stroke="black" d="M614.34,-24.43C642.77,-25.68 679.45,-24.87 679.45,-22 679.45,-19.46 650.86,-18.53 624.6,-19.22"/>
<polygon fill="black" stroke="black" points="624.21,-15.73 614.34,-19.57 624.46,-22.72 624.21,-15.73"/>
<text text-anchor="middle" x="702.95" y="-18.3" font-family="Times,serif" font-size="14.00">{c1, c2}</text>
</g>
<!-- 2&#45;&gt;2 -->
<g id="edge36" class="edge">
<title>2&#45;&gt;2</title>
<path fill="none" stroke="black" d="M614.35,-25.02C657.06,-27.73 726.45,-26.72 726.45,-22 726.45,-17.64 667.23,-16.45 624.53,-18.43"/>
<polygon fill="black" stroke="black" points="624.14,-14.94 614.35,-18.98 624.52,-21.93 624.14,-14.94"/>
<text text-anchor="middle" x="759.95" y="-18.3" font-family="Times,serif" font-size="14.00">{c0, c1, c2}</text>
</g>
<!-- 2&#45;&gt;2 -->
<g id="edge37" class="edge">
<title>2&#45;&gt;2</title>
<path fill="none" stroke="black" d="M614.03,-25.32C673.12,-29.78 793.45,-28.67 793.45,-22 793.45,-15.69 685.92,-14.36 624.24,-18"/>
<polygon fill="black" stroke="black" points="623.77,-14.52 614.03,-18.68 624.24,-21.5 623.77,-14.52"/>
<text text-anchor="middle" x="816.95" y="-18.3" font-family="Times,serif" font-size="14.00">{c0, c1}</text>
</g>
<!-- 2&#45;&gt;2 -->
<g id="edge38" class="edge">
<title>2&#45;&gt;2</title>
<path fill="none" stroke="black" d="M614.15,-25.71C683.84,-31.79 840.45,-30.55 840.45,-22 840.45,-13.85 698.18,-12.34 624.5,-17.48"/>
<polygon fill="black" stroke="black" points="623.85,-14.02 614.15,-18.29 624.39,-21 623.85,-14.02"/>
<text text-anchor="middle" x="853.95" y="-18.3" font-family="Times,serif" font-size="14.00">{c0}</text>
</g>
<!-- 2&#45;&gt;2 -->
<g id="edge39" class="edge">
<title>2&#45;&gt;2</title>
<path fill="none" stroke="black" d="M613.92,-26.09C689.93,-33.79 867.45,-32.43 867.45,-22 867.45,-12.02 704.86,-10.34 624.26,-16.96"/>
<polygon fill="black" stroke="black" points="623.56,-13.51 613.92,-17.91 624.2,-20.48 623.56,-13.51"/>
<text text-anchor="middle" x="874.45" y="-18.3" font-family="Times,serif" font-size="14.00">{}</text>
</g>
<!-- 2&#45;&gt;2 -->
<g id="edge40" class="edge">
<title>2&#45;&gt;2</title>
<path fill="none" stroke="black" d="M613.81,-26.47C694.65,-35.79 885.45,-34.3 885.45,-22 885.45,-10.18 709.26,-8.34 623.77,-16.49"/>
<polygon fill="black" stroke="black" points="623.39,-13.01 613.81,-17.53 624.12,-19.97 623.39,-13.01"/>
<text text-anchor="middle" x="898.95" y="-18.3" font-family="Times,serif" font-size="14.00">{c2}</text>
</g>
<!-- 2&#45;&gt;2 -->
<g id="edge41" class="edge">
<title>2&#45;&gt;2</title>
<path fill="none" stroke="black" d="M613.67,-26.75C700.8,-37.8 912.45,-36.22 912.45,-22 912.45,-8.31 716.22,-6.33 623.87,-16.07"/>
<polygon fill="black" stroke="black" points="623.2,-12.63 613.67,-17.25 624.01,-19.58 623.2,-12.63"/>
<text text-anchor="middle" x="925.95" y="-18.3" font-family="Times,serif" font-size="14.00">{c1}</text>
</g>
<!-- 3&#45;&gt;2 -->
<g id="edge31" class="edge">
<title>3&#45;&gt;2</title>
<path fill="none" stroke="black" d="M234.86,-97.27C246.64,-85.42 264.91,-69.56 284.45,-62 395.38,-19.09 437.74,-78.89 551.45,-44 554.46,-43.07 557.5,-41.86 560.45,-40.47"/>
<polygon fill="black" stroke="black" points="562.35,-43.43 569.52,-35.63 559.05,-37.25 562.35,-43.43"/>
<text text-anchor="middle" x="307.95" y="-65.8" font-family="Times,serif" font-size="14.00">{c1, c2}</text>
</g>
<!-- 3&#45;&gt;2 -->
<g id="edge32" class="edge">
<title>3&#45;&gt;2</title>
<path fill="none" stroke="black" d="M246.64,-106.06C269.42,-100.21 303.56,-90.23 331.45,-77 342.47,-71.77 342.92,-66.01 354.45,-62 437.5,-33.14 467.71,-70.79 551.45,-44 554.45,-43.04 557.48,-41.8 560.43,-40.4"/>
<polygon fill="black" stroke="black" points="562.33,-43.35 569.49,-35.54 559.03,-37.18 562.33,-43.35"/>
<text text-anchor="middle" x="367.95" y="-65.8" font-family="Times,serif" font-size="14.00">{c2}</text>
</g>
<!-- 3&#45;&gt;2 -->
<g id="edge33" class="edge">
<title>3&#45;&gt;2</title>
<path fill="none" stroke="black" d="M248.1,-109.16C280.61,-105.04 336.73,-95.73 381.45,-77 392.71,-72.29 392.98,-66.18 404.45,-62 466.28,-39.44 489.07,-65.01 551.45,-44 554.37,-43.02 557.32,-41.78 560.2,-40.4"/>
<polygon fill="black" stroke="black" points="561.92,-43.44 569.08,-35.64 558.61,-37.27 561.92,-43.44"/>
<text text-anchor="middle" x="417.95" y="-65.8" font-family="Times,serif" font-size="14.00">{c1}</text>
</g>
<!-- 3&#45;&gt;3 -->
<g id="edge28" class="edge">
<title>3&#45;&gt;3</title>
<path fill="none" stroke="black" d="M245.98,-120.75C256.96,-121.49 266.45,-118.91 266.45,-113 266.45,-109.03 262.16,-106.56 256.02,-105.59"/>
<polygon fill="black" stroke="black" points="256.1,-102.09 245.98,-105.25 255.85,-109.09 256.1,-102.09"/>
<text text-anchor="middle" x="273.45" y="-109.3" font-family="Times,serif" font-size="14.00">{}</text>
</g>
<!-- 4 -->
<g id="node6" class="node">
<title>4</title>
<ellipse fill="none" stroke="black" cx="73.45" cy="-22" rx="18" ry="18"/>
<ellipse fill="none" stroke="black" cx="73.45" cy="-22" rx="22" ry="22"/>
<text text-anchor="middle" x="73.45" y="-18.3" font-family="Times,serif" font-size="14.00">4</text>
</g>
<!-- 3&#45;&gt;4 -->
<g id="edge26" class="edge">
<title>3&#45;&gt;4</title>
<path fill="none" stroke="black" d="M194.47,-111.81C141.85,-110.81 28.57,-105.33 4.45,-77 -10.88,-59.01 17.82,-42.96 42.74,-33.13"/>
<polygon fill="black" stroke="black" points="44.21,-36.32 52.36,-29.55 41.77,-29.76 44.21,-36.32"/>
<text text-anchor="middle" x="27.95" y="-65.8" font-family="Times,serif" font-size="14.00">{c0, c1}</text>
</g>
<!-- 3&#45;&gt;4 -->
<g id="edge27" class="edge">
<title>3&#45;&gt;4</title>
<path fill="none" stroke="black" d="M194.82,-109.51C156.66,-105.33 89.34,-95.49 74.45,-77 69.18,-70.46 67.48,-61.88 67.49,-53.5"/>
<polygon fill="black" stroke="black" points="70.98,-53.74 68.23,-43.51 64,-53.23 70.98,-53.74"/>
<text text-anchor="middle" x="107.95" y="-65.8" font-family="Times,serif" font-size="14.00">{c0, c1, c2}</text>
</g>
<!-- 3&#45;&gt;4 -->
<g id="edge29" class="edge">
<title>3&#45;&gt;4</title>
<path fill="none" stroke="black" d="M202.11,-100.3C191.04,-93.56 176.91,-84.89 164.45,-77 154.14,-70.47 151.86,-68.37 141.45,-62 128.41,-54.02 113.71,-45.53 101.33,-38.52"/>
<polygon fill="black" stroke="black" points="102.81,-35.33 92.38,-33.47 99.37,-41.43 102.81,-35.33"/>
<text text-anchor="middle" x="177.95" y="-65.8" font-family="Times,serif" font-size="14.00">{c0}</text>
</g>
<!-- 3&#45;&gt;4 -->
<g id="edge30" class="edge">
<title>3&#45;&gt;4</title>
<path fill="none" stroke="black" d="M215.16,-95.49C210.22,-84.58 202.36,-70.73 191.45,-62 166.42,-41.98 130.71,-32.06 105.14,-27.26"/>
<polygon fill="black" stroke="black" points="105.65,-23.8 95.21,-25.56 104.47,-30.7 105.65,-23.8"/>
<text text-anchor="middle" x="227.95" y="-65.8" font-family="Times,serif" font-size="14.00">{c0, c2}</text>
</g>
<!-- 4&#45;&gt;4 -->
<g id="edge10" class="edge">
<title>4&#45;&gt;4</title>
<path fill="none" stroke="black" d="M95.66,-23.48C105.24,-23.6 113.45,-23.11 113.45,-22 113.45,-21.32 110.4,-20.88 105.85,-20.66"/>
<polygon fill="black" stroke="black" points="105.71,-17.16 95.66,-20.52 105.61,-24.15 105.71,-17.16"/>
<text text-anchor="middle" x="136.95" y="-18.3" font-family="Times,serif" font-size="14.00">{c0, c2}</text>
</g>
<!-- 4&#45;&gt;4 -->
<g id="edge11" class="edge">
<title>4&#45;&gt;4</title>
<path fill="none" stroke="black" d="M95.62,-24.27C122.78,-25.74 160.45,-24.98 160.45,-22 160.45,-19.38 131.35,-18.47 105.87,-19.29"/>
<polygon fill="black" stroke="black" points="105.47,-15.8 95.62,-19.73 105.76,-22.8 105.47,-15.8"/>
<text text-anchor="middle" x="173.95" y="-18.3" font-family="Times,serif" font-size="14.00">{c1}</text>
</g>
<!-- 4&#45;&gt;4 -->
<g id="edge12" class="edge">
<title>4&#45;&gt;4</title>
<path fill="none" stroke="black" d="M95.45,-24.91C131.14,-27.75 187.45,-26.78 187.45,-22 187.45,-17.65 140.81,-16.45 105.52,-18.41"/>
<polygon fill="black" stroke="black" points="105.2,-14.93 95.45,-19.09 105.66,-21.91 105.2,-14.93"/>
<text text-anchor="middle" x="200.95" y="-18.3" font-family="Times,serif" font-size="14.00">{c2}</text>
</g>
<!-- 4&#45;&gt;4 -->
<g id="edge13" class="edge">
<title>4&#45;&gt;4</title>
<path fill="none" stroke="black" d="M95.28,-25.39C138.89,-29.77 214.45,-28.64 214.45,-22 214.45,-15.85 149.69,-14.43 105.48,-17.73"/>
<polygon fill="black" stroke="black" points="104.94,-14.26 95.28,-18.61 105.55,-21.24 104.94,-14.26"/>
<text text-anchor="middle" x="237.95" y="-18.3" font-family="Times,serif" font-size="14.00">{c0, c1}</text>
</g>
<!-- 4&#45;&gt;4 -->
<g id="edge14" class="edge">
<title>4&#45;&gt;4</title>
<path fill="none" stroke="black" d="M95.19,-25.63C150.18,-31.8 261.45,-30.59 261.45,-22 261.45,-13.91 162.84,-12.36 105.4,-17.36"/>
<polygon fill="black" stroke="black" points="104.8,-13.91 95.19,-18.37 105.48,-20.87 104.8,-13.91"/>
<text text-anchor="middle" x="294.95" y="-18.3" font-family="Times,serif" font-size="14.00">{c0, c1, c2}</text>
</g>
<!-- 4&#45;&gt;4 -->
<g id="edge15" class="edge">
<title>4&#45;&gt;4</title>
<path fill="none" stroke="black" d="M95.46,-25.78C164.21,-33.83 328.45,-32.57 328.45,-22 328.45,-11.93 179.25,-10.31 105.73,-17.15"/>
<polygon fill="black" stroke="black" points="105.05,-13.7 95.46,-18.22 105.77,-20.67 105.05,-13.7"/>
<text text-anchor="middle" x="335.45" y="-18.3" font-family="Times,serif" font-size="14.00">{}</text>
</g>
<!-- 4&#45;&gt;4 -->
<g id="edge16" class="edge">
<title>4&#45;&gt;4</title>
<path fill="none" stroke="black" d="M95.37,-26.09C169.03,-35.83 346.45,-34.47 346.45,-22 346.45,-10.07 183.95,-8.31 105.42,-16.71"/>
<polygon fill="black" stroke="black" points="104.89,-13.25 95.37,-17.91 105.72,-20.2 104.89,-13.25"/>
<text text-anchor="middle" x="359.95" y="-18.3" font-family="Times,serif" font-size="14.00">{c0}</text>
</g>
<!-- 4&#45;&gt;4 -->
<g id="edge17" class="edge">
<title>4&#45;&gt;4</title>
<path fill="none" stroke="black" d="M95.19,-26.3C175.1,-37.84 373.45,-36.41 373.45,-22 373.45,-8.17 190.66,-6.29 105.34,-16.37"/>
<polygon fill="black" stroke="black" points="104.65,-12.93 95.19,-17.7 105.56,-19.87 104.65,-12.93"/>
<text text-anchor="middle" x="396.95" y="-18.3" font-family="Times,serif" font-size="14.00">{c1, c2}</text>
</g>
</g>
</svg>
