<?xml version="1.0" encoding="UTF-8" standalone="no"?>
<!DOCTYPE svg PUBLIC "-//W3C//DTD SVG 1.1//EN"
 "http://www.w3.org/Graphics/SVG/1.1/DTD/svg11.dtd">
<!-- Generated by graphviz version 2.43.0 (0)
 -->
<!-- Title: %3 Pages: 1 -->
<svg width="656pt" height="473pt"
 viewBox="0.00 0.00 655.79 473.00" xmlns="http://www.w3.org/2000/svg" xmlns:xlink="http://www.w3.org/1999/xlink">
<g id="graph0" class="graph" transform="scale(1 1) rotate(0) translate(4 469)">
<title>%3</title>
<polygon fill="white" stroke="transparent" points="-4,4 -4,-469 651.79,-469 651.79,4 -4,4"/>
<!-- fake -->
<g id="node1" class="node">
<title>fake</title>
</g>
<!-- 0 -->
<g id="node5" class="node">
<title>0</title>
<ellipse fill="none" stroke="black" cx="292.79" cy="-374" rx="27" ry="18"/>
<text text-anchor="middle" x="292.79" y="-370.3" font-family="Times,serif" font-size="14.00">0</text>
</g>
<!-- fake&#45;&gt;0 -->
<g id="edge1" class="edge">
<title>fake&#45;&gt;0</title>
<path fill="none" stroke="black" stroke-width="2" d="M292.79,-428.81C292.79,-420.79 292.79,-411.05 292.79,-402.07"/>
<polygon fill="black" stroke="black" stroke-width="2" points="296.29,-402.03 292.79,-392.03 289.29,-402.03 296.29,-402.03"/>
</g>
<!-- 3 -->
<g id="node2" class="node">
<title>3</title>
<ellipse fill="none" stroke="black" cx="102.79" cy="-113" rx="27" ry="18"/>
<text text-anchor="middle" x="102.79" y="-109.3" font-family="Times,serif" font-size="14.00">3</text>
</g>
<!-- 3&#45;&gt;3 -->
<g id="edge6" class="edge">
<title>3&#45;&gt;3</title>
<path fill="none" stroke="black" d="M127.32,-120.75C138.29,-121.49 147.79,-118.91 147.79,-113 147.79,-109.03 143.5,-106.56 137.36,-105.59"/>
<polygon fill="black" stroke="black" points="137.43,-102.09 127.32,-105.25 137.19,-109.09 137.43,-102.09"/>
<text text-anchor="middle" x="154.79" y="-109.3" font-family="Times,serif" font-size="14.00">{}</text>
</g>
<!-- 3&#45;&gt;0 -->
<g id="edge3" class="edge">
<title>3&#45;&gt;0</title>
<path fill="none" stroke="black" d="M79.48,-122.15C66.05,-127.86 49.72,-136.69 38.79,-149 11.1,-180.16 11.71,-195.08 3.79,-236 -5.32,-283.05 1,-308.52 38.79,-338 71.79,-363.76 193.45,-370.56 255.64,-372.36"/>
<polygon fill="black" stroke="black" points="255.72,-375.86 265.81,-372.62 255.9,-368.86 255.72,-375.86"/>
<text text-anchor="middle" x="17.29" y="-239.8" font-family="Times,serif" font-size="14.00">{c1}</text>
</g>
<!-- 3&#45;&gt;0 -->
<g id="edge4" class="edge">
<title>3&#45;&gt;0</title>
<path fill="none" stroke="black" d="M93.86,-130.35C81.94,-153.2 61.45,-196.33 53.79,-236 44.74,-282.78 49.99,-307.73 86.79,-338 111.95,-358.7 203.22,-367.58 255.44,-371.04"/>
<polygon fill="black" stroke="black" points="255.44,-374.55 265.64,-371.68 255.88,-367.56 255.44,-374.55"/>
<text text-anchor="middle" x="67.29" y="-239.8" font-family="Times,serif" font-size="14.00">{c2}</text>
</g>
<!-- 3&#45;&gt;0 -->
<g id="edge5" class="edge">
<title>3&#45;&gt;0</title>
<path fill="none" stroke="black" d="M101.99,-131.01C101.01,-173.38 104.91,-284.11 167.79,-338 192.26,-358.97 228.4,-367.44 255.53,-370.82"/>
<polygon fill="black" stroke="black" points="255.5,-374.34 265.81,-371.92 256.24,-367.38 255.5,-374.34"/>
<text text-anchor="middle" x="129.29" y="-239.8" font-family="Times,serif" font-size="14.00">{c3}</text>
</g>
<!-- 4 -->
<g id="node6" class="node">
<title>4</title>
<ellipse fill="none" stroke="black" cx="494.79" cy="-22" rx="18" ry="18"/>
<ellipse fill="none" stroke="black" cx="494.79" cy="-22" rx="22" ry="22"/>
<text text-anchor="middle" x="494.79" y="-18.3" font-family="Times,serif" font-size="14.00">4</text>
</g>
<!-- 3&#45;&gt;4 -->
<g id="edge2" class="edge">
<title>3&#45;&gt;4</title>
<path fill="none" stroke="black" d="M127.9,-106.3C196.66,-90.69 387.82,-47.29 463.43,-30.12"/>
<polygon fill="black" stroke="black" points="464.33,-33.5 473.3,-27.88 462.78,-26.68 464.33,-33.5"/>
<text text-anchor="middle" x="335.29" y="-65.8" font-family="Times,serif" font-size="14.00">{c0}</text>
</g>
<!-- 2 -->
<g id="node3" class="node">
<title>2</title>
<ellipse fill="none" stroke="black" cx="209.79" cy="-200" rx="27" ry="18"/>
<text text-anchor="middle" x="209.79" y="-196.3" font-family="Times,serif" font-size="14.00">2</text>
</g>
<!-- 2&#45;&gt;3 -->
<g id="edge8" class="edge">
<title>2&#45;&gt;3</title>
<path fill="none" stroke="black" d="M193.07,-185.72C175.58,-171.83 147.93,-149.87 127.84,-133.9"/>
<polygon fill="black" stroke="black" points="129.75,-130.95 119.74,-127.47 125.39,-136.43 129.75,-130.95"/>
<text text-anchor="middle" x="175.29" y="-152.8" font-family="Times,serif" font-size="14.00">{c1}</text>
</g>
<!-- 2&#45;&gt;2 -->
<g id="edge11" class="edge">
<title>2&#45;&gt;2</title>
<path fill="none" stroke="black" d="M234.32,-207.75C245.29,-208.49 254.79,-205.91 254.79,-200 254.79,-196.03 250.5,-193.56 244.36,-192.59"/>
<polygon fill="black" stroke="black" points="244.43,-189.09 234.32,-192.25 244.19,-196.09 244.43,-189.09"/>
<text text-anchor="middle" x="261.79" y="-196.3" font-family="Times,serif" font-size="14.00">{}</text>
</g>
<!-- 2&#45;&gt;0 -->
<g id="edge7" class="edge">
<title>2&#45;&gt;0</title>
<path fill="none" stroke="black" d="M194.67,-215.33C175.57,-235.26 146.79,-272.56 160.79,-305 176.94,-342.43 223.51,-359.57 256.75,-367.2"/>
<polygon fill="black" stroke="black" points="256.08,-370.63 266.59,-369.27 257.53,-363.78 256.08,-370.63"/>
<text text-anchor="middle" x="174.29" y="-283.3" font-family="Times,serif" font-size="14.00">{c0}</text>
</g>
<!-- 2&#45;&gt;0 -->
<g id="edge9" class="edge">
<title>2&#45;&gt;0</title>
<path fill="none" stroke="black" d="M206.71,-217.9C202.63,-245.63 198.62,-301.34 223.79,-338 231.9,-349.82 245.25,-357.87 258.06,-363.24"/>
<polygon fill="black" stroke="black" points="257.06,-366.6 267.65,-366.84 259.52,-360.05 257.06,-366.6"/>
<text text-anchor="middle" x="222.29" y="-283.3" font-family="Times,serif" font-size="14.00">{c2}</text>
</g>
<!-- 2&#45;&gt;0 -->
<g id="edge10" class="edge">
<title>2&#45;&gt;0</title>
<path fill="none" stroke="black" d="M217.06,-217.5C232.57,-252.67 267.74,-332.29 270.79,-338 272.67,-341.53 274.78,-345.19 276.92,-348.74"/>
<polygon fill="black" stroke="black" points="273.96,-350.61 282.22,-357.25 279.91,-346.91 273.96,-350.61"/>
<text text-anchor="middle" x="268.29" y="-283.3" font-family="Times,serif" font-size="14.00">{c3}</text>
</g>
<!-- 1 -->
<g id="node4" class="node">
<title>1</title>
<ellipse fill="none" stroke="black" cx="344.79" cy="-287" rx="27" ry="18"/>
<text text-anchor="middle" x="344.79" y="-283.3" font-family="Times,serif" font-size="14.00">1</text>
</g>
<!-- 1&#45;&gt;2 -->
<g id="edge14" class="edge">
<title>1&#45;&gt;2</title>
<path fill="none" stroke="black" d="M330.46,-271.59C319.25,-260.85 302.91,-246.32 286.79,-236 272.92,-227.13 256.42,-219.31 242.27,-213.33"/>
<polygon fill="black" stroke="black" points="243.48,-210.05 232.9,-209.49 240.83,-216.52 243.48,-210.05"/>
<text text-anchor="middle" x="320.29" y="-239.8" font-family="Times,serif" font-size="14.00">{c2}</text>
</g>
<!-- 1&#45;&gt;1 -->
<g id="edge16" class="edge">
<title>1&#45;&gt;1</title>
<path fill="none" stroke="black" d="M369.32,-294.75C380.29,-295.49 389.79,-292.91 389.79,-287 389.79,-283.03 385.5,-280.56 379.36,-279.59"/>
<polygon fill="black" stroke="black" points="379.43,-276.09 369.32,-279.25 379.19,-283.09 379.43,-276.09"/>
<text text-anchor="middle" x="396.79" y="-283.3" font-family="Times,serif" font-size="14.00">{}</text>
</g>
<!-- 1&#45;&gt;0 -->
<g id="edge12" class="edge">
<title>1&#45;&gt;0</title>
<path fill="none" stroke="black" d="M332.59,-303.31C328.04,-309.3 322.96,-316.33 318.79,-323 313.99,-330.67 309.27,-339.31 305.19,-347.23"/>
<polygon fill="black" stroke="black" points="301.94,-345.91 300.58,-356.42 308.19,-349.06 301.94,-345.91"/>
<text text-anchor="middle" x="332.29" y="-326.8" font-family="Times,serif" font-size="14.00">{c0}</text>
</g>
<!-- 1&#45;&gt;0 -->
<g id="edge13" class="edge">
<title>1&#45;&gt;0</title>
<path fill="none" stroke="black" d="M349.16,-305.19C350.79,-315.32 351.13,-328.06 345.79,-338 341.02,-346.86 332.91,-353.86 324.45,-359.19"/>
<polygon fill="black" stroke="black" points="322.63,-356.19 315.63,-364.15 326.07,-362.29 322.63,-356.19"/>
<text text-anchor="middle" x="363.29" y="-326.8" font-family="Times,serif" font-size="14.00">{c1}</text>
</g>
<!-- 1&#45;&gt;0 -->
<g id="edge15" class="edge">
<title>1&#45;&gt;0</title>
<path fill="none" stroke="black" d="M363.35,-300.19C376.25,-310.24 389.67,-324.9 380.79,-338 369.21,-355.07 347.84,-363.81 329.06,-368.29"/>
<polygon fill="black" stroke="black" points="328.35,-364.87 319.26,-370.32 329.76,-371.72 328.35,-364.87"/>
<text text-anchor="middle" x="396.29" y="-326.8" font-family="Times,serif" font-size="14.00">{c3}</text>
</g>
<!-- 0&#45;&gt;1 -->
<g id="edge20" class="edge">
<title>0&#45;&gt;1</title>
<path fill="none" stroke="black" d="M282.28,-357.27C276.81,-346.96 272.47,-333.51 278.79,-323 282.84,-316.25 297.9,-308.03 312.6,-301.26"/>
<polygon fill="black" stroke="black" points="314.38,-304.3 322.1,-297.04 311.54,-297.9 314.38,-304.3"/>
<text text-anchor="middle" x="292.29" y="-326.8" font-family="Times,serif" font-size="14.00">{c3}</text>
</g>
<!-- 0&#45;&gt;0 -->
<g id="edge17" class="edge">
<title>0&#45;&gt;0</title>
<path fill="none" stroke="black" d="M320.03,-375.69C329.81,-375.72 337.79,-375.16 337.79,-374 337.79,-373.29 334.82,-372.81 330.3,-372.55"/>
<polygon fill="black" stroke="black" points="330.1,-369.04 320.03,-372.31 329.95,-376.04 330.1,-369.04"/>
<text text-anchor="middle" x="351.29" y="-370.3" font-family="Times,serif" font-size="14.00">{c0}</text>
</g>
<!-- 0&#45;&gt;0 -->
<g id="edge18" class="edge">
<title>0&#45;&gt;0</title>
<path fill="none" stroke="black" d="M319.54,-376.94C341.23,-378.04 364.79,-377.06 364.79,-374 364.79,-371.42 348.01,-370.32 329.74,-370.7"/>
<polygon fill="black" stroke="black" points="329.41,-367.21 319.54,-371.06 329.66,-374.2 329.41,-367.21"/>
<text text-anchor="middle" x="378.29" y="-370.3" font-family="Times,serif" font-size="14.00">{c1}</text>
</g>
<!-- 0&#45;&gt;0 -->
<g id="edge19" class="edge">
<title>0&#45;&gt;0</title>
<path fill="none" stroke="black" d="M319.65,-377.8C351.29,-380.33 391.79,-379.06 391.79,-374 391.79,-369.47 359.38,-367.98 329.89,-369.53"/>
<polygon fill="black" stroke="black" points="329.39,-366.05 319.65,-370.2 329.85,-373.04 329.39,-366.05"/>
<text text-anchor="middle" x="405.29" y="-370.3" font-family="Times,serif" font-size="14.00">{c2}</text>
</g>
<!-- 0&#45;&gt;0 -->
<g id="edge21" class="edge">
<title>0&#45;&gt;0</title>
<path fill="none" stroke="black" d="M319.04,-378.37C359.73,-382.63 418.79,-381.17 418.79,-374 418.79,-367.4 368.81,-365.64 329.13,-368.72"/>
<polygon fill="black" stroke="black" points="328.68,-365.24 319.04,-369.63 329.31,-372.21 328.68,-365.24"/>
<text text-anchor="middle" x="425.79" y="-370.3" font-family="Times,serif" font-size="14.00">{}</text>
</g>
<!-- 4&#45;&gt;0 -->
<g id="edge22" class="edge">
<title>4&#45;&gt;0</title>
<path fill="none" stroke="black" d="M487.43,-42.76C485.21,-48.9 482.83,-55.71 480.79,-62 463.62,-114.84 459.16,-128.08 445.79,-182 428.75,-250.7 461.81,-286.01 413.79,-338 392.5,-361.04 357.07,-369.25 330.04,-372.02"/>
<polygon fill="black" stroke="black" points="329.45,-368.55 319.77,-372.85 330.02,-375.53 329.45,-368.55"/>
<text text-anchor="middle" x="459.29" y="-196.3" font-family="Times,serif" font-size="14.00">{c0}</text>
</g>
<!-- 4&#45;&gt;0 -->
<g id="edge23" class="edge">
<title>4&#45;&gt;0</title>
<path fill="none" stroke="black" d="M494.79,-44.22C494.79,-62.25 494.79,-88.82 494.79,-112 494.79,-288 494.79,-288 494.79,-288 494.79,-358.56 388.77,-371.5 330.35,-373.27"/>
<polygon fill="black" stroke="black" points="329.95,-369.78 320.03,-373.48 330.1,-376.77 329.95,-369.78"/>
<text text-anchor="middle" x="508.29" y="-196.3" font-family="Times,serif" font-size="14.00">{c1}</text>
</g>
<!-- 4&#45;&gt;0 -->
<g id="edge24" class="edge">
<title>4&#45;&gt;0</title>
<path fill="none" stroke="black" d="M512,-36.05C530.65,-51.81 557.79,-80.2 557.79,-112 557.79,-288 557.79,-288 557.79,-288 557.79,-325.87 523.64,-323.19 488.79,-338 436.51,-360.22 370.6,-368.33 330.08,-371.3"/>
<polygon fill="black" stroke="black" points="329.61,-367.82 319.86,-371.97 330.07,-374.81 329.61,-367.82"/>
<text text-anchor="middle" x="571.29" y="-196.3" font-family="Times,serif" font-size="14.00">{c2}</text>
</g>
<!-- 4&#45;&gt;0 -->
<g id="edge25" class="edge">
<title>4&#45;&gt;0</title>
<path fill="none" stroke="black" d="M516.16,-27.7C552.11,-36.99 620.79,-61.38 620.79,-112 620.79,-288 620.79,-288 620.79,-288 620.79,-347.58 415.45,-366.09 329.71,-371.22"/>
<polygon fill="black" stroke="black" points="329.41,-367.73 319.63,-371.8 329.81,-374.72 329.41,-367.73"/>
<text text-anchor="middle" x="634.29" y="-196.3" font-family="Times,serif" font-size="14.00">{c3}</text>
</g>
<!-- 4&#45;&gt;4 -->
<g id="edge26" class="edge">
<title>4&#45;&gt;4</title>
<path fill="none" stroke="black" d="M515.37,-30.37C525.63,-31.53 534.79,-28.74 534.79,-22 534.79,-17.68 531.03,-14.99 525.63,-13.91"/>
<polygon fill="black" stroke="black" points="525.46,-10.41 515.37,-13.63 525.27,-17.4 525.46,-10.41"/>
<text text-anchor="middle" x="541.79" y="-18.3" font-family="Times,serif" font-size="14.00">{}</text>
</g>
</g>
</svg>
