<?xml version="1.0" encoding="UTF-8" standalone="no"?>
<!DOCTYPE svg PUBLIC "-//W3C//DTD SVG 1.1//EN"
 "http://www.w3.org/Graphics/SVG/1.1/DTD/svg11.dtd">
<!-- Generated by graphviz version 2.43.0 (0)
 -->
<!-- Title: %3 Pages: 1 -->
<svg width="2506pt" height="475pt"
 viewBox="0.00 0.00 2506.34 475.44" xmlns="http://www.w3.org/2000/svg" xmlns:xlink="http://www.w3.org/1999/xlink">
<g id="graph0" class="graph" transform="scale(1 1) rotate(0) translate(4 471.44)">
<title>%3</title>
<polygon fill="white" stroke="transparent" points="-4,4 -4,-471.44 2502.34,-471.44 2502.34,4 -4,4"/>
<!-- fake -->
<g id="node1" class="node">
<title>fake</title>
</g>
<!-- 0 -->
<g id="node2" class="node">
<title>0</title>
<ellipse fill="none" stroke="black" cx="1807.34" cy="-376.44" rx="27" ry="18"/>
<text text-anchor="middle" x="1807.34" y="-372.74" font-family="Times,serif" font-size="14.00">0</text>
</g>
<!-- fake&#45;&gt;0 -->
<g id="edge1" class="edge">
<title>fake&#45;&gt;0</title>
<path fill="none" stroke="black" stroke-width="2" d="M1807.34,-431.25C1807.34,-423.23 1807.34,-413.49 1807.34,-404.51"/>
<polygon fill="black" stroke="black" stroke-width="2" points="1810.84,-404.47 1807.34,-394.47 1803.84,-404.47 1810.84,-404.47"/>
</g>
<!-- 0&#45;&gt;0 -->
<g id="edge19" class="edge">
<title>0&#45;&gt;0</title>
<path fill="none" stroke="black" d="M1832.78,-383.13C1843.37,-383.59 1852.34,-381.36 1852.34,-376.44 1852.34,-373.21 1848.48,-371.14 1842.83,-370.23"/>
<polygon fill="black" stroke="black" points="1842.94,-366.73 1832.78,-369.75 1842.61,-373.72 1842.94,-366.73"/>
<text text-anchor="middle" x="1859.34" y="-372.74" font-family="Times,serif" font-size="14.00">{}</text>
</g>
<!-- 1 -->
<g id="node3" class="node">
<title>1</title>
<ellipse fill="none" stroke="black" cx="1484.34" cy="-289.44" rx="27" ry="18"/>
<text text-anchor="middle" x="1484.34" y="-285.74" font-family="Times,serif" font-size="14.00">1</text>
</g>
<!-- 0&#45;&gt;1 -->
<g id="edge18" class="edge">
<title>0&#45;&gt;1</title>
<path fill="none" stroke="black" d="M1780.27,-375.83C1674.52,-377.08 1293.39,-378.86 1257.34,-340.44 1252.78,-335.58 1253,-330.5 1257.34,-325.44 1281.29,-297.51 1388.64,-291.66 1446.73,-290.57"/>
<polygon fill="black" stroke="black" points="1447.02,-294.07 1456.97,-290.42 1446.92,-287.07 1447.02,-294.07"/>
<text text-anchor="middle" x="1270.84" y="-329.24" font-family="Times,serif" font-size="14.00">{c3}</text>
</g>
<!-- 0&#45;&gt;1 -->
<g id="edge20" class="edge">
<title>0&#45;&gt;1</title>
<path fill="none" stroke="black" d="M1780.04,-375.65C1680.3,-376.12 1339.72,-375.16 1307.34,-340.44 1265.88,-295.97 1384,-289.99 1447.26,-289.85"/>
<polygon fill="black" stroke="black" points="1447.27,-293.35 1457.28,-289.87 1447.29,-286.35 1447.27,-293.35"/>
<text text-anchor="middle" x="1351.34" y="-329.24" font-family="Times,serif" font-size="14.00">{c0, c1, c2, c3}</text>
</g>
<!-- 0&#45;&gt;1 -->
<g id="edge21" class="edge">
<title>0&#45;&gt;1</title>
<path fill="none" stroke="black" d="M1780.16,-375.06C1695.82,-373.62 1442.7,-367.09 1418.34,-340.44 1404.17,-324.93 1427.68,-310.84 1450.47,-301.6"/>
<polygon fill="black" stroke="black" points="1451.98,-304.77 1460.08,-297.94 1449.49,-298.22 1451.98,-304.77"/>
<text text-anchor="middle" x="1441.84" y="-329.24" font-family="Times,serif" font-size="14.00">{c0, c3}</text>
</g>
<!-- 0&#45;&gt;1 -->
<g id="edge22" class="edge">
<title>0&#45;&gt;1</title>
<path fill="none" stroke="black" d="M1780.29,-374.41C1706.97,-371.36 1508.55,-361.25 1488.34,-340.44 1482.54,-334.46 1480.51,-325.98 1480.25,-317.69"/>
<polygon fill="black" stroke="black" points="1483.76,-317.65 1480.71,-307.5 1476.77,-317.33 1483.76,-317.65"/>
<text text-anchor="middle" x="1511.84" y="-329.24" font-family="Times,serif" font-size="14.00">{c1, c3}</text>
</g>
<!-- 0&#45;&gt;1 -->
<g id="edge23" class="edge">
<title>0&#45;&gt;1</title>
<path fill="none" stroke="black" d="M1780.18,-375.57C1733.32,-374.96 1634.95,-369.88 1558.34,-340.44 1556.98,-339.92 1531.64,-322.73 1510.99,-308.65"/>
<polygon fill="black" stroke="black" points="1512.74,-305.61 1502.51,-302.86 1508.8,-311.39 1512.74,-305.61"/>
<text text-anchor="middle" x="1581.84" y="-329.24" font-family="Times,serif" font-size="14.00">{c2, c3}</text>
</g>
<!-- 0&#45;&gt;1 -->
<g id="edge24" class="edge">
<title>0&#45;&gt;1</title>
<path fill="none" stroke="black" d="M1780.65,-373.43C1744.85,-370.03 1679.83,-361.33 1628.34,-340.44 1617.03,-335.85 1616.43,-330.52 1605.34,-325.44 1577.86,-312.84 1544.77,-303.64 1520.14,-297.85"/>
<polygon fill="black" stroke="black" points="1520.68,-294.38 1510.15,-295.57 1519.12,-301.2 1520.68,-294.38"/>
<text text-anchor="middle" x="1661.84" y="-329.24" font-family="Times,serif" font-size="14.00">{c0, c1, c3}</text>
</g>
<!-- 0&#45;&gt;1 -->
<g id="edge25" class="edge">
<title>0&#45;&gt;1</title>
<path fill="none" stroke="black" d="M1783.72,-367.63C1765.45,-361.24 1739.74,-351.48 1718.34,-340.44 1707.49,-334.84 1706.71,-329.86 1695.34,-325.44 1637.16,-302.8 1564.38,-294.8 1521.28,-291.98"/>
<polygon fill="black" stroke="black" points="1521.44,-288.48 1511.25,-291.38 1521.03,-295.47 1521.44,-288.48"/>
<text text-anchor="middle" x="1751.84" y="-329.24" font-family="Times,serif" font-size="14.00">{c1, c2, c3}</text>
</g>
<!-- 0&#45;&gt;1 -->
<g id="edge26" class="edge">
<title>0&#45;&gt;1</title>
<path fill="none" stroke="black" d="M1804.34,-358.32C1801.44,-347.13 1795.87,-333.21 1785.34,-325.44 1744.38,-295.19 1593.28,-290.68 1522.01,-290.27"/>
<polygon fill="black" stroke="black" points="1521.7,-286.77 1511.69,-290.24 1521.68,-293.77 1521.7,-286.77"/>
<text text-anchor="middle" x="1830.84" y="-329.24" font-family="Times,serif" font-size="14.00">{c0, c2, c3}</text>
</g>
<!-- 2 -->
<g id="node4" class="node">
<title>2</title>
<ellipse fill="none" stroke="black" cx="1423.34" cy="-24.44" rx="27" ry="18"/>
<text text-anchor="middle" x="1423.34" y="-20.74" font-family="Times,serif" font-size="14.00">2</text>
</g>
<!-- 0&#45;&gt;2 -->
<g id="edge27" class="edge">
<title>0&#45;&gt;2</title>
<path fill="none" stroke="black" d="M1831.65,-368.21C1845.02,-362.85 1860.45,-354.07 1868.34,-340.44 1871.68,-334.67 1870.13,-331.86 1868.34,-325.44 1834.59,-204.18 1800.85,-173.21 1700.34,-97.44 1679.08,-81.41 1675.1,-74.23 1650.34,-64.44 1586.52,-39.19 1506.24,-30.27 1460.26,-27.13"/>
<polygon fill="black" stroke="black" points="1460.36,-23.63 1450.16,-26.49 1459.93,-30.61 1460.36,-23.63"/>
<text text-anchor="middle" x="1849.84" y="-198.74" font-family="Times,serif" font-size="14.00">{c1, c2}</text>
</g>
<!-- 0&#45;&gt;2 -->
<g id="edge28" class="edge">
<title>0&#45;&gt;2</title>
<path fill="none" stroke="black" d="M1831.8,-368.38C1863.94,-357.43 1916.34,-333.03 1916.34,-290.44 1916.34,-290.44 1916.34,-290.44 1916.34,-114.44 1916.34,-68.1 1574.74,-37.24 1460.24,-28.2"/>
<polygon fill="black" stroke="black" points="1460.44,-24.7 1450.2,-27.41 1459.89,-31.68 1460.44,-24.7"/>
<text text-anchor="middle" x="1939.84" y="-198.74" font-family="Times,serif" font-size="14.00">{c0, c2}</text>
</g>
<!-- 0&#45;&gt;2 -->
<g id="edge29" class="edge">
<title>0&#45;&gt;2</title>
<path fill="none" stroke="black" d="M1834.44,-375.38C1887.37,-373.7 1999.34,-361.71 1999.34,-290.44 1999.34,-290.44 1999.34,-290.44 1999.34,-114.44 1999.34,-59.69 1587.7,-33.9 1460.4,-27.24"/>
<polygon fill="black" stroke="black" points="1460.52,-23.74 1450.35,-26.72 1460.16,-30.73 1460.52,-23.74"/>
<text text-anchor="middle" x="2012.84" y="-198.74" font-family="Times,serif" font-size="14.00">{c0}</text>
</g>
<!-- 0&#45;&gt;2 -->
<g id="edge30" class="edge">
<title>0&#45;&gt;2</title>
<path fill="none" stroke="black" d="M1834.14,-374.17C1871.46,-371.58 1940.56,-363.78 1994.34,-340.44 2028.75,-325.5 2062.34,-327.95 2062.34,-290.44 2062.34,-290.44 2062.34,-290.44 2062.34,-114.44 2062.34,-53.3 1597.53,-31.71 1460.76,-26.68"/>
<polygon fill="black" stroke="black" points="1460.51,-23.17 1450.39,-26.31 1460.26,-30.17 1460.51,-23.17"/>
<text text-anchor="middle" x="2085.84" y="-198.74" font-family="Times,serif" font-size="14.00">{c0, c1}</text>
</g>
<!-- 0&#45;&gt;2 -->
<g id="edge31" class="edge">
<title>0&#45;&gt;2</title>
<path fill="none" stroke="black" d="M1834.43,-374.43C1914.63,-370.7 2145.34,-354.43 2145.34,-290.44 2145.34,-290.44 2145.34,-290.44 2145.34,-114.44 2145.34,-44.75 1608.6,-29.07 1460.69,-26.07"/>
<polygon fill="black" stroke="black" points="1460.39,-22.57 1450.33,-25.87 1460.26,-29.57 1460.39,-22.57"/>
<text text-anchor="middle" x="2158.84" y="-198.74" font-family="Times,serif" font-size="14.00">{c2}</text>
</g>
<!-- 0&#45;&gt;2 -->
<g id="edge32" class="edge">
<title>0&#45;&gt;2</title>
<path fill="none" stroke="black" d="M1834.59,-375.49C1924.84,-374.92 2208.34,-367.03 2208.34,-290.44 2208.34,-290.44 2208.34,-290.44 2208.34,-114.44 2208.34,-38.18 1615.93,-27.25 1460.38,-25.69"/>
<polygon fill="black" stroke="black" points="1460.39,-22.2 1450.36,-25.6 1460.33,-29.19 1460.39,-22.2"/>
<text text-anchor="middle" x="2221.84" y="-198.74" font-family="Times,serif" font-size="14.00">{c1}</text>
</g>
<!-- 0&#45;&gt;2 -->
<g id="edge33" class="edge">
<title>0&#45;&gt;2</title>
<path fill="none" stroke="black" d="M1834.37,-374.4C1909.23,-371.29 2118.07,-360.97 2183.34,-340.44 2226.25,-326.94 2271.34,-335.42 2271.34,-290.44 2271.34,-290.44 2271.34,-290.44 2271.34,-114.44 2271.34,-31.69 1624.46,-25.6 1460.67,-25.38"/>
<polygon fill="black" stroke="black" points="1460.6,-21.88 1450.59,-25.37 1460.59,-28.88 1460.6,-21.88"/>
<text text-anchor="middle" x="2304.84" y="-198.74" font-family="Times,serif" font-size="14.00">{c0, c1, c2}</text>
</g>
<!-- 1&#45;&gt;1 -->
<g id="edge71" class="edge">
<title>1&#45;&gt;1</title>
<path fill="none" stroke="black" d="M1508.87,-297.19C1519.85,-297.93 1529.34,-295.35 1529.34,-289.44 1529.34,-285.47 1525.06,-283 1518.91,-282.03"/>
<polygon fill="black" stroke="black" points="1518.99,-278.53 1508.87,-281.69 1518.75,-285.53 1518.99,-278.53"/>
<text text-anchor="middle" x="1536.34" y="-285.74" font-family="Times,serif" font-size="14.00">{}</text>
</g>
<!-- 1&#45;&gt;2 -->
<g id="edge75" class="edge">
<title>1&#45;&gt;2</title>
<path fill="none" stroke="black" d="M1481.03,-271.27C1478.75,-261.38 1475.25,-248.88 1470.34,-238.44 1453.75,-203.19 1431.98,-203.62 1420.34,-166.44 1418.35,-160.08 1416.36,-156.79 1420.34,-151.44 1436.96,-129.1 1463.72,-155.78 1480.34,-133.44 1489.89,-120.6 1485.6,-112.55 1480.34,-97.44 1473.55,-77.93 1459.03,-59.72 1446.35,-46.5"/>
<polygon fill="black" stroke="black" points="1448.71,-43.91 1439.16,-39.32 1443.76,-48.86 1448.71,-43.91"/>
<text text-anchor="middle" x="1453.84" y="-155.24" font-family="Times,serif" font-size="14.00">{c0, c1, c3}</text>
</g>
<!-- 1&#45;&gt;2 -->
<g id="edge76" class="edge">
<title>1&#45;&gt;2</title>
<path fill="none" stroke="black" d="M1488.74,-271.57C1496.79,-237.96 1511.81,-160.44 1497.34,-97.44 1493.69,-81.55 1492.03,-76.75 1481.34,-64.44 1473.48,-55.39 1463.05,-47.52 1453.21,-41.26"/>
<polygon fill="black" stroke="black" points="1454.8,-38.13 1444.42,-35.98 1451.19,-44.13 1454.8,-38.13"/>
<text text-anchor="middle" x="1526.84" y="-155.24" font-family="Times,serif" font-size="14.00">{c0, c3}</text>
</g>
<!-- 1&#45;&gt;2 -->
<g id="edge77" class="edge">
<title>1&#45;&gt;2</title>
<path fill="none" stroke="black" d="M1499.84,-274.41C1524.37,-250.43 1568.04,-199.47 1554.34,-151.44 1541.86,-107.67 1533.88,-95.19 1500.34,-64.44 1487.66,-52.81 1470.86,-43.76 1456.19,-37.33"/>
<polygon fill="black" stroke="black" points="1457.49,-34.08 1446.92,-33.47 1454.81,-40.54 1457.49,-34.08"/>
<text text-anchor="middle" x="1569.84" y="-155.24" font-family="Times,serif" font-size="14.00">{c0}</text>
</g>
<!-- 1&#45;&gt;2 -->
<g id="edge78" class="edge">
<title>1&#45;&gt;2</title>
<path fill="none" stroke="black" d="M1505.05,-277.87C1515.99,-271.67 1529.21,-263.15 1539.34,-253.44 1575.5,-218.76 1601.23,-199.58 1587.34,-151.44 1573.88,-104.81 1561.68,-91.43 1521.34,-64.44 1501.9,-51.43 1477.46,-41.69 1457.85,-35.2"/>
<polygon fill="black" stroke="black" points="1458.68,-31.79 1448.09,-32.1 1456.56,-38.47 1458.68,-31.79"/>
<text text-anchor="middle" x="1613.84" y="-155.24" font-family="Times,serif" font-size="14.00">{c0, c1}</text>
</g>
<!-- 1&#45;&gt;2 -->
<g id="edge79" class="edge">
<title>1&#45;&gt;2</title>
<path fill="none" stroke="black" d="M1508.41,-280.94C1559.01,-263.73 1669.49,-217.69 1641.34,-151.44 1610.17,-78.08 1512.8,-45.3 1459.35,-32.51"/>
<polygon fill="black" stroke="black" points="1459.81,-29.02 1449.28,-30.21 1458.25,-35.85 1459.81,-29.02"/>
<text text-anchor="middle" x="1657.84" y="-155.24" font-family="Times,serif" font-size="14.00">{c3}</text>
</g>
<!-- 1&#45;&gt;2 -->
<g id="edge80" class="edge">
<title>1&#45;&gt;2</title>
<path fill="none" stroke="black" d="M1510,-283.07C1568.26,-269.44 1703.4,-228.95 1675.34,-151.44 1643.94,-64.7 1522.04,-37.38 1460.03,-29"/>
<polygon fill="black" stroke="black" points="1460.25,-25.51 1449.89,-27.73 1459.38,-32.45 1460.25,-25.51"/>
<text text-anchor="middle" x="1691.84" y="-155.24" font-family="Times,serif" font-size="14.00">{c1}</text>
</g>
<!-- 1&#45;&gt;2 -->
<g id="edge81" class="edge">
<title>1&#45;&gt;2</title>
<path fill="none" stroke="black" d="M1510.77,-284.91C1576.59,-274.72 1740.35,-240.16 1709.34,-151.44 1674.77,-52.54 1529.65,-31.15 1460.41,-26.61"/>
<polygon fill="black" stroke="black" points="1460.55,-23.11 1450.37,-26.03 1460.15,-30.1 1460.55,-23.11"/>
<text text-anchor="middle" x="1735.84" y="-155.24" font-family="Times,serif" font-size="14.00">{c1, c3}</text>
</g>
<!-- 3 -->
<g id="node5" class="node">
<title>3</title>
<ellipse fill="none" stroke="black" cx="1028.34" cy="-202.44" rx="27" ry="18"/>
<text text-anchor="middle" x="1028.34" y="-198.74" font-family="Times,serif" font-size="14.00">3</text>
</g>
<!-- 1&#45;&gt;3 -->
<g id="edge66" class="edge">
<title>1&#45;&gt;3</title>
<path fill="none" stroke="black" d="M1457.39,-287.97C1339.41,-285.78 873.44,-275.74 852.34,-253.44 810.88,-209.62 927.81,-203.3 990.93,-202.95"/>
<polygon fill="black" stroke="black" points="990.94,-206.45 1000.94,-202.95 990.94,-199.45 990.94,-206.45"/>
<text text-anchor="middle" x="875.84" y="-242.24" font-family="Times,serif" font-size="14.00">{c1, c2}</text>
</g>
<!-- 1&#45;&gt;3 -->
<g id="edge67" class="edge">
<title>1&#45;&gt;3</title>
<path fill="none" stroke="black" d="M1457.11,-287.77C1347.15,-284.93 940.85,-273.14 922.34,-253.44 898.81,-228.39 952.47,-214.63 991.71,-208.17"/>
<polygon fill="black" stroke="black" points="992.47,-211.59 1001.82,-206.6 991.4,-204.67 992.47,-211.59"/>
<text text-anchor="middle" x="955.84" y="-242.24" font-family="Times,serif" font-size="14.00">{c0, c2, c3}</text>
</g>
<!-- 1&#45;&gt;3 -->
<g id="edge68" class="edge">
<title>1&#45;&gt;3</title>
<path fill="none" stroke="black" d="M1457.26,-288.52C1361.46,-288.55 1042.71,-286.14 1012.34,-253.44 1005.8,-246.4 1007.36,-236.68 1011.46,-227.69"/>
<polygon fill="black" stroke="black" points="1014.64,-229.16 1016.41,-218.71 1008.51,-225.78 1014.64,-229.16"/>
<text text-anchor="middle" x="1056.34" y="-242.24" font-family="Times,serif" font-size="14.00">{c0, c1, c2, c3}</text>
</g>
<!-- 1&#45;&gt;3 -->
<g id="edge69" class="edge">
<title>1&#45;&gt;3</title>
<path fill="none" stroke="black" d="M1457.28,-287.48C1384.35,-284.65 1185.06,-275.08 1123.34,-253.44 1111.82,-249.4 1110.96,-244.45 1100.34,-238.44 1087.23,-231.02 1072.32,-223.61 1059.48,-217.53"/>
<polygon fill="black" stroke="black" points="1060.67,-214.22 1050.13,-213.16 1057.71,-220.56 1060.67,-214.22"/>
<text text-anchor="middle" x="1136.84" y="-242.24" font-family="Times,serif" font-size="14.00">{c2}</text>
</g>
<!-- 1&#45;&gt;3 -->
<g id="edge70" class="edge">
<title>1&#45;&gt;3</title>
<path fill="none" stroke="black" d="M1457.51,-287.01C1392.02,-283.28 1225.5,-272.18 1173.34,-253.44 1161.86,-249.31 1161.44,-243.51 1150.34,-238.44 1122.46,-225.7 1088.85,-216.47 1063.97,-210.7"/>
<polygon fill="black" stroke="black" points="1064.41,-207.21 1053.89,-208.43 1062.88,-214.04 1064.41,-207.21"/>
<text text-anchor="middle" x="1196.84" y="-242.24" font-family="Times,serif" font-size="14.00">{c2, c3}</text>
</g>
<!-- 1&#45;&gt;3 -->
<g id="edge72" class="edge">
<title>1&#45;&gt;3</title>
<path fill="none" stroke="black" d="M1457.37,-288.27C1411.81,-287.17 1317.3,-281.37 1243.34,-253.44 1231.92,-249.13 1231.68,-242.96 1220.34,-238.44 1168.91,-217.95 1104.91,-209.36 1065.34,-205.82"/>
<polygon fill="black" stroke="black" points="1065.6,-202.33 1055.35,-204.99 1065.02,-209.31 1065.6,-202.33"/>
<text text-anchor="middle" x="1276.84" y="-242.24" font-family="Times,serif" font-size="14.00">{c0, c1, c2}</text>
</g>
<!-- 1&#45;&gt;3 -->
<g id="edge73" class="edge">
<title>1&#45;&gt;3</title>
<path fill="none" stroke="black" d="M1458.1,-285.2C1427.27,-280.75 1375.05,-271.21 1333.34,-253.44 1322.11,-248.65 1321.8,-242.63 1310.34,-238.44 1226.77,-207.87 1120.97,-203 1065.75,-202.79"/>
<polygon fill="black" stroke="black" points="1065.72,-199.29 1055.72,-202.81 1065.73,-206.29 1065.72,-199.29"/>
<text text-anchor="middle" x="1366.84" y="-242.24" font-family="Times,serif" font-size="14.00">{c1, c2, c3}</text>
</g>
<!-- 1&#45;&gt;3 -->
<g id="edge74" class="edge">
<title>1&#45;&gt;3</title>
<path fill="none" stroke="black" d="M1464.12,-277.22C1452.16,-270.49 1436.77,-261.66 1423.34,-253.44 1412.93,-247.07 1411.86,-242.46 1400.34,-238.44 1339.24,-217.11 1147.38,-207.77 1065.72,-204.68"/>
<polygon fill="black" stroke="black" points="1065.54,-201.17 1055.41,-204.3 1065.28,-208.17 1065.54,-201.17"/>
<text text-anchor="middle" x="1446.84" y="-242.24" font-family="Times,serif" font-size="14.00">{c0, c2}</text>
</g>
<!-- 2&#45;&gt;2 -->
<g id="edge82" class="edge">
<title>2&#45;&gt;2</title>
<path fill="none" stroke="black" d="M1450.58,-25.94C1460.36,-25.97 1468.34,-25.47 1468.34,-24.44 1468.34,-23.81 1465.38,-23.38 1460.85,-23.15"/>
<polygon fill="black" stroke="black" points="1460.65,-19.64 1450.58,-22.94 1460.51,-26.64 1460.65,-19.64"/>
<text text-anchor="middle" x="1491.84" y="-20.74" font-family="Times,serif" font-size="14.00">{c1, c2}</text>
</g>
<!-- 2&#45;&gt;2 -->
<g id="edge83" class="edge">
<title>2&#45;&gt;2</title>
<path fill="none" stroke="black" d="M1450.23,-26.86C1478.66,-28.12 1515.34,-27.31 1515.34,-24.44 1515.34,-21.9 1486.75,-20.97 1460.49,-21.66"/>
<polygon fill="black" stroke="black" points="1460.1,-18.17 1450.23,-22.01 1460.35,-25.16 1460.1,-18.17"/>
<text text-anchor="middle" x="1538.84" y="-20.74" font-family="Times,serif" font-size="14.00">{c0, c2}</text>
</g>
<!-- 2&#45;&gt;2 -->
<g id="edge84" class="edge">
<title>2&#45;&gt;2</title>
<path fill="none" stroke="black" d="M1450.24,-27.46C1492.95,-30.17 1562.34,-29.16 1562.34,-24.44 1562.34,-20.08 1503.12,-18.89 1460.42,-20.87"/>
<polygon fill="black" stroke="black" points="1460.04,-17.38 1450.24,-21.42 1460.42,-24.37 1460.04,-17.38"/>
<text text-anchor="middle" x="1595.84" y="-20.74" font-family="Times,serif" font-size="14.00">{c0, c1, c3}</text>
</g>
<!-- 2&#45;&gt;2 -->
<g id="edge85" class="edge">
<title>2&#45;&gt;2</title>
<path fill="none" stroke="black" d="M1449.92,-27.76C1509.01,-32.22 1629.34,-31.11 1629.34,-24.44 1629.34,-18.13 1521.81,-16.8 1460.13,-20.43"/>
<polygon fill="black" stroke="black" points="1459.66,-16.96 1449.92,-21.12 1460.13,-23.94 1459.66,-16.96"/>
<text text-anchor="middle" x="1652.84" y="-20.74" font-family="Times,serif" font-size="14.00">{c0, c3}</text>
</g>
<!-- 2&#45;&gt;2 -->
<g id="edge86" class="edge">
<title>2&#45;&gt;2</title>
<path fill="none" stroke="black" d="M1450.04,-28.15C1519.73,-34.23 1676.34,-32.99 1676.34,-24.44 1676.34,-16.29 1534.07,-14.78 1460.39,-19.92"/>
<polygon fill="black" stroke="black" points="1459.74,-16.46 1450.04,-20.73 1460.28,-23.44 1459.74,-16.46"/>
<text text-anchor="middle" x="1689.84" y="-20.74" font-family="Times,serif" font-size="14.00">{c0}</text>
</g>
<!-- 2&#45;&gt;2 -->
<g id="edge87" class="edge">
<title>2&#45;&gt;2</title>
<path fill="none" stroke="black" d="M1449.81,-28.53C1525.82,-36.23 1703.34,-34.87 1703.34,-24.44 1703.34,-14.46 1540.75,-12.78 1460.15,-19.4"/>
<polygon fill="black" stroke="black" points="1459.46,-15.95 1449.81,-20.34 1460.09,-22.92 1459.46,-15.95"/>
<text text-anchor="middle" x="1726.84" y="-20.74" font-family="Times,serif" font-size="14.00">{c0, c1}</text>
</g>
<!-- 2&#45;&gt;2 -->
<g id="edge88" class="edge">
<title>2&#45;&gt;2</title>
<path fill="none" stroke="black" d="M1449.73,-28.78C1535.24,-38.25 1750.34,-36.8 1750.34,-24.44 1750.34,-12.54 1550.91,-10.75 1459.77,-19.09"/>
<polygon fill="black" stroke="black" points="1459.33,-15.61 1449.73,-20.09 1460.03,-22.58 1459.33,-15.61"/>
<text text-anchor="middle" x="1773.84" y="-20.74" font-family="Times,serif" font-size="14.00">{c2, c3}</text>
</g>
<!-- 2&#45;&gt;2 -->
<g id="edge89" class="edge">
<title>2&#45;&gt;2</title>
<path fill="none" stroke="black" d="M1449.68,-29C1544.23,-40.26 1797.34,-38.74 1797.34,-24.44 1797.34,-10.63 1561.24,-8.74 1459.92,-18.76"/>
<polygon fill="black" stroke="black" points="1459.25,-15.32 1449.68,-19.87 1460,-22.28 1459.25,-15.32"/>
<text text-anchor="middle" x="1810.84" y="-20.74" font-family="Times,serif" font-size="14.00">{c3}</text>
</g>
<!-- 2&#45;&gt;2 -->
<g id="edge90" class="edge">
<title>2&#45;&gt;2</title>
<path fill="none" stroke="black" d="M1449.42,-29.24C1549.73,-42.26 1824.34,-40.66 1824.34,-24.44 1824.34,-8.74 1567.14,-6.73 1459.65,-18.42"/>
<polygon fill="black" stroke="black" points="1458.94,-14.98 1449.42,-19.64 1459.76,-21.93 1458.94,-14.98"/>
<text text-anchor="middle" x="1837.84" y="-20.74" font-family="Times,serif" font-size="14.00">{c2}</text>
</g>
<!-- 2&#45;&gt;2 -->
<g id="edge91" class="edge">
<title>2&#45;&gt;2</title>
<path fill="none" stroke="black" d="M1449.51,-29.49C1555.86,-44.27 1851.34,-42.58 1851.34,-24.44 1851.34,-6.84 1573.48,-4.73 1459.68,-18.09"/>
<polygon fill="black" stroke="black" points="1458.99,-14.65 1449.51,-19.39 1459.88,-21.6 1458.99,-14.65"/>
<text text-anchor="middle" x="1864.84" y="-20.74" font-family="Times,serif" font-size="14.00">{c1}</text>
</g>
<!-- 2&#45;&gt;2 -->
<g id="edge92" class="edge">
<title>2&#45;&gt;2</title>
<path fill="none" stroke="black" d="M1449.36,-29.68C1561.52,-46.27 1878.34,-44.53 1878.34,-24.44 1878.34,-4.92 1579.21,-2.72 1459.37,-17.84"/>
<polygon fill="black" stroke="black" points="1458.79,-14.38 1449.36,-19.2 1459.74,-21.32 1458.79,-14.38"/>
<text text-anchor="middle" x="1911.84" y="-20.74" font-family="Times,serif" font-size="14.00">{c1, c2, c3}</text>
</g>
<!-- 2&#45;&gt;2 -->
<g id="edge93" class="edge">
<title>2&#45;&gt;2</title>
<path fill="none" stroke="black" d="M1449.31,-29.74C1572.14,-48.28 1945.34,-46.52 1945.34,-24.44 1945.34,-2.94 1591.56,-0.7 1459.54,-17.71"/>
<polygon fill="black" stroke="black" points="1458.73,-14.29 1449.31,-19.13 1459.7,-21.22 1458.73,-14.29"/>
<text text-anchor="middle" x="1952.34" y="-20.74" font-family="Times,serif" font-size="14.00">{}</text>
</g>
<!-- 2&#45;&gt;2 -->
<g id="edge94" class="edge">
<title>2&#45;&gt;2</title>
<path fill="none" stroke="black" d="M1449.23,-29.93C1576.72,-50.29 1963.34,-48.46 1963.34,-24.44 1963.34,-1.03 1596.11,1.3 1459.43,-17.44"/>
<polygon fill="black" stroke="black" points="1458.61,-14.03 1449.23,-18.95 1459.63,-20.95 1458.61,-14.03"/>
<text text-anchor="middle" x="2007.34" y="-20.74" font-family="Times,serif" font-size="14.00">{c0, c1, c2, c3}</text>
</g>
<!-- 2&#45;&gt;2 -->
<g id="edge95" class="edge">
<title>2&#45;&gt;2</title>
<path fill="none" stroke="black" d="M1449.17,-29.93C1588.93,-52.3 2051.34,-50.47 2051.34,-24.44 2051.34,1.01 1609.47,3.33 1459.07,-17.48"/>
<polygon fill="black" stroke="black" points="1458.55,-14.02 1449.17,-18.95 1459.58,-20.94 1458.55,-14.02"/>
<text text-anchor="middle" x="2084.84" y="-20.74" font-family="Times,serif" font-size="14.00">{c0, c2, c3}</text>
</g>
<!-- 2&#45;&gt;2 -->
<g id="edge96" class="edge">
<title>2&#45;&gt;2</title>
<path fill="none" stroke="black" d="M1449.32,-30.02C1598.87,-54.31 2118.34,-52.45 2118.34,-24.44 2118.34,2.97 1620.95,5.34 1459.46,-17.33"/>
<polygon fill="black" stroke="black" points="1458.68,-13.91 1449.32,-18.86 1459.73,-20.83 1458.68,-13.91"/>
<text text-anchor="middle" x="2151.84" y="-20.74" font-family="Times,serif" font-size="14.00">{c0, c1, c2}</text>
</g>
<!-- 2&#45;&gt;2 -->
<g id="edge97" class="edge">
<title>2&#45;&gt;2</title>
<path fill="none" stroke="black" d="M1449.2,-30.06C1607.9,-56.31 2185.34,-54.44 2185.34,-24.44 2185.34,4.96 1630.79,7.35 1459.23,-17.27"/>
<polygon fill="black" stroke="black" points="1458.55,-13.83 1449.2,-18.81 1459.62,-20.75 1458.55,-13.83"/>
<text text-anchor="middle" x="2208.84" y="-20.74" font-family="Times,serif" font-size="14.00">{c1, c3}</text>
</g>
<!-- 3&#45;&gt;2 -->
<g id="edge59" class="edge">
<title>3&#45;&gt;2</title>
<path fill="none" stroke="black" d="M1026.75,-184.27C1025.05,-173.9 1021.56,-160.9 1014.34,-151.44 1004.91,-139.08 992,-146.97 984.34,-133.44 976.46,-119.52 974.22,-109.83 984.34,-97.44 1009.58,-66.51 1034.8,-93.01 1072.34,-79.44 1085.62,-74.64 1086.77,-68.33 1100.34,-64.44 1214.66,-31.62 1251.09,-71.59 1367.34,-46.44 1375.64,-44.64 1384.35,-41.85 1392.36,-38.89"/>
<polygon fill="black" stroke="black" points="1393.67,-42.13 1401.71,-35.24 1391.12,-35.61 1393.67,-42.13"/>
<text text-anchor="middle" x="1007.84" y="-111.74" font-family="Times,serif" font-size="14.00">{c0, c2}</text>
</g>
<!-- 3&#45;&gt;2 -->
<g id="edge60" class="edge">
<title>3&#45;&gt;2</title>
<path fill="none" stroke="black" d="M1031.01,-184.5C1035.26,-162.29 1045.44,-123.12 1067.34,-97.44 1069.75,-94.62 1121.79,-65.52 1125.34,-64.44 1228.51,-33 1262.01,-69.61 1367.34,-46.44 1375.47,-44.65 1384,-41.92 1391.88,-39.02"/>
<polygon fill="black" stroke="black" points="1393.38,-42.19 1401.44,-35.31 1390.85,-35.67 1393.38,-42.19"/>
<text text-anchor="middle" x="1090.84" y="-111.74" font-family="Times,serif" font-size="14.00">{c0, c3}</text>
</g>
<!-- 3&#45;&gt;2 -->
<g id="edge61" class="edge">
<title>3&#45;&gt;2</title>
<path fill="none" stroke="black" d="M1045.95,-188.46C1063.68,-175.19 1091.59,-153.68 1114.34,-133.44 1131.24,-118.4 1134.11,-113.2 1150.34,-97.44 1165.68,-82.55 1165.88,-73.3 1185.34,-64.44 1259.32,-30.75 1288.17,-64.86 1367.34,-46.44 1375.45,-44.55 1383.97,-41.79 1391.85,-38.88"/>
<polygon fill="black" stroke="black" points="1393.35,-42.05 1401.41,-35.18 1390.82,-35.53 1393.35,-42.05"/>
<text text-anchor="middle" x="1163.84" y="-111.74" font-family="Times,serif" font-size="14.00">{c0}</text>
</g>
<!-- 3&#45;&gt;2 -->
<g id="edge62" class="edge">
<title>3&#45;&gt;2</title>
<path fill="none" stroke="black" d="M1052.16,-193.57C1082.78,-182.8 1136.81,-161.57 1177.34,-133.44 1195.93,-120.54 1195.51,-111.36 1213.34,-97.44 1235.81,-79.9 1241.66,-74.48 1268.34,-64.44 1310.19,-48.68 1324.23,-58.34 1367.34,-46.44 1375.29,-44.24 1383.7,-41.39 1391.52,-38.49"/>
<polygon fill="black" stroke="black" points="1392.94,-41.7 1401.03,-34.85 1390.44,-35.16 1392.94,-41.7"/>
<text text-anchor="middle" x="1236.84" y="-111.74" font-family="Times,serif" font-size="14.00">{c2, c3}</text>
</g>
<!-- 3&#45;&gt;2 -->
<g id="edge63" class="edge">
<title>3&#45;&gt;2</title>
<path fill="none" stroke="black" d="M1054.74,-198.06C1099.66,-191.4 1192.65,-173.58 1260.34,-133.44 1279.8,-121.9 1280.11,-113.2 1296.34,-97.44 1311.68,-82.55 1313.44,-76.13 1331.34,-64.44 1341.65,-57.71 1368.83,-46.44 1390.99,-37.75"/>
<polygon fill="black" stroke="black" points="1392.37,-40.97 1400.42,-34.08 1389.84,-34.44 1392.37,-40.97"/>
<text text-anchor="middle" x="1309.84" y="-111.74" font-family="Times,serif" font-size="14.00">{c3}</text>
</g>
<!-- 3&#45;&gt;2 -->
<g id="edge64" class="edge">
<title>3&#45;&gt;2</title>
<path fill="none" stroke="black" d="M1055.48,-201.13C1110.41,-199.3 1236.82,-188.87 1323.34,-133.44 1332.83,-127.36 1376.73,-78.37 1403.11,-48.5"/>
<polygon fill="black" stroke="black" points="1406.05,-50.45 1410.04,-40.63 1400.8,-45.82 1406.05,-50.45"/>
<text text-anchor="middle" x="1372.84" y="-111.74" font-family="Times,serif" font-size="14.00">{c2}</text>
</g>
<!-- 3&#45;&gt;2 -->
<g id="edge65" class="edge">
<title>3&#45;&gt;2</title>
<path fill="none" stroke="black" d="M1055.36,-200.11C1130.49,-195.86 1339.4,-179.99 1386.34,-133.44 1408.16,-111.8 1417.12,-76.75 1420.8,-52.48"/>
<polygon fill="black" stroke="black" points="1424.28,-52.86 1422.11,-42.49 1417.34,-51.95 1424.28,-52.86"/>
<text text-anchor="middle" x="1442.84" y="-111.74" font-family="Times,serif" font-size="14.00">{c0, c2, c3}</text>
</g>
<!-- 3&#45;&gt;3 -->
<g id="edge53" class="edge">
<title>3&#45;&gt;3</title>
<path fill="none" stroke="black" d="M1052.87,-210.19C1063.85,-210.93 1073.34,-208.35 1073.34,-202.44 1073.34,-198.47 1069.06,-196 1062.91,-195.03"/>
<polygon fill="black" stroke="black" points="1062.99,-191.53 1052.87,-194.69 1062.75,-198.53 1062.99,-191.53"/>
<text text-anchor="middle" x="1080.34" y="-198.74" font-family="Times,serif" font-size="14.00">{}</text>
</g>
<!-- 4 -->
<g id="node6" class="node">
<title>4</title>
<ellipse fill="none" stroke="black" cx="605.34" cy="-115.44" rx="27" ry="18"/>
<text text-anchor="middle" x="605.34" y="-111.74" font-family="Times,serif" font-size="14.00">4</text>
</g>
<!-- 3&#45;&gt;4 -->
<g id="edge50" class="edge">
<title>3&#45;&gt;4</title>
<path fill="none" stroke="black" d="M1001.39,-200.97C883.41,-198.78 417.44,-188.74 396.34,-166.44 391.76,-161.6 392.03,-156.53 396.34,-151.44 417.9,-125.97 513.85,-119.02 567.94,-117.13"/>
<polygon fill="black" stroke="black" points="568.27,-120.63 578.16,-116.82 568.06,-113.63 568.27,-120.63"/>
<text text-anchor="middle" x="419.84" y="-155.24" font-family="Times,serif" font-size="14.00">{c1, c3}</text>
</g>
<!-- 3&#45;&gt;4 -->
<g id="edge51" class="edge">
<title>3&#45;&gt;4</title>
<path fill="none" stroke="black" d="M1001.11,-200.77C891.15,-197.93 484.85,-186.14 466.34,-166.44 434.55,-132.61 517.23,-121.62 568.38,-118.09"/>
<polygon fill="black" stroke="black" points="568.69,-121.57 578.45,-117.46 568.26,-114.59 568.69,-121.57"/>
<text text-anchor="middle" x="479.84" y="-155.24" font-family="Times,serif" font-size="14.00">{c1}</text>
</g>
<!-- 3&#45;&gt;4 -->
<g id="edge52" class="edge">
<title>3&#45;&gt;4</title>
<path fill="none" stroke="black" d="M1001.09,-201.69C899.86,-202.36 549.6,-202.05 516.34,-166.44 496.83,-145.55 537.24,-131.13 569.81,-123.32"/>
<polygon fill="black" stroke="black" points="570.61,-126.73 579.59,-121.11 569.07,-119.9 570.61,-126.73"/>
<text text-anchor="middle" x="549.84" y="-155.24" font-family="Times,serif" font-size="14.00">{c0, c1, c3}</text>
</g>
<!-- 3&#45;&gt;4 -->
<g id="edge54" class="edge">
<title>3&#45;&gt;4</title>
<path fill="none" stroke="black" d="M1001.11,-201.25C912.01,-200.34 633.36,-195.21 606.34,-166.44 600.66,-160.39 599.08,-151.88 599.33,-143.6"/>
<polygon fill="black" stroke="black" points="602.84,-143.75 600.46,-133.42 595.88,-142.98 602.84,-143.75"/>
<text text-anchor="middle" x="639.84" y="-155.24" font-family="Times,serif" font-size="14.00">{c0, c1, c2}</text>
</g>
<!-- 3&#45;&gt;4 -->
<g id="edge55" class="edge">
<title>3&#45;&gt;4</title>
<path fill="none" stroke="black" d="M1001.48,-200.23C932.85,-196.89 752.52,-186.41 696.34,-166.44 684.84,-162.35 683.89,-157.57 673.34,-151.44 661.29,-144.44 647.7,-137.29 635.84,-131.3"/>
<polygon fill="black" stroke="black" points="637.29,-128.11 626.78,-126.77 634.16,-134.37 637.29,-128.11"/>
<text text-anchor="middle" x="719.84" y="-155.24" font-family="Times,serif" font-size="14.00">{c1, c2}</text>
</g>
<!-- 3&#45;&gt;4 -->
<g id="edge56" class="edge">
<title>3&#45;&gt;4</title>
<path fill="none" stroke="black" d="M1000.99,-201.71C952.26,-201.34 847.87,-196.69 766.34,-166.44 754.9,-162.19 754.52,-156.34 743.34,-151.44 710.17,-136.9 669.77,-127.54 641.28,-122.19"/>
<polygon fill="black" stroke="black" points="641.82,-118.73 631.35,-120.4 640.57,-125.62 641.82,-118.73"/>
<text text-anchor="middle" x="799.84" y="-155.24" font-family="Times,serif" font-size="14.00">{c1, c2, c3}</text>
</g>
<!-- 3&#45;&gt;4 -->
<g id="edge57" class="edge">
<title>3&#45;&gt;4</title>
<path fill="none" stroke="black" d="M1001.5,-199.13C966.87,-195.45 905.25,-186.51 856.34,-166.44 845.05,-161.81 844.74,-155.8 833.34,-151.44 769.14,-126.9 688.54,-119.53 642.39,-117.34"/>
<polygon fill="black" stroke="black" points="642.39,-113.84 632.26,-116.92 642.1,-120.83 642.39,-113.84"/>
<text text-anchor="middle" x="900.34" y="-155.24" font-family="Times,serif" font-size="14.00">{c0, c1, c2, c3}</text>
</g>
<!-- 3&#45;&gt;4 -->
<g id="edge58" class="edge">
<title>3&#45;&gt;4</title>
<path fill="none" stroke="black" d="M1008.12,-190.22C996.16,-183.49 980.77,-174.66 967.34,-166.44 956.93,-160.07 955.84,-155.51 944.34,-151.44 889.41,-131.98 718.3,-121.75 642.32,-118.06"/>
<polygon fill="black" stroke="black" points="642.41,-114.56 632.26,-117.58 642.08,-121.55 642.41,-114.56"/>
<text text-anchor="middle" x="990.84" y="-155.24" font-family="Times,serif" font-size="14.00">{c0, c1}</text>
</g>
<!-- 4&#45;&gt;2 -->
<g id="edge43" class="edge">
<title>4&#45;&gt;2</title>
<path fill="none" stroke="black" d="M613.38,-98.19C620.14,-86.48 631,-71.55 645.34,-64.44 717.23,-28.78 1288.57,-61.74 1367.34,-46.44 1375.67,-44.82 1384.4,-42.09 1392.41,-39.13"/>
<polygon fill="black" stroke="black" points="1393.73,-42.37 1401.76,-35.46 1391.17,-35.86 1393.73,-42.37"/>
<text text-anchor="middle" x="668.84" y="-68.24" font-family="Times,serif" font-size="14.00">{c1, c2}</text>
</g>
<!-- 4&#45;&gt;2 -->
<g id="edge44" class="edge">
<title>4&#45;&gt;2</title>
<path fill="none" stroke="black" d="M628.79,-106.42C646.62,-99.99 671.55,-90.27 692.34,-79.44 703.16,-73.8 703.69,-68.08 715.34,-64.44 853.69,-21.22 1225.09,-74.27 1367.34,-46.44 1375.67,-44.81 1384.39,-42.08 1392.41,-39.12"/>
<polygon fill="black" stroke="black" points="1393.72,-42.36 1401.75,-35.45 1391.17,-35.84 1393.72,-42.36"/>
<text text-anchor="middle" x="738.84" y="-68.24" font-family="Times,serif" font-size="14.00">{c2, c3}</text>
</g>
<!-- 4&#45;&gt;2 -->
<g id="edge45" class="edge">
<title>4&#45;&gt;2</title>
<path fill="none" stroke="black" d="M631.78,-111.48C663.71,-107.25 718.59,-97.87 762.34,-79.44 773.59,-74.7 773.7,-68.1 785.34,-64.44 908.79,-25.66 1240.39,-71.49 1367.34,-46.44 1375.67,-44.8 1384.39,-42.06 1392.4,-39.1"/>
<polygon fill="black" stroke="black" points="1393.72,-42.34 1401.75,-35.43 1391.16,-35.82 1393.72,-42.34"/>
<text text-anchor="middle" x="798.84" y="-68.24" font-family="Times,serif" font-size="14.00">{c3}</text>
</g>
<!-- 4&#45;&gt;2 -->
<g id="edge46" class="edge">
<title>4&#45;&gt;2</title>
<path fill="none" stroke="black" d="M632.41,-113.37C672.86,-111.01 750.9,-103.46 812.34,-79.44 823.71,-74.99 823.7,-68.11 835.34,-64.44 948.14,-28.82 1251.32,-69.51 1367.34,-46.44 1375.67,-44.78 1384.39,-42.04 1392.4,-39.08"/>
<polygon fill="black" stroke="black" points="1393.72,-42.32 1401.75,-35.41 1391.16,-35.81 1393.72,-42.32"/>
<text text-anchor="middle" x="848.84" y="-68.24" font-family="Times,serif" font-size="14.00">{c2}</text>
</g>
<!-- 4&#45;&gt;2 -->
<g id="edge47" class="edge">
<title>4&#45;&gt;2</title>
<path fill="none" stroke="black" d="M632.55,-114.61C680.51,-114.07 782.59,-109.15 862.34,-79.44 873.78,-75.18 873.71,-68.13 885.34,-64.44 987.49,-31.98 1262.25,-67.53 1367.34,-46.44 1375.66,-44.77 1384.38,-42.02 1392.39,-39.06"/>
<polygon fill="black" stroke="black" points="1393.71,-42.3 1401.74,-35.39 1391.16,-35.79 1393.71,-42.3"/>
<text text-anchor="middle" x="898.84" y="-68.24" font-family="Times,serif" font-size="14.00">{c1}</text>
</g>
<!-- 4&#45;&gt;2 -->
<g id="edge48" class="edge">
<title>4&#45;&gt;2</title>
<path fill="none" stroke="black" d="M632.3,-112.96C697.28,-109.14 860.99,-97.93 912.34,-79.44 923.82,-75.3 923.72,-68.16 935.34,-64.44 1026.85,-35.15 1273.18,-65.55 1367.34,-46.44 1375.66,-44.75 1384.38,-42 1392.39,-39.03"/>
<polygon fill="black" stroke="black" points="1393.71,-42.28 1401.74,-35.37 1391.15,-35.76 1393.71,-42.28"/>
<text text-anchor="middle" x="968.84" y="-68.24" font-family="Times,serif" font-size="14.00">{c1, c2, c3}</text>
</g>
<!-- 4&#45;&gt;2 -->
<g id="edge49" class="edge">
<title>4&#45;&gt;2</title>
<path fill="none" stroke="black" d="M632.26,-113.76C709.99,-111.54 933.6,-103.21 1002.34,-79.44 1013.87,-75.45 1013.74,-68.22 1025.34,-64.44 1097.69,-40.84 1292.84,-61.98 1367.34,-46.44 1375.65,-44.71 1384.36,-41.94 1392.38,-38.97"/>
<polygon fill="black" stroke="black" points="1393.69,-42.22 1401.73,-35.31 1391.14,-35.7 1393.69,-42.22"/>
<text text-anchor="middle" x="1048.84" y="-68.24" font-family="Times,serif" font-size="14.00">{c1, c3}</text>
</g>
<!-- 4&#45;&gt;4 -->
<g id="edge39" class="edge">
<title>4&#45;&gt;4</title>
<path fill="none" stroke="black" d="M629.87,-123.19C640.85,-123.93 650.34,-121.35 650.34,-115.44 650.34,-111.47 646.06,-109 639.91,-108.03"/>
<polygon fill="black" stroke="black" points="639.99,-104.53 629.87,-107.69 639.75,-111.53 639.99,-104.53"/>
<text text-anchor="middle" x="657.34" y="-111.74" font-family="Times,serif" font-size="14.00">{}</text>
</g>
<!-- 5 -->
<g id="node7" class="node">
<title>5</title>
<ellipse fill="none" stroke="black" cx="288.34" cy="-24.44" rx="18" ry="18"/>
<ellipse fill="none" stroke="black" cx="288.34" cy="-24.44" rx="22" ry="22"/>
<text text-anchor="middle" x="288.34" y="-20.74" font-family="Times,serif" font-size="14.00">5</text>
</g>
<!-- 4&#45;&gt;5 -->
<g id="edge34" class="edge">
<title>4&#45;&gt;5</title>
<path fill="none" stroke="black" d="M578.18,-113.88C463.56,-111.41 24.29,-100.58 4.34,-79.44 -31.14,-41.84 174.38,-29.78 256.01,-26.51"/>
<polygon fill="black" stroke="black" points="256.37,-30 266.23,-26.12 256.1,-23.01 256.37,-30"/>
<text text-anchor="middle" x="27.84" y="-68.24" font-family="Times,serif" font-size="14.00">{c0, c1}</text>
</g>
<!-- 4&#45;&gt;5 -->
<g id="edge35" class="edge">
<title>4&#45;&gt;5</title>
<path fill="none" stroke="black" d="M578.15,-114.76C474.6,-115.72 108.99,-116.45 74.34,-79.44 69.78,-74.57 70.07,-69.56 74.34,-64.44 97.13,-37.12 202.32,-28.89 256.25,-26.45"/>
<polygon fill="black" stroke="black" points="256.47,-29.94 266.32,-26.03 256.18,-22.95 256.47,-29.94"/>
<text text-anchor="middle" x="107.84" y="-68.24" font-family="Times,serif" font-size="14.00">{c0, c1, c2}</text>
</g>
<!-- 4&#45;&gt;5 -->
<g id="edge36" class="edge">
<title>4&#45;&gt;5</title>
<path fill="none" stroke="black" d="M578.15,-114.37C486.41,-113.87 192.45,-109.87 164.34,-79.44 135.29,-48 210.5,-33.95 256.2,-28.47"/>
<polygon fill="black" stroke="black" points="256.74,-31.93 266.28,-27.34 255.96,-24.98 256.74,-31.93"/>
<text text-anchor="middle" x="197.84" y="-68.24" font-family="Times,serif" font-size="14.00">{c0, c2, c3}</text>
</g>
<!-- 4&#45;&gt;5 -->
<g id="edge37" class="edge">
<title>4&#45;&gt;5</title>
<path fill="none" stroke="black" d="M578.35,-113.79C499.88,-111.62 275.99,-103.36 254.34,-79.44 245.04,-69.16 252.95,-56.03 263.47,-45.29"/>
<polygon fill="black" stroke="black" points="266.05,-47.67 271,-38.3 261.29,-42.54 266.05,-47.67"/>
<text text-anchor="middle" x="267.84" y="-68.24" font-family="Times,serif" font-size="14.00">{c0}</text>
</g>
<!-- 4&#45;&gt;5 -->
<g id="edge38" class="edge">
<title>4&#45;&gt;5</title>
<path fill="none" stroke="black" d="M578.21,-114.97C512.16,-115.7 345.41,-113.98 304.34,-79.44 297.51,-73.69 293.52,-65.18 291.2,-56.6"/>
<polygon fill="black" stroke="black" points="294.61,-55.77 289.19,-46.67 287.75,-57.16 294.61,-55.77"/>
<text text-anchor="middle" x="327.84" y="-68.24" font-family="Times,serif" font-size="14.00">{c0, c2}</text>
</g>
<!-- 4&#45;&gt;5 -->
<g id="edge40" class="edge">
<title>4&#45;&gt;5</title>
<path fill="none" stroke="black" d="M578.07,-114.02C533.87,-112.54 444.46,-106.16 374.34,-79.44 362.94,-75.09 361.64,-70.98 351.34,-64.44 339.72,-57.05 326.8,-49.03 315.71,-42.19"/>
<polygon fill="black" stroke="black" points="317.23,-39.02 306.88,-36.76 313.57,-44.98 317.23,-39.02"/>
<text text-anchor="middle" x="418.34" y="-68.24" font-family="Times,serif" font-size="14.00">{c0, c1, c2, c3}</text>
</g>
<!-- 4&#45;&gt;5 -->
<g id="edge41" class="edge">
<title>4&#45;&gt;5</title>
<path fill="none" stroke="black" d="M579.74,-109.27C554.9,-103.73 516.49,-93.76 485.34,-79.44 474.25,-74.34 473.58,-69.18 462.34,-64.44 415.16,-44.54 356.32,-34.07 320.57,-29.16"/>
<polygon fill="black" stroke="black" points="320.63,-25.64 310.26,-27.81 319.72,-32.58 320.63,-25.64"/>
<text text-anchor="middle" x="508.84" y="-68.24" font-family="Times,serif" font-size="14.00">{c0, c3}</text>
</g>
<!-- 4&#45;&gt;5 -->
<g id="edge42" class="edge">
<title>4&#45;&gt;5</title>
<path fill="none" stroke="black" d="M587.19,-101.71C566.57,-87.3 535.37,-65.65 532.34,-64.44 460.29,-35.7 368.29,-28.1 320.47,-26.12"/>
<polygon fill="black" stroke="black" points="320.52,-22.62 310.4,-25.76 320.27,-29.61 320.52,-22.62"/>
<text text-anchor="middle" x="587.84" y="-68.24" font-family="Times,serif" font-size="14.00">{c0, c1, c3}</text>
</g>
<!-- 5&#45;&gt;5 -->
<g id="edge2" class="edge">
<title>5&#45;&gt;5</title>
<path fill="none" stroke="black" d="M310.55,-25.92C320.14,-26.04 328.34,-25.55 328.34,-24.44 328.34,-23.76 325.29,-23.32 320.74,-23.1"/>
<polygon fill="black" stroke="black" points="320.6,-19.59 310.55,-22.96 320.5,-26.59 320.6,-19.59"/>
<text text-anchor="middle" x="361.84" y="-20.74" font-family="Times,serif" font-size="14.00">{c0, c1, c3}</text>
</g>
<!-- 5&#45;&gt;5 -->
<g id="edge3" class="edge">
<title>5&#45;&gt;5</title>
<path fill="none" stroke="black" d="M310.69,-26.57C343.43,-28.23 395.34,-27.52 395.34,-24.44 395.34,-21.66 353.07,-20.81 320.76,-21.89"/>
<polygon fill="black" stroke="black" points="320.53,-18.4 310.69,-22.31 320.82,-25.39 320.53,-18.4"/>
<text text-anchor="middle" x="408.84" y="-20.74" font-family="Times,serif" font-size="14.00">{c0}</text>
</g>
<!-- 5&#45;&gt;5 -->
<g id="edge4" class="edge">
<title>5&#45;&gt;5</title>
<path fill="none" stroke="black" d="M310.41,-27.2C350.95,-30.22 422.34,-29.3 422.34,-24.44 422.34,-19.96 361.67,-18.82 320.42,-21.04"/>
<polygon fill="black" stroke="black" points="320.16,-17.55 310.41,-21.67 320.61,-24.53 320.16,-17.55"/>
<text text-anchor="middle" x="445.84" y="-20.74" font-family="Times,serif" font-size="14.00">{c2, c3}</text>
</g>
<!-- 5&#45;&gt;5 -->
<g id="edge5" class="edge">
<title>5&#45;&gt;5</title>
<path fill="none" stroke="black" d="M310.31,-27.57C362.3,-32.25 469.34,-31.2 469.34,-24.44 469.34,-18.08 374.87,-16.78 320.32,-20.52"/>
<polygon fill="black" stroke="black" points="320.01,-17.03 310.31,-21.31 320.55,-24.01 320.01,-17.03"/>
<text text-anchor="middle" x="492.84" y="-20.74" font-family="Times,serif" font-size="14.00">{c0, c1}</text>
</g>
<!-- 5&#45;&gt;5 -->
<g id="edge6" class="edge">
<title>5&#45;&gt;5</title>
<path fill="none" stroke="black" d="M310.1,-27.85C372.31,-34.27 516.34,-33.13 516.34,-24.44 516.34,-16.19 386.57,-14.75 320.18,-20.11"/>
<polygon fill="black" stroke="black" points="319.74,-16.63 310.1,-21.03 320.38,-23.6 319.74,-16.63"/>
<text text-anchor="middle" x="529.84" y="-20.74" font-family="Times,serif" font-size="14.00">{c3}</text>
</g>
<!-- 5&#45;&gt;5 -->
<g id="edge7" class="edge">
<title>5&#45;&gt;5</title>
<path fill="none" stroke="black" d="M310.35,-28.22C379.11,-36.27 543.34,-35.01 543.34,-24.44 543.34,-14.36 394.14,-12.75 320.62,-19.59"/>
<polygon fill="black" stroke="black" points="319.94,-16.14 310.35,-20.66 320.66,-23.1 319.94,-16.14"/>
<text text-anchor="middle" x="576.84" y="-20.74" font-family="Times,serif" font-size="14.00">{c1, c2, c3}</text>
</g>
<!-- 5&#45;&gt;5 -->
<g id="edge8" class="edge">
<title>5&#45;&gt;5</title>
<path fill="none" stroke="black" d="M310.03,-28.3C390.72,-38.29 610.34,-37 610.34,-24.44 610.34,-12.37 407.55,-10.7 320.1,-19.45"/>
<polygon fill="black" stroke="black" points="319.58,-15.99 310.03,-20.57 320.35,-22.95 319.58,-15.99"/>
<text text-anchor="middle" x="654.34" y="-20.74" font-family="Times,serif" font-size="14.00">{c0, c1, c2, c3}</text>
</g>
<!-- 5&#45;&gt;5 -->
<g id="edge9" class="edge">
<title>5&#45;&gt;5</title>
<path fill="none" stroke="black" d="M310.03,-28.36C404.54,-40.31 698.34,-39 698.34,-24.44 698.34,-10.36 423.73,-8.67 320.08,-19.37"/>
<polygon fill="black" stroke="black" points="319.57,-15.9 310.03,-20.51 320.36,-22.86 319.57,-15.9"/>
<text text-anchor="middle" x="731.84" y="-20.74" font-family="Times,serif" font-size="14.00">{c0, c1, c2}</text>
</g>
<!-- 5&#45;&gt;5 -->
<g id="edge10" class="edge">
<title>5&#45;&gt;5</title>
<path fill="none" stroke="black" d="M310.16,-28.51C415.07,-42.32 765.34,-40.96 765.34,-24.44 765.34,-8.42 435.96,-6.66 320.35,-19.16"/>
<polygon fill="black" stroke="black" points="319.68,-15.71 310.16,-20.37 320.51,-22.67 319.68,-15.71"/>
<text text-anchor="middle" x="798.84" y="-20.74" font-family="Times,serif" font-size="14.00">{c0, c2, c3}</text>
</g>
<!-- 5&#45;&gt;5 -->
<g id="edge11" class="edge">
<title>5&#45;&gt;5</title>
<path fill="none" stroke="black" d="M310.1,-28.61C424.66,-44.33 832.34,-42.93 832.34,-24.44 832.34,-6.45 446.65,-4.64 320.14,-19.02"/>
<polygon fill="black" stroke="black" points="319.59,-15.56 310.1,-20.27 320.45,-22.5 319.59,-15.56"/>
<text text-anchor="middle" x="855.84" y="-20.74" font-family="Times,serif" font-size="14.00">{c1, c2}</text>
</g>
<!-- 5&#45;&gt;5 -->
<g id="edge12" class="edge">
<title>5&#45;&gt;5</title>
<path fill="none" stroke="black" d="M310.06,-28.75C431.91,-46.33 879.34,-44.89 879.34,-24.44 879.34,-4.52 455.19,-2.64 320.37,-18.77"/>
<polygon fill="black" stroke="black" points="319.52,-15.35 310.06,-20.12 320.43,-22.29 319.52,-15.35"/>
<text text-anchor="middle" x="902.84" y="-20.74" font-family="Times,serif" font-size="14.00">{c1, c3}</text>
</g>
<!-- 5&#45;&gt;5 -->
<g id="edge13" class="edge">
<title>5&#45;&gt;5</title>
<path fill="none" stroke="black" d="M310.18,-28.9C439.41,-48.33 926.34,-46.85 926.34,-24.44 926.34,-2.58 462.89,-0.63 320.27,-18.59"/>
<polygon fill="black" stroke="black" points="319.61,-15.15 310.18,-19.98 320.57,-22.08 319.61,-15.15"/>
<text text-anchor="middle" x="949.84" y="-20.74" font-family="Times,serif" font-size="14.00">{c0, c2}</text>
</g>
<!-- 5&#45;&gt;5 -->
<g id="edge14" class="edge">
<title>5&#45;&gt;5</title>
<path fill="none" stroke="black" d="M310.1,-29.01C446.29,-50.34 973.34,-48.81 973.34,-24.44 973.34,-0.64 470.71,1.38 320.3,-18.41"/>
<polygon fill="black" stroke="black" points="319.5,-14.99 310.1,-19.87 320.49,-21.92 319.5,-14.99"/>
<text text-anchor="middle" x="996.84" y="-20.74" font-family="Times,serif" font-size="14.00">{c0, c3}</text>
</g>
<!-- 5&#45;&gt;5 -->
<g id="edge15" class="edge">
<title>5&#45;&gt;5</title>
<path fill="none" stroke="black" d="M310.26,-29.14C453.73,-52.34 1020.34,-50.77 1020.34,-24.44 1020.34,1.3 478.9,3.38 320.56,-18.21"/>
<polygon fill="black" stroke="black" points="319.64,-14.81 310.26,-19.73 320.66,-21.73 319.64,-14.81"/>
<text text-anchor="middle" x="1033.84" y="-20.74" font-family="Times,serif" font-size="14.00">{c2}</text>
</g>
<!-- 5&#45;&gt;5 -->
<g id="edge16" class="edge">
<title>5&#45;&gt;5</title>
<path fill="none" stroke="black" d="M310.09,-29.25C458.51,-54.34 1047.34,-52.74 1047.34,-24.44 1047.34,3.25 483.53,5.38 320.25,-18.05"/>
<polygon fill="black" stroke="black" points="319.43,-14.64 310.09,-19.63 320.51,-21.55 319.43,-14.64"/>
<text text-anchor="middle" x="1060.84" y="-20.74" font-family="Times,serif" font-size="14.00">{c1}</text>
</g>
<!-- 5&#45;&gt;5 -->
<g id="edge17" class="edge">
<title>5&#45;&gt;5</title>
<path fill="none" stroke="black" d="M309.81,-29.32C463.04,-56.35 1074.34,-54.72 1074.34,-24.44 1074.34,5.22 487.85,7.39 319.8,-17.93"/>
<polygon fill="black" stroke="black" points="319.12,-14.5 309.81,-19.56 320.24,-21.41 319.12,-14.5"/>
<text text-anchor="middle" x="1081.34" y="-20.74" font-family="Times,serif" font-size="14.00">{}</text>
</g>
</g>
</svg>
