<?xml version="1.0" encoding="UTF-8" standalone="no"?>
<!DOCTYPE svg PUBLIC "-//W3C//DTD SVG 1.1//EN"
 "http://www.w3.org/Graphics/SVG/1.1/DTD/svg11.dtd">
<!-- Generated by graphviz version 2.43.0 (0)
 -->
<!-- Title: %3 Pages: 1 -->
<svg width="1069pt" height="386pt"
 viewBox="0.00 0.00 1069.45 386.00" xmlns="http://www.w3.org/2000/svg" xmlns:xlink="http://www.w3.org/1999/xlink">
<g id="graph0" class="graph" transform="scale(1 1) rotate(0) translate(4 382)">
<title>%3</title>
<polygon fill="white" stroke="transparent" points="-4,4 -4,-382 1065.45,-382 1065.45,4 -4,4"/>
<!-- fake -->
<g id="node1" class="node">
<title>fake</title>
</g>
<!-- 0 -->
<g id="node2" class="node">
<title>0</title>
<ellipse fill="none" stroke="black" cx="576.45" cy="-287" rx="27" ry="18"/>
<text text-anchor="middle" x="576.45" y="-283.3" font-family="Times,serif" font-size="14.00">0</text>
</g>
<!-- fake&#45;&gt;0 -->
<g id="edge1" class="edge">
<title>fake&#45;&gt;0</title>
<path fill="none" stroke="black" stroke-width="2" d="M576.45,-341.81C576.45,-333.79 576.45,-324.05 576.45,-315.07"/>
<polygon fill="black" stroke="black" stroke-width="2" points="579.95,-315.03 576.45,-305.03 572.95,-315.03 579.95,-315.03"/>
</g>
<!-- 0&#45;&gt;0 -->
<g id="edge6" class="edge">
<title>0&#45;&gt;0</title>
<path fill="none" stroke="black" d="M601.89,-293.69C612.48,-294.15 621.45,-291.92 621.45,-287 621.45,-283.77 617.58,-281.7 611.94,-280.79"/>
<polygon fill="black" stroke="black" points="612.05,-277.29 601.89,-280.31 611.71,-284.28 612.05,-277.29"/>
<text text-anchor="middle" x="628.45" y="-283.3" font-family="Times,serif" font-size="14.00">{}</text>
</g>
<!-- 1 -->
<g id="node3" class="node">
<title>1</title>
<ellipse fill="none" stroke="black" cx="443.45" cy="-200" rx="27" ry="18"/>
<text text-anchor="middle" x="443.45" y="-196.3" font-family="Times,serif" font-size="14.00">1</text>
</g>
<!-- 0&#45;&gt;1 -->
<g id="edge2" class="edge">
<title>0&#45;&gt;1</title>
<path fill="none" stroke="black" d="M549.27,-285.62C498.08,-284.26 390.45,-278.17 367.45,-251 351.91,-232.64 381.76,-218.43 408.49,-209.93"/>
<polygon fill="black" stroke="black" points="409.52,-213.27 418.11,-207.06 407.52,-206.56 409.52,-213.27"/>
<text text-anchor="middle" x="400.95" y="-239.8" font-family="Times,serif" font-size="14.00">{c0, c1, c2}</text>
</g>
<!-- 0&#45;&gt;1 -->
<g id="edge3" class="edge">
<title>0&#45;&gt;1</title>
<path fill="none" stroke="black" d="M549.51,-285.31C522.59,-283.16 481.8,-275.68 457.45,-251 451.48,-244.96 448.01,-236.59 446.01,-228.42"/>
<polygon fill="black" stroke="black" points="449.41,-227.6 444.18,-218.39 442.53,-228.85 449.41,-227.6"/>
<text text-anchor="middle" x="470.95" y="-239.8" font-family="Times,serif" font-size="14.00">{c0}</text>
</g>
<!-- 0&#45;&gt;1 -->
<g id="edge4" class="edge">
<title>0&#45;&gt;1</title>
<path fill="none" stroke="black" d="M554.72,-276.31C540.83,-269.79 522.64,-260.66 507.45,-251 493.57,-242.17 479.04,-231.01 467.35,-221.46"/>
<polygon fill="black" stroke="black" points="469.31,-218.55 459.38,-214.86 464.85,-223.94 469.31,-218.55"/>
<text text-anchor="middle" x="530.95" y="-239.8" font-family="Times,serif" font-size="14.00">{c0, c2}</text>
</g>
<!-- 0&#45;&gt;1 -->
<g id="edge5" class="edge">
<title>0&#45;&gt;1</title>
<path fill="none" stroke="black" d="M572.81,-269.02C569.66,-258.18 564.05,-244.61 554.45,-236 534,-217.67 503.99,-208.94 480.32,-204.78"/>
<polygon fill="black" stroke="black" points="480.7,-201.3 470.28,-203.22 479.63,-208.21 480.7,-201.3"/>
<text text-anchor="middle" x="587.95" y="-239.8" font-family="Times,serif" font-size="14.00">{c0, c1}</text>
</g>
<!-- 2 -->
<g id="node4" class="node">
<title>2</title>
<ellipse fill="none" stroke="black" cx="587.45" cy="-22" rx="27" ry="18"/>
<text text-anchor="middle" x="587.45" y="-18.3" font-family="Times,serif" font-size="14.00">2</text>
</g>
<!-- 0&#45;&gt;2 -->
<g id="edge7" class="edge">
<title>0&#45;&gt;2</title>
<path fill="none" stroke="black" d="M595.64,-274.07C603.31,-268.17 611.3,-260.31 615.45,-251 645.9,-182.75 616.76,-92.24 598.96,-48.64"/>
<polygon fill="black" stroke="black" points="602.15,-47.19 595.04,-39.33 595.7,-49.91 602.15,-47.19"/>
<text text-anchor="middle" x="640.95" y="-152.8" font-family="Times,serif" font-size="14.00">{c1}</text>
</g>
<!-- 0&#45;&gt;2 -->
<g id="edge8" class="edge">
<title>0&#45;&gt;2</title>
<path fill="none" stroke="black" d="M598.71,-276.43C609.97,-270.57 623,-262.06 631.45,-251 656.03,-218.83 652.38,-204.03 658.45,-164 665.37,-118.32 632.4,-71.67 609.06,-45.12"/>
<polygon fill="black" stroke="black" points="611.5,-42.6 602.19,-37.56 606.32,-47.31 611.5,-42.6"/>
<text text-anchor="middle" x="681.95" y="-152.8" font-family="Times,serif" font-size="14.00">{c1, c2}</text>
</g>
<!-- 0&#45;&gt;2 -->
<g id="edge9" class="edge">
<title>0&#45;&gt;2</title>
<path fill="none" stroke="black" d="M600.29,-278.19C615.51,-272.38 635.02,-263.33 649.45,-251 685.16,-220.49 695.48,-208.85 709.45,-164 726.81,-108.26 659.15,-61.07 617.65,-38.06"/>
<polygon fill="black" stroke="black" points="619.2,-34.91 608.74,-33.25 615.88,-41.08 619.2,-34.91"/>
<text text-anchor="middle" x="724.95" y="-152.8" font-family="Times,serif" font-size="14.00">{c2}</text>
</g>
<!-- 1&#45;&gt;1 -->
<g id="edge21" class="edge">
<title>1&#45;&gt;1</title>
<path fill="none" stroke="black" d="M467.98,-207.75C478.96,-208.49 488.45,-205.91 488.45,-200 488.45,-196.03 484.16,-193.56 478.02,-192.59"/>
<polygon fill="black" stroke="black" points="478.1,-189.09 467.98,-192.25 477.85,-196.09 478.1,-189.09"/>
<text text-anchor="middle" x="495.45" y="-196.3" font-family="Times,serif" font-size="14.00">{}</text>
</g>
<!-- 1&#45;&gt;2 -->
<g id="edge23" class="edge">
<title>1&#45;&gt;2</title>
<path fill="none" stroke="black" d="M441.47,-181.97C439.82,-160.01 440.02,-121.48 457.45,-95 483.58,-55.3 509.29,-65.96 551.45,-44 554.04,-42.65 556.7,-41.21 559.35,-39.73"/>
<polygon fill="black" stroke="black" points="561.26,-42.68 568.21,-34.68 557.79,-36.6 561.26,-42.68"/>
<text text-anchor="middle" x="480.95" y="-109.3" font-family="Times,serif" font-size="14.00">{c0, c2}</text>
</g>
<!-- 1&#45;&gt;2 -->
<g id="edge24" class="edge">
<title>1&#45;&gt;2</title>
<path fill="none" stroke="black" d="M457.11,-184.43C469.69,-170.85 488.74,-149.91 504.45,-131 527.93,-102.74 553.48,-69 569.94,-46.84"/>
<polygon fill="black" stroke="black" points="572.85,-48.79 575.99,-38.67 567.23,-44.63 572.85,-48.79"/>
<text text-anchor="middle" x="545.95" y="-109.3" font-family="Times,serif" font-size="14.00">{c0}</text>
</g>
<!-- 1&#45;&gt;2 -->
<g id="edge25" class="edge">
<title>1&#45;&gt;2</title>
<path fill="none" stroke="black" d="M467.76,-191.88C495.32,-182.52 539.52,-163.34 563.45,-131 580.88,-107.43 586.06,-73.58 587.4,-50.08"/>
<polygon fill="black" stroke="black" points="590.9,-50.21 587.77,-40.09 583.9,-49.95 590.9,-50.21"/>
<text text-anchor="middle" x="592.95" y="-109.3" font-family="Times,serif" font-size="14.00">{c2}</text>
</g>
<!-- 3 -->
<g id="node5" class="node">
<title>3</title>
<ellipse fill="none" stroke="black" cx="221.45" cy="-113" rx="27" ry="18"/>
<text text-anchor="middle" x="221.45" y="-109.3" font-family="Times,serif" font-size="14.00">3</text>
</g>
<!-- 1&#45;&gt;3 -->
<g id="edge18" class="edge">
<title>1&#45;&gt;3</title>
<path fill="none" stroke="black" d="M416.42,-197.5C351.03,-193.61 188.42,-182.17 172.45,-164 161.75,-151.83 175.48,-138.78 191.1,-129.06"/>
<polygon fill="black" stroke="black" points="192.91,-132.06 199.83,-124.03 189.42,-125.99 192.91,-132.06"/>
<text text-anchor="middle" x="185.95" y="-152.8" font-family="Times,serif" font-size="14.00">{c1}</text>
</g>
<!-- 1&#45;&gt;3 -->
<g id="edge19" class="edge">
<title>1&#45;&gt;3</title>
<path fill="none" stroke="black" d="M416.43,-198.86C363.13,-197.94 247.4,-192.63 222.45,-164 216.99,-157.74 215.47,-149.18 215.71,-140.91"/>
<polygon fill="black" stroke="black" points="219.21,-141.11 216.79,-130.79 212.25,-140.37 219.21,-141.11"/>
<text text-anchor="middle" x="245.95" y="-152.8" font-family="Times,serif" font-size="14.00">{c0, c1}</text>
</g>
<!-- 1&#45;&gt;3 -->
<g id="edge20" class="edge">
<title>1&#45;&gt;3</title>
<path fill="none" stroke="black" d="M417.09,-196.02C386.16,-191.82 333.84,-182.52 292.45,-164 287.51,-161.79 265.8,-146.34 247.67,-133.2"/>
<polygon fill="black" stroke="black" points="249.29,-130.05 239.14,-127 245.17,-135.71 249.29,-130.05"/>
<text text-anchor="middle" x="325.95" y="-152.8" font-family="Times,serif" font-size="14.00">{c0, c1, c2}</text>
</g>
<!-- 1&#45;&gt;3 -->
<g id="edge22" class="edge">
<title>1&#45;&gt;3</title>
<path fill="none" stroke="black" d="M423.22,-187.78C411.27,-181.05 395.88,-172.22 382.45,-164 372.04,-157.63 370.63,-153.9 359.45,-149 326.28,-134.46 285.88,-125.1 257.39,-119.75"/>
<polygon fill="black" stroke="black" points="257.93,-116.29 247.46,-117.96 256.68,-123.18 257.93,-116.29"/>
<text text-anchor="middle" x="405.95" y="-152.8" font-family="Times,serif" font-size="14.00">{c1, c2}</text>
</g>
<!-- 2&#45;&gt;2 -->
<g id="edge34" class="edge">
<title>2&#45;&gt;2</title>
<path fill="none" stroke="black" d="M614.69,-23.5C624.47,-23.53 632.45,-23.03 632.45,-22 632.45,-21.37 629.49,-20.94 624.96,-20.71"/>
<polygon fill="black" stroke="black" points="624.76,-17.2 614.69,-20.5 624.62,-24.2 624.76,-17.2"/>
<text text-anchor="middle" x="645.95" y="-18.3" font-family="Times,serif" font-size="14.00">{c1}</text>
</g>
<!-- 2&#45;&gt;2 -->
<g id="edge35" class="edge">
<title>2&#45;&gt;2</title>
<path fill="none" stroke="black" d="M614.2,-24.61C635.89,-25.59 659.45,-24.72 659.45,-22 659.45,-19.71 642.68,-18.73 624.41,-19.06"/>
<polygon fill="black" stroke="black" points="624.08,-15.57 614.2,-19.39 624.31,-22.57 624.08,-15.57"/>
<text text-anchor="middle" x="682.95" y="-18.3" font-family="Times,serif" font-size="14.00">{c0, c2}</text>
</g>
<!-- 2&#45;&gt;2 -->
<g id="edge36" class="edge">
<title>2&#45;&gt;2</title>
<path fill="none" stroke="black" d="M614.27,-25.17C651.69,-27.69 706.45,-26.63 706.45,-22 706.45,-17.77 660.7,-16.52 624.25,-18.26"/>
<polygon fill="black" stroke="black" points="624.05,-14.76 614.27,-18.83 624.45,-21.75 624.05,-14.76"/>
<text text-anchor="middle" x="729.95" y="-18.3" font-family="Times,serif" font-size="14.00">{c1, c2}</text>
</g>
<!-- 2&#45;&gt;2 -->
<g id="edge37" class="edge">
<title>2&#45;&gt;2</title>
<path fill="none" stroke="black" d="M613.93,-25.57C664.38,-29.74 753.45,-28.55 753.45,-22 753.45,-15.88 675.49,-14.44 624.13,-17.69"/>
<polygon fill="black" stroke="black" points="623.65,-14.22 613.93,-18.43 624.16,-21.2 623.65,-14.22"/>
<text text-anchor="middle" x="776.95" y="-18.3" font-family="Times,serif" font-size="14.00">{c0, c1}</text>
</g>
<!-- 2&#45;&gt;2 -->
<g id="edge38" class="edge">
<title>2&#45;&gt;2</title>
<path fill="none" stroke="black" d="M614.01,-25.91C676,-31.76 800.45,-30.46 800.45,-22 800.45,-13.99 688.78,-12.4 624.31,-17.22"/>
<polygon fill="black" stroke="black" points="623.68,-13.76 614.01,-18.09 624.27,-20.74 623.68,-13.76"/>
<text text-anchor="middle" x="813.95" y="-18.3" font-family="Times,serif" font-size="14.00">{c0}</text>
</g>
<!-- 2&#45;&gt;2 -->
<g id="edge39" class="edge">
<title>2&#45;&gt;2</title>
<path fill="none" stroke="black" d="M613.9,-26.3C682.78,-33.77 827.45,-32.34 827.45,-22 827.45,-12.15 696.03,-10.38 624.07,-16.71"/>
<polygon fill="black" stroke="black" points="623.52,-13.25 613.9,-17.7 624.2,-20.21 623.52,-13.25"/>
<text text-anchor="middle" x="840.95" y="-18.3" font-family="Times,serif" font-size="14.00">{c2}</text>
</g>
<!-- 2&#45;&gt;2 -->
<g id="edge40" class="edge">
<title>2&#45;&gt;2</title>
<path fill="none" stroke="black" d="M613.56,-26.59C689.07,-35.78 854.45,-34.25 854.45,-22 854.45,-10.28 702.98,-8.37 623.78,-16.28"/>
<polygon fill="black" stroke="black" points="623.12,-12.83 613.56,-17.41 623.89,-19.79 623.12,-12.83"/>
<text text-anchor="middle" x="887.95" y="-18.3" font-family="Times,serif" font-size="14.00">{c0, c1, c2}</text>
</g>
<!-- 2&#45;&gt;2 -->
<g id="edge41" class="edge">
<title>2&#45;&gt;2</title>
<path fill="none" stroke="black" d="M613.69,-26.71C702.21,-37.81 921.45,-36.23 921.45,-22 921.45,-8.28 717.77,-6.32 623.78,-16.13"/>
<polygon fill="black" stroke="black" points="623.23,-12.68 613.69,-17.29 624.02,-19.63 623.23,-12.68"/>
<text text-anchor="middle" x="928.45" y="-18.3" font-family="Times,serif" font-size="14.00">{}</text>
</g>
<!-- 3&#45;&gt;2 -->
<g id="edge31" class="edge">
<title>3&#45;&gt;2</title>
<path fill="none" stroke="black" d="M234.86,-97.27C246.64,-85.42 264.91,-69.56 284.45,-62 395.38,-19.09 437.74,-78.89 551.45,-44 554.46,-43.07 557.5,-41.86 560.45,-40.47"/>
<polygon fill="black" stroke="black" points="562.35,-43.43 569.52,-35.63 559.05,-37.25 562.35,-43.43"/>
<text text-anchor="middle" x="297.95" y="-65.8" font-family="Times,serif" font-size="14.00">{c1}</text>
</g>
<!-- 3&#45;&gt;2 -->
<g id="edge32" class="edge">
<title>3&#45;&gt;2</title>
<path fill="none" stroke="black" d="M245.34,-104.23C263.82,-97.86 289.82,-88.1 311.45,-77 322.3,-71.43 322.9,-65.96 334.45,-62 425.99,-30.61 459.15,-73.1 551.45,-44 554.46,-43.05 557.48,-41.82 560.44,-40.42"/>
<polygon fill="black" stroke="black" points="562.34,-43.37 569.5,-35.57 559.03,-37.2 562.34,-43.37"/>
<text text-anchor="middle" x="357.95" y="-65.8" font-family="Times,serif" font-size="14.00">{c0, c1}</text>
</g>
<!-- 3&#45;&gt;2 -->
<g id="edge33" class="edge">
<title>3&#45;&gt;2</title>
<path fill="none" stroke="black" d="M248.1,-109.16C280.61,-105.04 336.73,-95.73 381.45,-77 392.71,-72.29 392.98,-66.18 404.45,-62 466.28,-39.44 489.07,-65.01 551.45,-44 554.37,-43.02 557.32,-41.78 560.2,-40.4"/>
<polygon fill="black" stroke="black" points="561.92,-43.44 569.08,-35.64 558.61,-37.27 561.92,-43.44"/>
<text text-anchor="middle" x="417.95" y="-65.8" font-family="Times,serif" font-size="14.00">{c0}</text>
</g>
<!-- 3&#45;&gt;3 -->
<g id="edge27" class="edge">
<title>3&#45;&gt;3</title>
<path fill="none" stroke="black" d="M245.98,-120.75C256.96,-121.49 266.45,-118.91 266.45,-113 266.45,-109.03 262.16,-106.56 256.02,-105.59"/>
<polygon fill="black" stroke="black" points="256.1,-102.09 245.98,-105.25 255.85,-109.09 256.1,-102.09"/>
<text text-anchor="middle" x="273.45" y="-109.3" font-family="Times,serif" font-size="14.00">{}</text>
</g>
<!-- 4 -->
<g id="node6" class="node">
<title>4</title>
<ellipse fill="none" stroke="black" cx="73.45" cy="-22" rx="18" ry="18"/>
<ellipse fill="none" stroke="black" cx="73.45" cy="-22" rx="22" ry="22"/>
<text text-anchor="middle" x="73.45" y="-18.3" font-family="Times,serif" font-size="14.00">4</text>
</g>
<!-- 3&#45;&gt;4 -->
<g id="edge26" class="edge">
<title>3&#45;&gt;4</title>
<path fill="none" stroke="black" d="M194.47,-111.81C141.85,-110.81 28.57,-105.33 4.45,-77 -10.88,-59.01 17.82,-42.96 42.74,-33.13"/>
<polygon fill="black" stroke="black" points="44.21,-36.32 52.36,-29.55 41.77,-29.76 44.21,-36.32"/>
<text text-anchor="middle" x="27.95" y="-65.8" font-family="Times,serif" font-size="14.00">{c1, c2}</text>
</g>
<!-- 3&#45;&gt;4 -->
<g id="edge28" class="edge">
<title>3&#45;&gt;4</title>
<path fill="none" stroke="black" d="M194.82,-109.51C156.66,-105.33 89.34,-95.49 74.45,-77 69.18,-70.46 67.48,-61.88 67.49,-53.5"/>
<polygon fill="black" stroke="black" points="70.98,-53.74 68.23,-43.51 64,-53.23 70.98,-53.74"/>
<text text-anchor="middle" x="107.95" y="-65.8" font-family="Times,serif" font-size="14.00">{c0, c1, c2}</text>
</g>
<!-- 3&#45;&gt;4 -->
<g id="edge29" class="edge">
<title>3&#45;&gt;4</title>
<path fill="none" stroke="black" d="M202.11,-100.3C191.04,-93.56 176.91,-84.89 164.45,-77 154.14,-70.47 151.86,-68.37 141.45,-62 128.41,-54.02 113.71,-45.53 101.33,-38.52"/>
<polygon fill="black" stroke="black" points="102.81,-35.33 92.38,-33.47 99.37,-41.43 102.81,-35.33"/>
<text text-anchor="middle" x="177.95" y="-65.8" font-family="Times,serif" font-size="14.00">{c2}</text>
</g>
<!-- 3&#45;&gt;4 -->
<g id="edge30" class="edge">
<title>3&#45;&gt;4</title>
<path fill="none" stroke="black" d="M215.16,-95.49C210.22,-84.58 202.36,-70.73 191.45,-62 166.42,-41.98 130.71,-32.06 105.14,-27.26"/>
<polygon fill="black" stroke="black" points="105.65,-23.8 95.21,-25.56 104.47,-30.7 105.65,-23.8"/>
<text text-anchor="middle" x="227.95" y="-65.8" font-family="Times,serif" font-size="14.00">{c0, c2}</text>
</g>
<!-- 4&#45;&gt;4 -->
<g id="edge10" class="edge">
<title>4&#45;&gt;4</title>
<path fill="none" stroke="black" d="M95.66,-23.48C105.24,-23.6 113.45,-23.11 113.45,-22 113.45,-21.32 110.4,-20.88 105.85,-20.66"/>
<polygon fill="black" stroke="black" points="105.71,-17.16 95.66,-20.52 105.61,-24.15 105.71,-17.16"/>
<text text-anchor="middle" x="126.95" y="-18.3" font-family="Times,serif" font-size="14.00">{c1}</text>
</g>
<!-- 4&#45;&gt;4 -->
<g id="edge11" class="edge">
<title>4&#45;&gt;4</title>
<path fill="none" stroke="black" d="M95.48,-24.47C116.36,-25.67 140.45,-24.84 140.45,-22 140.45,-19.62 123.61,-18.66 105.89,-19.11"/>
<polygon fill="black" stroke="black" points="105.33,-15.63 95.48,-19.53 105.62,-22.62 105.33,-15.63"/>
<text text-anchor="middle" x="147.45" y="-18.3" font-family="Times,serif" font-size="14.00">{}</text>
</g>
<!-- 4&#45;&gt;4 -->
<g id="edge12" class="edge">
<title>4&#45;&gt;4</title>
<path fill="none" stroke="black" d="M95.28,-25.19C123.12,-27.68 158.45,-26.62 158.45,-22 158.45,-17.92 130.91,-16.62 105.31,-18.08"/>
<polygon fill="black" stroke="black" points="105,-14.59 95.28,-18.81 105.51,-21.57 105,-14.59"/>
<text text-anchor="middle" x="191.95" y="-18.3" font-family="Times,serif" font-size="14.00">{c0, c1, c2}</text>
</g>
<!-- 4&#45;&gt;4 -->
<g id="edge13" class="edge">
<title>4&#45;&gt;4</title>
<path fill="none" stroke="black" d="M95.48,-25.32C141.52,-29.78 225.45,-28.67 225.45,-22 225.45,-15.8 152.91,-14.4 105.71,-17.82"/>
<polygon fill="black" stroke="black" points="105.15,-14.35 95.48,-18.68 105.74,-21.33 105.15,-14.35"/>
<text text-anchor="middle" x="248.95" y="-18.3" font-family="Times,serif" font-size="14.00">{c0, c1}</text>
</g>
<!-- 4&#45;&gt;4 -->
<g id="edge14" class="edge">
<title>4&#45;&gt;4</title>
<path fill="none" stroke="black" d="M95.39,-25.58C152.51,-31.81 272.45,-30.61 272.45,-22 272.45,-13.87 165.71,-12.35 105.67,-17.43"/>
<polygon fill="black" stroke="black" points="105.01,-13.98 95.39,-18.42 105.68,-20.95 105.01,-13.98"/>
<text text-anchor="middle" x="295.95" y="-18.3" font-family="Times,serif" font-size="14.00">{c1, c2}</text>
</g>
<!-- 4&#45;&gt;4 -->
<g id="edge15" class="edge">
<title>4&#45;&gt;4</title>
<path fill="none" stroke="black" d="M95.56,-25.83C162.89,-33.82 319.45,-32.55 319.45,-22 319.45,-11.95 177.23,-10.32 105.59,-17.11"/>
<polygon fill="black" stroke="black" points="105.13,-13.63 95.56,-18.17 105.87,-20.6 105.13,-13.63"/>
<text text-anchor="middle" x="332.95" y="-18.3" font-family="Times,serif" font-size="14.00">{c2}</text>
</g>
<!-- 4&#45;&gt;4 -->
<g id="edge16" class="edge">
<title>4&#45;&gt;4</title>
<path fill="none" stroke="black" d="M95.37,-26.09C169.03,-35.83 346.45,-34.47 346.45,-22 346.45,-10.07 183.95,-8.31 105.42,-16.71"/>
<polygon fill="black" stroke="black" points="104.89,-13.25 95.37,-17.91 105.72,-20.2 104.89,-13.25"/>
<text text-anchor="middle" x="359.95" y="-18.3" font-family="Times,serif" font-size="14.00">{c0}</text>
</g>
<!-- 4&#45;&gt;4 -->
<g id="edge17" class="edge">
<title>4&#45;&gt;4</title>
<path fill="none" stroke="black" d="M95.19,-26.3C175.1,-37.84 373.45,-36.41 373.45,-22 373.45,-8.17 190.66,-6.29 105.34,-16.37"/>
<polygon fill="black" stroke="black" points="104.65,-12.93 95.19,-17.7 105.56,-19.87 104.65,-12.93"/>
<text text-anchor="middle" x="396.95" y="-18.3" font-family="Times,serif" font-size="14.00">{c0, c2}</text>
</g>
</g>
</svg>
