<?xml version="1.0" encoding="UTF-8" standalone="no"?>
<!DOCTYPE svg PUBLIC "-//W3C//DTD SVG 1.1//EN"
 "http://www.w3.org/Graphics/SVG/1.1/DTD/svg11.dtd">
<!-- Generated by graphviz version 2.43.0 (0)
 -->
<!-- Title: %3 Pages: 1 -->
<svg width="328pt" height="386pt"
 viewBox="0.00 0.00 328.25 386.00" xmlns="http://www.w3.org/2000/svg" xmlns:xlink="http://www.w3.org/1999/xlink">
<g id="graph0" class="graph" transform="scale(1 1) rotate(0) translate(4 382)">
<title>%3</title>
<polygon fill="white" stroke="transparent" points="-4,4 -4,-382 324.25,-382 324.25,4 -4,4"/>
<!-- fake -->
<g id="node1" class="node">
<title>fake</title>
</g>
<!-- 0 -->
<g id="node4" class="node">
<title>0</title>
<ellipse fill="none" stroke="black" cx="158.25" cy="-287" rx="27" ry="18"/>
<text text-anchor="middle" x="158.25" y="-283.3" font-family="Times,serif" font-size="14.00">0</text>
</g>
<!-- fake&#45;&gt;0 -->
<g id="edge1" class="edge">
<title>fake&#45;&gt;0</title>
<path fill="none" stroke="black" stroke-width="2" d="M158.25,-341.81C158.25,-333.79 158.25,-324.05 158.25,-315.07"/>
<polygon fill="black" stroke="black" stroke-width="2" points="161.75,-315.03 158.25,-305.03 154.75,-315.03 161.75,-315.03"/>
</g>
<!-- 3 -->
<g id="node2" class="node">
<title>3</title>
<ellipse fill="none" stroke="black" cx="75.25" cy="-22" rx="18" ry="18"/>
<ellipse fill="none" stroke="black" cx="75.25" cy="-22" rx="22" ry="22"/>
<text text-anchor="middle" x="75.25" y="-18.3" font-family="Times,serif" font-size="14.00">3</text>
</g>
<!-- 3&#45;&gt;3 -->
<g id="edge5" class="edge">
<title>3&#45;&gt;3</title>
<path fill="none" stroke="black" d="M95.83,-30.37C106.09,-31.53 115.25,-28.74 115.25,-22 115.25,-17.68 111.49,-14.99 106.09,-13.91"/>
<polygon fill="black" stroke="black" points="105.92,-10.41 95.83,-13.63 105.73,-17.4 105.92,-10.41"/>
<text text-anchor="middle" x="122.25" y="-18.3" font-family="Times,serif" font-size="14.00">{}</text>
</g>
<!-- 3&#45;&gt;0 -->
<g id="edge2" class="edge">
<title>3&#45;&gt;0</title>
<path fill="none" stroke="black" d="M58.51,-36.92C50.95,-43.86 42.37,-52.73 36.25,-62 34.82,-64.16 -6.85,-122.21 1.25,-164 9.17,-204.92 5.29,-223.09 36.25,-251 59.5,-271.98 94.54,-280.45 121.11,-283.84"/>
<polygon fill="black" stroke="black" points="120.88,-287.33 131.2,-284.93 121.63,-280.37 120.88,-287.33"/>
<text text-anchor="middle" x="14.75" y="-152.8" font-family="Times,serif" font-size="14.00">{c1}</text>
</g>
<!-- 3&#45;&gt;0 -->
<g id="edge3" class="edge">
<title>3&#45;&gt;0</title>
<path fill="none" stroke="black" d="M67.41,-42.67C57.56,-69.96 42.89,-120.85 51.25,-164 59.17,-204.92 57.82,-220.52 86.25,-251 96.54,-262.04 111.06,-270.02 124.37,-275.54"/>
<polygon fill="black" stroke="black" points="123.18,-278.83 133.77,-279.13 125.68,-272.29 123.18,-278.83"/>
<text text-anchor="middle" x="64.75" y="-152.8" font-family="Times,serif" font-size="14.00">{c2}</text>
</g>
<!-- 3&#45;&gt;0 -->
<g id="edge4" class="edge">
<title>3&#45;&gt;0</title>
<path fill="none" stroke="black" d="M77.02,-44.21C81.19,-85.85 94.05,-180.37 129.25,-251 131.46,-255.45 134.34,-259.82 137.42,-263.89"/>
<polygon fill="black" stroke="black" points="134.83,-266.25 143.89,-271.74 140.23,-261.8 134.83,-266.25"/>
<text text-anchor="middle" x="110.75" y="-152.8" font-family="Times,serif" font-size="14.00">{c0}</text>
</g>
<!-- 1 -->
<g id="node3" class="node">
<title>1</title>
<ellipse fill="none" stroke="black" cx="180.25" cy="-200" rx="27" ry="18"/>
<text text-anchor="middle" x="180.25" y="-196.3" font-family="Times,serif" font-size="14.00">1</text>
</g>
<!-- 1&#45;&gt;1 -->
<g id="edge9" class="edge">
<title>1&#45;&gt;1</title>
<path fill="none" stroke="black" d="M204.78,-207.75C215.75,-208.49 225.25,-205.91 225.25,-200 225.25,-196.03 220.96,-193.56 214.82,-192.59"/>
<polygon fill="black" stroke="black" points="214.89,-189.09 204.78,-192.25 214.65,-196.09 214.89,-189.09"/>
<text text-anchor="middle" x="232.25" y="-196.3" font-family="Times,serif" font-size="14.00">{}</text>
</g>
<!-- 1&#45;&gt;0 -->
<g id="edge7" class="edge">
<title>1&#45;&gt;0</title>
<path fill="none" stroke="black" d="M175.83,-218.05C172.76,-229.91 168.61,-245.95 165.11,-259.47"/>
<polygon fill="black" stroke="black" points="161.71,-258.65 162.59,-269.21 168.49,-260.4 161.71,-258.65"/>
<text text-anchor="middle" x="183.75" y="-239.8" font-family="Times,serif" font-size="14.00">{c2}</text>
</g>
<!-- 1&#45;&gt;0 -->
<g id="edge8" class="edge">
<title>1&#45;&gt;0</title>
<path fill="none" stroke="black" d="M193.39,-216.04C200.47,-226.05 206.74,-239.44 201.25,-251 198.01,-257.81 192.72,-263.74 186.94,-268.67"/>
<polygon fill="black" stroke="black" points="184.75,-265.95 178.91,-274.79 188.99,-271.52 184.75,-265.95"/>
<text text-anchor="middle" x="216.75" y="-239.8" font-family="Times,serif" font-size="14.00">{c0}</text>
</g>
<!-- 2 -->
<g id="node5" class="node">
<title>2</title>
<ellipse fill="none" stroke="black" cx="251.25" cy="-113" rx="27" ry="18"/>
<text text-anchor="middle" x="251.25" y="-109.3" font-family="Times,serif" font-size="14.00">2</text>
</g>
<!-- 1&#45;&gt;2 -->
<g id="edge6" class="edge">
<title>1&#45;&gt;2</title>
<path fill="none" stroke="black" d="M192.94,-183.8C203.84,-170.75 219.73,-151.74 232.16,-136.85"/>
<polygon fill="black" stroke="black" points="234.94,-138.98 238.66,-129.06 229.56,-134.5 234.94,-138.98"/>
<text text-anchor="middle" x="232.75" y="-152.8" font-family="Times,serif" font-size="14.00">{c1}</text>
</g>
<!-- 0&#45;&gt;1 -->
<g id="edge11" class="edge">
<title>0&#45;&gt;1</title>
<path fill="none" stroke="black" d="M144.58,-271C137.2,-261 130.64,-247.62 136.25,-236 139.63,-228.99 145.17,-222.95 151.2,-217.96"/>
<polygon fill="black" stroke="black" points="153.59,-220.55 159.57,-211.8 149.44,-214.91 153.59,-220.55"/>
<text text-anchor="middle" x="149.75" y="-239.8" font-family="Times,serif" font-size="14.00">{c2}</text>
</g>
<!-- 0&#45;&gt;0 -->
<g id="edge10" class="edge">
<title>0&#45;&gt;0</title>
<path fill="none" stroke="black" d="M185.04,-289.25C195.03,-289.32 203.25,-288.57 203.25,-287 203.25,-286.02 200.03,-285.36 195.19,-285.02"/>
<polygon fill="black" stroke="black" points="195.13,-281.52 185.04,-284.75 194.95,-288.51 195.13,-281.52"/>
<text text-anchor="middle" x="216.75" y="-283.3" font-family="Times,serif" font-size="14.00">{c1}</text>
</g>
<!-- 0&#45;&gt;0 -->
<g id="edge12" class="edge">
<title>0&#45;&gt;0</title>
<path fill="none" stroke="black" d="M184.62,-290.89C206.41,-292.4 230.25,-291.1 230.25,-287 230.25,-283.52 213.12,-282.06 194.63,-282.61"/>
<polygon fill="black" stroke="black" points="194.44,-279.12 184.62,-283.11 194.78,-286.11 194.44,-279.12"/>
<text text-anchor="middle" x="243.75" y="-283.3" font-family="Times,serif" font-size="14.00">{c0}</text>
</g>
<!-- 0&#45;&gt;0 -->
<g id="edge13" class="edge">
<title>0&#45;&gt;0</title>
<path fill="none" stroke="black" d="M184.61,-292.01C216.32,-295.45 257.25,-293.79 257.25,-287 257.25,-280.93 224.5,-278.95 194.89,-281.07"/>
<polygon fill="black" stroke="black" points="194.26,-277.61 184.61,-281.99 194.88,-284.59 194.26,-277.61"/>
<text text-anchor="middle" x="264.25" y="-283.3" font-family="Times,serif" font-size="14.00">{}</text>
</g>
<!-- 2&#45;&gt;3 -->
<g id="edge16" class="edge">
<title>2&#45;&gt;3</title>
<path fill="none" stroke="black" d="M230.36,-101.44C198.9,-85.53 139.26,-55.37 103.8,-37.44"/>
<polygon fill="black" stroke="black" points="104.99,-34.12 94.49,-32.73 101.83,-40.37 104.99,-34.12"/>
<text text-anchor="middle" x="191.75" y="-65.8" font-family="Times,serif" font-size="14.00">{c0}</text>
</g>
<!-- 2&#45;&gt;0 -->
<g id="edge14" class="edge">
<title>2&#45;&gt;0</title>
<path fill="none" stroke="black" d="M254.93,-131.02C260.08,-159.93 265.62,-218.66 234.25,-251 222.99,-262.61 207.15,-270.74 192.84,-276.22"/>
<polygon fill="black" stroke="black" points="191.53,-272.97 183.26,-279.6 193.86,-279.57 191.53,-272.97"/>
<text text-anchor="middle" x="271.75" y="-196.3" font-family="Times,serif" font-size="14.00">{c1}</text>
</g>
<!-- 2&#45;&gt;0 -->
<g id="edge15" class="edge">
<title>2&#45;&gt;0</title>
<path fill="none" stroke="black" d="M264.05,-129.05C279.8,-149.49 302.87,-187.03 289.25,-218 273.05,-254.83 227.44,-272.06 194.59,-279.88"/>
<polygon fill="black" stroke="black" points="193.45,-276.55 184.43,-282.1 194.95,-283.39 193.45,-276.55"/>
<text text-anchor="middle" x="306.75" y="-196.3" font-family="Times,serif" font-size="14.00">{c2}</text>
</g>
<!-- 2&#45;&gt;2 -->
<g id="edge17" class="edge">
<title>2&#45;&gt;2</title>
<path fill="none" stroke="black" d="M275.78,-120.75C286.75,-121.49 296.25,-118.91 296.25,-113 296.25,-109.03 291.96,-106.56 285.82,-105.59"/>
<polygon fill="black" stroke="black" points="285.89,-102.09 275.78,-105.25 285.65,-109.09 285.89,-102.09"/>
<text text-anchor="middle" x="303.25" y="-109.3" font-family="Times,serif" font-size="14.00">{}</text>
</g>
</g>
</svg>
