<?xml version="1.0" encoding="UTF-8" standalone="no"?>
<!DOCTYPE svg PUBLIC "-//W3C//DTD SVG 1.1//EN"
 "http://www.w3.org/Graphics/SVG/1.1/DTD/svg11.dtd">
<!-- Generated by graphviz version 2.43.0 (0)
 -->
<!-- Title: %3 Pages: 1 -->
<svg width="1049pt" height="386pt"
 viewBox="0.00 0.00 1049.09 386.00" xmlns="http://www.w3.org/2000/svg" xmlns:xlink="http://www.w3.org/1999/xlink">
<g id="graph0" class="graph" transform="scale(1 1) rotate(0) translate(4 382)">
<title>%3</title>
<polygon fill="white" stroke="transparent" points="-4,4 -4,-382 1045.09,-382 1045.09,4 -4,4"/>
<!-- fake -->
<g id="node1" class="node">
<title>fake</title>
</g>
<!-- 0 -->
<g id="node2" class="node">
<title>0</title>
<ellipse fill="none" stroke="black" cx="582.09" cy="-287" rx="27" ry="18"/>
<text text-anchor="middle" x="582.09" y="-283.3" font-family="Times,serif" font-size="14.00">0</text>
</g>
<!-- fake&#45;&gt;0 -->
<g id="edge1" class="edge">
<title>fake&#45;&gt;0</title>
<path fill="none" stroke="black" stroke-width="2" d="M582.09,-341.81C582.09,-333.79 582.09,-324.05 582.09,-315.07"/>
<polygon fill="black" stroke="black" stroke-width="2" points="585.59,-315.03 582.09,-305.03 578.59,-315.03 585.59,-315.03"/>
</g>
<!-- 0&#45;&gt;0 -->
<g id="edge12" class="edge">
<title>0&#45;&gt;0</title>
<path fill="none" stroke="black" d="M607.53,-293.69C618.12,-294.15 627.09,-291.92 627.09,-287 627.09,-283.77 623.23,-281.7 617.58,-280.79"/>
<polygon fill="black" stroke="black" points="617.69,-277.29 607.53,-280.31 617.36,-284.28 617.69,-277.29"/>
<text text-anchor="middle" x="634.09" y="-283.3" font-family="Times,serif" font-size="14.00">{}</text>
</g>
<!-- 1 -->
<g id="node3" class="node">
<title>1</title>
<ellipse fill="none" stroke="black" cx="422.09" cy="-200" rx="27" ry="18"/>
<text text-anchor="middle" x="422.09" y="-196.3" font-family="Times,serif" font-size="14.00">1</text>
</g>
<!-- 0&#45;&gt;1 -->
<g id="edge10" class="edge">
<title>0&#45;&gt;1</title>
<path fill="none" stroke="black" d="M554.91,-285.62C503.73,-284.26 396.09,-278.17 373.09,-251 362.62,-238.63 376.35,-225.59 391.9,-215.92"/>
<polygon fill="black" stroke="black" points="393.67,-218.95 400.59,-210.93 390.18,-212.88 393.67,-218.95"/>
<text text-anchor="middle" x="386.59" y="-239.8" font-family="Times,serif" font-size="14.00">{c2}</text>
</g>
<!-- 0&#45;&gt;1 -->
<g id="edge11" class="edge">
<title>0&#45;&gt;1</title>
<path fill="none" stroke="black" d="M555.35,-284.02C514.51,-280.39 439.58,-271.1 423.09,-251 417.9,-244.68 416.4,-236.23 416.57,-228.09"/>
<polygon fill="black" stroke="black" points="420.05,-228.4 417.53,-218.12 413.09,-227.73 420.05,-228.4"/>
<text text-anchor="middle" x="456.59" y="-239.8" font-family="Times,serif" font-size="14.00">{c0, c1, c2}</text>
</g>
<!-- 0&#45;&gt;1 -->
<g id="edge13" class="edge">
<title>0&#45;&gt;1</title>
<path fill="none" stroke="black" d="M560.64,-275.86C546.85,-269.17 528.68,-260 513.09,-251 502.52,-244.9 500.64,-242.13 490.09,-236 478.05,-229 464.45,-221.85 452.6,-215.86"/>
<polygon fill="black" stroke="black" points="454.04,-212.67 443.53,-211.33 450.91,-218.93 454.04,-212.67"/>
<text text-anchor="middle" x="536.59" y="-239.8" font-family="Times,serif" font-size="14.00">{c0, c2}</text>
</g>
<!-- 0&#45;&gt;1 -->
<g id="edge14" class="edge">
<title>0&#45;&gt;1</title>
<path fill="none" stroke="black" d="M578.61,-268.83C575.53,-257.92 569.94,-244.33 560.09,-236 531.91,-212.15 489.62,-204.21 459.29,-201.74"/>
<polygon fill="black" stroke="black" points="459.31,-198.24 449.11,-201.08 458.86,-205.22 459.31,-198.24"/>
<text text-anchor="middle" x="593.59" y="-239.8" font-family="Times,serif" font-size="14.00">{c1, c2}</text>
</g>
<!-- 2 -->
<g id="node4" class="node">
<title>2</title>
<ellipse fill="none" stroke="black" cx="567.09" cy="-22" rx="27" ry="18"/>
<text text-anchor="middle" x="567.09" y="-18.3" font-family="Times,serif" font-size="14.00">2</text>
</g>
<!-- 0&#45;&gt;2 -->
<g id="edge15" class="edge">
<title>0&#45;&gt;2</title>
<path fill="none" stroke="black" d="M601.29,-274.07C608.96,-268.17 616.94,-260.31 621.09,-251 633.59,-222.99 712.73,-417.52 610.09,-95 604.55,-77.59 594.11,-59.94 584.9,-46.48"/>
<polygon fill="black" stroke="black" points="587.73,-44.42 579.09,-38.28 582.02,-48.46 587.73,-44.42"/>
<text text-anchor="middle" x="653.59" y="-152.8" font-family="Times,serif" font-size="14.00">{c0, c1}</text>
</g>
<!-- 0&#45;&gt;2 -->
<g id="edge16" class="edge">
<title>0&#45;&gt;2</title>
<path fill="none" stroke="black" d="M606.5,-279.1C621.54,-273.7 640.16,-264.75 652.09,-251 682.97,-215.4 696.6,-193.51 681.09,-149 664.99,-102.8 621.91,-63.58 593.56,-41.69"/>
<polygon fill="black" stroke="black" points="595.38,-38.67 585.28,-35.46 591.17,-44.27 595.38,-38.67"/>
<text text-anchor="middle" x="698.59" y="-152.8" font-family="Times,serif" font-size="14.00">{c0}</text>
</g>
<!-- 0&#45;&gt;2 -->
<g id="edge17" class="edge">
<title>0&#45;&gt;2</title>
<path fill="none" stroke="black" d="M607.32,-280.33C626.52,-275.09 652.83,-265.84 672.09,-251 711.2,-220.87 731.84,-195.79 716.09,-149 697.46,-93.65 636.35,-55.71 598.43,-36.83"/>
<polygon fill="black" stroke="black" points="599.85,-33.63 589.32,-32.44 596.81,-39.94 599.85,-33.63"/>
<text text-anchor="middle" x="732.59" y="-152.8" font-family="Times,serif" font-size="14.00">{c1}</text>
</g>
<!-- 1&#45;&gt;1 -->
<g id="edge20" class="edge">
<title>1&#45;&gt;1</title>
<path fill="none" stroke="black" d="M446.62,-207.75C457.6,-208.49 467.09,-205.91 467.09,-200 467.09,-196.03 462.81,-193.56 456.67,-192.59"/>
<polygon fill="black" stroke="black" points="456.74,-189.09 446.62,-192.25 456.5,-196.09 456.74,-189.09"/>
<text text-anchor="middle" x="474.09" y="-196.3" font-family="Times,serif" font-size="14.00">{}</text>
</g>
<!-- 1&#45;&gt;2 -->
<g id="edge23" class="edge">
<title>1&#45;&gt;2</title>
<path fill="none" stroke="black" d="M425.14,-182.04C429.58,-160.49 439.31,-122.75 457.09,-95 468.62,-77 474.38,-73.97 492.09,-62 507.91,-51.31 514.16,-52.82 531.09,-44 533.68,-42.65 536.34,-41.21 539,-39.73"/>
<polygon fill="black" stroke="black" points="540.9,-42.68 547.85,-34.68 537.43,-36.6 540.9,-42.68"/>
<text text-anchor="middle" x="470.59" y="-109.3" font-family="Times,serif" font-size="14.00">{c0}</text>
</g>
<!-- 1&#45;&gt;2 -->
<g id="edge24" class="edge">
<title>1&#45;&gt;2</title>
<path fill="none" stroke="black" d="M436,-184.46C448.82,-170.91 468.19,-149.98 484.09,-131 507.68,-102.83 533.21,-69.07 549.64,-46.89"/>
<polygon fill="black" stroke="black" points="552.55,-48.83 555.67,-38.7 546.92,-44.67 552.55,-48.83"/>
<text text-anchor="middle" x="525.59" y="-109.3" font-family="Times,serif" font-size="14.00">{c2}</text>
</g>
<!-- 1&#45;&gt;2 -->
<g id="edge25" class="edge">
<title>1&#45;&gt;2</title>
<path fill="none" stroke="black" d="M446.6,-191.94C474.39,-182.63 518.96,-163.5 543.09,-131 560.57,-107.46 565.74,-73.6 567.06,-50.1"/>
<polygon fill="black" stroke="black" points="570.56,-50.22 567.43,-40.1 563.56,-49.96 570.56,-50.22"/>
<text text-anchor="middle" x="582.59" y="-109.3" font-family="Times,serif" font-size="14.00">{c0, c2}</text>
</g>
<!-- 3 -->
<g id="node5" class="node">
<title>3</title>
<ellipse fill="none" stroke="black" cx="241.09" cy="-113" rx="27" ry="18"/>
<text text-anchor="middle" x="241.09" y="-109.3" font-family="Times,serif" font-size="14.00">3</text>
</g>
<!-- 1&#45;&gt;3 -->
<g id="edge18" class="edge">
<title>1&#45;&gt;3</title>
<path fill="none" stroke="black" d="M394.68,-199.46C335.9,-199.8 200.71,-196.9 172.09,-164 157.76,-147.52 182.91,-133.42 206.77,-124.43"/>
<polygon fill="black" stroke="black" points="208.19,-127.64 216.45,-121.02 205.86,-121.04 208.19,-127.64"/>
<text text-anchor="middle" x="195.59" y="-152.8" font-family="Times,serif" font-size="14.00">{c0, c1}</text>
</g>
<!-- 1&#45;&gt;3 -->
<g id="edge19" class="edge">
<title>1&#45;&gt;3</title>
<path fill="none" stroke="black" d="M395.18,-197.77C349.87,-195.08 261.41,-186.96 242.09,-164 236.83,-157.74 235.3,-149.32 235.48,-141.17"/>
<polygon fill="black" stroke="black" points="238.96,-141.47 236.45,-131.18 232,-140.79 238.96,-141.47"/>
<text text-anchor="middle" x="265.59" y="-152.8" font-family="Times,serif" font-size="14.00">{c1, c2}</text>
</g>
<!-- 1&#45;&gt;3 -->
<g id="edge21" class="edge">
<title>1&#45;&gt;3</title>
<path fill="none" stroke="black" d="M396.78,-193.29C373.93,-187.6 339.73,-177.72 312.09,-164 307.25,-161.59 285.52,-146.17 267.36,-133.08"/>
<polygon fill="black" stroke="black" points="268.98,-129.93 258.82,-126.91 264.88,-135.61 268.98,-129.93"/>
<text text-anchor="middle" x="325.59" y="-152.8" font-family="Times,serif" font-size="14.00">{c1}</text>
</g>
<!-- 1&#45;&gt;3 -->
<g id="edge22" class="edge">
<title>1&#45;&gt;3</title>
<path fill="none" stroke="black" d="M402.22,-187.74C390.46,-180.99 375.33,-172.17 362.09,-164 351.71,-157.59 350.02,-154.42 339.09,-149 318.56,-138.81 294.3,-130.13 275.06,-123.96"/>
<polygon fill="black" stroke="black" points="276.09,-120.61 265.5,-120.96 274,-127.29 276.09,-120.61"/>
<text text-anchor="middle" x="395.59" y="-152.8" font-family="Times,serif" font-size="14.00">{c0, c1, c2}</text>
</g>
<!-- 2&#45;&gt;2 -->
<g id="edge34" class="edge">
<title>2&#45;&gt;2</title>
<path fill="none" stroke="black" d="M594.33,-23.5C604.12,-23.53 612.09,-23.03 612.09,-22 612.09,-21.37 609.13,-20.94 604.6,-20.71"/>
<polygon fill="black" stroke="black" points="604.4,-17.2 594.33,-20.5 604.26,-24.2 604.4,-17.2"/>
<text text-anchor="middle" x="635.59" y="-18.3" font-family="Times,serif" font-size="14.00">{c0, c1}</text>
</g>
<!-- 2&#45;&gt;2 -->
<g id="edge35" class="edge">
<title>2&#45;&gt;2</title>
<path fill="none" stroke="black" d="M593.98,-24.43C622.41,-25.68 659.09,-24.87 659.09,-22 659.09,-19.46 630.51,-18.53 604.25,-19.22"/>
<polygon fill="black" stroke="black" points="603.86,-15.73 593.98,-19.57 604.1,-22.72 603.86,-15.73"/>
<text text-anchor="middle" x="672.59" y="-18.3" font-family="Times,serif" font-size="14.00">{c0}</text>
</g>
<!-- 2&#45;&gt;2 -->
<g id="edge36" class="edge">
<title>2&#45;&gt;2</title>
<path fill="none" stroke="black" d="M593.91,-25.17C631.33,-27.69 686.09,-26.63 686.09,-22 686.09,-17.77 640.34,-16.52 603.9,-18.26"/>
<polygon fill="black" stroke="black" points="603.7,-14.76 593.91,-18.83 604.09,-21.75 603.7,-14.76"/>
<text text-anchor="middle" x="699.59" y="-18.3" font-family="Times,serif" font-size="14.00">{c2}</text>
</g>
<!-- 2&#45;&gt;2 -->
<g id="edge37" class="edge">
<title>2&#45;&gt;2</title>
<path fill="none" stroke="black" d="M593.81,-25.74C639.57,-29.7 713.09,-28.45 713.09,-22 713.09,-16 649.54,-14.5 603.84,-17.5"/>
<polygon fill="black" stroke="black" points="603.52,-14.01 593.81,-18.26 604.05,-20.99 603.52,-14.01"/>
<text text-anchor="middle" x="726.59" y="-18.3" font-family="Times,serif" font-size="14.00">{c1}</text>
</g>
<!-- 2&#45;&gt;2 -->
<g id="edge38" class="edge">
<title>2&#45;&gt;2</title>
<path fill="none" stroke="black" d="M593.7,-26.19C647.33,-31.72 740.09,-30.32 740.09,-22 740.09,-14.18 658.22,-12.48 603.84,-16.88"/>
<polygon fill="black" stroke="black" points="603.34,-13.41 593.7,-17.81 603.98,-20.38 603.34,-13.41"/>
<text text-anchor="middle" x="747.09" y="-18.3" font-family="Times,serif" font-size="14.00">{}</text>
</g>
<!-- 2&#45;&gt;2 -->
<g id="edge39" class="edge">
<title>2&#45;&gt;2</title>
<path fill="none" stroke="black" d="M593.41,-26.6C652.7,-33.73 758.09,-32.2 758.09,-22 758.09,-12.36 663.91,-10.47 603.52,-16.31"/>
<polygon fill="black" stroke="black" points="602.97,-12.85 593.41,-17.4 603.72,-19.81 602.97,-12.85"/>
<text text-anchor="middle" x="781.59" y="-18.3" font-family="Times,serif" font-size="14.00">{c0, c2}</text>
</g>
<!-- 2&#45;&gt;2 -->
<g id="edge40" class="edge">
<title>2&#45;&gt;2</title>
<path fill="none" stroke="black" d="M593.38,-26.78C663.83,-35.76 805.09,-34.17 805.09,-22 805.09,-10.4 676.76,-8.41 603.73,-16.03"/>
<polygon fill="black" stroke="black" points="602.91,-12.6 593.38,-17.22 603.71,-19.55 602.91,-12.6"/>
<text text-anchor="middle" x="838.59" y="-18.3" font-family="Times,serif" font-size="14.00">{c0, c1, c2}</text>
</g>
<!-- 2&#45;&gt;2 -->
<g id="edge41" class="edge">
<title>2&#45;&gt;2</title>
<path fill="none" stroke="black" d="M593.18,-26.82C677.1,-37.79 872.09,-36.19 872.09,-22 872.09,-8.35 691.67,-6.35 603.23,-15.98"/>
<polygon fill="black" stroke="black" points="602.69,-12.52 593.18,-17.18 603.52,-19.47 602.69,-12.52"/>
<text text-anchor="middle" x="895.59" y="-18.3" font-family="Times,serif" font-size="14.00">{c1, c2}</text>
</g>
<!-- 3&#45;&gt;2 -->
<g id="edge31" class="edge">
<title>3&#45;&gt;2</title>
<path fill="none" stroke="black" d="M250.13,-95.92C257.6,-84.31 269.37,-69.42 284.09,-62 333.24,-37.24 478.52,-60.29 531.09,-44 534.1,-43.07 537.14,-41.84 540.09,-40.45"/>
<polygon fill="black" stroke="black" points="541.99,-43.41 549.16,-35.61 538.69,-37.23 541.99,-43.41"/>
<text text-anchor="middle" x="297.59" y="-65.8" font-family="Times,serif" font-size="14.00">{c2}</text>
</g>
<!-- 3&#45;&gt;2 -->
<g id="edge32" class="edge">
<title>3&#45;&gt;2</title>
<path fill="none" stroke="black" d="M262.56,-102.05C276.58,-95.36 295.18,-86.13 311.09,-77 321.68,-70.93 322.56,-66.01 334.09,-62 417.14,-33.14 447.35,-70.79 531.09,-44 534.1,-43.04 537.12,-41.8 540.07,-40.4"/>
<polygon fill="black" stroke="black" points="541.98,-43.35 549.14,-35.54 538.67,-37.18 541.98,-43.35"/>
<text text-anchor="middle" x="347.59" y="-65.8" font-family="Times,serif" font-size="14.00">{c1}</text>
</g>
<!-- 3&#45;&gt;2 -->
<g id="edge33" class="edge">
<title>3&#45;&gt;2</title>
<path fill="none" stroke="black" d="M266.69,-106.84C291.53,-101.3 329.94,-91.32 361.09,-77 372.18,-71.9 372.63,-66.18 384.09,-62 445.92,-39.44 468.71,-65.01 531.09,-44 534.01,-43.02 536.96,-41.78 539.84,-40.4"/>
<polygon fill="black" stroke="black" points="541.56,-43.44 548.72,-35.64 538.26,-37.27 541.56,-43.44"/>
<text text-anchor="middle" x="407.59" y="-65.8" font-family="Times,serif" font-size="14.00">{c1, c2}</text>
</g>
<!-- 3&#45;&gt;3 -->
<g id="edge30" class="edge">
<title>3&#45;&gt;3</title>
<path fill="none" stroke="black" d="M265.62,-120.75C276.6,-121.49 286.09,-118.91 286.09,-113 286.09,-109.03 281.81,-106.56 275.67,-105.59"/>
<polygon fill="black" stroke="black" points="275.74,-102.09 265.62,-105.25 275.5,-109.09 275.74,-102.09"/>
<text text-anchor="middle" x="293.09" y="-109.3" font-family="Times,serif" font-size="14.00">{}</text>
</g>
<!-- 4 -->
<g id="node6" class="node">
<title>4</title>
<ellipse fill="none" stroke="black" cx="53.09" cy="-22" rx="18" ry="18"/>
<ellipse fill="none" stroke="black" cx="53.09" cy="-22" rx="22" ry="22"/>
<text text-anchor="middle" x="53.09" y="-18.3" font-family="Times,serif" font-size="14.00">4</text>
</g>
<!-- 3&#45;&gt;4 -->
<g id="edge26" class="edge">
<title>3&#45;&gt;4</title>
<path fill="none" stroke="black" d="M213.82,-112.22C157.42,-112.04 30.93,-108.09 4.09,-77 -7.53,-63.53 8.37,-48.58 25.07,-37.83"/>
<polygon fill="black" stroke="black" points="26.97,-40.77 33.74,-32.63 23.37,-34.77 26.97,-40.77"/>
<text text-anchor="middle" x="17.59" y="-65.8" font-family="Times,serif" font-size="14.00">{c0}</text>
</g>
<!-- 3&#45;&gt;4 -->
<g id="edge27" class="edge">
<title>3&#45;&gt;4</title>
<path fill="none" stroke="black" d="M214.25,-111C167.55,-108.63 74.36,-100.96 54.09,-77 48.62,-70.54 46.89,-61.92 46.93,-53.46"/>
<polygon fill="black" stroke="black" points="50.43,-53.64 47.74,-43.39 43.45,-53.08 50.43,-53.64"/>
<text text-anchor="middle" x="87.59" y="-65.8" font-family="Times,serif" font-size="14.00">{c0, c1, c2}</text>
</g>
<!-- 3&#45;&gt;4 -->
<g id="edge28" class="edge">
<title>3&#45;&gt;4</title>
<path fill="none" stroke="black" d="M216.53,-104.88C196.52,-98.66 167.81,-88.81 144.09,-77 133.17,-71.56 131.5,-68.37 121.09,-62 108.05,-54.02 93.36,-45.53 80.97,-38.52"/>
<polygon fill="black" stroke="black" points="82.45,-35.33 72.02,-33.47 79.02,-41.43 82.45,-35.33"/>
<text text-anchor="middle" x="167.59" y="-65.8" font-family="Times,serif" font-size="14.00">{c0, c2}</text>
</g>
<!-- 3&#45;&gt;4 -->
<g id="edge29" class="edge">
<title>3&#45;&gt;4</title>
<path fill="none" stroke="black" d="M229.12,-96.33C219.87,-85.24 206.13,-70.82 191.09,-62 157.81,-42.48 114.25,-32.3 85.06,-27.31"/>
<polygon fill="black" stroke="black" points="85.42,-23.82 75,-25.7 84.32,-30.73 85.42,-23.82"/>
<text text-anchor="middle" x="233.59" y="-65.8" font-family="Times,serif" font-size="14.00">{c0, c1}</text>
</g>
<!-- 4&#45;&gt;4 -->
<g id="edge2" class="edge">
<title>4&#45;&gt;4</title>
<path fill="none" stroke="black" d="M75.3,-23.48C84.89,-23.6 93.09,-23.11 93.09,-22 93.09,-21.32 90.04,-20.88 85.5,-20.66"/>
<polygon fill="black" stroke="black" points="85.35,-17.16 75.3,-20.52 85.25,-24.15 85.35,-17.16"/>
<text text-anchor="middle" x="116.59" y="-18.3" font-family="Times,serif" font-size="14.00">{c1, c2}</text>
</g>
<!-- 4&#45;&gt;4 -->
<g id="edge3" class="edge">
<title>4&#45;&gt;4</title>
<path fill="none" stroke="black" d="M75.27,-24.27C102.42,-25.74 140.09,-24.98 140.09,-22 140.09,-19.38 110.99,-18.47 85.51,-19.29"/>
<polygon fill="black" stroke="black" points="85.11,-15.8 75.27,-19.73 85.41,-22.8 85.11,-15.8"/>
<text text-anchor="middle" x="153.59" y="-18.3" font-family="Times,serif" font-size="14.00">{c0}</text>
</g>
<!-- 4&#45;&gt;4 -->
<g id="edge4" class="edge">
<title>4&#45;&gt;4</title>
<path fill="none" stroke="black" d="M75.09,-24.91C110.79,-27.75 167.09,-26.78 167.09,-22 167.09,-17.65 120.45,-16.45 85.16,-18.41"/>
<polygon fill="black" stroke="black" points="84.84,-14.93 75.09,-19.09 85.31,-21.91 84.84,-14.93"/>
<text text-anchor="middle" x="180.59" y="-18.3" font-family="Times,serif" font-size="14.00">{c1}</text>
</g>
<!-- 4&#45;&gt;4 -->
<g id="edge5" class="edge">
<title>4&#45;&gt;4</title>
<path fill="none" stroke="black" d="M74.93,-25.39C118.53,-29.77 194.09,-28.64 194.09,-22 194.09,-15.85 129.33,-14.43 85.12,-17.73"/>
<polygon fill="black" stroke="black" points="84.59,-14.26 74.93,-18.61 85.19,-21.24 84.59,-14.26"/>
<text text-anchor="middle" x="227.59" y="-18.3" font-family="Times,serif" font-size="14.00">{c0, c1, c2}</text>
</g>
<!-- 4&#45;&gt;4 -->
<g id="edge6" class="edge">
<title>4&#45;&gt;4</title>
<path fill="none" stroke="black" d="M75.1,-25.54C133.9,-31.81 261.09,-30.63 261.09,-22 261.09,-13.84 147.43,-12.34 85.33,-17.5"/>
<polygon fill="black" stroke="black" points="84.73,-14.04 75.1,-18.46 85.39,-21.01 84.73,-14.04"/>
<text text-anchor="middle" x="274.59" y="-18.3" font-family="Times,serif" font-size="14.00">{c2}</text>
</g>
<!-- 4&#45;&gt;4 -->
<g id="edge7" class="edge">
<title>4&#45;&gt;4</title>
<path fill="none" stroke="black" d="M74.76,-25.83C140.03,-33.82 288.09,-32.55 288.09,-22 288.09,-11.97 154.14,-10.32 84.88,-17.06"/>
<polygon fill="black" stroke="black" points="84.32,-13.6 74.76,-18.17 85.08,-20.56 84.32,-13.6"/>
<text text-anchor="middle" x="295.09" y="-18.3" font-family="Times,serif" font-size="14.00">{}</text>
</g>
<!-- 4&#45;&gt;4 -->
<g id="edge8" class="edge">
<title>4&#45;&gt;4</title>
<path fill="none" stroke="black" d="M74.81,-26.16C145.25,-35.83 306.09,-34.44 306.09,-22 306.09,-10.12 159.37,-8.32 84.83,-16.61"/>
<polygon fill="black" stroke="black" points="84.31,-13.15 74.81,-17.84 85.17,-20.09 84.31,-13.15"/>
<text text-anchor="middle" x="329.59" y="-18.3" font-family="Times,serif" font-size="14.00">{c0, c1}</text>
</g>
<!-- 4&#45;&gt;4 -->
<g id="edge9" class="edge">
<title>4&#45;&gt;4</title>
<path fill="none" stroke="black" d="M74.83,-26.3C154.74,-37.84 353.09,-36.41 353.09,-22 353.09,-8.17 170.3,-6.29 84.98,-16.37"/>
<polygon fill="black" stroke="black" points="84.3,-12.93 74.83,-17.7 85.2,-19.87 84.3,-12.93"/>
<text text-anchor="middle" x="376.59" y="-18.3" font-family="Times,serif" font-size="14.00">{c0, c2}</text>
</g>
</g>
</svg>
