<?xml version="1.0" encoding="UTF-8" standalone="no"?>
<!DOCTYPE svg PUBLIC "-//W3C//DTD SVG 1.1//EN"
 "http://www.w3.org/Graphics/SVG/1.1/DTD/svg11.dtd">
<!-- Generated by graphviz version 2.43.0 (0)
 -->
<!-- Title: %3 Pages: 1 -->
<svg width="327pt" height="386pt"
 viewBox="0.00 0.00 326.75 386.00" xmlns="http://www.w3.org/2000/svg" xmlns:xlink="http://www.w3.org/1999/xlink">
<g id="graph0" class="graph" transform="scale(1 1) rotate(0) translate(4 382)">
<title>%3</title>
<polygon fill="white" stroke="transparent" points="-4,4 -4,-382 322.75,-382 322.75,4 -4,4"/>
<!-- fake -->
<g id="node1" class="node">
<title>fake</title>
</g>
<!-- 0 -->
<g id="node3" class="node">
<title>0</title>
<ellipse fill="none" stroke="black" cx="161.75" cy="-287" rx="27" ry="18"/>
<text text-anchor="middle" x="161.75" y="-283.3" font-family="Times,serif" font-size="14.00">0</text>
</g>
<!-- fake&#45;&gt;0 -->
<g id="edge1" class="edge">
<title>fake&#45;&gt;0</title>
<path fill="none" stroke="black" stroke-width="2" d="M161.75,-341.81C161.75,-333.79 161.75,-324.05 161.75,-315.07"/>
<polygon fill="black" stroke="black" stroke-width="2" points="165.25,-315.03 161.75,-305.03 158.25,-315.03 165.25,-315.03"/>
</g>
<!-- 2 -->
<g id="node2" class="node">
<title>2</title>
<ellipse fill="none" stroke="black" cx="81.75" cy="-113" rx="27" ry="18"/>
<text text-anchor="middle" x="81.75" y="-109.3" font-family="Times,serif" font-size="14.00">2</text>
</g>
<!-- 2&#45;&gt;2 -->
<g id="edge13" class="edge">
<title>2&#45;&gt;2</title>
<path fill="none" stroke="black" d="M106.29,-120.75C117.26,-121.49 126.75,-118.91 126.75,-113 126.75,-109.03 122.47,-106.56 116.33,-105.59"/>
<polygon fill="black" stroke="black" points="116.4,-102.09 106.29,-105.25 116.16,-109.09 116.4,-102.09"/>
<text text-anchor="middle" x="133.75" y="-109.3" font-family="Times,serif" font-size="14.00">{}</text>
</g>
<!-- 2&#45;&gt;0 -->
<g id="edge11" class="edge">
<title>2&#45;&gt;0</title>
<path fill="none" stroke="black" d="M61.45,-124.89C42.63,-136.29 15.92,-156.13 4.75,-182 -1.58,-196.69 -1.58,-203.31 4.75,-218 24.31,-263.31 84.62,-278.45 124.54,-283.5"/>
<polygon fill="black" stroke="black" points="124.39,-287 134.71,-284.62 125.15,-280.04 124.39,-287"/>
<text text-anchor="middle" x="18.25" y="-196.3" font-family="Times,serif" font-size="14.00">{c2}</text>
</g>
<!-- 2&#45;&gt;0 -->
<g id="edge12" class="edge">
<title>2&#45;&gt;0</title>
<path fill="none" stroke="black" d="M75.25,-130.52C65.16,-159.2 49.92,-218.29 80.75,-251 92.91,-263.89 110.61,-272.28 126.37,-277.6"/>
<polygon fill="black" stroke="black" points="125.79,-281.08 136.37,-280.67 127.84,-274.39 125.79,-281.08"/>
<text text-anchor="middle" x="77.25" y="-196.3" font-family="Times,serif" font-size="14.00">{c1}</text>
</g>
<!-- 3 -->
<g id="node5" class="node">
<title>3</title>
<ellipse fill="none" stroke="black" cx="253.75" cy="-22" rx="18" ry="18"/>
<ellipse fill="none" stroke="black" cx="253.75" cy="-22" rx="22" ry="22"/>
<text text-anchor="middle" x="253.75" y="-18.3" font-family="Times,serif" font-size="14.00">3</text>
</g>
<!-- 2&#45;&gt;3 -->
<g id="edge10" class="edge">
<title>2&#45;&gt;3</title>
<path fill="none" stroke="black" d="M102.5,-101.26C133.21,-85.37 190.85,-55.55 225.42,-37.66"/>
<polygon fill="black" stroke="black" points="227.25,-40.66 234.52,-32.95 224.03,-34.44 227.25,-40.66"/>
<text text-anchor="middle" x="191.25" y="-65.8" font-family="Times,serif" font-size="14.00">{c0}</text>
</g>
<!-- 0&#45;&gt;0 -->
<g id="edge2" class="edge">
<title>0&#45;&gt;0</title>
<path fill="none" stroke="black" d="M188.55,-289.25C198.54,-289.32 206.75,-288.57 206.75,-287 206.75,-286.02 203.54,-285.36 198.7,-285.02"/>
<polygon fill="black" stroke="black" points="198.64,-281.52 188.55,-284.75 198.46,-288.51 198.64,-281.52"/>
<text text-anchor="middle" x="220.25" y="-283.3" font-family="Times,serif" font-size="14.00">{c0}</text>
</g>
<!-- 0&#45;&gt;0 -->
<g id="edge4" class="edge">
<title>0&#45;&gt;0</title>
<path fill="none" stroke="black" d="M188.13,-290.89C209.92,-292.4 233.75,-291.1 233.75,-287 233.75,-283.52 216.63,-282.06 198.14,-282.61"/>
<polygon fill="black" stroke="black" points="197.95,-279.12 188.13,-283.11 198.29,-286.11 197.95,-279.12"/>
<text text-anchor="middle" x="247.25" y="-283.3" font-family="Times,serif" font-size="14.00">{c1}</text>
</g>
<!-- 0&#45;&gt;0 -->
<g id="edge5" class="edge">
<title>0&#45;&gt;0</title>
<path fill="none" stroke="black" d="M188.12,-292.01C219.83,-295.45 260.75,-293.79 260.75,-287 260.75,-280.93 228.01,-278.95 198.4,-281.07"/>
<polygon fill="black" stroke="black" points="197.77,-277.61 188.12,-281.99 198.39,-284.59 197.77,-277.61"/>
<text text-anchor="middle" x="267.75" y="-283.3" font-family="Times,serif" font-size="14.00">{}</text>
</g>
<!-- 1 -->
<g id="node4" class="node">
<title>1</title>
<ellipse fill="none" stroke="black" cx="131.75" cy="-200" rx="27" ry="18"/>
<text text-anchor="middle" x="131.75" y="-196.3" font-family="Times,serif" font-size="14.00">1</text>
</g>
<!-- 0&#45;&gt;1 -->
<g id="edge3" class="edge">
<title>0&#45;&gt;1</title>
<path fill="none" stroke="black" d="M136.14,-281.21C119.23,-276.57 98.32,-267.69 87.75,-251 80.04,-238.82 90.28,-226.64 102.81,-217.36"/>
<polygon fill="black" stroke="black" points="104.87,-220.19 111.21,-211.7 100.96,-214.38 104.87,-220.19"/>
<text text-anchor="middle" x="101.25" y="-239.8" font-family="Times,serif" font-size="14.00">{c2}</text>
</g>
<!-- 1&#45;&gt;2 -->
<g id="edge16" class="edge">
<title>1&#45;&gt;2</title>
<path fill="none" stroke="black" d="M122.35,-183.01C115.02,-170.55 104.7,-153.01 96.31,-138.74"/>
<polygon fill="black" stroke="black" points="99.2,-136.76 91.12,-129.92 93.17,-140.31 99.2,-136.76"/>
<text text-anchor="middle" x="122.25" y="-152.8" font-family="Times,serif" font-size="14.00">{c1}</text>
</g>
<!-- 1&#45;&gt;0 -->
<g id="edge14" class="edge">
<title>1&#45;&gt;0</title>
<path fill="none" stroke="black" d="M131.8,-218.15C132.31,-228.03 133.81,-240.53 137.75,-251 139.2,-254.85 141.16,-258.68 143.34,-262.32"/>
<polygon fill="black" stroke="black" points="140.57,-264.49 149.02,-270.88 146.4,-260.61 140.57,-264.49"/>
<text text-anchor="middle" x="151.25" y="-239.8" font-family="Times,serif" font-size="14.00">{c0}</text>
</g>
<!-- 1&#45;&gt;0 -->
<g id="edge15" class="edge">
<title>1&#45;&gt;0</title>
<path fill="none" stroke="black" d="M148.75,-214.16C155.03,-220.08 161.43,-227.62 164.75,-236 167.62,-243.22 168.12,-251.5 167.56,-259.21"/>
<polygon fill="black" stroke="black" points="164.08,-258.85 166.25,-269.22 171.02,-259.76 164.08,-258.85"/>
<text text-anchor="middle" x="180.25" y="-239.8" font-family="Times,serif" font-size="14.00">{c2}</text>
</g>
<!-- 1&#45;&gt;1 -->
<g id="edge17" class="edge">
<title>1&#45;&gt;1</title>
<path fill="none" stroke="black" d="M156.29,-207.75C167.26,-208.49 176.75,-205.91 176.75,-200 176.75,-196.03 172.47,-193.56 166.33,-192.59"/>
<polygon fill="black" stroke="black" points="166.4,-189.09 156.29,-192.25 166.16,-196.09 166.4,-189.09"/>
<text text-anchor="middle" x="183.75" y="-196.3" font-family="Times,serif" font-size="14.00">{}</text>
</g>
<!-- 3&#45;&gt;0 -->
<g id="edge6" class="edge">
<title>3&#45;&gt;0</title>
<path fill="none" stroke="black" d="M250.13,-44.02C241.37,-93.37 218.27,-215.19 197.75,-251 194.7,-256.33 190.6,-261.38 186.26,-265.9"/>
<polygon fill="black" stroke="black" points="183.69,-263.51 178.88,-272.95 188.52,-268.57 183.69,-263.51"/>
<text text-anchor="middle" x="241.25" y="-152.8" font-family="Times,serif" font-size="14.00">{c0}</text>
</g>
<!-- 3&#45;&gt;0 -->
<g id="edge7" class="edge">
<title>3&#45;&gt;0</title>
<path fill="none" stroke="black" d="M257.48,-43.9C261.7,-71.75 266.79,-122.34 256.75,-164 246.7,-205.74 243.02,-218.68 214.75,-251 208.25,-258.44 199.81,-264.96 191.58,-270.29"/>
<polygon fill="black" stroke="black" points="189.57,-267.41 182.84,-275.59 193.2,-273.4 189.57,-267.41"/>
<text text-anchor="middle" x="272.25" y="-152.8" font-family="Times,serif" font-size="14.00">{c2}</text>
</g>
<!-- 3&#45;&gt;0 -->
<g id="edge8" class="edge">
<title>3&#45;&gt;0</title>
<path fill="none" stroke="black" d="M264.49,-41.28C278.91,-68.2 301.47,-120.06 289.75,-164 277.97,-208.2 269.9,-221.72 234.75,-251 223.02,-260.77 208.1,-268.55 194.81,-274.27"/>
<polygon fill="black" stroke="black" points="193.43,-271.06 185.49,-278.07 196.07,-277.54 193.43,-271.06"/>
<text text-anchor="middle" x="305.25" y="-152.8" font-family="Times,serif" font-size="14.00">{c1}</text>
</g>
<!-- 3&#45;&gt;3 -->
<g id="edge9" class="edge">
<title>3&#45;&gt;3</title>
<path fill="none" stroke="black" d="M274.34,-30.37C284.6,-31.53 293.75,-28.74 293.75,-22 293.75,-17.68 290,-14.99 284.6,-13.91"/>
<polygon fill="black" stroke="black" points="284.43,-10.41 274.34,-13.63 284.24,-17.4 284.43,-10.41"/>
<text text-anchor="middle" x="300.75" y="-18.3" font-family="Times,serif" font-size="14.00">{}</text>
</g>
</g>
</svg>
