<?xml version="1.0" encoding="UTF-8" standalone="no"?>
<!DOCTYPE svg PUBLIC "-//W3C//DTD SVG 1.1//EN"
 "http://www.w3.org/Graphics/SVG/1.1/DTD/svg11.dtd">
<!-- Generated by graphviz version 2.43.0 (0)
 -->
<!-- Title: %3 Pages: 1 -->
<svg width="1070pt" height="386pt"
 viewBox="0.00 0.00 1069.55 386.00" xmlns="http://www.w3.org/2000/svg" xmlns:xlink="http://www.w3.org/1999/xlink">
<g id="graph0" class="graph" transform="scale(1 1) rotate(0) translate(4 382)">
<title>%3</title>
<polygon fill="white" stroke="transparent" points="-4,4 -4,-382 1065.55,-382 1065.55,4 -4,4"/>
<!-- fake -->
<g id="node1" class="node">
<title>fake</title>
</g>
<!-- 0 -->
<g id="node2" class="node">
<title>0</title>
<ellipse fill="none" stroke="black" cx="562.55" cy="-287" rx="27" ry="18"/>
<text text-anchor="middle" x="562.55" y="-283.3" font-family="Times,serif" font-size="14.00">0</text>
</g>
<!-- fake&#45;&gt;0 -->
<g id="edge1" class="edge">
<title>fake&#45;&gt;0</title>
<path fill="none" stroke="black" stroke-width="2" d="M562.55,-341.81C562.55,-333.79 562.55,-324.05 562.55,-315.07"/>
<polygon fill="black" stroke="black" stroke-width="2" points="566.05,-315.03 562.55,-305.03 559.05,-315.03 566.05,-315.03"/>
</g>
<!-- 0&#45;&gt;0 -->
<g id="edge19" class="edge">
<title>0&#45;&gt;0</title>
<path fill="none" stroke="black" d="M588,-293.69C598.58,-294.15 607.55,-291.92 607.55,-287 607.55,-283.77 603.69,-281.7 598.04,-280.79"/>
<polygon fill="black" stroke="black" points="598.15,-277.29 588,-280.31 597.82,-284.28 598.15,-277.29"/>
<text text-anchor="middle" x="614.55" y="-283.3" font-family="Times,serif" font-size="14.00">{}</text>
</g>
<!-- 1 -->
<g id="node3" class="node">
<title>1</title>
<ellipse fill="none" stroke="black" cx="442.55" cy="-200" rx="27" ry="18"/>
<text text-anchor="middle" x="442.55" y="-196.3" font-family="Times,serif" font-size="14.00">1</text>
</g>
<!-- 0&#45;&gt;1 -->
<g id="edge18" class="edge">
<title>0&#45;&gt;1</title>
<path fill="none" stroke="black" d="M535.39,-285.08C488.12,-282.85 393.83,-275.37 373.55,-251 359.58,-234.21 384.68,-220.15 408.43,-211.26"/>
<polygon fill="black" stroke="black" points="409.78,-214.5 418.06,-207.89 407.47,-207.89 409.78,-214.5"/>
<text text-anchor="middle" x="397.05" y="-239.8" font-family="Times,serif" font-size="14.00">{c0, c2}</text>
</g>
<!-- 0&#45;&gt;1 -->
<g id="edge20" class="edge">
<title>0&#45;&gt;1</title>
<path fill="none" stroke="black" d="M535.54,-286.55C507.54,-285.5 464.93,-278.98 443.55,-251 438.64,-244.57 437.17,-236.2 437.29,-228.15"/>
<polygon fill="black" stroke="black" points="440.8,-228.22 438.21,-217.94 433.83,-227.59 440.8,-228.22"/>
<text text-anchor="middle" x="467.05" y="-239.8" font-family="Times,serif" font-size="14.00">{c1, c2}</text>
</g>
<!-- 0&#45;&gt;1 -->
<g id="edge21" class="edge">
<title>0&#45;&gt;1</title>
<path fill="none" stroke="black" d="M544.59,-273.27C524.53,-259.07 491.87,-235.93 468.92,-219.67"/>
<polygon fill="black" stroke="black" points="470.82,-216.74 460.64,-213.81 466.78,-222.45 470.82,-216.74"/>
<text text-anchor="middle" x="523.05" y="-239.8" font-family="Times,serif" font-size="14.00">{c2}</text>
</g>
<!-- 0&#45;&gt;1 -->
<g id="edge22" class="edge">
<title>0&#45;&gt;1</title>
<path fill="none" stroke="black" d="M558.81,-269.13C555.61,-258.35 549.99,-244.79 540.55,-236 523.58,-220.2 499,-211.45 478.71,-206.65"/>
<polygon fill="black" stroke="black" points="479.35,-203.21 468.84,-204.54 477.89,-210.05 479.35,-203.21"/>
<text text-anchor="middle" x="584.05" y="-239.8" font-family="Times,serif" font-size="14.00">{c0, c1, c2}</text>
</g>
<!-- 2 -->
<g id="node4" class="node">
<title>2</title>
<ellipse fill="none" stroke="black" cx="587.55" cy="-22" rx="27" ry="18"/>
<text text-anchor="middle" x="587.55" y="-18.3" font-family="Times,serif" font-size="14.00">2</text>
</g>
<!-- 0&#45;&gt;2 -->
<g id="edge23" class="edge">
<title>0&#45;&gt;2</title>
<path fill="none" stroke="black" d="M586.39,-278.44C599.26,-273 614.01,-264.25 621.55,-251 658.93,-185.37 622.72,-92.59 601.11,-48.36"/>
<polygon fill="black" stroke="black" points="604.11,-46.55 596.49,-39.19 597.86,-49.7 604.11,-46.55"/>
<text text-anchor="middle" x="650.05" y="-152.8" font-family="Times,serif" font-size="14.00">{c0}</text>
</g>
<!-- 0&#45;&gt;2 -->
<g id="edge24" class="edge">
<title>0&#45;&gt;2</title>
<path fill="none" stroke="black" d="M587.58,-280.06C604.14,-274.94 625.18,-265.93 638.55,-251 665.75,-220.64 661.02,-204.23 667.55,-164 675.23,-116.72 637.34,-69.98 611.07,-43.96"/>
<polygon fill="black" stroke="black" points="613.33,-41.28 603.69,-36.89 608.49,-46.33 613.33,-41.28"/>
<text text-anchor="middle" x="692.05" y="-152.8" font-family="Times,serif" font-size="14.00">{c0, c1}</text>
</g>
<!-- 0&#45;&gt;2 -->
<g id="edge25" class="edge">
<title>0&#45;&gt;2</title>
<path fill="none" stroke="black" d="M588.39,-280.9C608.74,-275.9 637.02,-266.68 657.55,-251 695.29,-222.18 705.09,-209.22 719.55,-164 738.15,-105.86 663.54,-59.1 618.89,-36.94"/>
<polygon fill="black" stroke="black" points="620.39,-33.78 609.86,-32.59 617.35,-40.09 620.39,-33.78"/>
<text text-anchor="middle" x="735.05" y="-152.8" font-family="Times,serif" font-size="14.00">{c1}</text>
</g>
<!-- 1&#45;&gt;1 -->
<g id="edge14" class="edge">
<title>1&#45;&gt;1</title>
<path fill="none" stroke="black" d="M467.09,-207.75C478.06,-208.49 487.55,-205.91 487.55,-200 487.55,-196.03 483.27,-193.56 477.13,-192.59"/>
<polygon fill="black" stroke="black" points="477.2,-189.09 467.09,-192.25 476.96,-196.09 477.2,-189.09"/>
<text text-anchor="middle" x="494.55" y="-196.3" font-family="Times,serif" font-size="14.00">{}</text>
</g>
<!-- 1&#45;&gt;2 -->
<g id="edge15" class="edge">
<title>1&#45;&gt;2</title>
<path fill="none" stroke="black" d="M440.77,-181.96C439.36,-159.98 439.98,-121.43 457.55,-95 483.87,-55.42 509.4,-65.96 551.55,-44 554.14,-42.65 556.8,-41.21 559.46,-39.73"/>
<polygon fill="black" stroke="black" points="561.36,-42.68 568.31,-34.68 557.89,-36.6 561.36,-42.68"/>
<text text-anchor="middle" x="481.05" y="-109.3" font-family="Times,serif" font-size="14.00">{c0, c2}</text>
</g>
<!-- 1&#45;&gt;2 -->
<g id="edge16" class="edge">
<title>1&#45;&gt;2</title>
<path fill="none" stroke="black" d="M456.46,-184.46C469.28,-170.91 488.65,-149.98 504.55,-131 528.15,-102.83 553.67,-69.07 570.1,-46.89"/>
<polygon fill="black" stroke="black" points="573.02,-48.83 576.13,-38.7 567.38,-44.67 573.02,-48.83"/>
<text text-anchor="middle" x="546.05" y="-109.3" font-family="Times,serif" font-size="14.00">{c0}</text>
</g>
<!-- 1&#45;&gt;2 -->
<g id="edge17" class="edge">
<title>1&#45;&gt;2</title>
<path fill="none" stroke="black" d="M467.06,-191.94C494.85,-182.63 539.42,-163.5 563.55,-131 581.03,-107.46 586.2,-73.6 587.52,-50.1"/>
<polygon fill="black" stroke="black" points="591.02,-50.22 587.89,-40.1 584.03,-49.96 591.02,-50.22"/>
<text text-anchor="middle" x="593.05" y="-109.3" font-family="Times,serif" font-size="14.00">{c2}</text>
</g>
<!-- 3 -->
<g id="node5" class="node">
<title>3</title>
<ellipse fill="none" stroke="black" cx="261.55" cy="-113" rx="27" ry="18"/>
<text text-anchor="middle" x="261.55" y="-109.3" font-family="Times,serif" font-size="14.00">3</text>
</g>
<!-- 1&#45;&gt;3 -->
<g id="edge10" class="edge">
<title>1&#45;&gt;3</title>
<path fill="none" stroke="black" d="M415.63,-197.5C350.47,-193.58 188.47,-182.11 172.55,-164 153.82,-142.68 193.36,-128.46 225.6,-120.81"/>
<polygon fill="black" stroke="black" points="226.72,-124.15 235.72,-118.56 225.2,-117.31 226.72,-124.15"/>
<text text-anchor="middle" x="206.05" y="-152.8" font-family="Times,serif" font-size="14.00">{c0, c1, c2}</text>
</g>
<!-- 1&#45;&gt;3 -->
<g id="edge11" class="edge">
<title>1&#45;&gt;3</title>
<path fill="none" stroke="black" d="M415.64,-197.77C370.33,-195.08 281.87,-186.96 262.55,-164 257.29,-157.74 255.76,-149.32 255.94,-141.17"/>
<polygon fill="black" stroke="black" points="259.42,-141.47 256.92,-131.18 252.46,-140.79 259.42,-141.47"/>
<text text-anchor="middle" x="286.05" y="-152.8" font-family="Times,serif" font-size="14.00">{c1, c2}</text>
</g>
<!-- 1&#45;&gt;3 -->
<g id="edge12" class="edge">
<title>1&#45;&gt;3</title>
<path fill="none" stroke="black" d="M417.25,-193.29C394.39,-187.6 360.2,-177.72 332.55,-164 327.71,-161.59 305.98,-146.17 287.82,-133.08"/>
<polygon fill="black" stroke="black" points="289.44,-129.93 279.29,-126.91 285.34,-135.61 289.44,-129.93"/>
<text text-anchor="middle" x="356.05" y="-152.8" font-family="Times,serif" font-size="14.00">{c0, c1}</text>
</g>
<!-- 1&#45;&gt;3 -->
<g id="edge13" class="edge">
<title>1&#45;&gt;3</title>
<path fill="none" stroke="black" d="M426.8,-185.35C411.6,-172.4 389.46,-154.15 379.55,-149 353.51,-135.46 321.44,-126.37 297.31,-120.86"/>
<polygon fill="black" stroke="black" points="298.01,-117.43 287.49,-118.71 296.51,-124.26 298.01,-117.43"/>
<text text-anchor="middle" x="414.05" y="-152.8" font-family="Times,serif" font-size="14.00">{c1}</text>
</g>
<!-- 2&#45;&gt;2 -->
<g id="edge34" class="edge">
<title>2&#45;&gt;2</title>
<path fill="none" stroke="black" d="M614.79,-23.5C624.58,-23.53 632.55,-23.03 632.55,-22 632.55,-21.37 629.59,-20.94 625.06,-20.71"/>
<polygon fill="black" stroke="black" points="624.86,-17.2 614.79,-20.5 624.72,-24.2 624.86,-17.2"/>
<text text-anchor="middle" x="666.05" y="-18.3" font-family="Times,serif" font-size="14.00">{c0, c1, c2}</text>
</g>
<!-- 2&#45;&gt;2 -->
<g id="edge35" class="edge">
<title>2&#45;&gt;2</title>
<path fill="none" stroke="black" d="M614.45,-24.27C648.9,-25.74 699.55,-24.98 699.55,-22 699.55,-19.3 657.95,-18.42 624.51,-19.37"/>
<polygon fill="black" stroke="black" points="624.32,-15.88 614.45,-19.73 624.57,-22.87 624.32,-15.88"/>
<text text-anchor="middle" x="723.05" y="-18.3" font-family="Times,serif" font-size="14.00">{c0, c2}</text>
</g>
<!-- 2&#45;&gt;2 -->
<g id="edge36" class="edge">
<title>2&#45;&gt;2</title>
<path fill="none" stroke="black" d="M614.32,-24.87C661.91,-27.76 746.55,-26.8 746.55,-22 746.55,-17.52 673.09,-16.39 624.56,-18.59"/>
<polygon fill="black" stroke="black" points="624.12,-15.11 614.32,-19.13 624.49,-22.1 624.12,-15.11"/>
<text text-anchor="middle" x="760.05" y="-18.3" font-family="Times,serif" font-size="14.00">{c0}</text>
</g>
<!-- 2&#45;&gt;2 -->
<g id="edge37" class="edge">
<title>2&#45;&gt;2</title>
<path fill="none" stroke="black" d="M614.21,-25.45C669.12,-29.76 773.55,-28.61 773.55,-22 773.55,-15.78 681,-14.4 624.34,-17.85"/>
<polygon fill="black" stroke="black" points="623.94,-14.37 614.21,-18.55 624.42,-21.35 623.94,-14.37"/>
<text text-anchor="middle" x="797.05" y="-18.3" font-family="Times,serif" font-size="14.00">{c0, c1}</text>
</g>
<!-- 2&#45;&gt;2 -->
<g id="edge38" class="edge">
<title>2&#45;&gt;2</title>
<path fill="none" stroke="black" d="M614.02,-25.79C679.87,-31.78 820.55,-30.52 820.55,-22 820.55,-13.9 693.28,-12.36 624.18,-17.38"/>
<polygon fill="black" stroke="black" points="623.71,-13.91 614.02,-18.21 624.28,-20.89 623.71,-13.91"/>
<text text-anchor="middle" x="834.05" y="-18.3" font-family="Times,serif" font-size="14.00">{c1}</text>
</g>
<!-- 2&#45;&gt;2 -->
<g id="edge39" class="edge">
<title>2&#45;&gt;2</title>
<path fill="none" stroke="black" d="M614.07,-26.2C686.6,-33.78 847.55,-32.38 847.55,-22 847.55,-12.08 700.73,-10.36 624.35,-16.83"/>
<polygon fill="black" stroke="black" points="623.69,-13.38 614.07,-17.8 624.35,-20.35 623.69,-13.38"/>
<text text-anchor="middle" x="861.05" y="-18.3" font-family="Times,serif" font-size="14.00">{c2}</text>
</g>
<!-- 2&#45;&gt;2 -->
<g id="edge40" class="edge">
<title>2&#45;&gt;2</title>
<path fill="none" stroke="black" d="M613.73,-26.5C692.65,-35.79 874.55,-34.29 874.55,-22 874.55,-10.2 706.93,-8.35 623.69,-16.43"/>
<polygon fill="black" stroke="black" points="623.31,-12.96 613.73,-17.5 624.05,-19.92 623.31,-12.96"/>
<text text-anchor="middle" x="898.05" y="-18.3" font-family="Times,serif" font-size="14.00">{c1, c2}</text>
</g>
<!-- 2&#45;&gt;2 -->
<g id="edge41" class="edge">
<title>2&#45;&gt;2</title>
<path fill="none" stroke="black" d="M613.79,-26.71C702.31,-37.81 921.55,-36.23 921.55,-22 921.55,-8.28 717.87,-6.32 623.88,-16.13"/>
<polygon fill="black" stroke="black" points="623.33,-12.68 613.79,-17.29 624.13,-19.63 623.33,-12.68"/>
<text text-anchor="middle" x="928.55" y="-18.3" font-family="Times,serif" font-size="14.00">{}</text>
</g>
<!-- 3&#45;&gt;2 -->
<g id="edge31" class="edge">
<title>3&#45;&gt;2</title>
<path fill="none" stroke="black" d="M264.79,-94.69C267.86,-83.43 273.7,-69.48 284.55,-62 333.52,-28.25 494.7,-61.44 551.55,-44 554.57,-43.07 557.6,-41.86 560.56,-40.47"/>
<polygon fill="black" stroke="black" points="562.45,-43.43 569.63,-35.63 559.16,-37.25 562.45,-43.43"/>
<text text-anchor="middle" x="298.05" y="-65.8" font-family="Times,serif" font-size="14.00">{c1}</text>
</g>
<!-- 3&#45;&gt;2 -->
<g id="edge32" class="edge">
<title>3&#45;&gt;2</title>
<path fill="none" stroke="black" d="M279.69,-99.23C300.3,-84.78 331.48,-63.09 334.55,-62 425.74,-29.58 459.26,-73.1 551.55,-44 554.56,-43.05 557.59,-41.82 560.54,-40.42"/>
<polygon fill="black" stroke="black" points="562.44,-43.37 569.61,-35.57 559.14,-37.2 562.44,-43.37"/>
<text text-anchor="middle" x="348.05" y="-65.8" font-family="Times,serif" font-size="14.00">{c2}</text>
</g>
<!-- 3&#45;&gt;2 -->
<g id="edge33" class="edge">
<title>3&#45;&gt;2</title>
<path fill="none" stroke="black" d="M286.06,-105.23C306.72,-99.1 336.8,-89.18 361.55,-77 372.5,-71.61 373.06,-66.1 384.55,-62 454.87,-36.92 480.64,-67.32 551.55,-44 554.55,-43.01 557.57,-41.76 560.52,-40.35"/>
<polygon fill="black" stroke="black" points="562.43,-43.29 569.58,-35.47 559.11,-37.13 562.43,-43.29"/>
<text text-anchor="middle" x="408.05" y="-65.8" font-family="Times,serif" font-size="14.00">{c1, c2}</text>
</g>
<!-- 3&#45;&gt;3 -->
<g id="edge26" class="edge">
<title>3&#45;&gt;3</title>
<path fill="none" stroke="black" d="M286.09,-120.75C297.06,-121.49 306.55,-118.91 306.55,-113 306.55,-109.03 302.27,-106.56 296.13,-105.59"/>
<polygon fill="black" stroke="black" points="296.2,-102.09 286.09,-105.25 295.96,-109.09 296.2,-102.09"/>
<text text-anchor="middle" x="313.55" y="-109.3" font-family="Times,serif" font-size="14.00">{}</text>
</g>
<!-- 4 -->
<g id="node6" class="node">
<title>4</title>
<ellipse fill="none" stroke="black" cx="73.55" cy="-22" rx="18" ry="18"/>
<ellipse fill="none" stroke="black" cx="73.55" cy="-22" rx="22" ry="22"/>
<text text-anchor="middle" x="73.55" y="-18.3" font-family="Times,serif" font-size="14.00">4</text>
</g>
<!-- 3&#45;&gt;4 -->
<g id="edge27" class="edge">
<title>3&#45;&gt;4</title>
<path fill="none" stroke="black" d="M234.29,-112.58C174.37,-113.2 34.17,-110.92 4.55,-77 -11.08,-59.09 18.08,-42.93 43.17,-33.05"/>
<polygon fill="black" stroke="black" points="44.68,-36.22 52.84,-29.46 42.24,-29.66 44.68,-36.22"/>
<text text-anchor="middle" x="28.05" y="-65.8" font-family="Times,serif" font-size="14.00">{c0, c2}</text>
</g>
<!-- 3&#45;&gt;4 -->
<g id="edge28" class="edge">
<title>3&#45;&gt;4</title>
<path fill="none" stroke="black" d="M234.71,-111C188.01,-108.63 94.82,-100.96 74.55,-77 69.09,-70.54 67.35,-61.92 67.39,-53.46"/>
<polygon fill="black" stroke="black" points="70.89,-53.64 68.2,-43.39 63.91,-53.08 70.89,-53.64"/>
<text text-anchor="middle" x="108.05" y="-65.8" font-family="Times,serif" font-size="14.00">{c0, c1, c2}</text>
</g>
<!-- 3&#45;&gt;4 -->
<g id="edge29" class="edge">
<title>3&#45;&gt;4</title>
<path fill="none" stroke="black" d="M236.99,-104.88C216.98,-98.66 188.27,-88.81 164.55,-77 153.63,-71.56 151.96,-68.37 141.55,-62 128.51,-54.02 113.82,-45.53 101.44,-38.52"/>
<polygon fill="black" stroke="black" points="102.91,-35.33 92.48,-33.47 99.48,-41.43 102.91,-35.33"/>
<text text-anchor="middle" x="188.05" y="-65.8" font-family="Times,serif" font-size="14.00">{c0, c1}</text>
</g>
<!-- 3&#45;&gt;4 -->
<g id="edge30" class="edge">
<title>3&#45;&gt;4</title>
<path fill="none" stroke="black" d="M249.58,-96.33C240.33,-85.24 226.59,-70.82 211.55,-62 178.27,-42.48 134.71,-32.3 105.52,-27.31"/>
<polygon fill="black" stroke="black" points="105.89,-23.82 95.46,-25.7 104.78,-30.73 105.89,-23.82"/>
<text text-anchor="middle" x="244.05" y="-65.8" font-family="Times,serif" font-size="14.00">{c0}</text>
</g>
<!-- 4&#45;&gt;4 -->
<g id="edge2" class="edge">
<title>4&#45;&gt;4</title>
<path fill="none" stroke="black" d="M95.77,-23.48C105.35,-23.6 113.55,-23.11 113.55,-22 113.55,-21.32 110.51,-20.88 105.96,-20.66"/>
<polygon fill="black" stroke="black" points="105.81,-17.16 95.77,-20.52 105.72,-24.15 105.81,-17.16"/>
<text text-anchor="middle" x="120.55" y="-18.3" font-family="Times,serif" font-size="14.00">{}</text>
</g>
<!-- 4&#45;&gt;4 -->
<g id="edge3" class="edge">
<title>4&#45;&gt;4</title>
<path fill="none" stroke="black" d="M95.57,-24.58C113.28,-25.61 131.55,-24.75 131.55,-22 131.55,-19.79 119.72,-18.8 105.87,-19.03"/>
<polygon fill="black" stroke="black" points="105.43,-15.55 95.57,-19.42 105.7,-22.54 105.43,-15.55"/>
<text text-anchor="middle" x="155.05" y="-18.3" font-family="Times,serif" font-size="14.00">{c0, c2}</text>
</g>
<!-- 4&#45;&gt;4 -->
<g id="edge4" class="edge">
<title>4&#45;&gt;4</title>
<path fill="none" stroke="black" d="M95.58,-25C128.95,-27.73 178.55,-26.73 178.55,-22 178.55,-17.73 138.17,-16.5 105.76,-18.31"/>
<polygon fill="black" stroke="black" points="105.32,-14.83 95.58,-19 105.79,-21.81 105.32,-14.83"/>
<text text-anchor="middle" x="202.05" y="-18.3" font-family="Times,serif" font-size="14.00">{c0, c1}</text>
</g>
<!-- 4&#45;&gt;4 -->
<g id="edge5" class="edge">
<title>4&#45;&gt;4</title>
<path fill="none" stroke="black" d="M95.58,-25.32C141.63,-29.78 225.55,-28.67 225.55,-22 225.55,-15.8 153.01,-14.4 105.82,-17.82"/>
<polygon fill="black" stroke="black" points="105.26,-14.35 95.58,-18.68 105.84,-21.33 105.26,-14.35"/>
<text text-anchor="middle" x="249.05" y="-18.3" font-family="Times,serif" font-size="14.00">{c1, c2}</text>
</g>
<!-- 4&#45;&gt;4 -->
<g id="edge6" class="edge">
<title>4&#45;&gt;4</title>
<path fill="none" stroke="black" d="M95.49,-25.58C152.61,-31.81 272.55,-30.61 272.55,-22 272.55,-13.87 165.82,-12.35 105.77,-17.43"/>
<polygon fill="black" stroke="black" points="105.11,-13.98 95.49,-18.42 105.78,-20.95 105.11,-13.98"/>
<text text-anchor="middle" x="286.05" y="-18.3" font-family="Times,serif" font-size="14.00">{c0}</text>
</g>
<!-- 4&#45;&gt;4 -->
<g id="edge7" class="edge">
<title>4&#45;&gt;4</title>
<path fill="none" stroke="black" d="M95.28,-25.88C159.07,-33.82 299.55,-32.52 299.55,-22 299.55,-12.01 172.98,-10.34 105.56,-16.98"/>
<polygon fill="black" stroke="black" points="104.83,-13.54 95.28,-18.12 105.6,-20.49 104.83,-13.54"/>
<text text-anchor="middle" x="313.05" y="-18.3" font-family="Times,serif" font-size="14.00">{c1}</text>
</g>
<!-- 4&#45;&gt;4 -->
<g id="edge8" class="edge">
<title>4&#45;&gt;4</title>
<path fill="none" stroke="black" d="M95.27,-26.16C165.71,-35.83 326.55,-34.44 326.55,-22 326.55,-10.12 179.84,-8.32 105.29,-16.61"/>
<polygon fill="black" stroke="black" points="104.77,-13.15 95.27,-17.84 105.63,-20.09 104.77,-13.15"/>
<text text-anchor="middle" x="360.05" y="-18.3" font-family="Times,serif" font-size="14.00">{c0, c1, c2}</text>
</g>
<!-- 4&#45;&gt;4 -->
<g id="edge9" class="edge">
<title>4&#45;&gt;4</title>
<path fill="none" stroke="black" d="M95.31,-26.23C178.06,-37.85 393.55,-36.44 393.55,-22 393.55,-8.11 194.16,-6.28 105.32,-16.5"/>
<polygon fill="black" stroke="black" points="104.79,-13.04 95.31,-17.77 105.67,-19.98 104.79,-13.04"/>
<text text-anchor="middle" x="407.05" y="-18.3" font-family="Times,serif" font-size="14.00">{c2}</text>
</g>
</g>
</svg>
