<?xml version="1.0" encoding="UTF-8" standalone="no"?>
<!DOCTYPE svg PUBLIC "-//W3C//DTD SVG 1.1//EN"
 "http://www.w3.org/Graphics/SVG/1.1/DTD/svg11.dtd">
<!-- Generated by graphviz version 2.43.0 (0)
 -->
<!-- Title: %3 Pages: 1 -->
<svg width="1053pt" height="386pt"
 viewBox="0.00 0.00 1053.29 386.00" xmlns="http://www.w3.org/2000/svg" xmlns:xlink="http://www.w3.org/1999/xlink">
<g id="graph0" class="graph" transform="scale(1 1) rotate(0) translate(4 382)">
<title>%3</title>
<polygon fill="white" stroke="transparent" points="-4,4 -4,-382 1049.29,-382 1049.29,4 -4,4"/>
<!-- fake -->
<g id="node1" class="node">
<title>fake</title>
</g>
<!-- 0 -->
<g id="node2" class="node">
<title>0</title>
<ellipse fill="none" stroke="black" cx="578.29" cy="-287" rx="27" ry="18"/>
<text text-anchor="middle" x="578.29" y="-283.3" font-family="Times,serif" font-size="14.00">0</text>
</g>
<!-- fake&#45;&gt;0 -->
<g id="edge1" class="edge">
<title>fake&#45;&gt;0</title>
<path fill="none" stroke="black" stroke-width="2" d="M578.29,-341.81C578.29,-333.79 578.29,-324.05 578.29,-315.07"/>
<polygon fill="black" stroke="black" stroke-width="2" points="581.79,-315.03 578.29,-305.03 574.79,-315.03 581.79,-315.03"/>
</g>
<!-- 0&#45;&gt;0 -->
<g id="edge14" class="edge">
<title>0&#45;&gt;0</title>
<path fill="none" stroke="black" d="M603.74,-293.69C614.32,-294.15 623.29,-291.92 623.29,-287 623.29,-283.77 619.43,-281.7 613.78,-280.79"/>
<polygon fill="black" stroke="black" points="613.89,-277.29 603.74,-280.31 613.56,-284.28 613.89,-277.29"/>
<text text-anchor="middle" x="630.29" y="-283.3" font-family="Times,serif" font-size="14.00">{}</text>
</g>
<!-- 1 -->
<g id="node3" class="node">
<title>1</title>
<ellipse fill="none" stroke="black" cx="445.29" cy="-200" rx="27" ry="18"/>
<text text-anchor="middle" x="445.29" y="-196.3" font-family="Times,serif" font-size="14.00">1</text>
</g>
<!-- 0&#45;&gt;1 -->
<g id="edge10" class="edge">
<title>0&#45;&gt;1</title>
<path fill="none" stroke="black" d="M551.12,-285.62C499.93,-284.26 392.29,-278.17 369.29,-251 353.75,-232.64 383.6,-218.43 410.33,-209.93"/>
<polygon fill="black" stroke="black" points="411.37,-213.27 419.95,-207.06 409.37,-206.56 411.37,-213.27"/>
<text text-anchor="middle" x="402.79" y="-239.8" font-family="Times,serif" font-size="14.00">{c0, c1, c2}</text>
</g>
<!-- 0&#45;&gt;1 -->
<g id="edge11" class="edge">
<title>0&#45;&gt;1</title>
<path fill="none" stroke="black" d="M551.35,-285.31C524.44,-283.16 483.65,-275.68 459.29,-251 453.33,-244.96 449.86,-236.59 447.85,-228.42"/>
<polygon fill="black" stroke="black" points="451.26,-227.6 446.02,-218.39 444.37,-228.85 451.26,-227.6"/>
<text text-anchor="middle" x="472.79" y="-239.8" font-family="Times,serif" font-size="14.00">{c0}</text>
</g>
<!-- 0&#45;&gt;1 -->
<g id="edge12" class="edge">
<title>0&#45;&gt;1</title>
<path fill="none" stroke="black" d="M556.57,-276.31C542.67,-269.79 524.48,-260.66 509.29,-251 495.41,-242.17 480.89,-231.01 469.19,-221.46"/>
<polygon fill="black" stroke="black" points="471.16,-218.55 461.22,-214.86 466.69,-223.94 471.16,-218.55"/>
<text text-anchor="middle" x="532.79" y="-239.8" font-family="Times,serif" font-size="14.00">{c0, c2}</text>
</g>
<!-- 0&#45;&gt;1 -->
<g id="edge13" class="edge">
<title>0&#45;&gt;1</title>
<path fill="none" stroke="black" d="M574.65,-269.02C571.5,-258.18 565.9,-244.61 556.29,-236 535.85,-217.67 505.83,-208.94 482.17,-204.78"/>
<polygon fill="black" stroke="black" points="482.55,-201.3 472.13,-203.22 481.47,-208.21 482.55,-201.3"/>
<text text-anchor="middle" x="589.79" y="-239.8" font-family="Times,serif" font-size="14.00">{c0, c1}</text>
</g>
<!-- 2 -->
<g id="node4" class="node">
<title>2</title>
<ellipse fill="none" stroke="black" cx="571.29" cy="-22" rx="27" ry="18"/>
<text text-anchor="middle" x="571.29" y="-18.3" font-family="Times,serif" font-size="14.00">2</text>
</g>
<!-- 0&#45;&gt;2 -->
<g id="edge15" class="edge">
<title>0&#45;&gt;2</title>
<path fill="none" stroke="black" d="M597.49,-274.07C605.16,-268.17 613.14,-260.31 617.29,-251 622.82,-238.62 665.84,-269.89 615.29,-95 610.19,-77.34 599.51,-59.69 589.96,-46.28"/>
<polygon fill="black" stroke="black" points="592.68,-44.08 583.91,-38.13 587.05,-48.25 592.68,-44.08"/>
<text text-anchor="middle" x="645.79" y="-152.8" font-family="Times,serif" font-size="14.00">{c2}</text>
</g>
<!-- 0&#45;&gt;2 -->
<g id="edge16" class="edge">
<title>0&#45;&gt;2</title>
<path fill="none" stroke="black" d="M601.75,-277.66C614.73,-271.96 630.23,-263.21 640.29,-251 669.85,-215.14 674.28,-194.15 663.29,-149 653,-106.7 645.59,-95.91 618.29,-62 612.46,-54.76 605.11,-47.9 597.97,-42.02"/>
<polygon fill="black" stroke="black" points="599.8,-39.01 589.78,-35.59 595.48,-44.51 599.8,-39.01"/>
<text text-anchor="middle" x="679.79" y="-152.8" font-family="Times,serif" font-size="14.00">{c1}</text>
</g>
<!-- 0&#45;&gt;2 -->
<g id="edge17" class="edge">
<title>0&#45;&gt;2</title>
<path fill="none" stroke="black" d="M603.16,-279.63C620.42,-274.24 643.12,-265.09 659.29,-251 695.76,-219.21 710.4,-195.57 697.29,-149 684.57,-103.79 672.93,-92.6 637.29,-62 626.61,-52.83 613.5,-44.59 601.78,-38.06"/>
<polygon fill="black" stroke="black" points="603.22,-34.86 592.75,-33.21 599.91,-41.03 603.22,-34.86"/>
<text text-anchor="middle" x="723.79" y="-152.8" font-family="Times,serif" font-size="14.00">{c1, c2}</text>
</g>
<!-- 1&#45;&gt;1 -->
<g id="edge27" class="edge">
<title>1&#45;&gt;1</title>
<path fill="none" stroke="black" d="M469.83,-207.75C480.8,-208.49 490.29,-205.91 490.29,-200 490.29,-196.03 486.01,-193.56 479.87,-192.59"/>
<polygon fill="black" stroke="black" points="479.94,-189.09 469.83,-192.25 479.7,-196.09 479.94,-189.09"/>
<text text-anchor="middle" x="497.29" y="-196.3" font-family="Times,serif" font-size="14.00">{}</text>
</g>
<!-- 1&#45;&gt;2 -->
<g id="edge31" class="edge">
<title>1&#45;&gt;2</title>
<path fill="none" stroke="black" d="M444.2,-181.76C443.58,-160.24 444.98,-122.88 459.29,-95 477.87,-58.81 499.04,-62.45 535.29,-44 537.89,-42.68 540.57,-41.25 543.23,-39.78"/>
<polygon fill="black" stroke="black" points="545.12,-42.73 552.09,-34.75 541.66,-36.65 545.12,-42.73"/>
<text text-anchor="middle" x="472.79" y="-109.3" font-family="Times,serif" font-size="14.00">{c2}</text>
</g>
<!-- 1&#45;&gt;2 -->
<g id="edge32" class="edge">
<title>1&#45;&gt;2</title>
<path fill="none" stroke="black" d="M456.47,-183.38C478.61,-152.46 528.13,-83.29 554.31,-46.71"/>
<polygon fill="black" stroke="black" points="557.16,-48.75 560.14,-38.58 551.47,-44.68 557.16,-48.75"/>
<text text-anchor="middle" x="531.79" y="-109.3" font-family="Times,serif" font-size="14.00">{c0}</text>
</g>
<!-- 1&#45;&gt;2 -->
<g id="edge33" class="edge">
<title>1&#45;&gt;2</title>
<path fill="none" stroke="black" d="M468.24,-190.31C492.33,-179.95 529.42,-160.27 549.29,-131 565.53,-107.08 570.26,-73.78 571.42,-50.5"/>
<polygon fill="black" stroke="black" points="574.92,-50.37 571.73,-40.27 567.93,-50.16 574.92,-50.37"/>
<text text-anchor="middle" x="587.79" y="-109.3" font-family="Times,serif" font-size="14.00">{c0, c2}</text>
</g>
<!-- 3 -->
<g id="node5" class="node">
<title>3</title>
<ellipse fill="none" stroke="black" cx="263.29" cy="-113" rx="27" ry="18"/>
<text text-anchor="middle" x="263.29" y="-109.3" font-family="Times,serif" font-size="14.00">3</text>
</g>
<!-- 1&#45;&gt;3 -->
<g id="edge26" class="edge">
<title>1&#45;&gt;3</title>
<path fill="none" stroke="black" d="M418.27,-197.5C352.87,-193.61 190.27,-182.17 174.29,-164 155.55,-142.68 195.1,-128.47 227.33,-120.81"/>
<polygon fill="black" stroke="black" points="228.46,-124.15 237.46,-118.56 226.94,-117.31 228.46,-124.15"/>
<text text-anchor="middle" x="207.79" y="-152.8" font-family="Times,serif" font-size="14.00">{c0, c1, c2}</text>
</g>
<!-- 1&#45;&gt;3 -->
<g id="edge28" class="edge">
<title>1&#45;&gt;3</title>
<path fill="none" stroke="black" d="M418.23,-197.8C372.67,-195.14 283.72,-187.07 264.29,-164 259.02,-157.74 257.5,-149.32 257.67,-141.17"/>
<polygon fill="black" stroke="black" points="261.16,-141.47 258.65,-131.18 254.19,-140.79 261.16,-141.47"/>
<text text-anchor="middle" x="287.79" y="-152.8" font-family="Times,serif" font-size="14.00">{c1, c2}</text>
</g>
<!-- 1&#45;&gt;3 -->
<g id="edge29" class="edge">
<title>1&#45;&gt;3</title>
<path fill="none" stroke="black" d="M419.75,-193.33C396.69,-187.66 362.18,-177.8 334.29,-164 329.44,-161.6 307.72,-146.18 289.56,-133.09"/>
<polygon fill="black" stroke="black" points="291.18,-129.94 281.02,-126.92 287.08,-135.61 291.18,-129.94"/>
<text text-anchor="middle" x="357.79" y="-152.8" font-family="Times,serif" font-size="14.00">{c0, c1}</text>
</g>
<!-- 1&#45;&gt;3 -->
<g id="edge30" class="edge">
<title>1&#45;&gt;3</title>
<path fill="none" stroke="black" d="M429.27,-185.36C413.81,-172.41 391.32,-154.17 381.29,-149 355.2,-135.55 323.13,-126.46 299.01,-120.92"/>
<polygon fill="black" stroke="black" points="299.72,-117.49 289.2,-118.76 298.22,-124.33 299.72,-117.49"/>
<text text-anchor="middle" x="415.79" y="-152.8" font-family="Times,serif" font-size="14.00">{c1}</text>
</g>
<!-- 2&#45;&gt;2 -->
<g id="edge34" class="edge">
<title>2&#45;&gt;2</title>
<path fill="none" stroke="black" d="M598.53,-23.5C608.32,-23.53 616.29,-23.03 616.29,-22 616.29,-21.37 613.33,-20.94 608.8,-20.71"/>
<polygon fill="black" stroke="black" points="608.6,-17.2 598.53,-20.5 608.46,-24.2 608.6,-17.2"/>
<text text-anchor="middle" x="629.79" y="-18.3" font-family="Times,serif" font-size="14.00">{c2}</text>
</g>
<!-- 2&#45;&gt;2 -->
<g id="edge35" class="edge">
<title>2&#45;&gt;2</title>
<path fill="none" stroke="black" d="M598.04,-24.61C619.73,-25.59 643.29,-24.72 643.29,-22 643.29,-19.71 626.52,-18.73 608.25,-19.06"/>
<polygon fill="black" stroke="black" points="607.93,-15.57 598.04,-19.39 608.15,-22.57 607.93,-15.57"/>
<text text-anchor="middle" x="656.79" y="-18.3" font-family="Times,serif" font-size="14.00">{c1}</text>
</g>
<!-- 2&#45;&gt;2 -->
<g id="edge36" class="edge">
<title>2&#45;&gt;2</title>
<path fill="none" stroke="black" d="M598.15,-25.37C629.79,-27.62 670.29,-26.5 670.29,-22 670.29,-17.97 637.89,-16.65 608.4,-18.03"/>
<polygon fill="black" stroke="black" points="607.93,-14.55 598.15,-18.62 608.34,-21.54 607.93,-14.55"/>
<text text-anchor="middle" x="693.79" y="-18.3" font-family="Times,serif" font-size="14.00">{c1, c2}</text>
</g>
<!-- 2&#45;&gt;2 -->
<g id="edge37" class="edge">
<title>2&#45;&gt;2</title>
<path fill="none" stroke="black" d="M598.01,-25.74C643.77,-29.7 717.29,-28.45 717.29,-22 717.29,-16 653.74,-14.5 608.04,-17.5"/>
<polygon fill="black" stroke="black" points="607.72,-14.01 598.01,-18.26 608.25,-20.99 607.72,-14.01"/>
<text text-anchor="middle" x="730.79" y="-18.3" font-family="Times,serif" font-size="14.00">{c0}</text>
</g>
<!-- 2&#45;&gt;2 -->
<g id="edge38" class="edge">
<title>2&#45;&gt;2</title>
<path fill="none" stroke="black" d="M597.9,-26.19C651.53,-31.72 744.29,-30.32 744.29,-22 744.29,-14.18 662.42,-12.48 608.04,-16.88"/>
<polygon fill="black" stroke="black" points="607.54,-13.41 597.9,-17.81 608.18,-20.38 607.54,-13.41"/>
<text text-anchor="middle" x="751.29" y="-18.3" font-family="Times,serif" font-size="14.00">{}</text>
</g>
<!-- 2&#45;&gt;2 -->
<g id="edge39" class="edge">
<title>2&#45;&gt;2</title>
<path fill="none" stroke="black" d="M597.61,-26.6C656.9,-33.73 762.29,-32.2 762.29,-22 762.29,-12.36 668.12,-10.47 607.73,-16.31"/>
<polygon fill="black" stroke="black" points="607.17,-12.85 597.61,-17.4 607.93,-19.81 607.17,-12.85"/>
<text text-anchor="middle" x="785.79" y="-18.3" font-family="Times,serif" font-size="14.00">{c0, c1}</text>
</g>
<!-- 2&#45;&gt;2 -->
<g id="edge40" class="edge">
<title>2&#45;&gt;2</title>
<path fill="none" stroke="black" d="M597.58,-26.78C668.03,-35.76 809.29,-34.17 809.29,-22 809.29,-10.4 680.96,-8.41 607.93,-16.03"/>
<polygon fill="black" stroke="black" points="607.11,-12.6 597.58,-17.22 607.91,-19.55 607.11,-12.6"/>
<text text-anchor="middle" x="832.79" y="-18.3" font-family="Times,serif" font-size="14.00">{c0, c2}</text>
</g>
<!-- 2&#45;&gt;2 -->
<g id="edge41" class="edge">
<title>2&#45;&gt;2</title>
<path fill="none" stroke="black" d="M597.47,-26.93C678.21,-37.78 856.29,-36.14 856.29,-22 856.29,-8.43 692.18,-6.37 607.62,-15.83"/>
<polygon fill="black" stroke="black" points="606.97,-12.38 597.47,-17.07 607.82,-19.33 606.97,-12.38"/>
<text text-anchor="middle" x="889.79" y="-18.3" font-family="Times,serif" font-size="14.00">{c0, c1, c2}</text>
</g>
<!-- 3&#45;&gt;2 -->
<g id="edge23" class="edge">
<title>3&#45;&gt;2</title>
<path fill="none" stroke="black" d="M265.84,-94.75C268.46,-83.51 273.74,-69.57 284.29,-62 329.73,-29.4 481.87,-60.52 535.29,-44 538.31,-43.07 541.34,-41.85 544.29,-40.46"/>
<polygon fill="black" stroke="black" points="546.19,-43.41 553.36,-35.61 542.89,-37.24 546.19,-43.41"/>
<text text-anchor="middle" x="297.79" y="-65.8" font-family="Times,serif" font-size="14.00">{c1}</text>
</g>
<!-- 3&#45;&gt;2 -->
<g id="edge24" class="edge">
<title>3&#45;&gt;2</title>
<path fill="none" stroke="black" d="M280.93,-99.24C300.96,-84.79 331.28,-63.1 334.29,-62 418.5,-31.12 449.84,-71.25 535.29,-44 538.3,-43.04 541.32,-41.8 544.28,-40.4"/>
<polygon fill="black" stroke="black" points="546.18,-43.35 553.34,-35.54 542.87,-37.18 546.18,-43.35"/>
<text text-anchor="middle" x="347.79" y="-65.8" font-family="Times,serif" font-size="14.00">{c0}</text>
</g>
<!-- 3&#45;&gt;2 -->
<g id="edge25" class="edge">
<title>3&#45;&gt;2</title>
<path fill="none" stroke="black" d="M287.7,-105.04C307.94,-98.86 337.18,-88.96 361.29,-77 372.23,-71.58 372.82,-66.16 384.29,-62 447.82,-38.93 471.21,-65.48 535.29,-44 538.28,-43 541.3,-41.73 544.25,-40.31"/>
<polygon fill="black" stroke="black" points="546.16,-43.25 553.3,-35.43 542.84,-37.09 546.16,-43.25"/>
<text text-anchor="middle" x="407.79" y="-65.8" font-family="Times,serif" font-size="14.00">{c0, c1}</text>
</g>
<!-- 3&#45;&gt;3 -->
<g id="edge22" class="edge">
<title>3&#45;&gt;3</title>
<path fill="none" stroke="black" d="M287.83,-120.75C298.8,-121.49 308.29,-118.91 308.29,-113 308.29,-109.03 304.01,-106.56 297.87,-105.59"/>
<polygon fill="black" stroke="black" points="297.94,-102.09 287.83,-105.25 297.7,-109.09 297.94,-102.09"/>
<text text-anchor="middle" x="315.29" y="-109.3" font-family="Times,serif" font-size="14.00">{}</text>
</g>
<!-- 4 -->
<g id="node6" class="node">
<title>4</title>
<ellipse fill="none" stroke="black" cx="57.29" cy="-22" rx="18" ry="18"/>
<ellipse fill="none" stroke="black" cx="57.29" cy="-22" rx="22" ry="22"/>
<text text-anchor="middle" x="57.29" y="-18.3" font-family="Times,serif" font-size="14.00">4</text>
</g>
<!-- 3&#45;&gt;4 -->
<g id="edge18" class="edge">
<title>3&#45;&gt;4</title>
<path fill="none" stroke="black" d="M236.27,-112.61C176.14,-113.32 34.23,-111.25 4.29,-77 -8.11,-62.8 10.05,-47.55 28.4,-36.89"/>
<polygon fill="black" stroke="black" points="30.18,-39.91 37.29,-32.05 26.84,-33.76 30.18,-39.91"/>
<text text-anchor="middle" x="27.79" y="-65.8" font-family="Times,serif" font-size="14.00">{c1, c2}</text>
</g>
<!-- 3&#45;&gt;4 -->
<g id="edge19" class="edge">
<title>3&#45;&gt;4</title>
<path fill="none" stroke="black" d="M236.45,-110.38C190.16,-107.06 97.97,-97.95 74.29,-77 67.57,-71.05 63.49,-62.48 61.01,-53.91"/>
<polygon fill="black" stroke="black" points="64.39,-53 58.77,-44.01 57.56,-54.54 64.39,-53"/>
<text text-anchor="middle" x="97.79" y="-65.8" font-family="Times,serif" font-size="14.00">{c0, c2}</text>
</g>
<!-- 3&#45;&gt;4 -->
<g id="edge20" class="edge">
<title>3&#45;&gt;4</title>
<path fill="none" stroke="black" d="M237.91,-106.8C213.28,-101.24 175.19,-91.25 144.29,-77 133.21,-71.89 131.62,-68.51 121.29,-62 109.31,-54.44 95.94,-46.26 84.53,-39.35"/>
<polygon fill="black" stroke="black" points="86.24,-36.29 75.87,-34.11 82.62,-42.28 86.24,-36.29"/>
<text text-anchor="middle" x="177.79" y="-65.8" font-family="Times,serif" font-size="14.00">{c0, c1, c2}</text>
</g>
<!-- 3&#45;&gt;4 -->
<g id="edge21" class="edge">
<title>3&#45;&gt;4</title>
<path fill="none" stroke="black" d="M251.2,-96.69C241.54,-85.48 227.06,-70.76 211.29,-62 172.62,-40.53 121.97,-30.65 89.52,-26.27"/>
<polygon fill="black" stroke="black" points="89.61,-22.76 79.25,-24.99 88.74,-29.7 89.61,-22.76"/>
<text text-anchor="middle" x="244.79" y="-65.8" font-family="Times,serif" font-size="14.00">{c2}</text>
</g>
<!-- 4&#45;&gt;4 -->
<g id="edge2" class="edge">
<title>4&#45;&gt;4</title>
<path fill="none" stroke="black" d="M79.5,-23.48C89.09,-23.6 97.29,-23.11 97.29,-22 97.29,-21.32 94.25,-20.88 89.7,-20.66"/>
<polygon fill="black" stroke="black" points="89.55,-17.16 79.5,-20.52 89.46,-24.15 89.55,-17.16"/>
<text text-anchor="middle" x="120.79" y="-18.3" font-family="Times,serif" font-size="14.00">{c0, c2}</text>
</g>
<!-- 4&#45;&gt;4 -->
<g id="edge3" class="edge">
<title>4&#45;&gt;4</title>
<path fill="none" stroke="black" d="M79.47,-24.27C106.63,-25.74 144.29,-24.98 144.29,-22 144.29,-19.38 115.2,-18.47 89.71,-19.29"/>
<polygon fill="black" stroke="black" points="89.31,-15.8 79.47,-19.73 89.61,-22.8 89.31,-15.8"/>
<text text-anchor="middle" x="167.79" y="-18.3" font-family="Times,serif" font-size="14.00">{c0, c1}</text>
</g>
<!-- 4&#45;&gt;4 -->
<g id="edge4" class="edge">
<title>4&#45;&gt;4</title>
<path fill="none" stroke="black" d="M79.36,-24.76C119.9,-27.78 191.29,-26.86 191.29,-22 191.29,-17.52 130.62,-16.38 89.38,-18.6"/>
<polygon fill="black" stroke="black" points="89.12,-15.11 79.36,-19.24 89.56,-22.1 89.12,-15.11"/>
<text text-anchor="middle" x="198.29" y="-18.3" font-family="Times,serif" font-size="14.00">{}</text>
</g>
<!-- 4&#45;&gt;4 -->
<g id="edge5" class="edge">
<title>4&#45;&gt;4</title>
<path fill="none" stroke="black" d="M79.32,-25.32C125.37,-29.78 209.29,-28.67 209.29,-22 209.29,-15.8 136.75,-14.4 89.56,-17.82"/>
<polygon fill="black" stroke="black" points="89,-14.35 79.32,-18.68 89.58,-21.33 89,-14.35"/>
<text text-anchor="middle" x="222.79" y="-18.3" font-family="Times,serif" font-size="14.00">{c1}</text>
</g>
<!-- 4&#45;&gt;4 -->
<g id="edge6" class="edge">
<title>4&#45;&gt;4</title>
<path fill="none" stroke="black" d="M79.28,-25.71C132.62,-31.79 236.29,-30.55 236.29,-22 236.29,-13.96 144.79,-12.39 89.48,-17.27"/>
<polygon fill="black" stroke="black" points="88.88,-13.81 79.28,-18.29 89.58,-20.77 88.88,-13.81"/>
<text text-anchor="middle" x="269.79" y="-18.3" font-family="Times,serif" font-size="14.00">{c0, c1, c2}</text>
</g>
<!-- 4&#45;&gt;4 -->
<g id="edge7" class="edge">
<title>4&#45;&gt;4</title>
<path fill="none" stroke="black" d="M79.4,-25.83C146.74,-33.82 303.29,-32.55 303.29,-22 303.29,-11.95 161.07,-10.32 89.43,-17.11"/>
<polygon fill="black" stroke="black" points="88.98,-13.63 79.4,-18.17 89.71,-20.6 88.98,-13.63"/>
<text text-anchor="middle" x="316.79" y="-18.3" font-family="Times,serif" font-size="14.00">{c2}</text>
</g>
<!-- 4&#45;&gt;4 -->
<g id="edge8" class="edge">
<title>4&#45;&gt;4</title>
<path fill="none" stroke="black" d="M79.22,-26.09C152.88,-35.83 330.29,-34.47 330.29,-22 330.29,-10.07 167.8,-8.31 89.26,-16.71"/>
<polygon fill="black" stroke="black" points="88.73,-13.25 79.22,-17.91 89.56,-20.2 88.73,-13.25"/>
<text text-anchor="middle" x="343.79" y="-18.3" font-family="Times,serif" font-size="14.00">{c0}</text>
</g>
<!-- 4&#45;&gt;4 -->
<g id="edge9" class="edge">
<title>4&#45;&gt;4</title>
<path fill="none" stroke="black" d="M79.03,-26.3C158.94,-37.84 357.29,-36.41 357.29,-22 357.29,-8.17 174.51,-6.29 89.18,-16.37"/>
<polygon fill="black" stroke="black" points="88.5,-12.93 79.03,-17.7 89.4,-19.87 88.5,-12.93"/>
<text text-anchor="middle" x="380.79" y="-18.3" font-family="Times,serif" font-size="14.00">{c1, c2}</text>
</g>
</g>
</svg>
