<?xml version="1.0" encoding="UTF-8" standalone="no"?>
<!DOCTYPE svg PUBLIC "-//W3C//DTD SVG 1.1//EN"
 "http://www.w3.org/Graphics/SVG/1.1/DTD/svg11.dtd">
<!-- Generated by graphviz version 2.43.0 (0)
 -->
<!-- Title: %3 Pages: 1 -->
<svg width="2547pt" height="475pt"
 viewBox="0.00 0.00 2547.36 475.44" xmlns="http://www.w3.org/2000/svg" xmlns:xlink="http://www.w3.org/1999/xlink">
<g id="graph0" class="graph" transform="scale(1 1) rotate(0) translate(4 471.44)">
<title>%3</title>
<polygon fill="white" stroke="transparent" points="-4,4 -4,-471.44 2543.36,-471.44 2543.36,4 -4,4"/>
<!-- fake -->
<g id="node1" class="node">
<title>fake</title>
</g>
<!-- 0 -->
<g id="node2" class="node">
<title>0</title>
<ellipse fill="none" stroke="black" cx="1805.36" cy="-376.44" rx="27" ry="18"/>
<text text-anchor="middle" x="1805.36" y="-372.74" font-family="Times,serif" font-size="14.00">0</text>
</g>
<!-- fake&#45;&gt;0 -->
<g id="edge1" class="edge">
<title>fake&#45;&gt;0</title>
<path fill="none" stroke="black" stroke-width="2" d="M1805.36,-431.25C1805.36,-423.23 1805.36,-413.49 1805.36,-404.51"/>
<polygon fill="black" stroke="black" stroke-width="2" points="1808.86,-404.47 1805.36,-394.47 1801.86,-404.47 1808.86,-404.47"/>
</g>
<!-- 0&#45;&gt;0 -->
<g id="edge24" class="edge">
<title>0&#45;&gt;0</title>
<path fill="none" stroke="black" d="M1830.81,-383.13C1841.39,-383.59 1850.36,-381.36 1850.36,-376.44 1850.36,-373.21 1846.5,-371.14 1840.85,-370.23"/>
<polygon fill="black" stroke="black" points="1840.96,-366.73 1830.81,-369.75 1840.63,-373.72 1840.96,-366.73"/>
<text text-anchor="middle" x="1857.36" y="-372.74" font-family="Times,serif" font-size="14.00">{}</text>
</g>
<!-- 1 -->
<g id="node3" class="node">
<title>1</title>
<ellipse fill="none" stroke="black" cx="1463.36" cy="-289.44" rx="27" ry="18"/>
<text text-anchor="middle" x="1463.36" y="-285.74" font-family="Times,serif" font-size="14.00">1</text>
</g>
<!-- 0&#45;&gt;1 -->
<g id="edge18" class="edge">
<title>0&#45;&gt;1</title>
<path fill="none" stroke="black" d="M1778.29,-375.83C1672.55,-377.08 1291.42,-378.86 1255.36,-340.44 1250.8,-335.58 1251.06,-330.53 1255.36,-325.44 1276.81,-300.08 1372.31,-293.09 1426.14,-291.16"/>
<polygon fill="black" stroke="black" points="1426.43,-294.66 1436.32,-290.84 1426.21,-287.66 1426.43,-294.66"/>
<text text-anchor="middle" x="1288.86" y="-329.24" font-family="Times,serif" font-size="14.00">{c0, c1, c3}</text>
</g>
<!-- 0&#45;&gt;1 -->
<g id="edge19" class="edge">
<title>0&#45;&gt;1</title>
<path fill="none" stroke="black" d="M1778.32,-375.47C1684.17,-375.29 1374.87,-372.27 1345.36,-340.44 1319.04,-312.04 1383.05,-299.14 1426.74,-293.8"/>
<polygon fill="black" stroke="black" points="1427.25,-297.26 1436.79,-292.65 1426.46,-290.31 1427.25,-297.26"/>
<text text-anchor="middle" x="1389.36" y="-329.24" font-family="Times,serif" font-size="14.00">{c0, c1, c2, c3}</text>
</g>
<!-- 0&#45;&gt;1 -->
<g id="edge20" class="edge">
<title>0&#45;&gt;1</title>
<path fill="none" stroke="black" d="M1778.25,-374.77C1699.97,-372.55 1477.86,-364.2 1456.36,-340.44 1450.53,-333.99 1450.27,-325.03 1452.14,-316.48"/>
<polygon fill="black" stroke="black" points="1455.52,-317.38 1455.1,-306.8 1448.83,-315.34 1455.52,-317.38"/>
<text text-anchor="middle" x="1489.86" y="-329.24" font-family="Times,serif" font-size="14.00">{c0, c2, c3}</text>
</g>
<!-- 0&#45;&gt;1 -->
<g id="edge21" class="edge">
<title>0&#45;&gt;1</title>
<path fill="none" stroke="black" d="M1778.33,-375.65C1730.15,-375.19 1626.95,-370.42 1546.36,-340.44 1534.93,-336.18 1533.75,-331.85 1523.36,-325.44 1513.23,-319.18 1501.98,-312.54 1491.99,-306.75"/>
<polygon fill="black" stroke="black" points="1493.65,-303.67 1483.24,-301.7 1490.15,-309.73 1493.65,-303.67"/>
<text text-anchor="middle" x="1569.86" y="-329.24" font-family="Times,serif" font-size="14.00">{c2, c3}</text>
</g>
<!-- 0&#45;&gt;1 -->
<g id="edge22" class="edge">
<title>0&#45;&gt;1</title>
<path fill="none" stroke="black" d="M1778.46,-373.79C1740.95,-370.76 1671.36,-362.44 1616.36,-340.44 1605.03,-335.91 1604.51,-330.42 1593.36,-325.44 1563.04,-311.88 1526.31,-302.59 1499.64,-297"/>
<polygon fill="black" stroke="black" points="1500.09,-293.52 1489.59,-294.98 1498.7,-300.38 1500.09,-293.52"/>
<text text-anchor="middle" x="1639.86" y="-329.24" font-family="Times,serif" font-size="14.00">{c0, c3}</text>
</g>
<!-- 0&#45;&gt;1 -->
<g id="edge23" class="edge">
<title>0&#45;&gt;1</title>
<path fill="none" stroke="black" d="M1779.98,-370.24C1755.35,-364.68 1717.26,-354.68 1686.36,-340.44 1675.28,-335.33 1674.72,-329.92 1663.36,-325.44 1609.06,-304.03 1541.33,-295.67 1500.27,-292.44"/>
<polygon fill="black" stroke="black" points="1500.4,-288.94 1490.17,-291.71 1499.89,-295.92 1500.4,-288.94"/>
<text text-anchor="middle" x="1699.86" y="-329.24" font-family="Times,serif" font-size="14.00">{c3}</text>
</g>
<!-- 0&#45;&gt;1 -->
<g id="edge25" class="edge">
<title>0&#45;&gt;1</title>
<path fill="none" stroke="black" d="M1783.91,-365.3C1770.13,-358.61 1751.95,-349.44 1736.36,-340.44 1725.8,-334.34 1724.79,-329.72 1713.36,-325.44 1641.33,-298.45 1550.56,-292.02 1500.6,-290.64"/>
<polygon fill="black" stroke="black" points="1500.66,-287.14 1490.58,-290.42 1500.5,-294.14 1500.66,-287.14"/>
<text text-anchor="middle" x="1759.86" y="-329.24" font-family="Times,serif" font-size="14.00">{c1, c3}</text>
</g>
<!-- 0&#45;&gt;1 -->
<g id="edge26" class="edge">
<title>0&#45;&gt;1</title>
<path fill="none" stroke="black" d="M1802.38,-358.29C1799.49,-347.1 1793.92,-333.18 1783.36,-325.44 1739.22,-293.08 1575.3,-289.75 1500.73,-289.97"/>
<polygon fill="black" stroke="black" points="1500.38,-286.47 1490.4,-290.02 1500.42,-293.47 1500.38,-286.47"/>
<text text-anchor="middle" x="1828.86" y="-329.24" font-family="Times,serif" font-size="14.00">{c1, c2, c3}</text>
</g>
<!-- 2 -->
<g id="node4" class="node">
<title>2</title>
<ellipse fill="none" stroke="black" cx="1464.36" cy="-24.44" rx="27" ry="18"/>
<text text-anchor="middle" x="1464.36" y="-20.74" font-family="Times,serif" font-size="14.00">2</text>
</g>
<!-- 0&#45;&gt;2 -->
<g id="edge27" class="edge">
<title>0&#45;&gt;2</title>
<path fill="none" stroke="black" d="M1829.68,-368.21C1843.04,-362.85 1858.47,-354.07 1866.36,-340.44 1869.71,-334.67 1867.77,-331.95 1866.36,-325.44 1842.01,-212.9 1828.76,-174.67 1743.36,-97.44 1675.08,-35.68 1560.78,-25.51 1501.92,-24.67"/>
<polygon fill="black" stroke="black" points="1501.61,-21.17 1491.59,-24.61 1501.57,-28.17 1501.61,-21.17"/>
<text text-anchor="middle" x="1860.86" y="-198.74" font-family="Times,serif" font-size="14.00">{c1, c2}</text>
</g>
<!-- 0&#45;&gt;2 -->
<g id="edge28" class="edge">
<title>0&#45;&gt;2</title>
<path fill="none" stroke="black" d="M1830.16,-368.83C1863.43,-358.3 1918.36,-334.26 1918.36,-290.44 1918.36,-290.44 1918.36,-290.44 1918.36,-114.44 1918.36,-29.71 1610.02,-24.19 1501.56,-24.87"/>
<polygon fill="black" stroke="black" points="1501.38,-21.37 1491.4,-24.95 1501.43,-28.37 1501.38,-21.37"/>
<text text-anchor="middle" x="1931.86" y="-198.74" font-family="Times,serif" font-size="14.00">{c2}</text>
</g>
<!-- 0&#45;&gt;2 -->
<g id="edge29" class="edge">
<title>0&#45;&gt;2</title>
<path fill="none" stroke="black" d="M1832.48,-374.4C1881.85,-370.91 1981.36,-355.76 1981.36,-290.44 1981.36,-290.44 1981.36,-290.44 1981.36,-114.44 1981.36,-70.61 1938.09,-77.85 1896.36,-64.44 1823.18,-40.92 1591.96,-30.11 1501.32,-26.7"/>
<polygon fill="black" stroke="black" points="1501.36,-23.19 1491.24,-26.32 1501.1,-30.19 1501.36,-23.19"/>
<text text-anchor="middle" x="1994.86" y="-198.74" font-family="Times,serif" font-size="14.00">{c0}</text>
</g>
<!-- 0&#45;&gt;2 -->
<g id="edge30" class="edge">
<title>0&#45;&gt;2</title>
<path fill="none" stroke="black" d="M1832.23,-373.53C1866.85,-370.27 1928.31,-361.78 1976.36,-340.44 2010.65,-325.21 2044.36,-327.95 2044.36,-290.44 2044.36,-290.44 2044.36,-290.44 2044.36,-114.44 2044.36,-63.15 1989.86,-77.87 1940.36,-64.44 1857.74,-42.02 1598.67,-30.39 1501.59,-26.73"/>
<polygon fill="black" stroke="black" points="1501.5,-23.23 1491.38,-26.36 1501.24,-30.22 1501.5,-23.23"/>
<text text-anchor="middle" x="2077.86" y="-198.74" font-family="Times,serif" font-size="14.00">{c0, c1, c2}</text>
</g>
<!-- 0&#45;&gt;2 -->
<g id="edge31" class="edge">
<title>0&#45;&gt;2</title>
<path fill="none" stroke="black" d="M1832.49,-374.5C1913.38,-370.99 2147.36,-355.21 2147.36,-290.44 2147.36,-290.44 2147.36,-290.44 2147.36,-114.44 2147.36,-48.74 1644.09,-30.25 1501.57,-26.34"/>
<polygon fill="black" stroke="black" points="1501.65,-22.84 1491.56,-26.07 1501.46,-29.83 1501.65,-22.84"/>
<text text-anchor="middle" x="2170.86" y="-198.74" font-family="Times,serif" font-size="14.00">{c0, c2}</text>
</g>
<!-- 0&#45;&gt;2 -->
<g id="edge32" class="edge">
<title>0&#45;&gt;2</title>
<path fill="none" stroke="black" d="M1832.6,-375.81C1926.4,-376.37 2230.36,-371.89 2230.36,-290.44 2230.36,-290.44 2230.36,-290.44 2230.36,-114.44 2230.36,-40.24 1655.98,-27.81 1501.98,-25.81"/>
<polygon fill="black" stroke="black" points="1501.67,-22.3 1491.63,-25.68 1501.58,-29.3 1501.67,-22.3"/>
<text text-anchor="middle" x="2243.86" y="-198.74" font-family="Times,serif" font-size="14.00">{c1}</text>
</g>
<!-- 0&#45;&gt;2 -->
<g id="edge33" class="edge">
<title>0&#45;&gt;2</title>
<path fill="none" stroke="black" d="M1832.28,-374.53C1909.99,-371.68 2133.65,-361.81 2203.36,-340.44 2247.11,-327.03 2293.36,-336.2 2293.36,-290.44 2293.36,-290.44 2293.36,-290.44 2293.36,-114.44 2293.36,-33.7 1663.62,-26.09 1501.87,-25.47"/>
<polygon fill="black" stroke="black" points="1501.49,-21.97 1491.48,-25.44 1501.46,-28.97 1501.49,-21.97"/>
<text text-anchor="middle" x="2316.86" y="-198.74" font-family="Times,serif" font-size="14.00">{c0, c1}</text>
</g>
<!-- 1&#45;&gt;1 -->
<g id="edge36" class="edge">
<title>1&#45;&gt;1</title>
<path fill="none" stroke="black" d="M1487.9,-297.19C1498.87,-297.93 1508.36,-295.35 1508.36,-289.44 1508.36,-285.47 1504.08,-283 1497.94,-282.03"/>
<polygon fill="black" stroke="black" points="1498.01,-278.53 1487.9,-281.69 1497.77,-285.53 1498.01,-278.53"/>
<text text-anchor="middle" x="1515.36" y="-285.74" font-family="Times,serif" font-size="14.00">{}</text>
</g>
<!-- 1&#45;&gt;2 -->
<g id="edge43" class="edge">
<title>1&#45;&gt;2</title>
<path fill="none" stroke="black" d="M1459.05,-271.52C1450.47,-237.08 1432.63,-161.24 1439.36,-151.44 1452.04,-133.01 1473.69,-151.87 1486.36,-133.44 1495.43,-120.26 1488.73,-113.26 1486.36,-97.44 1484.04,-81.88 1479.04,-65.04 1474.39,-51.56"/>
<polygon fill="black" stroke="black" points="1477.63,-50.22 1470.96,-41.99 1471.04,-52.58 1477.63,-50.22"/>
<text text-anchor="middle" x="1452.86" y="-155.24" font-family="Times,serif" font-size="14.00">{c3}</text>
</g>
<!-- 1&#45;&gt;2 -->
<g id="edge44" class="edge">
<title>1&#45;&gt;2</title>
<path fill="none" stroke="black" d="M1465.7,-271.04C1470.14,-239.17 1480.18,-172.79 1489.36,-151.44 1493.27,-142.37 1499.33,-142.83 1502.36,-133.44 1507.29,-118.21 1504.26,-113.33 1502.36,-97.44 1500.57,-82.45 1500.89,-78.05 1494.36,-64.44 1491.67,-58.81 1488.07,-53.22 1484.3,-48.11"/>
<polygon fill="black" stroke="black" points="1486.87,-45.71 1477.93,-40.02 1481.37,-50.04 1486.87,-45.71"/>
<text text-anchor="middle" x="1522.86" y="-155.24" font-family="Times,serif" font-size="14.00">{c0, c1, c3}</text>
</g>
<!-- 1&#45;&gt;2 -->
<g id="edge45" class="edge">
<title>1&#45;&gt;2</title>
<path fill="none" stroke="black" d="M1479.03,-274.57C1501.28,-253.72 1541.03,-211.86 1556.36,-166.44 1572.76,-117.88 1523.54,-69.7 1490.9,-44.15"/>
<polygon fill="black" stroke="black" points="1492.68,-41.12 1482.6,-37.86 1488.45,-46.69 1492.68,-41.12"/>
<text text-anchor="middle" x="1582.86" y="-155.24" font-family="Times,serif" font-size="14.00">{c1, c3}</text>
</g>
<!-- 1&#45;&gt;2 -->
<g id="edge46" class="edge">
<title>1&#45;&gt;2</title>
<path fill="none" stroke="black" d="M1485.2,-278.66C1519.95,-261.69 1586.34,-223.08 1610.36,-166.44 1635.91,-106.22 1547.65,-59.2 1497.19,-37.89"/>
<polygon fill="black" stroke="black" points="1498.23,-34.54 1487.65,-33.98 1495.57,-41.01 1498.23,-34.54"/>
<text text-anchor="middle" x="1626.86" y="-155.24" font-family="Times,serif" font-size="14.00">{c0}</text>
</g>
<!-- 1&#45;&gt;2 -->
<g id="edge47" class="edge">
<title>1&#45;&gt;2</title>
<path fill="none" stroke="black" d="M1488.1,-281.92C1531.75,-268.8 1620.16,-234.45 1644.36,-166.44 1669.65,-95.38 1558.24,-52.13 1499.12,-34.55"/>
<polygon fill="black" stroke="black" points="1500,-31.16 1489.42,-31.76 1498.06,-37.89 1500,-31.16"/>
<text text-anchor="middle" x="1660.86" y="-155.24" font-family="Times,serif" font-size="14.00">{c1}</text>
</g>
<!-- 1&#45;&gt;2 -->
<g id="edge48" class="edge">
<title>1&#45;&gt;2</title>
<path fill="none" stroke="black" d="M1489.39,-284.39C1540.25,-274.8 1650.31,-245.28 1678.36,-166.44 1707.38,-84.9 1568.75,-45.87 1500.49,-31.82"/>
<polygon fill="black" stroke="black" points="1501.06,-28.37 1490.57,-29.85 1499.69,-35.23 1501.06,-28.37"/>
<text text-anchor="middle" x="1704.86" y="-155.24" font-family="Times,serif" font-size="14.00">{c0, c1}</text>
</g>
<!-- 1&#45;&gt;2 -->
<g id="edge49" class="edge">
<title>1&#45;&gt;2</title>
<path fill="none" stroke="black" d="M1490.2,-286.86C1549.43,-281.67 1689.51,-259.62 1732.36,-166.44 1776.71,-70.02 1584.48,-37.99 1501.2,-28.75"/>
<polygon fill="black" stroke="black" points="1501.45,-25.26 1491.14,-27.69 1500.71,-32.22 1501.45,-25.26"/>
<text text-anchor="middle" x="1759.86" y="-155.24" font-family="Times,serif" font-size="14.00">{c0, c3}</text>
</g>
<!-- 3 -->
<g id="node5" class="node">
<title>3</title>
<ellipse fill="none" stroke="black" cx="1007.36" cy="-202.44" rx="27" ry="18"/>
<text text-anchor="middle" x="1007.36" y="-198.74" font-family="Times,serif" font-size="14.00">3</text>
</g>
<!-- 1&#45;&gt;3 -->
<g id="edge34" class="edge">
<title>1&#45;&gt;3</title>
<path fill="none" stroke="black" d="M1436.41,-287.97C1318.44,-285.78 852.46,-275.74 831.36,-253.44 789.9,-209.62 906.84,-203.3 969.96,-202.95"/>
<polygon fill="black" stroke="black" points="969.97,-206.45 979.96,-202.95 969.96,-199.45 969.97,-206.45"/>
<text text-anchor="middle" x="864.86" y="-242.24" font-family="Times,serif" font-size="14.00">{c1, c2, c3}</text>
</g>
<!-- 1&#45;&gt;3 -->
<g id="edge35" class="edge">
<title>1&#45;&gt;3</title>
<path fill="none" stroke="black" d="M1436.33,-288.8C1331.62,-289.93 956.83,-291.27 921.36,-253.44 902.5,-233.32 940.65,-218.84 972.01,-210.8"/>
<polygon fill="black" stroke="black" points="972.98,-214.16 981.88,-208.41 971.33,-207.36 972.98,-214.16"/>
<text text-anchor="middle" x="944.86" y="-242.24" font-family="Times,serif" font-size="14.00">{c0, c2}</text>
</g>
<!-- 1&#45;&gt;3 -->
<g id="edge37" class="edge">
<title>1&#45;&gt;3</title>
<path fill="none" stroke="black" d="M1436.28,-288.52C1340.48,-288.55 1021.73,-286.14 991.36,-253.44 984.83,-246.4 986.39,-236.68 990.48,-227.69"/>
<polygon fill="black" stroke="black" points="993.67,-229.16 995.43,-218.71 987.54,-225.78 993.67,-229.16"/>
<text text-anchor="middle" x="1004.86" y="-242.24" font-family="Times,serif" font-size="14.00">{c2}</text>
</g>
<!-- 1&#45;&gt;3 -->
<g id="edge38" class="edge">
<title>1&#45;&gt;3</title>
<path fill="none" stroke="black" d="M1436.38,-287.54C1348.67,-284.45 1075.42,-273.31 1041.36,-253.44 1031.84,-247.88 1024.41,-238.47 1018.96,-229.31"/>
<polygon fill="black" stroke="black" points="1021.98,-227.53 1014.16,-220.37 1015.81,-230.84 1021.98,-227.53"/>
<text text-anchor="middle" x="1085.36" y="-242.24" font-family="Times,serif" font-size="14.00">{c0, c1, c2, c3}</text>
</g>
<!-- 1&#45;&gt;3 -->
<g id="edge39" class="edge">
<title>1&#45;&gt;3</title>
<path fill="none" stroke="black" d="M1436.54,-287.01C1371.04,-283.28 1204.52,-272.18 1152.36,-253.44 1140.88,-249.31 1140.46,-243.51 1129.36,-238.44 1101.48,-225.7 1067.87,-216.47 1043,-210.7"/>
<polygon fill="black" stroke="black" points="1043.44,-207.21 1032.91,-208.43 1041.9,-214.04 1043.44,-207.21"/>
<text text-anchor="middle" x="1185.86" y="-242.24" font-family="Times,serif" font-size="14.00">{c0, c2, c3}</text>
</g>
<!-- 1&#45;&gt;3 -->
<g id="edge40" class="edge">
<title>1&#45;&gt;3</title>
<path fill="none" stroke="black" d="M1436.24,-287.77C1393.59,-285.93 1308.89,-279.05 1242.36,-253.44 1230.98,-249.05 1230.74,-242.86 1219.36,-238.44 1160.91,-215.71 1087.79,-207.74 1044.48,-204.95"/>
<polygon fill="black" stroke="black" points="1044.59,-201.45 1034.4,-204.36 1044.18,-208.43 1044.59,-201.45"/>
<text text-anchor="middle" x="1265.86" y="-242.24" font-family="Times,serif" font-size="14.00">{c1, c2}</text>
</g>
<!-- 1&#45;&gt;3 -->
<g id="edge41" class="edge">
<title>1&#45;&gt;3</title>
<path fill="none" stroke="black" d="M1437.12,-285.2C1406.3,-280.75 1354.08,-271.21 1312.36,-253.44 1301.14,-248.65 1300.83,-242.63 1289.36,-238.44 1205.79,-207.87 1099.99,-203 1044.77,-202.79"/>
<polygon fill="black" stroke="black" points="1044.74,-199.29 1034.75,-202.81 1044.75,-206.29 1044.74,-199.29"/>
<text text-anchor="middle" x="1335.86" y="-242.24" font-family="Times,serif" font-size="14.00">{c2, c3}</text>
</g>
<!-- 1&#45;&gt;3 -->
<g id="edge42" class="edge">
<title>1&#45;&gt;3</title>
<path fill="none" stroke="black" d="M1440.53,-279.78C1424.03,-273.24 1401.39,-263.66 1382.36,-253.44 1371.61,-247.66 1370.88,-242.49 1359.36,-238.44 1302.03,-218.26 1122.92,-208.36 1044.62,-204.91"/>
<polygon fill="black" stroke="black" points="1044.41,-201.4 1034.27,-204.46 1044.11,-208.39 1044.41,-201.4"/>
<text text-anchor="middle" x="1415.86" y="-242.24" font-family="Times,serif" font-size="14.00">{c0, c1, c2}</text>
</g>
<!-- 2&#45;&gt;2 -->
<g id="edge82" class="edge">
<title>2&#45;&gt;2</title>
<path fill="none" stroke="black" d="M1491.61,-25.94C1501.39,-25.97 1509.36,-25.47 1509.36,-24.44 1509.36,-23.81 1506.4,-23.38 1501.88,-23.15"/>
<polygon fill="black" stroke="black" points="1501.67,-19.64 1491.61,-22.94 1501.53,-26.64 1501.67,-19.64"/>
<text text-anchor="middle" x="1532.86" y="-20.74" font-family="Times,serif" font-size="14.00">{c1, c2}</text>
</g>
<!-- 2&#45;&gt;2 -->
<g id="edge83" class="edge">
<title>2&#45;&gt;2</title>
<path fill="none" stroke="black" d="M1491.26,-26.86C1519.69,-28.12 1556.36,-27.31 1556.36,-24.44 1556.36,-21.9 1527.78,-20.97 1501.52,-21.66"/>
<polygon fill="black" stroke="black" points="1501.13,-18.17 1491.26,-22.01 1501.37,-25.16 1501.13,-18.17"/>
<text text-anchor="middle" x="1569.86" y="-20.74" font-family="Times,serif" font-size="14.00">{c3}</text>
</g>
<!-- 2&#45;&gt;2 -->
<g id="edge84" class="edge">
<title>2&#45;&gt;2</title>
<path fill="none" stroke="black" d="M1491.18,-27.61C1528.61,-30.13 1583.36,-29.07 1583.36,-24.44 1583.36,-20.21 1537.61,-18.96 1501.17,-20.7"/>
<polygon fill="black" stroke="black" points="1500.97,-17.2 1491.18,-21.27 1501.37,-24.19 1500.97,-17.2"/>
<text text-anchor="middle" x="1616.86" y="-20.74" font-family="Times,serif" font-size="14.00">{c0, c1, c3}</text>
</g>
<!-- 2&#45;&gt;2 -->
<g id="edge85" class="edge">
<title>2&#45;&gt;2</title>
<path fill="none" stroke="black" d="M1491.02,-27.89C1545.93,-32.2 1650.36,-31.05 1650.36,-24.44 1650.36,-18.22 1557.81,-16.83 1501.15,-20.29"/>
<polygon fill="black" stroke="black" points="1500.75,-16.81 1491.02,-20.99 1501.24,-23.79 1500.75,-16.81"/>
<text text-anchor="middle" x="1673.86" y="-20.74" font-family="Times,serif" font-size="14.00">{c1, c3}</text>
</g>
<!-- 2&#45;&gt;2 -->
<g id="edge86" class="edge">
<title>2&#45;&gt;2</title>
<path fill="none" stroke="black" d="M1490.84,-28.23C1556.68,-34.22 1697.36,-32.95 1697.36,-24.44 1697.36,-16.34 1570.09,-14.8 1500.99,-19.82"/>
<polygon fill="black" stroke="black" points="1500.52,-16.35 1490.84,-20.65 1501.09,-23.33 1500.52,-16.35"/>
<text text-anchor="middle" x="1741.36" y="-20.74" font-family="Times,serif" font-size="14.00">{c0, c1, c2, c3}</text>
</g>
<!-- 2&#45;&gt;2 -->
<g id="edge87" class="edge">
<title>2&#45;&gt;2</title>
<path fill="none" stroke="black" d="M1490.8,-28.35C1573.58,-36.25 1785.36,-34.95 1785.36,-24.44 1785.36,-14.33 1589.41,-12.74 1500.8,-19.66"/>
<polygon fill="black" stroke="black" points="1500.46,-16.18 1490.8,-20.53 1501.06,-23.15 1500.46,-16.18"/>
<text text-anchor="middle" x="1818.86" y="-20.74" font-family="Times,serif" font-size="14.00">{c0, c2, c3}</text>
</g>
<!-- 2&#45;&gt;2 -->
<g id="edge88" class="edge">
<title>2&#45;&gt;2</title>
<path fill="none" stroke="black" d="M1490.86,-28.56C1585.64,-38.27 1852.36,-36.89 1852.36,-24.44 1852.36,-12.4 1603.06,-10.71 1500.85,-19.39"/>
<polygon fill="black" stroke="black" points="1500.49,-15.9 1490.86,-20.32 1501.14,-22.87 1500.49,-15.9"/>
<text text-anchor="middle" x="1865.86" y="-20.74" font-family="Times,serif" font-size="14.00">{c2}</text>
</g>
<!-- 2&#45;&gt;2 -->
<g id="edge89" class="edge">
<title>2&#45;&gt;2</title>
<path fill="none" stroke="black" d="M1490.68,-28.86C1591.02,-40.27 1879.36,-38.8 1879.36,-24.44 1879.36,-10.54 1609.3,-8.72 1500.95,-18.96"/>
<polygon fill="black" stroke="black" points="1500.27,-15.51 1490.68,-20.02 1500.99,-22.47 1500.27,-15.51"/>
<text text-anchor="middle" x="1902.86" y="-20.74" font-family="Times,serif" font-size="14.00">{c2, c3}</text>
</g>
<!-- 2&#45;&gt;2 -->
<g id="edge90" class="edge">
<title>2&#45;&gt;2</title>
<path fill="none" stroke="black" d="M1490.69,-29.07C1599.38,-42.28 1926.36,-40.73 1926.36,-24.44 1926.36,-8.62 1618.26,-6.7 1500.79,-18.69"/>
<polygon fill="black" stroke="black" points="1500.24,-15.22 1490.69,-19.81 1501.01,-22.18 1500.24,-15.22"/>
<text text-anchor="middle" x="1939.86" y="-20.74" font-family="Times,serif" font-size="14.00">{c0}</text>
</g>
<!-- 2&#45;&gt;2 -->
<g id="edge91" class="edge">
<title>2&#45;&gt;2</title>
<path fill="none" stroke="black" d="M1490.54,-29.3C1604.7,-44.28 1953.36,-42.66 1953.36,-24.44 1953.36,-6.73 1624.17,-4.7 1500.79,-18.35"/>
<polygon fill="black" stroke="black" points="1500.05,-14.91 1490.54,-19.58 1500.88,-21.86 1500.05,-14.91"/>
<text text-anchor="middle" x="1986.86" y="-20.74" font-family="Times,serif" font-size="14.00">{c1, c2, c3}</text>
</g>
<!-- 2&#45;&gt;2 -->
<g id="edge92" class="edge">
<title>2&#45;&gt;2</title>
<path fill="none" stroke="black" d="M1490.53,-29.41C1615.04,-46.29 2020.36,-44.63 2020.36,-24.44 2020.36,-4.76 1635.36,-2.68 1500.54,-18.22"/>
<polygon fill="black" stroke="black" points="1500.02,-14.76 1490.53,-19.47 1500.88,-21.7 1500.02,-14.76"/>
<text text-anchor="middle" x="2053.86" y="-20.74" font-family="Times,serif" font-size="14.00">{c0, c1, c2}</text>
</g>
<!-- 2&#45;&gt;2 -->
<g id="edge93" class="edge">
<title>2&#45;&gt;2</title>
<path fill="none" stroke="black" d="M1490.46,-29.51C1624.79,-48.3 2087.36,-46.61 2087.36,-24.44 2087.36,-2.79 1646.22,-0.67 1500.43,-18.08"/>
<polygon fill="black" stroke="black" points="1499.93,-14.62 1490.46,-19.37 1500.82,-21.56 1499.93,-14.62"/>
<text text-anchor="middle" x="2110.86" y="-20.74" font-family="Times,serif" font-size="14.00">{c0, c2}</text>
</g>
<!-- 2&#45;&gt;2 -->
<g id="edge94" class="edge">
<title>2&#45;&gt;2</title>
<path fill="none" stroke="black" d="M1490.59,-29.67C1632.58,-50.3 2134.36,-48.56 2134.36,-24.44 2134.36,-0.86 1654.87,1.34 1500.69,-17.85"/>
<polygon fill="black" stroke="black" points="1500.03,-14.41 1490.59,-19.21 1500.97,-21.35 1500.03,-14.41"/>
<text text-anchor="middle" x="2141.36" y="-20.74" font-family="Times,serif" font-size="14.00">{}</text>
</g>
<!-- 2&#45;&gt;2 -->
<g id="edge95" class="edge">
<title>2&#45;&gt;2</title>
<path fill="none" stroke="black" d="M1490.58,-29.86C1637.01,-52.3 2152.36,-50.5 2152.36,-24.44 2152.36,1.06 1658.92,3.34 1500.52,-17.61"/>
<polygon fill="black" stroke="black" points="1499.99,-14.15 1490.58,-19.02 1500.98,-21.08 1499.99,-14.15"/>
<text text-anchor="middle" x="2165.86" y="-20.74" font-family="Times,serif" font-size="14.00">{c1}</text>
</g>
<!-- 2&#45;&gt;2 -->
<g id="edge96" class="edge">
<title>2&#45;&gt;2</title>
<path fill="none" stroke="black" d="M1490.12,-29.94C1641.34,-54.31 2179.36,-52.48 2179.36,-24.44 2179.36,3 1664.21,5.34 1500.39,-17.4"/>
<polygon fill="black" stroke="black" points="1499.49,-14 1490.12,-18.94 1500.53,-20.92 1499.49,-14"/>
<text text-anchor="middle" x="2202.86" y="-20.74" font-family="Times,serif" font-size="14.00">{c0, c1}</text>
</g>
<!-- 2&#45;&gt;2 -->
<g id="edge97" class="edge">
<title>2&#45;&gt;2</title>
<path fill="none" stroke="black" d="M1490.23,-30.06C1648.92,-56.31 2226.36,-54.44 2226.36,-24.44 2226.36,4.96 1671.81,7.35 1500.25,-17.27"/>
<polygon fill="black" stroke="black" points="1499.58,-13.83 1490.23,-18.81 1500.64,-20.75 1499.58,-13.83"/>
<text text-anchor="middle" x="2249.86" y="-20.74" font-family="Times,serif" font-size="14.00">{c0, c3}</text>
</g>
<!-- 3&#45;&gt;2 -->
<g id="edge11" class="edge">
<title>3&#45;&gt;2</title>
<path fill="none" stroke="black" d="M1003.66,-184.44C1001.25,-174.61 997.75,-162.11 993.36,-151.44 989.88,-142.97 985.66,-142.3 983.36,-133.44 979.35,-117.95 973.25,-109.83 983.36,-97.44 1008.61,-66.51 1033.82,-93.01 1071.36,-79.44 1084.64,-74.64 1085.83,-68.44 1099.36,-64.44 1192.17,-37.02 1220.19,-57.24 1316.36,-46.44 1354.66,-42.14 1398.32,-35.76 1428.24,-31.16"/>
<polygon fill="black" stroke="black" points="1428.88,-34.61 1438.22,-29.62 1427.81,-27.69 1428.88,-34.61"/>
<text text-anchor="middle" x="996.86" y="-111.74" font-family="Times,serif" font-size="14.00">{c3}</text>
</g>
<!-- 3&#45;&gt;2 -->
<g id="edge12" class="edge">
<title>3&#45;&gt;2</title>
<path fill="none" stroke="black" d="M1009.33,-184.3C1012.83,-161.49 1022.21,-121.28 1046.36,-97.44 1063.18,-80.85 1074.79,-89.04 1096.36,-79.44 1109.26,-73.7 1110.85,-68.51 1124.36,-64.44 1206.43,-39.71 1231.25,-56.46 1316.36,-46.44 1354.64,-41.93 1398.3,-35.59 1428.23,-31.05"/>
<polygon fill="black" stroke="black" points="1428.86,-34.5 1438.21,-29.53 1427.8,-27.58 1428.86,-34.5"/>
<text text-anchor="middle" x="1079.86" y="-111.74" font-family="Times,serif" font-size="14.00">{c0, c2, c3}</text>
</g>
<!-- 3&#45;&gt;2 -->
<g id="edge13" class="edge">
<title>3&#45;&gt;2</title>
<path fill="none" stroke="black" d="M1027.37,-190.35C1049.35,-177.77 1085.27,-156.06 1113.36,-133.44 1147.64,-105.84 1144.66,-83.41 1184.36,-64.44 1237.79,-38.91 1257.72,-54.6 1316.36,-46.44 1354.53,-41.13 1398.22,-34.91 1428.18,-30.63"/>
<polygon fill="black" stroke="black" points="1428.77,-34.08 1438.17,-29.2 1427.78,-27.15 1428.77,-34.08"/>
<text text-anchor="middle" x="1158.86" y="-111.74" font-family="Times,serif" font-size="14.00">{c2}</text>
</g>
<!-- 3&#45;&gt;2 -->
<g id="edge14" class="edge">
<title>3&#45;&gt;2</title>
<path fill="none" stroke="black" d="M1032.08,-194.91C1066.4,-185.11 1129.53,-164.39 1176.36,-133.44 1195.24,-120.96 1194.53,-111.36 1212.36,-97.44 1234.83,-79.9 1240.77,-74.69 1267.36,-64.44 1320.97,-43.78 1387.18,-33.55 1427.57,-28.89"/>
<polygon fill="black" stroke="black" points="1428.19,-32.35 1437.75,-27.77 1427.42,-25.39 1428.19,-32.35"/>
<text text-anchor="middle" x="1235.86" y="-111.74" font-family="Times,serif" font-size="14.00">{c2, c3}</text>
</g>
<!-- 3&#45;&gt;2 -->
<g id="edge15" class="edge">
<title>3&#45;&gt;2</title>
<path fill="none" stroke="black" d="M1032.67,-195.21C1060.21,-188.38 1105.51,-176.97 1144.36,-166.44 1195.69,-152.52 1213.55,-160.43 1259.36,-133.44 1278.86,-121.95 1279.13,-113.2 1295.36,-97.44 1310.7,-82.55 1311.81,-75.05 1330.36,-64.44 1360.95,-46.94 1400.03,-36.74 1428.08,-31.19"/>
<polygon fill="black" stroke="black" points="1429.06,-34.57 1438.25,-29.28 1427.78,-27.69 1429.06,-34.57"/>
<text text-anchor="middle" x="1308.86" y="-111.74" font-family="Times,serif" font-size="14.00">{c0}</text>
</g>
<!-- 3&#45;&gt;2 -->
<g id="edge16" class="edge">
<title>3&#45;&gt;2</title>
<path fill="none" stroke="black" d="M1034.6,-200.99C1091.74,-198.94 1226.71,-188.18 1322.36,-133.44 1342,-122.2 1340.93,-111.86 1358.36,-97.44 1383.38,-76.75 1414.31,-56.26 1436.29,-42.46"/>
<polygon fill="black" stroke="black" points="1438.18,-45.4 1444.82,-37.15 1434.48,-39.46 1438.18,-45.4"/>
<text text-anchor="middle" x="1381.86" y="-111.74" font-family="Times,serif" font-size="14.00">{c0, c2}</text>
</g>
<!-- 3&#45;&gt;2 -->
<g id="edge17" class="edge">
<title>3&#45;&gt;2</title>
<path fill="none" stroke="black" d="M1034.25,-200.11C1113.95,-195.69 1347.03,-179.04 1405.36,-133.44 1431.73,-112.83 1447.92,-77.01 1456.51,-52.31"/>
<polygon fill="black" stroke="black" points="1459.95,-53.07 1459.74,-42.48 1453.3,-50.89 1459.95,-53.07"/>
<text text-anchor="middle" x="1458.86" y="-111.74" font-family="Times,serif" font-size="14.00">{c0, c3}</text>
</g>
<!-- 3&#45;&gt;3 -->
<g id="edge4" class="edge">
<title>3&#45;&gt;3</title>
<path fill="none" stroke="black" d="M1031.9,-210.19C1042.87,-210.93 1052.36,-208.35 1052.36,-202.44 1052.36,-198.47 1048.08,-196 1041.94,-195.03"/>
<polygon fill="black" stroke="black" points="1042.01,-191.53 1031.9,-194.69 1041.77,-198.53 1042.01,-191.53"/>
<text text-anchor="middle" x="1059.36" y="-198.74" font-family="Times,serif" font-size="14.00">{}</text>
</g>
<!-- 4 -->
<g id="node6" class="node">
<title>4</title>
<ellipse fill="none" stroke="black" cx="604.36" cy="-115.44" rx="27" ry="18"/>
<text text-anchor="middle" x="604.36" y="-111.74" font-family="Times,serif" font-size="14.00">4</text>
</g>
<!-- 3&#45;&gt;4 -->
<g id="edge2" class="edge">
<title>3&#45;&gt;4</title>
<path fill="none" stroke="black" d="M980.41,-200.97C862.44,-198.78 396.46,-188.74 375.36,-166.44 370.78,-161.6 371.02,-156.5 375.36,-151.44 399.6,-123.22 508.38,-117.51 566.87,-116.51"/>
<polygon fill="black" stroke="black" points="567.22,-120.01 577.18,-116.37 567.13,-113.01 567.22,-120.01"/>
<text text-anchor="middle" x="408.86" y="-155.24" font-family="Times,serif" font-size="14.00">{c1, c2, c3}</text>
</g>
<!-- 3&#45;&gt;4 -->
<g id="edge3" class="edge">
<title>3&#45;&gt;4</title>
<path fill="none" stroke="black" d="M980.33,-201.8C875.62,-202.93 500.83,-204.27 465.36,-166.44 433.61,-132.57 516.27,-121.6 567.41,-118.08"/>
<polygon fill="black" stroke="black" points="567.72,-121.57 577.49,-117.45 567.29,-114.58 567.72,-121.57"/>
<text text-anchor="middle" x="488.86" y="-155.24" font-family="Times,serif" font-size="14.00">{c1, c2}</text>
</g>
<!-- 3&#45;&gt;4 -->
<g id="edge5" class="edge">
<title>3&#45;&gt;4</title>
<path fill="none" stroke="black" d="M980.28,-201.52C884.48,-201.55 565.73,-199.14 535.36,-166.44 520.35,-150.27 546.27,-135.96 570.51,-126.84"/>
<polygon fill="black" stroke="black" points="571.72,-130.13 579.98,-123.49 569.38,-123.53 571.72,-130.13"/>
<text text-anchor="middle" x="558.86" y="-155.24" font-family="Times,serif" font-size="14.00">{c1, c3}</text>
</g>
<!-- 3&#45;&gt;4 -->
<g id="edge6" class="edge">
<title>3&#45;&gt;4</title>
<path fill="none" stroke="black" d="M980.22,-201.13C894.06,-199.86 630.94,-193.78 605.36,-166.44 599.69,-160.38 598.12,-151.87 598.37,-143.58"/>
<polygon fill="black" stroke="black" points="601.88,-143.74 599.5,-133.41 594.92,-142.97 601.88,-143.74"/>
<text text-anchor="middle" x="638.86" y="-155.24" font-family="Times,serif" font-size="14.00">{c0, c1, c3}</text>
</g>
<!-- 3&#45;&gt;4 -->
<g id="edge7" class="edge">
<title>3&#45;&gt;4</title>
<path fill="none" stroke="black" d="M980.45,-200.02C914.74,-196.3 747.69,-185.23 695.36,-166.44 683.88,-162.31 682.92,-157.57 672.36,-151.44 660.32,-144.44 646.72,-137.29 634.87,-131.3"/>
<polygon fill="black" stroke="black" points="636.31,-128.11 625.8,-126.77 633.18,-134.37 636.31,-128.11"/>
<text text-anchor="middle" x="718.86" y="-155.24" font-family="Times,serif" font-size="14.00">{c0, c1}</text>
</g>
<!-- 3&#45;&gt;4 -->
<g id="edge8" class="edge">
<title>3&#45;&gt;4</title>
<path fill="none" stroke="black" d="M980.29,-201.29C934.53,-200.22 839.64,-194.46 765.36,-166.44 753.95,-162.13 753.54,-156.34 742.36,-151.44 709.2,-136.9 668.8,-127.54 640.3,-122.19"/>
<polygon fill="black" stroke="black" points="640.84,-118.73 630.38,-120.4 639.6,-125.62 640.84,-118.73"/>
<text text-anchor="middle" x="798.86" y="-155.24" font-family="Times,serif" font-size="14.00">{c0, c1, c2}</text>
</g>
<!-- 3&#45;&gt;4 -->
<g id="edge9" class="edge">
<title>3&#45;&gt;4</title>
<path fill="none" stroke="black" d="M980.95,-198.23C949.92,-193.81 897.35,-184.3 855.36,-166.44 844.13,-161.66 843.76,-155.8 832.36,-151.44 768.16,-126.9 687.57,-119.53 641.41,-117.34"/>
<polygon fill="black" stroke="black" points="641.42,-113.84 631.28,-116.92 641.13,-120.83 641.42,-113.84"/>
<text text-anchor="middle" x="868.86" y="-155.24" font-family="Times,serif" font-size="14.00">{c1}</text>
</g>
<!-- 3&#45;&gt;4 -->
<g id="edge10" class="edge">
<title>3&#45;&gt;4</title>
<path fill="none" stroke="black" d="M982.78,-194.86C961.69,-188.79 930.77,-178.84 905.36,-166.44 894.4,-161.08 893.82,-155.64 882.36,-151.44 800.16,-121.29 696.12,-116.23 641.59,-115.89"/>
<polygon fill="black" stroke="black" points="641.37,-112.39 631.36,-115.88 641.36,-119.39 641.37,-112.39"/>
<text text-anchor="middle" x="949.36" y="-155.24" font-family="Times,serif" font-size="14.00">{c0, c1, c2, c3}</text>
</g>
<!-- 4&#45;&gt;2 -->
<g id="edge75" class="edge">
<title>4&#45;&gt;2</title>
<path fill="none" stroke="black" d="M612.4,-98.19C619.17,-86.5 630.03,-71.57 644.36,-64.44 677.81,-47.81 1279.15,-49.57 1316.36,-46.44 1354.88,-43.2 1398.68,-36.62 1428.57,-31.69"/>
<polygon fill="black" stroke="black" points="1429.25,-35.12 1438.53,-30.02 1428.09,-28.22 1429.25,-35.12"/>
<text text-anchor="middle" x="667.86" y="-68.24" font-family="Times,serif" font-size="14.00">{c1, c2}</text>
</g>
<!-- 4&#45;&gt;2 -->
<g id="edge76" class="edge">
<title>4&#45;&gt;2</title>
<path fill="none" stroke="black" d="M627.81,-106.42C645.64,-99.99 670.57,-90.27 691.36,-79.44 702.19,-73.8 702.72,-68.09 714.36,-64.44 778.22,-44.41 1249.69,-52.15 1316.36,-46.44 1354.88,-43.14 1398.67,-36.57 1428.57,-31.65"/>
<polygon fill="black" stroke="black" points="1429.24,-35.09 1438.53,-29.99 1428.09,-28.19 1429.24,-35.09"/>
<text text-anchor="middle" x="727.86" y="-68.24" font-family="Times,serif" font-size="14.00">{c3}</text>
</g>
<!-- 4&#45;&gt;2 -->
<g id="edge77" class="edge">
<title>4&#45;&gt;2</title>
<path fill="none" stroke="black" d="M630.45,-110.4C658.65,-105.44 704.51,-95.63 741.36,-79.44 752.54,-74.53 752.72,-68.11 764.36,-64.44 822.89,-46 1255.23,-51.76 1316.36,-46.44 1354.87,-43.09 1398.67,-36.53 1428.57,-31.63"/>
<polygon fill="black" stroke="black" points="1429.24,-35.06 1438.53,-29.97 1428.09,-28.16 1429.24,-35.06"/>
<text text-anchor="middle" x="787.86" y="-68.24" font-family="Times,serif" font-size="14.00">{c1, c3}</text>
</g>
<!-- 4&#45;&gt;2 -->
<g id="edge78" class="edge">
<title>4&#45;&gt;2</title>
<path fill="none" stroke="black" d="M631.43,-113.37C671.89,-111.01 749.92,-103.46 811.36,-79.44 822.73,-74.99 822.73,-68.13 834.36,-64.44 936.52,-31.98 1209.6,-55.98 1316.36,-46.44 1354.86,-43 1398.66,-36.45 1428.56,-31.58"/>
<polygon fill="black" stroke="black" points="1429.23,-35.02 1438.53,-29.93 1428.09,-28.11 1429.23,-35.02"/>
<text text-anchor="middle" x="847.86" y="-68.24" font-family="Times,serif" font-size="14.00">{c2}</text>
</g>
<!-- 4&#45;&gt;2 -->
<g id="edge79" class="edge">
<title>4&#45;&gt;2</title>
<path fill="none" stroke="black" d="M631.57,-114.61C679.54,-114.07 781.61,-109.15 861.36,-79.44 872.8,-75.18 872.74,-68.16 884.36,-64.44 975.87,-35.15 1220.68,-55.2 1316.36,-46.44 1354.86,-42.91 1398.66,-36.38 1428.56,-31.54"/>
<polygon fill="black" stroke="black" points="1429.22,-34.97 1438.52,-29.9 1428.09,-28.07 1429.22,-34.97"/>
<text text-anchor="middle" x="907.86" y="-68.24" font-family="Times,serif" font-size="14.00">{c2, c3}</text>
</g>
<!-- 4&#45;&gt;2 -->
<g id="edge80" class="edge">
<title>4&#45;&gt;2</title>
<path fill="none" stroke="black" d="M631.56,-113.16C699.71,-109.71 876.24,-99.08 931.36,-79.44 942.86,-75.34 942.76,-68.21 954.36,-64.44 1030.98,-39.58 1236.19,-54.1 1316.36,-46.44 1354.84,-42.76 1398.64,-36.25 1428.55,-31.46"/>
<polygon fill="black" stroke="black" points="1429.21,-34.89 1438.52,-29.84 1428.09,-27.98 1429.21,-34.89"/>
<text text-anchor="middle" x="987.86" y="-68.24" font-family="Times,serif" font-size="14.00">{c1, c2, c3}</text>
</g>
<!-- 4&#45;&gt;2 -->
<g id="edge81" class="edge">
<title>4&#45;&gt;2</title>
<path fill="none" stroke="black" d="M631.48,-113.89C712.04,-111.99 948.79,-104.36 1021.36,-79.44 1032.91,-75.47 1032.79,-68.3 1044.36,-64.44 1101.83,-45.27 1256.11,-52.7 1316.36,-46.44 1354.81,-42.44 1398.62,-35.99 1428.53,-31.29"/>
<polygon fill="black" stroke="black" points="1429.18,-34.73 1438.5,-29.71 1428.08,-27.82 1429.18,-34.73"/>
<text text-anchor="middle" x="1057.86" y="-68.24" font-family="Times,serif" font-size="14.00">{c1}</text>
</g>
<!-- 4&#45;&gt;4 -->
<g id="edge67" class="edge">
<title>4&#45;&gt;4</title>
<path fill="none" stroke="black" d="M628.9,-123.19C639.87,-123.93 649.36,-121.35 649.36,-115.44 649.36,-111.47 645.08,-109 638.94,-108.03"/>
<polygon fill="black" stroke="black" points="639.01,-104.53 628.9,-107.69 638.77,-111.53 639.01,-104.53"/>
<text text-anchor="middle" x="656.36" y="-111.74" font-family="Times,serif" font-size="14.00">{}</text>
</g>
<!-- 5 -->
<g id="node7" class="node">
<title>5</title>
<ellipse fill="none" stroke="black" cx="237.36" cy="-24.44" rx="18" ry="18"/>
<ellipse fill="none" stroke="black" cx="237.36" cy="-24.44" rx="22" ry="22"/>
<text text-anchor="middle" x="237.36" y="-20.74" font-family="Times,serif" font-size="14.00">5</text>
</g>
<!-- 4&#45;&gt;5 -->
<g id="edge66" class="edge">
<title>4&#45;&gt;5</title>
<path fill="none" stroke="black" d="M577.21,-113.88C462.58,-111.41 23.31,-100.58 3.36,-79.44 -1.21,-74.59 -0.94,-69.53 3.36,-64.44 28.86,-34.34 147.24,-27.45 205.21,-25.89"/>
<polygon fill="black" stroke="black" points="205.38,-29.38 215.29,-25.65 205.22,-22.39 205.38,-29.38"/>
<text text-anchor="middle" x="16.86" y="-68.24" font-family="Times,serif" font-size="14.00">{c0}</text>
</g>
<!-- 4&#45;&gt;5 -->
<g id="edge68" class="edge">
<title>4&#45;&gt;5</title>
<path fill="none" stroke="black" d="M577.24,-114.83C471.31,-116.09 89.48,-117.92 53.36,-79.44 8.68,-31.82 140.5,-25.47 204.57,-25.11"/>
<polygon fill="black" stroke="black" points="204.97,-28.61 214.96,-25.1 204.96,-21.61 204.97,-28.61"/>
<text text-anchor="middle" x="76.86" y="-68.24" font-family="Times,serif" font-size="14.00">{c0, c3}</text>
</g>
<!-- 4&#45;&gt;5 -->
<g id="edge69" class="edge">
<title>4&#45;&gt;5</title>
<path fill="none" stroke="black" d="M577.1,-114.56C479.89,-114.73 154.37,-112.78 123.36,-79.44 96.64,-50.7 163.21,-35.73 205.54,-29.34"/>
<polygon fill="black" stroke="black" points="206.04,-32.8 215.45,-27.93 205.06,-25.87 206.04,-32.8"/>
<text text-anchor="middle" x="146.86" y="-68.24" font-family="Times,serif" font-size="14.00">{c0, c2}</text>
</g>
<!-- 4&#45;&gt;5 -->
<g id="edge70" class="edge">
<title>4&#45;&gt;5</title>
<path fill="none" stroke="black" d="M577.21,-114.2C489.7,-113.17 219.31,-107.69 193.36,-79.44 182.18,-67.26 195.49,-52.7 210.31,-41.76"/>
<polygon fill="black" stroke="black" points="212.3,-44.64 218.56,-36.1 208.34,-38.87 212.3,-44.64"/>
<text text-anchor="middle" x="226.86" y="-68.24" font-family="Times,serif" font-size="14.00">{c0, c1, c3}</text>
</g>
<!-- 4&#45;&gt;5 -->
<g id="edge71" class="edge">
<title>4&#45;&gt;5</title>
<path fill="none" stroke="black" d="M577.27,-114.03C509.44,-112.6 334.15,-106.32 283.36,-79.44 271.55,-73.18 261.48,-62.52 253.8,-52.31"/>
<polygon fill="black" stroke="black" points="256.54,-50.12 247.93,-43.95 250.81,-54.14 256.54,-50.12"/>
<text text-anchor="middle" x="316.86" y="-68.24" font-family="Times,serif" font-size="14.00">{c0, c2, c3}</text>
</g>
<!-- 4&#45;&gt;5 -->
<g id="edge72" class="edge">
<title>4&#45;&gt;5</title>
<path fill="none" stroke="black" d="M577.1,-114.02C532.89,-112.54 443.48,-106.16 373.36,-79.44 361.96,-75.09 361.33,-69.8 350.36,-64.44 323.57,-51.33 291.24,-40.64 268.04,-33.8"/>
<polygon fill="black" stroke="black" points="268.97,-30.42 258.39,-31.01 267.03,-37.15 268.97,-30.42"/>
<text text-anchor="middle" x="396.86" y="-68.24" font-family="Times,serif" font-size="14.00">{c0, c1}</text>
</g>
<!-- 4&#45;&gt;5 -->
<g id="edge73" class="edge">
<title>4&#45;&gt;5</title>
<path fill="none" stroke="black" d="M577.83,-111.67C545.17,-107.58 488.49,-98.31 443.36,-79.44 432.11,-74.73 431.63,-69.12 420.36,-64.44 369.99,-43.5 306.96,-33.25 269.56,-28.68"/>
<polygon fill="black" stroke="black" points="269.6,-25.16 259.27,-27.48 268.8,-32.11 269.6,-25.16"/>
<text text-anchor="middle" x="487.36" y="-68.24" font-family="Times,serif" font-size="14.00">{c0, c1, c2, c3}</text>
</g>
<!-- 4&#45;&gt;5 -->
<g id="edge74" class="edge">
<title>4&#45;&gt;5</title>
<path fill="none" stroke="black" d="M586.22,-101.7C565.6,-87.27 534.41,-65.61 531.36,-64.44 441.22,-29.87 325.41,-25.02 269.89,-24.9"/>
<polygon fill="black" stroke="black" points="269.6,-21.4 259.61,-24.93 269.62,-28.4 269.6,-21.4"/>
<text text-anchor="middle" x="586.86" y="-68.24" font-family="Times,serif" font-size="14.00">{c0, c1, c2}</text>
</g>
<!-- 5&#45;&gt;5 -->
<g id="edge50" class="edge">
<title>5&#45;&gt;5</title>
<path fill="none" stroke="black" d="M259.58,-25.92C269.16,-26.04 277.36,-25.55 277.36,-24.44 277.36,-23.76 274.32,-23.32 269.77,-23.1"/>
<polygon fill="black" stroke="black" points="269.62,-19.59 259.58,-22.96 269.53,-26.59 269.62,-19.59"/>
<text text-anchor="middle" x="310.86" y="-20.74" font-family="Times,serif" font-size="14.00">{c0, c1, c2}</text>
</g>
<!-- 5&#45;&gt;5 -->
<g id="edge51" class="edge">
<title>5&#45;&gt;5</title>
<path fill="none" stroke="black" d="M259.71,-26.57C292.45,-28.23 344.36,-27.52 344.36,-24.44 344.36,-21.66 302.09,-20.81 269.79,-21.89"/>
<polygon fill="black" stroke="black" points="269.56,-18.4 259.71,-22.31 269.85,-25.39 269.56,-18.4"/>
<text text-anchor="middle" x="377.86" y="-20.74" font-family="Times,serif" font-size="14.00">{c0, c2, c3}</text>
</g>
<!-- 5&#45;&gt;5 -->
<g id="edge52" class="edge">
<title>5&#45;&gt;5</title>
<path fill="none" stroke="black" d="M259.28,-26.95C308.45,-30.27 411.36,-29.43 411.36,-24.44 411.36,-19.77 321.29,-18.73 269.42,-21.33"/>
<polygon fill="black" stroke="black" points="269.06,-17.85 259.28,-21.92 269.47,-24.84 269.06,-17.85"/>
<text text-anchor="middle" x="434.86" y="-20.74" font-family="Times,serif" font-size="14.00">{c0, c1}</text>
</g>
<!-- 5&#45;&gt;5 -->
<g id="edge53" class="edge">
<title>5&#45;&gt;5</title>
<path fill="none" stroke="black" d="M259.41,-27.37C318.93,-32.28 458.36,-31.3 458.36,-24.44 458.36,-17.94 333.25,-16.72 269.46,-20.78"/>
<polygon fill="black" stroke="black" points="269.14,-17.29 259.41,-21.5 269.64,-24.27 269.14,-17.29"/>
<text text-anchor="middle" x="481.86" y="-20.74" font-family="Times,serif" font-size="14.00">{c0, c2}</text>
</g>
<!-- 5&#45;&gt;5 -->
<g id="edge54" class="edge">
<title>5&#45;&gt;5</title>
<path fill="none" stroke="black" d="M259.14,-27.68C327.97,-34.29 505.36,-33.21 505.36,-24.44 505.36,-16.08 344.21,-14.71 269.5,-20.32"/>
<polygon fill="black" stroke="black" points="268.81,-16.87 259.14,-21.2 269.4,-23.84 268.81,-16.87"/>
<text text-anchor="middle" x="549.36" y="-20.74" font-family="Times,serif" font-size="14.00">{c0, c1, c2, c3}</text>
</g>
<!-- 5&#45;&gt;5 -->
<g id="edge55" class="edge">
<title>5&#45;&gt;5</title>
<path fill="none" stroke="black" d="M259.11,-27.81C342.63,-36.31 593.36,-35.18 593.36,-24.44 593.36,-14.09 360.89,-12.67 269.07,-20.16"/>
<polygon fill="black" stroke="black" points="268.75,-16.68 259.11,-21.07 269.38,-23.65 268.75,-16.68"/>
<text text-anchor="middle" x="606.86" y="-20.74" font-family="Times,serif" font-size="14.00">{c1}</text>
</g>
<!-- 5&#45;&gt;5 -->
<g id="edge56" class="edge">
<title>5&#45;&gt;5</title>
<path fill="none" stroke="black" d="M259.09,-28.11C348.1,-38.31 620.36,-37.09 620.36,-24.44 620.36,-12.24 366.9,-10.67 269.14,-19.74"/>
<polygon fill="black" stroke="black" points="268.68,-16.27 259.09,-20.77 269.39,-23.23 268.68,-16.27"/>
<text text-anchor="middle" x="627.36" y="-20.74" font-family="Times,serif" font-size="14.00">{}</text>
</g>
<!-- 5&#45;&gt;5 -->
<g id="edge57" class="edge">
<title>5&#45;&gt;5</title>
<path fill="none" stroke="black" d="M259.15,-28.4C352.63,-40.31 638.36,-38.99 638.36,-24.44 638.36,-10.39 371.83,-8.68 269.39,-19.3"/>
<polygon fill="black" stroke="black" points="268.68,-15.86 259.15,-20.48 269.48,-22.81 268.68,-15.86"/>
<text text-anchor="middle" x="651.86" y="-20.74" font-family="Times,serif" font-size="14.00">{c3}</text>
</g>
<!-- 5&#45;&gt;5 -->
<g id="edge58" class="edge">
<title>5&#45;&gt;5</title>
<path fill="none" stroke="black" d="M259.2,-28.64C358.36,-42.31 665.36,-40.91 665.36,-24.44 665.36,-8.5 377.82,-6.67 269.41,-18.97"/>
<polygon fill="black" stroke="black" points="268.69,-15.53 259.2,-20.24 269.55,-22.48 268.69,-15.53"/>
<text text-anchor="middle" x="688.86" y="-20.74" font-family="Times,serif" font-size="14.00">{c2, c3}</text>
</g>
<!-- 5&#45;&gt;5 -->
<g id="edge59" class="edge">
<title>5&#45;&gt;5</title>
<path fill="none" stroke="black" d="M259.02,-28.76C365.91,-44.32 712.36,-42.88 712.36,-24.44 712.36,-6.54 385.91,-4.66 269.02,-18.79"/>
<polygon fill="black" stroke="black" points="268.48,-15.34 259.02,-20.12 269.39,-22.27 268.48,-15.34"/>
<text text-anchor="middle" x="735.86" y="-20.74" font-family="Times,serif" font-size="14.00">{c1, c2}</text>
</g>
<!-- 5&#45;&gt;5 -->
<g id="edge60" class="edge">
<title>5&#45;&gt;5</title>
<path fill="none" stroke="black" d="M259.19,-28.92C374.01,-46.32 759.36,-44.83 759.36,-24.44 759.36,-4.61 394.8,-2.65 269.21,-18.57"/>
<polygon fill="black" stroke="black" points="268.62,-15.12 259.19,-19.96 269.58,-22.06 268.62,-15.12"/>
<text text-anchor="middle" x="792.86" y="-20.74" font-family="Times,serif" font-size="14.00">{c1, c2, c3}</text>
</g>
<!-- 5&#45;&gt;5 -->
<g id="edge61" class="edge">
<title>5&#45;&gt;5</title>
<path fill="none" stroke="black" d="M258.98,-28.96C383.07,-48.33 826.36,-46.82 826.36,-24.44 826.36,-2.62 405.29,-0.64 269.03,-18.48"/>
<polygon fill="black" stroke="black" points="268.38,-15.04 258.98,-19.91 269.37,-21.97 268.38,-15.04"/>
<text text-anchor="middle" x="859.86" y="-20.74" font-family="Times,serif" font-size="14.00">{c0, c1, c3}</text>
</g>
<!-- 5&#45;&gt;5 -->
<g id="edge62" class="edge">
<title>5&#45;&gt;5</title>
<path fill="none" stroke="black" d="M259.21,-29.08C392.85,-50.33 893.36,-48.79 893.36,-24.44 893.36,-0.66 416.03,1.37 269.2,-18.34"/>
<polygon fill="black" stroke="black" points="268.6,-14.9 259.21,-19.8 269.61,-21.82 268.6,-14.9"/>
<text text-anchor="middle" x="916.86" y="-20.74" font-family="Times,serif" font-size="14.00">{c0, c3}</text>
</g>
<!-- 5&#45;&gt;5 -->
<g id="edge63" class="edge">
<title>5&#45;&gt;5</title>
<path fill="none" stroke="black" d="M258.99,-29.14C399.4,-52.34 940.36,-50.77 940.36,-24.44 940.36,1.3 423.43,3.38 269.04,-18.21"/>
<polygon fill="black" stroke="black" points="268.35,-14.77 258.99,-19.73 269.4,-21.69 268.35,-14.77"/>
<text text-anchor="middle" x="953.86" y="-20.74" font-family="Times,serif" font-size="14.00">{c0}</text>
</g>
<!-- 5&#45;&gt;5 -->
<g id="edge64" class="edge">
<title>5&#45;&gt;5</title>
<path fill="none" stroke="black" d="M258.84,-29.25C404.34,-54.34 967.36,-52.74 967.36,-24.44 967.36,3.25 428.27,5.38 268.79,-18.05"/>
<polygon fill="black" stroke="black" points="268.17,-14.6 258.84,-19.63 269.27,-21.52 268.17,-14.6"/>
<text text-anchor="middle" x="980.86" y="-20.74" font-family="Times,serif" font-size="14.00">{c2}</text>
</g>
<!-- 5&#45;&gt;5 -->
<g id="edge65" class="edge">
<title>5&#45;&gt;5</title>
<path fill="none" stroke="black" d="M259.06,-29.4C410.24,-56.34 994.36,-54.69 994.36,-24.44 994.36,5.16 435.07,7.38 269.39,-17.78"/>
<polygon fill="black" stroke="black" points="268.36,-14.4 259.06,-19.48 269.49,-21.31 268.36,-14.4"/>
<text text-anchor="middle" x="1017.86" y="-20.74" font-family="Times,serif" font-size="14.00">{c1, c3}</text>
</g>
</g>
</svg>
