<?xml version="1.0" encoding="UTF-8" standalone="no"?>
<!DOCTYPE svg PUBLIC "-//W3C//DTD SVG 1.1//EN"
 "http://www.w3.org/Graphics/SVG/1.1/DTD/svg11.dtd">
<!-- Generated by graphviz version 2.43.0 (0)
 -->
<!-- Title: %3 Pages: 1 -->
<svg width="1049pt" height="386pt"
 viewBox="0.00 0.00 1049.07 386.00" xmlns="http://www.w3.org/2000/svg" xmlns:xlink="http://www.w3.org/1999/xlink">
<g id="graph0" class="graph" transform="scale(1 1) rotate(0) translate(4 382)">
<title>%3</title>
<polygon fill="white" stroke="transparent" points="-4,4 -4,-382 1045.07,-382 1045.07,4 -4,4"/>
<!-- fake -->
<g id="node1" class="node">
<title>fake</title>
</g>
<!-- 0 -->
<g id="node2" class="node">
<title>0</title>
<ellipse fill="none" stroke="black" cx="592.07" cy="-287" rx="27" ry="18"/>
<text text-anchor="middle" x="592.07" y="-283.3" font-family="Times,serif" font-size="14.00">0</text>
</g>
<!-- fake&#45;&gt;0 -->
<g id="edge1" class="edge">
<title>fake&#45;&gt;0</title>
<path fill="none" stroke="black" stroke-width="2" d="M592.07,-341.81C592.07,-333.79 592.07,-324.05 592.07,-315.07"/>
<polygon fill="black" stroke="black" stroke-width="2" points="595.57,-315.03 592.07,-305.03 588.57,-315.03 595.57,-315.03"/>
</g>
<!-- 0&#45;&gt;0 -->
<g id="edge4" class="edge">
<title>0&#45;&gt;0</title>
<path fill="none" stroke="black" d="M617.52,-293.69C628.1,-294.15 637.07,-291.92 637.07,-287 637.07,-283.77 633.21,-281.7 627.56,-280.79"/>
<polygon fill="black" stroke="black" points="627.67,-277.29 617.52,-280.31 627.34,-284.28 627.67,-277.29"/>
<text text-anchor="middle" x="644.07" y="-283.3" font-family="Times,serif" font-size="14.00">{}</text>
</g>
<!-- 1 -->
<g id="node3" class="node">
<title>1</title>
<ellipse fill="none" stroke="black" cx="432.07" cy="-200" rx="27" ry="18"/>
<text text-anchor="middle" x="432.07" y="-196.3" font-family="Times,serif" font-size="14.00">1</text>
</g>
<!-- 0&#45;&gt;1 -->
<g id="edge2" class="edge">
<title>0&#45;&gt;1</title>
<path fill="none" stroke="black" d="M564.88,-286.06C509.96,-285.56 388.82,-280.98 363.07,-251 348.84,-234.43 373.98,-220.34 397.81,-211.38"/>
<polygon fill="black" stroke="black" points="399.21,-214.6 407.48,-207.98 396.88,-208 399.21,-214.6"/>
<text text-anchor="middle" x="386.57" y="-239.8" font-family="Times,serif" font-size="14.00">{c0, c2}</text>
</g>
<!-- 0&#45;&gt;1 -->
<g id="edge3" class="edge">
<title>0&#45;&gt;1</title>
<path fill="none" stroke="black" d="M565.33,-284.02C524.49,-280.39 449.57,-271.1 433.07,-251 427.88,-244.68 426.38,-236.23 426.55,-228.09"/>
<polygon fill="black" stroke="black" points="430.04,-228.4 427.51,-218.12 423.07,-227.73 430.04,-228.4"/>
<text text-anchor="middle" x="466.57" y="-239.8" font-family="Times,serif" font-size="14.00">{c0, c1, c2}</text>
</g>
<!-- 0&#45;&gt;1 -->
<g id="edge5" class="edge">
<title>0&#45;&gt;1</title>
<path fill="none" stroke="black" d="M570.62,-275.86C556.83,-269.17 538.66,-260 523.07,-251 512.5,-244.9 510.62,-242.13 500.07,-236 488.03,-229 474.43,-221.85 462.58,-215.86"/>
<polygon fill="black" stroke="black" points="464.02,-212.67 453.51,-211.33 460.89,-218.93 464.02,-212.67"/>
<text text-anchor="middle" x="546.57" y="-239.8" font-family="Times,serif" font-size="14.00">{c0, c1}</text>
</g>
<!-- 0&#45;&gt;1 -->
<g id="edge6" class="edge">
<title>0&#45;&gt;1</title>
<path fill="none" stroke="black" d="M588.59,-268.83C585.51,-257.92 579.92,-244.33 570.07,-236 541.89,-212.15 499.61,-204.21 469.28,-201.74"/>
<polygon fill="black" stroke="black" points="469.3,-198.24 459.09,-201.08 468.84,-205.22 469.3,-198.24"/>
<text text-anchor="middle" x="593.57" y="-239.8" font-family="Times,serif" font-size="14.00">{c0}</text>
</g>
<!-- 2 -->
<g id="node4" class="node">
<title>2</title>
<ellipse fill="none" stroke="black" cx="567.07" cy="-22" rx="27" ry="18"/>
<text text-anchor="middle" x="567.07" y="-18.3" font-family="Times,serif" font-size="14.00">2</text>
</g>
<!-- 0&#45;&gt;2 -->
<g id="edge7" class="edge">
<title>0&#45;&gt;2</title>
<path fill="none" stroke="black" d="M602.74,-270.31C606.1,-264.51 609.37,-257.7 611.07,-251 619.64,-217.27 665.65,-363.51 600.07,-95 596.08,-78.66 588.37,-61.5 581.41,-48.03"/>
<polygon fill="black" stroke="black" points="584.34,-46.1 576.53,-38.94 578.17,-49.41 584.34,-46.1"/>
<text text-anchor="middle" x="629.57" y="-152.8" font-family="Times,serif" font-size="14.00">{c1}</text>
</g>
<!-- 0&#45;&gt;2 -->
<g id="edge8" class="edge">
<title>0&#45;&gt;2</title>
<path fill="none" stroke="black" d="M612.18,-274.9C620.97,-268.98 630.52,-260.87 636.07,-251 658.42,-211.26 657.24,-193.45 647.07,-149 637.5,-107.14 629.71,-97.17 605.07,-62 600.67,-55.72 595.25,-49.5 589.88,-43.94"/>
<polygon fill="black" stroke="black" points="592.28,-41.38 582.72,-36.82 587.34,-46.35 592.28,-41.38"/>
<text text-anchor="middle" x="663.57" y="-152.8" font-family="Times,serif" font-size="14.00">{c2}</text>
</g>
<!-- 0&#45;&gt;2 -->
<g id="edge9" class="edge">
<title>0&#45;&gt;2</title>
<path fill="none" stroke="black" d="M614.91,-277.37C627.61,-271.58 642.86,-262.83 653.07,-251 683.81,-215.43 693.81,-194.25 681.07,-149 668.55,-104.5 657.23,-94.21 624.07,-62 615.58,-53.75 605.16,-46.06 595.55,-39.72"/>
<polygon fill="black" stroke="black" points="597.36,-36.73 587.05,-34.31 593.61,-42.63 597.36,-36.73"/>
<text text-anchor="middle" x="707.57" y="-152.8" font-family="Times,serif" font-size="14.00">{c1, c2}</text>
</g>
<!-- 1&#45;&gt;1 -->
<g id="edge14" class="edge">
<title>1&#45;&gt;1</title>
<path fill="none" stroke="black" d="M456.61,-207.75C467.58,-208.49 477.07,-205.91 477.07,-200 477.07,-196.03 472.79,-193.56 466.65,-192.59"/>
<polygon fill="black" stroke="black" points="466.72,-189.09 456.61,-192.25 466.48,-196.09 466.72,-189.09"/>
<text text-anchor="middle" x="484.07" y="-196.3" font-family="Times,serif" font-size="14.00">{}</text>
</g>
<!-- 1&#45;&gt;2 -->
<g id="edge15" class="edge">
<title>1&#45;&gt;2</title>
<path fill="none" stroke="black" d="M431.19,-181.75C430.81,-160.22 432.61,-122.85 447.07,-95 467.2,-56.24 491.56,-62.61 531.07,-44 533.71,-42.76 536.41,-41.39 539.09,-39.96"/>
<polygon fill="black" stroke="black" points="540.97,-42.92 547.98,-34.98 537.54,-36.81 540.97,-42.92"/>
<text text-anchor="middle" x="460.57" y="-109.3" font-family="Times,serif" font-size="14.00">{c2}</text>
</g>
<!-- 1&#45;&gt;2 -->
<g id="edge16" class="edge">
<title>1&#45;&gt;2</title>
<path fill="none" stroke="black" d="M443.58,-183.4C458.68,-162.97 486.1,-126.11 510.07,-95 522.64,-78.69 537.04,-60.5 548.22,-46.49"/>
<polygon fill="black" stroke="black" points="551.21,-48.35 554.72,-38.36 545.75,-43.98 551.21,-48.35"/>
<text text-anchor="middle" x="533.57" y="-109.3" font-family="Times,serif" font-size="14.00">{c0, c2}</text>
</g>
<!-- 1&#45;&gt;2 -->
<g id="edge17" class="edge">
<title>1&#45;&gt;2</title>
<path fill="none" stroke="black" d="M457.09,-193.01C486.43,-184.55 533.97,-166.07 557.07,-131 572.81,-107.11 573.39,-73.53 571.26,-50.18"/>
<polygon fill="black" stroke="black" points="574.7,-49.48 570.09,-39.94 567.75,-50.27 574.7,-49.48"/>
<text text-anchor="middle" x="582.57" y="-109.3" font-family="Times,serif" font-size="14.00">{c0}</text>
</g>
<!-- 3 -->
<g id="node5" class="node">
<title>3</title>
<ellipse fill="none" stroke="black" cx="231.07" cy="-113" rx="27" ry="18"/>
<text text-anchor="middle" x="231.07" y="-109.3" font-family="Times,serif" font-size="14.00">3</text>
</g>
<!-- 1&#45;&gt;3 -->
<g id="edge10" class="edge">
<title>1&#45;&gt;3</title>
<path fill="none" stroke="black" d="M405.15,-197.5C339.99,-193.58 177.99,-182.11 162.07,-164 147.65,-147.59 172.82,-133.48 196.71,-124.47"/>
<polygon fill="black" stroke="black" points="198.14,-127.68 206.4,-121.04 195.81,-121.08 198.14,-127.68"/>
<text text-anchor="middle" x="185.57" y="-152.8" font-family="Times,serif" font-size="14.00">{c0, c1}</text>
</g>
<!-- 1&#45;&gt;3 -->
<g id="edge11" class="edge">
<title>1&#45;&gt;3</title>
<path fill="none" stroke="black" d="M404.95,-198.35C355.59,-196.53 254.1,-189.69 232.07,-164 226.67,-157.7 225.16,-149.13 225.4,-140.86"/>
<polygon fill="black" stroke="black" points="228.89,-141.06 226.46,-130.75 221.93,-140.33 228.89,-141.06"/>
<text text-anchor="middle" x="265.57" y="-152.8" font-family="Times,serif" font-size="14.00">{c0, c1, c2}</text>
</g>
<!-- 1&#45;&gt;3 -->
<g id="edge12" class="edge">
<title>1&#45;&gt;3</title>
<path fill="none" stroke="black" d="M406.88,-193.06C384.1,-187.21 349.96,-177.23 322.07,-164 311.05,-158.77 309.62,-155.13 299.07,-149 287.03,-142 273.43,-134.85 261.58,-128.86"/>
<polygon fill="black" stroke="black" points="263.02,-125.67 252.51,-124.33 259.89,-131.93 263.02,-125.67"/>
<text text-anchor="middle" x="345.57" y="-152.8" font-family="Times,serif" font-size="14.00">{c1, c2}</text>
</g>
<!-- 1&#45;&gt;3 -->
<g id="edge13" class="edge">
<title>1&#45;&gt;3</title>
<path fill="none" stroke="black" d="M416.36,-185.27C401.19,-172.25 379.08,-153.96 369.07,-149 336.62,-132.94 296.11,-123.8 267.4,-118.92"/>
<polygon fill="black" stroke="black" points="267.82,-115.44 257.39,-117.3 266.71,-122.35 267.82,-115.44"/>
<text text-anchor="middle" x="403.57" y="-152.8" font-family="Times,serif" font-size="14.00">{c1}</text>
</g>
<!-- 2&#45;&gt;2 -->
<g id="edge34" class="edge">
<title>2&#45;&gt;2</title>
<path fill="none" stroke="black" d="M594.31,-23.5C604.1,-23.53 612.07,-23.03 612.07,-22 612.07,-21.37 609.11,-20.94 604.58,-20.71"/>
<polygon fill="black" stroke="black" points="604.38,-17.2 594.31,-20.5 604.24,-24.2 604.38,-17.2"/>
<text text-anchor="middle" x="625.57" y="-18.3" font-family="Times,serif" font-size="14.00">{c1}</text>
</g>
<!-- 2&#45;&gt;2 -->
<g id="edge35" class="edge">
<title>2&#45;&gt;2</title>
<path fill="none" stroke="black" d="M593.82,-24.61C615.51,-25.59 639.07,-24.72 639.07,-22 639.07,-19.71 622.3,-18.73 604.03,-19.06"/>
<polygon fill="black" stroke="black" points="603.71,-15.57 593.82,-19.39 603.93,-22.57 603.71,-15.57"/>
<text text-anchor="middle" x="652.57" y="-18.3" font-family="Times,serif" font-size="14.00">{c2}</text>
</g>
<!-- 2&#45;&gt;2 -->
<g id="edge36" class="edge">
<title>2&#45;&gt;2</title>
<path fill="none" stroke="black" d="M593.93,-25.37C625.57,-27.62 666.07,-26.5 666.07,-22 666.07,-17.97 633.67,-16.65 604.18,-18.03"/>
<polygon fill="black" stroke="black" points="603.71,-14.55 593.93,-18.62 604.12,-21.54 603.71,-14.55"/>
<text text-anchor="middle" x="689.57" y="-18.3" font-family="Times,serif" font-size="14.00">{c0, c1}</text>
</g>
<!-- 2&#45;&gt;2 -->
<g id="edge37" class="edge">
<title>2&#45;&gt;2</title>
<path fill="none" stroke="black" d="M593.79,-25.74C639.55,-29.7 713.07,-28.45 713.07,-22 713.07,-16 649.52,-14.5 603.82,-17.5"/>
<polygon fill="black" stroke="black" points="603.5,-14.01 593.79,-18.26 604.03,-20.99 603.5,-14.01"/>
<text text-anchor="middle" x="736.57" y="-18.3" font-family="Times,serif" font-size="14.00">{c0, c2}</text>
</g>
<!-- 2&#45;&gt;2 -->
<g id="edge38" class="edge">
<title>2&#45;&gt;2</title>
<path fill="none" stroke="black" d="M593.56,-26.04C651.45,-31.74 760.07,-30.4 760.07,-22 760.07,-14.08 663.41,-12.43 603.85,-17.06"/>
<polygon fill="black" stroke="black" points="603.21,-13.61 593.56,-17.96 603.82,-20.58 603.21,-13.61"/>
<text text-anchor="middle" x="767.07" y="-18.3" font-family="Times,serif" font-size="14.00">{}</text>
</g>
<!-- 2&#45;&gt;2 -->
<g id="edge39" class="edge">
<title>2&#45;&gt;2</title>
<path fill="none" stroke="black" d="M593.3,-26.45C656.59,-33.75 778.07,-32.27 778.07,-22 778.07,-12.26 668.61,-10.42 603.37,-16.5"/>
<polygon fill="black" stroke="black" points="602.89,-13.04 593.3,-17.55 603.61,-20 602.89,-13.04"/>
<text text-anchor="middle" x="791.57" y="-18.3" font-family="Times,serif" font-size="14.00">{c0}</text>
</g>
<!-- 2&#45;&gt;2 -->
<g id="edge40" class="edge">
<title>2&#45;&gt;2</title>
<path fill="none" stroke="black" d="M593.36,-26.78C663.81,-35.76 805.07,-34.17 805.07,-22 805.07,-10.4 676.74,-8.41 603.71,-16.03"/>
<polygon fill="black" stroke="black" points="602.89,-12.6 593.36,-17.22 603.69,-19.55 602.89,-12.6"/>
<text text-anchor="middle" x="838.57" y="-18.3" font-family="Times,serif" font-size="14.00">{c0, c1, c2}</text>
</g>
<!-- 2&#45;&gt;2 -->
<g id="edge41" class="edge">
<title>2&#45;&gt;2</title>
<path fill="none" stroke="black" d="M593.16,-26.82C677.08,-37.79 872.07,-36.19 872.07,-22 872.07,-8.35 691.65,-6.35 603.21,-15.98"/>
<polygon fill="black" stroke="black" points="602.67,-12.52 593.16,-17.18 603.5,-19.47 602.67,-12.52"/>
<text text-anchor="middle" x="895.57" y="-18.3" font-family="Times,serif" font-size="14.00">{c1, c2}</text>
</g>
<!-- 3&#45;&gt;2 -->
<g id="edge31" class="edge">
<title>3&#45;&gt;2</title>
<path fill="none" stroke="black" d="M242.66,-96.36C252.31,-84.65 267.17,-69.44 284.07,-62 384.82,-17.67 425.93,-76.57 531.07,-44 534.09,-43.07 537.12,-41.84 540.07,-40.45"/>
<polygon fill="black" stroke="black" points="541.97,-43.41 549.14,-35.61 538.67,-37.23 541.97,-43.41"/>
<text text-anchor="middle" x="297.57" y="-65.8" font-family="Times,serif" font-size="14.00">{c1}</text>
</g>
<!-- 3&#45;&gt;2 -->
<g id="edge32" class="edge">
<title>3&#45;&gt;2</title>
<path fill="none" stroke="black" d="M253.96,-103.17C270.22,-96.61 292.4,-87.08 311.07,-77 321.81,-71.2 322.55,-66.01 334.07,-62 417.12,-33.14 447.33,-70.79 531.07,-44 534.08,-43.04 537.1,-41.8 540.05,-40.4"/>
<polygon fill="black" stroke="black" points="541.96,-43.35 549.12,-35.54 538.65,-37.18 541.96,-43.35"/>
<text text-anchor="middle" x="357.57" y="-65.8" font-family="Times,serif" font-size="14.00">{c0, c1}</text>
</g>
<!-- 3&#45;&gt;2 -->
<g id="edge33" class="edge">
<title>3&#45;&gt;2</title>
<path fill="none" stroke="black" d="M257.41,-108.69C288.07,-104.2 339.76,-94.64 381.07,-77 392.3,-72.21 392.65,-66.29 404.07,-62 457.44,-41.95 477.22,-62.71 531.07,-44 533.99,-42.99 536.93,-41.73 539.81,-40.34"/>
<polygon fill="black" stroke="black" points="541.53,-43.38 548.68,-35.56 538.22,-37.22 541.53,-43.38"/>
<text text-anchor="middle" x="417.57" y="-65.8" font-family="Times,serif" font-size="14.00">{c0}</text>
</g>
<!-- 3&#45;&gt;3 -->
<g id="edge26" class="edge">
<title>3&#45;&gt;3</title>
<path fill="none" stroke="black" d="M255.61,-120.75C266.58,-121.49 276.07,-118.91 276.07,-113 276.07,-109.03 271.79,-106.56 265.65,-105.59"/>
<polygon fill="black" stroke="black" points="265.72,-102.09 255.61,-105.25 265.48,-109.09 265.72,-102.09"/>
<text text-anchor="middle" x="283.07" y="-109.3" font-family="Times,serif" font-size="14.00">{}</text>
</g>
<!-- 4 -->
<g id="node6" class="node">
<title>4</title>
<ellipse fill="none" stroke="black" cx="53.07" cy="-22" rx="18" ry="18"/>
<ellipse fill="none" stroke="black" cx="53.07" cy="-22" rx="22" ry="22"/>
<text text-anchor="middle" x="53.07" y="-18.3" font-family="Times,serif" font-size="14.00">4</text>
</g>
<!-- 3&#45;&gt;4 -->
<g id="edge27" class="edge">
<title>3&#45;&gt;4</title>
<path fill="none" stroke="black" d="M203.7,-112.02C149.06,-111.42 29.51,-106.66 4.07,-77 -7.51,-63.5 8.39,-48.55 25.08,-37.81"/>
<polygon fill="black" stroke="black" points="26.97,-40.76 33.75,-32.61 23.37,-34.76 26.97,-40.76"/>
<text text-anchor="middle" x="17.57" y="-65.8" font-family="Times,serif" font-size="14.00">{c2}</text>
</g>
<!-- 3&#45;&gt;4 -->
<g id="edge28" class="edge">
<title>3&#45;&gt;4</title>
<path fill="none" stroke="black" d="M204.24,-110.68C159.57,-107.87 72.98,-99.58 54.07,-77 48.64,-70.51 46.91,-61.88 46.96,-53.43"/>
<polygon fill="black" stroke="black" points="50.45,-53.61 47.76,-43.36 43.47,-53.05 50.45,-53.61"/>
<text text-anchor="middle" x="77.57" y="-65.8" font-family="Times,serif" font-size="14.00">{c1, c2}</text>
</g>
<!-- 3&#45;&gt;4 -->
<g id="edge29" class="edge">
<title>3&#45;&gt;4</title>
<path fill="none" stroke="black" d="M205.91,-106.31C183.6,-100.68 150.55,-90.89 124.07,-77 114.5,-71.98 94.24,-56.36 77.8,-43.21"/>
<polygon fill="black" stroke="black" points="79.62,-40.17 69.63,-36.62 75.22,-45.62 79.62,-40.17"/>
<text text-anchor="middle" x="157.57" y="-65.8" font-family="Times,serif" font-size="14.00">{c0, c1, c2}</text>
</g>
<!-- 3&#45;&gt;4 -->
<g id="edge30" class="edge">
<title>3&#45;&gt;4</title>
<path fill="none" stroke="black" d="M221.87,-95.8C214.79,-84.75 204.04,-70.6 191.07,-62 158.74,-40.55 114.62,-30.76 85.06,-26.39"/>
<polygon fill="black" stroke="black" points="85.25,-22.88 74.87,-25.01 84.31,-29.82 85.25,-22.88"/>
<text text-anchor="middle" x="230.57" y="-65.8" font-family="Times,serif" font-size="14.00">{c0, c2}</text>
</g>
<!-- 4&#45;&gt;4 -->
<g id="edge18" class="edge">
<title>4&#45;&gt;4</title>
<path fill="none" stroke="black" d="M75.29,-23.48C84.87,-23.6 93.07,-23.11 93.07,-22 93.07,-21.32 90.03,-20.88 85.48,-20.66"/>
<polygon fill="black" stroke="black" points="85.33,-17.16 75.29,-20.52 85.24,-24.15 85.33,-17.16"/>
<text text-anchor="middle" x="106.57" y="-18.3" font-family="Times,serif" font-size="14.00">{c1}</text>
</g>
<!-- 4&#45;&gt;4 -->
<g id="edge19" class="edge">
<title>4&#45;&gt;4</title>
<path fill="none" stroke="black" d="M75.11,-24.47C95.98,-25.67 120.07,-24.84 120.07,-22 120.07,-19.62 103.24,-18.66 85.52,-19.11"/>
<polygon fill="black" stroke="black" points="84.95,-15.63 75.11,-19.53 85.24,-22.62 84.95,-15.63"/>
<text text-anchor="middle" x="143.57" y="-18.3" font-family="Times,serif" font-size="14.00">{c1, c2}</text>
</g>
<!-- 4&#45;&gt;4 -->
<g id="edge20" class="edge">
<title>4&#45;&gt;4</title>
<path fill="none" stroke="black" d="M75.08,-24.91C110.77,-27.75 167.07,-26.78 167.07,-22 167.07,-17.65 120.43,-16.45 85.14,-18.41"/>
<polygon fill="black" stroke="black" points="84.82,-14.93 75.08,-19.09 85.29,-21.91 84.82,-14.93"/>
<text text-anchor="middle" x="200.57" y="-18.3" font-family="Times,serif" font-size="14.00">{c0, c1, c2}</text>
</g>
<!-- 4&#45;&gt;4 -->
<g id="edge21" class="edge">
<title>4&#45;&gt;4</title>
<path fill="none" stroke="black" d="M75.04,-25.13C127.03,-29.81 234.07,-28.77 234.07,-22 234.07,-15.64 139.6,-14.34 85.06,-18.08"/>
<polygon fill="black" stroke="black" points="84.74,-14.6 75.04,-18.87 85.29,-21.57 84.74,-14.6"/>
<text text-anchor="middle" x="257.57" y="-18.3" font-family="Times,serif" font-size="14.00">{c0, c2}</text>
</g>
<!-- 4&#45;&gt;4 -->
<g id="edge22" class="edge">
<title>4&#45;&gt;4</title>
<path fill="none" stroke="black" d="M74.84,-25.41C137.04,-31.83 281.07,-30.69 281.07,-22 281.07,-13.75 151.3,-12.31 84.92,-17.67"/>
<polygon fill="black" stroke="black" points="84.48,-14.19 74.84,-18.59 85.11,-21.17 84.48,-14.19"/>
<text text-anchor="middle" x="304.57" y="-18.3" font-family="Times,serif" font-size="14.00">{c0, c1}</text>
</g>
<!-- 4&#45;&gt;4 -->
<g id="edge23" class="edge">
<title>4&#45;&gt;4</title>
<path fill="none" stroke="black" d="M74.91,-25.67C146.72,-33.84 328.07,-32.62 328.07,-22 328.07,-11.86 162.65,-10.29 85.23,-17.29"/>
<polygon fill="black" stroke="black" points="84.51,-13.84 74.91,-18.33 85.21,-20.8 84.51,-13.84"/>
<text text-anchor="middle" x="341.57" y="-18.3" font-family="Times,serif" font-size="14.00">{c0}</text>
</g>
<!-- 4&#45;&gt;4 -->
<g id="edge24" class="edge">
<title>4&#45;&gt;4</title>
<path fill="none" stroke="black" d="M74.93,-25.96C152.89,-35.84 355.07,-34.52 355.07,-22 355.07,-9.98 168.76,-8.28 84.87,-16.9"/>
<polygon fill="black" stroke="black" points="84.47,-13.43 74.93,-18.04 85.26,-20.38 84.47,-13.43"/>
<text text-anchor="middle" x="362.07" y="-18.3" font-family="Times,serif" font-size="14.00">{}</text>
</g>
<!-- 4&#45;&gt;4 -->
<g id="edge25" class="edge">
<title>4&#45;&gt;4</title>
<path fill="none" stroke="black" d="M74.83,-26.23C157.57,-37.85 373.07,-36.44 373.07,-22 373.07,-8.11 173.68,-6.28 84.84,-16.5"/>
<polygon fill="black" stroke="black" points="84.31,-13.04 74.83,-17.77 85.19,-19.98 84.31,-13.04"/>
<text text-anchor="middle" x="386.57" y="-18.3" font-family="Times,serif" font-size="14.00">{c2}</text>
</g>
</g>
</svg>
