<?xml version="1.0" encoding="UTF-8" standalone="no"?>
<!DOCTYPE svg PUBLIC "-//W3C//DTD SVG 1.1//EN"
 "http://www.w3.org/Graphics/SVG/1.1/DTD/svg11.dtd">
<!-- Generated by graphviz version 2.43.0 (0)
 -->
<!-- Title: %3 Pages: 1 -->
<svg width="2511pt" height="475pt"
 viewBox="0.00 0.00 2510.57 475.44" xmlns="http://www.w3.org/2000/svg" xmlns:xlink="http://www.w3.org/1999/xlink">
<g id="graph0" class="graph" transform="scale(1 1) rotate(0) translate(4 471.44)">
<title>%3</title>
<polygon fill="white" stroke="transparent" points="-4,4 -4,-471.44 2506.57,-471.44 2506.57,4 -4,4"/>
<!-- fake -->
<g id="node1" class="node">
<title>fake</title>
</g>
<!-- 0 -->
<g id="node2" class="node">
<title>0</title>
<ellipse fill="none" stroke="black" cx="1785.57" cy="-376.44" rx="27" ry="18"/>
<text text-anchor="middle" x="1785.57" y="-372.74" font-family="Times,serif" font-size="14.00">0</text>
</g>
<!-- fake&#45;&gt;0 -->
<g id="edge1" class="edge">
<title>fake&#45;&gt;0</title>
<path fill="none" stroke="black" stroke-width="2" d="M1785.57,-431.25C1785.57,-423.23 1785.57,-413.49 1785.57,-404.51"/>
<polygon fill="black" stroke="black" stroke-width="2" points="1789.07,-404.47 1785.57,-394.47 1782.07,-404.47 1789.07,-404.47"/>
</g>
<!-- 0&#45;&gt;0 -->
<g id="edge6" class="edge">
<title>0&#45;&gt;0</title>
<path fill="none" stroke="black" d="M1811.01,-383.13C1821.6,-383.59 1830.57,-381.36 1830.57,-376.44 1830.57,-373.21 1826.71,-371.14 1821.06,-370.23"/>
<polygon fill="black" stroke="black" points="1821.17,-366.73 1811.01,-369.75 1820.84,-373.72 1821.17,-366.73"/>
<text text-anchor="middle" x="1837.57" y="-372.74" font-family="Times,serif" font-size="14.00">{}</text>
</g>
<!-- 1 -->
<g id="node3" class="node">
<title>1</title>
<ellipse fill="none" stroke="black" cx="1444.57" cy="-289.44" rx="27" ry="18"/>
<text text-anchor="middle" x="1444.57" y="-285.74" font-family="Times,serif" font-size="14.00">1</text>
</g>
<!-- 0&#45;&gt;1 -->
<g id="edge2" class="edge">
<title>0&#45;&gt;1</title>
<path fill="none" stroke="black" d="M1758.5,-375.83C1652.75,-377.08 1271.62,-378.86 1235.57,-340.44 1231.01,-335.58 1231.26,-330.53 1235.57,-325.44 1257.13,-299.97 1353.08,-293.02 1407.17,-291.14"/>
<polygon fill="black" stroke="black" points="1407.51,-294.63 1417.39,-290.82 1407.29,-287.63 1407.51,-294.63"/>
<text text-anchor="middle" x="1269.07" y="-329.24" font-family="Times,serif" font-size="14.00">{c1, c2, c3}</text>
</g>
<!-- 0&#45;&gt;1 -->
<g id="edge3" class="edge">
<title>0&#45;&gt;1</title>
<path fill="none" stroke="black" d="M1758.53,-375.47C1664.38,-375.29 1355.07,-372.27 1325.57,-340.44 1299.06,-311.84 1363.6,-299.01 1407.64,-293.74"/>
<polygon fill="black" stroke="black" points="1408.23,-297.19 1417.78,-292.61 1407.45,-290.24 1408.23,-297.19"/>
<text text-anchor="middle" x="1339.07" y="-329.24" font-family="Times,serif" font-size="14.00">{c3}</text>
</g>
<!-- 0&#45;&gt;1 -->
<g id="edge4" class="edge">
<title>0&#45;&gt;1</title>
<path fill="none" stroke="black" d="M1758.48,-375.2C1671.19,-374.15 1401.45,-368.63 1375.57,-340.44 1360.64,-324.18 1386.55,-309.89 1410.77,-300.8"/>
<polygon fill="black" stroke="black" points="1411.96,-304.09 1420.22,-297.46 1409.63,-297.49 1411.96,-304.09"/>
<text text-anchor="middle" x="1399.07" y="-329.24" font-family="Times,serif" font-size="14.00">{c0, c3}</text>
</g>
<!-- 0&#45;&gt;1 -->
<g id="edge5" class="edge">
<title>0&#45;&gt;1</title>
<path fill="none" stroke="black" d="M1758.63,-374.68C1681.94,-372.23 1466.67,-363.36 1445.57,-340.44 1439.95,-334.33 1438.39,-325.81 1438.64,-317.53"/>
<polygon fill="black" stroke="black" points="1442.14,-317.7 1439.75,-307.37 1435.18,-316.93 1442.14,-317.7"/>
<text text-anchor="middle" x="1469.07" y="-329.24" font-family="Times,serif" font-size="14.00">{c2, c3}</text>
</g>
<!-- 0&#45;&gt;1 -->
<g id="edge7" class="edge">
<title>0&#45;&gt;1</title>
<path fill="none" stroke="black" d="M1758.46,-376.15C1708.59,-376.56 1599.7,-373.19 1515.57,-340.44 1512.97,-339.43 1489.62,-322.86 1470.4,-309.07"/>
<polygon fill="black" stroke="black" points="1472.38,-306.18 1462.21,-303.18 1468.29,-311.86 1472.38,-306.18"/>
<text text-anchor="middle" x="1549.07" y="-329.24" font-family="Times,serif" font-size="14.00">{c0, c1, c3}</text>
</g>
<!-- 0&#45;&gt;1 -->
<g id="edge8" class="edge">
<title>0&#45;&gt;1</title>
<path fill="none" stroke="black" d="M1758.73,-373.46C1722.73,-370.09 1657.35,-361.42 1605.57,-340.44 1594.26,-335.86 1593.75,-330.34 1582.57,-325.44 1549.4,-310.9 1509,-301.54 1480.51,-296.19"/>
<polygon fill="black" stroke="black" points="1481.05,-292.73 1470.58,-294.4 1479.8,-299.62 1481.05,-292.73"/>
<text text-anchor="middle" x="1649.57" y="-329.24" font-family="Times,serif" font-size="14.00">{c0, c1, c2, c3}</text>
</g>
<!-- 0&#45;&gt;1 -->
<g id="edge9" class="edge">
<title>0&#45;&gt;1</title>
<path fill="none" stroke="black" d="M1764.11,-365.3C1750.33,-358.61 1732.16,-349.44 1716.57,-340.44 1706,-334.34 1705,-329.73 1693.57,-325.44 1621.98,-298.59 1531.79,-292.1 1481.97,-290.68"/>
<polygon fill="black" stroke="black" points="1481.76,-287.17 1471.68,-290.44 1481.59,-294.17 1481.76,-287.17"/>
<text text-anchor="middle" x="1740.07" y="-329.24" font-family="Times,serif" font-size="14.00">{c1, c3}</text>
</g>
<!-- 0&#45;&gt;1 -->
<g id="edge10" class="edge">
<title>0&#45;&gt;1</title>
<path fill="none" stroke="black" d="M1782.58,-358.3C1779.69,-347.11 1774.12,-333.18 1763.57,-325.44 1719.63,-293.21 1556.56,-289.8 1482.09,-289.99"/>
<polygon fill="black" stroke="black" points="1481.76,-286.49 1471.77,-290.04 1481.79,-293.49 1481.76,-286.49"/>
<text text-anchor="middle" x="1809.07" y="-329.24" font-family="Times,serif" font-size="14.00">{c0, c2, c3}</text>
</g>
<!-- 2 -->
<g id="node4" class="node">
<title>2</title>
<ellipse fill="none" stroke="black" cx="1427.57" cy="-24.44" rx="27" ry="18"/>
<text text-anchor="middle" x="1427.57" y="-20.74" font-family="Times,serif" font-size="14.00">2</text>
</g>
<!-- 0&#45;&gt;2 -->
<g id="edge11" class="edge">
<title>0&#45;&gt;2</title>
<path fill="none" stroke="black" d="M1809.88,-368.21C1823.25,-362.85 1838.68,-354.07 1846.57,-340.44 1849.91,-334.67 1848.04,-331.94 1846.57,-325.44 1827.66,-241.87 1819.86,-216.04 1763.57,-151.44 1716.68,-97.63 1695.01,-90.54 1628.57,-64.44 1573.78,-42.92 1505.78,-32.92 1464.58,-28.55"/>
<polygon fill="black" stroke="black" points="1464.75,-25.05 1454.45,-27.53 1464.05,-32.01 1464.75,-25.05"/>
<text text-anchor="middle" x="1826.07" y="-198.74" font-family="Times,serif" font-size="14.00">{c2}</text>
</g>
<!-- 0&#45;&gt;2 -->
<g id="edge12" class="edge">
<title>0&#45;&gt;2</title>
<path fill="none" stroke="black" d="M1809.85,-368.15C1841.42,-356.99 1892.57,-332.43 1892.57,-290.44 1892.57,-290.44 1892.57,-290.44 1892.57,-114.44 1892.57,-27.54 1575.3,-23.48 1464.9,-24.69"/>
<polygon fill="black" stroke="black" points="1464.53,-21.2 1454.58,-24.83 1464.63,-28.2 1464.53,-21.2"/>
<text text-anchor="middle" x="1916.07" y="-198.74" font-family="Times,serif" font-size="14.00">{c0, c1}</text>
</g>
<!-- 0&#45;&gt;2 -->
<g id="edge13" class="edge">
<title>0&#45;&gt;2</title>
<path fill="none" stroke="black" d="M1812.79,-375.27C1865.33,-373.34 1975.57,-360.91 1975.57,-290.44 1975.57,-290.44 1975.57,-290.44 1975.57,-114.44 1975.57,-62.35 1919.85,-78.05 1869.57,-64.44 1793.48,-43.84 1556.59,-31.26 1464.61,-27.03"/>
<polygon fill="black" stroke="black" points="1464.53,-23.53 1454.38,-26.57 1464.21,-30.52 1464.53,-23.53"/>
<text text-anchor="middle" x="2009.07" y="-198.74" font-family="Times,serif" font-size="14.00">{c0, c1, c2}</text>
</g>
<!-- 0&#45;&gt;2 -->
<g id="edge14" class="edge">
<title>0&#45;&gt;2</title>
<path fill="none" stroke="black" d="M1812.35,-373.43C1884.68,-367.26 2078.57,-345.59 2078.57,-290.44 2078.57,-290.44 2078.57,-290.44 2078.57,-114.44 2078.57,-52.04 1603.02,-31.29 1464.81,-26.58"/>
<polygon fill="black" stroke="black" points="1464.83,-23.08 1454.71,-26.24 1464.59,-30.08 1464.83,-23.08"/>
<text text-anchor="middle" x="2092.07" y="-198.74" font-family="Times,serif" font-size="14.00">{c0}</text>
</g>
<!-- 0&#45;&gt;2 -->
<g id="edge15" class="edge">
<title>0&#45;&gt;2</title>
<path fill="none" stroke="black" d="M1812.62,-374.77C1895.7,-371.99 2141.57,-358.04 2141.57,-290.44 2141.57,-290.44 2141.57,-290.44 2141.57,-114.44 2141.57,-45.59 1611.95,-29.32 1464.99,-26.13"/>
<polygon fill="black" stroke="black" points="1464.76,-22.62 1454.69,-25.91 1464.61,-29.62 1464.76,-22.62"/>
<text text-anchor="middle" x="2165.07" y="-198.74" font-family="Times,serif" font-size="14.00">{c0, c2}</text>
</g>
<!-- 0&#45;&gt;2 -->
<g id="edge16" class="edge">
<title>0&#45;&gt;2</title>
<path fill="none" stroke="black" d="M1812.7,-375.98C1908.41,-377.19 2224.57,-374.77 2224.57,-290.44 2224.57,-290.44 2224.57,-290.44 2224.57,-114.44 2224.57,-36.95 1621.78,-26.93 1464.66,-25.63"/>
<polygon fill="black" stroke="black" points="1464.57,-22.13 1454.54,-25.56 1464.52,-29.13 1464.57,-22.13"/>
<text text-anchor="middle" x="2248.07" y="-198.74" font-family="Times,serif" font-size="14.00">{c1, c2}</text>
</g>
<!-- 0&#45;&gt;2 -->
<g id="edge17" class="edge">
<title>0&#45;&gt;2</title>
<path fill="none" stroke="black" d="M1812.62,-374.46C1892.99,-371.34 2129.35,-360.65 2203.57,-340.44 2253.06,-326.97 2307.57,-341.73 2307.57,-290.44 2307.57,-290.44 2307.57,-290.44 2307.57,-114.44 2307.57,-28.38 1632.67,-24.8 1464.95,-25.24"/>
<polygon fill="black" stroke="black" points="1464.86,-21.74 1454.87,-25.27 1464.88,-28.74 1464.86,-21.74"/>
<text text-anchor="middle" x="2321.07" y="-198.74" font-family="Times,serif" font-size="14.00">{c1}</text>
</g>
<!-- 1&#45;&gt;1 -->
<g id="edge26" class="edge">
<title>1&#45;&gt;1</title>
<path fill="none" stroke="black" d="M1469.1,-297.19C1480.08,-297.93 1489.57,-295.35 1489.57,-289.44 1489.57,-285.47 1485.29,-283 1479.14,-282.04"/>
<polygon fill="black" stroke="black" points="1479.22,-278.54 1469.1,-281.69 1478.98,-285.53 1479.22,-278.54"/>
<text text-anchor="middle" x="1496.57" y="-285.74" font-family="Times,serif" font-size="14.00">{}</text>
</g>
<!-- 1&#45;&gt;2 -->
<g id="edge27" class="edge">
<title>1&#45;&gt;2</title>
<path fill="none" stroke="black" d="M1448.71,-271.65C1450.51,-261.89 1451.76,-249.39 1449.57,-238.44 1441.55,-198.33 1397.05,-185.59 1419.57,-151.44 1430.75,-134.49 1450.39,-150.4 1461.57,-133.44 1470.38,-120.08 1465.07,-113.05 1461.57,-97.44 1457.87,-80.94 1449.94,-63.77 1442.68,-50.34"/>
<polygon fill="black" stroke="black" points="1445.53,-48.28 1437.57,-41.28 1439.43,-51.71 1445.53,-48.28"/>
<text text-anchor="middle" x="1443.07" y="-155.24" font-family="Times,serif" font-size="14.00">{c0, c3}</text>
</g>
<!-- 1&#45;&gt;2 -->
<g id="edge28" class="edge">
<title>1&#45;&gt;2</title>
<path fill="none" stroke="black" d="M1454.81,-272.63C1458.13,-266.82 1461.48,-260.03 1463.57,-253.44 1484.59,-187.08 1488.72,-166.15 1477.57,-97.44 1475.09,-82.18 1474.7,-77.59 1466.57,-64.44 1462.49,-57.83 1457.07,-51.5 1451.59,-45.92"/>
<polygon fill="black" stroke="black" points="1453.82,-43.22 1444.17,-38.84 1448.99,-48.28 1453.82,-43.22"/>
<text text-anchor="middle" x="1507.07" y="-155.24" font-family="Times,serif" font-size="14.00">{c0, c1}</text>
</g>
<!-- 1&#45;&gt;2 -->
<g id="edge29" class="edge">
<title>1&#45;&gt;2</title>
<path fill="none" stroke="black" d="M1462.73,-275.87C1492.89,-253.28 1548.66,-203.35 1534.57,-151.44 1522.83,-108.19 1514,-97.35 1483.57,-64.44 1475.77,-56 1465.84,-48.36 1456.51,-42.12"/>
<polygon fill="black" stroke="black" points="1458.16,-39.02 1447.85,-36.59 1454.39,-44.92 1458.16,-39.02"/>
<text text-anchor="middle" x="1560.07" y="-155.24" font-family="Times,serif" font-size="14.00">{c1, c3}</text>
</g>
<!-- 1&#45;&gt;2 -->
<g id="edge30" class="edge">
<title>1&#45;&gt;2</title>
<path fill="none" stroke="black" d="M1467.9,-279.97C1514.58,-261.52 1612.94,-214.24 1587.57,-151.44 1564.57,-94.5 1499.13,-56.83 1459.43,-38.49"/>
<polygon fill="black" stroke="black" points="1460.73,-35.23 1450.17,-34.34 1457.87,-41.62 1460.73,-35.23"/>
<text text-anchor="middle" x="1604.07" y="-155.24" font-family="Times,serif" font-size="14.00">{c0}</text>
</g>
<!-- 1&#45;&gt;2 -->
<g id="edge31" class="edge">
<title>1&#45;&gt;2</title>
<path fill="none" stroke="black" d="M1469.6,-282.27C1524.32,-267.31 1647.69,-224.84 1621.57,-151.44 1597.37,-83.44 1511.54,-48.82 1462.54,-34.22"/>
<polygon fill="black" stroke="black" points="1463.25,-30.79 1452.67,-31.41 1461.33,-37.52 1463.25,-30.79"/>
<text text-anchor="middle" x="1638.07" y="-155.24" font-family="Times,serif" font-size="14.00">{c3}</text>
</g>
<!-- 1&#45;&gt;2 -->
<g id="edge32" class="edge">
<title>1&#45;&gt;2</title>
<path fill="none" stroke="black" d="M1470.79,-284.19C1533.53,-272.61 1684.97,-235.55 1655.57,-151.44 1627.97,-72.47 1521.2,-41.83 1464.1,-30.92"/>
<polygon fill="black" stroke="black" points="1464.51,-27.43 1454.04,-29.1 1463.26,-34.32 1464.51,-27.43"/>
<text text-anchor="middle" x="1672.07" y="-155.24" font-family="Times,serif" font-size="14.00">{c1}</text>
</g>
<!-- 1&#45;&gt;2 -->
<g id="edge33" class="edge">
<title>1&#45;&gt;2</title>
<path fill="none" stroke="black" d="M1471.21,-285.83C1541.25,-277.62 1722.93,-246.9 1689.57,-151.44 1657.94,-60.95 1529.03,-35.38 1464.6,-28.2"/>
<polygon fill="black" stroke="black" points="1464.77,-24.7 1454.47,-27.17 1464.06,-31.67 1464.77,-24.7"/>
<text text-anchor="middle" x="1726.07" y="-155.24" font-family="Times,serif" font-size="14.00">{c0, c1, c3}</text>
</g>
<!-- 3 -->
<g id="node5" class="node">
<title>3</title>
<ellipse fill="none" stroke="black" cx="1027.57" cy="-202.44" rx="27" ry="18"/>
<text text-anchor="middle" x="1027.57" y="-198.74" font-family="Times,serif" font-size="14.00">3</text>
</g>
<!-- 1&#45;&gt;3 -->
<g id="edge18" class="edge">
<title>1&#45;&gt;3</title>
<path fill="none" stroke="black" d="M1417.66,-287.92C1301.98,-285.57 851.97,-275.04 831.57,-253.44 826.99,-248.59 827.29,-243.55 831.57,-238.44 851.45,-214.7 939.5,-207.05 990.57,-204.59"/>
<polygon fill="black" stroke="black" points="990.72,-208.09 1000.56,-204.15 990.42,-201.09 990.72,-208.09"/>
<text text-anchor="middle" x="865.07" y="-242.24" font-family="Times,serif" font-size="14.00">{c0, c2, c3}</text>
</g>
<!-- 1&#45;&gt;3 -->
<g id="edge19" class="edge">
<title>1&#45;&gt;3</title>
<path fill="none" stroke="black" d="M1417.44,-288.74C1314.97,-289.57 955.64,-289.87 921.57,-253.44 898.09,-228.34 951.74,-214.6 990.96,-208.15"/>
<polygon fill="black" stroke="black" points="991.71,-211.58 1001.06,-206.59 990.65,-204.66 991.71,-211.58"/>
<text text-anchor="middle" x="945.07" y="-242.24" font-family="Times,serif" font-size="14.00">{c1, c2}</text>
</g>
<!-- 1&#45;&gt;3 -->
<g id="edge20" class="edge">
<title>1&#45;&gt;3</title>
<path fill="none" stroke="black" d="M1417.29,-288.44C1323.81,-288.13 1020.54,-284.74 991.57,-253.44 982.68,-243.84 990.51,-232 1001.1,-222.25"/>
<polygon fill="black" stroke="black" points="1003.66,-224.67 1009.1,-215.59 999.18,-219.3 1003.66,-224.67"/>
<text text-anchor="middle" x="1025.07" y="-242.24" font-family="Times,serif" font-size="14.00">{c0, c1, c2}</text>
</g>
<!-- 1&#45;&gt;3 -->
<g id="edge21" class="edge">
<title>1&#45;&gt;3</title>
<path fill="none" stroke="black" d="M1417.41,-288.05C1343.74,-286.65 1141.65,-280.38 1081.57,-253.44 1068.14,-247.42 1055.86,-236.69 1046.42,-226.71"/>
<polygon fill="black" stroke="black" points="1048.76,-224.09 1039.48,-218.98 1043.55,-228.76 1048.76,-224.09"/>
<text text-anchor="middle" x="1105.07" y="-242.24" font-family="Times,serif" font-size="14.00">{c0, c2}</text>
</g>
<!-- 1&#45;&gt;3 -->
<g id="edge22" class="edge">
<title>1&#45;&gt;3</title>
<path fill="none" stroke="black" d="M1417.37,-289.25C1364.46,-289.96 1244.74,-287.28 1151.57,-253.44 1140.1,-249.28 1139.53,-243.81 1128.57,-238.44 1107.19,-227.96 1081.86,-219.19 1061.92,-213.05"/>
<polygon fill="black" stroke="black" points="1062.91,-209.7 1052.32,-210.17 1060.89,-216.4 1062.91,-209.7"/>
<text text-anchor="middle" x="1175.07" y="-242.24" font-family="Times,serif" font-size="14.00">{c2, c3}</text>
</g>
<!-- 1&#45;&gt;3 -->
<g id="edge23" class="edge">
<title>1&#45;&gt;3</title>
<path fill="none" stroke="black" d="M1417.55,-287.83C1374.64,-286.07 1288.88,-279.3 1221.57,-253.44 1210.18,-249.06 1209.86,-243.08 1198.57,-238.44 1154.5,-220.33 1100.06,-211.26 1064.61,-206.96"/>
<polygon fill="black" stroke="black" points="1064.58,-203.44 1054.25,-205.78 1063.79,-210.39 1064.58,-203.44"/>
<text text-anchor="middle" x="1235.07" y="-242.24" font-family="Times,serif" font-size="14.00">{c2}</text>
</g>
<!-- 1&#45;&gt;3 -->
<g id="edge24" class="edge">
<title>1&#45;&gt;3</title>
<path fill="none" stroke="black" d="M1417.88,-286.19C1383.1,-282.56 1320.91,-273.65 1271.57,-253.44 1260.28,-248.82 1259.96,-242.83 1248.57,-238.44 1186.98,-214.73 1109.81,-207.08 1064.86,-204.61"/>
<polygon fill="black" stroke="black" points="1064.86,-201.11 1054.7,-204.11 1064.52,-208.1 1064.86,-201.11"/>
<text text-anchor="middle" x="1315.57" y="-242.24" font-family="Times,serif" font-size="14.00">{c0, c1, c2, c3}</text>
</g>
<!-- 1&#45;&gt;3 -->
<g id="edge25" class="edge">
<title>1&#45;&gt;3</title>
<path fill="none" stroke="black" d="M1424.28,-277.41C1412.08,-270.68 1396.3,-261.78 1382.57,-253.44 1372.14,-247.11 1371.07,-242.53 1359.57,-238.44 1306.02,-219.41 1139.69,-209 1064.79,-205.17"/>
<polygon fill="black" stroke="black" points="1064.59,-201.65 1054.43,-204.65 1064.24,-208.64 1064.59,-201.65"/>
<text text-anchor="middle" x="1416.07" y="-242.24" font-family="Times,serif" font-size="14.00">{c1, c2, c3}</text>
</g>
<!-- 2&#45;&gt;2 -->
<g id="edge82" class="edge">
<title>2&#45;&gt;2</title>
<path fill="none" stroke="black" d="M1454.81,-25.94C1464.59,-25.97 1472.57,-25.47 1472.57,-24.44 1472.57,-23.81 1469.61,-23.38 1465.08,-23.15"/>
<polygon fill="black" stroke="black" points="1464.88,-19.64 1454.81,-22.94 1464.74,-26.64 1464.88,-19.64"/>
<text text-anchor="middle" x="1506.07" y="-20.74" font-family="Times,serif" font-size="14.00">{c0, c2, c3}</text>
</g>
<!-- 2&#45;&gt;2 -->
<g id="edge83" class="edge">
<title>2&#45;&gt;2</title>
<path fill="none" stroke="black" d="M1454.47,-26.71C1488.91,-28.18 1539.57,-27.43 1539.57,-24.44 1539.57,-21.74 1497.97,-20.86 1464.53,-21.81"/>
<polygon fill="black" stroke="black" points="1464.34,-18.32 1454.47,-22.17 1464.59,-25.31 1464.34,-18.32"/>
<text text-anchor="middle" x="1563.07" y="-20.74" font-family="Times,serif" font-size="14.00">{c0, c3}</text>
</g>
<!-- 2&#45;&gt;2 -->
<g id="edge84" class="edge">
<title>2&#45;&gt;2</title>
<path fill="none" stroke="black" d="M1454.33,-27.31C1501.93,-30.2 1586.57,-29.25 1586.57,-24.44 1586.57,-19.97 1513.1,-18.83 1464.58,-21.03"/>
<polygon fill="black" stroke="black" points="1464.14,-17.55 1454.33,-21.57 1464.51,-24.54 1464.14,-17.55"/>
<text text-anchor="middle" x="1600.07" y="-20.74" font-family="Times,serif" font-size="14.00">{c2}</text>
</g>
<!-- 2&#45;&gt;2 -->
<g id="edge85" class="edge">
<title>2&#45;&gt;2</title>
<path fill="none" stroke="black" d="M1454.22,-27.89C1509.14,-32.2 1613.57,-31.05 1613.57,-24.44 1613.57,-18.22 1521.02,-16.84 1464.36,-20.29"/>
<polygon fill="black" stroke="black" points="1463.96,-16.81 1454.22,-20.99 1464.44,-23.8 1463.96,-16.81"/>
<text text-anchor="middle" x="1637.07" y="-20.74" font-family="Times,serif" font-size="14.00">{c2, c3}</text>
</g>
<!-- 2&#45;&gt;2 -->
<g id="edge86" class="edge">
<title>2&#45;&gt;2</title>
<path fill="none" stroke="black" d="M1454.04,-28.23C1519.89,-34.22 1660.57,-32.96 1660.57,-24.44 1660.57,-16.34 1533.29,-14.8 1464.2,-19.82"/>
<polygon fill="black" stroke="black" points="1463.73,-16.35 1454.04,-20.65 1464.29,-23.33 1463.73,-16.35"/>
<text text-anchor="middle" x="1684.07" y="-20.74" font-family="Times,serif" font-size="14.00">{c0, c1}</text>
</g>
<!-- 2&#45;&gt;2 -->
<g id="edge87" class="edge">
<title>2&#45;&gt;2</title>
<path fill="none" stroke="black" d="M1454.04,-28.54C1530.05,-36.24 1707.57,-34.87 1707.57,-24.44 1707.57,-14.46 1544.98,-12.78 1464.38,-19.4"/>
<polygon fill="black" stroke="black" points="1463.69,-15.95 1454.04,-20.35 1464.32,-22.92 1463.69,-15.95"/>
<text text-anchor="middle" x="1741.07" y="-20.74" font-family="Times,serif" font-size="14.00">{c0, c1, c2}</text>
</g>
<!-- 2&#45;&gt;2 -->
<g id="edge88" class="edge">
<title>2&#45;&gt;2</title>
<path fill="none" stroke="black" d="M1453.84,-28.69C1542.35,-38.26 1774.57,-36.84 1774.57,-24.44 1774.57,-12.49 1558.83,-10.74 1463.98,-19.2"/>
<polygon fill="black" stroke="black" points="1463.45,-15.73 1453.84,-20.19 1464.13,-22.7 1463.45,-15.73"/>
<text text-anchor="middle" x="1798.07" y="-20.74" font-family="Times,serif" font-size="14.00">{c1, c3}</text>
</g>
<!-- 2&#45;&gt;2 -->
<g id="edge89" class="edge">
<title>2&#45;&gt;2</title>
<path fill="none" stroke="black" d="M1453.91,-28.93C1551.32,-40.27 1821.57,-38.77 1821.57,-24.44 1821.57,-10.59 1568.97,-8.73 1464.16,-18.86"/>
<polygon fill="black" stroke="black" points="1463.48,-15.42 1453.91,-19.95 1464.22,-22.38 1463.48,-15.42"/>
<text text-anchor="middle" x="1835.07" y="-20.74" font-family="Times,serif" font-size="14.00">{c0}</text>
</g>
<!-- 2&#45;&gt;2 -->
<g id="edge90" class="edge">
<title>2&#45;&gt;2</title>
<path fill="none" stroke="black" d="M1453.86,-29.2C1557.08,-42.27 1848.57,-40.68 1848.57,-24.44 1848.57,-8.71 1575.01,-6.73 1464.07,-18.5"/>
<polygon fill="black" stroke="black" points="1463.39,-15.06 1453.86,-19.68 1464.2,-22.01 1463.39,-15.06"/>
<text text-anchor="middle" x="1862.07" y="-20.74" font-family="Times,serif" font-size="14.00">{c3}</text>
</g>
<!-- 2&#45;&gt;2 -->
<g id="edge91" class="edge">
<title>2&#45;&gt;2</title>
<path fill="none" stroke="black" d="M1453.88,-29.44C1562.96,-44.27 1875.57,-42.61 1875.57,-24.44 1875.57,-6.81 1581.01,-4.72 1463.97,-18.18"/>
<polygon fill="black" stroke="black" points="1463.37,-14.73 1453.88,-19.44 1464.23,-21.67 1463.37,-14.73"/>
<text text-anchor="middle" x="1899.07" y="-20.74" font-family="Times,serif" font-size="14.00">{c0, c2}</text>
</g>
<!-- 2&#45;&gt;2 -->
<g id="edge92" class="edge">
<title>2&#45;&gt;2</title>
<path fill="none" stroke="black" d="M1453.69,-29.57C1570.91,-46.28 1922.57,-44.57 1922.57,-24.44 1922.57,-4.86 1589.87,-2.71 1463.82,-17.98"/>
<polygon fill="black" stroke="black" points="1463.15,-14.54 1453.69,-19.31 1464.06,-21.48 1463.15,-14.54"/>
<text text-anchor="middle" x="1956.07" y="-20.74" font-family="Times,serif" font-size="14.00">{c1, c2, c3}</text>
</g>
<!-- 2&#45;&gt;2 -->
<g id="edge93" class="edge">
<title>2&#45;&gt;2</title>
<path fill="none" stroke="black" d="M1453.46,-29.63C1580.79,-48.29 1989.57,-46.57 1989.57,-24.44 1989.57,-2.88 1601.29,-0.69 1463.69,-17.87"/>
<polygon fill="black" stroke="black" points="1462.9,-14.45 1453.46,-19.26 1463.84,-21.39 1462.9,-14.45"/>
<text text-anchor="middle" x="2033.57" y="-20.74" font-family="Times,serif" font-size="14.00">{c0, c1, c2, c3}</text>
</g>
<!-- 2&#45;&gt;2 -->
<g id="edge94" class="edge">
<title>2&#45;&gt;2</title>
<path fill="none" stroke="black" d="M1453.5,-29.67C1593,-50.31 2077.57,-48.56 2077.57,-24.44 2077.57,-0.86 1614.52,1.33 1463.41,-17.86"/>
<polygon fill="black" stroke="black" points="1462.93,-14.39 1453.5,-19.21 1463.88,-21.32 1462.93,-14.39"/>
<text text-anchor="middle" x="2084.57" y="-20.74" font-family="Times,serif" font-size="14.00">{}</text>
</g>
<!-- 2&#45;&gt;2 -->
<g id="edge95" class="edge">
<title>2&#45;&gt;2</title>
<path fill="none" stroke="black" d="M1453.51,-29.86C1597.54,-52.31 2095.57,-50.5 2095.57,-24.44 2095.57,1.03 1619.66,3.33 1463.75,-17.55"/>
<polygon fill="black" stroke="black" points="1462.91,-14.13 1453.51,-19.02 1463.91,-21.06 1462.91,-14.13"/>
<text text-anchor="middle" x="2119.07" y="-20.74" font-family="Times,serif" font-size="14.00">{c1, c2}</text>
</g>
<!-- 2&#45;&gt;2 -->
<g id="edge96" class="edge">
<title>2&#45;&gt;2</title>
<path fill="none" stroke="black" d="M1453.33,-29.94C1604.54,-54.31 2142.57,-52.48 2142.57,-24.44 2142.57,2.99 1627.41,5.34 1463.6,-17.4"/>
<polygon fill="black" stroke="black" points="1462.7,-14 1453.33,-18.94 1463.73,-20.92 1462.7,-14"/>
<text text-anchor="middle" x="2156.07" y="-20.74" font-family="Times,serif" font-size="14.00">{c1}</text>
</g>
<!-- 2&#45;&gt;2 -->
<g id="edge97" class="edge">
<title>2&#45;&gt;2</title>
<path fill="none" stroke="black" d="M1453.7,-30.15C1610.87,-56.31 2169.57,-54.41 2169.57,-24.44 2169.57,4.93 1633.02,7.34 1463.61,-17.2"/>
<polygon fill="black" stroke="black" points="1463.04,-13.74 1453.7,-18.73 1464.12,-20.66 1463.04,-13.74"/>
<text text-anchor="middle" x="2203.07" y="-20.74" font-family="Times,serif" font-size="14.00">{c0, c1, c3}</text>
</g>
<!-- 3&#45;&gt;2 -->
<g id="edge43" class="edge">
<title>3&#45;&gt;2</title>
<path fill="none" stroke="black" d="M1026.67,-184.22C1025.25,-173.57 1021.8,-160.29 1013.57,-151.44 997.49,-134.15 977.15,-152.76 963.57,-133.44 954.37,-120.35 953.22,-109.64 963.57,-97.44 995.34,-60 1026.08,-95.25 1072.57,-79.44 1085.94,-74.9 1086.99,-68.31 1100.57,-64.44 1221.34,-30 1260.89,-77.54 1382.57,-46.44 1387.76,-45.11 1393.09,-43.19 1398.17,-41.05"/>
<polygon fill="black" stroke="black" points="1399.93,-44.09 1407.56,-36.73 1397.01,-37.73 1399.93,-44.09"/>
<text text-anchor="middle" x="997.07" y="-111.74" font-family="Times,serif" font-size="14.00">{c0, c2, c3}</text>
</g>
<!-- 3&#45;&gt;2 -->
<g id="edge44" class="edge">
<title>3&#45;&gt;2</title>
<path fill="none" stroke="black" d="M1030.21,-184.48C1034.43,-162.24 1044.58,-123.04 1066.57,-97.44 1067.79,-96.02 1123.77,-64.98 1125.57,-64.44 1235.29,-31.71 1271.72,-75.13 1382.57,-46.44 1387.76,-45.1 1393.08,-43.17 1398.16,-41.02"/>
<polygon fill="black" stroke="black" points="1399.93,-44.06 1407.55,-36.7 1397,-37.7 1399.93,-44.06"/>
<text text-anchor="middle" x="1090.07" y="-111.74" font-family="Times,serif" font-size="14.00">{c0, c3}</text>
</g>
<!-- 3&#45;&gt;2 -->
<g id="edge45" class="edge">
<title>3&#45;&gt;2</title>
<path fill="none" stroke="black" d="M1045.18,-188.47C1062.91,-175.19 1090.82,-153.69 1113.57,-133.44 1130.47,-118.4 1133.34,-113.2 1149.57,-97.44 1164.91,-82.55 1165.08,-73.22 1184.57,-64.44 1265.13,-28.14 1297.26,-69.47 1382.57,-46.44 1387.74,-45.04 1393.06,-43.09 1398.14,-40.93"/>
<polygon fill="black" stroke="black" points="1399.9,-43.97 1407.53,-36.61 1396.98,-37.61 1399.9,-43.97"/>
<text text-anchor="middle" x="1163.07" y="-111.74" font-family="Times,serif" font-size="14.00">{c2}</text>
</g>
<!-- 3&#45;&gt;2 -->
<g id="edge46" class="edge">
<title>3&#45;&gt;2</title>
<path fill="none" stroke="black" d="M1051.39,-193.57C1082.01,-182.81 1136.04,-161.57 1176.57,-133.44 1195.16,-120.54 1194.74,-111.37 1212.57,-97.44 1235.04,-79.9 1240.77,-74.16 1267.57,-64.44 1316.21,-46.81 1333.09,-61.53 1382.57,-46.44 1387.6,-44.91 1392.78,-42.92 1397.76,-40.77"/>
<polygon fill="black" stroke="black" points="1399.36,-43.88 1406.99,-36.53 1396.44,-37.52 1399.36,-43.88"/>
<text text-anchor="middle" x="1236.07" y="-111.74" font-family="Times,serif" font-size="14.00">{c2, c3}</text>
</g>
<!-- 3&#45;&gt;2 -->
<g id="edge47" class="edge">
<title>3&#45;&gt;2</title>
<path fill="none" stroke="black" d="M1053.97,-198.06C1098.89,-191.4 1191.88,-173.58 1259.57,-133.44 1279.03,-121.9 1279.34,-113.2 1295.57,-97.44 1310.91,-82.55 1312.28,-75.52 1330.57,-64.44 1351.49,-51.77 1359.9,-55.62 1382.57,-46.44 1387.22,-44.56 1392.08,-42.45 1396.82,-40.31"/>
<polygon fill="black" stroke="black" points="1398.65,-43.32 1406.25,-35.94 1395.71,-36.96 1398.65,-43.32"/>
<text text-anchor="middle" x="1309.07" y="-111.74" font-family="Times,serif" font-size="14.00">{c0}</text>
</g>
<!-- 3&#45;&gt;2 -->
<g id="edge48" class="edge">
<title>3&#45;&gt;2</title>
<path fill="none" stroke="black" d="M1054.6,-200.95C1109.32,-198.8 1235.39,-187.82 1322.57,-133.44 1325.08,-131.88 1376.35,-78.72 1406.31,-47.58"/>
<polygon fill="black" stroke="black" points="1409.01,-49.81 1413.42,-40.18 1403.96,-44.96 1409.01,-49.81"/>
<text text-anchor="middle" x="1372.07" y="-111.74" font-family="Times,serif" font-size="14.00">{c3}</text>
</g>
<!-- 3&#45;&gt;2 -->
<g id="edge49" class="edge">
<title>3&#45;&gt;2</title>
<path fill="none" stroke="black" d="M1054.48,-199.99C1129.3,-195.42 1337.49,-178.81 1385.57,-133.44 1408.26,-112.03 1418.87,-76.94 1423.71,-52.59"/>
<polygon fill="black" stroke="black" points="1427.19,-53.03 1425.5,-42.57 1420.3,-51.79 1427.19,-53.03"/>
<text text-anchor="middle" x="1434.07" y="-111.74" font-family="Times,serif" font-size="14.00">{c0, c2}</text>
</g>
<!-- 3&#45;&gt;3 -->
<g id="edge36" class="edge">
<title>3&#45;&gt;3</title>
<path fill="none" stroke="black" d="M1052.1,-210.19C1063.08,-210.93 1072.57,-208.35 1072.57,-202.44 1072.57,-198.47 1068.29,-196 1062.14,-195.04"/>
<polygon fill="black" stroke="black" points="1062.22,-191.54 1052.1,-194.69 1061.98,-198.53 1062.22,-191.54"/>
<text text-anchor="middle" x="1079.57" y="-198.74" font-family="Times,serif" font-size="14.00">{}</text>
</g>
<!-- 4 -->
<g id="node6" class="node">
<title>4</title>
<ellipse fill="none" stroke="black" cx="644.57" cy="-115.44" rx="27" ry="18"/>
<text text-anchor="middle" x="644.57" y="-111.74" font-family="Times,serif" font-size="14.00">4</text>
</g>
<!-- 3&#45;&gt;4 -->
<g id="edge34" class="edge">
<title>3&#45;&gt;4</title>
<path fill="none" stroke="black" d="M1000.62,-200.97C882.64,-198.78 416.67,-188.74 395.57,-166.44 390.99,-161.6 391.2,-156.47 395.57,-151.44 422.51,-120.45 544.31,-116.11 607.01,-115.98"/>
<polygon fill="black" stroke="black" points="607.27,-119.48 617.27,-116 607.28,-112.48 607.27,-119.48"/>
<text text-anchor="middle" x="419.07" y="-155.24" font-family="Times,serif" font-size="14.00">{c1, c3}</text>
</g>
<!-- 3&#45;&gt;4 -->
<g id="edge35" class="edge">
<title>3&#45;&gt;4</title>
<path fill="none" stroke="black" d="M1000.34,-200.77C890.38,-197.93 484.08,-186.14 465.57,-166.44 423.5,-121.67 543.03,-115.84 607.05,-115.79"/>
<polygon fill="black" stroke="black" points="607.17,-119.29 617.18,-115.83 607.2,-112.29 607.17,-119.29"/>
<text text-anchor="middle" x="499.07" y="-155.24" font-family="Times,serif" font-size="14.00">{c0, c1, c2}</text>
</g>
<!-- 3&#45;&gt;4 -->
<g id="edge37" class="edge">
<title>3&#45;&gt;4</title>
<path fill="none" stroke="black" d="M1000.49,-201.53C904.69,-201.55 585.94,-199.14 555.57,-166.44 536.12,-145.49 576.52,-131.09 609.07,-123.3"/>
<polygon fill="black" stroke="black" points="609.85,-126.71 618.84,-121.1 608.31,-119.89 609.85,-126.71"/>
<text text-anchor="middle" x="589.07" y="-155.24" font-family="Times,serif" font-size="14.00">{c1, c2, c3}</text>
</g>
<!-- 3&#45;&gt;4 -->
<g id="edge38" class="edge">
<title>3&#45;&gt;4</title>
<path fill="none" stroke="black" d="M1000.61,-201C917.56,-199.37 669.71,-192.37 645.57,-166.44 639.91,-160.37 638.34,-151.85 638.59,-143.57"/>
<polygon fill="black" stroke="black" points="642.1,-143.73 639.72,-133.4 635.14,-142.96 642.1,-143.73"/>
<text text-anchor="middle" x="689.57" y="-155.24" font-family="Times,serif" font-size="14.00">{c0, c1, c2, c3}</text>
</g>
<!-- 3&#45;&gt;4 -->
<g id="edge39" class="edge">
<title>3&#45;&gt;4</title>
<path fill="none" stroke="black" d="M1000.47,-201.88C950.6,-201.84 841.59,-197.78 756.57,-166.44 745.12,-162.22 744.42,-157.04 733.57,-151.44 715.69,-142.21 694.78,-133.88 677.73,-127.66"/>
<polygon fill="black" stroke="black" points="678.78,-124.32 668.19,-124.25 676.43,-130.91 678.78,-124.32"/>
<text text-anchor="middle" x="770.07" y="-155.24" font-family="Times,serif" font-size="14.00">{c1}</text>
</g>
<!-- 3&#45;&gt;4 -->
<g id="edge40" class="edge">
<title>3&#45;&gt;4</title>
<path fill="none" stroke="black" d="M1000.44,-200.77C957.8,-198.93 873.09,-192.05 806.57,-166.44 795.18,-162.06 794.75,-156.33 783.57,-151.44 750.17,-136.83 709.47,-127.48 680.77,-122.15"/>
<polygon fill="black" stroke="black" points="681.23,-118.68 670.77,-120.37 680,-125.57 681.23,-118.68"/>
<text text-anchor="middle" x="830.07" y="-155.24" font-family="Times,serif" font-size="14.00">{c1, c2}</text>
</g>
<!-- 3&#45;&gt;4 -->
<g id="edge41" class="edge">
<title>3&#45;&gt;4</title>
<path fill="none" stroke="black" d="M1001.33,-198.2C970.5,-193.76 918.28,-184.22 876.57,-166.44 865.34,-161.66 864.94,-155.88 853.57,-151.44 796.22,-129.07 724.56,-120.99 681.79,-118.08"/>
<polygon fill="black" stroke="black" points="681.76,-114.57 671.56,-117.44 681.33,-121.56 681.76,-114.57"/>
<text text-anchor="middle" x="900.07" y="-155.24" font-family="Times,serif" font-size="14.00">{c0, c1}</text>
</g>
<!-- 3&#45;&gt;4 -->
<g id="edge42" class="edge">
<title>3&#45;&gt;4</title>
<path fill="none" stroke="black" d="M1004.74,-192.79C988.24,-186.24 965.6,-176.66 946.57,-166.44 935.82,-160.67 935.03,-155.64 923.57,-151.44 841.07,-121.2 736.65,-116.18 681.92,-115.87"/>
<polygon fill="black" stroke="black" points="681.67,-112.37 671.66,-115.86 681.66,-119.37 681.67,-112.37"/>
<text text-anchor="middle" x="980.07" y="-155.24" font-family="Times,serif" font-size="14.00">{c0, c1, c3}</text>
</g>
<!-- 4&#45;&gt;2 -->
<g id="edge59" class="edge">
<title>4&#45;&gt;2</title>
<path fill="none" stroke="black" d="M639.53,-97.3C637.48,-86.4 637.24,-72.81 645.57,-64.44 674.47,-35.42 1342.7,-55.8 1382.57,-46.44 1387.79,-45.22 1393.12,-43.35 1398.21,-41.22"/>
<polygon fill="black" stroke="black" points="1399.97,-44.27 1407.6,-36.92 1397.05,-37.9 1399.97,-44.27"/>
<text text-anchor="middle" x="659.07" y="-68.24" font-family="Times,serif" font-size="14.00">{c2}</text>
</g>
<!-- 4&#45;&gt;2 -->
<g id="edge60" class="edge">
<title>4&#45;&gt;2</title>
<path fill="none" stroke="black" d="M655.49,-98.59C664.66,-86.77 678.9,-71.51 695.57,-64.44 765.88,-34.65 1308.25,-63.95 1382.57,-46.44 1387.79,-45.21 1393.12,-43.34 1398.21,-41.21"/>
<polygon fill="black" stroke="black" points="1399.97,-44.26 1407.6,-36.91 1397.05,-37.9 1399.97,-44.26"/>
<text text-anchor="middle" x="719.07" y="-68.24" font-family="Times,serif" font-size="14.00">{c2, c3}</text>
</g>
<!-- 4&#45;&gt;2 -->
<g id="edge61" class="edge">
<title>4&#45;&gt;2</title>
<path fill="none" stroke="black" d="M668.98,-107.48C689.21,-101.3 718.46,-91.4 742.57,-79.44 753.5,-74.02 753.92,-68.09 765.57,-64.44 896.47,-23.44 1249.1,-78.1 1382.57,-46.44 1387.78,-45.2 1393.12,-43.33 1398.21,-41.2"/>
<polygon fill="black" stroke="black" points="1399.97,-44.24 1407.6,-36.89 1397.05,-37.88 1399.97,-44.24"/>
<text text-anchor="middle" x="789.07" y="-68.24" font-family="Times,serif" font-size="14.00">{c1, c3}</text>
</g>
<!-- 4&#45;&gt;2 -->
<g id="edge62" class="edge">
<title>4&#45;&gt;2</title>
<path fill="none" stroke="black" d="M671.08,-111.99C704.96,-108.18 764.93,-99.12 812.57,-79.44 823.85,-74.78 823.93,-68.11 835.57,-64.44 951.56,-27.87 1264.29,-74.73 1382.57,-46.44 1387.78,-45.19 1393.12,-43.32 1398.2,-41.18"/>
<polygon fill="black" stroke="black" points="1399.97,-44.23 1407.59,-36.88 1397.05,-37.87 1399.97,-44.23"/>
<text text-anchor="middle" x="849.07" y="-68.24" font-family="Times,serif" font-size="14.00">{c3}</text>
</g>
<!-- 4&#45;&gt;2 -->
<g id="edge63" class="edge">
<title>4&#45;&gt;2</title>
<path fill="none" stroke="black" d="M671.68,-113.69C713.85,-111.74 797.13,-104.71 862.57,-79.44 873.95,-75.04 873.94,-68.13 885.57,-64.44 990.92,-31.04 1275.13,-72.33 1382.57,-46.44 1387.78,-45.19 1393.11,-43.3 1398.2,-41.17"/>
<polygon fill="black" stroke="black" points="1399.96,-44.21 1407.59,-36.86 1397.04,-37.85 1399.96,-44.21"/>
<text text-anchor="middle" x="919.07" y="-68.24" font-family="Times,serif" font-size="14.00">{c1, c2, c3}</text>
</g>
<!-- 4&#45;&gt;2 -->
<g id="edge64" class="edge">
<title>4&#45;&gt;2</title>
<path fill="none" stroke="black" d="M671.62,-112.97C736.81,-109.16 901.05,-97.99 952.57,-79.44 964.05,-75.31 963.95,-68.18 975.57,-64.44 1061.76,-36.73 1294.64,-68 1382.57,-46.44 1387.77,-45.17 1393.1,-43.27 1398.19,-41.13"/>
<polygon fill="black" stroke="black" points="1399.95,-44.18 1407.58,-36.82 1397.03,-37.82 1399.95,-44.18"/>
<text text-anchor="middle" x="999.07" y="-68.24" font-family="Times,serif" font-size="14.00">{c1, c2}</text>
</g>
<!-- 4&#45;&gt;2 -->
<g id="edge65" class="edge">
<title>4&#45;&gt;2</title>
<path fill="none" stroke="black" d="M671.54,-113.63C746.74,-111.09 957.53,-102.09 1022.57,-79.44 1034.1,-75.43 1033.97,-68.23 1045.57,-64.44 1188.15,-17.88 1237.06,-82.82 1382.57,-46.44 1387.77,-45.14 1393.1,-43.24 1398.18,-41.09"/>
<polygon fill="black" stroke="black" points="1399.94,-44.14 1407.57,-36.78 1397.02,-37.77 1399.94,-44.14"/>
<text text-anchor="middle" x="1059.07" y="-68.24" font-family="Times,serif" font-size="14.00">{c1}</text>
</g>
<!-- 4&#45;&gt;4 -->
<g id="edge55" class="edge">
<title>4&#45;&gt;4</title>
<path fill="none" stroke="black" d="M669.1,-123.19C680.08,-123.93 689.57,-121.35 689.57,-115.44 689.57,-111.47 685.29,-109 679.14,-108.04"/>
<polygon fill="black" stroke="black" points="679.22,-104.54 669.1,-107.69 678.98,-111.53 679.22,-104.54"/>
<text text-anchor="middle" x="696.57" y="-111.74" font-family="Times,serif" font-size="14.00">{}</text>
</g>
<!-- 5 -->
<g id="node7" class="node">
<title>5</title>
<ellipse fill="none" stroke="black" cx="303.57" cy="-24.44" rx="18" ry="18"/>
<ellipse fill="none" stroke="black" cx="303.57" cy="-24.44" rx="22" ry="22"/>
<text text-anchor="middle" x="303.57" y="-20.74" font-family="Times,serif" font-size="14.00">5</text>
</g>
<!-- 4&#45;&gt;5 -->
<g id="edge50" class="edge">
<title>4&#45;&gt;5</title>
<path fill="none" stroke="black" d="M617.28,-113.98C497.81,-111.85 25.94,-102.02 4.57,-79.44 -33.08,-39.68 187.01,-28.89 271.54,-26.24"/>
<polygon fill="black" stroke="black" points="271.72,-29.73 281.61,-25.94 271.51,-22.74 271.72,-29.73"/>
<text text-anchor="middle" x="48.57" y="-68.24" font-family="Times,serif" font-size="14.00">{c0, c1, c2, c3}</text>
</g>
<!-- 4&#45;&gt;5 -->
<g id="edge51" class="edge">
<title>4&#45;&gt;5</title>
<path fill="none" stroke="black" d="M617.48,-114.76C514.32,-115.69 150.09,-116.32 115.57,-79.44 69.74,-30.48 206.53,-24.92 271.43,-24.94"/>
<polygon fill="black" stroke="black" points="271.54,-28.44 281.56,-24.99 271.57,-21.44 271.54,-28.44"/>
<text text-anchor="middle" x="139.07" y="-68.24" font-family="Times,serif" font-size="14.00">{c0, c1}</text>
</g>
<!-- 4&#45;&gt;5 -->
<g id="edge52" class="edge">
<title>4&#45;&gt;5</title>
<path fill="none" stroke="black" d="M617.59,-114.47C523.64,-114.27 215.01,-111.21 185.57,-79.44 157.93,-49.61 227.95,-35 271.64,-28.98"/>
<polygon fill="black" stroke="black" points="272.11,-32.44 281.58,-27.69 271.21,-25.5 272.11,-32.44"/>
<text text-anchor="middle" x="219.07" y="-68.24" font-family="Times,serif" font-size="14.00">{c0, c1, c2}</text>
</g>
<!-- 4&#45;&gt;5 -->
<g id="edge53" class="edge">
<title>4&#45;&gt;5</title>
<path fill="none" stroke="black" d="M617.65,-113.93C536.52,-112.12 298.52,-104.67 275.57,-79.44 267.19,-70.23 272.47,-58.04 280.61,-47.58"/>
<polygon fill="black" stroke="black" points="283.29,-49.83 287.21,-39.99 278.01,-45.24 283.29,-49.83"/>
<text text-anchor="middle" x="289.07" y="-68.24" font-family="Times,serif" font-size="14.00">{c0}</text>
</g>
<!-- 4&#45;&gt;5 -->
<g id="edge54" class="edge">
<title>4&#45;&gt;5</title>
<path fill="none" stroke="black" d="M617.56,-114.92C549.15,-115.6 371.26,-113.93 325.57,-79.44 318,-73.73 313.02,-64.96 309.75,-56.14"/>
<polygon fill="black" stroke="black" points="313.02,-54.85 306.75,-46.32 306.33,-56.9 313.02,-54.85"/>
<text text-anchor="middle" x="359.07" y="-68.24" font-family="Times,serif" font-size="14.00">{c0, c2, c3}</text>
</g>
<!-- 4&#45;&gt;5 -->
<g id="edge56" class="edge">
<title>4&#45;&gt;5</title>
<path fill="none" stroke="black" d="M617.54,-113.98C573.72,-112.44 485.08,-105.99 415.57,-79.44 404.17,-75.09 403.31,-70.24 392.57,-64.44 373.46,-54.12 351.07,-44.31 333.52,-37.12"/>
<polygon fill="black" stroke="black" points="334.4,-33.7 323.81,-33.2 331.78,-40.19 334.4,-33.7"/>
<text text-anchor="middle" x="449.07" y="-68.24" font-family="Times,serif" font-size="14.00">{c0, c1, c3}</text>
</g>
<!-- 4&#45;&gt;5 -->
<g id="edge57" class="edge">
<title>4&#45;&gt;5</title>
<path fill="none" stroke="black" d="M618.37,-110.51C589.78,-105.62 543.08,-95.84 505.57,-79.44 494.39,-74.55 493.83,-69.15 482.57,-64.44 433.57,-43.94 372.32,-33.59 335.66,-28.87"/>
<polygon fill="black" stroke="black" points="335.9,-25.38 325.55,-27.63 335.05,-32.32 335.9,-25.38"/>
<text text-anchor="middle" x="529.07" y="-68.24" font-family="Times,serif" font-size="14.00">{c0, c3}</text>
</g>
<!-- 4&#45;&gt;5 -->
<g id="edge58" class="edge">
<title>4&#45;&gt;5</title>
<path fill="none" stroke="black" d="M623.11,-104.3C609.33,-97.61 591.16,-88.44 575.57,-79.44 565,-73.34 563.96,-68.82 552.57,-64.44 478.52,-36.01 384.48,-28.29 335.89,-26.2"/>
<polygon fill="black" stroke="black" points="335.8,-22.7 325.68,-25.82 335.54,-29.69 335.8,-22.7"/>
<text text-anchor="middle" x="599.07" y="-68.24" font-family="Times,serif" font-size="14.00">{c0, c2}</text>
</g>
<!-- 5&#45;&gt;5 -->
<g id="edge66" class="edge">
<title>5&#45;&gt;5</title>
<path fill="none" stroke="black" d="M325.78,-25.92C335.37,-26.04 343.57,-25.55 343.57,-24.44 343.57,-23.77 340.52,-23.32 335.97,-23.1"/>
<polygon fill="black" stroke="black" points="335.83,-19.6 325.78,-22.96 335.73,-26.6 335.83,-19.6"/>
<text text-anchor="middle" x="377.07" y="-20.74" font-family="Times,serif" font-size="14.00">{c1, c2, c3}</text>
</g>
<!-- 5&#45;&gt;5 -->
<g id="edge67" class="edge">
<title>5&#45;&gt;5</title>
<path fill="none" stroke="black" d="M325.92,-26.57C358.66,-28.23 410.57,-27.52 410.57,-24.44 410.57,-21.66 368.3,-20.82 335.99,-21.89"/>
<polygon fill="black" stroke="black" points="335.76,-18.4 325.92,-22.31 336.05,-25.4 335.76,-18.4"/>
<text text-anchor="middle" x="444.07" y="-20.74" font-family="Times,serif" font-size="14.00">{c0, c1, c2}</text>
</g>
<!-- 5&#45;&gt;5 -->
<g id="edge68" class="edge">
<title>5&#45;&gt;5</title>
<path fill="none" stroke="black" d="M325.49,-26.96C374.65,-30.27 477.57,-29.43 477.57,-24.44 477.57,-19.77 387.49,-18.74 335.62,-21.34"/>
<polygon fill="black" stroke="black" points="335.27,-17.85 325.49,-21.93 335.67,-24.84 335.27,-17.85"/>
<text text-anchor="middle" x="491.07" y="-20.74" font-family="Times,serif" font-size="14.00">{c1}</text>
</g>
<!-- 5&#45;&gt;5 -->
<g id="edge69" class="edge">
<title>5&#45;&gt;5</title>
<path fill="none" stroke="black" d="M325.66,-27.48C381.54,-32.27 504.57,-31.25 504.57,-24.44 504.57,-18.01 395.08,-16.75 335.77,-20.65"/>
<polygon fill="black" stroke="black" points="335.37,-17.17 325.66,-21.41 335.89,-24.15 335.37,-17.17"/>
<text text-anchor="middle" x="548.57" y="-20.74" font-family="Times,serif" font-size="14.00">{c0, c1, c2, c3}</text>
</g>
<!-- 5&#45;&gt;5 -->
<g id="edge70" class="edge">
<title>5&#45;&gt;5</title>
<path fill="none" stroke="black" d="M325.73,-27.63C398.16,-34.29 592.57,-33.23 592.57,-24.44 592.57,-16.03 414.51,-14.69 335.72,-20.43"/>
<polygon fill="black" stroke="black" points="335.42,-16.95 325.73,-21.25 335.99,-23.92 335.42,-16.95"/>
<text text-anchor="middle" x="616.07" y="-20.74" font-family="Times,serif" font-size="14.00">{c0, c1}</text>
</g>
<!-- 5&#45;&gt;5 -->
<g id="edge71" class="edge">
<title>5&#45;&gt;5</title>
<path fill="none" stroke="black" d="M325.49,-27.89C406.4,-36.3 639.57,-35.15 639.57,-24.44 639.57,-14.15 424.26,-12.68 335.65,-20.05"/>
<polygon fill="black" stroke="black" points="335.13,-16.58 325.49,-20.99 335.78,-23.55 335.13,-16.58"/>
<text text-anchor="middle" x="663.07" y="-20.74" font-family="Times,serif" font-size="14.00">{c1, c2}</text>
</g>
<!-- 5&#45;&gt;5 -->
<g id="edge72" class="edge">
<title>5&#45;&gt;5</title>
<path fill="none" stroke="black" d="M325.29,-28.11C414.3,-38.31 686.57,-37.09 686.57,-24.44 686.57,-12.24 433.11,-10.67 335.34,-19.74"/>
<polygon fill="black" stroke="black" points="334.88,-16.27 325.29,-20.77 335.6,-23.23 334.88,-16.27"/>
<text text-anchor="middle" x="693.57" y="-20.74" font-family="Times,serif" font-size="14.00">{}</text>
</g>
<!-- 5&#45;&gt;5 -->
<g id="edge73" class="edge">
<title>5&#45;&gt;5</title>
<path fill="none" stroke="black" d="M325.35,-28.4C418.84,-40.31 704.57,-38.99 704.57,-24.44 704.57,-10.39 438.04,-8.68 335.59,-19.3"/>
<polygon fill="black" stroke="black" points="334.89,-15.86 325.35,-20.48 335.69,-22.82 334.89,-15.86"/>
<text text-anchor="middle" x="728.07" y="-20.74" font-family="Times,serif" font-size="14.00">{c0, c3}</text>
</g>
<!-- 5&#45;&gt;5 -->
<g id="edge74" class="edge">
<title>5&#45;&gt;5</title>
<path fill="none" stroke="black" d="M325.49,-28.6C427.12,-42.31 751.57,-40.93 751.57,-24.44 751.57,-8.47 447.09,-6.67 335.65,-19.05"/>
<polygon fill="black" stroke="black" points="334.99,-15.6 325.49,-20.29 335.84,-22.55 334.99,-15.6"/>
<text text-anchor="middle" x="765.07" y="-20.74" font-family="Times,serif" font-size="14.00">{c0}</text>
</g>
<!-- 5&#45;&gt;5 -->
<g id="edge75" class="edge">
<title>5&#45;&gt;5</title>
<path fill="none" stroke="black" d="M325.23,-28.76C432.11,-44.32 778.57,-42.88 778.57,-24.44 778.57,-6.54 452.12,-4.66 335.22,-18.8"/>
<polygon fill="black" stroke="black" points="334.68,-15.34 325.23,-20.12 335.6,-22.28 334.68,-15.34"/>
<text text-anchor="middle" x="812.07" y="-20.74" font-family="Times,serif" font-size="14.00">{c0, c2, c3}</text>
</g>
<!-- 5&#45;&gt;5 -->
<g id="edge76" class="edge">
<title>5&#45;&gt;5</title>
<path fill="none" stroke="black" d="M325.34,-28.87C442.19,-46.33 845.57,-44.85 845.57,-24.44 845.57,-4.59 463.95,-2.65 335.55,-18.63"/>
<polygon fill="black" stroke="black" points="334.77,-15.2 325.34,-20.02 335.72,-22.14 334.77,-15.2"/>
<text text-anchor="middle" x="869.07" y="-20.74" font-family="Times,serif" font-size="14.00">{c0, c2}</text>
</g>
<!-- 5&#45;&gt;5 -->
<g id="edge77" class="edge">
<title>5&#45;&gt;5</title>
<path fill="none" stroke="black" d="M325.18,-28.97C449.28,-48.33 892.57,-46.82 892.57,-24.44 892.57,-2.63 471.5,-0.64 335.24,-18.48"/>
<polygon fill="black" stroke="black" points="334.59,-15.04 325.18,-19.92 335.58,-21.97 334.59,-15.04"/>
<text text-anchor="middle" x="906.07" y="-20.74" font-family="Times,serif" font-size="14.00">{c2}</text>
</g>
<!-- 5&#45;&gt;5 -->
<g id="edge78" class="edge">
<title>5&#45;&gt;5</title>
<path fill="none" stroke="black" d="M325.36,-29.14C455.11,-50.33 919.57,-48.77 919.57,-24.44 919.57,-0.71 477.51,1.36 335.45,-18.23"/>
<polygon fill="black" stroke="black" points="334.73,-14.8 325.36,-19.74 335.77,-21.72 334.73,-14.8"/>
<text text-anchor="middle" x="953.07" y="-20.74" font-family="Times,serif" font-size="14.00">{c0, c1, c3}</text>
</g>
<!-- 5&#45;&gt;5 -->
<g id="edge79" class="edge">
<title>5&#45;&gt;5</title>
<path fill="none" stroke="black" d="M325.42,-29.22C464.38,-52.34 986.57,-50.75 986.57,-24.44 986.57,1.27 487.58,3.37 335.35,-18.14"/>
<polygon fill="black" stroke="black" points="334.78,-14.69 325.42,-19.66 335.83,-21.61 334.78,-14.69"/>
<text text-anchor="middle" x="1000.07" y="-20.74" font-family="Times,serif" font-size="14.00">{c3}</text>
</g>
<!-- 5&#45;&gt;5 -->
<g id="edge80" class="edge">
<title>5&#45;&gt;5</title>
<path fill="none" stroke="black" d="M325.31,-29.33C469.47,-54.34 1013.57,-52.71 1013.57,-24.44 1013.57,3.2 493.64,5.37 335.62,-17.91"/>
<polygon fill="black" stroke="black" points="334.63,-14.52 325.31,-19.55 335.74,-21.43 334.63,-14.52"/>
<text text-anchor="middle" x="1037.07" y="-20.74" font-family="Times,serif" font-size="14.00">{c1, c3}</text>
</g>
<!-- 5&#45;&gt;5 -->
<g id="edge81" class="edge">
<title>5&#45;&gt;5</title>
<path fill="none" stroke="black" d="M325.26,-29.4C476.44,-56.35 1060.57,-54.69 1060.57,-24.44 1060.57,5.16 501.27,7.38 335.6,-17.78"/>
<polygon fill="black" stroke="black" points="334.56,-14.4 325.26,-19.48 335.7,-21.31 334.56,-14.4"/>
<text text-anchor="middle" x="1084.07" y="-20.74" font-family="Times,serif" font-size="14.00">{c2, c3}</text>
</g>
</g>
</svg>
