<?xml version="1.0" encoding="UTF-8" standalone="no"?>
<!DOCTYPE svg PUBLIC "-//W3C//DTD SVG 1.1//EN"
 "http://www.w3.org/Graphics/SVG/1.1/DTD/svg11.dtd">
<!-- Generated by graphviz version 2.43.0 (0)
 -->
<!-- Title: %3 Pages: 1 -->
<svg width="2559pt" height="475pt"
 viewBox="0.00 0.00 2558.66 475.44" xmlns="http://www.w3.org/2000/svg" xmlns:xlink="http://www.w3.org/1999/xlink">
<g id="graph0" class="graph" transform="scale(1 1) rotate(0) translate(4 471.44)">
<title>%3</title>
<polygon fill="white" stroke="transparent" points="-4,4 -4,-471.44 2554.66,-471.44 2554.66,4 -4,4"/>
<!-- fake -->
<g id="node1" class="node">
<title>fake</title>
</g>
<!-- 0 -->
<g id="node2" class="node">
<title>0</title>
<ellipse fill="none" stroke="black" cx="1826.66" cy="-376.44" rx="27" ry="18"/>
<text text-anchor="middle" x="1826.66" y="-372.74" font-family="Times,serif" font-size="14.00">0</text>
</g>
<!-- fake&#45;&gt;0 -->
<g id="edge1" class="edge">
<title>fake&#45;&gt;0</title>
<path fill="none" stroke="black" stroke-width="2" d="M1826.66,-431.25C1826.66,-423.23 1826.66,-413.48 1826.66,-404.51"/>
<polygon fill="black" stroke="black" stroke-width="2" points="1830.16,-404.46 1826.66,-394.46 1823.16,-404.47 1830.16,-404.46"/>
</g>
<!-- 0&#45;&gt;0 -->
<g id="edge4" class="edge">
<title>0&#45;&gt;0</title>
<path fill="none" stroke="black" d="M1852.11,-383.13C1862.69,-383.59 1871.66,-381.36 1871.66,-376.44 1871.66,-373.21 1867.8,-371.14 1862.15,-370.22"/>
<polygon fill="black" stroke="black" points="1862.26,-366.73 1852.11,-369.75 1861.93,-373.72 1862.26,-366.73"/>
<text text-anchor="middle" x="1878.66" y="-372.74" font-family="Times,serif" font-size="14.00">{}</text>
</g>
<!-- 1 -->
<g id="node3" class="node">
<title>1</title>
<ellipse fill="none" stroke="black" cx="1464.66" cy="-289.44" rx="27" ry="18"/>
<text text-anchor="middle" x="1464.66" y="-285.74" font-family="Times,serif" font-size="14.00">1</text>
</g>
<!-- 0&#45;&gt;1 -->
<g id="edge2" class="edge">
<title>0&#45;&gt;1</title>
<path fill="none" stroke="black" d="M1799.42,-374.79C1688.45,-372.03 1275.47,-360.43 1256.66,-340.44 1252.1,-335.58 1252.36,-330.53 1256.66,-325.44 1278.11,-300.08 1373.61,-293.08 1427.44,-291.16"/>
<polygon fill="black" stroke="black" points="1427.73,-294.65 1437.62,-290.84 1427.51,-287.66 1427.73,-294.65"/>
<text text-anchor="middle" x="1300.66" y="-329.24" font-family="Times,serif" font-size="14.00">{c0, c1, c2, c3}</text>
</g>
<!-- 0&#45;&gt;1 -->
<g id="edge3" class="edge">
<title>0&#45;&gt;1</title>
<path fill="none" stroke="black" d="M1799.68,-375.46C1705.73,-375.27 1397.1,-372.2 1367.66,-340.44 1346.45,-317.54 1392.71,-303.41 1428.38,-296.24"/>
<polygon fill="black" stroke="black" points="1429.39,-299.61 1438.56,-294.32 1428.09,-292.73 1429.39,-299.61"/>
<text text-anchor="middle" x="1391.16" y="-329.24" font-family="Times,serif" font-size="14.00">{c0, c1}</text>
</g>
<!-- 0&#45;&gt;1 -->
<g id="edge5" class="edge">
<title>0&#45;&gt;1</title>
<path fill="none" stroke="black" d="M1799.49,-375.06C1715.14,-373.62 1462.02,-367.09 1437.66,-340.44 1430.07,-332.13 1434.61,-321.3 1441.97,-311.84"/>
<polygon fill="black" stroke="black" points="1444.62,-314.12 1448.61,-304.31 1439.37,-309.49 1444.62,-314.12"/>
<text text-anchor="middle" x="1461.16" y="-329.24" font-family="Times,serif" font-size="14.00">{c0, c2}</text>
</g>
<!-- 0&#45;&gt;1 -->
<g id="edge6" class="edge">
<title>0&#45;&gt;1</title>
<path fill="none" stroke="black" d="M1799.74,-374.99C1732.35,-373.49 1558.19,-367.06 1507.66,-340.44 1496.65,-334.63 1487.24,-324.74 1480.05,-315.28"/>
<polygon fill="black" stroke="black" points="1482.72,-312.99 1474.09,-306.84 1477,-317.03 1482.72,-312.99"/>
<text text-anchor="middle" x="1521.16" y="-329.24" font-family="Times,serif" font-size="14.00">{c0}</text>
</g>
<!-- 0&#45;&gt;1 -->
<g id="edge7" class="edge">
<title>0&#45;&gt;1</title>
<path fill="none" stroke="black" d="M1799.37,-375.84C1749.69,-375.72 1641.83,-371.51 1557.66,-340.44 1546.21,-336.21 1545.25,-331.51 1534.66,-325.44 1521.98,-318.16 1507.6,-310.82 1495.18,-304.75"/>
<polygon fill="black" stroke="black" points="1496.66,-301.58 1486.13,-300.39 1493.62,-307.88 1496.66,-301.58"/>
<text text-anchor="middle" x="1591.16" y="-329.24" font-family="Times,serif" font-size="14.00">{c0, c1, c2}</text>
</g>
<!-- 0&#45;&gt;1 -->
<g id="edge8" class="edge">
<title>0&#45;&gt;1</title>
<path fill="none" stroke="black" d="M1799.97,-373.43C1764.17,-370.03 1699.16,-361.33 1647.66,-340.44 1636.36,-335.85 1635.92,-330.15 1624.66,-325.44 1584.31,-308.54 1534.67,-299.31 1501.49,-294.63"/>
<polygon fill="black" stroke="black" points="1501.7,-291.13 1491.32,-293.27 1500.77,-298.07 1501.7,-291.13"/>
<text text-anchor="middle" x="1681.16" y="-329.24" font-family="Times,serif" font-size="14.00">{c0, c2, c3}</text>
</g>
<!-- 0&#45;&gt;1 -->
<g id="edge9" class="edge">
<title>0&#45;&gt;1</title>
<path fill="none" stroke="black" d="M1803.04,-367.63C1784.77,-361.24 1759.06,-351.47 1737.66,-340.44 1726.82,-334.84 1726.09,-329.72 1714.66,-325.44 1642.63,-298.45 1551.86,-292.01 1501.9,-290.64"/>
<polygon fill="black" stroke="black" points="1501.95,-287.14 1491.88,-290.41 1501.8,-294.13 1501.95,-287.14"/>
<text text-anchor="middle" x="1771.16" y="-329.24" font-family="Times,serif" font-size="14.00">{c0, c1, c3}</text>
</g>
<!-- 0&#45;&gt;1 -->
<g id="edge10" class="edge">
<title>0&#45;&gt;1</title>
<path fill="none" stroke="black" d="M1823.69,-358.27C1820.81,-347.07 1815.24,-333.14 1804.66,-325.44 1757.25,-290.91 1580.29,-288.83 1502.15,-289.68"/>
<polygon fill="black" stroke="black" points="1501.76,-286.19 1491.81,-289.82 1501.85,-293.19 1501.76,-286.19"/>
<text text-anchor="middle" x="1840.16" y="-329.24" font-family="Times,serif" font-size="14.00">{c0, c3}</text>
</g>
<!-- 2 -->
<g id="node4" class="node">
<title>2</title>
<ellipse fill="none" stroke="black" cx="1475.66" cy="-24.44" rx="27" ry="18"/>
<text text-anchor="middle" x="1475.66" y="-20.74" font-family="Times,serif" font-size="14.00">2</text>
</g>
<!-- 0&#45;&gt;2 -->
<g id="edge11" class="edge">
<title>0&#45;&gt;2</title>
<path fill="none" stroke="black" d="M1846.39,-364.02C1854.58,-358.13 1863.2,-350.12 1867.66,-340.44 1870.46,-334.38 1869.01,-331.97 1867.66,-325.44 1845.34,-217.24 1839.68,-182.06 1768.66,-97.44 1751.79,-77.32 1744.09,-74.07 1719.66,-64.44 1649.95,-36.95 1561.77,-28.81 1512.78,-26.42"/>
<polygon fill="black" stroke="black" points="1512.79,-22.92 1502.65,-25.98 1512.49,-29.91 1512.79,-22.92"/>
<text text-anchor="middle" x="1856.16" y="-198.74" font-family="Times,serif" font-size="14.00">{c1}</text>
</g>
<!-- 0&#45;&gt;2 -->
<g id="edge12" class="edge">
<title>0&#45;&gt;2</title>
<path fill="none" stroke="black" d="M1849.65,-366.36C1877.19,-353.79 1919.66,-328.28 1919.66,-290.44 1919.66,-290.44 1919.66,-290.44 1919.66,-114.44 1919.66,-31.78 1620.1,-24.86 1513.09,-25.03"/>
<polygon fill="black" stroke="black" points="1512.76,-21.53 1502.77,-25.07 1512.78,-28.53 1512.76,-21.53"/>
<text text-anchor="middle" x="1933.16" y="-198.74" font-family="Times,serif" font-size="14.00">{c2}</text>
</g>
<!-- 0&#45;&gt;2 -->
<g id="edge13" class="edge">
<title>0&#45;&gt;2</title>
<path fill="none" stroke="black" d="M1853.48,-372.95C1898.08,-367.18 1982.66,-348.57 1982.66,-290.44 1982.66,-290.44 1982.66,-290.44 1982.66,-114.44 1982.66,-70.99 1939.98,-77.87 1898.66,-64.44 1827.31,-41.23 1602.15,-30.28 1512.76,-26.76"/>
<polygon fill="black" stroke="black" points="1512.68,-23.25 1502.55,-26.36 1512.41,-30.25 1512.68,-23.25"/>
<text text-anchor="middle" x="2016.16" y="-198.74" font-family="Times,serif" font-size="14.00">{c1, c2, c3}</text>
</g>
<!-- 0&#45;&gt;2 -->
<g id="edge14" class="edge">
<title>0&#45;&gt;2</title>
<path fill="none" stroke="black" d="M1853.41,-372.44C1919.58,-364.27 2085.66,-338.94 2085.66,-290.44 2085.66,-290.44 2085.66,-290.44 2085.66,-114.44 2085.66,-56.21 1644.91,-32.67 1512.71,-26.91"/>
<polygon fill="black" stroke="black" points="1512.8,-23.41 1502.66,-26.48 1512.5,-30.41 1512.8,-23.41"/>
<text text-anchor="middle" x="2109.16" y="-198.74" font-family="Times,serif" font-size="14.00">{c1, c2}</text>
</g>
<!-- 0&#45;&gt;2 -->
<g id="edge15" class="edge">
<title>0&#45;&gt;2</title>
<path fill="none" stroke="black" d="M1853.79,-374.5C1934.68,-370.98 2168.66,-355.21 2168.66,-290.44 2168.66,-290.44 2168.66,-290.44 2168.66,-114.44 2168.66,-47.72 1656.89,-29.94 1512.93,-26.26"/>
<polygon fill="black" stroke="black" points="1512.91,-22.76 1502.83,-26.01 1512.74,-29.76 1512.91,-22.76"/>
<text text-anchor="middle" x="2192.16" y="-198.74" font-family="Times,serif" font-size="14.00">{c2, c3}</text>
</g>
<!-- 0&#45;&gt;2 -->
<g id="edge16" class="edge">
<title>0&#45;&gt;2</title>
<path fill="none" stroke="black" d="M1853.9,-375.81C1947.7,-376.37 2251.66,-371.89 2251.66,-290.44 2251.66,-290.44 2251.66,-290.44 2251.66,-114.44 2251.66,-39.2 1668.5,-27.52 1513.25,-25.75"/>
<polygon fill="black" stroke="black" points="1512.86,-22.24 1502.83,-25.64 1512.79,-29.24 1512.86,-22.24"/>
<text text-anchor="middle" x="2275.16" y="-198.74" font-family="Times,serif" font-size="14.00">{c1, c3}</text>
</g>
<!-- 0&#45;&gt;2 -->
<g id="edge17" class="edge">
<title>0&#45;&gt;2</title>
<path fill="none" stroke="black" d="M1853.75,-376.17C1918.85,-377.27 2088.82,-376.16 2224.66,-340.44 2276.6,-326.78 2334.66,-344.14 2334.66,-290.44 2334.66,-290.44 2334.66,-290.44 2334.66,-114.44 2334.66,-30.54 1677.96,-25.31 1512.94,-25.32"/>
<polygon fill="black" stroke="black" points="1512.79,-21.82 1502.79,-25.33 1512.79,-28.82 1512.79,-21.82"/>
<text text-anchor="middle" x="2348.16" y="-198.74" font-family="Times,serif" font-size="14.00">{c3}</text>
</g>
<!-- 1&#45;&gt;1 -->
<g id="edge57" class="edge">
<title>1&#45;&gt;1</title>
<path fill="none" stroke="black" d="M1489.2,-297.19C1500.17,-297.93 1509.66,-295.34 1509.66,-289.44 1509.66,-285.47 1505.38,-283 1499.24,-282.03"/>
<polygon fill="black" stroke="black" points="1499.31,-278.53 1489.2,-281.68 1499.07,-285.53 1499.31,-278.53"/>
<text text-anchor="middle" x="1516.66" y="-285.74" font-family="Times,serif" font-size="14.00">{}</text>
</g>
<!-- 1&#45;&gt;2 -->
<g id="edge59" class="edge">
<title>1&#45;&gt;2</title>
<path fill="none" stroke="black" d="M1460.28,-271.62C1454.42,-248.23 1444.37,-204.46 1440.66,-166.44 1440.02,-159.8 1436.95,-156.97 1440.66,-151.44 1452.44,-133.89 1472.89,-150.98 1484.66,-133.44 1500.83,-109.35 1494.26,-75.1 1486.48,-51.67"/>
<polygon fill="black" stroke="black" points="1489.69,-50.27 1483.01,-42.04 1483.1,-52.64 1489.69,-50.27"/>
<text text-anchor="middle" x="1454.16" y="-155.24" font-family="Times,serif" font-size="14.00">{c0}</text>
</g>
<!-- 1&#45;&gt;2 -->
<g id="edge60" class="edge">
<title>1&#45;&gt;2</title>
<path fill="none" stroke="black" d="M1467.08,-271.06C1471.64,-239.26 1481.88,-172.95 1490.66,-151.44 1494.3,-142.54 1499.62,-142.56 1502.66,-133.44 1510.26,-110.63 1505,-103.46 1505.66,-79.44 1505.85,-72.77 1507.81,-70.75 1505.66,-64.44 1503.65,-58.53 1500.35,-52.82 1496.65,-47.67"/>
<polygon fill="black" stroke="black" points="1499.19,-45.25 1490.22,-39.61 1493.72,-49.61 1499.19,-45.25"/>
<text text-anchor="middle" x="1524.16" y="-155.24" font-family="Times,serif" font-size="14.00">{c0, c2, c3}</text>
</g>
<!-- 1&#45;&gt;2 -->
<g id="edge61" class="edge">
<title>1&#45;&gt;2</title>
<path fill="none" stroke="black" d="M1480.33,-274.57C1502.58,-253.72 1542.33,-211.86 1557.66,-166.44 1573.4,-119.84 1530.04,-71.57 1500.53,-45.35"/>
<polygon fill="black" stroke="black" points="1502.5,-42.42 1492.64,-38.55 1497.93,-47.73 1502.5,-42.42"/>
<text text-anchor="middle" x="1574.16" y="-155.24" font-family="Times,serif" font-size="14.00">{c2}</text>
</g>
<!-- 1&#45;&gt;2 -->
<g id="edge62" class="edge">
<title>1&#45;&gt;2</title>
<path fill="none" stroke="black" d="M1485.04,-277.62C1516.32,-259.57 1574.36,-219.96 1591.66,-166.44 1607.26,-118.21 1578.7,-97.93 1540.66,-64.44 1530.22,-55.24 1517.32,-46.99 1505.76,-40.47"/>
<polygon fill="black" stroke="black" points="1507.32,-37.33 1496.86,-35.63 1503.97,-43.48 1507.32,-37.33"/>
<text text-anchor="middle" x="1618.16" y="-155.24" font-family="Times,serif" font-size="14.00">{c0, c3}</text>
</g>
<!-- 1&#45;&gt;2 -->
<g id="edge63" class="edge">
<title>1&#45;&gt;2</title>
<path fill="none" stroke="black" d="M1488.99,-281.27C1531.17,-267.3 1616.18,-231.92 1645.66,-166.44 1675.52,-100.14 1567.88,-54.7 1510.05,-35.59"/>
<polygon fill="black" stroke="black" points="1510.81,-32.16 1500.21,-32.43 1508.67,-38.82 1510.81,-32.16"/>
<text text-anchor="middle" x="1673.16" y="-155.24" font-family="Times,serif" font-size="14.00">{c2, c3}</text>
</g>
<!-- 1&#45;&gt;2 -->
<g id="edge64" class="edge">
<title>1&#45;&gt;2</title>
<path fill="none" stroke="black" d="M1491.05,-284.91C1544.04,-276.18 1661.65,-247.99 1700.66,-166.44 1739.91,-84.39 1585.02,-45.06 1511.92,-31.34"/>
<polygon fill="black" stroke="black" points="1512.23,-27.83 1501.76,-29.49 1510.98,-34.72 1512.23,-27.83"/>
<text text-anchor="middle" x="1729.16" y="-155.24" font-family="Times,serif" font-size="14.00">{c0, c2}</text>
</g>
<!-- 1&#45;&gt;2 -->
<g id="edge65" class="edge">
<title>1&#45;&gt;2</title>
<path fill="none" stroke="black" d="M1491.62,-287.74C1554.2,-284.41 1707.71,-266.04 1756.66,-166.44 1805.66,-66.76 1599.24,-36.46 1512.48,-28.22"/>
<polygon fill="black" stroke="black" points="1512.79,-24.73 1502.52,-27.32 1512.16,-31.71 1512.79,-24.73"/>
<text text-anchor="middle" x="1775.16" y="-155.24" font-family="Times,serif" font-size="14.00">{c3}</text>
</g>
<!-- 3 -->
<g id="node5" class="node">
<title>3</title>
<ellipse fill="none" stroke="black" cx="1008.66" cy="-202.44" rx="27" ry="18"/>
<text text-anchor="middle" x="1008.66" y="-198.74" font-family="Times,serif" font-size="14.00">3</text>
</g>
<!-- 1&#45;&gt;3 -->
<g id="edge50" class="edge">
<title>1&#45;&gt;3</title>
<path fill="none" stroke="black" d="M1437.71,-287.97C1319.74,-285.78 853.76,-275.74 832.66,-253.44 791.2,-209.61 908.13,-203.29 971.26,-202.95"/>
<polygon fill="black" stroke="black" points="971.26,-206.45 981.26,-202.94 971.26,-199.45 971.26,-206.45"/>
<text text-anchor="middle" x="866.16" y="-242.24" font-family="Times,serif" font-size="14.00">{c0, c1, c3}</text>
</g>
<!-- 1&#45;&gt;3 -->
<g id="edge51" class="edge">
<title>1&#45;&gt;3</title>
<path fill="none" stroke="black" d="M1437.63,-288.8C1332.92,-289.93 958.13,-291.27 922.66,-253.44 903.8,-233.31 941.95,-218.84 973.31,-210.79"/>
<polygon fill="black" stroke="black" points="974.28,-214.16 983.18,-208.41 972.63,-207.36 974.28,-214.16"/>
<text text-anchor="middle" x="936.16" y="-242.24" font-family="Times,serif" font-size="14.00">{c1}</text>
</g>
<!-- 1&#45;&gt;3 -->
<g id="edge52" class="edge">
<title>1&#45;&gt;3</title>
<path fill="none" stroke="black" d="M1437.46,-288.61C1338.88,-288.96 1004.47,-287.59 972.66,-253.44 963.66,-243.77 971.72,-231.79 982.48,-221.99"/>
<polygon fill="black" stroke="black" points="984.72,-224.68 990.18,-215.6 980.25,-219.29 984.72,-224.68"/>
<text text-anchor="middle" x="1016.66" y="-242.24" font-family="Times,serif" font-size="14.00">{c0, c1, c2, c3}</text>
</g>
<!-- 1&#45;&gt;3 -->
<g id="edge53" class="edge">
<title>1&#45;&gt;3</title>
<path fill="none" stroke="black" d="M1437.74,-287.68C1362.15,-285.28 1149.19,-276.6 1083.66,-253.44 1082.27,-252.94 1056.37,-235.6 1035.39,-221.47"/>
<polygon fill="black" stroke="black" points="1037.33,-218.56 1027.08,-215.87 1033.41,-224.36 1037.33,-218.56"/>
<text text-anchor="middle" x="1107.16" y="-242.24" font-family="Times,serif" font-size="14.00">{c0, c1}</text>
</g>
<!-- 1&#45;&gt;3 -->
<g id="edge54" class="edge">
<title>1&#45;&gt;3</title>
<path fill="none" stroke="black" d="M1437.84,-287.01C1372.34,-283.28 1205.82,-272.18 1153.66,-253.44 1142.18,-249.31 1141.76,-243.51 1130.66,-238.44 1102.78,-225.69 1069.17,-216.46 1044.3,-210.69"/>
<polygon fill="black" stroke="black" points="1044.74,-207.2 1034.21,-208.43 1043.2,-214.03 1044.74,-207.2"/>
<text text-anchor="middle" x="1177.16" y="-242.24" font-family="Times,serif" font-size="14.00">{c1, c3}</text>
</g>
<!-- 1&#45;&gt;3 -->
<g id="edge55" class="edge">
<title>1&#45;&gt;3</title>
<path fill="none" stroke="black" d="M1437.7,-288.27C1392.13,-287.17 1297.63,-281.37 1223.66,-253.44 1212.25,-249.12 1212,-242.95 1200.66,-238.44 1149.23,-217.95 1085.23,-209.35 1045.67,-205.82"/>
<polygon fill="black" stroke="black" points="1045.93,-202.33 1035.67,-204.99 1045.35,-209.3 1045.93,-202.33"/>
<text text-anchor="middle" x="1257.16" y="-242.24" font-family="Times,serif" font-size="14.00">{c1, c2, c3}</text>
</g>
<!-- 1&#45;&gt;3 -->
<g id="edge56" class="edge">
<title>1&#45;&gt;3</title>
<path fill="none" stroke="black" d="M1438.42,-285.19C1407.6,-280.75 1355.38,-271.21 1313.66,-253.44 1302.44,-248.65 1302.12,-242.63 1290.66,-238.44 1207.09,-207.87 1101.29,-203 1046.07,-202.79"/>
<polygon fill="black" stroke="black" points="1046.04,-199.29 1036.05,-202.8 1046.05,-206.29 1046.04,-199.29"/>
<text text-anchor="middle" x="1347.16" y="-242.24" font-family="Times,serif" font-size="14.00">{c0, c1, c2}</text>
</g>
<!-- 1&#45;&gt;3 -->
<g id="edge58" class="edge">
<title>1&#45;&gt;3</title>
<path fill="none" stroke="black" d="M1444.44,-277.21C1432.48,-270.48 1417.1,-261.66 1403.66,-253.44 1393.26,-247.06 1392.19,-242.46 1380.66,-238.44 1319.56,-217.11 1127.7,-207.76 1046.05,-204.68"/>
<polygon fill="black" stroke="black" points="1045.86,-201.17 1035.74,-204.3 1045.6,-208.17 1045.86,-201.17"/>
<text text-anchor="middle" x="1427.16" y="-242.24" font-family="Times,serif" font-size="14.00">{c1, c2}</text>
</g>
<!-- 2&#45;&gt;2 -->
<g id="edge82" class="edge">
<title>2&#45;&gt;2</title>
<path fill="none" stroke="black" d="M1502.9,-25.93C1512.69,-25.97 1520.66,-25.47 1520.66,-24.44 1520.66,-23.81 1517.7,-23.38 1513.17,-23.14"/>
<polygon fill="black" stroke="black" points="1512.97,-19.64 1502.9,-22.94 1512.83,-26.64 1512.97,-19.64"/>
<text text-anchor="middle" x="1554.16" y="-20.74" font-family="Times,serif" font-size="14.00">{c0, c1, c2}</text>
</g>
<!-- 2&#45;&gt;2 -->
<g id="edge83" class="edge">
<title>2&#45;&gt;2</title>
<path fill="none" stroke="black" d="M1502.56,-26.71C1537.01,-28.18 1587.66,-27.42 1587.66,-24.44 1587.66,-21.73 1546.06,-20.86 1512.62,-21.81"/>
<polygon fill="black" stroke="black" points="1512.43,-18.31 1502.56,-22.16 1512.68,-25.31 1512.43,-18.31"/>
<text text-anchor="middle" x="1601.16" y="-20.74" font-family="Times,serif" font-size="14.00">{c0}</text>
</g>
<!-- 2&#45;&gt;2 -->
<g id="edge84" class="edge">
<title>2&#45;&gt;2</title>
<path fill="none" stroke="black" d="M1502.56,-27.45C1545.28,-30.16 1614.66,-29.16 1614.66,-24.44 1614.66,-20.07 1555.44,-18.88 1512.75,-20.86"/>
<polygon fill="black" stroke="black" points="1512.36,-17.38 1502.56,-21.42 1512.74,-24.37 1512.36,-17.38"/>
<text text-anchor="middle" x="1648.16" y="-20.74" font-family="Times,serif" font-size="14.00">{c0, c1, c3}</text>
</g>
<!-- 2&#45;&gt;2 -->
<g id="edge85" class="edge">
<title>2&#45;&gt;2</title>
<path fill="none" stroke="black" d="M1502.24,-27.76C1561.34,-32.22 1681.66,-31.11 1681.66,-24.44 1681.66,-18.13 1574.14,-16.79 1512.46,-20.43"/>
<polygon fill="black" stroke="black" points="1511.99,-16.96 1502.24,-21.11 1512.45,-23.94 1511.99,-16.96"/>
<text text-anchor="middle" x="1715.16" y="-20.74" font-family="Times,serif" font-size="14.00">{c0, c2, c3}</text>
</g>
<!-- 2&#45;&gt;2 -->
<g id="edge86" class="edge">
<title>2&#45;&gt;2</title>
<path fill="none" stroke="black" d="M1502.49,-28.06C1575.85,-34.24 1748.66,-33.03 1748.66,-24.44 1748.66,-16.21 1590.38,-14.75 1512.48,-20.06"/>
<polygon fill="black" stroke="black" points="1512.2,-16.57 1502.49,-20.81 1512.73,-23.55 1512.2,-16.57"/>
<text text-anchor="middle" x="1762.16" y="-20.74" font-family="Times,serif" font-size="14.00">{c1}</text>
</g>
<!-- 2&#45;&gt;2 -->
<g id="edge87" class="edge">
<title>2&#45;&gt;2</title>
<path fill="none" stroke="black" d="M1502,-28.43C1581.3,-36.24 1775.66,-34.91 1775.66,-24.44 1775.66,-14.38 1596.55,-12.75 1512.06,-19.55"/>
<polygon fill="black" stroke="black" points="1511.66,-16.07 1502,-20.45 1512.28,-23.05 1511.66,-16.07"/>
<text text-anchor="middle" x="1789.16" y="-20.74" font-family="Times,serif" font-size="14.00">{c2}</text>
</g>
<!-- 2&#45;&gt;2 -->
<g id="edge88" class="edge">
<title>2&#45;&gt;2</title>
<path fill="none" stroke="black" d="M1502.06,-28.78C1587.56,-38.24 1802.66,-36.8 1802.66,-24.44 1802.66,-12.54 1603.23,-10.75 1512.09,-19.08"/>
<polygon fill="black" stroke="black" points="1511.66,-15.61 1502.06,-20.09 1512.36,-22.57 1511.66,-15.61"/>
<text text-anchor="middle" x="1846.66" y="-20.74" font-family="Times,serif" font-size="14.00">{c0, c1, c2, c3}</text>
</g>
<!-- 2&#45;&gt;2 -->
<g id="edge89" class="edge">
<title>2&#45;&gt;2</title>
<path fill="none" stroke="black" d="M1501.98,-28.85C1602.32,-40.27 1890.66,-38.8 1890.66,-24.44 1890.66,-10.54 1620.6,-8.71 1512.25,-18.96"/>
<polygon fill="black" stroke="black" points="1511.57,-15.51 1501.98,-20.02 1512.29,-22.47 1511.57,-15.51"/>
<text text-anchor="middle" x="1924.16" y="-20.74" font-family="Times,serif" font-size="14.00">{c1, c2, c3}</text>
</g>
<!-- 2&#45;&gt;2 -->
<g id="edge90" class="edge">
<title>2&#45;&gt;2</title>
<path fill="none" stroke="black" d="M1502.13,-29.02C1613.54,-42.28 1957.66,-40.75 1957.66,-24.44 1957.66,-8.59 1632.76,-6.69 1512.14,-18.76"/>
<polygon fill="black" stroke="black" points="1511.69,-15.29 1502.13,-19.85 1512.45,-22.24 1511.69,-15.29"/>
<text text-anchor="middle" x="1981.16" y="-20.74" font-family="Times,serif" font-size="14.00">{c0, c3}</text>
</g>
<!-- 2&#45;&gt;2 -->
<g id="edge91" class="edge">
<title>2&#45;&gt;2</title>
<path fill="none" stroke="black" d="M1501.96,-29.2C1621.15,-44.29 2004.66,-42.7 2004.66,-24.44 2004.66,-6.66 1641.11,-4.68 1511.92,-18.52"/>
<polygon fill="black" stroke="black" points="1511.49,-15.04 1501.96,-19.67 1512.29,-22 1511.49,-15.04"/>
<text text-anchor="middle" x="2028.16" y="-20.74" font-family="Times,serif" font-size="14.00">{c1, c2}</text>
</g>
<!-- 2&#45;&gt;2 -->
<g id="edge92" class="edge">
<title>2&#45;&gt;2</title>
<path fill="none" stroke="black" d="M1501.8,-29.35C1628.59,-46.29 2051.66,-44.65 2051.66,-24.44 2051.66,-4.73 1649.8,-2.68 1512.02,-18.27"/>
<polygon fill="black" stroke="black" points="1511.3,-14.83 1501.8,-19.52 1512.16,-21.78 1511.3,-14.83"/>
<text text-anchor="middle" x="2075.16" y="-20.74" font-family="Times,serif" font-size="14.00">{c0, c1}</text>
</g>
<!-- 2&#45;&gt;2 -->
<g id="edge93" class="edge">
<title>2&#45;&gt;2</title>
<path fill="none" stroke="black" d="M1501.75,-29.5C1636.09,-48.3 2098.66,-46.61 2098.66,-24.44 2098.66,-2.78 1657.52,-0.67 1511.73,-18.08"/>
<polygon fill="black" stroke="black" points="1511.22,-14.62 1501.75,-19.37 1512.12,-21.56 1511.22,-14.62"/>
<text text-anchor="middle" x="2122.16" y="-20.74" font-family="Times,serif" font-size="14.00">{c2, c3}</text>
</g>
<!-- 2&#45;&gt;2 -->
<g id="edge94" class="edge">
<title>2&#45;&gt;2</title>
<path fill="none" stroke="black" d="M1501.89,-29.67C1643.88,-50.3 2145.66,-48.56 2145.66,-24.44 2145.66,-0.86 1666.17,1.34 1511.99,-17.85"/>
<polygon fill="black" stroke="black" points="1511.33,-14.41 1501.89,-19.21 1512.27,-21.34 1511.33,-14.41"/>
<text text-anchor="middle" x="2169.16" y="-20.74" font-family="Times,serif" font-size="14.00">{c1, c3}</text>
</g>
<!-- 2&#45;&gt;2 -->
<g id="edge95" class="edge">
<title>2&#45;&gt;2</title>
<path fill="none" stroke="black" d="M1501.81,-29.79C1651.06,-52.31 2192.66,-50.52 2192.66,-24.44 2192.66,1.09 1674.08,3.35 1511.96,-17.67"/>
<polygon fill="black" stroke="black" points="1511.23,-14.24 1501.81,-19.09 1512.2,-21.17 1511.23,-14.24"/>
<text text-anchor="middle" x="2216.16" y="-20.74" font-family="Times,serif" font-size="14.00">{c0, c2}</text>
</g>
<!-- 2&#45;&gt;2 -->
<g id="edge96" class="edge">
<title>2&#45;&gt;2</title>
<path fill="none" stroke="black" d="M1501.53,-29.86C1657.62,-54.31 2239.66,-52.5 2239.66,-24.44 2239.66,3.05 1681.25,5.35 1511.66,-17.54"/>
<polygon fill="black" stroke="black" points="1510.92,-14.11 1501.53,-19.01 1511.93,-21.04 1510.92,-14.11"/>
<text text-anchor="middle" x="2253.16" y="-20.74" font-family="Times,serif" font-size="14.00">{c3}</text>
</g>
<!-- 2&#45;&gt;2 -->
<g id="edge97" class="edge">
<title>2&#45;&gt;2</title>
<path fill="none" stroke="black" d="M1501.6,-30.02C1663.11,-56.31 2266.66,-54.45 2266.66,-24.44 2266.66,4.99 1686.45,7.36 1511.56,-17.34"/>
<polygon fill="black" stroke="black" points="1510.96,-13.89 1501.6,-18.85 1512.01,-20.82 1510.96,-13.89"/>
<text text-anchor="middle" x="2273.66" y="-20.74" font-family="Times,serif" font-size="14.00">{}</text>
</g>
<!-- 3&#45;&gt;2 -->
<g id="edge27" class="edge">
<title>3&#45;&gt;2</title>
<path fill="none" stroke="black" d="M1004.95,-184.44C1002.55,-174.61 999.05,-162.11 994.66,-151.44 991.18,-142.97 986.96,-142.3 984.66,-133.44 980.65,-117.95 974.55,-109.83 984.66,-97.44 1009.91,-66.51 1035.12,-93 1072.66,-79.44 1085.94,-74.64 1087.08,-68.3 1100.66,-64.44 1224.45,-29.24 1262.43,-65.78 1389.66,-46.44 1406.99,-43.8 1425.94,-39.35 1441.64,-35.22"/>
<polygon fill="black" stroke="black" points="1442.69,-38.56 1451.43,-32.57 1440.86,-31.8 1442.69,-38.56"/>
<text text-anchor="middle" x="998.16" y="-111.74" font-family="Times,serif" font-size="14.00">{c0}</text>
</g>
<!-- 3&#45;&gt;2 -->
<g id="edge28" class="edge">
<title>3&#45;&gt;2</title>
<path fill="none" stroke="black" d="M1010.63,-184.3C1014.13,-161.49 1023.51,-121.28 1047.66,-97.44 1064.47,-80.85 1076.09,-89.04 1097.66,-79.44 1110.56,-73.7 1112.1,-68.34 1125.66,-64.44 1238.69,-31.94 1273.45,-64.45 1389.66,-46.44 1406.98,-43.75 1425.93,-39.29 1441.63,-35.17"/>
<polygon fill="black" stroke="black" points="1442.68,-38.51 1451.42,-32.54 1440.86,-31.76 1442.68,-38.51"/>
<text text-anchor="middle" x="1081.16" y="-111.74" font-family="Times,serif" font-size="14.00">{c0, c1, c3}</text>
</g>
<!-- 3&#45;&gt;2 -->
<g id="edge29" class="edge">
<title>3&#45;&gt;2</title>
<path fill="none" stroke="black" d="M1028.67,-190.34C1050.65,-177.77 1086.56,-156.06 1114.66,-133.44 1148.94,-105.84 1145.52,-82.46 1185.66,-64.44 1227.18,-45.8 1344.76,-53.86 1389.66,-46.44 1406.95,-43.58 1425.9,-39.1 1441.6,-35.01"/>
<polygon fill="black" stroke="black" points="1442.64,-38.36 1451.4,-32.4 1440.84,-31.6 1442.64,-38.36"/>
<text text-anchor="middle" x="1160.16" y="-111.74" font-family="Times,serif" font-size="14.00">{c1}</text>
</g>
<!-- 3&#45;&gt;2 -->
<g id="edge30" class="edge">
<title>3&#45;&gt;2</title>
<path fill="none" stroke="black" d="M1033.38,-194.91C1067.7,-185.11 1130.83,-164.39 1177.66,-133.44 1196.54,-120.96 1195.83,-111.36 1213.66,-97.44 1236.13,-79.89 1241.83,-74.05 1268.66,-64.44 1319.85,-46.1 1336.31,-56.9 1389.66,-46.44 1406.74,-43.09 1425.53,-38.6 1441.18,-34.62"/>
<polygon fill="black" stroke="black" points="1442.15,-37.99 1450.96,-32.11 1440.4,-31.21 1442.15,-37.99"/>
<text text-anchor="middle" x="1237.16" y="-111.74" font-family="Times,serif" font-size="14.00">{c0, c3}</text>
</g>
<!-- 3&#45;&gt;2 -->
<g id="edge31" class="edge">
<title>3&#45;&gt;2</title>
<path fill="none" stroke="black" d="M1033.97,-195.21C1061.51,-188.37 1106.81,-176.97 1145.66,-166.44 1196.98,-152.52 1214.85,-160.43 1260.66,-133.44 1280.16,-121.95 1278.83,-111.36 1296.66,-97.44 1319.13,-79.89 1325.66,-76.13 1351.66,-64.44 1380.61,-51.42 1415.17,-40.94 1440.44,-34.13"/>
<polygon fill="black" stroke="black" points="1441.54,-37.46 1450.32,-31.53 1439.76,-30.69 1441.54,-37.46"/>
<text text-anchor="middle" x="1320.16" y="-111.74" font-family="Times,serif" font-size="14.00">{c0, c1}</text>
</g>
<!-- 3&#45;&gt;2 -->
<g id="edge32" class="edge">
<title>3&#45;&gt;2</title>
<path fill="none" stroke="black" d="M1035.7,-201.29C1095.16,-199.88 1240.2,-190.38 1343.66,-133.44 1363.49,-122.53 1362.57,-112.26 1379.66,-97.44 1402.15,-77.94 1429.43,-57.78 1449.16,-43.77"/>
<polygon fill="black" stroke="black" points="1451.22,-46.6 1457.38,-37.98 1447.19,-40.88 1451.22,-46.6"/>
<text text-anchor="middle" x="1403.16" y="-111.74" font-family="Times,serif" font-size="14.00">{c1, c3}</text>
</g>
<!-- 3&#45;&gt;2 -->
<g id="edge33" class="edge">
<title>3&#45;&gt;2</title>
<path fill="none" stroke="black" d="M1035.59,-200.57C1118.34,-197.38 1366.89,-183.73 1426.66,-133.44 1451.34,-112.67 1464.16,-76.89 1470.4,-52.24"/>
<polygon fill="black" stroke="black" points="1473.82,-52.96 1472.68,-42.43 1467.01,-51.37 1473.82,-52.96"/>
<text text-anchor="middle" x="1467.16" y="-111.74" font-family="Times,serif" font-size="14.00">{c3}</text>
</g>
<!-- 3&#45;&gt;3 -->
<g id="edge24" class="edge">
<title>3&#45;&gt;3</title>
<path fill="none" stroke="black" d="M1033.2,-210.19C1044.17,-210.93 1053.66,-208.34 1053.66,-202.44 1053.66,-198.47 1049.38,-196 1043.24,-195.03"/>
<polygon fill="black" stroke="black" points="1043.31,-191.53 1033.2,-194.68 1043.07,-198.53 1043.31,-191.53"/>
<text text-anchor="middle" x="1060.66" y="-198.74" font-family="Times,serif" font-size="14.00">{}</text>
</g>
<!-- 4 -->
<g id="node6" class="node">
<title>4</title>
<ellipse fill="none" stroke="black" cx="625.66" cy="-115.44" rx="27" ry="18"/>
<text text-anchor="middle" x="625.66" y="-111.74" font-family="Times,serif" font-size="14.00">4</text>
</g>
<!-- 3&#45;&gt;4 -->
<g id="edge18" class="edge">
<title>3&#45;&gt;4</title>
<path fill="none" stroke="black" d="M981.71,-200.97C863.74,-198.78 397.76,-188.74 376.66,-166.44 372.08,-161.59 372.29,-156.47 376.66,-151.44 403.6,-120.45 525.4,-116.1 588.11,-115.98"/>
<polygon fill="black" stroke="black" points="588.36,-119.48 598.37,-115.99 588.37,-112.48 588.36,-119.48"/>
<text text-anchor="middle" x="400.16" y="-155.24" font-family="Times,serif" font-size="14.00">{c1, c2}</text>
</g>
<!-- 3&#45;&gt;4 -->
<g id="edge19" class="edge">
<title>3&#45;&gt;4</title>
<path fill="none" stroke="black" d="M981.43,-200.77C871.47,-197.93 465.18,-186.14 446.66,-166.44 404.59,-121.67 524.12,-115.83 588.14,-115.78"/>
<polygon fill="black" stroke="black" points="588.26,-119.28 598.28,-115.82 588.29,-112.28 588.26,-119.28"/>
<text text-anchor="middle" x="480.16" y="-155.24" font-family="Times,serif" font-size="14.00">{c1, c2, c3}</text>
</g>
<!-- 3&#45;&gt;4 -->
<g id="edge20" class="edge">
<title>3&#45;&gt;4</title>
<path fill="none" stroke="black" d="M981.58,-201.52C885.78,-201.54 567.03,-199.14 536.66,-166.44 517.21,-145.49 557.61,-131.09 590.16,-123.3"/>
<polygon fill="black" stroke="black" points="590.95,-126.71 599.93,-121.09 589.41,-119.88 590.95,-126.71"/>
<text text-anchor="middle" x="570.16" y="-155.24" font-family="Times,serif" font-size="14.00">{c0, c1, c2}</text>
</g>
<!-- 3&#45;&gt;4 -->
<g id="edge21" class="edge">
<title>3&#45;&gt;4</title>
<path fill="none" stroke="black" d="M981.7,-201C898.65,-199.37 650.8,-192.36 626.66,-166.44 621.01,-160.36 619.44,-151.85 619.69,-143.56"/>
<polygon fill="black" stroke="black" points="623.19,-143.72 620.81,-133.4 616.23,-142.95 623.19,-143.72"/>
<text text-anchor="middle" x="660.16" y="-155.24" font-family="Times,serif" font-size="14.00">{c0, c2, c3}</text>
</g>
<!-- 3&#45;&gt;4 -->
<g id="edge22" class="edge">
<title>3&#45;&gt;4</title>
<path fill="none" stroke="black" d="M981.55,-202.23C928.83,-202.91 809.52,-200.18 716.66,-166.44 705.19,-162.27 704.21,-157.57 693.66,-151.44 681.62,-144.43 668.02,-137.29 656.17,-131.3"/>
<polygon fill="black" stroke="black" points="657.61,-128.11 647.1,-126.76 654.48,-134.37 657.61,-128.11"/>
<text text-anchor="middle" x="760.66" y="-155.24" font-family="Times,serif" font-size="14.00">{c0, c1, c2, c3}</text>
</g>
<!-- 3&#45;&gt;4 -->
<g id="edge23" class="edge">
<title>3&#45;&gt;4</title>
<path fill="none" stroke="black" d="M981.98,-199.51C945.85,-196.18 879.88,-187.56 827.66,-166.44 816.35,-161.86 815.97,-156.03 804.66,-151.44 757.8,-132.42 699.73,-123.51 662.68,-119.49"/>
<polygon fill="black" stroke="black" points="662.66,-115.97 652.36,-118.44 661.95,-122.94 662.66,-115.97"/>
<text text-anchor="middle" x="851.16" y="-155.24" font-family="Times,serif" font-size="14.00">{c2, c3}</text>
</g>
<!-- 3&#45;&gt;4 -->
<g id="edge25" class="edge">
<title>3&#45;&gt;4</title>
<path fill="none" stroke="black" d="M983.24,-195.53C960.25,-189.7 925.79,-179.74 897.66,-166.44 886.63,-161.22 886.09,-155.72 874.66,-151.44 803.07,-124.59 712.89,-118.09 663.06,-116.67"/>
<polygon fill="black" stroke="black" points="662.85,-113.16 652.77,-116.43 662.69,-120.16 662.85,-113.16"/>
<text text-anchor="middle" x="911.16" y="-155.24" font-family="Times,serif" font-size="14.00">{c2}</text>
</g>
<!-- 3&#45;&gt;4 -->
<g id="edge26" class="edge">
<title>3&#45;&gt;4</title>
<path fill="none" stroke="black" d="M988.44,-190.21C976.48,-183.48 961.1,-174.66 947.66,-166.44 937.26,-160.06 936.14,-155.59 924.66,-151.44 877.31,-134.3 731.84,-123.13 662.79,-118.66"/>
<polygon fill="black" stroke="black" points="662.59,-115.14 652.39,-117.99 662.15,-122.12 662.59,-115.14"/>
<text text-anchor="middle" x="971.16" y="-155.24" font-family="Times,serif" font-size="14.00">{c0, c2}</text>
</g>
<!-- 4&#45;&gt;2 -->
<g id="edge75" class="edge">
<title>4&#45;&gt;2</title>
<path fill="none" stroke="black" d="M627.74,-97.05C630.08,-85.75 635.07,-71.8 645.66,-64.44 679.62,-40.84 1348.68,-51.87 1389.66,-46.44 1407.04,-44.13 1425.99,-39.71 1441.68,-35.52"/>
<polygon fill="black" stroke="black" points="1442.75,-38.86 1451.46,-32.83 1440.89,-32.11 1442.75,-38.86"/>
<text text-anchor="middle" x="679.16" y="-68.24" font-family="Times,serif" font-size="14.00">{c0, c1, c2}</text>
</g>
<!-- 4&#45;&gt;2 -->
<g id="edge76" class="edge">
<title>4&#45;&gt;2</title>
<path fill="none" stroke="black" d="M649.11,-106.42C666.94,-99.99 691.87,-90.27 712.66,-79.44 723.49,-73.8 724.01,-68.07 735.66,-64.44 805.05,-42.77 1317.62,-56.11 1389.66,-46.44 1407.03,-44.1 1425.99,-39.68 1441.68,-35.5"/>
<polygon fill="black" stroke="black" points="1442.75,-38.83 1451.46,-32.8 1440.89,-32.08 1442.75,-38.83"/>
<text text-anchor="middle" x="749.16" y="-68.24" font-family="Times,serif" font-size="14.00">{c0}</text>
</g>
<!-- 4&#45;&gt;2 -->
<g id="edge77" class="edge">
<title>4&#45;&gt;2</title>
<path fill="none" stroke="black" d="M651.75,-110.4C679.95,-105.44 725.81,-95.63 762.66,-79.44 773.84,-74.53 774.02,-68.09 785.66,-64.44 849.73,-44.35 1323.13,-55.45 1389.66,-46.44 1407.03,-44.08 1425.99,-39.66 1441.67,-35.48"/>
<polygon fill="black" stroke="black" points="1442.74,-38.81 1451.46,-32.79 1440.89,-32.06 1442.74,-38.81"/>
<text text-anchor="middle" x="799.16" y="-68.24" font-family="Times,serif" font-size="14.00">{c1}</text>
</g>
<!-- 4&#45;&gt;2 -->
<g id="edge78" class="edge">
<title>4&#45;&gt;2</title>
<path fill="none" stroke="black" d="M652.6,-112.71C689.78,-109.6 758.4,-101.2 812.66,-79.44 823.99,-74.89 824.02,-68.1 835.66,-64.44 953.15,-27.42 1267.62,-63.14 1389.66,-46.44 1407.03,-44.06 1425.98,-39.63 1441.67,-35.46"/>
<polygon fill="black" stroke="black" points="1442.74,-38.79 1451.46,-32.77 1440.89,-32.04 1442.74,-38.79"/>
<text text-anchor="middle" x="849.16" y="-68.24" font-family="Times,serif" font-size="14.00">{c2}</text>
</g>
<!-- 4&#45;&gt;2 -->
<g id="edge79" class="edge">
<title>4&#45;&gt;2</title>
<path fill="none" stroke="black" d="M652.91,-114.17C697.99,-112.91 790.32,-106.85 862.66,-79.44 874.08,-75.11 874.03,-68.12 885.66,-64.44 992.5,-30.59 1278.65,-61.81 1389.66,-46.44 1407.02,-44.03 1425.98,-39.6 1441.67,-35.43"/>
<polygon fill="black" stroke="black" points="1442.73,-38.77 1451.45,-32.75 1440.88,-32.02 1442.73,-38.77"/>
<text text-anchor="middle" x="909.16" y="-68.24" font-family="Times,serif" font-size="14.00">{c1, c2}</text>
</g>
<!-- 4&#45;&gt;2 -->
<g id="edge80" class="edge">
<title>4&#45;&gt;2</title>
<path fill="none" stroke="black" d="M652.62,-112.96C717.61,-109.14 881.31,-97.93 932.66,-79.44 944.15,-75.3 944.04,-68.16 955.66,-64.44 1047.6,-35.02 1294.09,-59.95 1389.66,-46.44 1407.02,-43.98 1425.97,-39.55 1441.66,-35.39"/>
<polygon fill="black" stroke="black" points="1442.72,-38.72 1451.45,-32.71 1440.88,-31.97 1442.72,-38.72"/>
<text text-anchor="middle" x="979.16" y="-68.24" font-family="Times,serif" font-size="14.00">{c0, c1}</text>
</g>
<!-- 4&#45;&gt;2 -->
<g id="edge81" class="edge">
<title>4&#45;&gt;2</title>
<path fill="none" stroke="black" d="M652.56,-113.62C727.57,-111.06 937.8,-102.03 1002.66,-79.44 1014.19,-75.42 1014.06,-68.2 1025.66,-64.44 1102.7,-39.45 1309.52,-58.09 1389.66,-46.44 1407.01,-43.91 1425.96,-39.47 1441.65,-35.32"/>
<polygon fill="black" stroke="black" points="1442.71,-38.66 1451.44,-32.66 1440.87,-31.91 1442.71,-38.66"/>
<text text-anchor="middle" x="1049.16" y="-68.24" font-family="Times,serif" font-size="14.00">{c0, c2}</text>
</g>
<!-- 4&#45;&gt;4 -->
<g id="edge70" class="edge">
<title>4&#45;&gt;4</title>
<path fill="none" stroke="black" d="M650.2,-123.19C661.17,-123.93 670.66,-121.34 670.66,-115.44 670.66,-111.47 666.38,-109 660.24,-108.03"/>
<polygon fill="black" stroke="black" points="660.31,-104.53 650.2,-107.68 660.07,-111.53 660.31,-104.53"/>
<text text-anchor="middle" x="677.66" y="-111.74" font-family="Times,serif" font-size="14.00">{}</text>
</g>
<!-- 5 -->
<g id="node7" class="node">
<title>5</title>
<ellipse fill="none" stroke="black" cx="310.66" cy="-24.44" rx="18" ry="18"/>
<ellipse fill="none" stroke="black" cx="310.66" cy="-24.44" rx="22" ry="22"/>
<text text-anchor="middle" x="310.66" y="-20.74" font-family="Times,serif" font-size="14.00">5</text>
</g>
<!-- 4&#45;&gt;5 -->
<g id="edge66" class="edge">
<title>4&#45;&gt;5</title>
<path fill="none" stroke="black" d="M598.4,-113.93C481.21,-111.63 25.34,-101.31 4.66,-79.44 -33.89,-38.65 192.37,-28.49 278.45,-26.12"/>
<polygon fill="black" stroke="black" points="278.55,-29.62 288.46,-25.86 278.37,-22.62 278.55,-29.62"/>
<text text-anchor="middle" x="28.16" y="-68.24" font-family="Times,serif" font-size="14.00">{c1, c3}</text>
</g>
<!-- 4&#45;&gt;5 -->
<g id="edge67" class="edge">
<title>4&#45;&gt;5</title>
<path fill="none" stroke="black" d="M598.54,-114.83C492.6,-116.09 110.78,-117.92 74.66,-79.44 70.1,-74.57 70.35,-69.52 74.66,-64.44 100.4,-34.1 219.78,-27.33 278.24,-25.84"/>
<polygon fill="black" stroke="black" points="278.49,-29.33 288.41,-25.62 278.33,-22.34 278.49,-29.33"/>
<text text-anchor="middle" x="108.16" y="-68.24" font-family="Times,serif" font-size="14.00">{c1, c2, c3}</text>
</g>
<!-- 4&#45;&gt;5 -->
<g id="edge68" class="edge">
<title>4&#45;&gt;5</title>
<path fill="none" stroke="black" d="M598.56,-114.47C504.21,-114.31 194.23,-111.33 164.66,-79.44 130.03,-42.07 225.57,-30.45 278.35,-26.93"/>
<polygon fill="black" stroke="black" points="278.83,-30.4 288.6,-26.31 278.4,-23.42 278.83,-30.4"/>
<text text-anchor="middle" x="188.16" y="-68.24" font-family="Times,serif" font-size="14.00">{c0, c3}</text>
</g>
<!-- 4&#45;&gt;5 -->
<g id="edge69" class="edge">
<title>4&#45;&gt;5</title>
<path fill="none" stroke="black" d="M598.65,-114.08C514.17,-112.68 259.18,-106.25 234.66,-79.44 217.08,-60.2 251.68,-43.8 279.78,-34.28"/>
<polygon fill="black" stroke="black" points="280.9,-37.59 289.35,-31.2 278.76,-30.93 280.9,-37.59"/>
<text text-anchor="middle" x="278.66" y="-68.24" font-family="Times,serif" font-size="14.00">{c0, c1, c2, c3}</text>
</g>
<!-- 4&#45;&gt;5 -->
<g id="edge71" class="edge">
<title>4&#45;&gt;5</title>
<path fill="none" stroke="black" d="M598.68,-113.92C536.94,-112.28 387.48,-105.66 345.66,-79.44 336.05,-73.41 328.56,-63.67 323.02,-54.11"/>
<polygon fill="black" stroke="black" points="326.04,-52.34 318.29,-45.12 319.85,-55.6 326.04,-52.34"/>
<text text-anchor="middle" x="379.16" y="-68.24" font-family="Times,serif" font-size="14.00">{c0, c2, c3}</text>
</g>
<!-- 4&#45;&gt;5 -->
<g id="edge72" class="edge">
<title>4&#45;&gt;5</title>
<path fill="none" stroke="black" d="M598.94,-112.84C561.31,-109.85 491.11,-101.58 435.66,-79.44 424.33,-74.91 423.54,-69.98 412.66,-64.44 389.44,-52.59 361.74,-42.22 341.07,-35.16"/>
<polygon fill="black" stroke="black" points="342.13,-31.82 331.54,-31.96 339.91,-38.46 342.13,-31.82"/>
<text text-anchor="middle" x="469.16" y="-68.24" font-family="Times,serif" font-size="14.00">{c0, c1, c3}</text>
</g>
<!-- 4&#45;&gt;5 -->
<g id="edge73" class="edge">
<title>4&#45;&gt;5</title>
<path fill="none" stroke="black" d="M601.16,-107.67C580.5,-101.54 550.42,-91.62 525.66,-79.44 514.71,-74.05 513.96,-69.07 502.66,-64.44 449.16,-42.5 382.04,-32.5 342.99,-28.25"/>
<polygon fill="black" stroke="black" points="343.05,-24.74 332.75,-27.21 342.34,-31.71 343.05,-24.74"/>
<text text-anchor="middle" x="539.16" y="-68.24" font-family="Times,serif" font-size="14.00">{c3}</text>
</g>
<!-- 4&#45;&gt;5 -->
<g id="edge74" class="edge">
<title>4&#45;&gt;5</title>
<path fill="none" stroke="black" d="M607.51,-101.71C586.89,-87.3 555.69,-65.65 552.66,-64.44 481.39,-35.96 390.43,-28.25 342.89,-26.18"/>
<polygon fill="black" stroke="black" points="343.01,-22.68 332.88,-25.8 342.74,-29.68 343.01,-22.68"/>
<text text-anchor="middle" x="598.16" y="-68.24" font-family="Times,serif" font-size="14.00">{c2, c3}</text>
</g>
<!-- 5&#45;&gt;5 -->
<g id="edge34" class="edge">
<title>5&#45;&gt;5</title>
<path fill="none" stroke="black" d="M332.88,-25.92C342.46,-26.04 350.66,-25.55 350.66,-24.44 350.66,-23.76 347.62,-23.31 343.07,-23.09"/>
<polygon fill="black" stroke="black" points="342.92,-19.59 332.88,-22.95 342.83,-26.59 342.92,-19.59"/>
<text text-anchor="middle" x="374.16" y="-20.74" font-family="Times,serif" font-size="14.00">{c0, c1}</text>
</g>
<!-- 5&#45;&gt;5 -->
<g id="edge35" class="edge">
<title>5&#45;&gt;5</title>
<path fill="none" stroke="black" d="M332.84,-26.71C360,-28.18 397.66,-27.42 397.66,-24.44 397.66,-21.81 368.57,-20.91 343.08,-21.73"/>
<polygon fill="black" stroke="black" points="342.68,-18.24 332.84,-22.16 342.98,-25.23 342.68,-18.24"/>
<text text-anchor="middle" x="411.16" y="-20.74" font-family="Times,serif" font-size="14.00">{c2}</text>
</g>
<!-- 5&#45;&gt;5 -->
<g id="edge36" class="edge">
<title>5&#45;&gt;5</title>
<path fill="none" stroke="black" d="M332.67,-27.35C368.36,-30.19 424.66,-29.22 424.66,-24.44 424.66,-20.08 378.02,-18.89 342.73,-20.85"/>
<polygon fill="black" stroke="black" points="342.41,-17.36 332.67,-21.52 342.88,-24.35 342.41,-17.36"/>
<text text-anchor="middle" x="438.16" y="-20.74" font-family="Times,serif" font-size="14.00">{c3}</text>
</g>
<!-- 5&#45;&gt;5 -->
<g id="edge37" class="edge">
<title>5&#45;&gt;5</title>
<path fill="none" stroke="black" d="M332.5,-27.82C376.1,-32.21 451.66,-31.08 451.66,-24.44 451.66,-18.29 386.9,-16.86 342.69,-20.17"/>
<polygon fill="black" stroke="black" points="342.16,-16.7 332.5,-21.05 342.76,-23.67 342.16,-16.7"/>
<text text-anchor="middle" x="475.16" y="-20.74" font-family="Times,serif" font-size="14.00">{c2, c3}</text>
</g>
<!-- 5&#45;&gt;5 -->
<g id="edge38" class="edge">
<title>5&#45;&gt;5</title>
<path fill="none" stroke="black" d="M332.4,-28.06C387.39,-34.24 498.66,-33.03 498.66,-24.44 498.66,-16.35 400.05,-14.8 342.62,-19.8"/>
<polygon fill="black" stroke="black" points="342.01,-16.34 332.4,-20.81 342.7,-23.31 342.01,-16.34"/>
<text text-anchor="middle" x="512.16" y="-20.74" font-family="Times,serif" font-size="14.00">{c1}</text>
</g>
<!-- 5&#45;&gt;5 -->
<g id="edge39" class="edge">
<title>5&#45;&gt;5</title>
<path fill="none" stroke="black" d="M332.34,-28.37C394.23,-36.25 525.66,-34.94 525.66,-24.44 525.66,-14.47 407.24,-12.78 342.28,-19.37"/>
<polygon fill="black" stroke="black" points="341.88,-15.89 332.34,-20.5 342.67,-22.85 341.88,-15.89"/>
<text text-anchor="middle" x="549.16" y="-20.74" font-family="Times,serif" font-size="14.00">{c0, c2}</text>
</g>
<!-- 5&#45;&gt;5 -->
<g id="edge40" class="edge">
<title>5&#45;&gt;5</title>
<path fill="none" stroke="black" d="M332.69,-28.59C404.71,-38.26 572.66,-36.88 572.66,-24.44 572.66,-12.55 419.46,-10.76 342.96,-19.04"/>
<polygon fill="black" stroke="black" points="342.2,-15.61 332.69,-20.28 343.04,-22.56 342.2,-15.61"/>
<text text-anchor="middle" x="596.16" y="-20.74" font-family="Times,serif" font-size="14.00">{c1, c3}</text>
</g>
<!-- 5&#45;&gt;5 -->
<g id="edge41" class="edge">
<title>5&#45;&gt;5</title>
<path fill="none" stroke="black" d="M332.39,-28.7C413.57,-40.28 619.66,-38.86 619.66,-24.44 619.66,-10.58 429.36,-8.72 342.46,-18.87"/>
<polygon fill="black" stroke="black" points="341.86,-15.42 332.39,-20.17 342.76,-22.36 341.86,-15.42"/>
<text text-anchor="middle" x="633.16" y="-20.74" font-family="Times,serif" font-size="14.00">{c0}</text>
</g>
<!-- 5&#45;&gt;5 -->
<g id="edge42" class="edge">
<title>5&#45;&gt;5</title>
<path fill="none" stroke="black" d="M332.29,-28.9C419.62,-42.29 646.66,-40.8 646.66,-24.44 646.66,-8.66 435.73,-6.71 342.28,-18.58"/>
<polygon fill="black" stroke="black" points="341.71,-15.13 332.29,-19.98 342.68,-22.06 341.71,-15.13"/>
<text text-anchor="middle" x="680.16" y="-20.74" font-family="Times,serif" font-size="14.00">{c1, c2, c3}</text>
</g>
<!-- 5&#45;&gt;5 -->
<g id="edge43" class="edge">
<title>5&#45;&gt;5</title>
<path fill="none" stroke="black" d="M332.32,-28.95C430.81,-44.3 713.66,-42.8 713.66,-24.44 713.66,-6.67 448.75,-4.69 342.4,-18.49"/>
<polygon fill="black" stroke="black" points="341.73,-15.05 332.32,-19.92 342.71,-21.98 341.73,-15.05"/>
<text text-anchor="middle" x="747.16" y="-20.74" font-family="Times,serif" font-size="14.00">{c0, c1, c2}</text>
</g>
<!-- 5&#45;&gt;5 -->
<g id="edge44" class="edge">
<title>5&#45;&gt;5</title>
<path fill="none" stroke="black" d="M332.39,-29.03C441.41,-46.31 780.66,-44.78 780.66,-24.44 780.66,-4.69 461,-2.67 342.55,-18.38"/>
<polygon fill="black" stroke="black" points="341.78,-14.95 332.39,-19.85 342.78,-21.88 341.78,-14.95"/>
<text text-anchor="middle" x="804.16" y="-20.74" font-family="Times,serif" font-size="14.00">{c1, c2}</text>
</g>
<!-- 5&#45;&gt;5 -->
<g id="edge45" class="edge">
<title>5&#45;&gt;5</title>
<path fill="none" stroke="black" d="M332.44,-29.14C449.38,-48.32 827.66,-46.75 827.66,-24.44 827.66,-2.73 469.78,-0.66 342.6,-18.2"/>
<polygon fill="black" stroke="black" points="341.81,-14.78 332.44,-19.73 342.84,-21.71 341.81,-14.78"/>
<text text-anchor="middle" x="861.16" y="-20.74" font-family="Times,serif" font-size="14.00">{c0, c1, c3}</text>
</g>
<!-- 5&#45;&gt;5 -->
<g id="edge46" class="edge">
<title>5&#45;&gt;5</title>
<path fill="none" stroke="black" d="M332.47,-29.21C459.12,-50.32 894.66,-48.73 894.66,-24.44 894.66,-0.75 480.95,1.36 342.7,-18.1"/>
<polygon fill="black" stroke="black" points="341.82,-14.7 332.47,-19.67 342.88,-21.61 341.82,-14.7"/>
<text text-anchor="middle" x="901.66" y="-20.74" font-family="Times,serif" font-size="14.00">{}</text>
</g>
<!-- 5&#45;&gt;5 -->
<g id="edge47" class="edge">
<title>5&#45;&gt;5</title>
<path fill="none" stroke="black" d="M332.48,-29.36C463.84,-52.33 912.66,-50.69 912.66,-24.44 912.66,1.17 485.48,3.36 342.65,-17.88"/>
<polygon fill="black" stroke="black" points="341.79,-14.47 332.48,-19.51 342.9,-21.38 341.79,-14.47"/>
<text text-anchor="middle" x="936.16" y="-20.74" font-family="Times,serif" font-size="14.00">{c0, c3}</text>
</g>
<!-- 5&#45;&gt;5 -->
<g id="edge48" class="edge">
<title>5&#45;&gt;5</title>
<path fill="none" stroke="black" d="M332.25,-29.4C470.75,-54.33 959.66,-52.68 959.66,-24.44 959.66,3.14 493.4,5.37 342.56,-17.76"/>
<polygon fill="black" stroke="black" points="341.54,-14.38 332.25,-19.47 342.69,-21.29 341.54,-14.38"/>
<text text-anchor="middle" x="1003.66" y="-20.74" font-family="Times,serif" font-size="14.00">{c0, c1, c2, c3}</text>
</g>
<!-- 5&#45;&gt;5 -->
<g id="edge49" class="edge">
<title>5&#45;&gt;5</title>
<path fill="none" stroke="black" d="M332.18,-29.4C481.41,-56.34 1047.66,-54.69 1047.66,-24.44 1047.66,5.16 505.48,7.38 342.37,-17.78"/>
<polygon fill="black" stroke="black" points="341.47,-14.38 332.18,-19.47 342.62,-21.28 341.47,-14.38"/>
<text text-anchor="middle" x="1081.16" y="-20.74" font-family="Times,serif" font-size="14.00">{c0, c2, c3}</text>
</g>
</g>
</svg>
