<?xml version="1.0" encoding="UTF-8" standalone="no"?>
<!DOCTYPE svg PUBLIC "-//W3C//DTD SVG 1.1//EN"
 "http://www.w3.org/Graphics/SVG/1.1/DTD/svg11.dtd">
<!-- Generated by graphviz version 2.43.0 (0)
 -->
<!-- Title: %3 Pages: 1 -->
<svg width="1053pt" height="386pt"
 viewBox="0.00 0.00 1053.26 386.00" xmlns="http://www.w3.org/2000/svg" xmlns:xlink="http://www.w3.org/1999/xlink">
<g id="graph0" class="graph" transform="scale(1 1) rotate(0) translate(4 382)">
<title>%3</title>
<polygon fill="white" stroke="transparent" points="-4,4 -4,-382 1049.26,-382 1049.26,4 -4,4"/>
<!-- fake -->
<g id="node1" class="node">
<title>fake</title>
</g>
<!-- 0 -->
<g id="node2" class="node">
<title>0</title>
<ellipse fill="none" stroke="black" cx="564.26" cy="-287" rx="27" ry="18"/>
<text text-anchor="middle" x="564.26" y="-283.3" font-family="Times,serif" font-size="14.00">0</text>
</g>
<!-- fake&#45;&gt;0 -->
<g id="edge1" class="edge">
<title>fake&#45;&gt;0</title>
<path fill="none" stroke="black" stroke-width="2" d="M564.26,-341.81C564.26,-333.79 564.26,-324.05 564.26,-315.07"/>
<polygon fill="black" stroke="black" stroke-width="2" points="567.76,-315.03 564.26,-305.03 560.76,-315.03 567.76,-315.03"/>
</g>
<!-- 0&#45;&gt;0 -->
<g id="edge2" class="edge">
<title>0&#45;&gt;0</title>
<path fill="none" stroke="black" d="M589.7,-293.69C600.29,-294.15 609.26,-291.92 609.26,-287 609.26,-283.77 605.39,-281.7 599.75,-280.79"/>
<polygon fill="black" stroke="black" points="599.86,-277.29 589.7,-280.31 599.52,-284.28 599.86,-277.29"/>
<text text-anchor="middle" x="616.26" y="-283.3" font-family="Times,serif" font-size="14.00">{}</text>
</g>
<!-- 1 -->
<g id="node3" class="node">
<title>1</title>
<ellipse fill="none" stroke="black" cx="424.26" cy="-200" rx="27" ry="18"/>
<text text-anchor="middle" x="424.26" y="-196.3" font-family="Times,serif" font-size="14.00">1</text>
</g>
<!-- 0&#45;&gt;1 -->
<g id="edge3" class="edge">
<title>0&#45;&gt;1</title>
<path fill="none" stroke="black" d="M537.09,-285.08C489.82,-282.85 395.53,-275.37 375.26,-251 365.06,-238.74 378.19,-225.91 393.42,-216.31"/>
<polygon fill="black" stroke="black" points="395.57,-219.11 402.47,-211.07 392.06,-213.06 395.57,-219.11"/>
<text text-anchor="middle" x="388.76" y="-239.8" font-family="Times,serif" font-size="14.00">{c2}</text>
</g>
<!-- 0&#45;&gt;1 -->
<g id="edge4" class="edge">
<title>0&#45;&gt;1</title>
<path fill="none" stroke="black" d="M537.86,-283.14C501.56,-278.6 439.13,-268.43 425.26,-251 420.17,-244.6 418.69,-236.14 418.85,-228"/>
<polygon fill="black" stroke="black" points="422.33,-228.32 419.79,-218.04 415.37,-227.67 422.33,-228.32"/>
<text text-anchor="middle" x="448.76" y="-239.8" font-family="Times,serif" font-size="14.00">{c1, c2}</text>
</g>
<!-- 0&#45;&gt;1 -->
<g id="edge5" class="edge">
<title>0&#45;&gt;1</title>
<path fill="none" stroke="black" d="M542.69,-276.05C528.86,-269.43 510.68,-260.28 495.26,-251 486.4,-245.67 466.67,-231.71 450.25,-219.89"/>
<polygon fill="black" stroke="black" points="452.19,-216.98 442.04,-213.96 448.1,-222.65 452.19,-216.98"/>
<text text-anchor="middle" x="518.76" y="-239.8" font-family="Times,serif" font-size="14.00">{c0, c2}</text>
</g>
<!-- 0&#45;&gt;1 -->
<g id="edge6" class="edge">
<title>0&#45;&gt;1</title>
<path fill="none" stroke="black" d="M560.67,-268.96C557.54,-258.11 551.94,-244.53 542.26,-236 519.85,-216.26 486.75,-207.64 461.3,-203.88"/>
<polygon fill="black" stroke="black" points="461.63,-200.4 451.26,-202.59 460.74,-207.34 461.63,-200.4"/>
<text text-anchor="middle" x="585.76" y="-239.8" font-family="Times,serif" font-size="14.00">{c0, c1, c2}</text>
</g>
<!-- 2 -->
<g id="node4" class="node">
<title>2</title>
<ellipse fill="none" stroke="black" cx="571.26" cy="-22" rx="27" ry="18"/>
<text text-anchor="middle" x="571.26" y="-18.3" font-family="Times,serif" font-size="14.00">2</text>
</g>
<!-- 0&#45;&gt;2 -->
<g id="edge7" class="edge">
<title>0&#45;&gt;2</title>
<path fill="none" stroke="black" d="M588.1,-278.44C600.96,-273 615.71,-264.25 623.26,-251 629.93,-239.29 670.86,-277.3 614.26,-95 608.84,-77.55 598.4,-59.9 589.16,-46.45"/>
<polygon fill="black" stroke="black" points="591.98,-44.37 583.33,-38.26 586.28,-48.43 591.98,-44.37"/>
<text text-anchor="middle" x="655.76" y="-152.8" font-family="Times,serif" font-size="14.00">{c0, c1}</text>
</g>
<!-- 0&#45;&gt;2 -->
<g id="edge8" class="edge">
<title>0&#45;&gt;2</title>
<path fill="none" stroke="black" d="M589.7,-280.51C607.53,-275.49 630.84,-266.44 646.26,-251 675.95,-221.27 674.87,-205.17 683.26,-164 694.28,-109.92 636.84,-63.38 600.12,-39.69"/>
<polygon fill="black" stroke="black" points="601.62,-36.5 591.28,-34.17 597.91,-42.44 601.62,-36.5"/>
<text text-anchor="middle" x="697.76" y="-152.8" font-family="Times,serif" font-size="14.00">{c1}</text>
</g>
<!-- 0&#45;&gt;2 -->
<g id="edge9" class="edge">
<title>0&#45;&gt;2</title>
<path fill="none" stroke="black" d="M590.36,-281.88C612.4,-277.33 643.87,-268.26 666.26,-251 701.41,-223.91 705.06,-207.19 715.26,-164 727.45,-112.37 696.6,-92.59 653.26,-62 638.01,-51.23 619.32,-42.08 603.64,-35.36"/>
<polygon fill="black" stroke="black" points="604.9,-32.09 594.32,-31.49 602.21,-38.56 604.9,-32.09"/>
<text text-anchor="middle" x="730.76" y="-152.8" font-family="Times,serif" font-size="14.00">{c0}</text>
</g>
<!-- 1&#45;&gt;1 -->
<g id="edge22" class="edge">
<title>1&#45;&gt;1</title>
<path fill="none" stroke="black" d="M448.79,-207.75C459.77,-208.49 469.26,-205.91 469.26,-200 469.26,-196.03 464.97,-193.56 458.83,-192.59"/>
<polygon fill="black" stroke="black" points="458.91,-189.09 448.79,-192.25 458.66,-196.09 458.91,-189.09"/>
<text text-anchor="middle" x="476.26" y="-196.3" font-family="Times,serif" font-size="14.00">{}</text>
</g>
<!-- 1&#45;&gt;2 -->
<g id="edge23" class="edge">
<title>1&#45;&gt;2</title>
<path fill="none" stroke="black" d="M427.3,-182.04C431.75,-160.49 441.48,-122.75 459.26,-95 470.79,-77 476.43,-73.8 494.26,-62 510.85,-51.01 517.52,-53.03 535.26,-44 537.86,-42.68 540.53,-41.25 543.19,-39.78"/>
<polygon fill="black" stroke="black" points="545.09,-42.73 552.05,-34.75 541.63,-36.65 545.09,-42.73"/>
<text text-anchor="middle" x="472.76" y="-109.3" font-family="Times,serif" font-size="14.00">{c0}</text>
</g>
<!-- 1&#45;&gt;2 -->
<g id="edge24" class="edge">
<title>1&#45;&gt;2</title>
<path fill="none" stroke="black" d="M438.12,-184.42C450.9,-170.83 470.25,-149.89 486.26,-131 510.36,-102.56 536.71,-68.6 553.58,-46.46"/>
<polygon fill="black" stroke="black" points="556.51,-48.38 559.77,-38.3 550.94,-44.15 556.51,-48.38"/>
<text text-anchor="middle" x="528.76" y="-109.3" font-family="Times,serif" font-size="14.00">{c2}</text>
</g>
<!-- 1&#45;&gt;2 -->
<g id="edge25" class="edge">
<title>1&#45;&gt;2</title>
<path fill="none" stroke="black" d="M448.91,-191.96C476.88,-182.67 521.77,-163.56 546.26,-131 563.92,-107.53 569.4,-73.65 570.96,-50.13"/>
<polygon fill="black" stroke="black" points="574.46,-50.27 571.43,-40.12 567.46,-49.94 574.46,-50.27"/>
<text text-anchor="middle" x="586.76" y="-109.3" font-family="Times,serif" font-size="14.00">{c0, c2}</text>
</g>
<!-- 3 -->
<g id="node5" class="node">
<title>3</title>
<ellipse fill="none" stroke="black" cx="243.26" cy="-113" rx="27" ry="18"/>
<text text-anchor="middle" x="243.26" y="-109.3" font-family="Times,serif" font-size="14.00">3</text>
</g>
<!-- 1&#45;&gt;3 -->
<g id="edge18" class="edge">
<title>1&#45;&gt;3</title>
<path fill="none" stroke="black" d="M396.85,-199.46C338.07,-199.8 202.88,-196.9 174.26,-164 159.92,-147.52 185.08,-133.42 208.94,-124.43"/>
<polygon fill="black" stroke="black" points="210.36,-127.64 218.62,-121.02 208.03,-121.04 210.36,-127.64"/>
<text text-anchor="middle" x="197.76" y="-152.8" font-family="Times,serif" font-size="14.00">{c1, c2}</text>
</g>
<!-- 1&#45;&gt;3 -->
<g id="edge19" class="edge">
<title>1&#45;&gt;3</title>
<path fill="none" stroke="black" d="M397.34,-197.77C352.04,-195.08 263.57,-186.96 244.26,-164 238.99,-157.74 237.47,-149.32 237.64,-141.17"/>
<polygon fill="black" stroke="black" points="241.13,-141.47 238.62,-131.18 234.16,-140.79 241.13,-141.47"/>
<text text-anchor="middle" x="277.76" y="-152.8" font-family="Times,serif" font-size="14.00">{c0, c1, c2}</text>
</g>
<!-- 1&#45;&gt;3 -->
<g id="edge20" class="edge">
<title>1&#45;&gt;3</title>
<path fill="none" stroke="black" d="M400.37,-191.23C381.88,-184.86 355.88,-175.1 334.26,-164 323.4,-158.43 321.81,-155.13 311.26,-149 299.21,-142 285.62,-134.85 273.76,-128.86"/>
<polygon fill="black" stroke="black" points="275.2,-125.67 264.69,-124.33 272.07,-131.93 275.2,-125.67"/>
<text text-anchor="middle" x="357.76" y="-152.8" font-family="Times,serif" font-size="14.00">{c0, c1}</text>
</g>
<!-- 1&#45;&gt;3 -->
<g id="edge21" class="edge">
<title>1&#45;&gt;3</title>
<path fill="none" stroke="black" d="M414.49,-183.18C406.8,-172.01 395.08,-157.56 381.26,-149 350.38,-129.88 309.48,-121.18 280.24,-117.23"/>
<polygon fill="black" stroke="black" points="280.38,-113.72 270.03,-115.98 279.53,-120.67 280.38,-113.72"/>
<text text-anchor="middle" x="412.76" y="-152.8" font-family="Times,serif" font-size="14.00">{c1}</text>
</g>
<!-- 2&#45;&gt;2 -->
<g id="edge34" class="edge">
<title>2&#45;&gt;2</title>
<path fill="none" stroke="black" d="M598.5,-23.5C608.28,-23.53 616.26,-23.03 616.26,-22 616.26,-21.37 613.3,-20.94 608.77,-20.71"/>
<polygon fill="black" stroke="black" points="608.57,-17.2 598.5,-20.5 608.43,-24.2 608.57,-17.2"/>
<text text-anchor="middle" x="639.76" y="-18.3" font-family="Times,serif" font-size="14.00">{c0, c1}</text>
</g>
<!-- 2&#45;&gt;2 -->
<g id="edge35" class="edge">
<title>2&#45;&gt;2</title>
<path fill="none" stroke="black" d="M598.15,-24.43C626.58,-25.68 663.26,-24.87 663.26,-22 663.26,-19.46 634.67,-18.53 608.41,-19.22"/>
<polygon fill="black" stroke="black" points="608.02,-15.73 598.15,-19.57 608.27,-22.72 608.02,-15.73"/>
<text text-anchor="middle" x="676.76" y="-18.3" font-family="Times,serif" font-size="14.00">{c1}</text>
</g>
<!-- 2&#45;&gt;2 -->
<g id="edge36" class="edge">
<title>2&#45;&gt;2</title>
<path fill="none" stroke="black" d="M598.08,-25.17C635.5,-27.69 690.26,-26.63 690.26,-22 690.26,-17.77 644.51,-16.52 608.06,-18.26"/>
<polygon fill="black" stroke="black" points="607.86,-14.76 598.08,-18.83 608.26,-21.75 607.86,-14.76"/>
<text text-anchor="middle" x="703.76" y="-18.3" font-family="Times,serif" font-size="14.00">{c0}</text>
</g>
<!-- 2&#45;&gt;2 -->
<g id="edge37" class="edge">
<title>2&#45;&gt;2</title>
<path fill="none" stroke="black" d="M597.98,-25.74C643.73,-29.7 717.26,-28.45 717.26,-22 717.26,-16 653.71,-14.5 608.01,-17.5"/>
<polygon fill="black" stroke="black" points="607.69,-14.01 597.98,-18.26 608.21,-20.99 607.69,-14.01"/>
<text text-anchor="middle" x="724.26" y="-18.3" font-family="Times,serif" font-size="14.00">{}</text>
</g>
<!-- 2&#45;&gt;2 -->
<g id="edge38" class="edge">
<title>2&#45;&gt;2</title>
<path fill="none" stroke="black" d="M597.55,-26.23C649.13,-31.71 735.26,-30.3 735.26,-22 735.26,-14.22 659.56,-12.49 607.6,-16.82"/>
<polygon fill="black" stroke="black" points="607.18,-13.35 597.55,-17.77 607.84,-20.31 607.18,-13.35"/>
<text text-anchor="middle" x="758.76" y="-18.3" font-family="Times,serif" font-size="14.00">{c1, c2}</text>
</g>
<!-- 2&#45;&gt;2 -->
<g id="edge39" class="edge">
<title>2&#45;&gt;2</title>
<path fill="none" stroke="black" d="M597.49,-26.45C660.78,-33.75 782.26,-32.27 782.26,-22 782.26,-12.26 672.8,-10.42 607.55,-16.5"/>
<polygon fill="black" stroke="black" points="607.07,-13.04 597.49,-17.55 607.79,-20 607.07,-13.04"/>
<text text-anchor="middle" x="795.76" y="-18.3" font-family="Times,serif" font-size="14.00">{c2}</text>
</g>
<!-- 2&#45;&gt;2 -->
<g id="edge40" class="edge">
<title>2&#45;&gt;2</title>
<path fill="none" stroke="black" d="M597.54,-26.78C668,-35.76 809.26,-34.17 809.26,-22 809.26,-10.4 680.93,-8.41 607.9,-16.03"/>
<polygon fill="black" stroke="black" points="607.08,-12.6 597.54,-17.22 607.88,-19.55 607.08,-12.6"/>
<text text-anchor="middle" x="842.76" y="-18.3" font-family="Times,serif" font-size="14.00">{c0, c1, c2}</text>
</g>
<!-- 2&#45;&gt;2 -->
<g id="edge41" class="edge">
<title>2&#45;&gt;2</title>
<path fill="none" stroke="black" d="M597.34,-26.82C681.26,-37.79 876.26,-36.19 876.26,-22 876.26,-8.35 695.83,-6.35 607.4,-15.98"/>
<polygon fill="black" stroke="black" points="606.86,-12.52 597.34,-17.18 607.69,-19.47 606.86,-12.52"/>
<text text-anchor="middle" x="899.76" y="-18.3" font-family="Times,serif" font-size="14.00">{c0, c2}</text>
</g>
<!-- 3&#45;&gt;2 -->
<g id="edge15" class="edge">
<title>3&#45;&gt;2</title>
<path fill="none" stroke="black" d="M251.99,-95.45C259.04,-83.91 270.1,-69.33 284.26,-62 333.92,-36.29 481.83,-60.52 535.26,-44 538.27,-43.07 541.3,-41.85 544.26,-40.46"/>
<polygon fill="black" stroke="black" points="546.16,-43.41 553.33,-35.61 542.86,-37.24 546.16,-43.41"/>
<text text-anchor="middle" x="297.76" y="-65.8" font-family="Times,serif" font-size="14.00">{c1}</text>
</g>
<!-- 3&#45;&gt;2 -->
<g id="edge16" class="edge">
<title>3&#45;&gt;2</title>
<path fill="none" stroke="black" d="M264.69,-101.67C278.23,-94.98 295.99,-85.88 311.26,-77 321.81,-70.87 322.73,-66 334.26,-62 419,-32.63 449.81,-71.25 535.26,-44 538.26,-43.04 541.29,-41.8 544.24,-40.4"/>
<polygon fill="black" stroke="black" points="546.14,-43.35 553.3,-35.54 542.84,-37.18 546.14,-43.35"/>
<text text-anchor="middle" x="357.76" y="-65.8" font-family="Times,serif" font-size="14.00">{c1, c2}</text>
</g>
<!-- 3&#45;&gt;2 -->
<g id="edge17" class="edge">
<title>3&#45;&gt;2</title>
<path fill="none" stroke="black" d="M269.27,-108.04C297.66,-103.12 344.02,-93.32 381.26,-77 392.44,-72.1 392.83,-66.27 404.26,-62 459.32,-41.45 479.7,-63.17 535.26,-44 538.17,-42.99 541.12,-41.74 544,-40.35"/>
<polygon fill="black" stroke="black" points="545.72,-43.4 552.87,-35.58 542.41,-37.23 545.72,-43.4"/>
<text text-anchor="middle" x="417.76" y="-65.8" font-family="Times,serif" font-size="14.00">{c2}</text>
</g>
<!-- 3&#45;&gt;3 -->
<g id="edge13" class="edge">
<title>3&#45;&gt;3</title>
<path fill="none" stroke="black" d="M267.79,-120.75C278.77,-121.49 288.26,-118.91 288.26,-113 288.26,-109.03 283.97,-106.56 277.83,-105.59"/>
<polygon fill="black" stroke="black" points="277.91,-102.09 267.79,-105.25 277.66,-109.09 277.91,-102.09"/>
<text text-anchor="middle" x="295.26" y="-109.3" font-family="Times,serif" font-size="14.00">{}</text>
</g>
<!-- 4 -->
<g id="node6" class="node">
<title>4</title>
<ellipse fill="none" stroke="black" cx="57.26" cy="-22" rx="18" ry="18"/>
<ellipse fill="none" stroke="black" cx="57.26" cy="-22" rx="22" ry="22"/>
<text text-anchor="middle" x="57.26" y="-18.3" font-family="Times,serif" font-size="14.00">4</text>
</g>
<!-- 3&#45;&gt;4 -->
<g id="edge10" class="edge">
<title>3&#45;&gt;4</title>
<path fill="none" stroke="black" d="M216.19,-112.26C159.53,-112.17 31.41,-108.41 4.26,-77 -8.07,-62.74 10.08,-47.49 28.41,-36.85"/>
<polygon fill="black" stroke="black" points="30.18,-39.88 37.29,-32.02 26.84,-33.73 30.18,-39.88"/>
<text text-anchor="middle" x="27.76" y="-65.8" font-family="Times,serif" font-size="14.00">{c0, c2}</text>
</g>
<!-- 3&#45;&gt;4 -->
<g id="edge11" class="edge">
<title>3&#45;&gt;4</title>
<path fill="none" stroke="black" d="M216.56,-109.74C174.35,-105.64 94.87,-95.64 74.26,-77 67.66,-71.03 63.6,-62.53 61.11,-54.03"/>
<polygon fill="black" stroke="black" points="64.5,-53.17 58.85,-44.21 57.68,-54.74 64.5,-53.17"/>
<text text-anchor="middle" x="107.76" y="-65.8" font-family="Times,serif" font-size="14.00">{c0, c1, c2}</text>
</g>
<!-- 3&#45;&gt;4 -->
<g id="edge12" class="edge">
<title>3&#45;&gt;4</title>
<path fill="none" stroke="black" d="M220.67,-103.13C204.61,-96.55 182.71,-87.02 164.26,-77 153.53,-71.18 151.93,-67.92 141.26,-62 123.68,-52.25 103.23,-42.72 86.91,-35.52"/>
<polygon fill="black" stroke="black" points="87.91,-32.14 77.34,-31.36 85.12,-38.56 87.91,-32.14"/>
<text text-anchor="middle" x="177.76" y="-65.8" font-family="Times,serif" font-size="14.00">{c0}</text>
</g>
<!-- 3&#45;&gt;4 -->
<g id="edge14" class="edge">
<title>3&#45;&gt;4</title>
<path fill="none" stroke="black" d="M231.07,-96.85C221.37,-85.72 206.87,-71.03 191.26,-62 159.09,-43.39 117.36,-33.08 89.07,-27.8"/>
<polygon fill="black" stroke="black" points="89.4,-24.31 78.94,-26.02 88.18,-31.2 89.4,-24.31"/>
<text text-anchor="middle" x="234.76" y="-65.8" font-family="Times,serif" font-size="14.00">{c0, c1}</text>
</g>
<!-- 4&#45;&gt;4 -->
<g id="edge26" class="edge">
<title>4&#45;&gt;4</title>
<path fill="none" stroke="black" d="M79.47,-23.48C89.05,-23.6 97.26,-23.11 97.26,-22 97.26,-21.32 94.21,-20.88 89.66,-20.66"/>
<polygon fill="black" stroke="black" points="89.52,-17.16 79.47,-20.52 89.42,-24.15 89.52,-17.16"/>
<text text-anchor="middle" x="120.76" y="-18.3" font-family="Times,serif" font-size="14.00">{c0, c1}</text>
</g>
<!-- 4&#45;&gt;4 -->
<g id="edge27" class="edge">
<title>4&#45;&gt;4</title>
<path fill="none" stroke="black" d="M79.43,-24.27C106.59,-25.74 144.26,-24.98 144.26,-22 144.26,-19.38 115.16,-18.47 89.68,-19.29"/>
<polygon fill="black" stroke="black" points="89.28,-15.8 79.43,-19.73 89.57,-22.8 89.28,-15.8"/>
<text text-anchor="middle" x="167.76" y="-18.3" font-family="Times,serif" font-size="14.00">{c0, c2}</text>
</g>
<!-- 4&#45;&gt;4 -->
<g id="edge28" class="edge">
<title>4&#45;&gt;4</title>
<path fill="none" stroke="black" d="M79.32,-24.76C119.87,-27.78 191.26,-26.86 191.26,-22 191.26,-17.52 130.59,-16.38 89.34,-18.6"/>
<polygon fill="black" stroke="black" points="89.08,-15.11 79.32,-19.24 89.53,-22.1 89.08,-15.11"/>
<text text-anchor="middle" x="224.76" y="-18.3" font-family="Times,serif" font-size="14.00">{c0, c1, c2}</text>
</g>
<!-- 4&#45;&gt;4 -->
<g id="edge29" class="edge">
<title>4&#45;&gt;4</title>
<path fill="none" stroke="black" d="M79.35,-25.03C135.22,-29.82 258.26,-28.81 258.26,-22 258.26,-15.57 148.77,-14.31 89.45,-18.21"/>
<polygon fill="black" stroke="black" points="89.06,-14.73 79.35,-18.97 89.58,-21.71 89.06,-14.73"/>
<text text-anchor="middle" x="265.26" y="-18.3" font-family="Times,serif" font-size="14.00">{}</text>
</g>
<!-- 4&#45;&gt;4 -->
<g id="edge30" class="edge">
<title>4&#45;&gt;4</title>
<path fill="none" stroke="black" d="M79.01,-25.46C139.64,-31.82 276.26,-30.67 276.26,-22 276.26,-13.79 153.67,-12.32 89.2,-17.6"/>
<polygon fill="black" stroke="black" points="88.64,-14.14 79.01,-18.54 89.29,-21.11 88.64,-14.14"/>
<text text-anchor="middle" x="289.76" y="-18.3" font-family="Times,serif" font-size="14.00">{c0}</text>
</g>
<!-- 4&#45;&gt;4 -->
<g id="edge31" class="edge">
<title>4&#45;&gt;4</title>
<path fill="none" stroke="black" d="M79.37,-25.83C146.7,-33.82 303.26,-32.55 303.26,-22 303.26,-11.95 161.04,-10.32 89.4,-17.11"/>
<polygon fill="black" stroke="black" points="88.94,-13.63 79.37,-18.17 89.68,-20.6 88.94,-13.63"/>
<text text-anchor="middle" x="316.76" y="-18.3" font-family="Times,serif" font-size="14.00">{c2}</text>
</g>
<!-- 4&#45;&gt;4 -->
<g id="edge32" class="edge">
<title>4&#45;&gt;4</title>
<path fill="none" stroke="black" d="M79.18,-26.09C152.84,-35.83 330.26,-34.47 330.26,-22 330.26,-10.07 167.76,-8.31 89.23,-16.71"/>
<polygon fill="black" stroke="black" points="88.7,-13.25 79.18,-17.91 89.53,-20.2 88.7,-13.25"/>
<text text-anchor="middle" x="353.76" y="-18.3" font-family="Times,serif" font-size="14.00">{c1, c2}</text>
</g>
<!-- 4&#45;&gt;4 -->
<g id="edge33" class="edge">
<title>4&#45;&gt;4</title>
<path fill="none" stroke="black" d="M79.02,-26.23C161.76,-37.85 377.26,-36.44 377.26,-22 377.26,-8.11 177.86,-6.28 89.03,-16.5"/>
<polygon fill="black" stroke="black" points="88.5,-13.04 79.02,-17.77 89.38,-19.98 88.5,-13.04"/>
<text text-anchor="middle" x="390.76" y="-18.3" font-family="Times,serif" font-size="14.00">{c1}</text>
</g>
</g>
</svg>
