<?xml version="1.0" encoding="UTF-8" standalone="no"?>
<!DOCTYPE svg PUBLIC "-//W3C//DTD SVG 1.1//EN"
 "http://www.w3.org/Graphics/SVG/1.1/DTD/svg11.dtd">
<!-- Generated by graphviz version 2.43.0 (0)
 -->
<!-- Title: %3 Pages: 1 -->
<svg width="331pt" height="386pt"
 viewBox="0.00 0.00 331.25 386.00" xmlns="http://www.w3.org/2000/svg" xmlns:xlink="http://www.w3.org/1999/xlink">
<g id="graph0" class="graph" transform="scale(1 1) rotate(0) translate(4 382)">
<title>%3</title>
<polygon fill="white" stroke="transparent" points="-4,4 -4,-382 327.25,-382 327.25,4 -4,4"/>
<!-- fake -->
<g id="node1" class="node">
<title>fake</title>
</g>
<!-- 0 -->
<g id="node4" class="node">
<title>0</title>
<ellipse fill="none" stroke="black" cx="158.25" cy="-287" rx="27" ry="18"/>
<text text-anchor="middle" x="158.25" y="-283.3" font-family="Times,serif" font-size="14.00">0</text>
</g>
<!-- fake&#45;&gt;0 -->
<g id="edge1" class="edge">
<title>fake&#45;&gt;0</title>
<path fill="none" stroke="black" stroke-width="2" d="M158.25,-341.81C158.25,-333.79 158.25,-324.05 158.25,-315.07"/>
<polygon fill="black" stroke="black" stroke-width="2" points="161.75,-315.03 158.25,-305.03 154.75,-315.03 161.75,-315.03"/>
</g>
<!-- 1 -->
<g id="node2" class="node">
<title>1</title>
<ellipse fill="none" stroke="black" cx="180.25" cy="-200" rx="27" ry="18"/>
<text text-anchor="middle" x="180.25" y="-196.3" font-family="Times,serif" font-size="14.00">1</text>
</g>
<!-- 1&#45;&gt;1 -->
<g id="edge5" class="edge">
<title>1&#45;&gt;1</title>
<path fill="none" stroke="black" d="M204.78,-207.75C215.75,-208.49 225.25,-205.91 225.25,-200 225.25,-196.03 220.96,-193.56 214.82,-192.59"/>
<polygon fill="black" stroke="black" points="214.89,-189.09 204.78,-192.25 214.65,-196.09 214.89,-189.09"/>
<text text-anchor="middle" x="232.25" y="-196.3" font-family="Times,serif" font-size="14.00">{}</text>
</g>
<!-- 1&#45;&gt;0 -->
<g id="edge3" class="edge">
<title>1&#45;&gt;0</title>
<path fill="none" stroke="black" d="M197.3,-214.32C207.83,-224.24 218.12,-238.23 211.25,-251 206.48,-259.86 198.37,-266.86 189.91,-272.19"/>
<polygon fill="black" stroke="black" points="188.09,-269.19 181.09,-277.15 191.53,-275.29 188.09,-269.19"/>
<text text-anchor="middle" x="226.75" y="-239.8" font-family="Times,serif" font-size="14.00">{c2}</text>
</g>
<!-- 1&#45;&gt;0 -->
<g id="edge4" class="edge">
<title>1&#45;&gt;0</title>
<path fill="none" stroke="black" d="M159.14,-211.3C149.69,-217.13 139.5,-225.39 134.25,-236 129.87,-244.84 132.83,-254.61 137.97,-263.15"/>
<polygon fill="black" stroke="black" points="135.25,-265.37 143.89,-271.51 140.97,-261.33 135.25,-265.37"/>
<text text-anchor="middle" x="147.75" y="-239.8" font-family="Times,serif" font-size="14.00">{c0}</text>
</g>
<!-- 2 -->
<g id="node5" class="node">
<title>2</title>
<ellipse fill="none" stroke="black" cx="251.25" cy="-113" rx="27" ry="18"/>
<text text-anchor="middle" x="251.25" y="-109.3" font-family="Times,serif" font-size="14.00">2</text>
</g>
<!-- 1&#45;&gt;2 -->
<g id="edge2" class="edge">
<title>1&#45;&gt;2</title>
<path fill="none" stroke="black" d="M192.94,-183.8C203.84,-170.75 219.73,-151.74 232.16,-136.85"/>
<polygon fill="black" stroke="black" points="234.94,-138.98 238.66,-129.06 229.56,-134.5 234.94,-138.98"/>
<text text-anchor="middle" x="232.75" y="-152.8" font-family="Times,serif" font-size="14.00">{c1}</text>
</g>
<!-- 3 -->
<g id="node3" class="node">
<title>3</title>
<ellipse fill="none" stroke="black" cx="75.25" cy="-22" rx="18" ry="18"/>
<ellipse fill="none" stroke="black" cx="75.25" cy="-22" rx="22" ry="22"/>
<text text-anchor="middle" x="75.25" y="-18.3" font-family="Times,serif" font-size="14.00">3</text>
</g>
<!-- 3&#45;&gt;3 -->
<g id="edge9" class="edge">
<title>3&#45;&gt;3</title>
<path fill="none" stroke="black" d="M95.83,-30.37C106.09,-31.53 115.25,-28.74 115.25,-22 115.25,-17.68 111.49,-14.99 106.09,-13.91"/>
<polygon fill="black" stroke="black" points="105.92,-10.41 95.83,-13.63 105.73,-17.4 105.92,-10.41"/>
<text text-anchor="middle" x="122.25" y="-18.3" font-family="Times,serif" font-size="14.00">{}</text>
</g>
<!-- 3&#45;&gt;0 -->
<g id="edge6" class="edge">
<title>3&#45;&gt;0</title>
<path fill="none" stroke="black" d="M58.51,-36.92C50.95,-43.86 42.37,-52.73 36.25,-62 34.82,-64.16 -6.85,-122.21 1.25,-164 9.17,-204.92 5.29,-223.09 36.25,-251 59.5,-271.98 94.54,-280.45 121.11,-283.84"/>
<polygon fill="black" stroke="black" points="120.88,-287.33 131.2,-284.93 121.63,-280.37 120.88,-287.33"/>
<text text-anchor="middle" x="14.75" y="-152.8" font-family="Times,serif" font-size="14.00">{c1}</text>
</g>
<!-- 3&#45;&gt;0 -->
<g id="edge7" class="edge">
<title>3&#45;&gt;0</title>
<path fill="none" stroke="black" d="M67.41,-42.67C57.56,-69.96 42.89,-120.85 51.25,-164 59.17,-204.92 57.82,-220.52 86.25,-251 96.54,-262.04 111.06,-270.02 124.37,-275.54"/>
<polygon fill="black" stroke="black" points="123.18,-278.83 133.77,-279.13 125.68,-272.29 123.18,-278.83"/>
<text text-anchor="middle" x="64.75" y="-152.8" font-family="Times,serif" font-size="14.00">{c2}</text>
</g>
<!-- 3&#45;&gt;0 -->
<g id="edge8" class="edge">
<title>3&#45;&gt;0</title>
<path fill="none" stroke="black" d="M76.56,-43.99C79.89,-85.64 91.16,-180.76 127.25,-251 129.64,-255.66 132.8,-260.2 136.19,-264.38"/>
<polygon fill="black" stroke="black" points="133.6,-266.73 142.84,-271.92 138.84,-262.1 133.6,-266.73"/>
<text text-anchor="middle" x="108.75" y="-152.8" font-family="Times,serif" font-size="14.00">{c0}</text>
</g>
<!-- 0&#45;&gt;1 -->
<g id="edge11" class="edge">
<title>0&#45;&gt;1</title>
<path fill="none" stroke="black" d="M162.59,-269.21C165.65,-257.41 169.79,-241.38 173.3,-227.82"/>
<polygon fill="black" stroke="black" points="176.72,-228.61 175.83,-218.05 169.94,-226.85 176.72,-228.61"/>
<text text-anchor="middle" x="183.75" y="-239.8" font-family="Times,serif" font-size="14.00">{c2}</text>
</g>
<!-- 0&#45;&gt;0 -->
<g id="edge10" class="edge">
<title>0&#45;&gt;0</title>
<path fill="none" stroke="black" d="M185.04,-289.25C195.03,-289.32 203.25,-288.57 203.25,-287 203.25,-286.02 200.03,-285.36 195.19,-285.02"/>
<polygon fill="black" stroke="black" points="195.13,-281.52 185.04,-284.75 194.95,-288.51 195.13,-281.52"/>
<text text-anchor="middle" x="216.75" y="-283.3" font-family="Times,serif" font-size="14.00">{c1}</text>
</g>
<!-- 0&#45;&gt;0 -->
<g id="edge12" class="edge">
<title>0&#45;&gt;0</title>
<path fill="none" stroke="black" d="M184.62,-290.89C206.41,-292.4 230.25,-291.1 230.25,-287 230.25,-283.52 213.12,-282.06 194.63,-282.61"/>
<polygon fill="black" stroke="black" points="194.44,-279.12 184.62,-283.11 194.78,-286.11 194.44,-279.12"/>
<text text-anchor="middle" x="243.75" y="-283.3" font-family="Times,serif" font-size="14.00">{c0}</text>
</g>
<!-- 0&#45;&gt;0 -->
<g id="edge13" class="edge">
<title>0&#45;&gt;0</title>
<path fill="none" stroke="black" d="M184.61,-292.01C216.32,-295.45 257.25,-293.79 257.25,-287 257.25,-280.93 224.5,-278.95 194.89,-281.07"/>
<polygon fill="black" stroke="black" points="194.26,-277.61 184.61,-281.99 194.88,-284.59 194.26,-277.61"/>
<text text-anchor="middle" x="264.25" y="-283.3" font-family="Times,serif" font-size="14.00">{}</text>
</g>
<!-- 2&#45;&gt;3 -->
<g id="edge16" class="edge">
<title>2&#45;&gt;3</title>
<path fill="none" stroke="black" d="M230.36,-101.44C198.9,-85.53 139.26,-55.37 103.8,-37.44"/>
<polygon fill="black" stroke="black" points="104.99,-34.12 94.49,-32.73 101.83,-40.37 104.99,-34.12"/>
<text text-anchor="middle" x="191.75" y="-65.8" font-family="Times,serif" font-size="14.00">{c0}</text>
</g>
<!-- 2&#45;&gt;0 -->
<g id="edge14" class="edge">
<title>2&#45;&gt;0</title>
<path fill="none" stroke="black" d="M255.89,-130.78C262.56,-158.82 271.28,-215.61 244.25,-251 232.38,-266.53 212.47,-275.2 194.8,-280.02"/>
<polygon fill="black" stroke="black" points="193.63,-276.7 184.73,-282.44 195.27,-283.51 193.63,-276.7"/>
<text text-anchor="middle" x="275.75" y="-196.3" font-family="Times,serif" font-size="14.00">{c1}</text>
</g>
<!-- 2&#45;&gt;0 -->
<g id="edge15" class="edge">
<title>2&#45;&gt;0</title>
<path fill="none" stroke="black" d="M264.68,-128.79C281.28,-148.93 305.86,-186.14 293.25,-218 277.83,-256.92 229.22,-273.74 194.76,-280.89"/>
<polygon fill="black" stroke="black" points="193.75,-277.52 184.57,-282.81 195.05,-284.39 193.75,-277.52"/>
<text text-anchor="middle" x="309.75" y="-196.3" font-family="Times,serif" font-size="14.00">{c2}</text>
</g>
<!-- 2&#45;&gt;2 -->
<g id="edge17" class="edge">
<title>2&#45;&gt;2</title>
<path fill="none" stroke="black" d="M275.78,-120.75C286.75,-121.49 296.25,-118.91 296.25,-113 296.25,-109.03 291.96,-106.56 285.82,-105.59"/>
<polygon fill="black" stroke="black" points="285.89,-102.09 275.78,-105.25 285.65,-109.09 285.89,-102.09"/>
<text text-anchor="middle" x="303.25" y="-109.3" font-family="Times,serif" font-size="14.00">{}</text>
</g>
</g>
</svg>
