<?xml version="1.0" encoding="UTF-8" standalone="no"?>
<!DOCTYPE svg PUBLIC "-//W3C//DTD SVG 1.1//EN"
 "http://www.w3.org/Graphics/SVG/1.1/DTD/svg11.dtd">
<!-- Generated by graphviz version 2.43.0 (0)
 -->
<!-- Title: %3 Pages: 1 -->
<svg width="1074pt" height="386pt"
 viewBox="0.00 0.00 1073.61 386.00" xmlns="http://www.w3.org/2000/svg" xmlns:xlink="http://www.w3.org/1999/xlink">
<g id="graph0" class="graph" transform="scale(1 1) rotate(0) translate(4 382)">
<title>%3</title>
<polygon fill="white" stroke="transparent" points="-4,4 -4,-382 1069.61,-382 1069.61,4 -4,4"/>
<!-- fake -->
<g id="node1" class="node">
<title>fake</title>
</g>
<!-- 0 -->
<g id="node2" class="node">
<title>0</title>
<ellipse fill="none" stroke="black" cx="578.61" cy="-287" rx="27" ry="18"/>
<text text-anchor="middle" x="578.61" y="-283.3" font-family="Times,serif" font-size="14.00">0</text>
</g>
<!-- fake&#45;&gt;0 -->
<g id="edge1" class="edge">
<title>fake&#45;&gt;0</title>
<path fill="none" stroke="black" stroke-width="2" d="M578.61,-341.81C578.61,-333.79 578.61,-324.05 578.61,-315.07"/>
<polygon fill="black" stroke="black" stroke-width="2" points="582.11,-315.03 578.61,-305.03 575.11,-315.03 582.11,-315.03"/>
</g>
<!-- 0&#45;&gt;0 -->
<g id="edge10" class="edge">
<title>0&#45;&gt;0</title>
<path fill="none" stroke="black" d="M604.05,-293.69C614.64,-294.15 623.61,-291.92 623.61,-287 623.61,-283.77 619.75,-281.7 614.1,-280.79"/>
<polygon fill="black" stroke="black" points="614.21,-277.29 604.05,-280.31 613.88,-284.28 614.21,-277.29"/>
<text text-anchor="middle" x="630.61" y="-283.3" font-family="Times,serif" font-size="14.00">{}</text>
</g>
<!-- 1 -->
<g id="node3" class="node">
<title>1</title>
<ellipse fill="none" stroke="black" cx="445.61" cy="-200" rx="27" ry="18"/>
<text text-anchor="middle" x="445.61" y="-196.3" font-family="Times,serif" font-size="14.00">1</text>
</g>
<!-- 0&#45;&gt;1 -->
<g id="edge11" class="edge">
<title>0&#45;&gt;1</title>
<path fill="none" stroke="black" d="M551.43,-285.62C500.25,-284.26 392.61,-278.17 369.61,-251 354.07,-232.64 383.92,-218.43 410.65,-209.93"/>
<polygon fill="black" stroke="black" points="411.69,-213.27 420.27,-207.06 409.69,-206.56 411.69,-213.27"/>
<text text-anchor="middle" x="403.11" y="-239.8" font-family="Times,serif" font-size="14.00">{c0, c1, c2}</text>
</g>
<!-- 0&#45;&gt;1 -->
<g id="edge12" class="edge">
<title>0&#45;&gt;1</title>
<path fill="none" stroke="black" d="M551.67,-285.31C524.75,-283.16 483.97,-275.68 459.61,-251 453.64,-244.96 450.17,-236.59 448.17,-228.42"/>
<polygon fill="black" stroke="black" points="451.58,-227.6 446.34,-218.39 444.69,-228.85 451.58,-227.6"/>
<text text-anchor="middle" x="473.11" y="-239.8" font-family="Times,serif" font-size="14.00">{c2}</text>
</g>
<!-- 0&#45;&gt;1 -->
<g id="edge13" class="edge">
<title>0&#45;&gt;1</title>
<path fill="none" stroke="black" d="M556.88,-276.31C542.99,-269.79 524.8,-260.66 509.61,-251 495.73,-242.17 481.2,-231.01 469.51,-221.46"/>
<polygon fill="black" stroke="black" points="471.48,-218.55 461.54,-214.86 467.01,-223.94 471.48,-218.55"/>
<text text-anchor="middle" x="533.11" y="-239.8" font-family="Times,serif" font-size="14.00">{c0, c2}</text>
</g>
<!-- 0&#45;&gt;1 -->
<g id="edge14" class="edge">
<title>0&#45;&gt;1</title>
<path fill="none" stroke="black" d="M574.97,-269.02C571.82,-258.18 566.21,-244.61 556.61,-236 536.17,-217.67 506.15,-208.94 482.48,-204.78"/>
<polygon fill="black" stroke="black" points="482.87,-201.3 472.45,-203.22 481.79,-208.21 482.87,-201.3"/>
<text text-anchor="middle" x="590.11" y="-239.8" font-family="Times,serif" font-size="14.00">{c1, c2}</text>
</g>
<!-- 2 -->
<g id="node4" class="node">
<title>2</title>
<ellipse fill="none" stroke="black" cx="591.61" cy="-22" rx="27" ry="18"/>
<text text-anchor="middle" x="591.61" y="-18.3" font-family="Times,serif" font-size="14.00">2</text>
</g>
<!-- 0&#45;&gt;2 -->
<g id="edge15" class="edge">
<title>0&#45;&gt;2</title>
<path fill="none" stroke="black" d="M597.81,-274.07C605.48,-268.17 613.46,-260.31 617.61,-251 648.03,-182.82 619.98,-92.28 602.76,-48.65"/>
<polygon fill="black" stroke="black" points="605.99,-47.28 598.97,-39.34 599.5,-49.93 605.99,-47.28"/>
<text text-anchor="middle" x="643.11" y="-152.8" font-family="Times,serif" font-size="14.00">{c0}</text>
</g>
<!-- 0&#45;&gt;2 -->
<g id="edge16" class="edge">
<title>0&#45;&gt;2</title>
<path fill="none" stroke="black" d="M600.88,-276.43C612.13,-270.57 625.16,-262.06 633.61,-251 658.19,-218.83 654.54,-204.03 660.61,-164 667.5,-118.58 635.4,-71.84 612.67,-45.21"/>
<polygon fill="black" stroke="black" points="615.21,-42.8 605.97,-37.62 609.96,-47.43 615.21,-42.8"/>
<text text-anchor="middle" x="674.11" y="-152.8" font-family="Times,serif" font-size="14.00">{c1}</text>
</g>
<!-- 0&#45;&gt;2 -->
<g id="edge17" class="edge">
<title>0&#45;&gt;2</title>
<path fill="none" stroke="black" d="M603,-278.8C618.45,-273.23 638,-264.22 651.61,-251 662.42,-240.49 691.11,-166.44 691.61,-164 701.59,-115.09 679.08,-98.1 644.61,-62 637.1,-54.13 627.84,-46.72 619.17,-40.51"/>
<polygon fill="black" stroke="black" points="621.01,-37.53 610.79,-34.73 617.04,-43.29 621.01,-37.53"/>
<text text-anchor="middle" x="717.11" y="-152.8" font-family="Times,serif" font-size="14.00">{c0, c1}</text>
</g>
<!-- 1&#45;&gt;1 -->
<g id="edge22" class="edge">
<title>1&#45;&gt;1</title>
<path fill="none" stroke="black" d="M470.14,-207.75C481.12,-208.49 490.61,-205.91 490.61,-200 490.61,-196.03 486.33,-193.56 480.19,-192.59"/>
<polygon fill="black" stroke="black" points="480.26,-189.09 470.14,-192.25 480.02,-196.09 480.26,-189.09"/>
<text text-anchor="middle" x="497.61" y="-196.3" font-family="Times,serif" font-size="14.00">{}</text>
</g>
<!-- 1&#45;&gt;2 -->
<g id="edge23" class="edge">
<title>1&#45;&gt;2</title>
<path fill="none" stroke="black" d="M444.52,-181.76C443.9,-160.24 445.3,-122.88 459.61,-95 469.38,-75.98 476.07,-72.65 494.61,-62 519.12,-47.92 529.66,-55.2 555.61,-44 558.29,-42.84 561.02,-41.53 563.71,-40.14"/>
<polygon fill="black" stroke="black" points="565.56,-43.12 572.63,-35.22 562.18,-36.99 565.56,-43.12"/>
<text text-anchor="middle" x="473.11" y="-109.3" font-family="Times,serif" font-size="14.00">{c0}</text>
</g>
<!-- 1&#45;&gt;2 -->
<g id="edge24" class="edge">
<title>1&#45;&gt;2</title>
<path fill="none" stroke="black" d="M456.25,-183.38C470.59,-162.62 497.26,-125.05 522.61,-95 537.49,-77.36 555.59,-58.56 569.51,-44.6"/>
<polygon fill="black" stroke="black" points="572.15,-46.92 576.77,-37.38 567.21,-41.95 572.15,-46.92"/>
<text text-anchor="middle" x="546.11" y="-109.3" font-family="Times,serif" font-size="14.00">{c0, c2}</text>
</g>
<!-- 1&#45;&gt;2 -->
<g id="edge25" class="edge">
<title>1&#45;&gt;2</title>
<path fill="none" stroke="black" d="M470.31,-192.35C498.84,-183.34 545,-164.4 569.61,-131 586.94,-107.49 591.42,-73.62 592.22,-50.11"/>
<polygon fill="black" stroke="black" points="595.72,-50.15 592.36,-40.11 588.72,-50.06 595.72,-50.15"/>
<text text-anchor="middle" x="599.11" y="-109.3" font-family="Times,serif" font-size="14.00">{c2}</text>
</g>
<!-- 3 -->
<g id="node5" class="node">
<title>3</title>
<ellipse fill="none" stroke="black" cx="243.61" cy="-113" rx="27" ry="18"/>
<text text-anchor="middle" x="243.61" y="-109.3" font-family="Times,serif" font-size="14.00">3</text>
</g>
<!-- 1&#45;&gt;3 -->
<g id="edge18" class="edge">
<title>1&#45;&gt;3</title>
<path fill="none" stroke="black" d="M418.59,-197.5C353.19,-193.61 190.59,-182.17 174.61,-164 160.19,-147.59 185.36,-133.48 209.25,-124.47"/>
<polygon fill="black" stroke="black" points="210.68,-127.68 218.94,-121.05 208.34,-121.08 210.68,-127.68"/>
<text text-anchor="middle" x="198.11" y="-152.8" font-family="Times,serif" font-size="14.00">{c1, c2}</text>
</g>
<!-- 1&#45;&gt;3 -->
<g id="edge19" class="edge">
<title>1&#45;&gt;3</title>
<path fill="none" stroke="black" d="M418.36,-198.37C368.75,-196.59 266.76,-189.81 244.61,-164 239.2,-157.7 237.7,-149.13 237.93,-140.86"/>
<polygon fill="black" stroke="black" points="241.43,-141.06 239,-130.75 234.47,-140.33 241.43,-141.06"/>
<text text-anchor="middle" x="278.11" y="-152.8" font-family="Times,serif" font-size="14.00">{c0, c1, c2}</text>
</g>
<!-- 1&#45;&gt;3 -->
<g id="edge20" class="edge">
<title>1&#45;&gt;3</title>
<path fill="none" stroke="black" d="M420.19,-193.09C397.2,-187.27 362.74,-177.3 334.61,-164 323.58,-158.78 322.16,-155.13 311.61,-149 299.56,-142 285.97,-134.85 274.12,-128.86"/>
<polygon fill="black" stroke="black" points="275.56,-125.67 265.05,-124.33 272.43,-131.93 275.56,-125.67"/>
<text text-anchor="middle" x="348.11" y="-152.8" font-family="Times,serif" font-size="14.00">{c1}</text>
</g>
<!-- 1&#45;&gt;3 -->
<g id="edge21" class="edge">
<title>1&#45;&gt;3</title>
<path fill="none" stroke="black" d="M425.39,-187.78C413.43,-181.05 398.04,-172.22 384.61,-164 374.2,-157.63 372.69,-154.12 361.61,-149 334.97,-136.68 302.94,-127.5 278.98,-121.64"/>
<polygon fill="black" stroke="black" points="279.78,-118.24 269.24,-119.34 278.17,-125.05 279.78,-118.24"/>
<text text-anchor="middle" x="408.11" y="-152.8" font-family="Times,serif" font-size="14.00">{c0, c1}</text>
</g>
<!-- 2&#45;&gt;2 -->
<g id="edge34" class="edge">
<title>2&#45;&gt;2</title>
<path fill="none" stroke="black" d="M618.85,-23.5C628.64,-23.53 636.61,-23.03 636.61,-22 636.61,-21.37 633.65,-20.94 629.12,-20.71"/>
<polygon fill="black" stroke="black" points="628.92,-17.2 618.85,-20.5 628.78,-24.2 628.92,-17.2"/>
<text text-anchor="middle" x="650.11" y="-18.3" font-family="Times,serif" font-size="14.00">{c0}</text>
</g>
<!-- 2&#45;&gt;2 -->
<g id="edge35" class="edge">
<title>2&#45;&gt;2</title>
<path fill="none" stroke="black" d="M618.36,-24.61C640.05,-25.59 663.61,-24.72 663.61,-22 663.61,-19.71 646.84,-18.73 628.57,-19.06"/>
<polygon fill="black" stroke="black" points="628.25,-15.57 618.36,-19.39 628.47,-22.57 628.25,-15.57"/>
<text text-anchor="middle" x="677.11" y="-18.3" font-family="Times,serif" font-size="14.00">{c1}</text>
</g>
<!-- 2&#45;&gt;2 -->
<g id="edge36" class="edge">
<title>2&#45;&gt;2</title>
<path fill="none" stroke="black" d="M618.47,-25.37C650.11,-27.62 690.61,-26.5 690.61,-22 690.61,-17.97 658.2,-16.65 628.72,-18.03"/>
<polygon fill="black" stroke="black" points="628.25,-14.55 618.47,-18.62 628.66,-21.54 628.25,-14.55"/>
<text text-anchor="middle" x="714.11" y="-18.3" font-family="Times,serif" font-size="14.00">{c0, c2}</text>
</g>
<!-- 2&#45;&gt;2 -->
<g id="edge37" class="edge">
<title>2&#45;&gt;2</title>
<path fill="none" stroke="black" d="M618.33,-25.74C664.09,-29.7 737.61,-28.45 737.61,-22 737.61,-16 674.06,-14.5 628.36,-17.5"/>
<polygon fill="black" stroke="black" points="628.04,-14.01 618.33,-18.26 628.57,-20.99 628.04,-14.01"/>
<text text-anchor="middle" x="761.11" y="-18.3" font-family="Times,serif" font-size="14.00">{c0, c1}</text>
</g>
<!-- 2&#45;&gt;2 -->
<g id="edge38" class="edge">
<title>2&#45;&gt;2</title>
<path fill="none" stroke="black" d="M618.09,-26.04C675.99,-31.74 784.61,-30.4 784.61,-22 784.61,-14.08 687.95,-12.43 628.39,-17.06"/>
<polygon fill="black" stroke="black" points="627.75,-13.61 618.09,-17.96 628.36,-20.58 627.75,-13.61"/>
<text text-anchor="middle" x="808.11" y="-18.3" font-family="Times,serif" font-size="14.00">{c1, c2}</text>
</g>
<!-- 2&#45;&gt;2 -->
<g id="edge39" class="edge">
<title>2&#45;&gt;2</title>
<path fill="none" stroke="black" d="M618.07,-26.3C686.94,-33.77 831.61,-32.34 831.61,-22 831.61,-12.15 700.19,-10.38 628.23,-16.71"/>
<polygon fill="black" stroke="black" points="627.68,-13.25 618.07,-17.7 628.36,-20.21 627.68,-13.25"/>
<text text-anchor="middle" x="838.61" y="-18.3" font-family="Times,serif" font-size="14.00">{}</text>
</g>
<!-- 2&#45;&gt;2 -->
<g id="edge40" class="edge">
<title>2&#45;&gt;2</title>
<path fill="none" stroke="black" d="M617.84,-26.66C691.83,-35.77 849.61,-34.22 849.61,-22 849.61,-10.3 705.1,-8.38 627.82,-16.23"/>
<polygon fill="black" stroke="black" points="627.38,-12.76 617.84,-17.34 628.16,-19.71 627.38,-12.76"/>
<text text-anchor="middle" x="863.11" y="-18.3" font-family="Times,serif" font-size="14.00">{c2}</text>
</g>
<!-- 2&#45;&gt;2 -->
<g id="edge41" class="edge">
<title>2&#45;&gt;2</title>
<path fill="none" stroke="black" d="M617.79,-26.93C698.52,-37.78 876.61,-36.14 876.61,-22 876.61,-8.43 712.5,-6.37 627.93,-15.83"/>
<polygon fill="black" stroke="black" points="627.29,-12.38 617.79,-17.07 628.14,-19.33 627.29,-12.38"/>
<text text-anchor="middle" x="910.11" y="-18.3" font-family="Times,serif" font-size="14.00">{c0, c1, c2}</text>
</g>
<!-- 3&#45;&gt;2 -->
<g id="edge31" class="edge">
<title>3&#45;&gt;2</title>
<path fill="none" stroke="black" d="M252.33,-95.42C259.37,-83.88 270.44,-69.29 284.61,-62 338.28,-34.39 497.9,-61.67 555.61,-44 558.63,-43.08 561.66,-41.86 564.62,-40.47"/>
<polygon fill="black" stroke="black" points="566.51,-43.43 573.69,-35.63 563.22,-37.25 566.51,-43.43"/>
<text text-anchor="middle" x="298.11" y="-65.8" font-family="Times,serif" font-size="14.00">{c1}</text>
</g>
<!-- 3&#45;&gt;2 -->
<g id="edge32" class="edge">
<title>3&#45;&gt;2</title>
<path fill="none" stroke="black" d="M265.05,-101.67C278.59,-94.98 296.34,-85.88 311.61,-77 322.16,-70.87 323.06,-65.95 334.61,-62 427.85,-30.11 461.6,-73.56 555.61,-44 558.62,-43.05 561.65,-41.82 564.6,-40.43"/>
<polygon fill="black" stroke="black" points="566.5,-43.38 573.67,-35.57 563.2,-37.21 566.5,-43.38"/>
<text text-anchor="middle" x="358.11" y="-65.8" font-family="Times,serif" font-size="14.00">{c1, c2}</text>
</g>
<!-- 3&#45;&gt;2 -->
<g id="edge33" class="edge">
<title>3&#45;&gt;2</title>
<path fill="none" stroke="black" d="M269.63,-108.04C298.01,-103.12 344.37,-93.32 381.61,-77 392.79,-72.1 393.14,-66.16 404.61,-62 468.14,-38.93 491.53,-65.48 555.61,-44 558.6,-43 561.62,-41.73 564.56,-40.31"/>
<polygon fill="black" stroke="black" points="566.48,-43.25 573.62,-35.43 563.16,-37.09 566.48,-43.25"/>
<text text-anchor="middle" x="418.11" y="-65.8" font-family="Times,serif" font-size="14.00">{c2}</text>
</g>
<!-- 3&#45;&gt;3 -->
<g id="edge26" class="edge">
<title>3&#45;&gt;3</title>
<path fill="none" stroke="black" d="M268.14,-120.75C279.12,-121.49 288.61,-118.91 288.61,-113 288.61,-109.03 284.33,-106.56 278.19,-105.59"/>
<polygon fill="black" stroke="black" points="278.26,-102.09 268.14,-105.25 278.02,-109.09 278.26,-102.09"/>
<text text-anchor="middle" x="295.61" y="-109.3" font-family="Times,serif" font-size="14.00">{}</text>
</g>
<!-- 4 -->
<g id="node6" class="node">
<title>4</title>
<ellipse fill="none" stroke="black" cx="77.61" cy="-22" rx="18" ry="18"/>
<ellipse fill="none" stroke="black" cx="77.61" cy="-22" rx="22" ry="22"/>
<text text-anchor="middle" x="77.61" y="-18.3" font-family="Times,serif" font-size="14.00">4</text>
</g>
<!-- 3&#45;&gt;4 -->
<g id="edge27" class="edge">
<title>3&#45;&gt;4</title>
<path fill="none" stroke="black" d="M216.55,-112.26C159.88,-112.17 31.76,-108.41 4.61,-77 -11.73,-58.09 20.16,-41.89 46.82,-32.3"/>
<polygon fill="black" stroke="black" points="47.96,-35.61 56.3,-29.07 45.71,-28.98 47.96,-35.61"/>
<text text-anchor="middle" x="38.11" y="-65.8" font-family="Times,serif" font-size="14.00">{c0, c1, c2}</text>
</g>
<!-- 3&#45;&gt;4 -->
<g id="edge28" class="edge">
<title>3&#45;&gt;4</title>
<path fill="none" stroke="black" d="M217.28,-108.96C179.42,-104.08 112.24,-93.36 94.61,-77 88.09,-70.94 84.05,-62.41 81.56,-53.92"/>
<polygon fill="black" stroke="black" points="84.96,-53.07 79.29,-44.11 78.14,-54.65 84.96,-53.07"/>
<text text-anchor="middle" x="108.11" y="-65.8" font-family="Times,serif" font-size="14.00">{c0}</text>
</g>
<!-- 3&#45;&gt;4 -->
<g id="edge29" class="edge">
<title>3&#45;&gt;4</title>
<path fill="none" stroke="black" d="M218.61,-105.71C197.98,-99.92 168.33,-90.24 144.61,-77 128.77,-68.16 112.89,-55.56 100.56,-44.75"/>
<polygon fill="black" stroke="black" points="102.79,-42.05 93.01,-37.97 98.11,-47.26 102.79,-42.05"/>
<text text-anchor="middle" x="168.11" y="-65.8" font-family="Times,serif" font-size="14.00">{c0, c2}</text>
</g>
<!-- 3&#45;&gt;4 -->
<g id="edge30" class="edge">
<title>3&#45;&gt;4</title>
<path fill="none" stroke="black" d="M230.89,-96.59C221.13,-85.63 206.79,-71.26 191.61,-62 165.79,-46.25 132.77,-35.85 108.91,-29.78"/>
<polygon fill="black" stroke="black" points="109.53,-26.33 98.98,-27.37 107.87,-33.13 109.53,-26.33"/>
<text text-anchor="middle" x="234.11" y="-65.8" font-family="Times,serif" font-size="14.00">{c0, c1}</text>
</g>
<!-- 4&#45;&gt;4 -->
<g id="edge2" class="edge">
<title>4&#45;&gt;4</title>
<path fill="none" stroke="black" d="M99.82,-23.48C109.41,-23.6 117.61,-23.11 117.61,-22 117.61,-21.32 114.56,-20.88 110.02,-20.66"/>
<polygon fill="black" stroke="black" points="109.87,-17.16 99.82,-20.52 109.77,-24.15 109.87,-17.16"/>
<text text-anchor="middle" x="131.11" y="-18.3" font-family="Times,serif" font-size="14.00">{c0}</text>
</g>
<!-- 4&#45;&gt;4 -->
<g id="edge3" class="edge">
<title>4&#45;&gt;4</title>
<path fill="none" stroke="black" d="M99.64,-24.47C120.52,-25.67 144.61,-24.84 144.61,-22 144.61,-19.62 127.78,-18.66 110.06,-19.11"/>
<polygon fill="black" stroke="black" points="109.49,-15.63 99.64,-19.53 109.78,-22.62 109.49,-15.63"/>
<text text-anchor="middle" x="178.11" y="-18.3" font-family="Times,serif" font-size="14.00">{c0, c1, c2}</text>
</g>
<!-- 4&#45;&gt;4 -->
<g id="edge4" class="edge">
<title>4&#45;&gt;4</title>
<path fill="none" stroke="black" d="M99.68,-24.76C140.22,-27.78 211.61,-26.86 211.61,-22 211.61,-17.52 150.94,-16.38 109.7,-18.6"/>
<polygon fill="black" stroke="black" points="109.44,-15.11 99.68,-19.24 109.88,-22.1 109.44,-15.11"/>
<text text-anchor="middle" x="235.11" y="-18.3" font-family="Times,serif" font-size="14.00">{c0, c1}</text>
</g>
<!-- 4&#45;&gt;4 -->
<g id="edge5" class="edge">
<title>4&#45;&gt;4</title>
<path fill="none" stroke="black" d="M99.58,-25.13C151.57,-29.81 258.61,-28.77 258.61,-22 258.61,-15.64 164.14,-14.34 109.59,-18.08"/>
<polygon fill="black" stroke="black" points="109.28,-14.6 99.58,-18.87 109.83,-21.57 109.28,-14.6"/>
<text text-anchor="middle" x="272.11" y="-18.3" font-family="Times,serif" font-size="14.00">{c2}</text>
</g>
<!-- 4&#45;&gt;4 -->
<g id="edge6" class="edge">
<title>4&#45;&gt;4</title>
<path fill="none" stroke="black" d="M99.62,-25.54C158.42,-31.81 285.61,-30.63 285.61,-22 285.61,-13.84 171.95,-12.34 109.85,-17.5"/>
<polygon fill="black" stroke="black" points="109.25,-14.04 99.62,-18.46 109.91,-21.01 109.25,-14.04"/>
<text text-anchor="middle" x="309.11" y="-18.3" font-family="Times,serif" font-size="14.00">{c0, c2}</text>
</g>
<!-- 4&#45;&gt;4 -->
<g id="edge7" class="edge">
<title>4&#45;&gt;4</title>
<path fill="none" stroke="black" d="M99.63,-25.78C168.38,-33.83 332.61,-32.57 332.61,-22 332.61,-11.93 183.41,-10.31 109.9,-17.15"/>
<polygon fill="black" stroke="black" points="109.21,-13.7 99.63,-18.22 109.93,-20.67 109.21,-13.7"/>
<text text-anchor="middle" x="339.61" y="-18.3" font-family="Times,serif" font-size="14.00">{}</text>
</g>
<!-- 4&#45;&gt;4 -->
<g id="edge8" class="edge">
<title>4&#45;&gt;4</title>
<path fill="none" stroke="black" d="M99.53,-26.09C173.2,-35.83 350.61,-34.47 350.61,-22 350.61,-10.07 188.11,-8.31 109.58,-16.71"/>
<polygon fill="black" stroke="black" points="109.05,-13.25 99.53,-17.91 109.88,-20.2 109.05,-13.25"/>
<text text-anchor="middle" x="364.11" y="-18.3" font-family="Times,serif" font-size="14.00">{c1}</text>
</g>
<!-- 4&#45;&gt;4 -->
<g id="edge9" class="edge">
<title>4&#45;&gt;4</title>
<path fill="none" stroke="black" d="M99.35,-26.3C179.26,-37.84 377.61,-36.41 377.61,-22 377.61,-8.17 194.82,-6.29 109.5,-16.37"/>
<polygon fill="black" stroke="black" points="108.82,-12.93 99.35,-17.7 109.72,-19.87 108.82,-12.93"/>
<text text-anchor="middle" x="401.11" y="-18.3" font-family="Times,serif" font-size="14.00">{c1, c2}</text>
</g>
</g>
</svg>
