<?xml version="1.0" encoding="UTF-8" standalone="no"?>
<!DOCTYPE svg PUBLIC "-//W3C//DTD SVG 1.1//EN"
 "http://www.w3.org/Graphics/SVG/1.1/DTD/svg11.dtd">
<!-- Generated by graphviz version 2.43.0 (0)
 -->
<!-- Title: %3 Pages: 1 -->
<svg width="586pt" height="473pt"
 viewBox="0.00 0.00 586.00 473.00" xmlns="http://www.w3.org/2000/svg" xmlns:xlink="http://www.w3.org/1999/xlink">
<g id="graph0" class="graph" transform="scale(1 1) rotate(0) translate(4 469)">
<title>%3</title>
<polygon fill="white" stroke="transparent" points="-4,4 -4,-469 582,-469 582,4 -4,4"/>
<!-- fake -->
<g id="node1" class="node">
<title>fake</title>
</g>
<!-- 0 -->
<g id="node6" class="node">
<title>0</title>
<ellipse fill="none" stroke="black" cx="304" cy="-374" rx="27" ry="18"/>
<text text-anchor="middle" x="304" y="-370.3" font-family="Times,serif" font-size="14.00">0</text>
</g>
<!-- fake&#45;&gt;0 -->
<g id="edge1" class="edge">
<title>fake&#45;&gt;0</title>
<path fill="none" stroke="black" stroke-width="2" d="M304,-428.81C304,-420.79 304,-411.05 304,-402.07"/>
<polygon fill="black" stroke="black" stroke-width="2" points="307.5,-402.03 304,-392.03 300.5,-402.03 307.5,-402.03"/>
</g>
<!-- 1 -->
<g id="node2" class="node">
<title>1</title>
<ellipse fill="none" stroke="black" cx="289" cy="-287" rx="27" ry="18"/>
<text text-anchor="middle" x="289" y="-283.3" font-family="Times,serif" font-size="14.00">1</text>
</g>
<!-- 1&#45;&gt;1 -->
<g id="edge6" class="edge">
<title>1&#45;&gt;1</title>
<path fill="none" stroke="black" d="M313.53,-294.75C324.51,-295.49 334,-292.91 334,-287 334,-283.03 329.72,-280.56 323.57,-279.59"/>
<polygon fill="black" stroke="black" points="323.65,-276.09 313.53,-279.25 323.41,-283.09 323.65,-276.09"/>
<text text-anchor="middle" x="341" y="-283.3" font-family="Times,serif" font-size="14.00">{}</text>
</g>
<!-- 2 -->
<g id="node4" class="node">
<title>2</title>
<ellipse fill="none" stroke="black" cx="384" cy="-200" rx="27" ry="18"/>
<text text-anchor="middle" x="384" y="-196.3" font-family="Times,serif" font-size="14.00">2</text>
</g>
<!-- 1&#45;&gt;2 -->
<g id="edge3" class="edge">
<title>1&#45;&gt;2</title>
<path fill="none" stroke="black" d="M303.98,-271.83C314.74,-261.72 329.63,-247.89 343,-236 348.45,-231.15 354.38,-226.01 360,-221.21"/>
<polygon fill="black" stroke="black" points="362.56,-223.63 367.9,-214.48 358.02,-218.3 362.56,-223.63"/>
<text text-anchor="middle" x="356.5" y="-239.8" font-family="Times,serif" font-size="14.00">{c2}</text>
</g>
<!-- 1&#45;&gt;0 -->
<g id="edge2" class="edge">
<title>1&#45;&gt;0</title>
<path fill="none" stroke="black" d="M314.3,-293.92C329.54,-298.93 347.73,-307.81 357,-323 365.67,-337.21 351.41,-350.03 335.51,-359.13"/>
<polygon fill="black" stroke="black" points="333.87,-356.04 326.65,-363.78 337.13,-362.23 333.87,-356.04"/>
<text text-anchor="middle" x="372.5" y="-326.8" font-family="Times,serif" font-size="14.00">{c0}</text>
</g>
<!-- 1&#45;&gt;0 -->
<g id="edge4" class="edge">
<title>1&#45;&gt;0</title>
<path fill="none" stroke="black" d="M267.44,-297.96C252.38,-305.41 234.24,-315.55 230,-323 226.7,-328.79 226.43,-332.37 230,-338 238.59,-351.56 254,-359.97 268.54,-365.13"/>
<polygon fill="black" stroke="black" points="267.79,-368.56 278.38,-368.21 269.88,-361.88 267.79,-368.56"/>
<text text-anchor="middle" x="243.5" y="-326.8" font-family="Times,serif" font-size="14.00">{c1}</text>
</g>
<!-- 1&#45;&gt;0 -->
<g id="edge5" class="edge">
<title>1&#45;&gt;0</title>
<path fill="none" stroke="black" d="M282.14,-304.45C278.98,-314.33 276.61,-327.05 280,-338 281.22,-341.93 283.04,-345.8 285.15,-349.46"/>
<polygon fill="black" stroke="black" points="282.38,-351.62 290.81,-358.03 288.22,-347.76 282.38,-351.62"/>
<text text-anchor="middle" x="293.5" y="-326.8" font-family="Times,serif" font-size="14.00">{c3}</text>
</g>
<!-- 4 -->
<g id="node3" class="node">
<title>4</title>
<ellipse fill="none" stroke="black" cx="126" cy="-22" rx="18" ry="18"/>
<ellipse fill="none" stroke="black" cx="126" cy="-22" rx="22" ry="22"/>
<text text-anchor="middle" x="126" y="-18.3" font-family="Times,serif" font-size="14.00">4</text>
</g>
<!-- 4&#45;&gt;4 -->
<g id="edge16" class="edge">
<title>4&#45;&gt;4</title>
<path fill="none" stroke="black" d="M146.58,-30.37C156.84,-31.53 166,-28.74 166,-22 166,-17.68 162.24,-14.99 156.84,-13.91"/>
<polygon fill="black" stroke="black" points="156.67,-10.41 146.58,-13.63 156.48,-17.4 156.67,-10.41"/>
<text text-anchor="middle" x="173" y="-18.3" font-family="Times,serif" font-size="14.00">{}</text>
</g>
<!-- 4&#45;&gt;0 -->
<g id="edge12" class="edge">
<title>4&#45;&gt;0</title>
<path fill="none" stroke="black" d="M104.63,-27.7C68.68,-36.99 0,-61.38 0,-112 0,-288 0,-288 0,-288 0,-319.11 21.2,-324.02 49,-338 86.46,-356.84 206.01,-366.86 267.18,-370.88"/>
<polygon fill="black" stroke="black" points="266.98,-374.37 277.18,-371.51 267.42,-367.38 266.98,-374.37"/>
<text text-anchor="middle" x="13.5" y="-196.3" font-family="Times,serif" font-size="14.00">{c0}</text>
</g>
<!-- 4&#45;&gt;0 -->
<g id="edge13" class="edge">
<title>4&#45;&gt;0</title>
<path fill="none" stroke="black" d="M108.78,-36.05C90.13,-51.81 63,-80.2 63,-112 63,-288 63,-288 63,-288 63,-319.11 84.52,-323.41 112,-338 161.18,-364.1 226.33,-371.11 266.68,-372.79"/>
<polygon fill="black" stroke="black" points="266.77,-376.3 276.88,-373.12 267,-369.3 266.77,-376.3"/>
<text text-anchor="middle" x="76.5" y="-196.3" font-family="Times,serif" font-size="14.00">{c2}</text>
</g>
<!-- 4&#45;&gt;0 -->
<g id="edge14" class="edge">
<title>4&#45;&gt;0</title>
<path fill="none" stroke="black" d="M126,-44.22C126,-62.25 126,-88.82 126,-112 126,-288 126,-288 126,-288 126,-349.83 214.55,-366.73 266.74,-371.32"/>
<polygon fill="black" stroke="black" points="266.73,-374.82 276.97,-372.1 267.26,-367.84 266.73,-374.82"/>
<text text-anchor="middle" x="139.5" y="-196.3" font-family="Times,serif" font-size="14.00">{c1}</text>
</g>
<!-- 4&#45;&gt;0 -->
<g id="edge15" class="edge">
<title>4&#45;&gt;0</title>
<path fill="none" stroke="black" d="M133.49,-42.72C135.71,-48.85 138.07,-55.67 140,-62 158.49,-122.51 167.74,-290.91 210,-338 224.76,-354.44 247.98,-363.19 267.65,-367.82"/>
<polygon fill="black" stroke="black" points="267.04,-371.27 277.55,-369.89 268.47,-364.42 267.04,-371.27"/>
<text text-anchor="middle" x="181.5" y="-196.3" font-family="Times,serif" font-size="14.00">{c3}</text>
</g>
<!-- 2&#45;&gt;2 -->
<g id="edge11" class="edge">
<title>2&#45;&gt;2</title>
<path fill="none" stroke="black" d="M408.53,-207.75C419.51,-208.49 429,-205.91 429,-200 429,-196.03 424.72,-193.56 418.57,-192.59"/>
<polygon fill="black" stroke="black" points="418.65,-189.09 408.53,-192.25 418.41,-196.09 418.65,-189.09"/>
<text text-anchor="middle" x="436" y="-196.3" font-family="Times,serif" font-size="14.00">{}</text>
</g>
<!-- 3 -->
<g id="node5" class="node">
<title>3</title>
<ellipse fill="none" stroke="black" cx="496" cy="-113" rx="27" ry="18"/>
<text text-anchor="middle" x="496" y="-109.3" font-family="Times,serif" font-size="14.00">3</text>
</g>
<!-- 2&#45;&gt;3 -->
<g id="edge9" class="edge">
<title>2&#45;&gt;3</title>
<path fill="none" stroke="black" d="M401.5,-185.72C419.99,-171.68 449.34,-149.41 470.43,-133.41"/>
<polygon fill="black" stroke="black" points="472.77,-136.02 478.62,-127.19 468.54,-130.45 472.77,-136.02"/>
<text text-anchor="middle" x="459.5" y="-152.8" font-family="Times,serif" font-size="14.00">{c1}</text>
</g>
<!-- 2&#45;&gt;0 -->
<g id="edge7" class="edge">
<title>2&#45;&gt;0</title>
<path fill="none" stroke="black" d="M387.2,-218.09C392.85,-250.4 402.86,-318.89 390,-338 378.97,-354.4 358.77,-363.12 340.73,-367.75"/>
<polygon fill="black" stroke="black" points="339.71,-364.39 330.71,-369.98 341.24,-371.23 339.71,-364.39"/>
<text text-anchor="middle" x="409.5" y="-283.3" font-family="Times,serif" font-size="14.00">{c0}</text>
</g>
<!-- 2&#45;&gt;0 -->
<g id="edge8" class="edge">
<title>2&#45;&gt;0</title>
<path fill="none" stroke="black" d="M396.42,-216.07C406.33,-229.16 419.46,-249.08 425,-269 429.29,-284.41 429.13,-289.54 425,-305 420.63,-321.35 419.06,-327.23 406,-338 387.25,-353.45 361.3,-362.23 340.27,-367.14"/>
<polygon fill="black" stroke="black" points="339.44,-363.73 330.39,-369.24 340.9,-370.58 339.44,-363.73"/>
<text text-anchor="middle" x="441.5" y="-283.3" font-family="Times,serif" font-size="14.00">{c2}</text>
</g>
<!-- 2&#45;&gt;0 -->
<g id="edge10" class="edge">
<title>2&#45;&gt;0</title>
<path fill="none" stroke="black" d="M357.41,-203.96C320.94,-209.57 256.45,-225.43 226,-269 201.11,-304.61 214.89,-325.65 223,-338 232.96,-353.16 251.04,-361.78 267.6,-366.67"/>
<polygon fill="black" stroke="black" points="267.06,-370.15 277.62,-369.26 268.81,-363.37 267.06,-370.15"/>
<text text-anchor="middle" x="239.5" y="-283.3" font-family="Times,serif" font-size="14.00">{c3}</text>
</g>
<!-- 3&#45;&gt;4 -->
<g id="edge17" class="edge">
<title>3&#45;&gt;4</title>
<path fill="none" stroke="black" d="M470.86,-105.95C405.28,-90.18 229.15,-47.81 157.23,-30.51"/>
<polygon fill="black" stroke="black" points="157.94,-27.08 147.4,-28.15 156.31,-33.89 157.94,-27.08"/>
<text text-anchor="middle" x="357.5" y="-65.8" font-family="Times,serif" font-size="14.00">{c0}</text>
</g>
<!-- 3&#45;&gt;3 -->
<g id="edge21" class="edge">
<title>3&#45;&gt;3</title>
<path fill="none" stroke="black" d="M520.53,-120.75C531.51,-121.49 541,-118.91 541,-113 541,-109.03 536.72,-106.56 530.57,-105.59"/>
<polygon fill="black" stroke="black" points="530.65,-102.09 520.53,-105.25 530.41,-109.09 530.65,-102.09"/>
<text text-anchor="middle" x="548" y="-109.3" font-family="Times,serif" font-size="14.00">{}</text>
</g>
<!-- 3&#45;&gt;0 -->
<g id="edge18" class="edge">
<title>3&#45;&gt;0</title>
<path fill="none" stroke="black" d="M495.97,-131.19C495.22,-166.05 489.98,-246.69 459,-305 436.38,-347.58 379.08,-363.51 340.85,-369.46"/>
<polygon fill="black" stroke="black" points="340.04,-366.04 330.62,-370.89 341.01,-372.98 340.04,-366.04"/>
<text text-anchor="middle" x="496.5" y="-239.8" font-family="Times,serif" font-size="14.00">{c2}</text>
</g>
<!-- 3&#45;&gt;0 -->
<g id="edge19" class="edge">
<title>3&#45;&gt;0</title>
<path fill="none" stroke="black" d="M502.53,-130.78C511.74,-156.94 526.17,-208.82 514,-251 506.14,-278.25 496.97,-282.28 480,-305 468.32,-320.64 467.73,-327.93 451,-338 417.07,-358.42 372.05,-366.93 340.81,-370.47"/>
<polygon fill="black" stroke="black" points="340.38,-367 330.78,-371.49 341.09,-373.96 340.38,-367"/>
<text text-anchor="middle" x="530.5" y="-239.8" font-family="Times,serif" font-size="14.00">{c1}</text>
</g>
<!-- 3&#45;&gt;0 -->
<g id="edge20" class="edge">
<title>3&#45;&gt;0</title>
<path fill="none" stroke="black" d="M510,-128.74C515.01,-134.66 520.32,-141.79 524,-149 552.18,-204.2 558.3,-220.41 548,-251 531.71,-299.38 518.11,-314.09 473,-338 431.19,-360.16 376.66,-368.3 341.01,-371.28"/>
<polygon fill="black" stroke="black" points="340.74,-367.79 331.03,-372.02 341.26,-374.77 340.74,-367.79"/>
<text text-anchor="middle" x="564.5" y="-239.8" font-family="Times,serif" font-size="14.00">{c3}</text>
</g>
<!-- 0&#45;&gt;1 -->
<g id="edge25" class="edge">
<title>0&#45;&gt;1</title>
<path fill="none" stroke="black" d="M307.46,-356.11C308.87,-346.32 309.62,-333.82 307,-323 306.17,-319.58 304.95,-316.11 303.52,-312.76"/>
<polygon fill="black" stroke="black" points="306.65,-311.2 299.12,-303.75 300.36,-314.27 306.65,-311.2"/>
<text text-anchor="middle" x="321.5" y="-326.8" font-family="Times,serif" font-size="14.00">{c3}</text>
</g>
<!-- 0&#45;&gt;0 -->
<g id="edge22" class="edge">
<title>0&#45;&gt;0</title>
<path fill="none" stroke="black" d="M331.24,-375.69C341.02,-375.72 349,-375.16 349,-374 349,-373.29 346.04,-372.81 341.51,-372.55"/>
<polygon fill="black" stroke="black" points="341.32,-369.04 331.24,-372.31 341.16,-376.04 341.32,-369.04"/>
<text text-anchor="middle" x="362.5" y="-370.3" font-family="Times,serif" font-size="14.00">{c0}</text>
</g>
<!-- 0&#45;&gt;0 -->
<g id="edge23" class="edge">
<title>0&#45;&gt;0</title>
<path fill="none" stroke="black" d="M330.75,-376.94C352.44,-378.04 376,-377.06 376,-374 376,-371.42 359.23,-370.32 340.96,-370.7"/>
<polygon fill="black" stroke="black" points="340.62,-367.21 330.75,-371.06 340.87,-374.2 340.62,-367.21"/>
<text text-anchor="middle" x="389.5" y="-370.3" font-family="Times,serif" font-size="14.00">{c2}</text>
</g>
<!-- 0&#45;&gt;0 -->
<g id="edge24" class="edge">
<title>0&#45;&gt;0</title>
<path fill="none" stroke="black" d="M330.86,-377.8C362.5,-380.33 403,-379.06 403,-374 403,-369.47 370.59,-367.98 341.11,-369.53"/>
<polygon fill="black" stroke="black" points="340.61,-366.05 330.86,-370.2 341.07,-373.04 340.61,-366.05"/>
<text text-anchor="middle" x="416.5" y="-370.3" font-family="Times,serif" font-size="14.00">{c1}</text>
</g>
<!-- 0&#45;&gt;0 -->
<g id="edge26" class="edge">
<title>0&#45;&gt;0</title>
<path fill="none" stroke="black" d="M330.25,-378.37C370.94,-382.63 430,-381.17 430,-374 430,-367.4 380.02,-365.64 340.34,-368.72"/>
<polygon fill="black" stroke="black" points="339.9,-365.24 330.25,-369.63 340.53,-372.21 339.9,-365.24"/>
<text text-anchor="middle" x="437" y="-370.3" font-family="Times,serif" font-size="14.00">{}</text>
</g>
</g>
</svg>
