<?xml version="1.0" encoding="UTF-8" standalone="no"?>
<!DOCTYPE svg PUBLIC "-//W3C//DTD SVG 1.1//EN"
 "http://www.w3.org/Graphics/SVG/1.1/DTD/svg11.dtd">
<!-- Generated by graphviz version 2.43.0 (0)
 -->
<!-- Title: %3 Pages: 1 -->
<svg width="2536pt" height="475pt"
 viewBox="0.00 0.00 2536.48 475.44" xmlns="http://www.w3.org/2000/svg" xmlns:xlink="http://www.w3.org/1999/xlink">
<g id="graph0" class="graph" transform="scale(1 1) rotate(0) translate(4 471.44)">
<title>%3</title>
<polygon fill="white" stroke="transparent" points="-4,4 -4,-471.44 2532.48,-471.44 2532.48,4 -4,4"/>
<!-- fake -->
<g id="node1" class="node">
<title>fake</title>
</g>
<!-- 0 -->
<g id="node2" class="node">
<title>0</title>
<ellipse fill="none" stroke="black" cx="1871.48" cy="-376.44" rx="27" ry="18"/>
<text text-anchor="middle" x="1871.48" y="-372.74" font-family="Times,serif" font-size="14.00">0</text>
</g>
<!-- fake&#45;&gt;0 -->
<g id="edge1" class="edge">
<title>fake&#45;&gt;0</title>
<path fill="none" stroke="black" stroke-width="2" d="M1871.48,-431.25C1871.48,-423.23 1871.48,-413.49 1871.48,-404.51"/>
<polygon fill="black" stroke="black" stroke-width="2" points="1874.98,-404.47 1871.48,-394.47 1867.98,-404.47 1874.98,-404.47"/>
</g>
<!-- 0&#45;&gt;0 -->
<g id="edge82" class="edge">
<title>0&#45;&gt;0</title>
<path fill="none" stroke="black" d="M1896.93,-383.13C1907.51,-383.59 1916.48,-381.36 1916.48,-376.44 1916.48,-373.21 1912.62,-371.14 1906.97,-370.23"/>
<polygon fill="black" stroke="black" points="1907.08,-366.73 1896.93,-369.75 1906.75,-373.72 1907.08,-366.73"/>
<text text-anchor="middle" x="1923.48" y="-372.74" font-family="Times,serif" font-size="14.00">{}</text>
</g>
<!-- 1 -->
<g id="node3" class="node">
<title>1</title>
<ellipse fill="none" stroke="black" cx="1506.48" cy="-289.44" rx="27" ry="18"/>
<text text-anchor="middle" x="1506.48" y="-285.74" font-family="Times,serif" font-size="14.00">1</text>
</g>
<!-- 0&#45;&gt;1 -->
<g id="edge83" class="edge">
<title>0&#45;&gt;1</title>
<path fill="none" stroke="black" d="M1844.44,-374.86C1731.33,-372.29 1301.03,-361.19 1281.48,-340.44 1276.91,-335.59 1277.15,-330.5 1281.48,-325.44 1305.21,-297.74 1411.62,-291.79 1469.2,-290.62"/>
<polygon fill="black" stroke="black" points="1469.41,-294.12 1479.35,-290.46 1469.3,-287.12 1469.41,-294.12"/>
<text text-anchor="middle" x="1304.98" y="-329.24" font-family="Times,serif" font-size="14.00">{c1, c3}</text>
</g>
<!-- 0&#45;&gt;1 -->
<g id="edge84" class="edge">
<title>0&#45;&gt;1</title>
<path fill="none" stroke="black" d="M1844.16,-375.73C1741.81,-376.52 1385.32,-376.63 1351.48,-340.44 1315.67,-302.14 1413.09,-293.09 1469.5,-291.01"/>
<polygon fill="black" stroke="black" points="1469.63,-294.51 1479.52,-290.7 1469.41,-287.51 1469.63,-294.51"/>
<text text-anchor="middle" x="1374.98" y="-329.24" font-family="Times,serif" font-size="14.00">{c2, c3}</text>
</g>
<!-- 0&#45;&gt;1 -->
<g id="edge85" class="edge">
<title>0&#45;&gt;1</title>
<path fill="none" stroke="black" d="M1844.39,-375.42C1751.52,-375.07 1450.25,-371.54 1421.48,-340.44 1402.97,-320.43 1440.39,-305.96 1471.31,-297.89"/>
<polygon fill="black" stroke="black" points="1472.17,-301.28 1481.05,-295.5 1470.5,-294.49 1472.17,-301.28"/>
<text text-anchor="middle" x="1454.98" y="-329.24" font-family="Times,serif" font-size="14.00">{c0, c1, c3}</text>
</g>
<!-- 0&#45;&gt;1 -->
<g id="edge86" class="edge">
<title>0&#45;&gt;1</title>
<path fill="none" stroke="black" d="M1844.48,-374.75C1764.83,-372.46 1534.97,-363.86 1511.48,-340.44 1505.58,-334.55 1503.38,-326.08 1502.96,-317.79"/>
<polygon fill="black" stroke="black" points="1506.46,-317.66 1503.21,-307.58 1499.46,-317.49 1506.46,-317.66"/>
<text text-anchor="middle" x="1544.98" y="-329.24" font-family="Times,serif" font-size="14.00">{c0, c2, c3}</text>
</g>
<!-- 0&#45;&gt;1 -->
<g id="edge87" class="edge">
<title>0&#45;&gt;1</title>
<path fill="none" stroke="black" d="M1844.48,-375.86C1794.79,-375.79 1686.18,-371.69 1601.48,-340.44 1590.03,-336.22 1589.1,-331.45 1578.48,-325.44 1565.38,-318.02 1550.46,-310.61 1537.62,-304.53"/>
<polygon fill="black" stroke="black" points="1538.81,-301.22 1528.27,-300.16 1535.85,-307.57 1538.81,-301.22"/>
<text text-anchor="middle" x="1624.98" y="-329.24" font-family="Times,serif" font-size="14.00">{c0, c3}</text>
</g>
<!-- 0&#45;&gt;1 -->
<g id="edge88" class="edge">
<title>0&#45;&gt;1</title>
<path fill="none" stroke="black" d="M1844.68,-374.17C1805.41,-371.56 1730.51,-363.72 1671.48,-340.44 1660.13,-335.96 1659.68,-330.3 1648.48,-325.44 1614.16,-310.53 1572.28,-301.19 1542.93,-295.94"/>
<polygon fill="black" stroke="black" points="1543.17,-292.43 1532.72,-294.19 1541.99,-299.33 1543.17,-292.43"/>
<text text-anchor="middle" x="1704.98" y="-329.24" font-family="Times,serif" font-size="14.00">{c1, c2, c3}</text>
</g>
<!-- 0&#45;&gt;1 -->
<g id="edge89" class="edge">
<title>0&#45;&gt;1</title>
<path fill="none" stroke="black" d="M1846.29,-369.5C1823.51,-363.65 1789.37,-353.67 1761.48,-340.44 1750.46,-335.21 1749.89,-329.78 1738.48,-325.44 1672.83,-300.44 1590.35,-293.24 1543.51,-291.2"/>
<polygon fill="black" stroke="black" points="1543.64,-287.71 1533.51,-290.83 1543.37,-294.7 1543.64,-287.71"/>
<text text-anchor="middle" x="1805.48" y="-329.24" font-family="Times,serif" font-size="14.00">{c0, c1, c2, c3}</text>
</g>
<!-- 0&#45;&gt;1 -->
<g id="edge90" class="edge">
<title>0&#45;&gt;1</title>
<path fill="none" stroke="black" d="M1868.52,-358.27C1865.63,-347.07 1860.07,-333.14 1849.48,-325.44 1801.58,-290.59 1622.69,-288.71 1544.02,-289.65"/>
<polygon fill="black" stroke="black" points="1543.55,-286.15 1533.6,-289.8 1543.65,-293.15 1543.55,-286.15"/>
<text text-anchor="middle" x="1874.98" y="-329.24" font-family="Times,serif" font-size="14.00">{c3}</text>
</g>
<!-- 2 -->
<g id="node4" class="node">
<title>2</title>
<ellipse fill="none" stroke="black" cx="1453.48" cy="-24.44" rx="27" ry="18"/>
<text text-anchor="middle" x="1453.48" y="-20.74" font-family="Times,serif" font-size="14.00">2</text>
</g>
<!-- 0&#45;&gt;2 -->
<g id="edge91" class="edge">
<title>0&#45;&gt;2</title>
<path fill="none" stroke="black" d="M1883.27,-359.9C1886.97,-354.1 1890.59,-347.27 1892.48,-340.44 1894.26,-334.02 1894.02,-331.93 1892.48,-325.44 1865.27,-210.16 1847.91,-170.25 1754.48,-97.44 1675.56,-35.94 1552.18,-25.81 1490.78,-24.86"/>
<polygon fill="black" stroke="black" points="1490.8,-21.36 1480.77,-24.78 1490.74,-28.36 1490.8,-21.36"/>
<text text-anchor="middle" x="1873.98" y="-198.74" font-family="Times,serif" font-size="14.00">{c2}</text>
</g>
<!-- 0&#45;&gt;2 -->
<g id="edge92" class="edge">
<title>0&#45;&gt;2</title>
<path fill="none" stroke="black" d="M1890.61,-363.6C1911.34,-349.13 1941.48,-322.56 1941.48,-290.44 1941.48,-290.44 1941.48,-290.44 1941.48,-114.44 1941.48,-68.61 1604.11,-37.47 1490.39,-28.27"/>
<polygon fill="black" stroke="black" points="1490.66,-24.78 1480.42,-27.47 1490.11,-31.76 1490.66,-24.78"/>
<text text-anchor="middle" x="1974.98" y="-198.74" font-family="Times,serif" font-size="14.00">{c0, c1, c2}</text>
</g>
<!-- 0&#45;&gt;2 -->
<g id="edge93" class="edge">
<title>0&#45;&gt;2</title>
<path fill="none" stroke="black" d="M1898.51,-374.21C1947.17,-370.38 2044.48,-354.69 2044.48,-290.44 2044.48,-290.44 2044.48,-290.44 2044.48,-114.44 2044.48,-58.18 1620.22,-33.36 1490.63,-27.1"/>
<polygon fill="black" stroke="black" points="1490.57,-23.59 1480.41,-26.61 1490.24,-30.58 1490.57,-23.59"/>
<text text-anchor="middle" x="2067.98" y="-198.74" font-family="Times,serif" font-size="14.00">{c0, c2}</text>
</g>
<!-- 0&#45;&gt;2 -->
<g id="edge94" class="edge">
<title>0&#45;&gt;2</title>
<path fill="none" stroke="black" d="M1897.92,-372.38C1963.32,-364.07 2127.48,-338.44 2127.48,-290.44 2127.48,-290.44 2127.48,-290.44 2127.48,-114.44 2127.48,-49.74 1632.94,-30.58 1491.09,-26.42"/>
<polygon fill="black" stroke="black" points="1490.84,-22.91 1480.74,-26.12 1490.64,-29.9 1490.84,-22.91"/>
<text text-anchor="middle" x="2140.98" y="-198.74" font-family="Times,serif" font-size="14.00">{c1}</text>
</g>
<!-- 0&#45;&gt;2 -->
<g id="edge95" class="edge">
<title>0&#45;&gt;2</title>
<path fill="none" stroke="black" d="M1898.41,-374.04C1975.31,-369.31 2190.48,-350.69 2190.48,-290.44 2190.48,-290.44 2190.48,-290.44 2190.48,-114.44 2190.48,-43.17 1640.28,-28.62 1490.66,-25.98"/>
<polygon fill="black" stroke="black" points="1490.65,-22.48 1480.59,-25.81 1490.53,-29.48 1490.65,-22.48"/>
<text text-anchor="middle" x="2213.98" y="-198.74" font-family="Times,serif" font-size="14.00">{c1, c2}</text>
</g>
<!-- 0&#45;&gt;2 -->
<g id="edge96" class="edge">
<title>0&#45;&gt;2</title>
<path fill="none" stroke="black" d="M1898.48,-375.5C1988.62,-374.99 2273.48,-367.3 2273.48,-290.44 2273.48,-290.44 2273.48,-290.44 2273.48,-114.44 2273.48,-34.65 1651.94,-26.34 1491.11,-25.52"/>
<polygon fill="black" stroke="black" points="1490.78,-22.02 1480.77,-25.47 1490.75,-29.02 1490.78,-22.02"/>
<text text-anchor="middle" x="2296.98" y="-198.74" font-family="Times,serif" font-size="14.00">{c0, c1}</text>
</g>
<!-- 0&#45;&gt;2 -->
<g id="edge97" class="edge">
<title>0&#45;&gt;2</title>
<path fill="none" stroke="black" d="M1898.54,-376.05C1961.26,-376.78 2120.91,-374.8 2248.48,-340.44 2299.56,-326.69 2356.48,-343.34 2356.48,-290.44 2356.48,-290.44 2356.48,-290.44 2356.48,-114.44 2356.48,-25.96 1660.91,-24.24 1490.72,-25.14"/>
<polygon fill="black" stroke="black" points="1490.49,-21.64 1480.51,-25.2 1490.53,-28.64 1490.49,-21.64"/>
<text text-anchor="middle" x="2369.98" y="-198.74" font-family="Times,serif" font-size="14.00">{c0}</text>
</g>
<!-- 1&#45;&gt;1 -->
<g id="edge22" class="edge">
<title>1&#45;&gt;1</title>
<path fill="none" stroke="black" d="M1531.02,-297.19C1541.99,-297.93 1551.48,-295.35 1551.48,-289.44 1551.48,-285.47 1547.2,-283 1541.06,-282.04"/>
<polygon fill="black" stroke="black" points="1541.13,-278.54 1531.02,-281.69 1540.89,-285.53 1541.13,-278.54"/>
<text text-anchor="middle" x="1558.48" y="-285.74" font-family="Times,serif" font-size="14.00">{}</text>
</g>
<!-- 1&#45;&gt;2 -->
<g id="edge27" class="edge">
<title>1&#45;&gt;2</title>
<path fill="none" stroke="black" d="M1502.32,-271.62C1499.76,-261.84 1496.26,-249.34 1492.48,-238.44 1481.12,-205.69 1469.28,-200.43 1462.48,-166.44 1461.18,-159.9 1458.84,-157.02 1462.48,-151.44 1473.37,-134.78 1492.6,-150.1 1503.48,-133.44 1512.23,-120.05 1508.27,-112.71 1503.48,-97.44 1497.68,-78.92 1485.25,-60.98 1474.24,-47.65"/>
<polygon fill="black" stroke="black" points="1476.81,-45.27 1467.64,-39.97 1471.5,-49.83 1476.81,-45.27"/>
<text text-anchor="middle" x="1485.98" y="-155.24" font-family="Times,serif" font-size="14.00">{c0, c3}</text>
</g>
<!-- 1&#45;&gt;2 -->
<g id="edge28" class="edge">
<title>1&#45;&gt;2</title>
<path fill="none" stroke="black" d="M1510.89,-271.61C1518.98,-238.06 1534.17,-160.64 1520.48,-97.44 1517.07,-81.7 1515.58,-77 1505.48,-64.44 1498.8,-56.13 1489.97,-48.64 1481.48,-42.5"/>
<polygon fill="black" stroke="black" points="1483.43,-39.59 1473.2,-36.82 1479.47,-45.36 1483.43,-39.59"/>
<text text-anchor="middle" x="1538.98" y="-155.24" font-family="Times,serif" font-size="14.00">{c1}</text>
</g>
<!-- 1&#45;&gt;2 -->
<g id="edge29" class="edge">
<title>1&#45;&gt;2</title>
<path fill="none" stroke="black" d="M1518.07,-272.91C1535.28,-248.01 1564.7,-197.3 1556.48,-151.44 1549.19,-110.74 1550.72,-95.56 1523.48,-64.44 1513.46,-52.98 1499.21,-44.2 1486.18,-37.89"/>
<polygon fill="black" stroke="black" points="1487.55,-34.66 1476.99,-33.73 1484.66,-41.04 1487.55,-34.66"/>
<text text-anchor="middle" x="1580.98" y="-155.24" font-family="Times,serif" font-size="14.00">{c1, c3}</text>
</g>
<!-- 1&#45;&gt;2 -->
<g id="edge30" class="edge">
<title>1&#45;&gt;2</title>
<path fill="none" stroke="black" d="M1526.09,-276.98C1560.53,-255.22 1626.59,-205.26 1608.48,-151.44 1593.01,-105.44 1580.6,-94.48 1542.48,-64.44 1526.31,-51.7 1505.33,-42.24 1487.8,-35.83"/>
<polygon fill="black" stroke="black" points="1488.54,-32.38 1477.94,-32.41 1486.24,-39 1488.54,-32.38"/>
<text text-anchor="middle" x="1633.98" y="-155.24" font-family="Times,serif" font-size="14.00">{c0, c1}</text>
</g>
<!-- 1&#45;&gt;2 -->
<g id="edge31" class="edge">
<title>1&#45;&gt;2</title>
<path fill="none" stroke="black" d="M1530.31,-280.85C1580.4,-263.46 1689.72,-217.1 1661.48,-151.44 1631.28,-81.23 1539.78,-47.31 1488.78,-33.47"/>
<polygon fill="black" stroke="black" points="1489.41,-30.01 1478.85,-30.89 1487.65,-36.79 1489.41,-30.01"/>
<text text-anchor="middle" x="1677.98" y="-155.24" font-family="Times,serif" font-size="14.00">{c0}</text>
</g>
<!-- 1&#45;&gt;2 -->
<g id="edge32" class="edge">
<title>1&#45;&gt;2</title>
<path fill="none" stroke="black" d="M1531.94,-282.98C1589.74,-269.15 1723.77,-228.26 1695.48,-151.44 1664.91,-68.41 1550.12,-39.47 1490.28,-29.88"/>
<polygon fill="black" stroke="black" points="1490.54,-26.38 1480.13,-28.36 1489.5,-33.31 1490.54,-26.38"/>
<text text-anchor="middle" x="1731.98" y="-155.24" font-family="Times,serif" font-size="14.00">{c0, c1, c3}</text>
</g>
<!-- 1&#45;&gt;2 -->
<g id="edge33" class="edge">
<title>1&#45;&gt;2</title>
<path fill="none" stroke="black" d="M1533.1,-286.04C1609.62,-277.96 1821.48,-246.67 1769.48,-151.44 1714.7,-51.1 1562.11,-30.46 1490.93,-26.36"/>
<polygon fill="black" stroke="black" points="1490.8,-22.85 1480.64,-25.86 1490.45,-29.85 1490.8,-22.85"/>
<text text-anchor="middle" x="1787.98" y="-155.24" font-family="Times,serif" font-size="14.00">{c3}</text>
</g>
<!-- 3 -->
<g id="node5" class="node">
<title>3</title>
<ellipse fill="none" stroke="black" cx="1028.48" cy="-202.44" rx="27" ry="18"/>
<text text-anchor="middle" x="1028.48" y="-198.74" font-family="Times,serif" font-size="14.00">3</text>
</g>
<!-- 1&#45;&gt;3 -->
<g id="edge18" class="edge">
<title>1&#45;&gt;3</title>
<path fill="none" stroke="black" d="M1479.53,-287.97C1361.56,-285.78 895.58,-275.74 874.48,-253.44 838.82,-215.75 934.67,-206.42 990.91,-204.14"/>
<polygon fill="black" stroke="black" points="991.37,-207.63 1001.24,-203.79 991.13,-200.63 991.37,-207.63"/>
<text text-anchor="middle" x="897.98" y="-242.24" font-family="Times,serif" font-size="14.00">{c1, c2}</text>
</g>
<!-- 1&#45;&gt;3 -->
<g id="edge19" class="edge">
<title>1&#45;&gt;3</title>
<path fill="none" stroke="black" d="M1479.25,-287.77C1369.29,-284.93 963,-273.14 944.48,-253.44 926.11,-233.88 962.48,-219.41 992.98,-211.2"/>
<polygon fill="black" stroke="black" points="994.17,-214.51 1003.01,-208.66 992.46,-207.72 994.17,-214.51"/>
<text text-anchor="middle" x="957.98" y="-242.24" font-family="Times,serif" font-size="14.00">{c2}</text>
</g>
<!-- 1&#45;&gt;3 -->
<g id="edge20" class="edge">
<title>1&#45;&gt;3</title>
<path fill="none" stroke="black" d="M1479.23,-288.7C1378,-289.36 1027.74,-289.05 994.48,-253.44 985.78,-244.12 993,-232.38 1002.98,-222.62"/>
<polygon fill="black" stroke="black" points="1005.38,-225.17 1010.56,-215.93 1000.75,-219.93 1005.38,-225.17"/>
<text text-anchor="middle" x="1017.98" y="-242.24" font-family="Times,serif" font-size="14.00">{c2, c3}</text>
</g>
<!-- 1&#45;&gt;3 -->
<g id="edge21" class="edge">
<title>1&#45;&gt;3</title>
<path fill="none" stroke="black" d="M1479.51,-287.62C1389.13,-284.68 1100.62,-273.79 1064.48,-253.44 1054.45,-247.79 1046.5,-238.06 1040.64,-228.67"/>
<polygon fill="black" stroke="black" points="1043.65,-226.89 1035.67,-219.92 1037.56,-230.35 1043.65,-226.89"/>
<text text-anchor="middle" x="1097.98" y="-242.24" font-family="Times,serif" font-size="14.00">{c0, c2, c3}</text>
</g>
<!-- 1&#45;&gt;3 -->
<g id="edge23" class="edge">
<title>1&#45;&gt;3</title>
<path fill="none" stroke="black" d="M1479.58,-287.42C1408.05,-284.43 1214.51,-274.57 1154.48,-253.44 1142.97,-249.39 1142.46,-243.78 1131.48,-238.44 1109.54,-227.77 1083.52,-218.96 1063.12,-212.84"/>
<polygon fill="black" stroke="black" points="1063.89,-209.42 1053.31,-209.98 1061.93,-216.14 1063.89,-209.42"/>
<text text-anchor="middle" x="1187.98" y="-242.24" font-family="Times,serif" font-size="14.00">{c1, c2, c3}</text>
</g>
<!-- 1&#45;&gt;3 -->
<g id="edge24" class="edge">
<title>1&#45;&gt;3</title>
<path fill="none" stroke="black" d="M1479.13,-288.71C1430.4,-288.34 1326.01,-283.7 1244.48,-253.44 1233.04,-249.2 1232.82,-242.95 1221.48,-238.44 1169.64,-217.81 1105.09,-209.25 1065.34,-205.76"/>
<polygon fill="black" stroke="black" points="1065.56,-202.27 1055.31,-204.94 1064.99,-209.25 1065.56,-202.27"/>
<text text-anchor="middle" x="1267.98" y="-242.24" font-family="Times,serif" font-size="14.00">{c0, c2}</text>
</g>
<!-- 1&#45;&gt;3 -->
<g id="edge25" class="edge">
<title>1&#45;&gt;3</title>
<path fill="none" stroke="black" d="M1479.48,-286.89C1441.45,-283.96 1370.51,-275.76 1314.48,-253.44 1303.15,-248.92 1302.93,-242.68 1291.48,-238.44 1214.71,-209.97 1117.76,-204.16 1065.66,-203.27"/>
<polygon fill="black" stroke="black" points="1065.59,-199.77 1055.55,-203.15 1065.51,-206.77 1065.59,-199.77"/>
<text text-anchor="middle" x="1347.98" y="-242.24" font-family="Times,serif" font-size="14.00">{c0, c1, c2}</text>
</g>
<!-- 1&#45;&gt;3 -->
<g id="edge26" class="edge">
<title>1&#45;&gt;3</title>
<path fill="none" stroke="black" d="M1481.9,-281.87C1460.81,-275.79 1429.89,-265.85 1404.48,-253.44 1393.52,-248.09 1393,-242.49 1381.48,-238.44 1323.99,-218.21 1144.37,-208.34 1065.85,-204.9"/>
<polygon fill="black" stroke="black" points="1065.6,-201.39 1055.46,-204.46 1065.3,-208.38 1065.6,-201.39"/>
<text text-anchor="middle" x="1448.48" y="-242.24" font-family="Times,serif" font-size="14.00">{c0, c1, c2, c3}</text>
</g>
<!-- 2&#45;&gt;2 -->
<g id="edge66" class="edge">
<title>2&#45;&gt;2</title>
<path fill="none" stroke="black" d="M1480.72,-25.94C1490.51,-25.97 1498.48,-25.47 1498.48,-24.44 1498.48,-23.81 1495.52,-23.38 1490.99,-23.15"/>
<polygon fill="black" stroke="black" points="1490.79,-19.64 1480.72,-22.94 1490.65,-26.64 1490.79,-19.64"/>
<text text-anchor="middle" x="1511.98" y="-20.74" font-family="Times,serif" font-size="14.00">{c2}</text>
</g>
<!-- 2&#45;&gt;2 -->
<g id="edge67" class="edge">
<title>2&#45;&gt;2</title>
<path fill="none" stroke="black" d="M1480.24,-27.05C1501.92,-28.03 1525.48,-27.16 1525.48,-24.44 1525.48,-22.15 1508.71,-21.17 1490.44,-21.51"/>
<polygon fill="black" stroke="black" points="1490.12,-18.01 1480.24,-21.83 1490.34,-25.01 1490.12,-18.01"/>
<text text-anchor="middle" x="1558.98" y="-20.74" font-family="Times,serif" font-size="14.00">{c0, c1, c2}</text>
</g>
<!-- 2&#45;&gt;2 -->
<g id="edge68" class="edge">
<title>2&#45;&gt;2</title>
<path fill="none" stroke="black" d="M1480.38,-27.46C1523.09,-30.17 1592.48,-29.16 1592.48,-24.44 1592.48,-20.08 1533.26,-18.89 1490.57,-20.87"/>
<polygon fill="black" stroke="black" points="1490.18,-17.39 1480.38,-21.43 1490.56,-24.38 1490.18,-17.39"/>
<text text-anchor="middle" x="1625.98" y="-20.74" font-family="Times,serif" font-size="14.00">{c1, c2, c3}</text>
</g>
<!-- 2&#45;&gt;2 -->
<g id="edge69" class="edge">
<title>2&#45;&gt;2</title>
<path fill="none" stroke="black" d="M1480.06,-27.76C1539.16,-32.22 1659.48,-31.11 1659.48,-24.44 1659.48,-18.13 1551.96,-16.8 1490.28,-20.44"/>
<polygon fill="black" stroke="black" points="1489.81,-16.96 1480.06,-21.12 1490.27,-23.95 1489.81,-16.96"/>
<text text-anchor="middle" x="1682.98" y="-20.74" font-family="Times,serif" font-size="14.00">{c2, c3}</text>
</g>
<!-- 2&#45;&gt;2 -->
<g id="edge70" class="edge">
<title>2&#45;&gt;2</title>
<path fill="none" stroke="black" d="M1480.19,-28.15C1549.87,-34.23 1706.48,-33 1706.48,-24.44 1706.48,-16.29 1564.21,-14.78 1490.53,-19.93"/>
<polygon fill="black" stroke="black" points="1489.88,-16.47 1480.19,-20.73 1490.43,-23.44 1489.88,-16.47"/>
<text text-anchor="middle" x="1750.48" y="-20.74" font-family="Times,serif" font-size="14.00">{c0, c1, c2, c3}</text>
</g>
<!-- 2&#45;&gt;2 -->
<g id="edge71" class="edge">
<title>2&#45;&gt;2</title>
<path fill="none" stroke="black" d="M1479.9,-28.27C1565.83,-36.27 1794.48,-34.99 1794.48,-24.44 1794.48,-14.29 1582.49,-12.72 1490.04,-19.76"/>
<polygon fill="black" stroke="black" points="1489.57,-16.29 1479.9,-20.61 1490.16,-23.26 1489.57,-16.29"/>
<text text-anchor="middle" x="1817.98" y="-20.74" font-family="Times,serif" font-size="14.00">{c0, c2}</text>
</g>
<!-- 2&#45;&gt;2 -->
<g id="edge72" class="edge">
<title>2&#45;&gt;2</title>
<path fill="none" stroke="black" d="M1479.98,-28.56C1574.76,-38.27 1841.48,-36.9 1841.48,-24.44 1841.48,-12.4 1592.17,-10.72 1489.97,-19.39"/>
<polygon fill="black" stroke="black" points="1489.61,-15.91 1479.98,-20.32 1490.26,-22.88 1489.61,-15.91"/>
<text text-anchor="middle" x="1864.98" y="-20.74" font-family="Times,serif" font-size="14.00">{c0, c3}</text>
</g>
<!-- 2&#45;&gt;2 -->
<g id="edge73" class="edge">
<title>2&#45;&gt;2</title>
<path fill="none" stroke="black" d="M1479.72,-28.78C1582.7,-40.28 1888.48,-38.83 1888.48,-24.44 1888.48,-10.5 1601.51,-8.71 1489.95,-19.06"/>
<polygon fill="black" stroke="black" points="1489.31,-15.61 1479.72,-20.1 1490.02,-22.57 1489.31,-15.61"/>
<text text-anchor="middle" x="1901.98" y="-20.74" font-family="Times,serif" font-size="14.00">{c1}</text>
</g>
<!-- 2&#45;&gt;2 -->
<g id="edge74" class="edge">
<title>2&#45;&gt;2</title>
<path fill="none" stroke="black" d="M1479.81,-29.07C1588.49,-42.28 1915.48,-40.74 1915.48,-24.44 1915.48,-8.62 1607.37,-6.71 1489.91,-18.69"/>
<polygon fill="black" stroke="black" points="1489.36,-15.23 1479.81,-19.81 1490.13,-22.18 1489.36,-15.23"/>
<text text-anchor="middle" x="1938.98" y="-20.74" font-family="Times,serif" font-size="14.00">{c1, c3}</text>
</g>
<!-- 2&#45;&gt;2 -->
<g id="edge75" class="edge">
<title>2&#45;&gt;2</title>
<path fill="none" stroke="black" d="M1479.72,-29.25C1596.43,-44.29 1962.48,-42.68 1962.48,-24.44 1962.48,-6.7 1616.17,-4.7 1489.84,-18.44"/>
<polygon fill="black" stroke="black" points="1489.24,-14.98 1479.72,-19.63 1490.07,-21.93 1489.24,-14.98"/>
<text text-anchor="middle" x="1985.98" y="-20.74" font-family="Times,serif" font-size="14.00">{c1, c2}</text>
</g>
<!-- 2&#45;&gt;2 -->
<g id="edge76" class="edge">
<title>2&#45;&gt;2</title>
<path fill="none" stroke="black" d="M1479.65,-29.41C1604.16,-46.29 2009.48,-44.64 2009.48,-24.44 2009.48,-4.76 1624.48,-2.69 1489.66,-18.22"/>
<polygon fill="black" stroke="black" points="1489.14,-14.76 1479.65,-19.47 1490,-21.71 1489.14,-14.76"/>
<text text-anchor="middle" x="2032.98" y="-20.74" font-family="Times,serif" font-size="14.00">{c0, c1}</text>
</g>
<!-- 2&#45;&gt;2 -->
<g id="edge77" class="edge">
<title>2&#45;&gt;2</title>
<path fill="none" stroke="black" d="M1479.66,-29.57C1611.92,-48.3 2056.48,-46.59 2056.48,-24.44 2056.48,-2.83 1633.36,-0.68 1489.9,-17.98"/>
<polygon fill="black" stroke="black" points="1489.13,-14.55 1479.66,-19.32 1490.03,-21.49 1489.13,-14.55"/>
<text text-anchor="middle" x="2063.48" y="-20.74" font-family="Times,serif" font-size="14.00">{}</text>
</g>
<!-- 2&#45;&gt;2 -->
<g id="edge78" class="edge">
<title>2&#45;&gt;2</title>
<path fill="none" stroke="black" d="M1479.41,-29.74C1615.84,-50.3 2074.48,-48.54 2074.48,-24.44 2074.48,-0.91 1637.09,1.32 1489.52,-17.74"/>
<polygon fill="black" stroke="black" points="1488.83,-14.3 1479.41,-19.15 1489.8,-21.23 1488.83,-14.3"/>
<text text-anchor="middle" x="2087.98" y="-20.74" font-family="Times,serif" font-size="14.00">{c0}</text>
</g>
<!-- 2&#45;&gt;2 -->
<g id="edge79" class="edge">
<title>2&#45;&gt;2</title>
<path fill="none" stroke="black" d="M1479.6,-29.93C1621.79,-52.3 2101.48,-50.47 2101.48,-24.44 2101.48,1.01 1643.09,3.33 1489.68,-17.48"/>
<polygon fill="black" stroke="black" points="1488.99,-14.04 1479.6,-18.95 1490,-20.97 1488.99,-14.04"/>
<text text-anchor="middle" x="2134.98" y="-20.74" font-family="Times,serif" font-size="14.00">{c0, c1, c3}</text>
</g>
<!-- 2&#45;&gt;2 -->
<g id="edge80" class="edge">
<title>2&#45;&gt;2</title>
<path fill="none" stroke="black" d="M1479.24,-29.94C1630.46,-54.31 2168.48,-52.48 2168.48,-24.44 2168.48,2.99 1653.33,5.34 1489.51,-17.4"/>
<polygon fill="black" stroke="black" points="1488.61,-14 1479.24,-18.94 1489.65,-20.92 1488.61,-14"/>
<text text-anchor="middle" x="2181.98" y="-20.74" font-family="Times,serif" font-size="14.00">{c3}</text>
</g>
<!-- 2&#45;&gt;2 -->
<g id="edge81" class="edge">
<title>2&#45;&gt;2</title>
<path fill="none" stroke="black" d="M1479.61,-30.15C1636.79,-56.31 2195.48,-54.41 2195.48,-24.44 2195.48,4.93 1658.93,7.34 1489.53,-17.2"/>
<polygon fill="black" stroke="black" points="1488.96,-13.74 1479.61,-18.73 1490.03,-20.66 1488.96,-13.74"/>
<text text-anchor="middle" x="2228.98" y="-20.74" font-family="Times,serif" font-size="14.00">{c0, c2, c3}</text>
</g>
<!-- 3&#45;&gt;2 -->
<g id="edge11" class="edge">
<title>3&#45;&gt;2</title>
<path fill="none" stroke="black" d="M1024.77,-184.45C1022.37,-174.61 1018.87,-162.11 1014.48,-151.44 1011,-142.98 1006.78,-142.3 1004.48,-133.44 1000.47,-117.95 994.72,-110.12 1004.48,-97.44 1023.55,-72.67 1043.4,-90.9 1072.48,-79.44 1085.62,-74.27 1086.91,-68.32 1100.48,-64.44 1219.11,-30.54 1255.83,-66.98 1377.48,-46.44 1391.68,-44.04 1407.04,-40.07 1420.21,-36.22"/>
<polygon fill="black" stroke="black" points="1421.24,-39.57 1429.8,-33.33 1419.22,-32.87 1421.24,-39.57"/>
<text text-anchor="middle" x="1017.98" y="-111.74" font-family="Times,serif" font-size="14.00">{c2}</text>
</g>
<!-- 3&#45;&gt;2 -->
<g id="edge12" class="edge">
<title>3&#45;&gt;2</title>
<path fill="none" stroke="black" d="M1031.15,-184.51C1035.4,-162.29 1045.59,-123.12 1067.48,-97.44 1069.89,-94.62 1121.94,-65.52 1125.48,-64.44 1232.94,-31.87 1266.83,-65.49 1377.48,-46.44 1391.67,-44 1407.03,-40.02 1420.21,-36.18"/>
<polygon fill="black" stroke="black" points="1421.23,-39.52 1429.8,-33.29 1419.21,-32.82 1421.23,-39.52"/>
<text text-anchor="middle" x="1090.98" y="-111.74" font-family="Times,serif" font-size="14.00">{c2, c3}</text>
</g>
<!-- 3&#45;&gt;2 -->
<g id="edge13" class="edge">
<title>3&#45;&gt;2</title>
<path fill="none" stroke="black" d="M1046.1,-188.47C1063.83,-175.19 1091.73,-153.69 1114.48,-133.44 1131.39,-118.4 1132.65,-111.37 1150.48,-97.44 1172.95,-79.9 1178.44,-73.47 1205.48,-64.44 1278.39,-40.09 1301.96,-60.73 1377.48,-46.44 1391.63,-43.77 1406.98,-39.74 1420.16,-35.93"/>
<polygon fill="black" stroke="black" points="1421.17,-39.29 1429.76,-33.09 1419.18,-32.57 1421.17,-39.29"/>
<text text-anchor="middle" x="1173.98" y="-111.74" font-family="Times,serif" font-size="14.00">{c0, c2}</text>
</g>
<!-- 3&#45;&gt;2 -->
<g id="edge14" class="edge">
<title>3&#45;&gt;2</title>
<path fill="none" stroke="black" d="M1053.2,-194.91C1087.51,-185.11 1150.65,-164.39 1197.48,-133.44 1216.36,-120.97 1215.65,-111.37 1233.48,-97.44 1255.95,-79.9 1261.91,-74.75 1288.48,-64.44 1326.11,-49.85 1338.23,-55.82 1377.48,-46.44 1391.25,-43.15 1406.28,-39.1 1419.33,-35.43"/>
<polygon fill="black" stroke="black" points="1420.63,-38.69 1429.29,-32.59 1418.72,-31.96 1420.63,-38.69"/>
<text text-anchor="middle" x="1256.98" y="-111.74" font-family="Times,serif" font-size="14.00">{c0, c3}</text>
</g>
<!-- 3&#45;&gt;2 -->
<g id="edge15" class="edge">
<title>3&#45;&gt;2</title>
<path fill="none" stroke="black" d="M1053.79,-195.21C1081.33,-188.38 1126.63,-176.98 1165.48,-166.44 1216.8,-152.53 1234.67,-160.43 1280.48,-133.44 1299.98,-121.96 1300.25,-113.2 1316.48,-97.44 1331.82,-82.55 1333.38,-75.81 1351.48,-64.44 1372.46,-51.27 1398.58,-41.39 1419.14,-34.87"/>
<polygon fill="black" stroke="black" points="1420.2,-38.2 1428.74,-31.94 1418.16,-31.51 1420.2,-38.2"/>
<text text-anchor="middle" x="1329.98" y="-111.74" font-family="Times,serif" font-size="14.00">{c0}</text>
</g>
<!-- 3&#45;&gt;2 -->
<g id="edge16" class="edge">
<title>3&#45;&gt;2</title>
<path fill="none" stroke="black" d="M1055.72,-200.99C1112.85,-198.94 1247.83,-188.19 1343.48,-133.44 1363.12,-122.2 1363.37,-113.33 1379.48,-97.44 1396.87,-80.29 1416.71,-61 1431.47,-46.71"/>
<polygon fill="black" stroke="black" points="1433.93,-49.2 1438.68,-39.73 1429.06,-44.17 1433.93,-49.2"/>
<text text-anchor="middle" x="1392.98" y="-111.74" font-family="Times,serif" font-size="14.00">{c3}</text>
</g>
<!-- 3&#45;&gt;2 -->
<g id="edge17" class="edge">
<title>3&#45;&gt;2</title>
<path fill="none" stroke="black" d="M1055.39,-200.19C1132.86,-196.04 1354.3,-180.24 1406.48,-133.44 1430.09,-112.27 1442.34,-77.13 1448.33,-52.7"/>
<polygon fill="black" stroke="black" points="1451.82,-53.17 1450.6,-42.64 1444.99,-51.63 1451.82,-53.17"/>
<text text-anchor="middle" x="1465.98" y="-111.74" font-family="Times,serif" font-size="14.00">{c0, c2, c3}</text>
</g>
<!-- 3&#45;&gt;3 -->
<g id="edge7" class="edge">
<title>3&#45;&gt;3</title>
<path fill="none" stroke="black" d="M1053.02,-210.19C1063.99,-210.93 1073.48,-208.35 1073.48,-202.44 1073.48,-198.47 1069.2,-196 1063.06,-195.04"/>
<polygon fill="black" stroke="black" points="1063.13,-191.54 1053.02,-194.69 1062.89,-198.53 1063.13,-191.54"/>
<text text-anchor="middle" x="1080.48" y="-198.74" font-family="Times,serif" font-size="14.00">{}</text>
</g>
<!-- 4 -->
<g id="node6" class="node">
<title>4</title>
<ellipse fill="none" stroke="black" cx="605.48" cy="-115.44" rx="27" ry="18"/>
<text text-anchor="middle" x="605.48" y="-111.74" font-family="Times,serif" font-size="14.00">4</text>
</g>
<!-- 3&#45;&gt;4 -->
<g id="edge2" class="edge">
<title>3&#45;&gt;4</title>
<path fill="none" stroke="black" d="M1001.53,-200.97C883.56,-198.78 417.58,-188.74 396.48,-166.44 391.9,-161.6 392.18,-156.53 396.48,-151.44 418.04,-125.97 513.99,-119.02 568.08,-117.14"/>
<polygon fill="black" stroke="black" points="568.42,-120.63 578.31,-116.82 568.2,-113.63 568.42,-120.63"/>
<text text-anchor="middle" x="429.98" y="-155.24" font-family="Times,serif" font-size="14.00">{c0, c1, c3}</text>
</g>
<!-- 3&#45;&gt;4 -->
<g id="edge3" class="edge">
<title>3&#45;&gt;4</title>
<path fill="none" stroke="black" d="M1001.45,-201.8C896.74,-202.93 521.95,-204.28 486.48,-166.44 459.81,-137.99 524.41,-125.11 568.5,-119.79"/>
<polygon fill="black" stroke="black" points="569.11,-123.24 578.66,-118.65 568.33,-116.28 569.11,-123.24"/>
<text text-anchor="middle" x="509.98" y="-155.24" font-family="Times,serif" font-size="14.00">{c1, c2}</text>
</g>
<!-- 3&#45;&gt;4 -->
<g id="edge4" class="edge">
<title>3&#45;&gt;4</title>
<path fill="none" stroke="black" d="M1001.4,-201.53C905.6,-201.55 586.85,-199.14 556.48,-166.44 545.39,-154.49 559.38,-141.34 575.21,-131.52"/>
<polygon fill="black" stroke="black" points="577.12,-134.46 584.05,-126.44 573.63,-128.39 577.12,-134.46"/>
<text text-anchor="middle" x="569.98" y="-155.24" font-family="Times,serif" font-size="14.00">{c1}</text>
</g>
<!-- 3&#45;&gt;4 -->
<g id="edge5" class="edge">
<title>3&#45;&gt;4</title>
<path fill="none" stroke="black" d="M1001.25,-201.25C912.15,-200.34 633.5,-195.21 606.48,-166.44 600.8,-160.39 599.22,-151.88 599.48,-143.6"/>
<polygon fill="black" stroke="black" points="602.98,-143.75 600.61,-133.43 596.02,-142.98 602.98,-143.75"/>
<text text-anchor="middle" x="629.98" y="-155.24" font-family="Times,serif" font-size="14.00">{c1, c3}</text>
</g>
<!-- 3&#45;&gt;4 -->
<g id="edge6" class="edge">
<title>3&#45;&gt;4</title>
<path fill="none" stroke="black" d="M1001.54,-200.53C929.9,-197.84 736.12,-188.64 676.48,-166.44 673.87,-165.47 650.52,-148.89 631.3,-135.09"/>
<polygon fill="black" stroke="black" points="633.28,-132.2 623.12,-129.2 629.19,-137.88 633.28,-132.2"/>
<text text-anchor="middle" x="709.98" y="-155.24" font-family="Times,serif" font-size="14.00">{c1, c2, c3}</text>
</g>
<!-- 3&#45;&gt;4 -->
<g id="edge8" class="edge">
<title>3&#45;&gt;4</title>
<path fill="none" stroke="black" d="M1001.13,-201.71C952.4,-201.34 848.01,-196.7 766.48,-166.44 755.04,-162.2 754.66,-156.34 743.48,-151.44 710.32,-136.9 669.92,-127.54 641.42,-122.19"/>
<polygon fill="black" stroke="black" points="641.96,-118.73 631.5,-120.4 640.72,-125.62 641.96,-118.73"/>
<text text-anchor="middle" x="789.98" y="-155.24" font-family="Times,serif" font-size="14.00">{c0, c1}</text>
</g>
<!-- 3&#45;&gt;4 -->
<g id="edge9" class="edge">
<title>3&#45;&gt;4</title>
<path fill="none" stroke="black" d="M1001.48,-199.89C963.45,-196.96 892.51,-188.76 836.48,-166.44 825.15,-161.92 824.85,-155.88 813.48,-151.44 756.41,-129.15 685.09,-121.05 642.52,-118.11"/>
<polygon fill="black" stroke="black" points="642.55,-114.6 632.35,-117.47 642.11,-121.59 642.55,-114.6"/>
<text text-anchor="middle" x="880.48" y="-155.24" font-family="Times,serif" font-size="14.00">{c0, c1, c2, c3}</text>
</g>
<!-- 3&#45;&gt;4 -->
<g id="edge10" class="edge">
<title>3&#45;&gt;4</title>
<path fill="none" stroke="black" d="M1005.65,-192.79C989.15,-186.24 966.51,-176.66 947.48,-166.44 936.73,-160.67 935.97,-155.55 924.48,-151.44 873.36,-133.15 715.16,-122.42 642.57,-118.34"/>
<polygon fill="black" stroke="black" points="642.68,-114.85 632.51,-117.79 642.3,-121.83 642.68,-114.85"/>
<text text-anchor="middle" x="980.98" y="-155.24" font-family="Times,serif" font-size="14.00">{c0, c1, c2}</text>
</g>
<!-- 4&#45;&gt;2 -->
<g id="edge59" class="edge">
<title>4&#45;&gt;2</title>
<path fill="none" stroke="black" d="M613.52,-98.19C620.28,-86.48 631.14,-71.55 645.48,-64.44 681.93,-46.37 1337.24,-52.4 1377.48,-46.44 1391.73,-44.33 1407.1,-40.41 1420.26,-36.52"/>
<polygon fill="black" stroke="black" points="1421.31,-39.86 1429.84,-33.59 1419.26,-33.17 1421.31,-39.86"/>
<text text-anchor="middle" x="658.98" y="-68.24" font-family="Times,serif" font-size="14.00">{c2}</text>
</g>
<!-- 4&#45;&gt;2 -->
<g id="edge60" class="edge">
<title>4&#45;&gt;2</title>
<path fill="none" stroke="black" d="M626.59,-104.07C639.92,-97.36 657.42,-88.26 672.48,-79.44 683.02,-73.28 683.83,-68.07 695.48,-64.44 767.85,-41.88 1302.51,-57.62 1377.48,-46.44 1391.72,-44.32 1407.09,-40.39 1420.26,-36.51"/>
<polygon fill="black" stroke="black" points="1421.31,-39.85 1429.84,-33.57 1419.26,-33.16 1421.31,-39.85"/>
<text text-anchor="middle" x="728.98" y="-68.24" font-family="Times,serif" font-size="14.00">{c1, c2, c3}</text>
</g>
<!-- 4&#45;&gt;2 -->
<g id="edge61" class="edge">
<title>4&#45;&gt;2</title>
<path fill="none" stroke="black" d="M631.92,-111.48C663.85,-107.26 718.73,-97.87 762.48,-79.44 773.73,-74.7 773.84,-68.1 785.48,-64.44 911.06,-25.02 1247.34,-66.11 1377.48,-46.44 1391.72,-44.29 1407.09,-40.36 1420.26,-36.48"/>
<polygon fill="black" stroke="black" points="1421.3,-39.82 1429.84,-33.55 1419.25,-33.13 1421.3,-39.82"/>
<text text-anchor="middle" x="808.98" y="-68.24" font-family="Times,serif" font-size="14.00">{c2, c3}</text>
</g>
<!-- 4&#45;&gt;2 -->
<g id="edge62" class="edge">
<title>4&#45;&gt;2</title>
<path fill="none" stroke="black" d="M632.63,-113.93C676.19,-112.31 763.77,-105.73 832.48,-79.44 843.88,-75.08 843.85,-68.12 855.48,-64.44 966.15,-29.46 1262.75,-64.02 1377.48,-46.44 1391.72,-44.26 1407.08,-40.33 1420.25,-36.45"/>
<polygon fill="black" stroke="black" points="1421.29,-39.79 1429.84,-33.52 1419.25,-33.09 1421.29,-39.79"/>
<text text-anchor="middle" x="868.98" y="-68.24" font-family="Times,serif" font-size="14.00">{c1}</text>
</g>
<!-- 4&#45;&gt;2 -->
<g id="edge63" class="edge">
<title>4&#45;&gt;2</title>
<path fill="none" stroke="black" d="M632.78,-114.99C683.57,-115.14 795.34,-111.43 882.48,-79.44 893.94,-75.24 893.85,-68.14 905.48,-64.44 1005.51,-32.62 1273.76,-62.53 1377.48,-46.44 1391.71,-44.23 1407.08,-40.3 1420.25,-36.42"/>
<polygon fill="black" stroke="black" points="1421.29,-39.76 1429.83,-33.5 1419.25,-33.07 1421.29,-39.76"/>
<text text-anchor="middle" x="928.98" y="-68.24" font-family="Times,serif" font-size="14.00">{c1, c3}</text>
</g>
<!-- 4&#45;&gt;2 -->
<g id="edge64" class="edge">
<title>4&#45;&gt;2</title>
<path fill="none" stroke="black" d="M632.52,-113.37C703.44,-110.28 893.46,-100.27 952.48,-79.44 963.99,-75.38 963.87,-68.18 975.48,-64.44 1060.61,-37.05 1289.16,-60.44 1377.48,-46.44 1391.7,-44.19 1407.07,-40.24 1420.24,-36.37"/>
<polygon fill="black" stroke="black" points="1421.28,-39.72 1429.83,-33.46 1419.24,-33.02 1421.28,-39.72"/>
<text text-anchor="middle" x="998.98" y="-68.24" font-family="Times,serif" font-size="14.00">{c1, c2}</text>
</g>
<!-- 4&#45;&gt;2 -->
<g id="edge65" class="edge">
<title>4&#45;&gt;2</title>
<path fill="none" stroke="black" d="M632.6,-113.89C713.16,-111.99 949.91,-104.37 1022.48,-79.44 1034.03,-75.48 1033.88,-68.23 1045.48,-64.44 1115.71,-41.48 1304.56,-58.35 1377.48,-46.44 1391.69,-44.12 1407.06,-40.16 1420.23,-36.3"/>
<polygon fill="black" stroke="black" points="1421.26,-39.65 1429.82,-33.4 1419.23,-32.95 1421.26,-39.65"/>
<text text-anchor="middle" x="1058.98" y="-68.24" font-family="Times,serif" font-size="14.00">{c3}</text>
</g>
<!-- 4&#45;&gt;4 -->
<g id="edge55" class="edge">
<title>4&#45;&gt;4</title>
<path fill="none" stroke="black" d="M630.02,-123.19C640.99,-123.93 650.48,-121.35 650.48,-115.44 650.48,-111.47 646.2,-109 640.06,-108.04"/>
<polygon fill="black" stroke="black" points="640.13,-104.54 630.02,-107.69 639.89,-111.53 640.13,-104.54"/>
<text text-anchor="middle" x="657.48" y="-111.74" font-family="Times,serif" font-size="14.00">{}</text>
</g>
<!-- 5 -->
<g id="node7" class="node">
<title>5</title>
<ellipse fill="none" stroke="black" cx="298.48" cy="-24.44" rx="18" ry="18"/>
<ellipse fill="none" stroke="black" cx="298.48" cy="-24.44" rx="22" ry="22"/>
<text text-anchor="middle" x="298.48" y="-20.74" font-family="Times,serif" font-size="14.00">5</text>
</g>
<!-- 4&#45;&gt;5 -->
<g id="edge50" class="edge">
<title>4&#45;&gt;5</title>
<path fill="none" stroke="black" d="M578.33,-113.89C463.7,-111.41 24.43,-100.59 4.48,-79.44 -32.36,-40.39 182.45,-29.19 266.16,-26.33"/>
<polygon fill="black" stroke="black" points="266.49,-29.82 276.38,-26 266.27,-22.82 266.49,-29.82"/>
<text text-anchor="middle" x="37.98" y="-68.24" font-family="Times,serif" font-size="14.00">{c0, c1, c2}</text>
</g>
<!-- 4&#45;&gt;5 -->
<g id="edge51" class="edge">
<title>4&#45;&gt;5</title>
<path fill="none" stroke="black" d="M578.28,-114.69C477.25,-115.34 127.67,-114.98 94.48,-79.44 89.93,-74.57 90.23,-69.58 94.48,-64.44 115.93,-38.51 214.54,-29.66 266.4,-26.77"/>
<polygon fill="black" stroke="black" points="266.6,-30.26 276.41,-26.25 266.24,-23.27 266.6,-30.26"/>
<text text-anchor="middle" x="107.98" y="-68.24" font-family="Times,serif" font-size="14.00">{c0}</text>
</g>
<!-- 4&#45;&gt;5 -->
<g id="edge52" class="edge">
<title>4&#45;&gt;5</title>
<path fill="none" stroke="black" d="M578.38,-114.47C484.03,-114.31 174.05,-111.34 144.48,-79.44 107.75,-39.82 211.21,-29.26 266.37,-26.45"/>
<polygon fill="black" stroke="black" points="266.55,-29.95 276.39,-26 266.24,-22.96 266.55,-29.95"/>
<text text-anchor="middle" x="177.98" y="-68.24" font-family="Times,serif" font-size="14.00">{c0, c1, c3}</text>
</g>
<!-- 4&#45;&gt;5 -->
<g id="edge53" class="edge">
<title>4&#45;&gt;5</title>
<path fill="none" stroke="black" d="M578.42,-113.94C496.85,-112.16 257.56,-104.8 234.48,-79.44 219.52,-63 245.27,-46.93 268.44,-36.66"/>
<polygon fill="black" stroke="black" points="269.88,-39.85 277.75,-32.76 267.17,-33.39 269.88,-39.85"/>
<text text-anchor="middle" x="267.98" y="-68.24" font-family="Times,serif" font-size="14.00">{c0, c2, c3}</text>
</g>
<!-- 4&#45;&gt;5 -->
<g id="edge54" class="edge">
<title>4&#45;&gt;5</title>
<path fill="none" stroke="black" d="M578.17,-114.29C515.7,-113.43 364.71,-108.34 324.48,-79.44 316.42,-73.65 310.75,-64.66 306.82,-55.68"/>
<polygon fill="black" stroke="black" points="310,-54.2 303.2,-46.07 303.45,-56.66 310,-54.2"/>
<text text-anchor="middle" x="347.98" y="-68.24" font-family="Times,serif" font-size="14.00">{c0, c3}</text>
</g>
<!-- 4&#45;&gt;5 -->
<g id="edge56" class="edge">
<title>4&#45;&gt;5</title>
<path fill="none" stroke="black" d="M578.57,-113.5C537.54,-111.3 457.46,-103.95 394.48,-79.44 383.11,-75.02 381.99,-70.66 371.48,-64.44 357.01,-55.88 340.52,-47 326.88,-39.88"/>
<polygon fill="black" stroke="black" points="328.44,-36.74 317.95,-35.25 325.22,-42.96 328.44,-36.74"/>
<text text-anchor="middle" x="438.48" y="-68.24" font-family="Times,serif" font-size="14.00">{c0, c1, c2, c3}</text>
</g>
<!-- 4&#45;&gt;5 -->
<g id="edge57" class="edge">
<title>4&#45;&gt;5</title>
<path fill="none" stroke="black" d="M580.98,-107.67C560.32,-101.55 530.24,-91.62 505.48,-79.44 494.53,-74.05 493.76,-69.12 482.48,-64.44 431.84,-43.42 368.46,-33.2 330.85,-28.65"/>
<polygon fill="black" stroke="black" points="330.84,-25.13 320.5,-27.46 330.04,-32.08 330.84,-25.13"/>
<text text-anchor="middle" x="528.98" y="-68.24" font-family="Times,serif" font-size="14.00">{c0, c2}</text>
</g>
<!-- 4&#45;&gt;5 -->
<g id="edge58" class="edge">
<title>4&#45;&gt;5</title>
<path fill="none" stroke="black" d="M593.73,-99.17C583.98,-87.67 569.08,-72.55 552.48,-64.44 513.99,-45.64 390.31,-33.1 330.91,-28.01"/>
<polygon fill="black" stroke="black" points="330.86,-24.49 320.6,-27.14 330.28,-31.47 330.86,-24.49"/>
<text text-anchor="middle" x="597.98" y="-68.24" font-family="Times,serif" font-size="14.00">{c0, c1}</text>
</g>
<!-- 5&#45;&gt;5 -->
<g id="edge34" class="edge">
<title>5&#45;&gt;5</title>
<path fill="none" stroke="black" d="M320.7,-25.92C330.28,-26.04 338.48,-25.55 338.48,-24.44 338.48,-23.77 335.44,-23.32 330.89,-23.1"/>
<polygon fill="black" stroke="black" points="330.74,-19.6 320.7,-22.96 330.65,-26.6 330.74,-19.6"/>
<text text-anchor="middle" x="361.98" y="-20.74" font-family="Times,serif" font-size="14.00">{c0, c3}</text>
</g>
<!-- 5&#45;&gt;5 -->
<g id="edge35" class="edge">
<title>5&#45;&gt;5</title>
<path fill="none" stroke="black" d="M320.66,-26.71C347.82,-28.18 385.48,-27.43 385.48,-24.44 385.48,-21.82 356.39,-20.92 330.9,-21.73"/>
<polygon fill="black" stroke="black" points="330.5,-18.25 320.66,-22.17 330.8,-25.24 330.5,-18.25"/>
<text text-anchor="middle" x="408.98" y="-20.74" font-family="Times,serif" font-size="14.00">{c0, c2}</text>
</g>
<!-- 5&#45;&gt;5 -->
<g id="edge36" class="edge">
<title>5&#45;&gt;5</title>
<path fill="none" stroke="black" d="M320.55,-27.21C361.09,-30.23 432.48,-29.3 432.48,-24.44 432.48,-19.96 371.81,-18.82 330.57,-21.04"/>
<polygon fill="black" stroke="black" points="330.31,-17.55 320.55,-21.68 330.75,-24.54 330.31,-17.55"/>
<text text-anchor="middle" x="439.48" y="-20.74" font-family="Times,serif" font-size="14.00">{}</text>
</g>
<!-- 5&#45;&gt;5 -->
<g id="edge37" class="edge">
<title>5&#45;&gt;5</title>
<path fill="none" stroke="black" d="M320.51,-27.76C366.56,-32.22 450.48,-31.11 450.48,-24.44 450.48,-18.24 377.94,-16.85 330.75,-20.26"/>
<polygon fill="black" stroke="black" points="330.19,-16.8 320.51,-21.12 330.77,-23.77 330.19,-16.8"/>
<text text-anchor="middle" x="473.98" y="-20.74" font-family="Times,serif" font-size="14.00">{c0, c1}</text>
</g>
<!-- 5&#45;&gt;5 -->
<g id="edge38" class="edge">
<title>5&#45;&gt;5</title>
<path fill="none" stroke="black" d="M320.42,-28.02C377.55,-34.25 497.48,-33.05 497.48,-24.44 497.48,-16.32 390.75,-14.79 330.7,-19.87"/>
<polygon fill="black" stroke="black" points="330.04,-16.42 320.42,-20.86 330.71,-23.39 330.04,-16.42"/>
<text text-anchor="middle" x="510.98" y="-20.74" font-family="Times,serif" font-size="14.00">{c3}</text>
</g>
<!-- 5&#45;&gt;5 -->
<g id="edge39" class="edge">
<title>5&#45;&gt;5</title>
<path fill="none" stroke="black" d="M320.21,-28.33C384,-36.26 524.48,-34.96 524.48,-24.44 524.48,-14.45 397.91,-12.78 330.49,-19.42"/>
<polygon fill="black" stroke="black" points="329.76,-15.98 320.21,-20.56 330.53,-22.94 329.76,-15.98"/>
<text text-anchor="middle" x="557.98" y="-20.74" font-family="Times,serif" font-size="14.00">{c0, c1, c3}</text>
</g>
<!-- 5&#45;&gt;5 -->
<g id="edge40" class="edge">
<title>5&#45;&gt;5</title>
<path fill="none" stroke="black" d="M320.31,-28.44C396.93,-38.28 591.48,-36.95 591.48,-24.44 591.48,-12.44 412.56,-10.73 330.32,-19.29"/>
<polygon fill="black" stroke="black" points="329.85,-15.82 320.31,-20.45 330.65,-22.78 329.85,-15.82"/>
<text text-anchor="middle" x="635.48" y="-20.74" font-family="Times,serif" font-size="14.00">{c0, c1, c2, c3}</text>
</g>
<!-- 5&#45;&gt;5 -->
<g id="edge41" class="edge">
<title>5&#45;&gt;5</title>
<path fill="none" stroke="black" d="M320.39,-28.48C411.44,-40.3 679.48,-38.96 679.48,-24.44 679.48,-10.42 429.45,-8.69 330.33,-19.24"/>
<polygon fill="black" stroke="black" points="329.91,-15.76 320.39,-20.4 330.73,-22.71 329.91,-15.76"/>
<text text-anchor="middle" x="712.98" y="-20.74" font-family="Times,serif" font-size="14.00">{c0, c1, c2}</text>
</g>
<!-- 5&#45;&gt;5 -->
<g id="edge42" class="edge">
<title>5&#45;&gt;5</title>
<path fill="none" stroke="black" d="M320.4,-28.6C422.04,-42.31 746.48,-40.93 746.48,-24.44 746.48,-8.47 442,-6.67 330.56,-19.05"/>
<polygon fill="black" stroke="black" points="329.9,-15.6 320.4,-20.29 330.75,-22.55 329.9,-15.6"/>
<text text-anchor="middle" x="759.98" y="-20.74" font-family="Times,serif" font-size="14.00">{c1}</text>
</g>
<!-- 5&#45;&gt;5 -->
<g id="edge43" class="edge">
<title>5&#45;&gt;5</title>
<path fill="none" stroke="black" d="M320.14,-28.76C427.03,-44.32 773.48,-42.88 773.48,-24.44 773.48,-6.54 447.03,-4.66 330.14,-18.8"/>
<polygon fill="black" stroke="black" points="329.59,-15.34 320.14,-20.12 330.51,-22.28 329.59,-15.34"/>
<text text-anchor="middle" x="786.98" y="-20.74" font-family="Times,serif" font-size="14.00">{c0}</text>
</g>
<!-- 5&#45;&gt;5 -->
<g id="edge44" class="edge">
<title>5&#45;&gt;5</title>
<path fill="none" stroke="black" d="M320.36,-28.98C433.09,-46.32 800.48,-44.81 800.48,-24.44 800.48,-4.65 453.6,-2.66 330.54,-18.48"/>
<polygon fill="black" stroke="black" points="329.78,-15.05 320.36,-19.91 330.75,-21.98 329.78,-15.05"/>
<text text-anchor="middle" x="823.98" y="-20.74" font-family="Times,serif" font-size="14.00">{c1, c2}</text>
</g>
<!-- 5&#45;&gt;5 -->
<g id="edge45" class="edge">
<title>5&#45;&gt;5</title>
<path fill="none" stroke="black" d="M320.33,-29.09C440.69,-48.33 847.48,-46.78 847.48,-24.44 847.48,-2.69 461.86,-0.65 330.43,-18.32"/>
<polygon fill="black" stroke="black" points="329.72,-14.88 320.33,-19.8 330.73,-21.81 329.72,-14.88"/>
<text text-anchor="middle" x="860.98" y="-20.74" font-family="Times,serif" font-size="14.00">{c2}</text>
</g>
<!-- 5&#45;&gt;5 -->
<g id="edge46" class="edge">
<title>5&#45;&gt;5</title>
<path fill="none" stroke="black" d="M320.19,-29.21C445.92,-50.33 874.48,-48.74 874.48,-24.44 874.48,-0.76 467.41,1.35 330.34,-18.11"/>
<polygon fill="black" stroke="black" points="329.54,-14.69 320.19,-19.67 330.6,-21.61 329.54,-14.69"/>
<text text-anchor="middle" x="907.98" y="-20.74" font-family="Times,serif" font-size="14.00">{c0, c2, c3}</text>
</g>
<!-- 5&#45;&gt;5 -->
<g id="edge47" class="edge">
<title>5&#45;&gt;5</title>
<path fill="none" stroke="black" d="M320.33,-29.29C455.61,-52.34 941.48,-50.72 941.48,-24.44 941.48,1.22 478.12,3.36 330.41,-18.01"/>
<polygon fill="black" stroke="black" points="329.67,-14.59 320.33,-19.59 330.75,-21.5 329.67,-14.59"/>
<text text-anchor="middle" x="964.98" y="-20.74" font-family="Times,serif" font-size="14.00">{c2, c3}</text>
</g>
<!-- 5&#45;&gt;5 -->
<g id="edge48" class="edge">
<title>5&#45;&gt;5</title>
<path fill="none" stroke="black" d="M320.03,-29.33C462.14,-54.34 988.48,-52.71 988.48,-24.44 988.48,3.2 485.52,5.37 330.18,-17.91"/>
<polygon fill="black" stroke="black" points="329.34,-14.5 320.03,-19.55 330.46,-21.41 329.34,-14.5"/>
<text text-anchor="middle" x="1021.98" y="-20.74" font-family="Times,serif" font-size="14.00">{c1, c2, c3}</text>
</g>
<!-- 5&#45;&gt;5 -->
<g id="edge49" class="edge">
<title>5&#45;&gt;5</title>
<path fill="none" stroke="black" d="M320.18,-29.4C471.36,-56.35 1055.48,-54.69 1055.48,-24.44 1055.48,5.16 496.19,7.38 330.51,-17.78"/>
<polygon fill="black" stroke="black" points="329.48,-14.4 320.18,-19.48 330.61,-21.31 329.48,-14.4"/>
<text text-anchor="middle" x="1078.98" y="-20.74" font-family="Times,serif" font-size="14.00">{c1, c3}</text>
</g>
</g>
</svg>
