<?xml version="1.0" encoding="UTF-8" standalone="no"?>
<!DOCTYPE svg PUBLIC "-//W3C//DTD SVG 1.1//EN"
 "http://www.w3.org/Graphics/SVG/1.1/DTD/svg11.dtd">
<!-- Generated by graphviz version 2.43.0 (0)
 -->
<!-- Title: %3 Pages: 1 -->
<svg width="2537pt" height="475pt"
 viewBox="0.00 0.00 2536.78 475.44" xmlns="http://www.w3.org/2000/svg" xmlns:xlink="http://www.w3.org/1999/xlink">
<g id="graph0" class="graph" transform="scale(1 1) rotate(0) translate(4 471.44)">
<title>%3</title>
<polygon fill="white" stroke="transparent" points="-4,4 -4,-471.44 2532.78,-471.44 2532.78,4 -4,4"/>
<!-- fake -->
<g id="node1" class="node">
<title>fake</title>
</g>
<!-- 0 -->
<g id="node2" class="node">
<title>0</title>
<ellipse fill="none" stroke="black" cx="1829.78" cy="-376.44" rx="27" ry="18"/>
<text text-anchor="middle" x="1829.78" y="-372.74" font-family="Times,serif" font-size="14.00">0</text>
</g>
<!-- fake&#45;&gt;0 -->
<g id="edge1" class="edge">
<title>fake&#45;&gt;0</title>
<path fill="none" stroke="black" stroke-width="2" d="M1829.78,-431.25C1829.78,-423.23 1829.78,-413.49 1829.78,-404.51"/>
<polygon fill="black" stroke="black" stroke-width="2" points="1833.28,-404.47 1829.78,-394.47 1826.28,-404.47 1833.28,-404.47"/>
</g>
<!-- 0&#45;&gt;0 -->
<g id="edge10" class="edge">
<title>0&#45;&gt;0</title>
<path fill="none" stroke="black" d="M1855.22,-383.13C1865.81,-383.59 1874.78,-381.36 1874.78,-376.44 1874.78,-373.21 1870.92,-371.14 1865.27,-370.23"/>
<polygon fill="black" stroke="black" points="1865.38,-366.73 1855.22,-369.75 1865.04,-373.72 1865.38,-366.73"/>
<text text-anchor="middle" x="1881.78" y="-372.74" font-family="Times,serif" font-size="14.00">{}</text>
</g>
<!-- 1 -->
<g id="node3" class="node">
<title>1</title>
<ellipse fill="none" stroke="black" cx="1484.78" cy="-289.44" rx="27" ry="18"/>
<text text-anchor="middle" x="1484.78" y="-285.74" font-family="Times,serif" font-size="14.00">1</text>
</g>
<!-- 0&#45;&gt;1 -->
<g id="edge2" class="edge">
<title>0&#45;&gt;1</title>
<path fill="none" stroke="black" d="M1802.54,-374.8C1691.57,-372.03 1278.59,-360.44 1259.78,-340.44 1255.21,-335.59 1255.44,-330.5 1259.78,-325.44 1283.5,-297.74 1389.92,-291.79 1447.5,-290.62"/>
<polygon fill="black" stroke="black" points="1447.71,-294.12 1457.65,-290.46 1447.59,-287.12 1447.71,-294.12"/>
<text text-anchor="middle" x="1273.28" y="-329.24" font-family="Times,serif" font-size="14.00">{c3}</text>
</g>
<!-- 0&#45;&gt;1 -->
<g id="edge3" class="edge">
<title>0&#45;&gt;1</title>
<path fill="none" stroke="black" d="M1802.45,-375.73C1700.11,-376.52 1343.61,-376.63 1309.78,-340.44 1268.88,-296.69 1384.47,-290.32 1447.24,-289.96"/>
<polygon fill="black" stroke="black" points="1447.57,-293.46 1457.57,-289.95 1447.57,-286.46 1447.57,-293.46"/>
<text text-anchor="middle" x="1343.28" y="-329.24" font-family="Times,serif" font-size="14.00">{c1, c2, c3}</text>
</g>
<!-- 0&#45;&gt;1 -->
<g id="edge4" class="edge">
<title>0&#45;&gt;1</title>
<path fill="none" stroke="black" d="M1802.64,-375.32C1712.48,-374.62 1427.1,-370.08 1399.78,-340.44 1381.35,-320.45 1418.5,-306.02 1449.36,-297.95"/>
<polygon fill="black" stroke="black" points="1450.21,-301.34 1459.08,-295.55 1448.53,-294.54 1450.21,-301.34"/>
<text text-anchor="middle" x="1433.28" y="-329.24" font-family="Times,serif" font-size="14.00">{c0, c1, c3}</text>
</g>
<!-- 0&#45;&gt;1 -->
<g id="edge5" class="edge">
<title>0&#45;&gt;1</title>
<path fill="none" stroke="black" d="M1802.92,-374.59C1726.47,-371.92 1511.78,-362.5 1489.78,-340.44 1483.89,-334.53 1481.7,-326.06 1481.27,-317.77"/>
<polygon fill="black" stroke="black" points="1484.78,-317.65 1481.52,-307.56 1477.78,-317.47 1484.78,-317.65"/>
<text text-anchor="middle" x="1533.78" y="-329.24" font-family="Times,serif" font-size="14.00">{c0, c1, c2, c3}</text>
</g>
<!-- 0&#45;&gt;1 -->
<g id="edge6" class="edge">
<title>0&#45;&gt;1</title>
<path fill="none" stroke="black" d="M1802.75,-374.98C1758.93,-373.44 1670.29,-366.99 1600.78,-340.44 1589.38,-336.09 1588.67,-330.96 1577.78,-325.44 1558.69,-315.77 1536.27,-307.26 1518.22,-301.05"/>
<polygon fill="black" stroke="black" points="1519.29,-297.71 1508.7,-297.84 1517.06,-304.35 1519.29,-297.71"/>
<text text-anchor="middle" x="1624.28" y="-329.24" font-family="Times,serif" font-size="14.00">{c2, c3}</text>
</g>
<!-- 0&#45;&gt;1 -->
<g id="edge7" class="edge">
<title>0&#45;&gt;1</title>
<path fill="none" stroke="black" d="M1803.29,-372.58C1770.99,-368.42 1715.22,-359.09 1670.78,-340.44 1659.53,-335.72 1659.04,-330.13 1647.78,-325.44 1606.43,-308.22 1555.51,-299.03 1521.7,-294.45"/>
<polygon fill="black" stroke="black" points="1521.72,-290.93 1511.36,-293.13 1520.83,-297.87 1521.72,-290.93"/>
<text text-anchor="middle" x="1694.28" y="-329.24" font-family="Times,serif" font-size="14.00">{c0, c3}</text>
</g>
<!-- 0&#45;&gt;1 -->
<g id="edge8" class="edge">
<title>0&#45;&gt;1</title>
<path fill="none" stroke="black" d="M1806.16,-367.63C1787.89,-361.24 1762.17,-351.48 1740.78,-340.44 1729.93,-334.85 1729.19,-329.78 1717.78,-325.44 1651.84,-300.36 1569.01,-293.19 1521.96,-291.18"/>
<polygon fill="black" stroke="black" points="1522.05,-287.68 1511.92,-290.8 1521.79,-294.67 1522.05,-287.68"/>
<text text-anchor="middle" x="1774.28" y="-329.24" font-family="Times,serif" font-size="14.00">{c0, c2, c3}</text>
</g>
<!-- 0&#45;&gt;1 -->
<g id="edge9" class="edge">
<title>0&#45;&gt;1</title>
<path fill="none" stroke="black" d="M1826.8,-358.29C1823.91,-347.1 1818.34,-333.17 1807.78,-325.44 1763.16,-292.76 1597.36,-289.61 1522.22,-289.93"/>
<polygon fill="black" stroke="black" points="1521.79,-286.43 1511.82,-289.99 1521.84,-293.43 1521.79,-286.43"/>
<text text-anchor="middle" x="1843.28" y="-329.24" font-family="Times,serif" font-size="14.00">{c1, c3}</text>
</g>
<!-- 2 -->
<g id="node4" class="node">
<title>2</title>
<ellipse fill="none" stroke="black" cx="1453.78" cy="-24.44" rx="27" ry="18"/>
<text text-anchor="middle" x="1453.78" y="-20.74" font-family="Times,serif" font-size="14.00">2</text>
</g>
<!-- 0&#45;&gt;2 -->
<g id="edge11" class="edge">
<title>0&#45;&gt;2</title>
<path fill="none" stroke="black" d="M1849.51,-364.02C1857.69,-358.13 1866.31,-350.13 1870.78,-340.44 1873.57,-334.39 1872.38,-331.91 1870.78,-325.44 1841.98,-209.35 1822.64,-170.3 1727.78,-97.44 1656.69,-42.84 1547.94,-29.49 1491.19,-26.33"/>
<polygon fill="black" stroke="black" points="1491.05,-22.82 1480.89,-25.84 1490.71,-29.81 1491.05,-22.82"/>
<text text-anchor="middle" x="1860.28" y="-198.74" font-family="Times,serif" font-size="14.00">{c0, c1}</text>
</g>
<!-- 0&#45;&gt;2 -->
<g id="edge12" class="edge">
<title>0&#45;&gt;2</title>
<path fill="none" stroke="black" d="M1852.03,-366.16C1878.68,-353.37 1919.78,-327.62 1919.78,-290.44 1919.78,-290.44 1919.78,-290.44 1919.78,-114.44 1919.78,-27.27 1601.19,-23.41 1490.86,-24.68"/>
<polygon fill="black" stroke="black" points="1490.8,-21.18 1480.85,-24.82 1490.89,-28.18 1490.8,-21.18"/>
<text text-anchor="middle" x="1943.28" y="-198.74" font-family="Times,serif" font-size="14.00">{c0, c2}</text>
</g>
<!-- 0&#45;&gt;2 -->
<g id="edge13" class="edge">
<title>0&#45;&gt;2</title>
<path fill="none" stroke="black" d="M1856.81,-374.21C1905.47,-370.38 2002.78,-354.69 2002.78,-290.44 2002.78,-290.44 2002.78,-290.44 2002.78,-114.44 2002.78,-62.35 1947.06,-78.05 1896.78,-64.44 1820.52,-43.81 1583.09,-31.24 1490.9,-27.03"/>
<polygon fill="black" stroke="black" points="1490.8,-23.52 1480.65,-26.57 1490.48,-30.51 1490.8,-23.52"/>
<text text-anchor="middle" x="2016.28" y="-198.74" font-family="Times,serif" font-size="14.00">{c0}</text>
</g>
<!-- 0&#45;&gt;2 -->
<g id="edge14" class="edge">
<title>0&#45;&gt;2</title>
<path fill="none" stroke="black" d="M1856.58,-373.3C1890.47,-369.83 1950.06,-361.13 1996.78,-340.44 2031.41,-325.11 2065.78,-328.31 2065.78,-290.44 2065.78,-290.44 2065.78,-290.44 2065.78,-114.44 2065.78,-59.52 2006.03,-77.88 1952.78,-64.44 1865.29,-42.35 1591.34,-30.44 1491.05,-26.72"/>
<polygon fill="black" stroke="black" points="1490.91,-23.22 1480.79,-26.35 1490.66,-30.21 1490.91,-23.22"/>
<text text-anchor="middle" x="2079.28" y="-198.74" font-family="Times,serif" font-size="14.00">{c2}</text>
</g>
<!-- 0&#45;&gt;2 -->
<g id="edge15" class="edge">
<title>0&#45;&gt;2</title>
<path fill="none" stroke="black" d="M1856.58,-373.58C1929.97,-367.75 2128.78,-346.77 2128.78,-290.44 2128.78,-290.44 2128.78,-290.44 2128.78,-114.44 2128.78,-58.3 2067.33,-77.69 2012.78,-64.44 1913.29,-40.27 1599.49,-29.48 1491.06,-26.41"/>
<polygon fill="black" stroke="black" points="1491.02,-22.91 1480.93,-26.13 1490.83,-29.9 1491.02,-22.91"/>
<text text-anchor="middle" x="2152.28" y="-198.74" font-family="Times,serif" font-size="14.00">{c1, c2}</text>
</g>
<!-- 0&#45;&gt;2 -->
<g id="edge16" class="edge">
<title>0&#45;&gt;2</title>
<path fill="none" stroke="black" d="M1856.95,-375.2C1944.22,-373.72 2211.78,-363.22 2211.78,-290.44 2211.78,-290.44 2211.78,-290.44 2211.78,-114.44 2211.78,-41.01 1643.4,-28.02 1491,-25.85"/>
<polygon fill="black" stroke="black" points="1490.8,-22.35 1480.76,-25.71 1490.71,-29.35 1490.8,-22.35"/>
<text text-anchor="middle" x="2225.28" y="-198.74" font-family="Times,serif" font-size="14.00">{c1}</text>
</g>
<!-- 0&#45;&gt;2 -->
<g id="edge17" class="edge">
<title>0&#45;&gt;2</title>
<path fill="none" stroke="black" d="M1856.95,-376.06C1953.56,-377.53 2274.78,-375.98 2274.78,-290.44 2274.78,-290.44 2274.78,-290.44 2274.78,-114.44 2274.78,-34.56 1652.48,-26.31 1491.45,-25.51"/>
<polygon fill="black" stroke="black" points="1491.11,-22.01 1481.1,-25.47 1491.08,-29.01 1491.11,-22.01"/>
<text text-anchor="middle" x="2308.28" y="-198.74" font-family="Times,serif" font-size="14.00">{c0, c1, c2}</text>
</g>
<!-- 1&#45;&gt;1 -->
<g id="edge34" class="edge">
<title>1&#45;&gt;1</title>
<path fill="none" stroke="black" d="M1509.31,-297.19C1520.29,-297.93 1529.78,-295.35 1529.78,-289.44 1529.78,-285.47 1525.49,-283 1519.35,-282.04"/>
<polygon fill="black" stroke="black" points="1519.43,-278.54 1509.31,-281.69 1519.19,-285.53 1519.43,-278.54"/>
<text text-anchor="middle" x="1536.78" y="-285.74" font-family="Times,serif" font-size="14.00">{}</text>
</g>
<!-- 1&#45;&gt;2 -->
<g id="edge43" class="edge">
<title>1&#45;&gt;2</title>
<path fill="none" stroke="black" d="M1480.62,-271.62C1478.06,-261.84 1474.56,-249.34 1470.78,-238.44 1459.42,-205.69 1447.58,-200.43 1440.78,-166.44 1439.47,-159.9 1437.86,-157.43 1440.78,-151.44 1446.46,-139.77 1458.09,-145.11 1463.78,-133.44 1476.3,-107.75 1470.46,-74.57 1463.63,-51.8"/>
<polygon fill="black" stroke="black" points="1466.91,-50.56 1460.48,-42.14 1460.25,-52.73 1466.91,-50.56"/>
<text text-anchor="middle" x="1464.28" y="-155.24" font-family="Times,serif" font-size="14.00">{c0, c3}</text>
</g>
<!-- 1&#45;&gt;2 -->
<g id="edge44" class="edge">
<title>1&#45;&gt;2</title>
<path fill="none" stroke="black" d="M1488.35,-271.47C1495.62,-233.14 1509.33,-137.55 1482.78,-64.44 1480.71,-58.75 1477.53,-53.19 1474.01,-48.13"/>
<polygon fill="black" stroke="black" points="1476.77,-45.97 1467.92,-40.15 1471.21,-50.22 1476.77,-45.97"/>
<text text-anchor="middle" x="1511.28" y="-155.24" font-family="Times,serif" font-size="14.00">{c3}</text>
</g>
<!-- 1&#45;&gt;2 -->
<g id="edge45" class="edge">
<title>1&#45;&gt;2</title>
<path fill="none" stroke="black" d="M1495.07,-272.78C1510.32,-247.72 1536.38,-196.77 1528.78,-151.44 1522.02,-111.1 1521.68,-98.33 1498.78,-64.44 1493.7,-56.93 1486.82,-49.99 1479.97,-44.11"/>
<polygon fill="black" stroke="black" points="1482.04,-41.28 1472.05,-37.72 1477.64,-46.72 1482.04,-41.28"/>
<text text-anchor="middle" x="1553.28" y="-155.24" font-family="Times,serif" font-size="14.00">{c1, c3}</text>
</g>
<!-- 1&#45;&gt;2 -->
<g id="edge46" class="edge">
<title>1&#45;&gt;2</title>
<path fill="none" stroke="black" d="M1503.81,-276.45C1536.45,-254.2 1598.03,-204.01 1580.78,-151.44 1565.81,-105.83 1552.05,-97 1516.78,-64.44 1507.03,-55.44 1494.91,-47.37 1483.92,-40.93"/>
<polygon fill="black" stroke="black" points="1485.45,-37.78 1475.02,-35.92 1482.02,-43.88 1485.45,-37.78"/>
<text text-anchor="middle" x="1606.28" y="-155.24" font-family="Times,serif" font-size="14.00">{c0, c1}</text>
</g>
<!-- 1&#45;&gt;2 -->
<g id="edge47" class="edge">
<title>1&#45;&gt;2</title>
<path fill="none" stroke="black" d="M1508.49,-280.37C1557.1,-262.36 1661.27,-215.36 1633.78,-151.44 1607.16,-89.54 1531.57,-53.08 1487.27,-36.41"/>
<polygon fill="black" stroke="black" points="1488.39,-33.1 1477.79,-32.97 1486,-39.68 1488.39,-33.1"/>
<text text-anchor="middle" x="1651.28" y="-155.24" font-family="Times,serif" font-size="14.00">{c0}</text>
</g>
<!-- 1&#45;&gt;2 -->
<g id="edge48" class="edge">
<title>1&#45;&gt;2</title>
<path fill="none" stroke="black" d="M1510.07,-282.68C1566.76,-268.32 1696.91,-226.6 1668.78,-151.44 1641,-77.21 1542.88,-44.7 1489.32,-32.21"/>
<polygon fill="black" stroke="black" points="1490.07,-28.79 1479.55,-30.04 1488.55,-35.62 1490.07,-28.79"/>
<text text-anchor="middle" x="1705.28" y="-155.24" font-family="Times,serif" font-size="14.00">{c0, c1, c3}</text>
</g>
<!-- 1&#45;&gt;2 -->
<g id="edge49" class="edge">
<title>1&#45;&gt;2</title>
<path fill="none" stroke="black" d="M1511.42,-285.86C1586.93,-277.35 1793.62,-245.17 1742.78,-151.44 1692.99,-59.65 1556.89,-34.69 1490.79,-27.93"/>
<polygon fill="black" stroke="black" points="1491.09,-24.45 1480.8,-27 1490.43,-31.42 1491.09,-24.45"/>
<text text-anchor="middle" x="1761.28" y="-155.24" font-family="Times,serif" font-size="14.00">{c1}</text>
</g>
<!-- 3 -->
<g id="node5" class="node">
<title>3</title>
<ellipse fill="none" stroke="black" cx="1008.78" cy="-202.44" rx="27" ry="18"/>
<text text-anchor="middle" x="1008.78" y="-198.74" font-family="Times,serif" font-size="14.00">3</text>
</g>
<!-- 1&#45;&gt;3 -->
<g id="edge35" class="edge">
<title>1&#45;&gt;3</title>
<path fill="none" stroke="black" d="M1457.83,-287.97C1339.85,-285.78 873.88,-275.74 852.78,-253.44 816.53,-215.13 914.67,-206.09 971.51,-204.01"/>
<polygon fill="black" stroke="black" points="971.72,-207.51 981.6,-203.7 971.5,-200.51 971.72,-207.51"/>
<text text-anchor="middle" x="876.28" y="-242.24" font-family="Times,serif" font-size="14.00">{c1, c2}</text>
</g>
<!-- 1&#45;&gt;3 -->
<g id="edge36" class="edge">
<title>1&#45;&gt;3</title>
<path fill="none" stroke="black" d="M1457.55,-287.77C1347.59,-284.93 941.29,-273.14 922.78,-253.44 903.89,-233.34 942.04,-218.86 973.42,-210.81"/>
<polygon fill="black" stroke="black" points="974.39,-214.18 983.28,-208.42 972.74,-207.37 974.39,-214.18"/>
<text text-anchor="middle" x="946.28" y="-242.24" font-family="Times,serif" font-size="14.00">{c2, c3}</text>
</g>
<!-- 1&#45;&gt;3 -->
<g id="edge37" class="edge">
<title>1&#45;&gt;3</title>
<path fill="none" stroke="black" d="M1457.58,-288.61C1359,-288.96 1024.59,-287.59 992.78,-253.44 986.23,-246.41 987.79,-236.7 991.88,-227.7"/>
<polygon fill="black" stroke="black" points="995.07,-229.17 996.84,-218.72 988.94,-225.79 995.07,-229.17"/>
<text text-anchor="middle" x="1026.28" y="-242.24" font-family="Times,serif" font-size="14.00">{c1, c2, c3}</text>
</g>
<!-- 1&#45;&gt;3 -->
<g id="edge38" class="edge">
<title>1&#45;&gt;3</title>
<path fill="none" stroke="black" d="M1457.78,-287.85C1379.28,-285.86 1152.28,-278.07 1082.78,-253.44 1081.4,-252.95 1056.07,-235.76 1035.42,-221.67"/>
<polygon fill="black" stroke="black" points="1037.18,-218.63 1026.95,-215.88 1033.23,-224.41 1037.18,-218.63"/>
<text text-anchor="middle" x="1116.28" y="-242.24" font-family="Times,serif" font-size="14.00">{c0, c1, c2}</text>
</g>
<!-- 1&#45;&gt;3 -->
<g id="edge39" class="edge">
<title>1&#45;&gt;3</title>
<path fill="none" stroke="black" d="M1457.87,-287.02C1392.16,-283.3 1225.1,-272.23 1172.78,-253.44 1161.29,-249.32 1160.97,-243.31 1149.78,-238.44 1115.69,-223.6 1074.11,-214.25 1044.97,-208.98"/>
<polygon fill="black" stroke="black" points="1045.29,-205.48 1034.83,-207.22 1044.09,-212.38 1045.29,-205.48"/>
<text text-anchor="middle" x="1216.78" y="-242.24" font-family="Times,serif" font-size="14.00">{c0, c1, c2, c3}</text>
</g>
<!-- 1&#45;&gt;3 -->
<g id="edge40" class="edge">
<title>1&#45;&gt;3</title>
<path fill="none" stroke="black" d="M1457.84,-287.2C1418.37,-284.62 1343.1,-276.8 1283.78,-253.44 1272.42,-248.97 1272.21,-242.72 1260.78,-238.44 1187.97,-211.21 1096.18,-204.88 1045.91,-203.58"/>
<polygon fill="black" stroke="black" points="1045.9,-200.08 1035.83,-203.37 1045.76,-207.08 1045.9,-200.08"/>
<text text-anchor="middle" x="1297.28" y="-242.24" font-family="Times,serif" font-size="14.00">{c2}</text>
</g>
<!-- 1&#45;&gt;3 -->
<g id="edge41" class="edge">
<title>1&#45;&gt;3</title>
<path fill="none" stroke="black" d="M1458.54,-285.2C1427.71,-280.76 1375.49,-271.22 1333.78,-253.44 1322.55,-248.66 1322.26,-242.59 1310.78,-238.44 1262.85,-221.13 1115.42,-210.02 1045.85,-205.61"/>
<polygon fill="black" stroke="black" points="1045.97,-202.11 1035.77,-204.98 1045.54,-209.09 1045.97,-202.11"/>
<text text-anchor="middle" x="1367.28" y="-242.24" font-family="Times,serif" font-size="14.00">{c0, c2, c3}</text>
</g>
<!-- 1&#45;&gt;3 -->
<g id="edge42" class="edge">
<title>1&#45;&gt;3</title>
<path fill="none" stroke="black" d="M1464.55,-277.22C1452.6,-270.49 1437.21,-261.67 1423.78,-253.44 1413.37,-247.07 1412.31,-242.44 1400.78,-238.44 1335.85,-215.95 1130.94,-207.19 1046.12,-204.48"/>
<polygon fill="black" stroke="black" points="1046.01,-200.97 1035.91,-204.16 1045.8,-207.97 1046.01,-200.97"/>
<text text-anchor="middle" x="1447.28" y="-242.24" font-family="Times,serif" font-size="14.00">{c0, c2}</text>
</g>
<!-- 2&#45;&gt;2 -->
<g id="edge82" class="edge">
<title>2&#45;&gt;2</title>
<path fill="none" stroke="black" d="M1481.02,-25.94C1490.8,-25.97 1498.78,-25.47 1498.78,-24.44 1498.78,-23.81 1495.82,-23.38 1491.29,-23.15"/>
<polygon fill="black" stroke="black" points="1491.09,-19.64 1481.02,-22.94 1490.95,-26.64 1491.09,-19.64"/>
<text text-anchor="middle" x="1522.28" y="-20.74" font-family="Times,serif" font-size="14.00">{c0, c3}</text>
</g>
<!-- 2&#45;&gt;2 -->
<g id="edge83" class="edge">
<title>2&#45;&gt;2</title>
<path fill="none" stroke="black" d="M1480.67,-26.87C1509.1,-28.13 1545.78,-27.32 1545.78,-24.44 1545.78,-21.9 1517.19,-20.98 1490.93,-21.66"/>
<polygon fill="black" stroke="black" points="1490.54,-18.17 1480.67,-22.02 1490.79,-25.17 1490.54,-18.17"/>
<text text-anchor="middle" x="1579.28" y="-20.74" font-family="Times,serif" font-size="14.00">{c0, c2, c3}</text>
</g>
<!-- 2&#45;&gt;2 -->
<g id="edge84" class="edge">
<title>2&#45;&gt;2</title>
<path fill="none" stroke="black" d="M1480.54,-27.31C1528.13,-30.2 1612.78,-29.25 1612.78,-24.44 1612.78,-19.97 1539.31,-18.83 1490.78,-21.03"/>
<polygon fill="black" stroke="black" points="1490.35,-17.55 1480.54,-21.57 1490.71,-24.54 1490.35,-17.55"/>
<text text-anchor="middle" x="1626.28" y="-20.74" font-family="Times,serif" font-size="14.00">{c3}</text>
</g>
<!-- 2&#45;&gt;2 -->
<g id="edge85" class="edge">
<title>2&#45;&gt;2</title>
<path fill="none" stroke="black" d="M1480.43,-27.89C1535.35,-32.2 1639.78,-31.05 1639.78,-24.44 1639.78,-18.22 1547.23,-16.84 1490.56,-20.29"/>
<polygon fill="black" stroke="black" points="1490.17,-16.81 1480.43,-20.99 1490.65,-23.8 1490.17,-16.81"/>
<text text-anchor="middle" x="1663.28" y="-20.74" font-family="Times,serif" font-size="14.00">{c1, c3}</text>
</g>
<!-- 2&#45;&gt;2 -->
<g id="edge86" class="edge">
<title>2&#45;&gt;2</title>
<path fill="none" stroke="black" d="M1480.25,-28.23C1546.1,-34.22 1686.78,-32.96 1686.78,-24.44 1686.78,-16.34 1559.5,-14.8 1490.41,-19.82"/>
<polygon fill="black" stroke="black" points="1489.93,-16.35 1480.25,-20.65 1490.5,-23.33 1489.93,-16.35"/>
<text text-anchor="middle" x="1710.28" y="-20.74" font-family="Times,serif" font-size="14.00">{c0, c1}</text>
</g>
<!-- 2&#45;&gt;2 -->
<g id="edge87" class="edge">
<title>2&#45;&gt;2</title>
<path fill="none" stroke="black" d="M1480.25,-28.54C1556.26,-36.24 1733.78,-34.87 1733.78,-24.44 1733.78,-14.46 1571.19,-12.78 1490.59,-19.4"/>
<polygon fill="black" stroke="black" points="1489.89,-15.95 1480.25,-20.35 1490.53,-22.92 1489.89,-15.95"/>
<text text-anchor="middle" x="1757.28" y="-20.74" font-family="Times,serif" font-size="14.00">{c0, c2}</text>
</g>
<!-- 2&#45;&gt;2 -->
<g id="edge88" class="edge">
<title>2&#45;&gt;2</title>
<path fill="none" stroke="black" d="M1480.17,-28.79C1565.68,-38.25 1780.78,-36.8 1780.78,-24.44 1780.78,-12.54 1581.34,-10.76 1490.21,-19.09"/>
<polygon fill="black" stroke="black" points="1489.77,-15.61 1480.17,-20.1 1490.47,-22.58 1489.77,-15.61"/>
<text text-anchor="middle" x="1814.28" y="-20.74" font-family="Times,serif" font-size="14.00">{c1, c2, c3}</text>
</g>
<!-- 2&#45;&gt;2 -->
<g id="edge89" class="edge">
<title>2&#45;&gt;2</title>
<path fill="none" stroke="black" d="M1480.12,-28.93C1577.53,-40.27 1847.78,-38.77 1847.78,-24.44 1847.78,-10.59 1595.18,-8.73 1490.37,-18.86"/>
<polygon fill="black" stroke="black" points="1489.69,-15.42 1480.12,-19.95 1490.43,-22.38 1489.69,-15.42"/>
<text text-anchor="middle" x="1871.28" y="-20.74" font-family="Times,serif" font-size="14.00">{c2, c3}</text>
</g>
<!-- 2&#45;&gt;2 -->
<g id="edge90" class="edge">
<title>2&#45;&gt;2</title>
<path fill="none" stroke="black" d="M1479.92,-29.11C1585.67,-42.28 1894.78,-40.72 1894.78,-24.44 1894.78,-8.66 1604.1,-6.71 1490.06,-18.61"/>
<polygon fill="black" stroke="black" points="1489.46,-15.16 1479.92,-19.77 1490.25,-22.11 1489.46,-15.16"/>
<text text-anchor="middle" x="1908.28" y="-20.74" font-family="Times,serif" font-size="14.00">{c0}</text>
</g>
<!-- 2&#45;&gt;2 -->
<g id="edge91" class="edge">
<title>2&#45;&gt;2</title>
<path fill="none" stroke="black" d="M1479.84,-29.35C1591.25,-44.28 1921.78,-42.64 1921.78,-24.44 1921.78,-6.75 1609.71,-4.71 1489.82,-18.31"/>
<polygon fill="black" stroke="black" points="1489.34,-14.84 1479.84,-19.54 1490.19,-21.79 1489.34,-14.84"/>
<text text-anchor="middle" x="1928.78" y="-20.74" font-family="Times,serif" font-size="14.00">{}</text>
</g>
<!-- 2&#45;&gt;2 -->
<g id="edge92" class="edge">
<title>2&#45;&gt;2</title>
<path fill="none" stroke="black" d="M1479.71,-29.57C1595.65,-46.28 1939.78,-44.57 1939.78,-24.44 1939.78,-4.86 1614.21,-2.71 1489.72,-17.98"/>
<polygon fill="black" stroke="black" points="1489.17,-14.52 1479.71,-19.31 1490.09,-21.46 1489.17,-14.52"/>
<text text-anchor="middle" x="1973.28" y="-20.74" font-family="Times,serif" font-size="14.00">{c0, c1, c3}</text>
</g>
<!-- 2&#45;&gt;2 -->
<g id="edge93" class="edge">
<title>2&#45;&gt;2</title>
<path fill="none" stroke="black" d="M1479.91,-29.69C1606.5,-48.29 2006.78,-46.54 2006.78,-24.44 2006.78,-2.9 1626.57,-0.69 1490.07,-17.82"/>
<polygon fill="black" stroke="black" points="1489.35,-14.38 1479.91,-19.2 1490.29,-21.32 1489.35,-14.38"/>
<text text-anchor="middle" x="2020.28" y="-20.74" font-family="Times,serif" font-size="14.00">{c2}</text>
</g>
<!-- 2&#45;&gt;2 -->
<g id="edge94" class="edge">
<title>2&#45;&gt;2</title>
<path fill="none" stroke="black" d="M1479.91,-29.87C1612.13,-50.29 2033.78,-48.49 2033.78,-24.44 2033.78,-0.98 1632.47,1.31 1490.1,-17.56"/>
<polygon fill="black" stroke="black" points="1489.31,-14.14 1479.91,-19.02 1490.3,-21.07 1489.31,-14.14"/>
<text text-anchor="middle" x="2057.28" y="-20.74" font-family="Times,serif" font-size="14.00">{c1, c2}</text>
</g>
<!-- 2&#45;&gt;2 -->
<g id="edge95" class="edge">
<title>2&#45;&gt;2</title>
<path fill="none" stroke="black" d="M1479.6,-29.93C1619.23,-52.3 2080.78,-50.47 2080.78,-24.44 2080.78,0.98 1640.61,3.32 1489.94,-17.42"/>
<polygon fill="black" stroke="black" points="1488.98,-14.02 1479.6,-18.95 1490,-20.95 1488.98,-14.02"/>
<text text-anchor="middle" x="2094.28" y="-20.74" font-family="Times,serif" font-size="14.00">{c1}</text>
</g>
<!-- 2&#45;&gt;2 -->
<g id="edge96" class="edge">
<title>2&#45;&gt;2</title>
<path fill="none" stroke="black" d="M1479.69,-30.1C1625.05,-54.31 2107.78,-52.42 2107.78,-24.44 2107.78,2.91 1646.5,5.32 1489.99,-17.19"/>
<polygon fill="black" stroke="black" points="1489.04,-13.8 1479.69,-18.79 1490.11,-20.72 1489.04,-13.8"/>
<text text-anchor="middle" x="2151.78" y="-20.74" font-family="Times,serif" font-size="14.00">{c0, c1, c2, c3}</text>
</g>
<!-- 2&#45;&gt;2 -->
<g id="edge97" class="edge">
<title>2&#45;&gt;2</title>
<path fill="none" stroke="black" d="M1479.91,-30.15C1637.08,-56.31 2195.78,-54.41 2195.78,-24.44 2195.78,4.93 1659.23,7.34 1489.82,-17.2"/>
<polygon fill="black" stroke="black" points="1489.25,-13.74 1479.91,-18.73 1490.32,-20.66 1489.25,-13.74"/>
<text text-anchor="middle" x="2229.28" y="-20.74" font-family="Times,serif" font-size="14.00">{c0, c1, c2}</text>
</g>
<!-- 3&#45;&gt;2 -->
<g id="edge75" class="edge">
<title>3&#45;&gt;2</title>
<path fill="none" stroke="black" d="M1007.19,-184.27C1005.49,-173.9 1002,-160.9 994.78,-151.44 985.35,-139.08 972.44,-146.97 964.78,-133.44 956.9,-119.52 954.44,-109.65 964.78,-97.44 996.23,-60.31 1026.72,-95.14 1072.78,-79.44 1086.14,-74.89 1087.2,-68.29 1100.78,-64.44 1228.44,-28.27 1269.08,-74.43 1398.78,-46.44 1406.79,-44.71 1415.17,-42.01 1422.91,-39.11"/>
<polygon fill="black" stroke="black" points="1424.29,-42.33 1432.3,-35.39 1421.71,-35.82 1424.29,-42.33"/>
<text text-anchor="middle" x="988.28" y="-111.74" font-family="Times,serif" font-size="14.00">{c0, c3}</text>
</g>
<!-- 3&#45;&gt;2 -->
<g id="edge76" class="edge">
<title>3&#45;&gt;2</title>
<path fill="none" stroke="black" d="M1010.75,-184.3C1014.25,-161.5 1023.62,-121.28 1047.78,-97.44 1064.59,-80.85 1076.2,-89.04 1097.78,-79.44 1110.68,-73.7 1112.21,-68.33 1125.78,-64.44 1242.68,-30.97 1279.99,-72.42 1398.78,-46.44 1406.78,-44.69 1415.17,-41.98 1422.91,-39.08"/>
<polygon fill="black" stroke="black" points="1424.28,-42.3 1432.29,-35.36 1421.71,-35.79 1424.28,-42.3"/>
<text text-anchor="middle" x="1081.28" y="-111.74" font-family="Times,serif" font-size="14.00">{c0, c2, c3}</text>
</g>
<!-- 3&#45;&gt;2 -->
<g id="edge77" class="edge">
<title>3&#45;&gt;2</title>
<path fill="none" stroke="black" d="M1028.79,-190.35C1050.77,-177.77 1086.68,-156.07 1114.78,-133.44 1149.05,-105.85 1145.6,-82.39 1185.78,-64.44 1272.52,-25.69 1306.16,-67.59 1398.78,-46.44 1406.7,-44.63 1415,-41.92 1422.68,-39.05"/>
<polygon fill="black" stroke="black" points="1423.99,-42.3 1432.01,-35.37 1421.42,-35.78 1423.99,-42.3"/>
<text text-anchor="middle" x="1160.28" y="-111.74" font-family="Times,serif" font-size="14.00">{c3}</text>
</g>
<!-- 3&#45;&gt;2 -->
<g id="edge78" class="edge">
<title>3&#45;&gt;2</title>
<path fill="none" stroke="black" d="M1033.5,-194.91C1067.81,-185.11 1130.95,-164.39 1177.78,-133.44 1196.66,-120.97 1195.94,-111.37 1213.78,-97.44 1236.25,-79.9 1241.89,-73.92 1268.78,-64.44 1323.79,-45.04 1342.28,-60.94 1398.78,-46.44 1406.65,-44.42 1414.93,-41.63 1422.61,-38.75"/>
<polygon fill="black" stroke="black" points="1423.91,-42 1431.94,-35.09 1421.35,-35.48 1423.91,-42"/>
<text text-anchor="middle" x="1237.28" y="-111.74" font-family="Times,serif" font-size="14.00">{c0, c2}</text>
</g>
<!-- 3&#45;&gt;2 -->
<g id="edge79" class="edge">
<title>3&#45;&gt;2</title>
<path fill="none" stroke="black" d="M1034.09,-195.21C1061.63,-188.38 1106.92,-176.98 1145.78,-166.44 1197.1,-152.53 1214.97,-160.43 1260.78,-133.44 1280.27,-121.96 1278.94,-111.37 1296.78,-97.44 1319.25,-79.9 1326.15,-76.91 1351.78,-64.44 1352.2,-64.23 1391.68,-49.15 1421.39,-37.81"/>
<polygon fill="black" stroke="black" points="1422.93,-40.97 1431.02,-34.13 1420.43,-34.43 1422.93,-40.97"/>
<text text-anchor="middle" x="1320.28" y="-111.74" font-family="Times,serif" font-size="14.00">{c2, c3}</text>
</g>
<!-- 3&#45;&gt;2 -->
<g id="edge80" class="edge">
<title>3&#45;&gt;2</title>
<path fill="none" stroke="black" d="M1035.82,-201.3C1095.28,-199.89 1240.32,-190.38 1343.78,-133.44 1363.6,-122.53 1363.67,-113.33 1379.78,-97.44 1397.17,-80.29 1417.01,-61 1431.77,-46.71"/>
<polygon fill="black" stroke="black" points="1434.23,-49.2 1438.98,-39.73 1429.36,-44.17 1434.23,-49.2"/>
<text text-anchor="middle" x="1393.28" y="-111.74" font-family="Times,serif" font-size="14.00">{c0}</text>
</g>
<!-- 3&#45;&gt;2 -->
<g id="edge81" class="edge">
<title>3&#45;&gt;2</title>
<path fill="none" stroke="black" d="M1035.67,-200.47C1115.91,-197.04 1351.53,-182.86 1406.78,-133.44 1430.41,-112.3 1442.66,-77.15 1448.64,-52.72"/>
<polygon fill="black" stroke="black" points="1452.13,-53.18 1450.9,-42.65 1445.3,-51.64 1452.13,-53.18"/>
<text text-anchor="middle" x="1446.28" y="-111.74" font-family="Times,serif" font-size="14.00">{c2}</text>
</g>
<!-- 3&#45;&gt;3 -->
<g id="edge67" class="edge">
<title>3&#45;&gt;3</title>
<path fill="none" stroke="black" d="M1033.31,-210.19C1044.29,-210.93 1053.78,-208.35 1053.78,-202.44 1053.78,-198.47 1049.49,-196 1043.35,-195.04"/>
<polygon fill="black" stroke="black" points="1043.43,-191.54 1033.31,-194.69 1043.19,-198.53 1043.43,-191.54"/>
<text text-anchor="middle" x="1060.78" y="-198.74" font-family="Times,serif" font-size="14.00">{}</text>
</g>
<!-- 4 -->
<g id="node6" class="node">
<title>4</title>
<ellipse fill="none" stroke="black" cx="594.78" cy="-115.44" rx="27" ry="18"/>
<text text-anchor="middle" x="594.78" y="-111.74" font-family="Times,serif" font-size="14.00">4</text>
</g>
<!-- 3&#45;&gt;4 -->
<g id="edge66" class="edge">
<title>3&#45;&gt;4</title>
<path fill="none" stroke="black" d="M981.83,-200.97C863.85,-198.78 397.88,-188.74 376.78,-166.44 372.2,-161.6 372.45,-156.52 376.78,-151.44 399.55,-124.72 501.37,-118.32 557.44,-116.84"/>
<polygon fill="black" stroke="black" points="557.76,-120.33 567.67,-116.61 557.6,-113.34 557.76,-120.33"/>
<text text-anchor="middle" x="400.28" y="-155.24" font-family="Times,serif" font-size="14.00">{c1, c3}</text>
</g>
<!-- 3&#45;&gt;4 -->
<g id="edge68" class="edge">
<title>3&#45;&gt;4</title>
<path fill="none" stroke="black" d="M981.55,-200.77C871.59,-197.93 465.29,-186.14 446.78,-166.44 412.74,-130.22 503.3,-120.23 557.5,-117.48"/>
<polygon fill="black" stroke="black" points="557.97,-120.97 567.8,-117.02 557.66,-113.97 557.97,-120.97"/>
<text text-anchor="middle" x="460.28" y="-155.24" font-family="Times,serif" font-size="14.00">{c1}</text>
</g>
<!-- 3&#45;&gt;4 -->
<g id="edge69" class="edge">
<title>3&#45;&gt;4</title>
<path fill="none" stroke="black" d="M981.53,-201.7C880.3,-202.36 530.04,-202.05 496.78,-166.44 475.24,-143.38 522.31,-129.26 558.41,-122.15"/>
<polygon fill="black" stroke="black" points="559.5,-125.5 568.7,-120.24 558.23,-118.62 559.5,-125.5"/>
<text text-anchor="middle" x="530.28" y="-155.24" font-family="Times,serif" font-size="14.00">{c0, c1, c2}</text>
</g>
<!-- 3&#45;&gt;4 -->
<g id="edge70" class="edge">
<title>3&#45;&gt;4</title>
<path fill="none" stroke="black" d="M981.83,-201.27C893,-200.44 613.54,-195.51 586.78,-166.44 580.87,-160.03 580.75,-151.08 582.8,-142.52"/>
<polygon fill="black" stroke="black" points="586.19,-143.42 586.01,-132.83 579.55,-141.22 586.19,-143.42"/>
<text text-anchor="middle" x="620.28" y="-155.24" font-family="Times,serif" font-size="14.00">{c1, c2, c3}</text>
</g>
<!-- 3&#45;&gt;4 -->
<g id="edge71" class="edge">
<title>3&#45;&gt;4</title>
<path fill="none" stroke="black" d="M981.92,-200.23C913.29,-196.89 732.96,-186.41 676.78,-166.44 665.28,-162.35 664.14,-157.89 653.78,-151.44 643.97,-145.34 633.12,-138.83 623.44,-133.11"/>
<polygon fill="black" stroke="black" points="624.97,-129.95 614.57,-127.9 621.42,-135.99 624.97,-129.95"/>
<text text-anchor="middle" x="700.28" y="-155.24" font-family="Times,serif" font-size="14.00">{c0, c1}</text>
</g>
<!-- 3&#45;&gt;4 -->
<g id="edge72" class="edge">
<title>3&#45;&gt;4</title>
<path fill="none" stroke="black" d="M981.43,-201.71C932.7,-201.34 828.31,-196.7 746.78,-166.44 735.34,-162.2 734.92,-156.43 723.78,-151.44 693.68,-137.95 657.24,-128.65 630.78,-123.05"/>
<polygon fill="black" stroke="black" points="631.3,-119.58 620.8,-121.01 629.9,-126.44 631.3,-119.58"/>
<text text-anchor="middle" x="790.78" y="-155.24" font-family="Times,serif" font-size="14.00">{c0, c1, c2, c3}</text>
</g>
<!-- 3&#45;&gt;4 -->
<g id="edge73" class="edge">
<title>3&#45;&gt;4</title>
<path fill="none" stroke="black" d="M982.54,-198.2C951.71,-193.76 899.49,-184.22 857.78,-166.44 846.55,-161.66 846.2,-155.76 834.78,-151.44 766.49,-125.63 680.61,-118.73 632.29,-116.96"/>
<polygon fill="black" stroke="black" points="632.1,-113.45 622,-116.64 631.89,-120.45 632.1,-113.45"/>
<text text-anchor="middle" x="891.28" y="-155.24" font-family="Times,serif" font-size="14.00">{c0, c1, c3}</text>
</g>
<!-- 3&#45;&gt;4 -->
<g id="edge74" class="edge">
<title>3&#45;&gt;4</title>
<path fill="none" stroke="black" d="M988.55,-190.22C976.6,-183.49 961.21,-174.67 947.78,-166.44 937.37,-160.07 936.28,-155.53 924.78,-151.44 871.62,-132.53 706.63,-122.07 632.05,-118.2"/>
<polygon fill="black" stroke="black" points="631.89,-114.68 621.73,-117.67 631.54,-121.68 631.89,-114.68"/>
<text text-anchor="middle" x="971.28" y="-155.24" font-family="Times,serif" font-size="14.00">{c1, c2}</text>
</g>
<!-- 4&#45;&gt;2 -->
<g id="edge59" class="edge">
<title>4&#45;&gt;2</title>
<path fill="none" stroke="black" d="M605.7,-98.58C614.86,-86.76 629.1,-71.49 645.78,-64.44 722.87,-31.87 1316.66,-62.6 1398.78,-46.44 1406.82,-44.86 1415.21,-42.21 1422.96,-39.32"/>
<polygon fill="black" stroke="black" points="1424.34,-42.53 1432.34,-35.58 1421.75,-36.03 1424.34,-42.53"/>
<text text-anchor="middle" x="659.28" y="-68.24" font-family="Times,serif" font-size="14.00">{c3}</text>
</g>
<!-- 4&#45;&gt;2 -->
<g id="edge60" class="edge">
<title>4&#45;&gt;2</title>
<path fill="none" stroke="black" d="M617.42,-105.39C633.23,-98.8 654.67,-89.33 672.78,-79.44 683.49,-73.59 684.13,-68.07 695.78,-64.44 770.39,-41.22 1322.13,-61.59 1398.78,-46.44 1406.82,-44.85 1415.21,-42.2 1422.96,-39.31"/>
<polygon fill="black" stroke="black" points="1424.34,-42.52 1432.34,-35.57 1421.75,-36.02 1424.34,-42.52"/>
<text text-anchor="middle" x="719.28" y="-68.24" font-family="Times,serif" font-size="14.00">{c1, c3}</text>
</g>
<!-- 4&#45;&gt;2 -->
<g id="edge61" class="edge">
<title>4&#45;&gt;2</title>
<path fill="none" stroke="black" d="M621.04,-111.03C651.32,-106.47 702.13,-96.87 742.78,-79.44 754,-74.63 754.13,-68.08 765.78,-64.44 900.09,-22.43 1260.77,-73.93 1398.78,-46.44 1406.81,-44.84 1415.21,-42.18 1422.95,-39.29"/>
<polygon fill="black" stroke="black" points="1424.34,-42.51 1432.33,-35.56 1421.75,-36 1424.34,-42.51"/>
<text text-anchor="middle" x="799.28" y="-68.24" font-family="Times,serif" font-size="14.00">{c1, c2, c3}</text>
</g>
<!-- 4&#45;&gt;2 -->
<g id="edge62" class="edge">
<title>4&#45;&gt;2</title>
<path fill="none" stroke="black" d="M621.77,-114.2C666.91,-112.99 759.94,-107.02 832.78,-79.44 844.19,-75.12 844.14,-68.11 855.78,-64.44 970.92,-28.13 1280.43,-70.3 1398.78,-46.44 1406.81,-44.82 1415.2,-42.16 1422.95,-39.26"/>
<polygon fill="black" stroke="black" points="1424.33,-42.48 1432.33,-35.53 1421.74,-35.97 1424.33,-42.48"/>
<text text-anchor="middle" x="879.28" y="-68.24" font-family="Times,serif" font-size="14.00">{c2, c3}</text>
</g>
<!-- 4&#45;&gt;2 -->
<g id="edge63" class="edge">
<title>4&#45;&gt;2</title>
<path fill="none" stroke="black" d="M621.83,-112.97C687.02,-109.16 851.26,-97.99 902.78,-79.44 914.26,-75.31 914.15,-68.14 925.78,-64.44 1026.02,-32.56 1295.72,-67.48 1398.78,-46.44 1406.81,-44.8 1415.2,-42.13 1422.94,-39.23"/>
<polygon fill="black" stroke="black" points="1424.32,-42.45 1432.32,-35.51 1421.74,-35.95 1424.32,-42.45"/>
<text text-anchor="middle" x="939.28" y="-68.24" font-family="Times,serif" font-size="14.00">{c2}</text>
</g>
<!-- 4&#45;&gt;2 -->
<g id="edge64" class="edge">
<title>4&#45;&gt;2</title>
<path fill="none" stroke="black" d="M621.88,-113.46C694.41,-110.57 891.65,-100.91 952.78,-79.44 964.29,-75.4 964.16,-68.17 975.78,-64.44 1065.37,-35.72 1306.64,-65.47 1398.78,-46.44 1406.8,-44.78 1415.19,-42.11 1422.94,-39.21"/>
<polygon fill="black" stroke="black" points="1424.32,-42.43 1432.32,-35.48 1421.73,-35.92 1424.32,-42.43"/>
<text text-anchor="middle" x="999.28" y="-68.24" font-family="Times,serif" font-size="14.00">{c1, c2}</text>
</g>
<!-- 4&#45;&gt;2 -->
<g id="edge65" class="edge">
<title>4&#45;&gt;2</title>
<path fill="none" stroke="black" d="M621.74,-113.96C703.56,-112.24 948.01,-105.03 1022.78,-79.44 1034.33,-75.49 1034.17,-68.22 1045.78,-64.44 1120.47,-40.15 1321.92,-62.65 1398.78,-46.44 1406.8,-44.75 1415.18,-42.06 1422.93,-39.16"/>
<polygon fill="black" stroke="black" points="1424.31,-42.38 1432.31,-35.44 1421.72,-35.87 1424.31,-42.38"/>
<text text-anchor="middle" x="1059.28" y="-68.24" font-family="Times,serif" font-size="14.00">{c1}</text>
</g>
<!-- 4&#45;&gt;4 -->
<g id="edge54" class="edge">
<title>4&#45;&gt;4</title>
<path fill="none" stroke="black" d="M619.31,-123.19C630.29,-123.93 639.78,-121.35 639.78,-115.44 639.78,-111.47 635.49,-109 629.35,-108.04"/>
<polygon fill="black" stroke="black" points="629.43,-104.54 619.31,-107.69 629.19,-111.53 629.43,-104.54"/>
<text text-anchor="middle" x="646.78" y="-111.74" font-family="Times,serif" font-size="14.00">{}</text>
</g>
<!-- 5 -->
<g id="node7" class="node">
<title>5</title>
<ellipse fill="none" stroke="black" cx="319.78" cy="-24.44" rx="18" ry="18"/>
<ellipse fill="none" stroke="black" cx="319.78" cy="-24.44" rx="22" ry="22"/>
<text text-anchor="middle" x="319.78" y="-20.74" font-family="Times,serif" font-size="14.00">5</text>
</g>
<!-- 4&#45;&gt;5 -->
<g id="edge50" class="edge">
<title>4&#45;&gt;5</title>
<path fill="none" stroke="black" d="M567.74,-113.86C454.62,-111.29 24.33,-100.19 4.78,-79.44 -34.95,-37.29 199.66,-27.97 287.54,-25.97"/>
<polygon fill="black" stroke="black" points="287.82,-29.47 297.74,-25.76 287.67,-22.47 287.82,-29.47"/>
<text text-anchor="middle" x="38.28" y="-68.24" font-family="Times,serif" font-size="14.00">{c0, c1, c3}</text>
</g>
<!-- 4&#45;&gt;5 -->
<g id="edge51" class="edge">
<title>4&#45;&gt;5</title>
<path fill="none" stroke="black" d="M567.48,-114.65C467.74,-115.12 127.16,-114.17 94.78,-79.44 90.23,-74.57 90.49,-69.54 94.78,-64.44 119.06,-35.59 231.51,-28.08 287.67,-26.13"/>
<polygon fill="black" stroke="black" points="287.91,-29.62 297.79,-25.82 287.69,-22.63 287.91,-29.62"/>
<text text-anchor="middle" x="118.28" y="-68.24" font-family="Times,serif" font-size="14.00">{c0, c2}</text>
</g>
<!-- 4&#45;&gt;5 -->
<g id="edge52" class="edge">
<title>4&#45;&gt;5</title>
<path fill="none" stroke="black" d="M567.64,-114.32C477.48,-113.62 192.1,-109.08 164.78,-79.44 127.94,-39.49 232.01,-29.09 287.49,-26.39"/>
<polygon fill="black" stroke="black" points="287.72,-29.88 297.56,-25.96 287.42,-22.89 287.72,-29.88"/>
<text text-anchor="middle" x="208.78" y="-68.24" font-family="Times,serif" font-size="14.00">{c0, c1, c2, c3}</text>
</g>
<!-- 4&#45;&gt;5 -->
<g id="edge53" class="edge">
<title>4&#45;&gt;5</title>
<path fill="none" stroke="black" d="M567.91,-113.51C494.58,-110.68 295.16,-101.07 275.78,-79.44 264.85,-67.25 277.8,-52.84 292.42,-41.98"/>
<polygon fill="black" stroke="black" points="294.8,-44.59 301.05,-36.04 290.83,-38.82 294.8,-44.59"/>
<text text-anchor="middle" x="299.28" y="-68.24" font-family="Times,serif" font-size="14.00">{c0, c1}</text>
</g>
<!-- 4&#45;&gt;5 -->
<g id="edge55" class="edge">
<title>4&#45;&gt;5</title>
<path fill="none" stroke="black" d="M567.6,-113.79C510.55,-111.93 380.68,-104.93 345.78,-79.44 337.76,-73.58 332.1,-64.58 328.17,-55.6"/>
<polygon fill="black" stroke="black" points="331.35,-54.12 324.54,-46.01 324.8,-56.6 331.35,-54.12"/>
<text text-anchor="middle" x="379.28" y="-68.24" font-family="Times,serif" font-size="14.00">{c0, c2, c3}</text>
</g>
<!-- 4&#45;&gt;5 -->
<g id="edge56" class="edge">
<title>4&#45;&gt;5</title>
<path fill="none" stroke="black" d="M568.29,-111.58C535.99,-107.42 480.22,-98.09 435.78,-79.44 424.53,-74.72 423.56,-70.16 412.78,-64.44 392.32,-53.6 368.19,-43.55 349.63,-36.37"/>
<polygon fill="black" stroke="black" points="350.81,-33.07 340.22,-32.79 348.32,-39.62 350.81,-33.07"/>
<text text-anchor="middle" x="459.28" y="-68.24" font-family="Times,serif" font-size="14.00">{c0, c3}</text>
</g>
<!-- 4&#45;&gt;5 -->
<g id="edge57" class="edge">
<title>4&#45;&gt;5</title>
<path fill="none" stroke="black" d="M571.16,-106.63C552.89,-100.24 527.17,-90.48 505.78,-79.44 494.93,-73.85 493.99,-69.27 482.78,-64.44 439.37,-45.76 385.43,-35.08 351.79,-29.78"/>
<polygon fill="black" stroke="black" points="352.04,-26.27 341.63,-28.24 350.99,-33.19 352.04,-26.27"/>
<text text-anchor="middle" x="539.28" y="-68.24" font-family="Times,serif" font-size="14.00">{c0, c1, c2}</text>
</g>
<!-- 4&#45;&gt;5 -->
<g id="edge58" class="edge">
<title>4&#45;&gt;5</title>
<path fill="none" stroke="black" d="M591.68,-97.44C588.74,-86.32 583.16,-72.41 572.78,-64.44 538.77,-38.34 412.34,-29.43 352.1,-26.62"/>
<polygon fill="black" stroke="black" points="352.14,-23.12 342,-26.18 351.84,-30.12 352.14,-23.12"/>
<text text-anchor="middle" x="598.28" y="-68.24" font-family="Times,serif" font-size="14.00">{c0}</text>
</g>
<!-- 5&#45;&gt;5 -->
<g id="edge18" class="edge">
<title>5&#45;&gt;5</title>
<path fill="none" stroke="black" d="M341.99,-25.92C351.57,-26.04 359.78,-25.55 359.78,-24.44 359.78,-23.77 356.73,-23.32 352.18,-23.1"/>
<polygon fill="black" stroke="black" points="352.04,-19.6 341.99,-22.96 351.94,-26.6 352.04,-19.6"/>
<text text-anchor="middle" x="393.28" y="-20.74" font-family="Times,serif" font-size="14.00">{c0, c2, c3}</text>
</g>
<!-- 5&#45;&gt;5 -->
<g id="edge19" class="edge">
<title>5&#45;&gt;5</title>
<path fill="none" stroke="black" d="M342.13,-26.57C374.86,-28.23 426.78,-27.52 426.78,-24.44 426.78,-21.66 384.51,-20.82 352.2,-21.89"/>
<polygon fill="black" stroke="black" points="351.97,-18.4 342.13,-22.31 352.26,-25.4 351.97,-18.4"/>
<text text-anchor="middle" x="450.28" y="-20.74" font-family="Times,serif" font-size="14.00">{c1, c2}</text>
</g>
<!-- 5&#45;&gt;5 -->
<g id="edge20" class="edge">
<title>5&#45;&gt;5</title>
<path fill="none" stroke="black" d="M341.78,-27.07C386.79,-30.25 473.78,-29.38 473.78,-24.44 473.78,-19.85 398.59,-18.77 351.85,-21.2"/>
<polygon fill="black" stroke="black" points="351.55,-17.71 341.78,-21.81 351.97,-24.7 351.55,-17.71"/>
<text text-anchor="middle" x="497.28" y="-20.74" font-family="Times,serif" font-size="14.00">{c1, c3}</text>
</g>
<!-- 5&#45;&gt;5 -->
<g id="edge21" class="edge">
<title>5&#45;&gt;5</title>
<path fill="none" stroke="black" d="M341.87,-27.48C397.74,-32.27 520.78,-31.25 520.78,-24.44 520.78,-18.01 411.29,-16.75 351.98,-20.65"/>
<polygon fill="black" stroke="black" points="351.58,-17.17 341.87,-21.41 352.1,-24.15 351.58,-17.17"/>
<text text-anchor="middle" x="534.28" y="-20.74" font-family="Times,serif" font-size="14.00">{c1}</text>
</g>
<!-- 5&#45;&gt;5 -->
<g id="edge22" class="edge">
<title>5&#45;&gt;5</title>
<path fill="none" stroke="black" d="M341.54,-27.85C403.75,-34.27 547.78,-33.13 547.78,-24.44 547.78,-16.19 418.01,-14.75 351.62,-20.11"/>
<polygon fill="black" stroke="black" points="351.18,-16.64 341.54,-21.03 351.82,-23.61 351.18,-16.64"/>
<text text-anchor="middle" x="561.28" y="-20.74" font-family="Times,serif" font-size="14.00">{c0}</text>
</g>
<!-- 5&#45;&gt;5 -->
<g id="edge23" class="edge">
<title>5&#45;&gt;5</title>
<path fill="none" stroke="black" d="M341.79,-28.22C410.54,-36.27 574.78,-35.01 574.78,-24.44 574.78,-14.37 425.58,-12.75 352.06,-19.59"/>
<polygon fill="black" stroke="black" points="351.38,-16.15 341.79,-20.66 352.1,-23.11 351.38,-16.15"/>
<text text-anchor="middle" x="608.28" y="-20.74" font-family="Times,serif" font-size="14.00">{c0, c1, c2}</text>
</g>
<!-- 5&#45;&gt;5 -->
<g id="edge24" class="edge">
<title>5&#45;&gt;5</title>
<path fill="none" stroke="black" d="M341.46,-28.31C422.16,-38.29 641.78,-37.01 641.78,-24.44 641.78,-12.37 438.99,-10.71 351.54,-19.46"/>
<polygon fill="black" stroke="black" points="351.02,-15.99 341.46,-20.58 351.79,-22.95 351.02,-15.99"/>
<text text-anchor="middle" x="648.78" y="-20.74" font-family="Times,serif" font-size="14.00">{}</text>
</g>
<!-- 5&#45;&gt;5 -->
<g id="edge25" class="edge">
<title>5&#45;&gt;5</title>
<path fill="none" stroke="black" d="M341.52,-28.6C426.99,-40.29 659.78,-38.91 659.78,-24.44 659.78,-10.51 443.95,-8.71 351.62,-19.04"/>
<polygon fill="black" stroke="black" points="351.01,-15.59 341.52,-20.29 351.87,-22.53 351.01,-15.59"/>
<text text-anchor="middle" x="673.28" y="-20.74" font-family="Times,serif" font-size="14.00">{c2}</text>
</g>
<!-- 5&#45;&gt;5 -->
<g id="edge26" class="edge">
<title>5&#45;&gt;5</title>
<path fill="none" stroke="black" d="M341.53,-28.81C433.03,-42.3 686.78,-40.84 686.78,-24.44 686.78,-8.6 450.08,-6.7 351.47,-18.74"/>
<polygon fill="black" stroke="black" points="350.98,-15.27 341.53,-20.07 351.91,-22.21 350.98,-15.27"/>
<text text-anchor="middle" x="720.28" y="-20.74" font-family="Times,serif" font-size="14.00">{c1, c2, c3}</text>
</g>
<!-- 5&#45;&gt;5 -->
<g id="edge27" class="edge">
<title>5&#45;&gt;5</title>
<path fill="none" stroke="black" d="M341.37,-28.86C443.49,-44.31 753.78,-42.84 753.78,-24.44 753.78,-6.62 462.58,-4.68 351.54,-18.62"/>
<polygon fill="black" stroke="black" points="350.8,-15.19 341.37,-20.02 351.76,-22.13 350.8,-15.19"/>
<text text-anchor="middle" x="767.28" y="-20.74" font-family="Times,serif" font-size="14.00">{c3}</text>
</g>
<!-- 5&#45;&gt;5 -->
<g id="edge28" class="edge">
<title>5&#45;&gt;5</title>
<path fill="none" stroke="black" d="M341.36,-29.03C449.22,-46.32 780.78,-44.79 780.78,-24.44 780.78,-4.69 468.36,-2.67 351.4,-18.38"/>
<polygon fill="black" stroke="black" points="350.74,-14.94 341.36,-19.85 351.76,-21.87 350.74,-14.94"/>
<text text-anchor="middle" x="804.28" y="-20.74" font-family="Times,serif" font-size="14.00">{c0, c1}</text>
</g>
<!-- 5&#45;&gt;5 -->
<g id="edge29" class="edge">
<title>5&#45;&gt;5</title>
<path fill="none" stroke="black" d="M341.42,-29.15C457.27,-48.32 827.78,-46.75 827.78,-24.44 827.78,-2.74 477.26,-0.66 351.49,-18.21"/>
<polygon fill="black" stroke="black" points="350.79,-14.77 341.42,-19.73 351.84,-21.7 350.79,-14.77"/>
<text text-anchor="middle" x="871.78" y="-20.74" font-family="Times,serif" font-size="14.00">{c0, c1, c2, c3}</text>
</g>
<!-- 5&#45;&gt;5 -->
<g id="edge30" class="edge">
<title>5&#45;&gt;5</title>
<path fill="none" stroke="black" d="M341.33,-29.14C468.82,-50.33 915.78,-48.77 915.78,-24.44 915.78,-0.71 490.38,1.36 351.23,-18.23"/>
<polygon fill="black" stroke="black" points="350.69,-14.77 341.33,-19.74 351.74,-21.69 350.69,-14.77"/>
<text text-anchor="middle" x="939.28" y="-20.74" font-family="Times,serif" font-size="14.00">{c0, c2}</text>
</g>
<!-- 5&#45;&gt;5 -->
<g id="edge31" class="edge">
<title>5&#45;&gt;5</title>
<path fill="none" stroke="black" d="M341.63,-29.29C476.91,-52.34 962.78,-50.72 962.78,-24.44 962.78,1.22 499.41,3.36 351.71,-18.01"/>
<polygon fill="black" stroke="black" points="350.97,-14.59 341.63,-19.59 352.05,-21.5 350.97,-14.59"/>
<text text-anchor="middle" x="986.28" y="-20.74" font-family="Times,serif" font-size="14.00">{c0, c3}</text>
</g>
<!-- 5&#45;&gt;5 -->
<g id="edge32" class="edge">
<title>5&#45;&gt;5</title>
<path fill="none" stroke="black" d="M341.33,-29.33C483.44,-54.34 1009.78,-52.71 1009.78,-24.44 1009.78,3.2 506.82,5.37 351.48,-17.91"/>
<polygon fill="black" stroke="black" points="350.64,-14.5 341.33,-19.55 351.76,-21.41 350.64,-14.5"/>
<text text-anchor="middle" x="1033.28" y="-20.74" font-family="Times,serif" font-size="14.00">{c2, c3}</text>
</g>
<!-- 5&#45;&gt;5 -->
<g id="edge33" class="edge">
<title>5&#45;&gt;5</title>
<path fill="none" stroke="black" d="M341.3,-29.4C490.52,-56.35 1056.78,-54.69 1056.78,-24.44 1056.78,5.16 514.59,7.38 351.49,-17.78"/>
<polygon fill="black" stroke="black" points="350.59,-14.38 341.3,-19.48 351.74,-21.29 350.59,-14.38"/>
<text text-anchor="middle" x="1090.28" y="-20.74" font-family="Times,serif" font-size="14.00">{c0, c1, c3}</text>
</g>
</g>
</svg>
