<?xml version="1.0" encoding="UTF-8" standalone="no"?>
<!DOCTYPE svg PUBLIC "-//W3C//DTD SVG 1.1//EN"
 "http://www.w3.org/Graphics/SVG/1.1/DTD/svg11.dtd">
<!-- Generated by graphviz version 2.43.0 (0)
 -->
<!-- Title: %3 Pages: 1 -->
<svg width="1049pt" height="386pt"
 viewBox="0.00 0.00 1049.02 386.00" xmlns="http://www.w3.org/2000/svg" xmlns:xlink="http://www.w3.org/1999/xlink">
<g id="graph0" class="graph" transform="scale(1 1) rotate(0) translate(4 382)">
<title>%3</title>
<polygon fill="white" stroke="transparent" points="-4,4 -4,-382 1045.02,-382 1045.02,4 -4,4"/>
<!-- fake -->
<g id="node1" class="node">
<title>fake</title>
</g>
<!-- 0 -->
<g id="node2" class="node">
<title>0</title>
<ellipse fill="none" stroke="black" cx="572.02" cy="-287" rx="27" ry="18"/>
<text text-anchor="middle" x="572.02" y="-283.3" font-family="Times,serif" font-size="14.00">0</text>
</g>
<!-- fake&#45;&gt;0 -->
<g id="edge1" class="edge">
<title>fake&#45;&gt;0</title>
<path fill="none" stroke="black" stroke-width="2" d="M572.02,-341.81C572.02,-333.79 572.02,-324.05 572.02,-315.07"/>
<polygon fill="black" stroke="black" stroke-width="2" points="575.52,-315.03 572.02,-305.03 568.52,-315.03 575.52,-315.03"/>
</g>
<!-- 0&#45;&gt;0 -->
<g id="edge5" class="edge">
<title>0&#45;&gt;0</title>
<path fill="none" stroke="black" d="M597.46,-293.69C608.04,-294.15 617.02,-291.92 617.02,-287 617.02,-283.77 613.15,-281.7 607.5,-280.79"/>
<polygon fill="black" stroke="black" points="607.61,-277.29 597.46,-280.31 607.28,-284.28 607.61,-277.29"/>
<text text-anchor="middle" x="624.02" y="-283.3" font-family="Times,serif" font-size="14.00">{}</text>
</g>
<!-- 1 -->
<g id="node3" class="node">
<title>1</title>
<ellipse fill="none" stroke="black" cx="412.02" cy="-200" rx="27" ry="18"/>
<text text-anchor="middle" x="412.02" y="-196.3" font-family="Times,serif" font-size="14.00">1</text>
</g>
<!-- 0&#45;&gt;1 -->
<g id="edge2" class="edge">
<title>0&#45;&gt;1</title>
<path fill="none" stroke="black" d="M544.84,-285.62C493.65,-284.26 386.01,-278.17 363.02,-251 352.55,-238.63 366.27,-225.59 381.83,-215.92"/>
<polygon fill="black" stroke="black" points="383.59,-218.95 390.52,-210.93 380.1,-212.88 383.59,-218.95"/>
<text text-anchor="middle" x="376.52" y="-239.8" font-family="Times,serif" font-size="14.00">{c0}</text>
</g>
<!-- 0&#45;&gt;1 -->
<g id="edge3" class="edge">
<title>0&#45;&gt;1</title>
<path fill="none" stroke="black" d="M545.27,-284.02C504.43,-280.39 429.51,-271.1 413.02,-251 407.83,-244.68 406.32,-236.23 406.49,-228.09"/>
<polygon fill="black" stroke="black" points="409.98,-228.4 407.45,-218.12 403.01,-227.73 409.98,-228.4"/>
<text text-anchor="middle" x="436.52" y="-239.8" font-family="Times,serif" font-size="14.00">{c0, c1}</text>
</g>
<!-- 0&#45;&gt;1 -->
<g id="edge4" class="edge">
<title>0&#45;&gt;1</title>
<path fill="none" stroke="black" d="M548.28,-278.41C529.95,-272.13 504.21,-262.42 483.02,-251 478.25,-248.43 456.52,-233.03 438.33,-219.99"/>
<polygon fill="black" stroke="black" points="439.95,-216.84 429.78,-213.85 435.86,-222.52 439.95,-216.84"/>
<text text-anchor="middle" x="516.52" y="-239.8" font-family="Times,serif" font-size="14.00">{c0, c1, c2}</text>
</g>
<!-- 0&#45;&gt;1 -->
<g id="edge6" class="edge">
<title>0&#45;&gt;1</title>
<path fill="none" stroke="black" d="M568.54,-268.83C565.46,-257.92 559.86,-244.33 550.02,-236 521.83,-212.15 479.55,-204.21 449.22,-201.74"/>
<polygon fill="black" stroke="black" points="449.24,-198.24 439.03,-201.08 448.78,-205.22 449.24,-198.24"/>
<text text-anchor="middle" x="583.52" y="-239.8" font-family="Times,serif" font-size="14.00">{c0, c2}</text>
</g>
<!-- 2 -->
<g id="node4" class="node">
<title>2</title>
<ellipse fill="none" stroke="black" cx="567.02" cy="-22" rx="27" ry="18"/>
<text text-anchor="middle" x="567.02" y="-18.3" font-family="Times,serif" font-size="14.00">2</text>
</g>
<!-- 0&#45;&gt;2 -->
<g id="edge7" class="edge">
<title>0&#45;&gt;2</title>
<path fill="none" stroke="black" d="M591.21,-274.07C598.88,-268.17 606.86,-260.31 611.02,-251 613.73,-244.91 611.28,-242.66 611.02,-236 608.57,-173.19 615.7,-155.87 600.02,-95 595.82,-78.71 588.1,-61.55 581.18,-48.07"/>
<polygon fill="black" stroke="black" points="584.13,-46.16 576.35,-38.97 577.95,-49.45 584.13,-46.16"/>
<text text-anchor="middle" x="623.52" y="-152.8" font-family="Times,serif" font-size="14.00">{c2}</text>
</g>
<!-- 0&#45;&gt;2 -->
<g id="edge8" class="edge">
<title>0&#45;&gt;2</title>
<path fill="none" stroke="black" d="M594.28,-276.49C605.21,-270.69 617.59,-262.22 625.02,-251 650.34,-212.73 649.96,-194.01 641.02,-149 632.86,-107.96 628.03,-96.95 605.02,-62 600.8,-55.6 595.44,-49.33 590.08,-43.77"/>
<polygon fill="black" stroke="black" points="592.46,-41.2 582.89,-36.66 587.54,-46.18 592.46,-41.2"/>
<text text-anchor="middle" x="666.52" y="-152.8" font-family="Times,serif" font-size="14.00">{c1, c2}</text>
</g>
<!-- 0&#45;&gt;2 -->
<g id="edge9" class="edge">
<title>0&#45;&gt;2</title>
<path fill="none" stroke="black" d="M595.84,-278.28C610.71,-272.54 629.53,-263.54 643.02,-251 680.13,-216.48 711.03,-196.74 694.02,-149 676.49,-99.79 627.17,-60.86 595.41,-39.94"/>
<polygon fill="black" stroke="black" points="597.26,-36.97 586.95,-34.52 593.48,-42.86 597.26,-36.97"/>
<text text-anchor="middle" x="710.52" y="-152.8" font-family="Times,serif" font-size="14.00">{c1}</text>
</g>
<!-- 1&#45;&gt;1 -->
<g id="edge11" class="edge">
<title>1&#45;&gt;1</title>
<path fill="none" stroke="black" d="M436.55,-207.75C447.52,-208.49 457.02,-205.91 457.02,-200 457.02,-196.03 452.73,-193.56 446.59,-192.59"/>
<polygon fill="black" stroke="black" points="446.66,-189.09 436.55,-192.25 446.42,-196.09 446.66,-189.09"/>
<text text-anchor="middle" x="464.02" y="-196.3" font-family="Times,serif" font-size="14.00">{}</text>
</g>
<!-- 1&#45;&gt;2 -->
<g id="edge15" class="edge">
<title>1&#45;&gt;2</title>
<path fill="none" stroke="black" d="M415.06,-182.04C419.51,-160.49 429.24,-122.75 447.02,-95 458.55,-77 463.83,-73.25 482.02,-62 501.75,-49.79 510.03,-53.88 531.02,-44 533.66,-42.76 536.36,-41.39 539.03,-39.96"/>
<polygon fill="black" stroke="black" points="540.91,-42.92 547.92,-34.98 537.49,-36.81 540.91,-42.92"/>
<text text-anchor="middle" x="460.52" y="-109.3" font-family="Times,serif" font-size="14.00">{c2}</text>
</g>
<!-- 1&#45;&gt;2 -->
<g id="edge16" class="edge">
<title>1&#45;&gt;2</title>
<path fill="none" stroke="black" d="M425.68,-184.25C438.33,-170.55 457.59,-149.53 474.02,-131 499.77,-101.93 528.9,-67.91 547.59,-45.94"/>
<polygon fill="black" stroke="black" points="550.41,-48.03 554.21,-38.14 545.07,-43.5 550.41,-48.03"/>
<text text-anchor="middle" x="527.52" y="-109.3" font-family="Times,serif" font-size="14.00">{c0, c2}</text>
</g>
<!-- 1&#45;&gt;2 -->
<g id="edge17" class="edge">
<title>1&#45;&gt;2</title>
<path fill="none" stroke="black" d="M437.81,-194.59C470.86,-187.48 527.19,-170.08 555.02,-131 571.72,-107.55 572.77,-73.67 570.9,-50.14"/>
<polygon fill="black" stroke="black" points="574.37,-49.72 569.88,-40.13 567.41,-50.43 574.37,-49.72"/>
<text text-anchor="middle" x="582.52" y="-109.3" font-family="Times,serif" font-size="14.00">{c0}</text>
</g>
<!-- 3 -->
<g id="node5" class="node">
<title>3</title>
<ellipse fill="none" stroke="black" cx="211.02" cy="-113" rx="27" ry="18"/>
<text text-anchor="middle" x="211.02" y="-109.3" font-family="Times,serif" font-size="14.00">3</text>
</g>
<!-- 1&#45;&gt;3 -->
<g id="edge10" class="edge">
<title>1&#45;&gt;3</title>
<path fill="none" stroke="black" d="M384.61,-199.46C325.83,-199.8 190.63,-196.9 162.02,-164 151.38,-151.77 165.11,-138.72 180.71,-129.02"/>
<polygon fill="black" stroke="black" points="182.51,-132.02 189.43,-124 179.02,-125.96 182.51,-132.02"/>
<text text-anchor="middle" x="175.52" y="-152.8" font-family="Times,serif" font-size="14.00">{c1}</text>
</g>
<!-- 1&#45;&gt;3 -->
<g id="edge12" class="edge">
<title>1&#45;&gt;3</title>
<path fill="none" stroke="black" d="M384.9,-198.35C335.53,-196.53 234.04,-189.69 212.02,-164 206.61,-157.7 205.11,-149.13 205.34,-140.86"/>
<polygon fill="black" stroke="black" points="208.84,-141.06 206.4,-130.75 201.88,-140.33 208.84,-141.06"/>
<text text-anchor="middle" x="245.52" y="-152.8" font-family="Times,serif" font-size="14.00">{c0, c1, c2}</text>
</g>
<!-- 1&#45;&gt;3 -->
<g id="edge13" class="edge">
<title>1&#45;&gt;3</title>
<path fill="none" stroke="black" d="M386.82,-193.06C364.04,-187.21 329.9,-177.23 302.02,-164 290.99,-158.77 289.57,-155.13 279.02,-149 266.97,-142 253.37,-134.85 241.52,-128.86"/>
<polygon fill="black" stroke="black" points="242.96,-125.67 232.45,-124.33 239.83,-131.93 242.96,-125.67"/>
<text text-anchor="middle" x="325.52" y="-152.8" font-family="Times,serif" font-size="14.00">{c0, c1}</text>
</g>
<!-- 1&#45;&gt;3 -->
<g id="edge14" class="edge">
<title>1&#45;&gt;3</title>
<path fill="none" stroke="black" d="M396.31,-185.27C381.13,-172.25 359.03,-153.96 349.02,-149 316.56,-132.94 276.06,-123.8 247.34,-118.92"/>
<polygon fill="black" stroke="black" points="247.77,-115.44 237.34,-117.3 246.65,-122.35 247.77,-115.44"/>
<text text-anchor="middle" x="393.52" y="-152.8" font-family="Times,serif" font-size="14.00">{c1, c2}</text>
</g>
<!-- 2&#45;&gt;2 -->
<g id="edge34" class="edge">
<title>2&#45;&gt;2</title>
<path fill="none" stroke="black" d="M594.26,-23.5C604.04,-23.53 612.02,-23.03 612.02,-22 612.02,-21.37 609.05,-20.94 604.53,-20.71"/>
<polygon fill="black" stroke="black" points="604.33,-17.2 594.26,-20.5 604.18,-24.2 604.33,-17.2"/>
<text text-anchor="middle" x="625.52" y="-18.3" font-family="Times,serif" font-size="14.00">{c2}</text>
</g>
<!-- 2&#45;&gt;2 -->
<g id="edge35" class="edge">
<title>2&#45;&gt;2</title>
<path fill="none" stroke="black" d="M593.77,-24.61C615.46,-25.59 639.02,-24.72 639.02,-22 639.02,-19.71 622.24,-18.73 603.97,-19.06"/>
<polygon fill="black" stroke="black" points="603.65,-15.57 593.77,-19.39 603.87,-22.57 603.65,-15.57"/>
<text text-anchor="middle" x="672.52" y="-18.3" font-family="Times,serif" font-size="14.00">{c0, c1, c2}</text>
</g>
<!-- 2&#45;&gt;2 -->
<g id="edge36" class="edge">
<title>2&#45;&gt;2</title>
<path fill="none" stroke="black" d="M593.92,-25.02C636.63,-27.73 706.02,-26.72 706.02,-22 706.02,-17.64 646.8,-16.45 604.1,-18.43"/>
<polygon fill="black" stroke="black" points="603.71,-14.94 593.92,-18.98 604.09,-21.93 603.71,-14.94"/>
<text text-anchor="middle" x="729.52" y="-18.3" font-family="Times,serif" font-size="14.00">{c1, c2}</text>
</g>
<!-- 2&#45;&gt;2 -->
<g id="edge37" class="edge">
<title>2&#45;&gt;2</title>
<path fill="none" stroke="black" d="M593.67,-25.45C648.58,-29.76 753.02,-28.61 753.02,-22 753.02,-15.78 660.46,-14.4 603.8,-17.85"/>
<polygon fill="black" stroke="black" points="603.4,-14.37 593.67,-18.55 603.89,-21.35 603.4,-14.37"/>
<text text-anchor="middle" x="776.52" y="-18.3" font-family="Times,serif" font-size="14.00">{c0, c2}</text>
</g>
<!-- 2&#45;&gt;2 -->
<g id="edge38" class="edge">
<title>2&#45;&gt;2</title>
<path fill="none" stroke="black" d="M593.49,-25.79C659.34,-31.78 800.02,-30.52 800.02,-22 800.02,-13.9 672.74,-12.36 603.64,-17.38"/>
<polygon fill="black" stroke="black" points="603.17,-13.91 593.49,-18.21 603.74,-20.89 603.17,-13.91"/>
<text text-anchor="middle" x="813.52" y="-18.3" font-family="Times,serif" font-size="14.00">{c0}</text>
</g>
<!-- 2&#45;&gt;2 -->
<g id="edge39" class="edge">
<title>2&#45;&gt;2</title>
<path fill="none" stroke="black" d="M593.53,-26.2C666.06,-33.78 827.02,-32.38 827.02,-22 827.02,-12.08 680.2,-10.36 603.82,-16.83"/>
<polygon fill="black" stroke="black" points="603.16,-13.38 593.53,-17.8 603.81,-20.35 603.16,-13.38"/>
<text text-anchor="middle" x="834.02" y="-18.3" font-family="Times,serif" font-size="14.00">{}</text>
</g>
<!-- 2&#45;&gt;2 -->
<g id="edge40" class="edge">
<title>2&#45;&gt;2</title>
<path fill="none" stroke="black" d="M593.34,-26.56C670.83,-35.78 845.02,-34.26 845.02,-22 845.02,-10.24 684.83,-8.36 603.35,-16.36"/>
<polygon fill="black" stroke="black" points="602.91,-12.88 593.34,-17.44 603.66,-19.84 602.91,-12.88"/>
<text text-anchor="middle" x="858.52" y="-18.3" font-family="Times,serif" font-size="14.00">{c1}</text>
</g>
<!-- 2&#45;&gt;2 -->
<g id="edge41" class="edge">
<title>2&#45;&gt;2</title>
<path fill="none" stroke="black" d="M593.1,-26.82C677.02,-37.79 872.02,-36.19 872.02,-22 872.02,-8.35 691.59,-6.35 603.16,-15.98"/>
<polygon fill="black" stroke="black" points="602.62,-12.52 593.1,-17.18 603.45,-19.47 602.62,-12.52"/>
<text text-anchor="middle" x="895.52" y="-18.3" font-family="Times,serif" font-size="14.00">{c0, c1}</text>
</g>
<!-- 3&#45;&gt;2 -->
<g id="edge31" class="edge">
<title>3&#45;&gt;2</title>
<path fill="none" stroke="black" d="M227.92,-98.88C245.51,-85.51 272.13,-66.16 284.02,-62 387.91,-25.64 425.88,-76.57 531.02,-44 534.03,-43.07 537.06,-41.84 540.02,-40.45"/>
<polygon fill="black" stroke="black" points="541.91,-43.41 549.08,-35.61 538.61,-37.23 541.91,-43.41"/>
<text text-anchor="middle" x="297.52" y="-65.8" font-family="Times,serif" font-size="14.00">{c0}</text>
</g>
<!-- 3&#45;&gt;2 -->
<g id="edge32" class="edge">
<title>3&#45;&gt;2</title>
<path fill="none" stroke="black" d="M235.52,-105.23C256.18,-99.1 286.26,-89.18 311.02,-77 321.97,-71.61 322.49,-66.01 334.02,-62 417.06,-33.14 447.28,-70.79 531.02,-44 534.02,-43.04 537.05,-41.8 540,-40.4"/>
<polygon fill="black" stroke="black" points="541.9,-43.35 549.06,-35.54 538.59,-37.18 541.9,-43.35"/>
<text text-anchor="middle" x="347.52" y="-65.8" font-family="Times,serif" font-size="14.00">{c1}</text>
</g>
<!-- 3&#45;&gt;2 -->
<g id="edge33" class="edge">
<title>3&#45;&gt;2</title>
<path fill="none" stroke="black" d="M237.36,-108.69C268.01,-104.2 319.7,-94.64 361.02,-77 372.24,-72.21 372.55,-66.18 384.02,-62 445.85,-39.44 468.64,-65.01 531.02,-44 533.94,-43.02 536.89,-41.78 539.77,-40.4"/>
<polygon fill="black" stroke="black" points="541.49,-43.44 548.65,-35.64 538.18,-37.27 541.49,-43.44"/>
<text text-anchor="middle" x="407.52" y="-65.8" font-family="Times,serif" font-size="14.00">{c0, c1}</text>
</g>
<!-- 3&#45;&gt;3 -->
<g id="edge27" class="edge">
<title>3&#45;&gt;3</title>
<path fill="none" stroke="black" d="M235.55,-120.75C246.52,-121.49 256.02,-118.91 256.02,-113 256.02,-109.03 251.73,-106.56 245.59,-105.59"/>
<polygon fill="black" stroke="black" points="245.66,-102.09 235.55,-105.25 245.42,-109.09 245.66,-102.09"/>
<text text-anchor="middle" x="263.02" y="-109.3" font-family="Times,serif" font-size="14.00">{}</text>
</g>
<!-- 4 -->
<g id="node6" class="node">
<title>4</title>
<ellipse fill="none" stroke="black" cx="53.02" cy="-22" rx="18" ry="18"/>
<ellipse fill="none" stroke="black" cx="53.02" cy="-22" rx="22" ry="22"/>
<text text-anchor="middle" x="53.02" y="-18.3" font-family="Times,serif" font-size="14.00">4</text>
</g>
<!-- 3&#45;&gt;4 -->
<g id="edge26" class="edge">
<title>3&#45;&gt;4</title>
<path fill="none" stroke="black" d="M184.1,-111.58C133.39,-110.15 26.78,-103.93 4.02,-77 -7.4,-63.5 8.23,-48.66 24.78,-37.96"/>
<polygon fill="black" stroke="black" points="26.63,-40.93 33.39,-32.77 23.02,-34.93 26.63,-40.93"/>
<text text-anchor="middle" x="17.52" y="-65.8" font-family="Times,serif" font-size="14.00">{c2}</text>
</g>
<!-- 3&#45;&gt;4 -->
<g id="edge28" class="edge">
<title>3&#45;&gt;4</title>
<path fill="none" stroke="black" d="M184.27,-109.94C143.86,-106.22 70.23,-96.84 54.02,-77 48.7,-70.5 46.98,-61.93 47,-53.54"/>
<polygon fill="black" stroke="black" points="50.49,-53.79 47.75,-43.55 43.51,-53.27 50.49,-53.79"/>
<text text-anchor="middle" x="77.52" y="-65.8" font-family="Times,serif" font-size="14.00">{c0, c2}</text>
</g>
<!-- 3&#45;&gt;4 -->
<g id="edge29" class="edge">
<title>3&#45;&gt;4</title>
<path fill="none" stroke="black" d="M186.96,-104.28C169.04,-98.07 144.26,-88.49 124.02,-77 114.61,-71.66 94.34,-56.08 77.85,-43.01"/>
<polygon fill="black" stroke="black" points="79.66,-39.98 69.66,-36.48 75.29,-45.45 79.66,-39.98"/>
<text text-anchor="middle" x="147.52" y="-65.8" font-family="Times,serif" font-size="14.00">{c1, c2}</text>
</g>
<!-- 3&#45;&gt;4 -->
<g id="edge30" class="edge">
<title>3&#45;&gt;4</title>
<path fill="none" stroke="black" d="M201.69,-95.98C194.56,-85.01 183.79,-70.89 171.02,-62 144.98,-43.89 109.93,-33.72 84.81,-28.34"/>
<polygon fill="black" stroke="black" points="85.2,-24.85 74.71,-26.32 83.83,-31.71 85.2,-24.85"/>
<text text-anchor="middle" x="220.52" y="-65.8" font-family="Times,serif" font-size="14.00">{c0, c1, c2}</text>
</g>
<!-- 4&#45;&gt;4 -->
<g id="edge18" class="edge">
<title>4&#45;&gt;4</title>
<path fill="none" stroke="black" d="M75.23,-23.48C84.81,-23.6 93.02,-23.11 93.02,-22 93.02,-21.32 89.97,-20.88 85.42,-20.66"/>
<polygon fill="black" stroke="black" points="85.28,-17.16 75.23,-20.52 85.18,-24.15 85.28,-17.16"/>
<text text-anchor="middle" x="116.52" y="-18.3" font-family="Times,serif" font-size="14.00">{c0, c1}</text>
</g>
<!-- 4&#45;&gt;4 -->
<g id="edge19" class="edge">
<title>4&#45;&gt;4</title>
<path fill="none" stroke="black" d="M75.19,-24.27C102.35,-25.74 140.02,-24.98 140.02,-22 140.02,-19.38 110.92,-18.47 85.43,-19.29"/>
<polygon fill="black" stroke="black" points="85.03,-15.8 75.19,-19.73 85.33,-22.8 85.03,-15.8"/>
<text text-anchor="middle" x="173.52" y="-18.3" font-family="Times,serif" font-size="14.00">{c0, c1, c2}</text>
</g>
<!-- 4&#45;&gt;4 -->
<g id="edge20" class="edge">
<title>4&#45;&gt;4</title>
<path fill="none" stroke="black" d="M75.01,-24.63C120.02,-27.81 207.02,-26.93 207.02,-22 207.02,-17.41 131.83,-16.33 85.09,-18.76"/>
<polygon fill="black" stroke="black" points="84.78,-15.27 75.01,-19.37 85.21,-22.26 84.78,-15.27"/>
<text text-anchor="middle" x="230.52" y="-18.3" font-family="Times,serif" font-size="14.00">{c0, c2}</text>
</g>
<!-- 4&#45;&gt;4 -->
<g id="edge21" class="edge">
<title>4&#45;&gt;4</title>
<path fill="none" stroke="black" d="M75.11,-25.03C130.98,-29.82 254.02,-28.81 254.02,-22 254.02,-15.57 144.52,-14.31 85.21,-18.21"/>
<polygon fill="black" stroke="black" points="84.82,-14.73 75.11,-18.97 85.34,-21.71 84.82,-14.73"/>
<text text-anchor="middle" x="267.52" y="-18.3" font-family="Times,serif" font-size="14.00">{c1}</text>
</g>
<!-- 4&#45;&gt;4 -->
<g id="edge22" class="edge">
<title>4&#45;&gt;4</title>
<path fill="none" stroke="black" d="M74.78,-25.41C136.99,-31.83 281.02,-30.69 281.02,-22 281.02,-13.75 151.24,-12.31 84.86,-17.67"/>
<polygon fill="black" stroke="black" points="84.42,-14.19 74.78,-18.59 85.06,-21.17 84.42,-14.19"/>
<text text-anchor="middle" x="304.52" y="-18.3" font-family="Times,serif" font-size="14.00">{c1, c2}</text>
</g>
<!-- 4&#45;&gt;4 -->
<g id="edge23" class="edge">
<title>4&#45;&gt;4</title>
<path fill="none" stroke="black" d="M74.86,-25.67C146.67,-33.84 328.02,-32.62 328.02,-22 328.02,-11.86 162.59,-10.29 85.17,-17.29"/>
<polygon fill="black" stroke="black" points="84.45,-13.84 74.86,-18.33 85.16,-20.8 84.45,-13.84"/>
<text text-anchor="middle" x="341.52" y="-18.3" font-family="Times,serif" font-size="14.00">{c0}</text>
</g>
<!-- 4&#45;&gt;4 -->
<g id="edge24" class="edge">
<title>4&#45;&gt;4</title>
<path fill="none" stroke="black" d="M74.88,-25.96C152.84,-35.84 355.02,-34.52 355.02,-22 355.02,-9.98 168.7,-8.28 84.82,-16.9"/>
<polygon fill="black" stroke="black" points="84.42,-13.43 74.88,-18.04 85.21,-20.38 84.42,-13.43"/>
<text text-anchor="middle" x="368.52" y="-18.3" font-family="Times,serif" font-size="14.00">{c2}</text>
</g>
<!-- 4&#45;&gt;4 -->
<g id="edge25" class="edge">
<title>4&#45;&gt;4</title>
<path fill="none" stroke="black" d="M74.74,-26.19C158.71,-37.85 382.02,-36.45 382.02,-22 382.02,-8.1 175.39,-6.27 84.92,-16.53"/>
<polygon fill="black" stroke="black" points="84.23,-13.09 74.74,-17.81 85.1,-20.04 84.23,-13.09"/>
<text text-anchor="middle" x="389.02" y="-18.3" font-family="Times,serif" font-size="14.00">{}</text>
</g>
</g>
</svg>
