<?xml version="1.0" encoding="UTF-8" standalone="no"?>
<!DOCTYPE svg PUBLIC "-//W3C//DTD SVG 1.1//EN"
 "http://www.w3.org/Graphics/SVG/1.1/DTD/svg11.dtd">
<!-- Generated by graphviz version 2.43.0 (0)
 -->
<!-- Title: %3 Pages: 1 -->
<svg width="637pt" height="473pt"
 viewBox="0.00 0.00 636.77 473.00" xmlns="http://www.w3.org/2000/svg" xmlns:xlink="http://www.w3.org/1999/xlink">
<g id="graph0" class="graph" transform="scale(1 1) rotate(0) translate(4 469)">
<title>%3</title>
<polygon fill="white" stroke="transparent" points="-4,4 -4,-469 632.77,-469 632.77,4 -4,4"/>
<!-- fake -->
<g id="node1" class="node">
<title>fake</title>
</g>
<!-- 0 -->
<g id="node3" class="node">
<title>0</title>
<ellipse fill="none" stroke="black" cx="284.77" cy="-374" rx="27" ry="18"/>
<text text-anchor="middle" x="284.77" y="-370.3" font-family="Times,serif" font-size="14.00">0</text>
</g>
<!-- fake&#45;&gt;0 -->
<g id="edge1" class="edge">
<title>fake&#45;&gt;0</title>
<path fill="none" stroke="black" stroke-width="2" d="M284.77,-428.81C284.77,-420.79 284.77,-411.05 284.77,-402.07"/>
<polygon fill="black" stroke="black" stroke-width="2" points="288.27,-402.03 284.77,-392.03 281.27,-402.03 288.27,-402.03"/>
</g>
<!-- 3 -->
<g id="node2" class="node">
<title>3</title>
<ellipse fill="none" stroke="black" cx="102.77" cy="-113" rx="27" ry="18"/>
<text text-anchor="middle" x="102.77" y="-109.3" font-family="Times,serif" font-size="14.00">3</text>
</g>
<!-- 3&#45;&gt;3 -->
<g id="edge6" class="edge">
<title>3&#45;&gt;3</title>
<path fill="none" stroke="black" d="M127.3,-120.75C138.28,-121.49 147.77,-118.91 147.77,-113 147.77,-109.03 143.49,-106.56 137.35,-105.59"/>
<polygon fill="black" stroke="black" points="137.42,-102.09 127.3,-105.25 137.18,-109.09 137.42,-102.09"/>
<text text-anchor="middle" x="154.77" y="-109.3" font-family="Times,serif" font-size="14.00">{}</text>
</g>
<!-- 3&#45;&gt;0 -->
<g id="edge2" class="edge">
<title>3&#45;&gt;0</title>
<path fill="none" stroke="black" d="M100.01,-130.99C94.31,-172.37 86.04,-279.28 140.77,-338 155.2,-353.48 210.56,-363.52 248.28,-368.72"/>
<polygon fill="black" stroke="black" points="248.03,-372.22 258.41,-370.06 248.95,-365.28 248.03,-372.22"/>
<text text-anchor="middle" x="114.27" y="-239.8" font-family="Times,serif" font-size="14.00">{c1}</text>
</g>
<!-- 3&#45;&gt;0 -->
<g id="edge3" class="edge">
<title>3&#45;&gt;0</title>
<path fill="none" stroke="black" d="M79.47,-122.15C66.04,-127.86 49.71,-136.69 38.77,-149 11.09,-180.16 11.69,-195.08 3.77,-236 -5.34,-283.05 1.05,-308.43 38.77,-338 70.48,-362.85 186.88,-370.07 247.5,-372.16"/>
<polygon fill="black" stroke="black" points="247.68,-375.67 257.79,-372.48 247.9,-368.67 247.68,-375.67"/>
<text text-anchor="middle" x="17.27" y="-239.8" font-family="Times,serif" font-size="14.00">{c2}</text>
</g>
<!-- 3&#45;&gt;0 -->
<g id="edge5" class="edge">
<title>3&#45;&gt;0</title>
<path fill="none" stroke="black" d="M96.2,-130.63C87.43,-153.8 72.36,-197.31 66.77,-236 61.88,-269.84 81.6,-276.69 100.77,-305 110.94,-320.02 109.59,-328.08 124.77,-338 161.88,-362.24 213.12,-369.94 247.52,-372.25"/>
<polygon fill="black" stroke="black" points="247.44,-375.75 257.62,-372.81 247.83,-368.76 247.44,-375.75"/>
<text text-anchor="middle" x="80.27" y="-239.8" font-family="Times,serif" font-size="14.00">{c3}</text>
</g>
<!-- 4 -->
<g id="node5" class="node">
<title>4</title>
<ellipse fill="none" stroke="black" cx="475.77" cy="-22" rx="18" ry="18"/>
<ellipse fill="none" stroke="black" cx="475.77" cy="-22" rx="22" ry="22"/>
<text text-anchor="middle" x="475.77" y="-18.3" font-family="Times,serif" font-size="14.00">4</text>
</g>
<!-- 3&#45;&gt;4 -->
<g id="edge4" class="edge">
<title>3&#45;&gt;4</title>
<path fill="none" stroke="black" d="M127.82,-106.02C193.84,-90.27 372.41,-47.66 444.73,-30.41"/>
<polygon fill="black" stroke="black" points="445.69,-33.78 454.61,-28.05 444.07,-26.97 445.69,-33.78"/>
<text text-anchor="middle" x="324.27" y="-65.8" font-family="Times,serif" font-size="14.00">{c0}</text>
</g>
<!-- 0&#45;&gt;0 -->
<g id="edge7" class="edge">
<title>0&#45;&gt;0</title>
<path fill="none" stroke="black" d="M312.01,-375.69C321.8,-375.72 329.77,-375.16 329.77,-374 329.77,-373.29 326.81,-372.81 322.28,-372.55"/>
<polygon fill="black" stroke="black" points="322.09,-369.04 312.01,-372.31 321.93,-376.04 322.09,-369.04"/>
<text text-anchor="middle" x="343.27" y="-370.3" font-family="Times,serif" font-size="14.00">{c1}</text>
</g>
<!-- 0&#45;&gt;0 -->
<g id="edge8" class="edge">
<title>0&#45;&gt;0</title>
<path fill="none" stroke="black" d="M311.52,-376.94C333.21,-378.04 356.77,-377.06 356.77,-374 356.77,-371.42 340,-370.32 321.73,-370.7"/>
<polygon fill="black" stroke="black" points="321.39,-367.21 311.52,-371.06 321.64,-374.2 321.39,-367.21"/>
<text text-anchor="middle" x="370.27" y="-370.3" font-family="Times,serif" font-size="14.00">{c2}</text>
</g>
<!-- 0&#45;&gt;0 -->
<g id="edge9" class="edge">
<title>0&#45;&gt;0</title>
<path fill="none" stroke="black" d="M311.63,-377.8C343.27,-380.33 383.77,-379.06 383.77,-374 383.77,-369.47 351.36,-367.98 321.88,-369.53"/>
<polygon fill="black" stroke="black" points="321.38,-366.05 311.63,-370.2 321.84,-373.04 321.38,-366.05"/>
<text text-anchor="middle" x="397.27" y="-370.3" font-family="Times,serif" font-size="14.00">{c0}</text>
</g>
<!-- 0&#45;&gt;0 -->
<g id="edge11" class="edge">
<title>0&#45;&gt;0</title>
<path fill="none" stroke="black" d="M311.03,-378.37C351.72,-382.63 410.77,-381.17 410.77,-374 410.77,-367.4 360.8,-365.64 321.11,-368.72"/>
<polygon fill="black" stroke="black" points="320.67,-365.24 311.03,-369.63 321.3,-372.21 320.67,-365.24"/>
<text text-anchor="middle" x="417.77" y="-370.3" font-family="Times,serif" font-size="14.00">{}</text>
</g>
<!-- 1 -->
<g id="node4" class="node">
<title>1</title>
<ellipse fill="none" stroke="black" cx="218.77" cy="-287" rx="27" ry="18"/>
<text text-anchor="middle" x="218.77" y="-283.3" font-family="Times,serif" font-size="14.00">1</text>
</g>
<!-- 0&#45;&gt;1 -->
<g id="edge10" class="edge">
<title>0&#45;&gt;1</title>
<path fill="none" stroke="black" d="M272.97,-357.8C262.99,-344.95 248.53,-326.32 237.05,-311.54"/>
<polygon fill="black" stroke="black" points="239.59,-309.1 230.69,-303.35 234.06,-313.4 239.59,-309.1"/>
<text text-anchor="middle" x="268.27" y="-326.8" font-family="Times,serif" font-size="14.00">{c3}</text>
</g>
<!-- 1&#45;&gt;0 -->
<g id="edge12" class="edge">
<title>1&#45;&gt;0</title>
<path fill="none" stroke="black" d="M243.71,-294.02C258.73,-299.07 276.66,-307.96 285.77,-323 289.9,-329.82 290.94,-338.17 290.58,-346.09"/>
<polygon fill="black" stroke="black" points="287.09,-345.74 289.43,-356.07 294.05,-346.54 287.09,-345.74"/>
<text text-anchor="middle" x="303.27" y="-326.8" font-family="Times,serif" font-size="14.00">{c1}</text>
</g>
<!-- 1&#45;&gt;0 -->
<g id="edge14" class="edge">
<title>1&#45;&gt;0</title>
<path fill="none" stroke="black" d="M195.4,-296.5C174.13,-305.56 147.85,-320.93 160.77,-338 171.4,-352.04 215.86,-362.05 248.52,-367.68"/>
<polygon fill="black" stroke="black" points="248.22,-371.17 258.65,-369.35 249.36,-364.27 248.22,-371.17"/>
<text text-anchor="middle" x="174.27" y="-326.8" font-family="Times,serif" font-size="14.00">{c0}</text>
</g>
<!-- 1&#45;&gt;0 -->
<g id="edge15" class="edge">
<title>1&#45;&gt;0</title>
<path fill="none" stroke="black" d="M213.62,-304.94C211.52,-315.22 210.8,-328.21 216.77,-338 224.15,-350.1 237.21,-358.2 249.92,-363.53"/>
<polygon fill="black" stroke="black" points="248.88,-366.87 259.47,-367.08 251.32,-360.31 248.88,-366.87"/>
<text text-anchor="middle" x="230.27" y="-326.8" font-family="Times,serif" font-size="14.00">{c3}</text>
</g>
<!-- 1&#45;&gt;1 -->
<g id="edge16" class="edge">
<title>1&#45;&gt;1</title>
<path fill="none" stroke="black" d="M243.3,-294.75C254.28,-295.49 263.77,-292.91 263.77,-287 263.77,-283.03 259.49,-280.56 253.35,-279.59"/>
<polygon fill="black" stroke="black" points="253.42,-276.09 243.3,-279.25 253.18,-283.09 253.42,-276.09"/>
<text text-anchor="middle" x="270.77" y="-283.3" font-family="Times,serif" font-size="14.00">{}</text>
</g>
<!-- 2 -->
<g id="node6" class="node">
<title>2</title>
<ellipse fill="none" stroke="black" cx="218.77" cy="-200" rx="27" ry="18"/>
<text text-anchor="middle" x="218.77" y="-196.3" font-family="Times,serif" font-size="14.00">2</text>
</g>
<!-- 1&#45;&gt;2 -->
<g id="edge13" class="edge">
<title>1&#45;&gt;2</title>
<path fill="none" stroke="black" d="M218.77,-268.8C218.77,-257.16 218.77,-241.55 218.77,-228.24"/>
<polygon fill="black" stroke="black" points="222.27,-228.18 218.77,-218.18 215.27,-228.18 222.27,-228.18"/>
<text text-anchor="middle" x="232.27" y="-239.8" font-family="Times,serif" font-size="14.00">{c2}</text>
</g>
<!-- 4&#45;&gt;0 -->
<g id="edge17" class="edge">
<title>4&#45;&gt;0</title>
<path fill="none" stroke="black" d="M468.53,-42.8C466.32,-48.94 463.91,-55.74 461.77,-62 452.59,-88.86 397.03,-280.45 382.77,-305 372.82,-322.14 368.5,-325.94 352.77,-338 341.8,-346.42 328.5,-353.78 316.58,-359.55"/>
<polygon fill="black" stroke="black" points="314.98,-356.43 307.39,-363.83 317.93,-362.78 314.98,-356.43"/>
<text text-anchor="middle" x="437.27" y="-196.3" font-family="Times,serif" font-size="14.00">{c1}</text>
</g>
<!-- 4&#45;&gt;0 -->
<g id="edge18" class="edge">
<title>4&#45;&gt;0</title>
<path fill="none" stroke="black" d="M475.77,-44.22C475.77,-62.25 475.77,-88.82 475.77,-112 475.77,-288 475.77,-288 475.77,-288 475.77,-354.66 377.46,-369.42 321.9,-372.44"/>
<polygon fill="black" stroke="black" points="321.57,-368.95 311.73,-372.89 321.88,-375.95 321.57,-368.95"/>
<text text-anchor="middle" x="489.27" y="-196.3" font-family="Times,serif" font-size="14.00">{c2}</text>
</g>
<!-- 4&#45;&gt;0 -->
<g id="edge19" class="edge">
<title>4&#45;&gt;0</title>
<path fill="none" stroke="black" d="M492.99,-36.05C511.64,-51.81 538.77,-80.2 538.77,-112 538.77,-288 538.77,-288 538.77,-288 538.77,-325.51 505.18,-323.05 470.77,-338 422.02,-359.19 360.6,-367.58 321.99,-370.88"/>
<polygon fill="black" stroke="black" points="321.44,-367.41 311.74,-371.68 321.98,-374.39 321.44,-367.41"/>
<text text-anchor="middle" x="552.27" y="-196.3" font-family="Times,serif" font-size="14.00">{c0}</text>
</g>
<!-- 4&#45;&gt;0 -->
<g id="edge20" class="edge">
<title>4&#45;&gt;0</title>
<path fill="none" stroke="black" d="M497.15,-27.7C533.09,-36.99 601.77,-61.38 601.77,-112 601.77,-288 601.77,-288 601.77,-288 601.77,-345.44 405.13,-365.13 321.6,-370.9"/>
<polygon fill="black" stroke="black" points="321.27,-367.41 311.53,-371.57 321.73,-374.4 321.27,-367.41"/>
<text text-anchor="middle" x="615.27" y="-196.3" font-family="Times,serif" font-size="14.00">{c3}</text>
</g>
<!-- 4&#45;&gt;4 -->
<g id="edge21" class="edge">
<title>4&#45;&gt;4</title>
<path fill="none" stroke="black" d="M496.35,-30.37C506.62,-31.53 515.77,-28.74 515.77,-22 515.77,-17.68 512.01,-14.99 506.62,-13.91"/>
<polygon fill="black" stroke="black" points="506.44,-10.41 496.35,-13.63 506.25,-17.4 506.44,-10.41"/>
<text text-anchor="middle" x="522.77" y="-18.3" font-family="Times,serif" font-size="14.00">{}</text>
</g>
<!-- 2&#45;&gt;3 -->
<g id="edge22" class="edge">
<title>2&#45;&gt;3</title>
<path fill="none" stroke="black" d="M201.15,-186.09C181.91,-171.99 150.88,-149.25 128.82,-133.09"/>
<polygon fill="black" stroke="black" points="130.69,-130.12 120.56,-127.03 126.55,-135.77 130.69,-130.12"/>
<text text-anchor="middle" x="180.27" y="-152.8" font-family="Times,serif" font-size="14.00">{c1}</text>
</g>
<!-- 2&#45;&gt;0 -->
<g id="edge23" class="edge">
<title>2&#45;&gt;0</title>
<path fill="none" stroke="black" d="M236.34,-213.92C261.66,-233.88 306.92,-274.99 320.77,-323 322.62,-329.41 323.37,-331.86 320.77,-338 318.38,-343.66 314.58,-348.85 310.32,-353.41"/>
<polygon fill="black" stroke="black" points="307.75,-351.03 302.9,-360.45 312.57,-356.11 307.75,-351.03"/>
<text text-anchor="middle" x="326.27" y="-283.3" font-family="Times,serif" font-size="14.00">{c2}</text>
</g>
<!-- 2&#45;&gt;0 -->
<g id="edge24" class="edge">
<title>2&#45;&gt;0</title>
<path fill="none" stroke="black" d="M244.09,-206.57C273.95,-214.65 322.25,-232.79 343.77,-269 359.57,-295.58 352.57,-312.71 334.77,-338 329.51,-345.47 322.12,-351.88 314.63,-357.1"/>
<polygon fill="black" stroke="black" points="312.46,-354.33 305.92,-362.67 316.23,-360.23 312.46,-354.33"/>
<text text-anchor="middle" x="365.27" y="-283.3" font-family="Times,serif" font-size="14.00">{c0}</text>
</g>
<!-- 2&#45;&gt;0 -->
<g id="edge25" class="edge">
<title>2&#45;&gt;0</title>
<path fill="none" stroke="black" d="M201.35,-213.92C186.29,-226.21 165.45,-246.19 155.77,-269 135.41,-316.98 145.91,-329.08 152.77,-338 164.37,-353.07 213.26,-363 248.15,-368.31"/>
<polygon fill="black" stroke="black" points="248.07,-371.83 258.47,-369.81 249.08,-364.91 248.07,-371.83"/>
<text text-anchor="middle" x="169.27" y="-283.3" font-family="Times,serif" font-size="14.00">{c3}</text>
</g>
<!-- 2&#45;&gt;2 -->
<g id="edge26" class="edge">
<title>2&#45;&gt;2</title>
<path fill="none" stroke="black" d="M243.3,-207.75C254.28,-208.49 263.77,-205.91 263.77,-200 263.77,-196.03 259.49,-193.56 253.35,-192.59"/>
<polygon fill="black" stroke="black" points="253.42,-189.09 243.3,-192.25 253.18,-196.09 253.42,-189.09"/>
<text text-anchor="middle" x="270.77" y="-196.3" font-family="Times,serif" font-size="14.00">{}</text>
</g>
</g>
</svg>
