<?xml version="1.0" encoding="UTF-8" standalone="no"?>
<!DOCTYPE svg PUBLIC "-//W3C//DTD SVG 1.1//EN"
 "http://www.w3.org/Graphics/SVG/1.1/DTD/svg11.dtd">
<!-- Generated by graphviz version 2.43.0 (0)
 -->
<!-- Title: %3 Pages: 1 -->
<svg width="2547pt" height="475pt"
 viewBox="0.00 0.00 2547.37 475.44" xmlns="http://www.w3.org/2000/svg" xmlns:xlink="http://www.w3.org/1999/xlink">
<g id="graph0" class="graph" transform="scale(1 1) rotate(0) translate(4 471.44)">
<title>%3</title>
<polygon fill="white" stroke="transparent" points="-4,4 -4,-471.44 2543.37,-471.44 2543.37,4 -4,4"/>
<!-- fake -->
<g id="node1" class="node">
<title>fake</title>
</g>
<!-- 0 -->
<g id="node2" class="node">
<title>0</title>
<ellipse fill="none" stroke="black" cx="1867.37" cy="-376.44" rx="27" ry="18"/>
<text text-anchor="middle" x="1867.37" y="-372.74" font-family="Times,serif" font-size="14.00">0</text>
</g>
<!-- fake&#45;&gt;0 -->
<g id="edge1" class="edge">
<title>fake&#45;&gt;0</title>
<path fill="none" stroke="black" stroke-width="2" d="M1867.37,-431.25C1867.37,-423.23 1867.37,-413.48 1867.37,-404.51"/>
<polygon fill="black" stroke="black" stroke-width="2" points="1870.87,-404.46 1867.37,-394.46 1863.87,-404.47 1870.87,-404.46"/>
</g>
<!-- 0&#45;&gt;0 -->
<g id="edge21" class="edge">
<title>0&#45;&gt;0</title>
<path fill="none" stroke="black" d="M1892.81,-383.13C1903.4,-383.59 1912.37,-381.36 1912.37,-376.44 1912.37,-373.21 1908.51,-371.14 1902.86,-370.22"/>
<polygon fill="black" stroke="black" points="1902.97,-366.73 1892.81,-369.75 1902.64,-373.72 1902.97,-366.73"/>
<text text-anchor="middle" x="1919.37" y="-372.74" font-family="Times,serif" font-size="14.00">{}</text>
</g>
<!-- 1 -->
<g id="node3" class="node">
<title>1</title>
<ellipse fill="none" stroke="black" cx="1485.37" cy="-289.44" rx="27" ry="18"/>
<text text-anchor="middle" x="1485.37" y="-285.74" font-family="Times,serif" font-size="14.00">1</text>
</g>
<!-- 0&#45;&gt;1 -->
<g id="edge18" class="edge">
<title>0&#45;&gt;1</title>
<path fill="none" stroke="black" d="M1840.33,-374.85C1727.21,-372.29 1296.92,-361.18 1277.37,-340.44 1272.8,-335.58 1273.07,-330.53 1277.37,-325.44 1298.82,-300.08 1394.32,-293.08 1448.15,-291.16"/>
<polygon fill="black" stroke="black" points="1448.44,-294.65 1458.32,-290.84 1448.22,-287.66 1448.44,-294.65"/>
<text text-anchor="middle" x="1300.87" y="-329.24" font-family="Times,serif" font-size="14.00">{c2, c3}</text>
</g>
<!-- 0&#45;&gt;1 -->
<g id="edge19" class="edge">
<title>0&#45;&gt;1</title>
<path fill="none" stroke="black" d="M1840.04,-375.72C1737.7,-376.51 1381.2,-376.62 1347.37,-340.44 1315.95,-306.83 1397.5,-295.75 1448.3,-292.15"/>
<polygon fill="black" stroke="black" points="1448.55,-295.64 1458.31,-291.5 1448.11,-288.65 1448.55,-295.64"/>
<text text-anchor="middle" x="1370.87" y="-329.24" font-family="Times,serif" font-size="14.00">{c0, c3}</text>
</g>
<!-- 0&#45;&gt;1 -->
<g id="edge20" class="edge">
<title>0&#45;&gt;1</title>
<path fill="none" stroke="black" d="M1840.27,-375.42C1747.41,-375.07 1446.14,-371.53 1417.37,-340.44 1402.68,-324.55 1427.56,-310.36 1451.25,-301.19"/>
<polygon fill="black" stroke="black" points="1452.66,-304.4 1460.86,-297.69 1450.27,-297.82 1452.66,-304.4"/>
<text text-anchor="middle" x="1461.37" y="-329.24" font-family="Times,serif" font-size="14.00">{c0, c1, c2, c3}</text>
</g>
<!-- 0&#45;&gt;1 -->
<g id="edge22" class="edge">
<title>0&#45;&gt;1</title>
<path fill="none" stroke="black" d="M1840.32,-375.19C1769.88,-374.15 1582.51,-368.74 1528.37,-340.44 1517.07,-334.53 1507.46,-324.3 1500.22,-314.62"/>
<polygon fill="black" stroke="black" points="1503.06,-312.59 1494.47,-306.39 1497.32,-316.59 1503.06,-312.59"/>
<text text-anchor="middle" x="1561.87" y="-329.24" font-family="Times,serif" font-size="14.00">{c0, c1, c3}</text>
</g>
<!-- 0&#45;&gt;1 -->
<g id="edge23" class="edge">
<title>0&#45;&gt;1</title>
<path fill="none" stroke="black" d="M1840.26,-375.44C1793.48,-374.62 1695.22,-369.25 1618.37,-340.44 1606.94,-336.15 1606.4,-330.67 1595.37,-325.44 1571.3,-314.02 1542.56,-305.02 1520.5,-299.01"/>
<polygon fill="black" stroke="black" points="1521.13,-295.55 1510.56,-296.38 1519.34,-302.32 1521.13,-295.55"/>
<text text-anchor="middle" x="1651.87" y="-329.24" font-family="Times,serif" font-size="14.00">{c0, c2, c3}</text>
</g>
<!-- 0&#45;&gt;1 -->
<g id="edge24" class="edge">
<title>0&#45;&gt;1</title>
<path fill="none" stroke="black" d="M1840.88,-372.57C1808.58,-368.42 1752.81,-359.08 1708.37,-340.44 1697.12,-335.71 1696.72,-329.91 1685.37,-325.44 1631.07,-304.03 1563.34,-295.67 1522.27,-292.44"/>
<polygon fill="black" stroke="black" points="1522.41,-288.94 1512.18,-291.71 1521.9,-295.92 1522.41,-288.94"/>
<text text-anchor="middle" x="1731.87" y="-329.24" font-family="Times,serif" font-size="14.00">{c1, c3}</text>
</g>
<!-- 0&#45;&gt;1 -->
<g id="edge25" class="edge">
<title>0&#45;&gt;1</title>
<path fill="none" stroke="black" d="M1843.75,-367.63C1825.48,-361.24 1799.77,-351.47 1778.37,-340.44 1767.53,-334.84 1766.82,-329.66 1755.37,-325.44 1676.13,-296.2 1575.96,-290.73 1522.69,-290.09"/>
<polygon fill="black" stroke="black" points="1522.39,-286.58 1512.37,-290.02 1522.35,-293.58 1522.39,-286.58"/>
<text text-anchor="middle" x="1811.87" y="-329.24" font-family="Times,serif" font-size="14.00">{c1, c2, c3}</text>
</g>
<!-- 0&#45;&gt;1 -->
<g id="edge26" class="edge">
<title>0&#45;&gt;1</title>
<path fill="none" stroke="black" d="M1864.41,-358.25C1861.54,-347.04 1855.97,-333.11 1845.37,-325.44 1819.61,-306.79 1609.25,-295.74 1522.53,-291.94"/>
<polygon fill="black" stroke="black" points="1522.49,-288.43 1512.34,-291.5 1522.18,-295.43 1522.49,-288.43"/>
<text text-anchor="middle" x="1870.87" y="-329.24" font-family="Times,serif" font-size="14.00">{c3}</text>
</g>
<!-- 2 -->
<g id="node4" class="node">
<title>2</title>
<ellipse fill="none" stroke="black" cx="1464.37" cy="-24.44" rx="27" ry="18"/>
<text text-anchor="middle" x="1464.37" y="-20.74" font-family="Times,serif" font-size="14.00">2</text>
</g>
<!-- 0&#45;&gt;2 -->
<g id="edge27" class="edge">
<title>0&#45;&gt;2</title>
<path fill="none" stroke="black" d="M1879.15,-359.89C1882.86,-354.1 1886.48,-347.27 1888.37,-340.44 1890.15,-334.01 1889.89,-331.93 1888.37,-325.44 1868.75,-241.43 1857.49,-217.79 1802.37,-151.44 1725.11,-58.42 1572.11,-34.04 1501.58,-27.67"/>
<polygon fill="black" stroke="black" points="1501.64,-24.17 1491.39,-26.83 1501.07,-31.14 1501.64,-24.17"/>
<text text-anchor="middle" x="1864.87" y="-198.74" font-family="Times,serif" font-size="14.00">{c0}</text>
</g>
<!-- 0&#45;&gt;2 -->
<g id="edge28" class="edge">
<title>0&#45;&gt;2</title>
<path fill="none" stroke="black" d="M1887.32,-363.79C1908.93,-349.51 1940.37,-323.12 1940.37,-290.44 1940.37,-290.44 1940.37,-290.44 1940.37,-114.44 1940.37,-69.79 1612.71,-37.96 1501.09,-28.42"/>
<polygon fill="black" stroke="black" points="1501.24,-24.92 1490.98,-27.56 1500.65,-31.89 1501.24,-24.92"/>
<text text-anchor="middle" x="1953.87" y="-198.74" font-family="Times,serif" font-size="14.00">{c2}</text>
</g>
<!-- 0&#45;&gt;2 -->
<g id="edge29" class="edge">
<title>0&#45;&gt;2</title>
<path fill="none" stroke="black" d="M1893.27,-371.27C1932.73,-363.28 2003.37,-341.81 2003.37,-290.44 2003.37,-290.44 2003.37,-290.44 2003.37,-114.44 2003.37,-63.46 1623.16,-35.33 1501.4,-27.63"/>
<polygon fill="black" stroke="black" points="1501.3,-24.12 1491.1,-26.99 1500.86,-31.1 1501.3,-24.12"/>
<text text-anchor="middle" x="2026.87" y="-198.74" font-family="Times,serif" font-size="14.00">{c0, c2}</text>
</g>
<!-- 0&#45;&gt;2 -->
<g id="edge30" class="edge">
<title>0&#45;&gt;2</title>
<path fill="none" stroke="black" d="M1893.35,-371.03C1951.36,-360.45 2086.37,-331.42 2086.37,-290.44 2086.37,-290.44 2086.37,-290.44 2086.37,-114.44 2086.37,-55.03 1635.94,-32.28 1501.69,-26.82"/>
<polygon fill="black" stroke="black" points="1501.63,-23.31 1491.5,-26.41 1501.35,-30.31 1501.63,-23.31"/>
<text text-anchor="middle" x="2119.87" y="-198.74" font-family="Times,serif" font-size="14.00">{c0, c1, c2}</text>
</g>
<!-- 0&#45;&gt;2 -->
<g id="edge31" class="edge">
<title>0&#45;&gt;2</title>
<path fill="none" stroke="black" d="M1894.27,-374.1C1971.66,-369.54 2189.37,-351.29 2189.37,-290.44 2189.37,-290.44 2189.37,-290.44 2189.37,-114.44 2189.37,-44.46 1650.4,-28.99 1501.87,-26.05"/>
<polygon fill="black" stroke="black" points="1501.53,-22.55 1491.47,-25.86 1501.4,-29.55 1501.53,-22.55"/>
<text text-anchor="middle" x="2212.87" y="-198.74" font-family="Times,serif" font-size="14.00">{c1, c2}</text>
</g>
<!-- 0&#45;&gt;2 -->
<g id="edge32" class="edge">
<title>0&#45;&gt;2</title>
<path fill="none" stroke="black" d="M1894.57,-375.54C1985.38,-375.16 2272.37,-367.85 2272.37,-290.44 2272.37,-290.44 2272.37,-290.44 2272.37,-114.44 2272.37,-35.89 1661.27,-26.65 1501.97,-25.57"/>
<polygon fill="black" stroke="black" points="1501.74,-22.07 1491.72,-25.51 1501.7,-29.07 1501.74,-22.07"/>
<text text-anchor="middle" x="2285.87" y="-198.74" font-family="Times,serif" font-size="14.00">{c1}</text>
</g>
<!-- 0&#45;&gt;2 -->
<g id="edge33" class="edge">
<title>0&#45;&gt;2</title>
<path fill="none" stroke="black" d="M1894.41,-374.43C1969.84,-371.38 2181.32,-361.18 2247.37,-340.44 2290.29,-326.96 2335.37,-335.42 2335.37,-290.44 2335.37,-290.44 2335.37,-290.44 2335.37,-114.44 2335.37,-29.28 1668.04,-25.01 1501.62,-25.27"/>
<polygon fill="black" stroke="black" points="1501.39,-21.77 1491.39,-25.29 1501.4,-28.77 1501.39,-21.77"/>
<text text-anchor="middle" x="2358.87" y="-198.74" font-family="Times,serif" font-size="14.00">{c0, c1}</text>
</g>
<!-- 1&#45;&gt;1 -->
<g id="edge55" class="edge">
<title>1&#45;&gt;1</title>
<path fill="none" stroke="black" d="M1509.9,-297.19C1520.88,-297.93 1530.37,-295.34 1530.37,-289.44 1530.37,-285.47 1526.09,-283 1519.95,-282.03"/>
<polygon fill="black" stroke="black" points="1520.02,-278.53 1509.9,-281.68 1519.78,-285.53 1520.02,-278.53"/>
<text text-anchor="middle" x="1537.37" y="-285.74" font-family="Times,serif" font-size="14.00">{}</text>
</g>
<!-- 1&#45;&gt;2 -->
<g id="edge59" class="edge">
<title>1&#45;&gt;2</title>
<path fill="none" stroke="black" d="M1480.98,-271.62C1475.13,-248.23 1465.08,-204.46 1461.37,-166.44 1460.72,-159.8 1458.33,-157.37 1461.37,-151.44 1467.61,-139.25 1480.13,-145.62 1486.37,-133.44 1493.67,-119.2 1488.74,-113.26 1486.37,-97.44 1484.05,-81.88 1479.05,-65.04 1474.4,-51.56"/>
<polygon fill="black" stroke="black" points="1477.64,-50.22 1470.97,-41.99 1471.05,-52.58 1477.64,-50.22"/>
<text text-anchor="middle" x="1474.87" y="-155.24" font-family="Times,serif" font-size="14.00">{c0}</text>
</g>
<!-- 1&#45;&gt;2 -->
<g id="edge60" class="edge">
<title>1&#45;&gt;2</title>
<path fill="none" stroke="black" d="M1488.75,-271.57C1494.99,-238.27 1507.17,-161.73 1501.37,-97.44 1500.03,-82.59 1501.53,-78.01 1495.37,-64.44 1492.76,-58.68 1489.12,-53.04 1485.24,-47.91"/>
<polygon fill="black" stroke="black" points="1487.68,-45.36 1478.65,-39.83 1482.26,-49.79 1487.68,-45.36"/>
<text text-anchor="middle" x="1515.87" y="-155.24" font-family="Times,serif" font-size="14.00">{c3}</text>
</g>
<!-- 1&#45;&gt;2 -->
<g id="edge61" class="edge">
<title>1&#45;&gt;2</title>
<path fill="none" stroke="black" d="M1496.24,-272.53C1512.09,-247.54 1539.07,-197.2 1533.37,-151.44 1528.44,-111.86 1532.66,-98.17 1511.37,-64.44 1506.41,-56.57 1499.33,-49.52 1492.17,-43.65"/>
<polygon fill="black" stroke="black" points="1493.93,-40.58 1483.85,-37.31 1489.69,-46.15 1493.93,-40.58"/>
<text text-anchor="middle" x="1556.87" y="-155.24" font-family="Times,serif" font-size="14.00">{c1, c3}</text>
</g>
<!-- 1&#45;&gt;2 -->
<g id="edge62" class="edge">
<title>1&#45;&gt;2</title>
<path fill="none" stroke="black" d="M1504.55,-276.67C1537.51,-254.78 1599.92,-205.13 1584.37,-151.44 1571.65,-107.5 1562.09,-96.4 1529.37,-64.44 1519.49,-54.78 1506.79,-46.49 1495.24,-40.07"/>
<polygon fill="black" stroke="black" points="1496.77,-36.92 1486.3,-35.32 1493.49,-43.1 1496.77,-36.92"/>
<text text-anchor="middle" x="1599.87" y="-155.24" font-family="Times,serif" font-size="14.00">{c1}</text>
</g>
<!-- 1&#45;&gt;2 -->
<g id="edge63" class="edge">
<title>1&#45;&gt;2</title>
<path fill="none" stroke="black" d="M1508.24,-279.74C1522.98,-273.57 1542.17,-264.44 1557.37,-253.44 1599.97,-222.59 1631.95,-201.97 1617.37,-151.44 1603.84,-104.55 1590.5,-92.22 1550.37,-64.44 1534.03,-53.12 1513.89,-43.78 1497.2,-37.08"/>
<polygon fill="black" stroke="black" points="1498.42,-33.8 1487.83,-33.44 1495.89,-40.32 1498.42,-33.8"/>
<text text-anchor="middle" x="1643.87" y="-155.24" font-family="Times,serif" font-size="14.00">{c0, c1}</text>
</g>
<!-- 1&#45;&gt;2 -->
<g id="edge64" class="edge">
<title>1&#45;&gt;2</title>
<path fill="none" stroke="black" d="M1510.51,-282.78C1568.26,-268.4 1703.13,-226.18 1671.37,-151.44 1641.59,-81.34 1550.42,-47.37 1499.57,-33.49"/>
<polygon fill="black" stroke="black" points="1500.23,-30.05 1489.67,-30.9 1498.46,-36.82 1500.23,-30.05"/>
<text text-anchor="middle" x="1708.87" y="-155.24" font-family="Times,serif" font-size="14.00">{c0, c1, c3}</text>
</g>
<!-- 1&#45;&gt;2 -->
<g id="edge65" class="edge">
<title>1&#45;&gt;2</title>
<path fill="none" stroke="black" d="M1512.11,-285.93C1588.43,-277.58 1798.49,-245.71 1746.37,-151.44 1697.09,-62.31 1565.72,-36.08 1501.18,-28.47"/>
<polygon fill="black" stroke="black" points="1501.37,-24.97 1491.05,-27.37 1500.61,-31.93 1501.37,-24.97"/>
<text text-anchor="middle" x="1774.87" y="-155.24" font-family="Times,serif" font-size="14.00">{c0, c3}</text>
</g>
<!-- 3 -->
<g id="node5" class="node">
<title>3</title>
<ellipse fill="none" stroke="black" cx="1012.37" cy="-202.44" rx="27" ry="18"/>
<text text-anchor="middle" x="1012.37" y="-198.74" font-family="Times,serif" font-size="14.00">3</text>
</g>
<!-- 1&#45;&gt;3 -->
<g id="edge50" class="edge">
<title>1&#45;&gt;3</title>
<path fill="none" stroke="black" d="M1458.42,-287.97C1340.45,-285.78 874.47,-275.74 853.37,-253.44 816.39,-214.35 917,-205.67 974.84,-203.84"/>
<polygon fill="black" stroke="black" points="975.2,-207.33 985.1,-203.57 975.02,-200.33 975.2,-207.33"/>
<text text-anchor="middle" x="886.87" y="-242.24" font-family="Times,serif" font-size="14.00">{c0, c2, c3}</text>
</g>
<!-- 1&#45;&gt;3 -->
<g id="edge51" class="edge">
<title>1&#45;&gt;3</title>
<path fill="none" stroke="black" d="M1458.34,-288.8C1353.63,-289.93 978.84,-291.27 943.37,-253.44 928.28,-237.33 954.21,-223.02 978.48,-213.88"/>
<polygon fill="black" stroke="black" points="979.7,-217.16 987.96,-210.52 977.36,-210.56 979.7,-217.16"/>
<text text-anchor="middle" x="966.87" y="-242.24" font-family="Times,serif" font-size="14.00">{c1, c2}</text>
</g>
<!-- 1&#45;&gt;3 -->
<g id="edge52" class="edge">
<title>1&#45;&gt;3</title>
<path fill="none" stroke="black" d="M1458.31,-288.5C1362.59,-288.45 1044.06,-285.83 1013.37,-253.44 1007.66,-247.41 1006.08,-238.91 1006.33,-230.62"/>
<polygon fill="black" stroke="black" points="1009.84,-230.77 1007.47,-220.45 1002.88,-229.99 1009.84,-230.77"/>
<text text-anchor="middle" x="1046.87" y="-242.24" font-family="Times,serif" font-size="14.00">{c1, c2, c3}</text>
</g>
<!-- 1&#45;&gt;3 -->
<g id="edge53" class="edge">
<title>1&#45;&gt;3</title>
<path fill="none" stroke="black" d="M1458.39,-287.65C1382.63,-285.18 1169.18,-276.32 1103.37,-253.44 1091.84,-249.43 1090.92,-244.57 1080.37,-238.44 1068.33,-231.43 1054.73,-224.29 1042.88,-218.3"/>
<polygon fill="black" stroke="black" points="1044.32,-215.11 1033.81,-213.76 1041.19,-221.37 1044.32,-215.11"/>
<text text-anchor="middle" x="1116.87" y="-242.24" font-family="Times,serif" font-size="14.00">{c2}</text>
</g>
<!-- 1&#45;&gt;3 -->
<g id="edge54" class="edge">
<title>1&#45;&gt;3</title>
<path fill="none" stroke="black" d="M1458.51,-287.23C1389.88,-283.88 1209.55,-273.4 1153.37,-253.44 1141.87,-249.35 1141.45,-243.56 1130.37,-238.44 1103.73,-226.12 1071.7,-216.94 1047.74,-211.08"/>
<polygon fill="black" stroke="black" points="1048.54,-207.67 1038,-208.77 1046.93,-214.49 1048.54,-207.67"/>
<text text-anchor="middle" x="1197.37" y="-242.24" font-family="Times,serif" font-size="14.00">{c0, c1, c2, c3}</text>
</g>
<!-- 1&#45;&gt;3 -->
<g id="edge56" class="edge">
<title>1&#45;&gt;3</title>
<path fill="none" stroke="black" d="M1458.24,-287.77C1415.6,-285.92 1330.89,-279.05 1264.37,-253.44 1252.98,-249.05 1252.77,-242.79 1241.37,-238.44 1176.89,-213.81 1095.94,-206.47 1049.58,-204.31"/>
<polygon fill="black" stroke="black" points="1049.54,-200.81 1039.4,-203.89 1049.25,-207.8 1049.54,-200.81"/>
<text text-anchor="middle" x="1287.87" y="-242.24" font-family="Times,serif" font-size="14.00">{c0, c2}</text>
</g>
<!-- 1&#45;&gt;3 -->
<g id="edge57" class="edge">
<title>1&#45;&gt;3</title>
<path fill="none" stroke="black" d="M1459.13,-285.19C1428.3,-280.75 1376.09,-271.21 1334.37,-253.44 1323.14,-248.65 1322.85,-242.59 1311.37,-238.44 1264.02,-221.3 1118.55,-210.13 1049.5,-205.66"/>
<polygon fill="black" stroke="black" points="1049.3,-202.14 1039.1,-204.99 1048.86,-209.12 1049.3,-202.14"/>
<text text-anchor="middle" x="1367.87" y="-242.24" font-family="Times,serif" font-size="14.00">{c0, c1, c2}</text>
</g>
<!-- 1&#45;&gt;3 -->
<g id="edge58" class="edge">
<title>1&#45;&gt;3</title>
<path fill="none" stroke="black" d="M1465.15,-277.21C1453.19,-270.48 1437.8,-261.66 1424.37,-253.44 1413.96,-247.06 1412.9,-242.43 1401.37,-238.44 1336.94,-216.09 1133.6,-207.25 1049.42,-204.49"/>
<polygon fill="black" stroke="black" points="1049.4,-200.99 1039.3,-204.17 1049.18,-207.98 1049.4,-200.99"/>
<text text-anchor="middle" x="1447.87" y="-242.24" font-family="Times,serif" font-size="14.00">{c2, c3}</text>
</g>
<!-- 2&#45;&gt;2 -->
<g id="edge82" class="edge">
<title>2&#45;&gt;2</title>
<path fill="none" stroke="black" d="M1491.61,-25.93C1501.4,-25.97 1509.37,-25.47 1509.37,-24.44 1509.37,-23.81 1506.41,-23.38 1501.88,-23.14"/>
<polygon fill="black" stroke="black" points="1501.68,-19.64 1491.61,-22.94 1501.54,-26.64 1501.68,-19.64"/>
<text text-anchor="middle" x="1522.87" y="-20.74" font-family="Times,serif" font-size="14.00">{c0}</text>
</g>
<!-- 2&#45;&gt;2 -->
<g id="edge83" class="edge">
<title>2&#45;&gt;2</title>
<path fill="none" stroke="black" d="M1491.12,-27.05C1512.81,-28.03 1536.37,-27.15 1536.37,-24.44 1536.37,-22.14 1519.6,-21.16 1501.33,-21.5"/>
<polygon fill="black" stroke="black" points="1501.01,-18.01 1491.12,-21.82 1501.23,-25.01 1501.01,-18.01"/>
<text text-anchor="middle" x="1569.87" y="-20.74" font-family="Times,serif" font-size="14.00">{c0, c2, c3}</text>
</g>
<!-- 2&#45;&gt;2 -->
<g id="edge84" class="edge">
<title>2&#45;&gt;2</title>
<path fill="none" stroke="black" d="M1491.27,-27.45C1533.98,-30.16 1603.37,-29.16 1603.37,-24.44 1603.37,-20.07 1544.15,-18.88 1501.45,-20.86"/>
<polygon fill="black" stroke="black" points="1501.07,-17.38 1491.27,-21.42 1501.45,-24.37 1501.07,-17.38"/>
<text text-anchor="middle" x="1616.87" y="-20.74" font-family="Times,serif" font-size="14.00">{c2}</text>
</g>
<!-- 2&#45;&gt;2 -->
<g id="edge85" class="edge">
<title>2&#45;&gt;2</title>
<path fill="none" stroke="black" d="M1490.86,-28C1541.3,-32.17 1630.37,-30.98 1630.37,-24.44 1630.37,-18.31 1552.41,-16.88 1501.06,-20.13"/>
<polygon fill="black" stroke="black" points="1500.58,-16.65 1490.86,-20.87 1501.08,-23.64 1500.58,-16.65"/>
<text text-anchor="middle" x="1643.87" y="-20.74" font-family="Times,serif" font-size="14.00">{c3}</text>
</g>
<!-- 2&#45;&gt;2 -->
<g id="edge86" class="edge">
<title>2&#45;&gt;2</title>
<path fill="none" stroke="black" d="M1490.85,-28.47C1548.75,-34.18 1657.37,-32.83 1657.37,-24.44 1657.37,-16.51 1560.71,-14.87 1501.15,-19.5"/>
<polygon fill="black" stroke="black" points="1500.51,-16.04 1490.85,-20.4 1501.12,-23.01 1500.51,-16.04"/>
<text text-anchor="middle" x="1701.37" y="-20.74" font-family="Times,serif" font-size="14.00">{c0, c1, c2, c3}</text>
</g>
<!-- 2&#45;&gt;2 -->
<g id="edge87" class="edge">
<title>2&#45;&gt;2</title>
<path fill="none" stroke="black" d="M1490.89,-28.53C1567.1,-36.23 1745.37,-34.87 1745.37,-24.44 1745.37,-14.45 1582.09,-12.78 1501.26,-19.4"/>
<polygon fill="black" stroke="black" points="1500.53,-15.95 1490.89,-20.34 1501.17,-22.92 1500.53,-15.95"/>
<text text-anchor="middle" x="1768.87" y="-20.74" font-family="Times,serif" font-size="14.00">{c0, c2}</text>
</g>
<!-- 2&#45;&gt;2 -->
<g id="edge88" class="edge">
<title>2&#45;&gt;2</title>
<path fill="none" stroke="black" d="M1490.8,-28.78C1576.49,-38.24 1792.37,-36.8 1792.37,-24.44 1792.37,-12.54 1592.21,-10.75 1500.86,-19.08"/>
<polygon fill="black" stroke="black" points="1500.4,-15.61 1490.8,-20.09 1501.1,-22.58 1500.4,-15.61"/>
<text text-anchor="middle" x="1825.87" y="-20.74" font-family="Times,serif" font-size="14.00">{c1, c2, c3}</text>
</g>
<!-- 2&#45;&gt;2 -->
<g id="edge89" class="edge">
<title>2&#45;&gt;2</title>
<path fill="none" stroke="black" d="M1490.74,-28.93C1588.32,-40.26 1859.37,-38.76 1859.37,-24.44 1859.37,-10.57 1605.51,-8.72 1500.7,-18.89"/>
<polygon fill="black" stroke="black" points="1500.31,-15.41 1490.74,-19.94 1501.05,-22.37 1500.31,-15.41"/>
<text text-anchor="middle" x="1892.87" y="-20.74" font-family="Times,serif" font-size="14.00">{c0, c1, c2}</text>
</g>
<!-- 2&#45;&gt;2 -->
<g id="edge90" class="edge">
<title>2&#45;&gt;2</title>
<path fill="none" stroke="black" d="M1490.69,-29.07C1599.38,-42.27 1926.37,-40.73 1926.37,-24.44 1926.37,-8.62 1618.26,-6.7 1500.8,-18.68"/>
<polygon fill="black" stroke="black" points="1500.25,-15.22 1490.69,-19.81 1501.02,-22.18 1500.25,-15.22"/>
<text text-anchor="middle" x="1949.87" y="-20.74" font-family="Times,serif" font-size="14.00">{c1, c3}</text>
</g>
<!-- 2&#45;&gt;2 -->
<g id="edge91" class="edge">
<title>2&#45;&gt;2</title>
<path fill="none" stroke="black" d="M1490.61,-29.25C1607.32,-44.28 1973.37,-42.68 1973.37,-24.44 1973.37,-6.69 1627.06,-4.69 1500.73,-18.43"/>
<polygon fill="black" stroke="black" points="1500.13,-14.98 1490.61,-19.63 1500.95,-21.93 1500.13,-14.98"/>
<text text-anchor="middle" x="1996.87" y="-20.74" font-family="Times,serif" font-size="14.00">{c1, c2}</text>
</g>
<!-- 2&#45;&gt;2 -->
<g id="edge92" class="edge">
<title>2&#45;&gt;2</title>
<path fill="none" stroke="black" d="M1490.53,-29.41C1615.05,-46.29 2020.37,-44.63 2020.37,-24.44 2020.37,-4.75 1635.37,-2.68 1500.55,-18.22"/>
<polygon fill="black" stroke="black" points="1500.02,-14.75 1490.53,-19.47 1500.89,-21.7 1500.02,-14.75"/>
<text text-anchor="middle" x="2043.87" y="-20.74" font-family="Times,serif" font-size="14.00">{c2, c3}</text>
</g>
<!-- 2&#45;&gt;2 -->
<g id="edge93" class="edge">
<title>2&#45;&gt;2</title>
<path fill="none" stroke="black" d="M1490.55,-29.56C1622.81,-48.29 2067.37,-46.58 2067.37,-24.44 2067.37,-2.83 1644.25,-0.67 1500.78,-17.97"/>
<polygon fill="black" stroke="black" points="1500.01,-14.55 1490.55,-19.31 1500.92,-21.49 1500.01,-14.55"/>
<text text-anchor="middle" x="2080.87" y="-20.74" font-family="Times,serif" font-size="14.00">{c1}</text>
</g>
<!-- 2&#45;&gt;2 -->
<g id="edge94" class="edge">
<title>2&#45;&gt;2</title>
<path fill="none" stroke="black" d="M1490.43,-29.73C1628,-50.3 2094.37,-48.53 2094.37,-24.44 2094.37,-0.91 1649.6,1.33 1500.64,-17.73"/>
<polygon fill="black" stroke="black" points="1499.86,-14.31 1490.43,-19.14 1500.82,-21.24 1499.86,-14.31"/>
<text text-anchor="middle" x="2117.87" y="-20.74" font-family="Times,serif" font-size="14.00">{c0, c1}</text>
</g>
<!-- 2&#45;&gt;2 -->
<g id="edge95" class="edge">
<title>2&#45;&gt;2</title>
<path fill="none" stroke="black" d="M1490.44,-29.86C1635.55,-52.3 2141.37,-50.49 2141.37,-24.44 2141.37,1.04 1658.02,3.34 1500.75,-17.54"/>
<polygon fill="black" stroke="black" points="1499.84,-14.13 1490.44,-19.02 1500.83,-21.06 1499.84,-14.13"/>
<text text-anchor="middle" x="2174.87" y="-20.74" font-family="Times,serif" font-size="14.00">{c0, c1, c3}</text>
</g>
<!-- 2&#45;&gt;2 -->
<g id="edge96" class="edge">
<title>2&#45;&gt;2</title>
<path fill="none" stroke="black" d="M1490.48,-29.94C1645.01,-54.31 2208.37,-52.47 2208.37,-24.44 2208.37,3.03 1667.88,5.35 1500.5,-17.47"/>
<polygon fill="black" stroke="black" points="1499.87,-14.02 1490.48,-18.93 1500.88,-20.95 1499.87,-14.02"/>
<text text-anchor="middle" x="2231.87" y="-20.74" font-family="Times,serif" font-size="14.00">{c0, c3}</text>
</g>
<!-- 2&#45;&gt;2 -->
<g id="edge97" class="edge">
<title>2&#45;&gt;2</title>
<path fill="none" stroke="black" d="M1490.31,-30.02C1651.81,-56.31 2255.37,-54.45 2255.37,-24.44 2255.37,4.99 1675.16,7.36 1500.27,-17.34"/>
<polygon fill="black" stroke="black" points="1499.67,-13.89 1490.31,-18.85 1500.72,-20.82 1499.67,-13.89"/>
<text text-anchor="middle" x="2262.37" y="-20.74" font-family="Times,serif" font-size="14.00">{}</text>
</g>
<!-- 3&#45;&gt;2 -->
<g id="edge11" class="edge">
<title>3&#45;&gt;2</title>
<path fill="none" stroke="black" d="M1006.63,-184.52C1003.13,-174.71 998.38,-162.21 993.37,-151.44 989.51,-143.14 985.67,-142.3 983.37,-133.44 979.36,-117.95 973.25,-109.83 983.37,-97.44 1008.61,-66.51 1033.83,-93 1071.37,-79.44 1084.65,-74.64 1085.83,-68.41 1099.37,-64.44 1196.48,-35.94 1225.84,-58.06 1326.37,-46.44 1361.17,-42.41 1400.66,-36.24 1428.46,-31.63"/>
<polygon fill="black" stroke="black" points="1429.22,-35.05 1438.5,-29.94 1428.06,-28.14 1429.22,-35.05"/>
<text text-anchor="middle" x="996.87" y="-111.74" font-family="Times,serif" font-size="14.00">{c0}</text>
</g>
<!-- 3&#45;&gt;2 -->
<g id="edge12" class="edge">
<title>3&#45;&gt;2</title>
<path fill="none" stroke="black" d="M1013.43,-184.34C1015.75,-161.58 1023.08,-121.42 1046.37,-97.44 1062.82,-80.49 1074.79,-89.04 1096.37,-79.44 1109.27,-73.7 1110.84,-68.48 1124.37,-64.44 1210.73,-38.63 1236.89,-57.22 1326.37,-46.44 1361.15,-42.24 1400.64,-36.09 1428.45,-31.53"/>
<polygon fill="black" stroke="black" points="1429.2,-34.95 1438.49,-29.87 1428.06,-28.05 1429.2,-34.95"/>
<text text-anchor="middle" x="1079.87" y="-111.74" font-family="Times,serif" font-size="14.00">{c0, c2, c3}</text>
</g>
<!-- 3&#45;&gt;2 -->
<g id="edge13" class="edge">
<title>3&#45;&gt;2</title>
<path fill="none" stroke="black" d="M1032.14,-189.71C1053.1,-176.92 1086.78,-155.34 1113.37,-133.44 1130.84,-119.05 1133.14,-113.2 1149.37,-97.44 1164.71,-82.54 1165.04,-73.56 1184.37,-64.44 1241.9,-37.28 1263.36,-55.22 1326.37,-46.44 1361.06,-41.6 1400.57,-35.53 1428.4,-31.16"/>
<polygon fill="black" stroke="black" points="1429.12,-34.59 1438.46,-29.58 1428.03,-27.68 1429.12,-34.59"/>
<text text-anchor="middle" x="1162.87" y="-111.74" font-family="Times,serif" font-size="14.00">{c2}</text>
</g>
<!-- 3&#45;&gt;2 -->
<g id="edge14" class="edge">
<title>3&#45;&gt;2</title>
<path fill="none" stroke="black" d="M1036.91,-194.58C1070.32,-184.54 1131.14,-163.67 1176.37,-133.44 1212.95,-108.98 1208.08,-84.24 1247.37,-64.44 1263.26,-56.43 1370.53,-39.48 1428.07,-30.8"/>
<polygon fill="black" stroke="black" points="1428.83,-34.23 1438.2,-29.28 1427.79,-27.3 1428.83,-34.23"/>
<text text-anchor="middle" x="1223.87" y="-111.74" font-family="Times,serif" font-size="14.00">{c3}</text>
</g>
<!-- 3&#45;&gt;2 -->
<g id="edge15" class="edge">
<title>3&#45;&gt;2</title>
<path fill="none" stroke="black" d="M1037.63,-195.25C1064.12,-188.62 1106.89,-177.56 1143.37,-166.44 1186.53,-153.27 1201.1,-157.33 1239.37,-133.44 1258.56,-121.45 1257.54,-111.36 1275.37,-97.44 1297.84,-79.89 1304.25,-75.85 1330.37,-64.44 1362.66,-50.33 1401.51,-39.67 1429.04,-33.09"/>
<polygon fill="black" stroke="black" points="1430.06,-36.44 1439,-30.76 1428.47,-29.62 1430.06,-36.44"/>
<text text-anchor="middle" x="1298.87" y="-111.74" font-family="Times,serif" font-size="14.00">{c0, c2}</text>
</g>
<!-- 3&#45;&gt;2 -->
<g id="edge16" class="edge">
<title>3&#45;&gt;2</title>
<path fill="none" stroke="black" d="M1039.53,-200.73C1095.87,-198.18 1228.02,-186.53 1322.37,-133.44 1342.09,-122.34 1340.93,-111.86 1358.37,-97.44 1383.38,-76.75 1414.31,-56.26 1436.29,-42.46"/>
<polygon fill="black" stroke="black" points="1438.19,-45.4 1444.83,-37.15 1434.49,-39.46 1438.19,-45.4"/>
<text text-anchor="middle" x="1381.87" y="-111.74" font-family="Times,serif" font-size="14.00">{c2, c3}</text>
</g>
<!-- 3&#45;&gt;2 -->
<g id="edge17" class="edge">
<title>3&#45;&gt;2</title>
<path fill="none" stroke="black" d="M1039.2,-200.05C1118.17,-195.47 1347.86,-178.48 1405.37,-133.44 1431.72,-112.8 1447.91,-76.99 1456.51,-52.3"/>
<polygon fill="black" stroke="black" points="1459.94,-53.06 1459.74,-42.47 1453.29,-50.88 1459.94,-53.06"/>
<text text-anchor="middle" x="1458.87" y="-111.74" font-family="Times,serif" font-size="14.00">{c0, c3}</text>
</g>
<!-- 3&#45;&gt;3 -->
<g id="edge5" class="edge">
<title>3&#45;&gt;3</title>
<path fill="none" stroke="black" d="M1036.9,-210.19C1047.88,-210.93 1057.37,-208.34 1057.37,-202.44 1057.37,-198.47 1053.09,-196 1046.95,-195.03"/>
<polygon fill="black" stroke="black" points="1047.02,-191.53 1036.9,-194.68 1046.78,-198.53 1047.02,-191.53"/>
<text text-anchor="middle" x="1064.37" y="-198.74" font-family="Times,serif" font-size="14.00">{}</text>
</g>
<!-- 4 -->
<g id="node6" class="node">
<title>4</title>
<ellipse fill="none" stroke="black" cx="625.37" cy="-115.44" rx="27" ry="18"/>
<text text-anchor="middle" x="625.37" y="-111.74" font-family="Times,serif" font-size="14.00">4</text>
</g>
<!-- 3&#45;&gt;4 -->
<g id="edge2" class="edge">
<title>3&#45;&gt;4</title>
<path fill="none" stroke="black" d="M985.21,-200.97C866.3,-198.82 396.64,-188.91 375.37,-166.44 370.79,-161.59 371,-156.47 375.37,-151.44 402.42,-120.33 524.71,-116.04 587.67,-115.95"/>
<polygon fill="black" stroke="black" points="587.96,-119.45 597.96,-115.98 587.97,-112.45 587.96,-119.45"/>
<text text-anchor="middle" x="388.87" y="-155.24" font-family="Times,serif" font-size="14.00">{c1}</text>
</g>
<!-- 3&#45;&gt;4 -->
<g id="edge3" class="edge">
<title>3&#45;&gt;4</title>
<path fill="none" stroke="black" d="M985.47,-200.85C872.93,-198.26 444.82,-187.08 425.37,-166.44 420.8,-161.58 421.08,-156.54 425.37,-151.44 445.74,-127.2 535.99,-119.74 588.03,-117.45"/>
<polygon fill="black" stroke="black" points="588.35,-120.94 598.2,-117.05 588.07,-113.95 588.35,-120.94"/>
<text text-anchor="middle" x="469.37" y="-155.24" font-family="Times,serif" font-size="14.00">{c0, c1, c2, c3}</text>
</g>
<!-- 3&#45;&gt;4 -->
<g id="edge4" class="edge">
<title>3&#45;&gt;4</title>
<path fill="none" stroke="black" d="M985.39,-201.54C889.19,-201.63 567.04,-199.44 536.37,-166.44 516.91,-145.49 557.31,-131.09 589.86,-123.3"/>
<polygon fill="black" stroke="black" points="590.65,-126.71 599.64,-121.1 589.11,-119.88 590.65,-126.71"/>
<text text-anchor="middle" x="569.87" y="-155.24" font-family="Times,serif" font-size="14.00">{c1, c2, c3}</text>
</g>
<!-- 3&#45;&gt;4 -->
<g id="edge6" class="edge">
<title>3&#45;&gt;4</title>
<path fill="none" stroke="black" d="M985.43,-201.02C901.8,-199.47 650.8,-192.65 626.37,-166.44 620.71,-160.36 619.14,-151.85 619.39,-143.57"/>
<polygon fill="black" stroke="black" points="622.9,-143.73 620.52,-133.4 615.94,-142.96 622.9,-143.73"/>
<text text-anchor="middle" x="649.87" y="-155.24" font-family="Times,serif" font-size="14.00">{c0, c1}</text>
</g>
<!-- 3&#45;&gt;4 -->
<g id="edge7" class="edge">
<title>3&#45;&gt;4</title>
<path fill="none" stroke="black" d="M985.56,-200.18C919.26,-196.81 749.15,-186.42 696.37,-166.44 693.76,-165.45 670.41,-148.87 651.19,-135.07"/>
<polygon fill="black" stroke="black" points="653.17,-132.19 643.01,-129.19 649.09,-137.87 653.17,-132.19"/>
<text text-anchor="middle" x="729.87" y="-155.24" font-family="Times,serif" font-size="14.00">{c0, c1, c2}</text>
</g>
<!-- 3&#45;&gt;4 -->
<g id="edge8" class="edge">
<title>3&#45;&gt;4</title>
<path fill="none" stroke="black" d="M985.34,-200.9C941.97,-199.25 854.78,-192.64 786.37,-166.44 774.97,-162.07 774.55,-156.34 763.37,-151.44 730.21,-136.9 689.8,-127.54 661.31,-122.19"/>
<polygon fill="black" stroke="black" points="661.85,-118.73 651.39,-120.4 660.61,-125.62 661.85,-118.73"/>
<text text-anchor="middle" x="819.87" y="-155.24" font-family="Times,serif" font-size="14.00">{c0, c1, c3}</text>
</g>
<!-- 3&#45;&gt;4 -->
<g id="edge9" class="edge">
<title>3&#45;&gt;4</title>
<path fill="none" stroke="black" d="M986.22,-197.32C958.21,-192.32 912.85,-182.5 876.37,-166.44 865.2,-161.52 864.77,-155.79 853.37,-151.44 789.17,-126.89 708.57,-119.53 662.42,-117.34"/>
<polygon fill="black" stroke="black" points="662.42,-113.84 652.29,-116.92 662.13,-120.83 662.42,-113.84"/>
<text text-anchor="middle" x="899.87" y="-155.24" font-family="Times,serif" font-size="14.00">{c1, c3}</text>
</g>
<!-- 3&#45;&gt;4 -->
<g id="edge10" class="edge">
<title>3&#45;&gt;4</title>
<path fill="none" stroke="black" d="M991.3,-190.88C978.21,-184.17 961.12,-175.13 946.37,-166.44 935.86,-160.24 934.85,-155.59 923.37,-151.44 876.2,-134.36 731.32,-123.16 662.46,-118.67"/>
<polygon fill="black" stroke="black" points="662.68,-115.18 652.48,-118.03 662.23,-122.16 662.68,-115.18"/>
<text text-anchor="middle" x="969.87" y="-155.24" font-family="Times,serif" font-size="14.00">{c1, c2}</text>
</g>
<!-- 4&#45;&gt;2 -->
<g id="edge43" class="edge">
<title>4&#45;&gt;2</title>
<path fill="none" stroke="black" d="M627.1,-97.09C629.21,-85.8 633.92,-71.85 644.37,-64.44 675.28,-42.51 1288.62,-49.79 1326.37,-46.44 1361.37,-43.32 1400.98,-37 1428.77,-32.1"/>
<polygon fill="black" stroke="black" points="1429.57,-35.51 1438.8,-30.31 1428.34,-28.62 1429.57,-35.51"/>
<text text-anchor="middle" x="657.87" y="-68.24" font-family="Times,serif" font-size="14.00">{c2}</text>
</g>
<!-- 4&#45;&gt;2 -->
<g id="edge44" class="edge">
<title>4&#45;&gt;2</title>
<path fill="none" stroke="black" d="M642.47,-101.23C660.94,-87.1 688.52,-66.42 694.37,-64.44 760.88,-41.82 1256.4,-52.73 1326.37,-46.44 1361.36,-43.29 1400.98,-36.97 1428.76,-32.08"/>
<polygon fill="black" stroke="black" points="1429.57,-35.49 1438.8,-30.29 1428.34,-28.6 1429.57,-35.49"/>
<text text-anchor="middle" x="707.87" y="-68.24" font-family="Times,serif" font-size="14.00">{c3}</text>
</g>
<!-- 4&#45;&gt;2 -->
<g id="edge45" class="edge">
<title>4&#45;&gt;2</title>
<path fill="none" stroke="black" d="M649.68,-107.27C669.47,-101.04 697.89,-91.18 721.37,-79.44 732.29,-73.98 732.73,-68.09 744.37,-64.44 806.09,-45.04 1261.94,-52.31 1326.37,-46.44 1361.36,-43.24 1400.98,-36.93 1428.76,-32.06"/>
<polygon fill="black" stroke="black" points="1429.56,-35.47 1438.8,-30.27 1428.34,-28.58 1429.56,-35.47"/>
<text text-anchor="middle" x="777.87" y="-68.24" font-family="Times,serif" font-size="14.00">{c1, c2, c3}</text>
</g>
<!-- 4&#45;&gt;2 -->
<g id="edge46" class="edge">
<title>4&#45;&gt;2</title>
<path fill="none" stroke="black" d="M652.16,-112.69C689.15,-109.55 757.4,-101.11 811.37,-79.44 822.7,-74.89 822.74,-68.13 834.37,-64.44 938.65,-31.35 1217.45,-56.68 1326.37,-46.44 1361.35,-43.15 1400.97,-36.85 1428.76,-32"/>
<polygon fill="black" stroke="black" points="1429.55,-35.42 1438.79,-30.23 1428.33,-28.52 1429.55,-35.42"/>
<text text-anchor="middle" x="857.87" y="-68.24" font-family="Times,serif" font-size="14.00">{c1, c3}</text>
</g>
<!-- 4&#45;&gt;2 -->
<g id="edge47" class="edge">
<title>4&#45;&gt;2</title>
<path fill="none" stroke="black" d="M652.47,-114.59C700.25,-114.02 801.93,-109.06 881.37,-79.44 892.81,-75.17 892.75,-68.16 904.37,-64.44 993.75,-35.78 1232.95,-55.51 1326.37,-46.44 1361.23,-43.05 1400.72,-36.79 1428.5,-31.99"/>
<polygon fill="black" stroke="black" points="1429.29,-35.4 1438.53,-30.22 1428.08,-28.51 1429.29,-35.4"/>
<text text-anchor="middle" x="927.87" y="-68.24" font-family="Times,serif" font-size="14.00">{c1, c2}</text>
</g>
<!-- 4&#45;&gt;2 -->
<g id="edge48" class="edge">
<title>4&#45;&gt;2</title>
<path fill="none" stroke="black" d="M652.49,-113.15C720.43,-109.69 896.41,-99.03 951.37,-79.44 962.87,-75.34 962.77,-68.21 974.37,-64.44 1048.85,-40.21 1248.45,-54.34 1326.37,-46.44 1361.22,-42.9 1400.71,-36.67 1428.49,-31.9"/>
<polygon fill="black" stroke="black" points="1429.27,-35.32 1438.53,-30.16 1428.08,-28.42 1429.27,-35.32"/>
<text text-anchor="middle" x="997.87" y="-68.24" font-family="Times,serif" font-size="14.00">{c2, c3}</text>
</g>
<!-- 4&#45;&gt;2 -->
<g id="edge49" class="edge">
<title>4&#45;&gt;2</title>
<path fill="none" stroke="black" d="M652.5,-113.75C730.29,-111.5 952.88,-103.13 1021.37,-79.44 1032.9,-75.45 1032.79,-68.28 1044.37,-64.44 1103.96,-44.63 1263.94,-53.17 1326.37,-46.44 1361.2,-42.68 1400.69,-36.47 1428.47,-31.78"/>
<polygon fill="black" stroke="black" points="1429.25,-35.2 1438.52,-30.06 1428.07,-28.3 1429.25,-35.2"/>
<text text-anchor="middle" x="1057.87" y="-68.24" font-family="Times,serif" font-size="14.00">{c1}</text>
</g>
<!-- 4&#45;&gt;4 -->
<g id="edge40" class="edge">
<title>4&#45;&gt;4</title>
<path fill="none" stroke="black" d="M649.9,-123.19C660.88,-123.93 670.37,-121.34 670.37,-115.44 670.37,-111.47 666.09,-109 659.95,-108.03"/>
<polygon fill="black" stroke="black" points="660.02,-104.53 649.9,-107.68 659.78,-111.53 660.02,-104.53"/>
<text text-anchor="middle" x="677.37" y="-111.74" font-family="Times,serif" font-size="14.00">{}</text>
</g>
<!-- 5 -->
<g id="node7" class="node">
<title>5</title>
<ellipse fill="none" stroke="black" cx="247.37" cy="-24.44" rx="18" ry="18"/>
<ellipse fill="none" stroke="black" cx="247.37" cy="-24.44" rx="22" ry="22"/>
<text text-anchor="middle" x="247.37" y="-20.74" font-family="Times,serif" font-size="14.00">5</text>
</g>
<!-- 4&#45;&gt;5 -->
<g id="edge34" class="edge">
<title>4&#45;&gt;5</title>
<path fill="none" stroke="black" d="M598.45,-113.94C481.71,-111.67 24.11,-101.37 3.37,-79.44 -1.21,-74.59 -0.95,-69.51 3.37,-64.44 30.22,-32.95 155.17,-26.77 215.12,-25.64"/>
<polygon fill="black" stroke="black" points="215.23,-29.14 225.18,-25.48 215.12,-22.14 215.23,-29.14"/>
<text text-anchor="middle" x="16.87" y="-68.24" font-family="Times,serif" font-size="14.00">{c0}</text>
</g>
<!-- 4&#45;&gt;5 -->
<g id="edge35" class="edge">
<title>4&#45;&gt;5</title>
<path fill="none" stroke="black" d="M598.41,-113.8C487.61,-111.07 72.27,-99.52 53.37,-79.44 5.95,-29.02 147.9,-24.29 214.68,-24.73"/>
<polygon fill="black" stroke="black" points="215.05,-28.24 225.09,-24.85 215.13,-21.24 215.05,-28.24"/>
<text text-anchor="middle" x="86.87" y="-68.24" font-family="Times,serif" font-size="14.00">{c0, c1, c3}</text>
</g>
<!-- 4&#45;&gt;5 -->
<g id="edge36" class="edge">
<title>4&#45;&gt;5</title>
<path fill="none" stroke="black" d="M598.39,-114.57C501.39,-114.75 174.48,-112.88 143.37,-79.44 119.08,-53.32 176.85,-37.64 215.66,-30.36"/>
<polygon fill="black" stroke="black" points="216.31,-33.8 225.54,-28.61 215.09,-26.91 216.31,-33.8"/>
<text text-anchor="middle" x="166.87" y="-68.24" font-family="Times,serif" font-size="14.00">{c0, c2}</text>
</g>
<!-- 4&#45;&gt;5 -->
<g id="edge37" class="edge">
<title>4&#45;&gt;5</title>
<path fill="none" stroke="black" d="M598.15,-114.21C510.43,-113.19 239.38,-107.75 213.37,-79.44 203.99,-69.23 211.91,-56.1 222.45,-45.34"/>
<polygon fill="black" stroke="black" points="225.04,-47.71 229.98,-38.34 220.27,-42.58 225.04,-47.71"/>
<text text-anchor="middle" x="236.87" y="-68.24" font-family="Times,serif" font-size="14.00">{c0, c1}</text>
</g>
<!-- 4&#45;&gt;5 -->
<g id="edge38" class="edge">
<title>4&#45;&gt;5</title>
<path fill="none" stroke="black" d="M598.39,-114.58C527.23,-114.53 336.28,-111.32 283.37,-79.44 273.57,-73.53 265.88,-63.81 260.17,-54.24"/>
<polygon fill="black" stroke="black" points="263.13,-52.36 255.3,-45.23 256.98,-55.69 263.13,-52.36"/>
<text text-anchor="middle" x="316.87" y="-68.24" font-family="Times,serif" font-size="14.00">{c0, c1, c2}</text>
</g>
<!-- 4&#45;&gt;5 -->
<g id="edge39" class="edge">
<title>4&#45;&gt;5</title>
<path fill="none" stroke="black" d="M598.32,-114.5C551.12,-113.8 451.35,-108.61 373.37,-79.44 361.94,-75.16 361.25,-69.96 350.37,-64.44 326.93,-52.53 298.96,-42.16 278.08,-35.12"/>
<polygon fill="black" stroke="black" points="279.05,-31.75 268.45,-31.93 276.85,-38.4 279.05,-31.75"/>
<text text-anchor="middle" x="396.87" y="-68.24" font-family="Times,serif" font-size="14.00">{c0, c3}</text>
</g>
<!-- 4&#45;&gt;5 -->
<g id="edge41" class="edge">
<title>4&#45;&gt;5</title>
<path fill="none" stroke="black" d="M598.54,-112.53C562.21,-109.24 495.88,-100.65 443.37,-79.44 432.06,-74.86 431.61,-69.19 420.37,-64.44 373.47,-44.62 314.96,-34.13 279.42,-29.19"/>
<polygon fill="black" stroke="black" points="279.54,-25.67 269.17,-27.83 278.62,-32.61 279.54,-25.67"/>
<text text-anchor="middle" x="487.37" y="-68.24" font-family="Times,serif" font-size="14.00">{c0, c1, c2, c3}</text>
</g>
<!-- 4&#45;&gt;5 -->
<g id="edge42" class="edge">
<title>4&#45;&gt;5</title>
<path fill="none" stroke="black" d="M603.58,-104.53C589.35,-97.85 570.49,-88.62 554.37,-79.44 543.77,-73.39 542.81,-68.7 531.37,-64.44 444.56,-32.04 333.81,-26.14 279.86,-25.33"/>
<polygon fill="black" stroke="black" points="279.57,-21.82 269.54,-25.23 279.5,-28.82 279.57,-21.82"/>
<text text-anchor="middle" x="587.87" y="-68.24" font-family="Times,serif" font-size="14.00">{c0, c2, c3}</text>
</g>
<!-- 5&#45;&gt;5 -->
<g id="edge66" class="edge">
<title>5&#45;&gt;5</title>
<path fill="none" stroke="black" d="M269.58,-25.92C279.17,-26.04 287.37,-25.55 287.37,-24.44 287.37,-23.76 284.32,-23.31 279.78,-23.09"/>
<polygon fill="black" stroke="black" points="279.63,-19.59 269.58,-22.95 279.53,-26.59 279.63,-19.59"/>
<text text-anchor="middle" x="320.87" y="-20.74" font-family="Times,serif" font-size="14.00">{c0, c1, c2}</text>
</g>
<!-- 5&#45;&gt;5 -->
<g id="edge67" class="edge">
<title>5&#45;&gt;5</title>
<path fill="none" stroke="black" d="M269.72,-26.56C302.46,-28.22 354.37,-27.51 354.37,-24.44 354.37,-21.66 312.1,-20.81 279.79,-21.89"/>
<polygon fill="black" stroke="black" points="279.56,-18.4 269.72,-22.31 279.85,-25.39 279.56,-18.4"/>
<text text-anchor="middle" x="377.87" y="-20.74" font-family="Times,serif" font-size="14.00">{c1, c3}</text>
</g>
<!-- 5&#45;&gt;5 -->
<g id="edge68" class="edge">
<title>5&#45;&gt;5</title>
<path fill="none" stroke="black" d="M269.37,-27.07C314.38,-30.25 401.37,-29.37 401.37,-24.44 401.37,-19.85 326.18,-18.77 279.44,-21.19"/>
<polygon fill="black" stroke="black" points="279.14,-17.71 269.37,-21.81 279.56,-24.69 279.14,-17.71"/>
<text text-anchor="middle" x="434.87" y="-20.74" font-family="Times,serif" font-size="14.00">{c0, c2, c3}</text>
</g>
<!-- 5&#45;&gt;5 -->
<g id="edge69" class="edge">
<title>5&#45;&gt;5</title>
<path fill="none" stroke="black" d="M269.42,-27.37C328.93,-32.27 468.37,-31.3 468.37,-24.44 468.37,-17.94 343.25,-16.72 279.47,-20.78"/>
<polygon fill="black" stroke="black" points="279.14,-17.29 269.42,-21.5 279.65,-24.27 279.14,-17.29"/>
<text text-anchor="middle" x="481.87" y="-20.74" font-family="Times,serif" font-size="14.00">{c3}</text>
</g>
<!-- 5&#45;&gt;5 -->
<g id="edge70" class="edge">
<title>5&#45;&gt;5</title>
<path fill="none" stroke="black" d="M269.19,-27.76C334.8,-34.27 495.37,-33.17 495.37,-24.44 495.37,-16.13 350.1,-14.72 279.45,-20.21"/>
<polygon fill="black" stroke="black" points="278.84,-16.75 269.19,-21.11 279.45,-23.72 278.84,-16.75"/>
<text text-anchor="middle" x="528.87" y="-20.74" font-family="Times,serif" font-size="14.00">{c0, c1, c3}</text>
</g>
<!-- 5&#45;&gt;5 -->
<g id="edge71" class="edge">
<title>5&#45;&gt;5</title>
<path fill="none" stroke="black" d="M269.13,-27.94C346.88,-36.29 562.37,-35.12 562.37,-24.44 562.37,-14.18 363.79,-12.69 279.11,-19.97"/>
<polygon fill="black" stroke="black" points="278.75,-16.49 269.13,-20.93 279.42,-23.46 278.75,-16.49"/>
<text text-anchor="middle" x="569.37" y="-20.74" font-family="Times,serif" font-size="14.00">{}</text>
</g>
<!-- 5&#45;&gt;5 -->
<g id="edge72" class="edge">
<title>5&#45;&gt;5</title>
<path fill="none" stroke="black" d="M269.11,-28.27C351.4,-38.29 580.37,-37.01 580.37,-24.44 580.37,-12.34 368.51,-10.69 279.13,-19.51"/>
<polygon fill="black" stroke="black" points="278.67,-16.04 269.11,-20.6 279.43,-23 278.67,-16.04"/>
<text text-anchor="middle" x="603.87" y="-20.74" font-family="Times,serif" font-size="14.00">{c1, c2}</text>
</g>
<!-- 5&#45;&gt;5 -->
<g id="edge73" class="edge">
<title>5&#45;&gt;5</title>
<path fill="none" stroke="black" d="M269.25,-28.48C360.15,-40.3 627.37,-38.95 627.37,-24.44 627.37,-10.43 378.61,-8.68 279.47,-19.2"/>
<polygon fill="black" stroke="black" points="278.78,-15.76 269.25,-20.4 279.59,-22.71 278.78,-15.76"/>
<text text-anchor="middle" x="640.87" y="-20.74" font-family="Times,serif" font-size="14.00">{c1}</text>
</g>
<!-- 5&#45;&gt;5 -->
<g id="edge74" class="edge">
<title>5&#45;&gt;5</title>
<path fill="none" stroke="black" d="M269.08,-28.68C365.56,-42.3 654.37,-40.89 654.37,-24.44 654.37,-8.53 384.42,-6.68 279.31,-18.89"/>
<polygon fill="black" stroke="black" points="278.56,-15.45 269.08,-20.19 279.45,-22.4 278.56,-15.45"/>
<text text-anchor="middle" x="687.87" y="-20.74" font-family="Times,serif" font-size="14.00">{c1, c2, c3}</text>
</g>
<!-- 5&#45;&gt;5 -->
<g id="edge75" class="edge">
<title>5&#45;&gt;5</title>
<path fill="none" stroke="black" d="M269.01,-28.76C375.76,-44.31 721.37,-42.87 721.37,-24.44 721.37,-6.54 395.72,-4.66 278.99,-18.79"/>
<polygon fill="black" stroke="black" points="278.46,-15.33 269.01,-20.11 279.38,-22.27 278.46,-15.33"/>
<text text-anchor="middle" x="734.87" y="-20.74" font-family="Times,serif" font-size="14.00">{c2}</text>
</g>
<!-- 5&#45;&gt;5 -->
<g id="edge76" class="edge">
<title>5&#45;&gt;5</title>
<path fill="none" stroke="black" d="M269.24,-28.97C381.83,-46.31 748.37,-44.8 748.37,-24.44 748.37,-4.65 402.3,-2.66 279.4,-18.47"/>
<polygon fill="black" stroke="black" points="278.65,-15.04 269.24,-19.9 279.63,-21.98 278.65,-15.04"/>
<text text-anchor="middle" x="792.37" y="-20.74" font-family="Times,serif" font-size="14.00">{c0, c1, c2, c3}</text>
</g>
<!-- 5&#45;&gt;5 -->
<g id="edge77" class="edge">
<title>5&#45;&gt;5</title>
<path fill="none" stroke="black" d="M268.98,-28.96C393.08,-48.33 836.37,-46.82 836.37,-24.44 836.37,-2.62 415.3,-0.64 279.04,-18.48"/>
<polygon fill="black" stroke="black" points="278.39,-15.03 268.98,-19.91 279.38,-21.96 278.39,-15.03"/>
<text text-anchor="middle" x="859.87" y="-20.74" font-family="Times,serif" font-size="14.00">{c0, c3}</text>
</g>
<!-- 5&#45;&gt;5 -->
<g id="edge78" class="edge">
<title>5&#45;&gt;5</title>
<path fill="none" stroke="black" d="M268.99,-29.07C400.39,-50.33 883.37,-48.79 883.37,-24.44 883.37,-0.68 423.69,1.37 279.23,-18.28"/>
<polygon fill="black" stroke="black" points="278.37,-14.87 268.99,-19.8 279.39,-21.8 278.37,-14.87"/>
<text text-anchor="middle" x="896.87" y="-20.74" font-family="Times,serif" font-size="14.00">{c0}</text>
</g>
<!-- 5&#45;&gt;5 -->
<g id="edge79" class="edge">
<title>5&#45;&gt;5</title>
<path fill="none" stroke="black" d="M269.01,-29.21C405.83,-52.33 910.37,-50.74 910.37,-24.44 910.37,1.25 429.21,3.37 279.23,-18.07"/>
<polygon fill="black" stroke="black" points="278.36,-14.67 269.01,-19.66 279.43,-21.58 278.36,-14.67"/>
<text text-anchor="middle" x="933.87" y="-20.74" font-family="Times,serif" font-size="14.00">{c2, c3}</text>
</g>
<!-- 5&#45;&gt;5 -->
<g id="edge80" class="edge">
<title>5&#45;&gt;5</title>
<path fill="none" stroke="black" d="M269.11,-29.32C413.27,-54.34 957.37,-52.71 957.37,-24.44 957.37,3.2 437.44,5.38 279.42,-17.9"/>
<polygon fill="black" stroke="black" points="278.44,-14.52 269.11,-19.55 279.54,-21.43 278.44,-14.52"/>
<text text-anchor="middle" x="980.87" y="-20.74" font-family="Times,serif" font-size="14.00">{c0, c1}</text>
</g>
<!-- 5&#45;&gt;5 -->
<g id="edge81" class="edge">
<title>5&#45;&gt;5</title>
<path fill="none" stroke="black" d="M269.07,-29.4C420.24,-56.34 1004.37,-54.69 1004.37,-24.44 1004.37,5.16 445.07,7.38 279.4,-17.78"/>
<polygon fill="black" stroke="black" points="278.37,-14.4 269.07,-19.47 279.5,-21.31 278.37,-14.4"/>
<text text-anchor="middle" x="1027.87" y="-20.74" font-family="Times,serif" font-size="14.00">{c0, c2}</text>
</g>
</g>
</svg>
