<?xml version="1.0" encoding="UTF-8" standalone="no"?>
<!DOCTYPE svg PUBLIC "-//W3C//DTD SVG 1.1//EN"
 "http://www.w3.org/Graphics/SVG/1.1/DTD/svg11.dtd">
<!-- Generated by graphviz version 2.43.0 (0)
 -->
<!-- Title: %3 Pages: 1 -->
<svg width="1074pt" height="386pt"
 viewBox="0.00 0.00 1073.61 386.00" xmlns="http://www.w3.org/2000/svg" xmlns:xlink="http://www.w3.org/1999/xlink">
<g id="graph0" class="graph" transform="scale(1 1) rotate(0) translate(4 382)">
<title>%3</title>
<polygon fill="white" stroke="transparent" points="-4,4 -4,-382 1069.61,-382 1069.61,4 -4,4"/>
<!-- fake -->
<g id="node1" class="node">
<title>fake</title>
</g>
<!-- 0 -->
<g id="node2" class="node">
<title>0</title>
<ellipse fill="none" stroke="black" cx="604.61" cy="-287" rx="27" ry="18"/>
<text text-anchor="middle" x="604.61" y="-283.3" font-family="Times,serif" font-size="14.00">0</text>
</g>
<!-- fake&#45;&gt;0 -->
<g id="edge1" class="edge">
<title>fake&#45;&gt;0</title>
<path fill="none" stroke="black" stroke-width="2" d="M604.61,-341.81C604.61,-333.79 604.61,-324.05 604.61,-315.07"/>
<polygon fill="black" stroke="black" stroke-width="2" points="608.11,-315.03 604.61,-305.03 601.11,-315.03 608.11,-315.03"/>
</g>
<!-- 0&#45;&gt;0 -->
<g id="edge4" class="edge">
<title>0&#45;&gt;0</title>
<path fill="none" stroke="black" d="M630.05,-293.69C640.64,-294.15 649.61,-291.92 649.61,-287 649.61,-283.77 645.75,-281.7 640.1,-280.79"/>
<polygon fill="black" stroke="black" points="640.21,-277.29 630.05,-280.31 639.88,-284.28 640.21,-277.29"/>
<text text-anchor="middle" x="656.61" y="-283.3" font-family="Times,serif" font-size="14.00">{}</text>
</g>
<!-- 1 -->
<g id="node3" class="node">
<title>1</title>
<ellipse fill="none" stroke="black" cx="444.61" cy="-200" rx="27" ry="18"/>
<text text-anchor="middle" x="444.61" y="-196.3" font-family="Times,serif" font-size="14.00">1</text>
</g>
<!-- 0&#45;&gt;1 -->
<g id="edge2" class="edge">
<title>0&#45;&gt;1</title>
<path fill="none" stroke="black" d="M577.42,-286.06C522.5,-285.56 401.36,-280.98 375.61,-251 361.38,-234.43 386.52,-220.34 410.35,-211.38"/>
<polygon fill="black" stroke="black" points="411.75,-214.6 420.02,-207.98 409.42,-208 411.75,-214.6"/>
<text text-anchor="middle" x="399.11" y="-239.8" font-family="Times,serif" font-size="14.00">{c0, c1}</text>
</g>
<!-- 0&#45;&gt;1 -->
<g id="edge3" class="edge">
<title>0&#45;&gt;1</title>
<path fill="none" stroke="black" d="M577.87,-284.02C537.03,-280.39 462.1,-271.1 445.61,-251 440.42,-244.68 438.92,-236.23 439.09,-228.09"/>
<polygon fill="black" stroke="black" points="442.57,-228.4 440.05,-218.12 435.61,-227.73 442.57,-228.4"/>
<text text-anchor="middle" x="479.11" y="-239.8" font-family="Times,serif" font-size="14.00">{c0, c1, c2}</text>
</g>
<!-- 0&#45;&gt;1 -->
<g id="edge5" class="edge">
<title>0&#45;&gt;1</title>
<path fill="none" stroke="black" d="M583.16,-275.86C569.37,-269.17 551.2,-260 535.61,-251 525.04,-244.9 523.16,-242.13 512.61,-236 500.56,-229 486.97,-221.85 475.12,-215.86"/>
<polygon fill="black" stroke="black" points="476.56,-212.67 466.05,-211.33 473.43,-218.93 476.56,-212.67"/>
<text text-anchor="middle" x="559.11" y="-239.8" font-family="Times,serif" font-size="14.00">{c0, c2}</text>
</g>
<!-- 0&#45;&gt;1 -->
<g id="edge6" class="edge">
<title>0&#45;&gt;1</title>
<path fill="none" stroke="black" d="M601.13,-268.83C598.05,-257.92 592.46,-244.33 582.61,-236 554.43,-212.15 512.14,-204.21 481.81,-201.74"/>
<polygon fill="black" stroke="black" points="481.83,-198.24 471.63,-201.08 481.38,-205.22 481.83,-198.24"/>
<text text-anchor="middle" x="606.11" y="-239.8" font-family="Times,serif" font-size="14.00">{c0}</text>
</g>
<!-- 2 -->
<g id="node4" class="node">
<title>2</title>
<ellipse fill="none" stroke="black" cx="591.61" cy="-22" rx="27" ry="18"/>
<text text-anchor="middle" x="591.61" y="-18.3" font-family="Times,serif" font-size="14.00">2</text>
</g>
<!-- 0&#45;&gt;2 -->
<g id="edge7" class="edge">
<title>0&#45;&gt;2</title>
<path fill="none" stroke="black" d="M615.28,-270.31C618.64,-264.51 621.91,-257.7 623.61,-251 631.02,-221.81 676.71,-404.34 616.61,-95 613.57,-79.37 607.87,-62.53 602.67,-49.06"/>
<polygon fill="black" stroke="black" points="605.82,-47.49 598.86,-39.5 599.32,-50.09 605.82,-47.49"/>
<text text-anchor="middle" x="643.11" y="-152.8" font-family="Times,serif" font-size="14.00">{c1}</text>
</g>
<!-- 0&#45;&gt;2 -->
<g id="edge8" class="edge">
<title>0&#45;&gt;2</title>
<path fill="none" stroke="black" d="M624.61,-274.44C633.06,-268.52 642.18,-260.53 647.61,-251 670.24,-211.29 669.74,-193.78 660.61,-149 652.22,-107.83 645.38,-97.94 623.61,-62 620.22,-56.4 616.07,-50.74 611.91,-45.53"/>
<polygon fill="black" stroke="black" points="614.55,-43.23 605.45,-37.8 609.18,-47.72 614.55,-43.23"/>
<text text-anchor="middle" x="686.11" y="-152.8" font-family="Times,serif" font-size="14.00">{c1, c2}</text>
</g>
<!-- 0&#45;&gt;2 -->
<g id="edge9" class="edge">
<title>0&#45;&gt;2</title>
<path fill="none" stroke="black" d="M626.78,-276.61C639.01,-270.61 653.86,-261.91 664.61,-251 699.9,-215.17 730.65,-196.32 713.61,-149 696.33,-101.02 649.45,-61.9 619.09,-40.57"/>
<polygon fill="black" stroke="black" points="620.86,-37.54 610.63,-34.79 616.91,-43.32 620.86,-37.54"/>
<text text-anchor="middle" x="730.11" y="-152.8" font-family="Times,serif" font-size="14.00">{c2}</text>
</g>
<!-- 1&#45;&gt;1 -->
<g id="edge19" class="edge">
<title>1&#45;&gt;1</title>
<path fill="none" stroke="black" d="M469.14,-207.75C480.12,-208.49 489.61,-205.91 489.61,-200 489.61,-196.03 485.33,-193.56 479.19,-192.59"/>
<polygon fill="black" stroke="black" points="479.26,-189.09 469.14,-192.25 479.02,-196.09 479.26,-189.09"/>
<text text-anchor="middle" x="496.61" y="-196.3" font-family="Times,serif" font-size="14.00">{}</text>
</g>
<!-- 1&#45;&gt;2 -->
<g id="edge23" class="edge">
<title>1&#45;&gt;2</title>
<path fill="none" stroke="black" d="M443.73,-181.75C443.35,-160.22 445.15,-122.85 459.61,-95 469.47,-76.03 476.07,-72.65 494.61,-62 519.12,-47.92 529.66,-55.2 555.61,-44 558.29,-42.84 561.02,-41.53 563.71,-40.14"/>
<polygon fill="black" stroke="black" points="565.56,-43.12 572.63,-35.22 562.18,-36.99 565.56,-43.12"/>
<text text-anchor="middle" x="473.11" y="-109.3" font-family="Times,serif" font-size="14.00">{c0}</text>
</g>
<!-- 1&#45;&gt;2 -->
<g id="edge24" class="edge">
<title>1&#45;&gt;2</title>
<path fill="none" stroke="black" d="M455.42,-183.4C469.99,-162.65 497.05,-125.11 522.61,-95 537.55,-77.4 555.64,-58.61 569.55,-44.64"/>
<polygon fill="black" stroke="black" points="572.19,-46.95 576.8,-37.41 567.25,-41.99 572.19,-46.95"/>
<text text-anchor="middle" x="546.11" y="-109.3" font-family="Times,serif" font-size="14.00">{c0, c2}</text>
</g>
<!-- 1&#45;&gt;2 -->
<g id="edge25" class="edge">
<title>1&#45;&gt;2</title>
<path fill="none" stroke="black" d="M469.25,-192.49C497.99,-183.56 544.71,-164.67 569.61,-131 586.98,-107.52 591.46,-73.65 592.24,-50.12"/>
<polygon fill="black" stroke="black" points="595.74,-50.16 592.38,-40.12 588.74,-50.07 595.74,-50.16"/>
<text text-anchor="middle" x="599.11" y="-109.3" font-family="Times,serif" font-size="14.00">{c2}</text>
</g>
<!-- 3 -->
<g id="node5" class="node">
<title>3</title>
<ellipse fill="none" stroke="black" cx="243.61" cy="-113" rx="27" ry="18"/>
<text text-anchor="middle" x="243.61" y="-109.3" font-family="Times,serif" font-size="14.00">3</text>
</g>
<!-- 1&#45;&gt;3 -->
<g id="edge18" class="edge">
<title>1&#45;&gt;3</title>
<path fill="none" stroke="black" d="M417.69,-197.5C352.53,-193.58 190.52,-182.11 174.61,-164 160.19,-147.59 185.36,-133.48 209.25,-124.47"/>
<polygon fill="black" stroke="black" points="210.68,-127.68 218.94,-121.04 208.35,-121.08 210.68,-127.68"/>
<text text-anchor="middle" x="198.11" y="-152.8" font-family="Times,serif" font-size="14.00">{c0, c1}</text>
</g>
<!-- 1&#45;&gt;3 -->
<g id="edge20" class="edge">
<title>1&#45;&gt;3</title>
<path fill="none" stroke="black" d="M417.49,-198.35C368.12,-196.53 266.64,-189.69 244.61,-164 239.21,-157.7 237.7,-149.13 237.93,-140.86"/>
<polygon fill="black" stroke="black" points="241.43,-141.06 239,-130.75 234.47,-140.33 241.43,-141.06"/>
<text text-anchor="middle" x="278.11" y="-152.8" font-family="Times,serif" font-size="14.00">{c0, c1, c2}</text>
</g>
<!-- 1&#45;&gt;3 -->
<g id="edge21" class="edge">
<title>1&#45;&gt;3</title>
<path fill="none" stroke="black" d="M419.42,-193.06C396.64,-187.21 362.49,-177.23 334.61,-164 323.59,-158.77 322.16,-155.13 311.61,-149 299.56,-142 285.97,-134.85 274.12,-128.86"/>
<polygon fill="black" stroke="black" points="275.56,-125.67 265.05,-124.33 272.43,-131.93 275.56,-125.67"/>
<text text-anchor="middle" x="348.11" y="-152.8" font-family="Times,serif" font-size="14.00">{c1}</text>
</g>
<!-- 1&#45;&gt;3 -->
<g id="edge22" class="edge">
<title>1&#45;&gt;3</title>
<path fill="none" stroke="black" d="M424.74,-187.74C412.98,-180.99 397.85,-172.17 384.61,-164 374.23,-157.59 372.69,-154.12 361.61,-149 334.97,-136.68 302.94,-127.5 278.98,-121.64"/>
<polygon fill="black" stroke="black" points="279.78,-118.24 269.24,-119.34 278.17,-125.05 279.78,-118.24"/>
<text text-anchor="middle" x="408.11" y="-152.8" font-family="Times,serif" font-size="14.00">{c1, c2}</text>
</g>
<!-- 2&#45;&gt;2 -->
<g id="edge34" class="edge">
<title>2&#45;&gt;2</title>
<path fill="none" stroke="black" d="M618.85,-23.5C628.64,-23.53 636.61,-23.03 636.61,-22 636.61,-21.37 633.65,-20.94 629.12,-20.71"/>
<polygon fill="black" stroke="black" points="628.92,-17.2 618.85,-20.5 628.78,-24.2 628.92,-17.2"/>
<text text-anchor="middle" x="660.11" y="-18.3" font-family="Times,serif" font-size="14.00">{c0, c1}</text>
</g>
<!-- 2&#45;&gt;2 -->
<g id="edge35" class="edge">
<title>2&#45;&gt;2</title>
<path fill="none" stroke="black" d="M618.5,-24.43C646.93,-25.68 683.61,-24.87 683.61,-22 683.61,-19.46 655.03,-18.53 628.77,-19.22"/>
<polygon fill="black" stroke="black" points="628.38,-15.73 618.5,-19.57 628.62,-22.72 628.38,-15.73"/>
<text text-anchor="middle" x="697.11" y="-18.3" font-family="Times,serif" font-size="14.00">{c0}</text>
</g>
<!-- 2&#45;&gt;2 -->
<g id="edge36" class="edge">
<title>2&#45;&gt;2</title>
<path fill="none" stroke="black" d="M618.43,-25.17C655.85,-27.69 710.61,-26.63 710.61,-22 710.61,-17.77 664.86,-16.52 628.42,-18.26"/>
<polygon fill="black" stroke="black" points="628.22,-14.76 618.43,-18.83 628.61,-21.75 628.22,-14.76"/>
<text text-anchor="middle" x="724.11" y="-18.3" font-family="Times,serif" font-size="14.00">{c1}</text>
</g>
<!-- 2&#45;&gt;2 -->
<g id="edge37" class="edge">
<title>2&#45;&gt;2</title>
<path fill="none" stroke="black" d="M618.33,-25.74C664.09,-29.7 737.61,-28.45 737.61,-22 737.61,-16 674.06,-14.5 628.36,-17.5"/>
<polygon fill="black" stroke="black" points="628.04,-14.01 618.33,-18.26 628.57,-20.99 628.04,-14.01"/>
<text text-anchor="middle" x="744.61" y="-18.3" font-family="Times,serif" font-size="14.00">{}</text>
</g>
<!-- 2&#45;&gt;2 -->
<g id="edge38" class="edge">
<title>2&#45;&gt;2</title>
<path fill="none" stroke="black" d="M617.91,-26.23C669.48,-31.71 755.61,-30.3 755.61,-22 755.61,-14.22 679.91,-12.49 627.95,-16.82"/>
<polygon fill="black" stroke="black" points="627.53,-13.35 617.91,-17.77 628.19,-20.31 627.53,-13.35"/>
<text text-anchor="middle" x="779.11" y="-18.3" font-family="Times,serif" font-size="14.00">{c1, c2}</text>
</g>
<!-- 2&#45;&gt;2 -->
<g id="edge39" class="edge">
<title>2&#45;&gt;2</title>
<path fill="none" stroke="black" d="M617.84,-26.45C681.13,-33.75 802.61,-32.27 802.61,-22 802.61,-12.26 693.15,-10.42 627.91,-16.5"/>
<polygon fill="black" stroke="black" points="627.42,-13.04 617.84,-17.55 628.15,-20 627.42,-13.04"/>
<text text-anchor="middle" x="826.11" y="-18.3" font-family="Times,serif" font-size="14.00">{c0, c2}</text>
</g>
<!-- 2&#45;&gt;2 -->
<g id="edge40" class="edge">
<title>2&#45;&gt;2</title>
<path fill="none" stroke="black" d="M617.84,-26.66C691.83,-35.77 849.61,-34.22 849.61,-22 849.61,-10.3 705.1,-8.38 627.82,-16.23"/>
<polygon fill="black" stroke="black" points="627.38,-12.76 617.84,-17.34 628.16,-19.71 627.38,-12.76"/>
<text text-anchor="middle" x="883.11" y="-18.3" font-family="Times,serif" font-size="14.00">{c0, c1, c2}</text>
</g>
<!-- 2&#45;&gt;2 -->
<g id="edge41" class="edge">
<title>2&#45;&gt;2</title>
<path fill="none" stroke="black" d="M617.83,-26.75C704.96,-37.8 916.61,-36.22 916.61,-22 916.61,-8.31 720.38,-6.33 628.03,-16.07"/>
<polygon fill="black" stroke="black" points="627.36,-12.63 617.83,-17.25 628.17,-19.58 627.36,-12.63"/>
<text text-anchor="middle" x="930.11" y="-18.3" font-family="Times,serif" font-size="14.00">{c2}</text>
</g>
<!-- 3&#45;&gt;2 -->
<g id="edge31" class="edge">
<title>3&#45;&gt;2</title>
<path fill="none" stroke="black" d="M252.33,-95.42C259.37,-83.88 270.44,-69.29 284.61,-62 338.28,-34.39 497.9,-61.67 555.61,-44 558.63,-43.08 561.66,-41.86 564.62,-40.47"/>
<polygon fill="black" stroke="black" points="566.51,-43.43 573.69,-35.63 563.22,-37.25 566.51,-43.43"/>
<text text-anchor="middle" x="308.11" y="-65.8" font-family="Times,serif" font-size="14.00">{c0, c1}</text>
</g>
<!-- 3&#45;&gt;2 -->
<g id="edge32" class="edge">
<title>3&#45;&gt;2</title>
<path fill="none" stroke="black" d="M267.33,-104.02C285.37,-97.61 310.59,-87.9 331.61,-77 342.45,-71.38 343.08,-66 354.61,-62 439.36,-32.63 470.16,-71.25 555.61,-44 558.62,-43.04 561.64,-41.8 564.59,-40.4"/>
<polygon fill="black" stroke="black" points="566.5,-43.35 573.66,-35.54 563.19,-37.18 566.5,-43.35"/>
<text text-anchor="middle" x="368.11" y="-65.8" font-family="Times,serif" font-size="14.00">{c0}</text>
</g>
<!-- 3&#45;&gt;2 -->
<g id="edge33" class="edge">
<title>3&#45;&gt;2</title>
<path fill="none" stroke="black" d="M269.63,-108.04C298.01,-103.12 344.37,-93.32 381.61,-77 392.79,-72.1 393.14,-66.16 404.61,-62 468.14,-38.93 491.53,-65.48 555.61,-44 558.6,-43 561.62,-41.73 564.56,-40.31"/>
<polygon fill="black" stroke="black" points="566.48,-43.25 573.62,-35.43 563.16,-37.09 566.48,-43.25"/>
<text text-anchor="middle" x="418.11" y="-65.8" font-family="Times,serif" font-size="14.00">{c1}</text>
</g>
<!-- 3&#45;&gt;3 -->
<g id="edge26" class="edge">
<title>3&#45;&gt;3</title>
<path fill="none" stroke="black" d="M268.14,-120.75C279.12,-121.49 288.61,-118.91 288.61,-113 288.61,-109.03 284.33,-106.56 278.19,-105.59"/>
<polygon fill="black" stroke="black" points="278.26,-102.09 268.14,-105.25 278.02,-109.09 278.26,-102.09"/>
<text text-anchor="middle" x="295.61" y="-109.3" font-family="Times,serif" font-size="14.00">{}</text>
</g>
<!-- 4 -->
<g id="node6" class="node">
<title>4</title>
<ellipse fill="none" stroke="black" cx="77.61" cy="-22" rx="18" ry="18"/>
<ellipse fill="none" stroke="black" cx="77.61" cy="-22" rx="22" ry="22"/>
<text text-anchor="middle" x="77.61" y="-18.3" font-family="Times,serif" font-size="14.00">4</text>
</g>
<!-- 3&#45;&gt;4 -->
<g id="edge27" class="edge">
<title>3&#45;&gt;4</title>
<path fill="none" stroke="black" d="M216.55,-112.26C159.88,-112.17 31.76,-108.41 4.61,-77 -11.73,-58.09 20.16,-41.89 46.82,-32.3"/>
<polygon fill="black" stroke="black" points="47.96,-35.61 56.3,-29.07 45.71,-28.98 47.96,-35.61"/>
<text text-anchor="middle" x="38.11" y="-65.8" font-family="Times,serif" font-size="14.00">{c0, c1, c2}</text>
</g>
<!-- 3&#45;&gt;4 -->
<g id="edge28" class="edge">
<title>3&#45;&gt;4</title>
<path fill="none" stroke="black" d="M217.28,-108.96C179.42,-104.08 112.24,-93.36 94.61,-77 88.09,-70.94 84.05,-62.41 81.56,-53.92"/>
<polygon fill="black" stroke="black" points="84.96,-53.07 79.29,-44.11 78.14,-54.65 84.96,-53.07"/>
<text text-anchor="middle" x="118.11" y="-65.8" font-family="Times,serif" font-size="14.00">{c1, c2}</text>
</g>
<!-- 3&#45;&gt;4 -->
<g id="edge29" class="edge">
<title>3&#45;&gt;4</title>
<path fill="none" stroke="black" d="M221.02,-103.13C204.96,-96.55 183.07,-87.02 164.61,-77 153.89,-71.18 151.93,-68.51 141.61,-62 129.63,-54.44 116.26,-46.26 104.85,-39.35"/>
<polygon fill="black" stroke="black" points="106.56,-36.29 96.19,-34.11 102.94,-42.28 106.56,-36.29"/>
<text text-anchor="middle" x="188.11" y="-65.8" font-family="Times,serif" font-size="14.00">{c0, c2}</text>
</g>
<!-- 3&#45;&gt;4 -->
<g id="edge30" class="edge">
<title>3&#45;&gt;4</title>
<path fill="none" stroke="black" d="M236.74,-95.35C231.41,-84.38 223,-70.52 211.61,-62 181.55,-39.51 138.78,-29.95 109.7,-25.92"/>
<polygon fill="black" stroke="black" points="110.01,-22.43 99.66,-24.67 109.15,-29.38 110.01,-22.43"/>
<text text-anchor="middle" x="239.11" y="-65.8" font-family="Times,serif" font-size="14.00">{c2}</text>
</g>
<!-- 4&#45;&gt;4 -->
<g id="edge10" class="edge">
<title>4&#45;&gt;4</title>
<path fill="none" stroke="black" d="M99.82,-23.48C109.41,-23.6 117.61,-23.11 117.61,-22 117.61,-21.32 114.56,-20.88 110.02,-20.66"/>
<polygon fill="black" stroke="black" points="109.87,-17.16 99.82,-20.52 109.77,-24.15 109.87,-17.16"/>
<text text-anchor="middle" x="151.11" y="-18.3" font-family="Times,serif" font-size="14.00">{c0, c1, c2}</text>
</g>
<!-- 4&#45;&gt;4 -->
<g id="edge11" class="edge">
<title>4&#45;&gt;4</title>
<path fill="none" stroke="black" d="M99.96,-24.13C132.7,-25.79 184.61,-25.08 184.61,-22 184.61,-19.22 142.34,-18.37 110.03,-19.45"/>
<polygon fill="black" stroke="black" points="109.8,-15.96 99.96,-19.87 110.09,-22.95 109.8,-15.96"/>
<text text-anchor="middle" x="208.11" y="-18.3" font-family="Times,serif" font-size="14.00">{c0, c2}</text>
</g>
<!-- 4&#45;&gt;4 -->
<g id="edge12" class="edge">
<title>4&#45;&gt;4</title>
<path fill="none" stroke="black" d="M99.61,-24.63C144.62,-27.81 231.61,-26.93 231.61,-22 231.61,-17.41 156.42,-16.33 109.68,-18.76"/>
<polygon fill="black" stroke="black" points="109.38,-15.27 99.61,-19.37 109.8,-22.26 109.38,-15.27"/>
<text text-anchor="middle" x="255.11" y="-18.3" font-family="Times,serif" font-size="14.00">{c1, c2}</text>
</g>
<!-- 4&#45;&gt;4 -->
<g id="edge13" class="edge">
<title>4&#45;&gt;4</title>
<path fill="none" stroke="black" d="M99.7,-25.03C155.58,-29.82 278.61,-28.81 278.61,-22 278.61,-15.57 169.12,-14.31 109.81,-18.21"/>
<polygon fill="black" stroke="black" points="109.41,-14.73 99.7,-18.97 109.93,-21.71 109.41,-14.73"/>
<text text-anchor="middle" x="292.11" y="-18.3" font-family="Times,serif" font-size="14.00">{c0}</text>
</g>
<!-- 4&#45;&gt;4 -->
<g id="edge14" class="edge">
<title>4&#45;&gt;4</title>
<path fill="none" stroke="black" d="M99.37,-25.41C161.58,-31.83 305.61,-30.69 305.61,-22 305.61,-13.75 175.84,-12.31 109.45,-17.67"/>
<polygon fill="black" stroke="black" points="109.01,-14.19 99.37,-18.59 109.65,-21.17 109.01,-14.19"/>
<text text-anchor="middle" x="319.11" y="-18.3" font-family="Times,serif" font-size="14.00">{c2}</text>
</g>
<!-- 4&#45;&gt;4 -->
<g id="edge15" class="edge">
<title>4&#45;&gt;4</title>
<path fill="none" stroke="black" d="M99.63,-25.78C168.38,-33.83 332.61,-32.57 332.61,-22 332.61,-11.93 183.41,-10.31 109.9,-17.15"/>
<polygon fill="black" stroke="black" points="109.21,-13.7 99.63,-18.22 109.93,-20.67 109.21,-13.7"/>
<text text-anchor="middle" x="356.11" y="-18.3" font-family="Times,serif" font-size="14.00">{c0, c1}</text>
</g>
<!-- 4&#45;&gt;4 -->
<g id="edge16" class="edge">
<title>4&#45;&gt;4</title>
<path fill="none" stroke="black" d="M99.47,-25.96C177.43,-35.84 379.61,-34.52 379.61,-22 379.61,-9.98 193.3,-8.28 109.41,-16.9"/>
<polygon fill="black" stroke="black" points="109.01,-13.43 99.47,-18.04 109.8,-20.38 109.01,-13.43"/>
<text text-anchor="middle" x="386.61" y="-18.3" font-family="Times,serif" font-size="14.00">{}</text>
</g>
<!-- 4&#45;&gt;4 -->
<g id="edge17" class="edge">
<title>4&#45;&gt;4</title>
<path fill="none" stroke="black" d="M99.37,-26.23C182.11,-37.85 397.61,-36.44 397.61,-22 397.61,-8.11 198.22,-6.28 109.38,-16.5"/>
<polygon fill="black" stroke="black" points="108.85,-13.04 99.37,-17.77 109.73,-19.98 108.85,-13.04"/>
<text text-anchor="middle" x="411.11" y="-18.3" font-family="Times,serif" font-size="14.00">{c1}</text>
</g>
</g>
</svg>
