<?xml version="1.0" encoding="UTF-8" standalone="no"?>
<!DOCTYPE svg PUBLIC "-//W3C//DTD SVG 1.1//EN"
 "http://www.w3.org/Graphics/SVG/1.1/DTD/svg11.dtd">
<!-- Generated by graphviz version 2.43.0 (0)
 -->
<!-- Title: %3 Pages: 1 -->
<svg width="2577pt" height="475pt"
 viewBox="0.00 0.00 2577.38 475.44" xmlns="http://www.w3.org/2000/svg" xmlns:xlink="http://www.w3.org/1999/xlink">
<g id="graph0" class="graph" transform="scale(1 1) rotate(0) translate(4 471.44)">
<title>%3</title>
<polygon fill="white" stroke="transparent" points="-4,4 -4,-471.44 2573.38,-471.44 2573.38,4 -4,4"/>
<!-- fake -->
<g id="node1" class="node">
<title>fake</title>
</g>
<!-- 0 -->
<g id="node2" class="node">
<title>0</title>
<ellipse fill="none" stroke="black" cx="1910.38" cy="-376.44" rx="27" ry="18"/>
<text text-anchor="middle" x="1910.38" y="-372.74" font-family="Times,serif" font-size="14.00">0</text>
</g>
<!-- fake&#45;&gt;0 -->
<g id="edge1" class="edge">
<title>fake&#45;&gt;0</title>
<path fill="none" stroke="black" stroke-width="2" d="M1910.38,-431.25C1910.38,-423.23 1910.38,-413.49 1910.38,-404.51"/>
<polygon fill="black" stroke="black" stroke-width="2" points="1913.88,-404.47 1910.38,-394.47 1906.88,-404.47 1913.88,-404.47"/>
</g>
<!-- 0&#45;&gt;0 -->
<g id="edge38" class="edge">
<title>0&#45;&gt;0</title>
<path fill="none" stroke="black" d="M1935.82,-383.13C1946.41,-383.59 1955.38,-381.36 1955.38,-376.44 1955.38,-373.21 1951.51,-371.14 1945.87,-370.23"/>
<polygon fill="black" stroke="black" points="1945.98,-366.73 1935.82,-369.75 1945.64,-373.72 1945.98,-366.73"/>
<text text-anchor="middle" x="1962.38" y="-372.74" font-family="Times,serif" font-size="14.00">{}</text>
</g>
<!-- 1 -->
<g id="node3" class="node">
<title>1</title>
<ellipse fill="none" stroke="black" cx="1511.38" cy="-289.44" rx="27" ry="18"/>
<text text-anchor="middle" x="1511.38" y="-285.74" font-family="Times,serif" font-size="14.00">1</text>
</g>
<!-- 0&#45;&gt;1 -->
<g id="edge34" class="edge">
<title>0&#45;&gt;1</title>
<path fill="none" stroke="black" d="M1883.34,-374.86C1770.22,-372.29 1339.93,-361.19 1320.38,-340.44 1315.8,-335.59 1316.11,-330.56 1320.38,-325.44 1339.57,-302.41 1424.28,-294.49 1474.21,-291.8"/>
<polygon fill="black" stroke="black" points="1474.49,-295.29 1484.3,-291.3 1474.14,-288.3 1474.49,-295.29"/>
<text text-anchor="middle" x="1343.88" y="-329.24" font-family="Times,serif" font-size="14.00">{c0, c3}</text>
</g>
<!-- 0&#45;&gt;1 -->
<g id="edge35" class="edge">
<title>0&#45;&gt;1</title>
<path fill="none" stroke="black" d="M1883.05,-375.73C1780.71,-376.52 1424.21,-376.63 1390.38,-340.44 1363.23,-311.41 1429.64,-298.71 1474.45,-293.57"/>
<polygon fill="black" stroke="black" points="1474.9,-297.05 1484.47,-292.51 1474.16,-290.09 1474.9,-297.05"/>
<text text-anchor="middle" x="1413.88" y="-329.24" font-family="Times,serif" font-size="14.00">{c0, c2}</text>
</g>
<!-- 0&#45;&gt;1 -->
<g id="edge36" class="edge">
<title>0&#45;&gt;1</title>
<path fill="none" stroke="black" d="M1883.28,-375.42C1790.42,-375.07 1489.15,-371.54 1460.38,-340.44 1449.01,-328.15 1463.81,-314.92 1480.35,-305.16"/>
<polygon fill="black" stroke="black" points="1482.46,-307.99 1489.56,-300.12 1479.1,-301.85 1482.46,-307.99"/>
<text text-anchor="middle" x="1493.88" y="-329.24" font-family="Times,serif" font-size="14.00">{c0, c1, c2}</text>
</g>
<!-- 0&#45;&gt;1 -->
<g id="edge37" class="edge">
<title>0&#45;&gt;1</title>
<path fill="none" stroke="black" d="M1883.19,-375.53C1809.49,-375.34 1607.61,-371.9 1550.38,-340.44 1540,-334.73 1531.45,-324.99 1525.03,-315.61"/>
<polygon fill="black" stroke="black" points="1527.83,-313.48 1519.54,-306.88 1521.9,-317.2 1527.83,-313.48"/>
<text text-anchor="middle" x="1573.88" y="-329.24" font-family="Times,serif" font-size="14.00">{c0, c1}</text>
</g>
<!-- 0&#45;&gt;1 -->
<g id="edge39" class="edge">
<title>0&#45;&gt;1</title>
<path fill="none" stroke="black" d="M1883.04,-376.21C1830.47,-376.81 1712.35,-373.91 1620.38,-340.44 1608.91,-336.27 1608.19,-331.1 1597.38,-325.44 1580.46,-316.59 1560.8,-308.44 1544.54,-302.23"/>
<polygon fill="black" stroke="black" points="1545.51,-298.86 1534.92,-298.63 1543.06,-305.41 1545.51,-298.86"/>
<text text-anchor="middle" x="1653.88" y="-329.24" font-family="Times,serif" font-size="14.00">{c0, c2, c3}</text>
</g>
<!-- 0&#45;&gt;1 -->
<g id="edge40" class="edge">
<title>0&#45;&gt;1</title>
<path fill="none" stroke="black" d="M1883.57,-374.17C1844.3,-371.56 1769.4,-363.72 1710.38,-340.44 1699.02,-335.96 1698.68,-330.05 1687.38,-325.44 1641.56,-306.76 1584.85,-297.79 1548.4,-293.67"/>
<polygon fill="black" stroke="black" points="1548.54,-290.16 1538.23,-292.58 1547.8,-297.12 1548.54,-290.16"/>
<text text-anchor="middle" x="1743.88" y="-329.24" font-family="Times,serif" font-size="14.00">{c0, c1, c3}</text>
</g>
<!-- 0&#45;&gt;1 -->
<g id="edge41" class="edge">
<title>0&#45;&gt;1</title>
<path fill="none" stroke="black" d="M1885.18,-369.5C1862.4,-363.65 1828.26,-353.67 1800.38,-340.44 1789.35,-335.21 1788.82,-329.68 1777.38,-325.44 1699.52,-296.64 1601.15,-290.97 1548.56,-290.19"/>
<polygon fill="black" stroke="black" points="1548.4,-286.69 1538.36,-290.1 1548.33,-293.69 1548.4,-286.69"/>
<text text-anchor="middle" x="1844.38" y="-329.24" font-family="Times,serif" font-size="14.00">{c0, c1, c2, c3}</text>
</g>
<!-- 0&#45;&gt;1 -->
<g id="edge42" class="edge">
<title>0&#45;&gt;1</title>
<path fill="none" stroke="black" d="M1907.43,-358.24C1904.56,-347.02 1898.99,-333.09 1888.38,-325.44 1861.19,-305.85 1638.09,-295.26 1548.45,-291.76"/>
<polygon fill="black" stroke="black" points="1548.58,-288.27 1538.45,-291.38 1548.31,-295.26 1548.58,-288.27"/>
<text text-anchor="middle" x="1913.88" y="-329.24" font-family="Times,serif" font-size="14.00">{c0}</text>
</g>
<!-- 2 -->
<g id="node4" class="node">
<title>2</title>
<ellipse fill="none" stroke="black" cx="1494.38" cy="-24.44" rx="27" ry="18"/>
<text text-anchor="middle" x="1494.38" y="-20.74" font-family="Times,serif" font-size="14.00">2</text>
</g>
<!-- 0&#45;&gt;2 -->
<g id="edge43" class="edge">
<title>0&#45;&gt;2</title>
<path fill="none" stroke="black" d="M1922.66,-360.06C1928.92,-350.36 1934.61,-337.44 1931.38,-325.44 1908.13,-239.1 1892.15,-216.09 1830.38,-151.44 1780.8,-99.56 1761.04,-90.99 1694.38,-64.44 1639.96,-42.77 1572.26,-32.81 1531.23,-28.49"/>
<polygon fill="black" stroke="black" points="1531.45,-24.99 1521.15,-27.48 1530.75,-31.96 1531.45,-24.99"/>
<text text-anchor="middle" x="1921.88" y="-198.74" font-family="Times,serif" font-size="14.00">{c1, c2, c3}</text>
</g>
<!-- 0&#45;&gt;2 -->
<g id="edge44" class="edge">
<title>0&#45;&gt;2</title>
<path fill="none" stroke="black" d="M1930.32,-363.8C1951.94,-349.52 1983.38,-323.12 1983.38,-290.44 1983.38,-290.44 1983.38,-290.44 1983.38,-114.44 1983.38,-68.52 1645.23,-37.43 1531.32,-28.26"/>
<polygon fill="black" stroke="black" points="1531.26,-24.74 1521.02,-27.44 1530.71,-31.72 1531.26,-24.74"/>
<text text-anchor="middle" x="1996.88" y="-198.74" font-family="Times,serif" font-size="14.00">{c1}</text>
</g>
<!-- 0&#45;&gt;2 -->
<g id="edge45" class="edge">
<title>0&#45;&gt;2</title>
<path fill="none" stroke="black" d="M1936.28,-371.28C1975.74,-363.29 2046.38,-341.81 2046.38,-290.44 2046.38,-290.44 2046.38,-290.44 2046.38,-114.44 2046.38,-62.15 1655.33,-34.83 1531.5,-27.5"/>
<polygon fill="black" stroke="black" points="1531.56,-23.99 1521.37,-26.9 1531.15,-30.98 1531.56,-23.99"/>
<text text-anchor="middle" x="2059.88" y="-198.74" font-family="Times,serif" font-size="14.00">{c2}</text>
</g>
<!-- 0&#45;&gt;2 -->
<g id="edge46" class="edge">
<title>0&#45;&gt;2</title>
<path fill="none" stroke="black" d="M1937.63,-375.76C1992.13,-374.84 2109.38,-364.26 2109.38,-290.44 2109.38,-290.44 2109.38,-290.44 2109.38,-114.44 2109.38,-55.75 1665.01,-32.53 1531.73,-26.89"/>
<polygon fill="black" stroke="black" points="1531.73,-23.38 1521.6,-26.47 1531.44,-30.38 1531.73,-23.38"/>
<text text-anchor="middle" x="2132.88" y="-198.74" font-family="Times,serif" font-size="14.00">{c1, c2}</text>
</g>
<!-- 0&#45;&gt;2 -->
<g id="edge47" class="edge">
<title>0&#45;&gt;2</title>
<path fill="none" stroke="black" d="M1937.16,-373.13C2007.55,-366.33 2192.38,-343.43 2192.38,-290.44 2192.38,-290.44 2192.38,-290.44 2192.38,-114.44 2192.38,-47.18 1675.77,-29.78 1531.43,-26.23"/>
<polygon fill="black" stroke="black" points="1531.39,-22.73 1521.31,-25.99 1531.23,-29.72 1531.39,-22.73"/>
<text text-anchor="middle" x="2215.88" y="-198.74" font-family="Times,serif" font-size="14.00">{c1, c3}</text>
</g>
<!-- 0&#45;&gt;2 -->
<g id="edge48" class="edge">
<title>0&#45;&gt;2</title>
<path fill="none" stroke="black" d="M1937.51,-374.93C2022.1,-372.59 2275.38,-359.82 2275.38,-290.44 2275.38,-290.44 2275.38,-290.44 2275.38,-114.44 2275.38,-38.65 1687.28,-27.38 1531.74,-25.72"/>
<polygon fill="black" stroke="black" points="1531.75,-22.22 1521.72,-25.62 1531.68,-29.22 1531.75,-22.22"/>
<text text-anchor="middle" x="2298.88" y="-198.74" font-family="Times,serif" font-size="14.00">{c2, c3}</text>
</g>
<!-- 0&#45;&gt;2 -->
<g id="edge49" class="edge">
<title>0&#45;&gt;2</title>
<path fill="none" stroke="black" d="M1937.39,-376.09C2034.25,-377.7 2358.38,-376.63 2358.38,-290.44 2358.38,-290.44 2358.38,-290.44 2358.38,-114.44 2358.38,-30.06 1697.85,-25.2 1531.87,-25.31"/>
<polygon fill="black" stroke="black" points="1531.66,-21.81 1521.66,-25.32 1531.67,-28.81 1531.66,-21.81"/>
<text text-anchor="middle" x="2371.88" y="-198.74" font-family="Times,serif" font-size="14.00">{c3}</text>
</g>
<!-- 1&#45;&gt;1 -->
<g id="edge84" class="edge">
<title>1&#45;&gt;1</title>
<path fill="none" stroke="black" d="M1535.91,-297.19C1546.88,-297.93 1556.38,-295.35 1556.38,-289.44 1556.38,-285.47 1552.09,-283 1545.95,-282.04"/>
<polygon fill="black" stroke="black" points="1546.02,-278.54 1535.91,-281.69 1545.78,-285.53 1546.02,-278.54"/>
<text text-anchor="middle" x="1563.38" y="-285.74" font-family="Times,serif" font-size="14.00">{}</text>
</g>
<!-- 1&#45;&gt;2 -->
<g id="edge91" class="edge">
<title>1&#45;&gt;2</title>
<path fill="none" stroke="black" d="M1507.1,-271.55C1498.59,-237.16 1480.87,-161.4 1487.38,-151.44 1498.26,-134.78 1517.5,-150.1 1528.38,-133.44 1537.13,-120.05 1531.88,-113.05 1528.38,-97.44 1524.68,-80.94 1516.75,-63.77 1509.48,-50.34"/>
<polygon fill="black" stroke="black" points="1512.34,-48.28 1504.38,-41.28 1506.24,-51.71 1512.34,-48.28"/>
<text text-anchor="middle" x="1500.88" y="-155.24" font-family="Times,serif" font-size="14.00">{c2}</text>
</g>
<!-- 1&#45;&gt;2 -->
<g id="edge92" class="edge">
<title>1&#45;&gt;2</title>
<path fill="none" stroke="black" d="M1513.59,-271.33C1517.22,-245.17 1525.23,-193.8 1537.38,-151.44 1539.74,-143.19 1542.79,-141.88 1544.38,-133.44 1547.33,-117.72 1546.94,-113.23 1544.38,-97.44 1541.9,-82.18 1541.5,-77.59 1533.38,-64.44 1529.29,-57.83 1523.88,-51.5 1518.39,-45.92"/>
<polygon fill="black" stroke="black" points="1520.63,-43.22 1510.98,-38.84 1515.79,-48.28 1520.63,-43.22"/>
<text text-anchor="middle" x="1550.88" y="-155.24" font-family="Times,serif" font-size="14.00">{c0}</text>
</g>
<!-- 1&#45;&gt;2 -->
<g id="edge93" class="edge">
<title>1&#45;&gt;2</title>
<path fill="none" stroke="black" d="M1521.28,-272.34C1524.69,-266.5 1528.39,-259.77 1531.38,-253.44 1551.71,-210.35 1566.58,-199.04 1564.38,-151.44 1562.57,-112.32 1572.95,-96.44 1550.38,-64.44 1543.68,-54.95 1533.91,-47.01 1524.39,-40.83"/>
<polygon fill="black" stroke="black" points="1526.19,-37.83 1515.82,-35.65 1522.57,-43.82 1526.19,-37.83"/>
<text text-anchor="middle" x="1587.88" y="-155.24" font-family="Times,serif" font-size="14.00">{c0, c2}</text>
</g>
<!-- 1&#45;&gt;2 -->
<g id="edge94" class="edge">
<title>1&#45;&gt;2</title>
<path fill="none" stroke="black" d="M1531.06,-276.96C1564.92,-255.53 1629.32,-206.59 1615.38,-151.44 1604.6,-108.83 1599.61,-95.36 1568.38,-64.44 1556.8,-52.99 1541.17,-44.08 1527.26,-37.7"/>
<polygon fill="black" stroke="black" points="1528.54,-34.44 1517.97,-33.68 1525.76,-40.86 1528.54,-34.44"/>
<text text-anchor="middle" x="1639.88" y="-155.24" font-family="Times,serif" font-size="14.00">{c0, c3}</text>
</g>
<!-- 1&#45;&gt;2 -->
<g id="edge95" class="edge">
<title>1&#45;&gt;2</title>
<path fill="none" stroke="black" d="M1535.35,-280.91C1585.17,-263.79 1693.16,-218.18 1667.38,-151.44 1648.56,-102.72 1631.08,-94.51 1588.38,-64.44 1570.25,-51.68 1547.32,-42.06 1528.64,-35.57"/>
<polygon fill="black" stroke="black" points="1529.63,-32.21 1519.03,-32.37 1527.42,-38.85 1529.63,-32.21"/>
<text text-anchor="middle" x="1693.88" y="-155.24" font-family="Times,serif" font-size="14.00">{c2, c3}</text>
</g>
<!-- 1&#45;&gt;2 -->
<g id="edge96" class="edge">
<title>1&#45;&gt;2</title>
<path fill="none" stroke="black" d="M1537.42,-283.98C1601.31,-271.71 1758.02,-232.81 1721.38,-151.44 1687.39,-75.96 1585.33,-43.93 1530.37,-31.86"/>
<polygon fill="black" stroke="black" points="1530.86,-28.38 1520.36,-29.76 1529.43,-35.24 1530.86,-28.38"/>
<text text-anchor="middle" x="1738.88" y="-155.24" font-family="Times,serif" font-size="14.00">{c3}</text>
</g>
<!-- 1&#45;&gt;2 -->
<g id="edge97" class="edge">
<title>1&#45;&gt;2</title>
<path fill="none" stroke="black" d="M1537.99,-285.78C1608.4,-277.41 1791.86,-246.26 1756.38,-151.44 1722.86,-61.89 1595.46,-35.87 1531.49,-28.4"/>
<polygon fill="black" stroke="black" points="1531.74,-24.91 1521.42,-27.32 1530.99,-31.87 1531.74,-24.91"/>
<text text-anchor="middle" x="1792.88" y="-155.24" font-family="Times,serif" font-size="14.00">{c0, c2, c3}</text>
</g>
<!-- 3 -->
<g id="node5" class="node">
<title>3</title>
<ellipse fill="none" stroke="black" cx="1047.38" cy="-202.44" rx="27" ry="18"/>
<text text-anchor="middle" x="1047.38" y="-198.74" font-family="Times,serif" font-size="14.00">3</text>
</g>
<!-- 1&#45;&gt;3 -->
<g id="edge82" class="edge">
<title>1&#45;&gt;3</title>
<path fill="none" stroke="black" d="M1484.43,-287.97C1366.45,-285.78 900.48,-275.74 879.38,-253.44 840.02,-211.84 949.32,-204.38 1009.98,-203.35"/>
<polygon fill="black" stroke="black" points="1010.38,-206.85 1020.34,-203.23 1010.3,-199.85 1010.38,-206.85"/>
<text text-anchor="middle" x="892.88" y="-242.24" font-family="Times,serif" font-size="14.00">{c1}</text>
</g>
<!-- 1&#45;&gt;3 -->
<g id="edge83" class="edge">
<title>1&#45;&gt;3</title>
<path fill="none" stroke="black" d="M1484.33,-287.84C1372.16,-285.19 948.63,-273.89 929.38,-253.44 902.83,-225.25 966.92,-212.28 1010.68,-206.87"/>
<polygon fill="black" stroke="black" points="1011.22,-210.33 1020.75,-205.7 1010.42,-203.37 1011.22,-210.33"/>
<text text-anchor="middle" x="952.88" y="-242.24" font-family="Times,serif" font-size="14.00">{c1, c2}</text>
</g>
<!-- 1&#45;&gt;3 -->
<g id="edge85" class="edge">
<title>1&#45;&gt;3</title>
<path fill="none" stroke="black" d="M1484.12,-288.7C1382.9,-289.36 1032.64,-289.05 999.38,-253.44 988.43,-241.72 1001.9,-228.65 1017.33,-218.81"/>
<polygon fill="black" stroke="black" points="1019.13,-221.81 1025.95,-213.7 1015.57,-215.78 1019.13,-221.81"/>
<text text-anchor="middle" x="1032.88" y="-242.24" font-family="Times,serif" font-size="14.00">{c0, c1, c2}</text>
</g>
<!-- 1&#45;&gt;3 -->
<g id="edge86" class="edge">
<title>1&#45;&gt;3</title>
<path fill="none" stroke="black" d="M1484.11,-288.87C1402,-289.75 1158.51,-289.21 1089.38,-253.44 1078.28,-247.7 1068.95,-237.63 1061.92,-228.02"/>
<polygon fill="black" stroke="black" points="1064.64,-225.79 1056.13,-219.47 1058.84,-229.71 1064.64,-225.79"/>
<text text-anchor="middle" x="1112.88" y="-242.24" font-family="Times,serif" font-size="14.00">{c0, c1}</text>
</g>
<!-- 1&#45;&gt;3 -->
<g id="edge87" class="edge">
<title>1&#45;&gt;3</title>
<path fill="none" stroke="black" d="M1484.47,-287.42C1412.94,-284.43 1219.4,-274.57 1159.38,-253.44 1147.87,-249.39 1147.22,-244.04 1136.38,-238.44 1118.49,-229.21 1097.59,-220.88 1080.54,-214.66"/>
<polygon fill="black" stroke="black" points="1081.59,-211.32 1071,-211.25 1079.24,-217.91 1081.59,-211.32"/>
<text text-anchor="middle" x="1192.88" y="-242.24" font-family="Times,serif" font-size="14.00">{c0, c1, c3}</text>
</g>
<!-- 1&#45;&gt;3 -->
<g id="edge88" class="edge">
<title>1&#45;&gt;3</title>
<path fill="none" stroke="black" d="M1484.03,-288.71C1435.3,-288.34 1330.91,-283.7 1249.38,-253.44 1237.94,-249.2 1237.69,-243.03 1226.38,-238.44 1179.51,-219.42 1121.44,-210.51 1084.39,-206.5"/>
<polygon fill="black" stroke="black" points="1084.37,-202.98 1074.07,-205.45 1083.66,-209.94 1084.37,-202.98"/>
<text text-anchor="middle" x="1272.88" y="-242.24" font-family="Times,serif" font-size="14.00">{c1, c3}</text>
</g>
<!-- 1&#45;&gt;3 -->
<g id="edge89" class="edge">
<title>1&#45;&gt;3</title>
<path fill="none" stroke="black" d="M1484.37,-286.89C1446.34,-283.96 1375.41,-275.76 1319.38,-253.44 1308.04,-248.92 1307.8,-242.73 1296.38,-238.44 1224.79,-211.59 1134.6,-205.1 1084.78,-203.68"/>
<polygon fill="black" stroke="black" points="1084.56,-200.17 1074.48,-203.44 1084.4,-207.17 1084.56,-200.17"/>
<text text-anchor="middle" x="1352.88" y="-242.24" font-family="Times,serif" font-size="14.00">{c1, c2, c3}</text>
</g>
<!-- 1&#45;&gt;3 -->
<g id="edge90" class="edge">
<title>1&#45;&gt;3</title>
<path fill="none" stroke="black" d="M1486.8,-281.87C1465.7,-275.79 1434.78,-265.85 1409.38,-253.44 1398.41,-248.09 1397.88,-242.52 1386.38,-238.44 1331.45,-218.99 1160.33,-208.75 1084.36,-205.06"/>
<polygon fill="black" stroke="black" points="1084.45,-201.56 1074.29,-204.59 1084.12,-208.55 1084.45,-201.56"/>
<text text-anchor="middle" x="1453.38" y="-242.24" font-family="Times,serif" font-size="14.00">{c0, c1, c2, c3}</text>
</g>
<!-- 2&#45;&gt;2 -->
<g id="edge50" class="edge">
<title>2&#45;&gt;2</title>
<path fill="none" stroke="black" d="M1521.62,-25.94C1531.4,-25.97 1539.38,-25.47 1539.38,-24.44 1539.38,-23.81 1536.42,-23.38 1531.89,-23.15"/>
<polygon fill="black" stroke="black" points="1531.69,-19.64 1521.62,-22.94 1531.55,-26.64 1531.69,-19.64"/>
<text text-anchor="middle" x="1572.88" y="-20.74" font-family="Times,serif" font-size="14.00">{c1, c2, c3}</text>
</g>
<!-- 2&#45;&gt;2 -->
<g id="edge51" class="edge">
<title>2&#45;&gt;2</title>
<path fill="none" stroke="black" d="M1521.28,-26.71C1555.72,-28.18 1606.38,-27.43 1606.38,-24.44 1606.38,-21.74 1564.77,-20.86 1531.34,-21.81"/>
<polygon fill="black" stroke="black" points="1531.15,-18.32 1521.28,-22.17 1531.39,-25.31 1531.15,-18.32"/>
<text text-anchor="middle" x="1619.88" y="-20.74" font-family="Times,serif" font-size="14.00">{c1}</text>
</g>
<!-- 2&#45;&gt;2 -->
<g id="edge52" class="edge">
<title>2&#45;&gt;2</title>
<path fill="none" stroke="black" d="M1521.28,-27.46C1563.99,-30.17 1633.38,-29.16 1633.38,-24.44 1633.38,-20.08 1574.16,-18.89 1531.46,-20.87"/>
<polygon fill="black" stroke="black" points="1531.07,-17.39 1521.28,-21.43 1531.45,-24.38 1531.07,-17.39"/>
<text text-anchor="middle" x="1646.88" y="-20.74" font-family="Times,serif" font-size="14.00">{c2}</text>
</g>
<!-- 2&#45;&gt;2 -->
<g id="edge53" class="edge">
<title>2&#45;&gt;2</title>
<path fill="none" stroke="black" d="M1520.86,-28.01C1571.31,-32.18 1660.38,-30.99 1660.38,-24.44 1660.38,-18.32 1582.42,-16.88 1531.06,-20.13"/>
<polygon fill="black" stroke="black" points="1530.58,-16.66 1520.86,-20.87 1531.09,-23.64 1530.58,-16.66"/>
<text text-anchor="middle" x="1683.88" y="-20.74" font-family="Times,serif" font-size="14.00">{c1, c2}</text>
</g>
<!-- 2&#45;&gt;2 -->
<g id="edge54" class="edge">
<title>2&#45;&gt;2</title>
<path fill="none" stroke="black" d="M1520.94,-28.36C1582.93,-34.2 1707.38,-32.9 1707.38,-24.44 1707.38,-16.43 1595.71,-14.84 1531.24,-19.66"/>
<polygon fill="black" stroke="black" points="1530.61,-16.2 1520.94,-20.53 1531.19,-23.18 1530.61,-16.2"/>
<text text-anchor="middle" x="1720.88" y="-20.74" font-family="Times,serif" font-size="14.00">{c0}</text>
</g>
<!-- 2&#45;&gt;2 -->
<g id="edge55" class="edge">
<title>2&#45;&gt;2</title>
<path fill="none" stroke="black" d="M1520.83,-28.74C1589.71,-36.21 1734.38,-34.78 1734.38,-24.44 1734.38,-14.59 1602.95,-12.83 1530.99,-19.15"/>
<polygon fill="black" stroke="black" points="1530.44,-15.69 1520.83,-20.14 1531.12,-22.65 1530.44,-15.69"/>
<text text-anchor="middle" x="1757.88" y="-20.74" font-family="Times,serif" font-size="14.00">{c1, c3}</text>
</g>
<!-- 2&#45;&gt;2 -->
<g id="edge56" class="edge">
<title>2&#45;&gt;2</title>
<path fill="none" stroke="black" d="M1520.56,-28.94C1599.48,-38.23 1781.38,-36.73 1781.38,-24.44 1781.38,-12.64 1613.75,-10.79 1530.51,-18.88"/>
<polygon fill="black" stroke="black" points="1530.13,-15.4 1520.56,-19.94 1530.87,-22.36 1530.13,-15.4"/>
<text text-anchor="middle" x="1804.88" y="-20.74" font-family="Times,serif" font-size="14.00">{c0, c1}</text>
</g>
<!-- 2&#45;&gt;2 -->
<g id="edge57" class="edge">
<title>2&#45;&gt;2</title>
<path fill="none" stroke="black" d="M1520.62,-29.15C1609.14,-40.25 1828.38,-38.68 1828.38,-24.44 1828.38,-10.72 1624.7,-8.77 1530.71,-18.58"/>
<polygon fill="black" stroke="black" points="1530.15,-15.12 1520.62,-19.73 1530.95,-22.07 1530.15,-15.12"/>
<text text-anchor="middle" x="1851.88" y="-20.74" font-family="Times,serif" font-size="14.00">{c0, c2}</text>
</g>
<!-- 2&#45;&gt;2 -->
<g id="edge58" class="edge">
<title>2&#45;&gt;2</title>
<path fill="none" stroke="black" d="M1520.54,-29.33C1618.13,-42.26 1875.38,-40.63 1875.38,-24.44 1875.38,-8.79 1634.93,-6.75 1530.78,-18.32"/>
<polygon fill="black" stroke="black" points="1530.05,-14.88 1520.54,-19.56 1530.89,-21.83 1530.05,-14.88"/>
<text text-anchor="middle" x="1908.88" y="-20.74" font-family="Times,serif" font-size="14.00">{c0, c1, c2}</text>
</g>
<!-- 2&#45;&gt;2 -->
<g id="edge59" class="edge">
<title>2&#45;&gt;2</title>
<path fill="none" stroke="black" d="M1520.68,-29.44C1629.77,-44.27 1942.38,-42.61 1942.38,-24.44 1942.38,-6.81 1647.81,-4.72 1530.78,-18.18"/>
<polygon fill="black" stroke="black" points="1530.17,-14.73 1520.68,-19.44 1531.04,-21.67 1530.17,-14.73"/>
<text text-anchor="middle" x="1965.88" y="-20.74" font-family="Times,serif" font-size="14.00">{c0, c3}</text>
</g>
<!-- 2&#45;&gt;2 -->
<g id="edge60" class="edge">
<title>2&#45;&gt;2</title>
<path fill="none" stroke="black" d="M1520.5,-29.57C1637.71,-46.28 1989.38,-44.57 1989.38,-24.44 1989.38,-4.86 1656.68,-2.71 1530.62,-17.98"/>
<polygon fill="black" stroke="black" points="1529.95,-14.54 1520.5,-19.31 1530.87,-21.48 1529.95,-14.54"/>
<text text-anchor="middle" x="2033.38" y="-20.74" font-family="Times,serif" font-size="14.00">{c0, c1, c2, c3}</text>
</g>
<!-- 2&#45;&gt;2 -->
<g id="edge61" class="edge">
<title>2&#45;&gt;2</title>
<path fill="none" stroke="black" d="M1520.63,-29.63C1650.75,-48.29 2077.38,-46.57 2077.38,-24.44 2077.38,-2.86 1671.33,-0.68 1530.68,-17.93"/>
<polygon fill="black" stroke="black" points="1530.08,-14.47 1520.63,-19.26 1531,-21.41 1530.08,-14.47"/>
<text text-anchor="middle" x="2100.88" y="-20.74" font-family="Times,serif" font-size="14.00">{c2, c3}</text>
</g>
<!-- 2&#45;&gt;2 -->
<g id="edge62" class="edge">
<title>2&#45;&gt;2</title>
<path fill="none" stroke="black" d="M1520.44,-29.74C1658.01,-50.3 2124.38,-48.54 2124.38,-24.44 2124.38,-0.91 1679.61,1.32 1530.64,-17.74"/>
<polygon fill="black" stroke="black" points="1529.87,-14.31 1520.44,-19.15 1530.82,-21.25 1529.87,-14.31"/>
<text text-anchor="middle" x="2137.88" y="-20.74" font-family="Times,serif" font-size="14.00">{c3}</text>
</g>
<!-- 2&#45;&gt;2 -->
<g id="edge63" class="edge">
<title>2&#45;&gt;2</title>
<path fill="none" stroke="black" d="M1520.17,-29.86C1662.88,-52.31 2151.38,-50.5 2151.38,-24.44 2151.38,1.03 1684.57,3.33 1530.3,-17.55"/>
<polygon fill="black" stroke="black" points="1529.56,-14.12 1520.17,-19.02 1530.57,-21.04 1529.56,-14.12"/>
<text text-anchor="middle" x="2158.38" y="-20.74" font-family="Times,serif" font-size="14.00">{}</text>
</g>
<!-- 2&#45;&gt;2 -->
<g id="edge64" class="edge">
<title>2&#45;&gt;2</title>
<path fill="none" stroke="black" d="M1520.1,-30.02C1667.34,-54.31 2169.38,-52.45 2169.38,-24.44 2169.38,2.96 1688.68,5.33 1530.07,-17.33"/>
<polygon fill="black" stroke="black" points="1529.46,-13.89 1520.1,-18.86 1530.52,-20.81 1529.46,-13.89"/>
<text text-anchor="middle" x="2202.88" y="-20.74" font-family="Times,serif" font-size="14.00">{c0, c1, c3}</text>
</g>
<!-- 2&#45;&gt;2 -->
<g id="edge65" class="edge">
<title>2&#45;&gt;2</title>
<path fill="none" stroke="black" d="M1520.5,-30.15C1677.68,-56.31 2236.38,-54.41 2236.38,-24.44 2236.38,4.93 1699.83,7.34 1530.42,-17.2"/>
<polygon fill="black" stroke="black" points="1529.85,-13.74 1520.5,-18.73 1530.92,-20.66 1529.85,-13.74"/>
<text text-anchor="middle" x="2269.88" y="-20.74" font-family="Times,serif" font-size="14.00">{c0, c2, c3}</text>
</g>
<!-- 3&#45;&gt;2 -->
<g id="edge11" class="edge">
<title>3&#45;&gt;2</title>
<path fill="none" stroke="black" d="M1043.67,-184.45C1041.26,-174.61 1037.76,-162.11 1033.38,-151.44 1029.9,-142.98 1025.67,-142.3 1023.38,-133.44 1019.36,-117.95 1014.26,-110.59 1023.38,-97.44 1036.35,-78.71 1050.62,-88.84 1071.38,-79.44 1084.24,-73.62 1085.82,-68.39 1099.38,-64.44 1200.79,-34.86 1231.31,-57.4 1336.38,-46.44 1378.17,-42.08 1425.97,-35.51 1457.94,-30.88"/>
<polygon fill="black" stroke="black" points="1458.76,-34.29 1468.15,-29.39 1457.75,-27.37 1458.76,-34.29"/>
<text text-anchor="middle" x="1036.88" y="-111.74" font-family="Times,serif" font-size="14.00">{c1}</text>
</g>
<!-- 3&#45;&gt;2 -->
<g id="edge12" class="edge">
<title>3&#45;&gt;2</title>
<path fill="none" stroke="black" d="M1050.26,-184.36C1056.74,-152.4 1075.87,-84.94 1124.38,-64.44 1167.93,-46.03 1289.37,-51.56 1336.38,-46.44 1378.15,-41.9 1425.95,-35.35 1457.93,-30.78"/>
<polygon fill="black" stroke="black" points="1458.74,-34.2 1468.14,-29.32 1457.75,-27.28 1458.74,-34.2"/>
<text text-anchor="middle" x="1098.88" y="-111.74" font-family="Times,serif" font-size="14.00">{c0}</text>
</g>
<!-- 3&#45;&gt;2 -->
<g id="edge13" class="edge">
<title>3&#45;&gt;2</title>
<path fill="none" stroke="black" d="M1061.58,-186.76C1088.47,-159.01 1144.56,-101.24 1149.38,-97.44 1171.76,-79.79 1177.47,-73.87 1204.38,-64.44 1205.87,-63.92 1380.09,-40.67 1457.75,-30.32"/>
<polygon fill="black" stroke="black" points="1458.59,-33.74 1468.04,-28.95 1457.66,-26.8 1458.59,-33.74"/>
<text text-anchor="middle" x="1172.88" y="-111.74" font-family="Times,serif" font-size="14.00">{c1, c3}</text>
</g>
<!-- 3&#45;&gt;2 -->
<g id="edge14" class="edge">
<title>3&#45;&gt;2</title>
<path fill="none" stroke="black" d="M1071.2,-193.57C1101.82,-182.81 1155.85,-161.57 1196.38,-133.44 1214.97,-120.54 1214.54,-111.37 1232.38,-97.44 1254.85,-79.9 1260.73,-74.57 1287.38,-64.44 1344.57,-42.7 1415.43,-32.72 1457.66,-28.41"/>
<polygon fill="black" stroke="black" points="1458.13,-31.88 1467.75,-27.43 1457.46,-24.91 1458.13,-31.88"/>
<text text-anchor="middle" x="1255.88" y="-111.74" font-family="Times,serif" font-size="14.00">{c0, c1}</text>
</g>
<!-- 3&#45;&gt;2 -->
<g id="edge15" class="edge">
<title>3&#45;&gt;2</title>
<path fill="none" stroke="black" d="M1073.78,-198.06C1118.7,-191.4 1211.69,-173.58 1279.38,-133.44 1298.84,-121.9 1297.54,-111.37 1315.38,-97.44 1337.85,-79.9 1344.38,-76.13 1370.38,-64.44 1399.32,-51.43 1433.88,-40.94 1459.16,-34.14"/>
<polygon fill="black" stroke="black" points="1460.26,-37.47 1469.04,-31.53 1458.47,-30.7 1460.26,-37.47"/>
<text text-anchor="middle" x="1338.88" y="-111.74" font-family="Times,serif" font-size="14.00">{c0, c3}</text>
</g>
<!-- 3&#45;&gt;2 -->
<g id="edge16" class="edge">
<title>3&#45;&gt;2</title>
<path fill="none" stroke="black" d="M1074.67,-201.09C1131.9,-199.21 1267.05,-188.76 1362.38,-133.44 1381.95,-122.08 1382.14,-113.2 1398.38,-97.44 1413.72,-82.55 1416.52,-77.59 1433.38,-64.44 1443.5,-56.55 1455.25,-48.75 1465.72,-42.22"/>
<polygon fill="black" stroke="black" points="1467.81,-45.05 1474.51,-36.85 1464.16,-39.07 1467.81,-45.05"/>
<text text-anchor="middle" x="1411.88" y="-111.74" font-family="Times,serif" font-size="14.00">{c3}</text>
</g>
<!-- 3&#45;&gt;2 -->
<g id="edge17" class="edge">
<title>3&#45;&gt;2</title>
<path fill="none" stroke="black" d="M1074.23,-199.78C1151.08,-194.55 1369.9,-176.15 1425.38,-133.44 1453.11,-112.09 1472.82,-76.19 1483.89,-51.69"/>
<polygon fill="black" stroke="black" points="1487.2,-52.85 1487.97,-42.28 1480.78,-50.06 1487.2,-52.85"/>
<text text-anchor="middle" x="1491.88" y="-111.74" font-family="Times,serif" font-size="14.00">{c0, c1, c3}</text>
</g>
<!-- 3&#45;&gt;3 -->
<g id="edge5" class="edge">
<title>3&#45;&gt;3</title>
<path fill="none" stroke="black" d="M1071.91,-210.19C1082.88,-210.93 1092.38,-208.35 1092.38,-202.44 1092.38,-198.47 1088.09,-196 1081.95,-195.04"/>
<polygon fill="black" stroke="black" points="1082.02,-191.54 1071.91,-194.69 1081.78,-198.53 1082.02,-191.54"/>
<text text-anchor="middle" x="1099.38" y="-198.74" font-family="Times,serif" font-size="14.00">{}</text>
</g>
<!-- 4 -->
<g id="node6" class="node">
<title>4</title>
<ellipse fill="none" stroke="black" cx="643.38" cy="-115.44" rx="27" ry="18"/>
<text text-anchor="middle" x="643.38" y="-111.74" font-family="Times,serif" font-size="14.00">4</text>
</g>
<!-- 3&#45;&gt;4 -->
<g id="edge2" class="edge">
<title>3&#45;&gt;4</title>
<path fill="none" stroke="black" d="M1020.43,-200.97C902.45,-198.78 436.48,-188.74 415.38,-166.44 410.8,-161.6 411.04,-156.5 415.38,-151.44 439.5,-123.33 547.81,-117.57 606.05,-116.54"/>
<polygon fill="black" stroke="black" points="606.36,-120.03 616.31,-116.4 606.26,-113.03 606.36,-120.03"/>
<text text-anchor="middle" x="438.88" y="-155.24" font-family="Times,serif" font-size="14.00">{c0, c2}</text>
</g>
<!-- 3&#45;&gt;4 -->
<g id="edge3" class="edge">
<title>3&#45;&gt;4</title>
<path fill="none" stroke="black" d="M1020.15,-200.77C910.18,-197.93 503.89,-186.14 485.38,-166.44 448.75,-127.46 548.67,-118.73 606.11,-116.87"/>
<polygon fill="black" stroke="black" points="606.4,-120.36 616.3,-116.59 606.21,-113.36 606.4,-120.36"/>
<text text-anchor="middle" x="518.88" y="-155.24" font-family="Times,serif" font-size="14.00">{c0, c1, c2}</text>
</g>
<!-- 3&#45;&gt;4 -->
<g id="edge4" class="edge">
<title>3&#45;&gt;4</title>
<path fill="none" stroke="black" d="M1020.3,-201.53C924.49,-201.55 605.74,-199.14 575.38,-166.44 560.65,-150.59 585.54,-136.39 609.24,-127.21"/>
<polygon fill="black" stroke="black" points="610.66,-130.42 618.86,-123.71 608.26,-123.84 610.66,-130.42"/>
<text text-anchor="middle" x="598.88" y="-155.24" font-family="Times,serif" font-size="14.00">{c1, c2}</text>
</g>
<!-- 3&#45;&gt;4 -->
<g id="edge6" class="edge">
<title>3&#45;&gt;4</title>
<path fill="none" stroke="black" d="M1020.25,-201.11C934.17,-199.78 671.22,-193.53 645.38,-166.44 639.64,-160.43 637.91,-151.93 638,-143.65"/>
<polygon fill="black" stroke="black" points="641.5,-143.74 638.91,-133.47 634.53,-143.11 641.5,-143.74"/>
<text text-anchor="middle" x="678.88" y="-155.24" font-family="Times,serif" font-size="14.00">{c0, c2, c3}</text>
</g>
<!-- 3&#45;&gt;4 -->
<g id="edge7" class="edge">
<title>3&#45;&gt;4</title>
<path fill="none" stroke="black" d="M1020.46,-200.02C954.76,-196.3 787.7,-185.23 735.38,-166.44 723.89,-162.32 722.95,-157.54 712.38,-151.44 700.08,-144.34 686.17,-137.13 674.08,-131.12"/>
<polygon fill="black" stroke="black" points="675.35,-127.85 664.83,-126.58 672.26,-134.13 675.35,-127.85"/>
<text text-anchor="middle" x="758.88" y="-155.24" font-family="Times,serif" font-size="14.00">{c2, c3}</text>
</g>
<!-- 3&#45;&gt;4 -->
<g id="edge8" class="edge">
<title>3&#45;&gt;4</title>
<path fill="none" stroke="black" d="M1020.3,-201.29C974.54,-200.22 879.65,-194.46 805.38,-166.44 793.96,-162.13 793.56,-156.33 782.38,-151.44 748.97,-136.83 708.28,-127.48 679.58,-122.15"/>
<polygon fill="black" stroke="black" points="680.04,-118.68 669.58,-120.37 678.81,-125.57 680.04,-118.68"/>
<text text-anchor="middle" x="818.88" y="-155.24" font-family="Times,serif" font-size="14.00">{c2}</text>
</g>
<!-- 3&#45;&gt;4 -->
<g id="edge9" class="edge">
<title>3&#45;&gt;4</title>
<path fill="none" stroke="black" d="M1020.37,-199.89C982.34,-196.96 911.41,-188.76 855.38,-166.44 844.04,-161.92 843.71,-155.97 832.38,-151.44 782.11,-131.33 719.64,-122.65 680.63,-119"/>
<polygon fill="black" stroke="black" points="680.55,-115.47 670.28,-118.09 679.94,-122.45 680.55,-115.47"/>
<text text-anchor="middle" x="888.88" y="-155.24" font-family="Times,serif" font-size="14.00">{c1, c2, c3}</text>
</g>
<!-- 3&#45;&gt;4 -->
<g id="edge10" class="edge">
<title>3&#45;&gt;4</title>
<path fill="none" stroke="black" d="M1022.8,-194.87C1001.7,-188.79 970.78,-178.85 945.38,-166.44 934.41,-161.09 933.84,-155.64 922.38,-151.44 839.87,-121.2 735.46,-116.18 680.73,-115.87"/>
<polygon fill="black" stroke="black" points="680.47,-112.37 670.47,-115.86 680.47,-119.37 680.47,-112.37"/>
<text text-anchor="middle" x="989.38" y="-155.24" font-family="Times,serif" font-size="14.00">{c0, c1, c2, c3}</text>
</g>
<!-- 4&#45;&gt;2 -->
<g id="edge75" class="edge">
<title>4&#45;&gt;2</title>
<path fill="none" stroke="black" d="M638.34,-97.3C636.29,-86.4 636.05,-72.82 644.38,-64.44 657.93,-50.8 1317.21,-47.96 1336.38,-46.44 1378.39,-43.11 1426.33,-36.31 1458.28,-31.35"/>
<polygon fill="black" stroke="black" points="1459.13,-34.76 1468.47,-29.74 1458.04,-27.84 1459.13,-34.76"/>
<text text-anchor="middle" x="657.88" y="-68.24" font-family="Times,serif" font-size="14.00">{c1}</text>
</g>
<!-- 4&#45;&gt;2 -->
<g id="edge76" class="edge">
<title>4&#45;&gt;2</title>
<path fill="none" stroke="black" d="M654.3,-98.6C663.47,-86.79 677.72,-71.52 694.38,-64.44 760.06,-36.54 1265.24,-52.15 1336.38,-46.44 1378.38,-43.07 1426.32,-36.28 1458.27,-31.33"/>
<polygon fill="black" stroke="black" points="1459.13,-34.74 1468.46,-29.73 1458.04,-27.82 1459.13,-34.74"/>
<text text-anchor="middle" x="707.88" y="-68.24" font-family="Times,serif" font-size="14.00">{c2}</text>
</g>
<!-- 4&#45;&gt;2 -->
<g id="edge77" class="edge">
<title>4&#45;&gt;2</title>
<path fill="none" stroke="black" d="M666.02,-105.39C681.83,-98.8 703.27,-89.33 721.38,-79.44 732.09,-73.59 732.73,-68.1 744.38,-64.44 807.16,-44.73 1270.79,-51.78 1336.38,-46.44 1378.38,-43.02 1426.32,-36.24 1458.27,-31.3"/>
<polygon fill="black" stroke="black" points="1459.12,-34.71 1468.46,-29.71 1458.04,-27.8 1459.12,-34.71"/>
<text text-anchor="middle" x="767.88" y="-68.24" font-family="Times,serif" font-size="14.00">{c1, c2}</text>
</g>
<!-- 4&#45;&gt;2 -->
<g id="edge78" class="edge">
<title>4&#45;&gt;2</title>
<path fill="none" stroke="black" d="M669.64,-111.03C699.91,-106.47 750.73,-96.87 791.38,-79.44 802.59,-74.63 802.74,-68.12 814.38,-64.44 869.71,-46.95 1278.54,-51.27 1336.38,-46.44 1378.37,-42.94 1426.31,-36.17 1458.27,-31.26"/>
<polygon fill="black" stroke="black" points="1459.12,-34.67 1468.46,-29.68 1458.04,-27.76 1459.12,-34.67"/>
<text text-anchor="middle" x="827.88" y="-68.24" font-family="Times,serif" font-size="14.00">{c0}</text>
</g>
<!-- 4&#45;&gt;2 -->
<g id="edge79" class="edge">
<title>4&#45;&gt;2</title>
<path fill="none" stroke="black" d="M670.24,-113.1C709.21,-110.42 783.1,-102.48 841.38,-79.44 852.73,-74.96 852.75,-68.14 864.38,-64.44 964.4,-32.62 1231.79,-55.37 1336.38,-46.44 1378.36,-42.86 1426.31,-36.11 1458.26,-31.22"/>
<polygon fill="black" stroke="black" points="1459.11,-34.64 1468.46,-29.65 1458.04,-27.72 1459.11,-34.64"/>
<text text-anchor="middle" x="887.88" y="-68.24" font-family="Times,serif" font-size="14.00">{c0, c1}</text>
</g>
<!-- 4&#45;&gt;2 -->
<g id="edge80" class="edge">
<title>4&#45;&gt;2</title>
<path fill="none" stroke="black" d="M670.57,-114.82C720.07,-114.67 827.53,-110.42 911.38,-79.44 922.82,-75.21 922.76,-68.18 934.38,-64.44 1019.5,-37.05 1247.3,-54.34 1336.38,-46.44 1378.35,-42.72 1426.3,-35.99 1458.26,-31.16"/>
<polygon fill="black" stroke="black" points="1459.1,-34.57 1468.45,-29.59 1458.04,-27.65 1459.1,-34.57"/>
<text text-anchor="middle" x="957.88" y="-68.24" font-family="Times,serif" font-size="14.00">{c0, c2}</text>
</g>
<!-- 4&#45;&gt;2 -->
<g id="edge81" class="edge">
<title>4&#45;&gt;2</title>
<path fill="none" stroke="black" d="M670.21,-113.29C739.7,-110.06 924.03,-99.76 981.38,-79.44 992.88,-75.37 992.78,-68.23 1004.38,-64.44 1074.6,-41.48 1262.81,-53.31 1336.38,-46.44 1378.33,-42.52 1426.28,-35.83 1458.25,-31.06"/>
<polygon fill="black" stroke="black" points="1459.08,-34.47 1468.45,-29.52 1458.04,-27.55 1459.08,-34.47"/>
<text text-anchor="middle" x="1037.88" y="-68.24" font-family="Times,serif" font-size="14.00">{c0, c1, c2}</text>
</g>
<!-- 4&#45;&gt;4 -->
<g id="edge69" class="edge">
<title>4&#45;&gt;4</title>
<path fill="none" stroke="black" d="M667.91,-123.19C678.88,-123.93 688.38,-121.35 688.38,-115.44 688.38,-111.47 684.09,-109 677.95,-108.04"/>
<polygon fill="black" stroke="black" points="678.02,-104.54 667.91,-107.69 677.78,-111.53 678.02,-104.54"/>
<text text-anchor="middle" x="695.38" y="-111.74" font-family="Times,serif" font-size="14.00">{}</text>
</g>
<!-- 5 -->
<g id="node7" class="node">
<title>5</title>
<ellipse fill="none" stroke="black" cx="257.38" cy="-24.44" rx="18" ry="18"/>
<ellipse fill="none" stroke="black" cx="257.38" cy="-24.44" rx="22" ry="22"/>
<text text-anchor="middle" x="257.38" y="-20.74" font-family="Times,serif" font-size="14.00">5</text>
</g>
<!-- 4&#45;&gt;5 -->
<g id="edge66" class="edge">
<title>4&#45;&gt;5</title>
<path fill="none" stroke="black" d="M616.08,-113.98C496.62,-111.85 24.75,-102.02 3.38,-79.44 -1.21,-74.6 -0.96,-69.5 3.38,-64.44 31.6,-31.56 163.25,-26.12 225.11,-25.41"/>
<polygon fill="black" stroke="black" points="225.14,-28.91 235.11,-25.33 225.08,-21.91 225.14,-28.91"/>
<text text-anchor="middle" x="36.88" y="-68.24" font-family="Times,serif" font-size="14.00">{c1, c2, c3}</text>
</g>
<!-- 4&#45;&gt;5 -->
<g id="edge67" class="edge">
<title>4&#45;&gt;5</title>
<path fill="none" stroke="black" d="M616.3,-114.83C510.56,-116.08 129.43,-117.86 93.38,-79.44 53.89,-37.36 166.54,-28.03 224.84,-25.99"/>
<polygon fill="black" stroke="black" points="225.15,-29.49 235.04,-25.69 224.94,-22.49 225.15,-29.49"/>
<text text-anchor="middle" x="116.88" y="-68.24" font-family="Times,serif" font-size="14.00">{c0, c3}</text>
</g>
<!-- 4&#45;&gt;5 -->
<g id="edge68" class="edge">
<title>4&#45;&gt;5</title>
<path fill="none" stroke="black" d="M616.17,-114.56C519.16,-114.71 194.31,-112.71 163.38,-79.44 141.45,-55.86 190.83,-39.68 225.99,-31.54"/>
<polygon fill="black" stroke="black" points="226.89,-34.92 235.9,-29.36 225.39,-28.09 226.89,-34.92"/>
<text text-anchor="middle" x="176.88" y="-68.24" font-family="Times,serif" font-size="14.00">{c3}</text>
</g>
<!-- 4&#45;&gt;5 -->
<g id="edge70" class="edge">
<title>4&#45;&gt;5</title>
<path fill="none" stroke="black" d="M616.24,-114.32C526.08,-113.62 240.7,-109.08 213.38,-79.44 202.17,-67.29 215.48,-52.72 230.31,-41.78"/>
<polygon fill="black" stroke="black" points="232.3,-44.66 238.57,-36.11 228.34,-38.89 232.3,-44.66"/>
<text text-anchor="middle" x="246.88" y="-68.24" font-family="Times,serif" font-size="14.00">{c0, c2, c3}</text>
</g>
<!-- 4&#45;&gt;5 -->
<g id="edge71" class="edge">
<title>4&#45;&gt;5</title>
<path fill="none" stroke="black" d="M616.24,-114.22C545.58,-113.24 357.61,-107.95 303.38,-79.44 291.54,-73.22 281.47,-62.56 273.79,-52.35"/>
<polygon fill="black" stroke="black" points="276.53,-50.16 267.92,-43.98 270.8,-54.18 276.53,-50.16"/>
<text text-anchor="middle" x="326.88" y="-68.24" font-family="Times,serif" font-size="14.00">{c2, c3}</text>
</g>
<!-- 4&#45;&gt;5 -->
<g id="edge72" class="edge">
<title>4&#45;&gt;5</title>
<path fill="none" stroke="black" d="M616.38,-114.86C566.69,-114.79 458.08,-110.69 373.38,-79.44 361.93,-75.22 361.16,-70.16 350.38,-64.44 329.92,-53.6 305.79,-43.55 287.23,-36.37"/>
<polygon fill="black" stroke="black" points="288.41,-33.07 277.82,-32.79 285.92,-39.62 288.41,-33.07"/>
<text text-anchor="middle" x="406.88" y="-68.24" font-family="Times,serif" font-size="14.00">{c0, c1, c3}</text>
</g>
<!-- 4&#45;&gt;5 -->
<g id="edge73" class="edge">
<title>4&#45;&gt;5</title>
<path fill="none" stroke="black" d="M616.54,-112.46C580.54,-109.09 515.16,-100.42 463.38,-79.44 452.07,-74.86 451.65,-69.13 440.38,-64.44 390.01,-43.5 326.98,-33.25 289.57,-28.68"/>
<polygon fill="black" stroke="black" points="289.61,-25.16 279.28,-27.49 288.81,-32.11 289.61,-25.16"/>
<text text-anchor="middle" x="486.88" y="-68.24" font-family="Times,serif" font-size="14.00">{c1, c3}</text>
</g>
<!-- 4&#45;&gt;5 -->
<g id="edge74" class="edge">
<title>4&#45;&gt;5</title>
<path fill="none" stroke="black" d="M618.18,-108.5C595.4,-102.65 561.26,-92.67 533.38,-79.44 522.35,-74.21 521.78,-68.8 510.38,-64.44 434.78,-35.52 338.69,-28.01 289.53,-26.08"/>
<polygon fill="black" stroke="black" points="289.61,-22.58 279.49,-25.74 289.37,-29.58 289.61,-22.58"/>
<text text-anchor="middle" x="577.38" y="-68.24" font-family="Times,serif" font-size="14.00">{c0, c1, c2, c3}</text>
</g>
<!-- 5&#45;&gt;5 -->
<g id="edge18" class="edge">
<title>5&#45;&gt;5</title>
<path fill="none" stroke="black" d="M279.59,-25.92C289.17,-26.04 297.38,-25.55 297.38,-24.44 297.38,-23.77 294.33,-23.32 289.78,-23.1"/>
<polygon fill="black" stroke="black" points="289.64,-19.6 279.59,-22.96 289.54,-26.6 289.64,-19.6"/>
<text text-anchor="middle" x="310.88" y="-20.74" font-family="Times,serif" font-size="14.00">{c2}</text>
</g>
<!-- 5&#45;&gt;5 -->
<g id="edge19" class="edge">
<title>5&#45;&gt;5</title>
<path fill="none" stroke="black" d="M279.41,-26.91C300.28,-28.11 324.38,-27.29 324.38,-24.44 324.38,-22.06 307.54,-21.1 289.82,-21.55"/>
<polygon fill="black" stroke="black" points="289.26,-18.07 279.41,-21.98 289.54,-25.06 289.26,-18.07"/>
<text text-anchor="middle" x="337.88" y="-20.74" font-family="Times,serif" font-size="14.00">{c0}</text>
</g>
<!-- 5&#45;&gt;5 -->
<g id="edge20" class="edge">
<title>5&#45;&gt;5</title>
<path fill="none" stroke="black" d="M279.51,-27.56C309.88,-30.14 351.38,-29.11 351.38,-24.44 351.38,-20.29 318.46,-19.01 289.81,-20.61"/>
<polygon fill="black" stroke="black" points="289.24,-17.14 279.51,-21.33 289.73,-24.12 289.24,-17.14"/>
<text text-anchor="middle" x="374.88" y="-20.74" font-family="Times,serif" font-size="14.00">{c0, c1}</text>
</g>
<!-- 5&#45;&gt;5 -->
<g id="edge21" class="edge">
<title>5&#45;&gt;5</title>
<path fill="none" stroke="black" d="M279.21,-27.83C322.81,-32.21 398.38,-31.08 398.38,-24.44 398.38,-18.29 333.61,-16.87 289.4,-20.17"/>
<polygon fill="black" stroke="black" points="288.87,-16.7 279.21,-21.06 289.48,-23.68 288.87,-16.7"/>
<text text-anchor="middle" x="421.88" y="-20.74" font-family="Times,serif" font-size="14.00">{c1, c3}</text>
</g>
<!-- 5&#45;&gt;5 -->
<g id="edge22" class="edge">
<title>5&#45;&gt;5</title>
<path fill="none" stroke="black" d="M279.12,-28.07C334.11,-34.24 445.38,-33.04 445.38,-24.44 445.38,-16.35 346.76,-14.81 289.33,-19.81"/>
<polygon fill="black" stroke="black" points="288.72,-16.35 279.12,-20.82 289.41,-23.31 288.72,-16.35"/>
<text text-anchor="middle" x="468.88" y="-20.74" font-family="Times,serif" font-size="14.00">{c0, c2}</text>
</g>
<!-- 5&#45;&gt;5 -->
<g id="edge23" class="edge">
<title>5&#45;&gt;5</title>
<path fill="none" stroke="black" d="M279.04,-28.27C344.32,-36.27 492.38,-34.99 492.38,-24.44 492.38,-14.41 358.43,-12.76 289.17,-19.51"/>
<polygon fill="black" stroke="black" points="288.6,-16.05 279.04,-20.61 289.36,-23.01 288.6,-16.05"/>
<text text-anchor="middle" x="536.38" y="-20.74" font-family="Times,serif" font-size="14.00">{c0, c1, c2, c3}</text>
</g>
<!-- 5&#45;&gt;5 -->
<g id="edge24" class="edge">
<title>5&#45;&gt;5</title>
<path fill="none" stroke="black" d="M279.09,-28.31C359.96,-38.29 580.38,-37.01 580.38,-24.44 580.38,-12.37 376.84,-10.71 289.19,-19.46"/>
<polygon fill="black" stroke="black" points="288.65,-16 279.09,-20.58 289.42,-22.95 288.65,-16"/>
<text text-anchor="middle" x="593.88" y="-20.74" font-family="Times,serif" font-size="14.00">{c3}</text>
</g>
<!-- 5&#45;&gt;5 -->
<g id="edge25" class="edge">
<title>5&#45;&gt;5</title>
<path fill="none" stroke="black" d="M279.09,-28.56C365.89,-40.3 607.38,-38.93 607.38,-24.44 607.38,-10.48 383.03,-8.7 289.09,-19.1"/>
<polygon fill="black" stroke="black" points="288.59,-15.64 279.09,-20.33 289.44,-22.59 288.59,-15.64"/>
<text text-anchor="middle" x="640.88" y="-20.74" font-family="Times,serif" font-size="14.00">{c0, c1, c3}</text>
</g>
<!-- 5&#45;&gt;5 -->
<g id="edge26" class="edge">
<title>5&#45;&gt;5</title>
<path fill="none" stroke="black" d="M278.99,-28.64C376.58,-42.31 674.38,-40.91 674.38,-24.44 674.38,-8.5 395.46,-6.68 289.03,-18.97"/>
<polygon fill="black" stroke="black" points="288.46,-15.51 278.99,-20.24 289.35,-22.46 288.46,-15.51"/>
<text text-anchor="middle" x="681.38" y="-20.74" font-family="Times,serif" font-size="14.00">{}</text>
</g>
<!-- 5&#45;&gt;5 -->
<g id="edge27" class="edge">
<title>5&#45;&gt;5</title>
<path fill="none" stroke="black" d="M278.99,-28.86C381.24,-44.31 692.38,-42.84 692.38,-24.44 692.38,-6.62 400.38,-4.68 289.17,-18.62"/>
<polygon fill="black" stroke="black" points="288.42,-15.19 278.99,-20.02 289.37,-22.13 288.42,-15.19"/>
<text text-anchor="middle" x="725.88" y="-20.74" font-family="Times,serif" font-size="14.00">{c1, c2, c3}</text>
</g>
<!-- 5&#45;&gt;5 -->
<g id="edge28" class="edge">
<title>5&#45;&gt;5</title>
<path fill="none" stroke="black" d="M279.26,-28.98C391.98,-46.32 759.38,-44.81 759.38,-24.44 759.38,-4.65 412.49,-2.66 289.43,-18.48"/>
<polygon fill="black" stroke="black" points="288.67,-15.05 279.26,-19.91 289.65,-21.98 288.67,-15.05"/>
<text text-anchor="middle" x="792.88" y="-20.74" font-family="Times,serif" font-size="14.00">{c0, c2, c3}</text>
</g>
<!-- 5&#45;&gt;5 -->
<g id="edge29" class="edge">
<title>5&#45;&gt;5</title>
<path fill="none" stroke="black" d="M279.11,-29.03C401.37,-48.33 826.38,-46.8 826.38,-24.44 826.38,-2.67 423.49,-0.65 289.4,-18.37"/>
<polygon fill="black" stroke="black" points="288.51,-14.96 279.11,-19.86 289.51,-21.89 288.51,-14.96"/>
<text text-anchor="middle" x="839.88" y="-20.74" font-family="Times,serif" font-size="14.00">{c1}</text>
</g>
<!-- 5&#45;&gt;5 -->
<g id="edge30" class="edge">
<title>5&#45;&gt;5</title>
<path fill="none" stroke="black" d="M278.93,-29.14C406.42,-50.33 853.38,-48.77 853.38,-24.44 853.38,-0.71 427.98,1.36 288.83,-18.23"/>
<polygon fill="black" stroke="black" points="288.28,-14.77 278.93,-19.74 289.34,-21.69 288.28,-14.77"/>
<text text-anchor="middle" x="876.88" y="-20.74" font-family="Times,serif" font-size="14.00">{c1, c2}</text>
</g>
<!-- 5&#45;&gt;5 -->
<g id="edge31" class="edge">
<title>5&#45;&gt;5</title>
<path fill="none" stroke="black" d="M279.23,-29.29C414.5,-52.34 900.38,-50.72 900.38,-24.44 900.38,1.22 437.01,3.36 289.3,-18.01"/>
<polygon fill="black" stroke="black" points="288.56,-14.59 279.23,-19.59 289.65,-21.5 288.56,-14.59"/>
<text text-anchor="middle" x="933.88" y="-20.74" font-family="Times,serif" font-size="14.00">{c0, c1, c2}</text>
</g>
<!-- 5&#45;&gt;5 -->
<g id="edge32" class="edge">
<title>5&#45;&gt;5</title>
<path fill="none" stroke="black" d="M279.12,-29.33C423.28,-54.34 967.38,-52.71 967.38,-24.44 967.38,3.2 447.44,5.37 289.43,-17.91"/>
<polygon fill="black" stroke="black" points="288.44,-14.52 279.12,-19.55 289.54,-21.43 288.44,-14.52"/>
<text text-anchor="middle" x="990.88" y="-20.74" font-family="Times,serif" font-size="14.00">{c0, c3}</text>
</g>
<!-- 5&#45;&gt;5 -->
<g id="edge33" class="edge">
<title>5&#45;&gt;5</title>
<path fill="none" stroke="black" d="M279.07,-29.4C430.25,-56.35 1014.38,-54.69 1014.38,-24.44 1014.38,5.16 455.08,7.38 289.4,-17.78"/>
<polygon fill="black" stroke="black" points="288.37,-14.4 279.07,-19.48 289.51,-21.31 288.37,-14.4"/>
<text text-anchor="middle" x="1037.88" y="-20.74" font-family="Times,serif" font-size="14.00">{c2, c3}</text>
</g>
</g>
</svg>
