<?xml version="1.0" encoding="UTF-8" standalone="no"?>
<!DOCTYPE svg PUBLIC "-//W3C//DTD SVG 1.1//EN"
 "http://www.w3.org/Graphics/SVG/1.1/DTD/svg11.dtd">
<!-- Generated by graphviz version 2.43.0 (0)
 -->
<!-- Title: %3 Pages: 1 -->
<svg width="1049pt" height="386pt"
 viewBox="0.00 0.00 1049.12 386.00" xmlns="http://www.w3.org/2000/svg" xmlns:xlink="http://www.w3.org/1999/xlink">
<g id="graph0" class="graph" transform="scale(1 1) rotate(0) translate(4 382)">
<title>%3</title>
<polygon fill="white" stroke="transparent" points="-4,4 -4,-382 1045.12,-382 1045.12,4 -4,4"/>
<!-- fake -->
<g id="node1" class="node">
<title>fake</title>
</g>
<!-- 0 -->
<g id="node2" class="node">
<title>0</title>
<ellipse fill="none" stroke="black" cx="582.12" cy="-287" rx="27" ry="18"/>
<text text-anchor="middle" x="582.12" y="-283.3" font-family="Times,serif" font-size="14.00">0</text>
</g>
<!-- fake&#45;&gt;0 -->
<g id="edge1" class="edge">
<title>fake&#45;&gt;0</title>
<path fill="none" stroke="black" stroke-width="2" d="M582.12,-341.81C582.12,-333.79 582.12,-324.05 582.12,-315.07"/>
<polygon fill="black" stroke="black" stroke-width="2" points="585.62,-315.03 582.12,-305.03 578.62,-315.03 585.62,-315.03"/>
</g>
<!-- 0&#45;&gt;0 -->
<g id="edge5" class="edge">
<title>0&#45;&gt;0</title>
<path fill="none" stroke="black" d="M607.57,-293.69C618.15,-294.15 627.12,-291.92 627.12,-287 627.12,-283.77 623.26,-281.7 617.61,-280.79"/>
<polygon fill="black" stroke="black" points="617.72,-277.29 607.57,-280.31 617.39,-284.28 617.72,-277.29"/>
<text text-anchor="middle" x="634.12" y="-283.3" font-family="Times,serif" font-size="14.00">{}</text>
</g>
<!-- 1 -->
<g id="node3" class="node">
<title>1</title>
<ellipse fill="none" stroke="black" cx="422.12" cy="-200" rx="27" ry="18"/>
<text text-anchor="middle" x="422.12" y="-196.3" font-family="Times,serif" font-size="14.00">1</text>
</g>
<!-- 0&#45;&gt;1 -->
<g id="edge2" class="edge">
<title>0&#45;&gt;1</title>
<path fill="none" stroke="black" d="M554.95,-285.62C503.76,-284.26 396.12,-278.17 373.12,-251 362.66,-238.63 376.38,-225.59 391.94,-215.92"/>
<polygon fill="black" stroke="black" points="393.7,-218.95 400.63,-210.93 390.21,-212.88 393.7,-218.95"/>
<text text-anchor="middle" x="386.62" y="-239.8" font-family="Times,serif" font-size="14.00">{c2}</text>
</g>
<!-- 0&#45;&gt;1 -->
<g id="edge3" class="edge">
<title>0&#45;&gt;1</title>
<path fill="none" stroke="black" d="M555.38,-284.02C514.54,-280.39 439.62,-271.1 423.12,-251 417.94,-244.68 416.43,-236.23 416.6,-228.09"/>
<polygon fill="black" stroke="black" points="420.09,-228.4 417.56,-218.12 413.12,-227.73 420.09,-228.4"/>
<text text-anchor="middle" x="456.62" y="-239.8" font-family="Times,serif" font-size="14.00">{c0, c1, c2}</text>
</g>
<!-- 0&#45;&gt;1 -->
<g id="edge4" class="edge">
<title>0&#45;&gt;1</title>
<path fill="none" stroke="black" d="M560.67,-275.86C546.89,-269.17 528.71,-260 513.12,-251 502.56,-244.9 500.67,-242.13 490.12,-236 478.08,-229 464.48,-221.85 452.63,-215.86"/>
<polygon fill="black" stroke="black" points="454.07,-212.67 443.56,-211.33 450.94,-218.93 454.07,-212.67"/>
<text text-anchor="middle" x="536.62" y="-239.8" font-family="Times,serif" font-size="14.00">{c1, c2}</text>
</g>
<!-- 0&#45;&gt;1 -->
<g id="edge6" class="edge">
<title>0&#45;&gt;1</title>
<path fill="none" stroke="black" d="M578.64,-268.83C575.56,-257.92 569.97,-244.33 560.12,-236 531.94,-212.15 489.66,-204.21 459.33,-201.74"/>
<polygon fill="black" stroke="black" points="459.35,-198.24 449.14,-201.08 458.89,-205.22 459.35,-198.24"/>
<text text-anchor="middle" x="593.62" y="-239.8" font-family="Times,serif" font-size="14.00">{c0, c2}</text>
</g>
<!-- 2 -->
<g id="node4" class="node">
<title>2</title>
<ellipse fill="none" stroke="black" cx="567.12" cy="-22" rx="27" ry="18"/>
<text text-anchor="middle" x="567.12" y="-18.3" font-family="Times,serif" font-size="14.00">2</text>
</g>
<!-- 0&#45;&gt;2 -->
<g id="edge7" class="edge">
<title>0&#45;&gt;2</title>
<path fill="none" stroke="black" d="M601.32,-274.07C608.99,-268.17 616.97,-260.31 621.12,-251 633.62,-222.99 712.77,-417.52 610.12,-95 604.58,-77.59 594.14,-59.94 584.93,-46.48"/>
<polygon fill="black" stroke="black" points="587.76,-44.42 579.12,-38.28 582.05,-48.46 587.76,-44.42"/>
<text text-anchor="middle" x="653.62" y="-152.8" font-family="Times,serif" font-size="14.00">{c0, c1}</text>
</g>
<!-- 0&#45;&gt;2 -->
<g id="edge8" class="edge">
<title>0&#45;&gt;2</title>
<path fill="none" stroke="black" d="M606.54,-279.1C621.57,-273.7 640.19,-264.75 652.12,-251 683,-215.4 696.63,-193.51 681.12,-149 665.03,-102.8 621.94,-63.58 593.59,-41.69"/>
<polygon fill="black" stroke="black" points="595.41,-38.67 585.31,-35.46 591.2,-44.27 595.41,-38.67"/>
<text text-anchor="middle" x="698.62" y="-152.8" font-family="Times,serif" font-size="14.00">{c1}</text>
</g>
<!-- 0&#45;&gt;2 -->
<g id="edge9" class="edge">
<title>0&#45;&gt;2</title>
<path fill="none" stroke="black" d="M607.35,-280.33C626.55,-275.09 652.87,-265.84 672.12,-251 711.23,-220.87 731.87,-195.79 716.12,-149 697.49,-93.65 636.39,-55.71 598.46,-36.83"/>
<polygon fill="black" stroke="black" points="599.89,-33.63 589.36,-32.44 596.85,-39.94 599.89,-33.63"/>
<text text-anchor="middle" x="732.62" y="-152.8" font-family="Times,serif" font-size="14.00">{c0}</text>
</g>
<!-- 1&#45;&gt;1 -->
<g id="edge36" class="edge">
<title>1&#45;&gt;1</title>
<path fill="none" stroke="black" d="M446.66,-207.75C457.63,-208.49 467.12,-205.91 467.12,-200 467.12,-196.03 462.84,-193.56 456.7,-192.59"/>
<polygon fill="black" stroke="black" points="456.77,-189.09 446.66,-192.25 456.53,-196.09 456.77,-189.09"/>
<text text-anchor="middle" x="474.12" y="-196.3" font-family="Times,serif" font-size="14.00">{}</text>
</g>
<!-- 1&#45;&gt;2 -->
<g id="edge39" class="edge">
<title>1&#45;&gt;2</title>
<path fill="none" stroke="black" d="M425.17,-182.04C429.61,-160.49 439.35,-122.75 457.12,-95 468.66,-77 474.41,-73.97 492.12,-62 507.94,-51.31 514.19,-52.82 531.12,-44 533.71,-42.65 536.38,-41.21 539.03,-39.73"/>
<polygon fill="black" stroke="black" points="540.93,-42.68 547.88,-34.68 537.46,-36.6 540.93,-42.68"/>
<text text-anchor="middle" x="470.62" y="-109.3" font-family="Times,serif" font-size="14.00">{c0}</text>
</g>
<!-- 1&#45;&gt;2 -->
<g id="edge40" class="edge">
<title>1&#45;&gt;2</title>
<path fill="none" stroke="black" d="M436.04,-184.46C448.85,-170.91 468.22,-149.98 484.12,-131 507.72,-102.83 533.25,-69.07 549.67,-46.89"/>
<polygon fill="black" stroke="black" points="552.59,-48.83 555.7,-38.7 546.95,-44.67 552.59,-48.83"/>
<text text-anchor="middle" x="525.62" y="-109.3" font-family="Times,serif" font-size="14.00">{c2}</text>
</g>
<!-- 1&#45;&gt;2 -->
<g id="edge41" class="edge">
<title>1&#45;&gt;2</title>
<path fill="none" stroke="black" d="M446.63,-191.94C474.42,-182.63 518.99,-163.5 543.12,-131 560.6,-107.46 565.77,-73.6 567.09,-50.1"/>
<polygon fill="black" stroke="black" points="570.59,-50.22 567.46,-40.1 563.6,-49.96 570.59,-50.22"/>
<text text-anchor="middle" x="582.62" y="-109.3" font-family="Times,serif" font-size="14.00">{c0, c2}</text>
</g>
<!-- 3 -->
<g id="node5" class="node">
<title>3</title>
<ellipse fill="none" stroke="black" cx="261.12" cy="-113" rx="27" ry="18"/>
<text text-anchor="middle" x="261.12" y="-109.3" font-family="Times,serif" font-size="14.00">3</text>
</g>
<!-- 1&#45;&gt;3 -->
<g id="edge34" class="edge">
<title>1&#45;&gt;3</title>
<path fill="none" stroke="black" d="M394.72,-199.46C335.93,-199.8 200.74,-196.9 172.12,-164 153.5,-142.58 193.01,-128.39 225.21,-120.77"/>
<polygon fill="black" stroke="black" points="226.32,-124.11 235.33,-118.53 224.81,-117.28 226.32,-124.11"/>
<text text-anchor="middle" x="205.62" y="-152.8" font-family="Times,serif" font-size="14.00">{c0, c1, c2}</text>
</g>
<!-- 1&#45;&gt;3 -->
<g id="edge35" class="edge">
<title>1&#45;&gt;3</title>
<path fill="none" stroke="black" d="M395.21,-197.05C354.12,-193.45 278.73,-184.21 262.12,-164 256.93,-157.68 255.43,-149.24 255.6,-141.09"/>
<polygon fill="black" stroke="black" points="259.08,-141.41 256.56,-131.12 252.11,-140.74 259.08,-141.41"/>
<text text-anchor="middle" x="275.62" y="-152.8" font-family="Times,serif" font-size="14.00">{c1}</text>
</g>
<!-- 1&#45;&gt;3 -->
<g id="edge37" class="edge">
<title>1&#45;&gt;3</title>
<path fill="none" stroke="black" d="M396.24,-194.34C373,-189.35 338.57,-179.91 312.12,-164 300.34,-156.91 289.19,-146.57 280.34,-137.14"/>
<polygon fill="black" stroke="black" points="282.77,-134.61 273.48,-129.51 277.57,-139.29 282.77,-134.61"/>
<text text-anchor="middle" x="335.62" y="-152.8" font-family="Times,serif" font-size="14.00">{c0, c1}</text>
</g>
<!-- 1&#45;&gt;3 -->
<g id="edge38" class="edge">
<title>1&#45;&gt;3</title>
<path fill="none" stroke="black" d="M407.1,-184.72C394.93,-173.77 376.95,-158.9 359.12,-149 339.08,-137.87 314.83,-129.18 295.47,-123.24"/>
<polygon fill="black" stroke="black" points="296.42,-119.87 285.84,-120.38 294.43,-126.58 296.42,-119.87"/>
<text text-anchor="middle" x="405.62" y="-152.8" font-family="Times,serif" font-size="14.00">{c1, c2}</text>
</g>
<!-- 2&#45;&gt;2 -->
<g id="edge26" class="edge">
<title>2&#45;&gt;2</title>
<path fill="none" stroke="black" d="M594.36,-23.5C604.15,-23.53 612.12,-23.03 612.12,-22 612.12,-21.37 609.16,-20.94 604.63,-20.71"/>
<polygon fill="black" stroke="black" points="604.43,-17.2 594.36,-20.5 604.29,-24.2 604.43,-17.2"/>
<text text-anchor="middle" x="635.62" y="-18.3" font-family="Times,serif" font-size="14.00">{c0, c1}</text>
</g>
<!-- 2&#45;&gt;2 -->
<g id="edge27" class="edge">
<title>2&#45;&gt;2</title>
<path fill="none" stroke="black" d="M594.02,-24.43C622.45,-25.68 659.12,-24.87 659.12,-22 659.12,-19.46 630.54,-18.53 604.28,-19.22"/>
<polygon fill="black" stroke="black" points="603.89,-15.73 594.02,-19.57 604.13,-22.72 603.89,-15.73"/>
<text text-anchor="middle" x="692.62" y="-18.3" font-family="Times,serif" font-size="14.00">{c0, c1, c2}</text>
</g>
<!-- 2&#45;&gt;2 -->
<g id="edge28" class="edge">
<title>2&#45;&gt;2</title>
<path fill="none" stroke="black" d="M593.89,-24.87C641.48,-27.76 726.12,-26.8 726.12,-22 726.12,-17.52 652.66,-16.39 604.13,-18.59"/>
<polygon fill="black" stroke="black" points="603.69,-15.11 593.89,-19.13 604.06,-22.1 603.69,-15.11"/>
<text text-anchor="middle" x="733.12" y="-18.3" font-family="Times,serif" font-size="14.00">{}</text>
</g>
<!-- 2&#45;&gt;2 -->
<g id="edge29" class="edge">
<title>2&#45;&gt;2</title>
<path fill="none" stroke="black" d="M593.81,-25.51C646.76,-29.75 744.12,-28.58 744.12,-22 744.12,-15.82 658.2,-14.41 603.88,-17.78"/>
<polygon fill="black" stroke="black" points="603.54,-14.3 593.81,-18.49 604.03,-21.28 603.54,-14.3"/>
<text text-anchor="middle" x="757.62" y="-18.3" font-family="Times,serif" font-size="14.00">{c1}</text>
</g>
<!-- 2&#45;&gt;2 -->
<g id="edge30" class="edge">
<title>2&#45;&gt;2</title>
<path fill="none" stroke="black" d="M593.52,-25.96C653.66,-31.76 771.12,-30.44 771.12,-22 771.12,-14.01 665.72,-12.4 603.49,-17.19"/>
<polygon fill="black" stroke="black" points="603.19,-13.7 593.52,-18.04 603.79,-20.67 603.19,-13.7"/>
<text text-anchor="middle" x="784.62" y="-18.3" font-family="Times,serif" font-size="14.00">{c0}</text>
</g>
<!-- 2&#45;&gt;2 -->
<g id="edge31" class="edge">
<title>2&#45;&gt;2</title>
<path fill="none" stroke="black" d="M593.56,-26.35C660.76,-33.76 798.12,-32.31 798.12,-22 798.12,-12.19 673.85,-10.4 603.88,-16.63"/>
<polygon fill="black" stroke="black" points="603.17,-13.18 593.56,-17.65 603.86,-20.15 603.17,-13.18"/>
<text text-anchor="middle" x="811.62" y="-18.3" font-family="Times,serif" font-size="14.00">{c2}</text>
</g>
<!-- 2&#45;&gt;2 -->
<g id="edge32" class="edge">
<title>2&#45;&gt;2</title>
<path fill="none" stroke="black" d="M593.35,-26.66C667.35,-35.77 825.12,-34.22 825.12,-22 825.12,-10.3 680.61,-8.38 603.33,-16.23"/>
<polygon fill="black" stroke="black" points="602.9,-12.76 593.35,-17.34 603.67,-19.71 602.9,-12.76"/>
<text text-anchor="middle" x="848.62" y="-18.3" font-family="Times,serif" font-size="14.00">{c0, c2}</text>
</g>
<!-- 2&#45;&gt;2 -->
<g id="edge33" class="edge">
<title>2&#45;&gt;2</title>
<path fill="none" stroke="black" d="M593.21,-26.82C677.13,-37.79 872.12,-36.19 872.12,-22 872.12,-8.35 691.7,-6.35 603.26,-15.98"/>
<polygon fill="black" stroke="black" points="602.73,-12.52 593.21,-17.18 603.55,-19.47 602.73,-12.52"/>
<text text-anchor="middle" x="895.62" y="-18.3" font-family="Times,serif" font-size="14.00">{c1, c2}</text>
</g>
<!-- 3&#45;&gt;2 -->
<g id="edge15" class="edge">
<title>3&#45;&gt;2</title>
<path fill="none" stroke="black" d="M264.37,-94.71C267.45,-83.46 273.29,-69.51 284.12,-62 329.35,-30.64 478.55,-60.29 531.12,-44 534.14,-43.07 537.17,-41.84 540.12,-40.45"/>
<polygon fill="black" stroke="black" points="542.02,-43.41 549.19,-35.61 538.72,-37.23 542.02,-43.41"/>
<text text-anchor="middle" x="297.62" y="-65.8" font-family="Times,serif" font-size="14.00">{c1}</text>
</g>
<!-- 3&#45;&gt;2 -->
<g id="edge16" class="edge">
<title>3&#45;&gt;2</title>
<path fill="none" stroke="black" d="M279.26,-99.24C299.87,-84.79 331.05,-63.11 334.12,-62 416.84,-32.2 447.38,-70.79 531.12,-44 534.13,-43.04 537.15,-41.8 540.1,-40.4"/>
<polygon fill="black" stroke="black" points="542.01,-43.35 549.17,-35.54 538.7,-37.18 542.01,-43.35"/>
<text text-anchor="middle" x="347.62" y="-65.8" font-family="Times,serif" font-size="14.00">{c2}</text>
</g>
<!-- 3&#45;&gt;2 -->
<g id="edge17" class="edge">
<title>3&#45;&gt;2</title>
<path fill="none" stroke="black" d="M285.63,-105.23C306.29,-99.1 336.37,-89.18 361.12,-77 372.07,-71.61 372.66,-66.18 384.12,-62 445.96,-39.44 468.75,-65.01 531.12,-44 534.05,-43.02 536.99,-41.78 539.88,-40.4"/>
<polygon fill="black" stroke="black" points="541.6,-43.44 548.76,-35.64 538.29,-37.27 541.6,-43.44"/>
<text text-anchor="middle" x="407.62" y="-65.8" font-family="Times,serif" font-size="14.00">{c1, c2}</text>
</g>
<!-- 3&#45;&gt;3 -->
<g id="edge14" class="edge">
<title>3&#45;&gt;3</title>
<path fill="none" stroke="black" d="M285.66,-120.75C296.63,-121.49 306.12,-118.91 306.12,-113 306.12,-109.03 301.84,-106.56 295.7,-105.59"/>
<polygon fill="black" stroke="black" points="295.77,-102.09 285.66,-105.25 295.53,-109.09 295.77,-102.09"/>
<text text-anchor="middle" x="313.12" y="-109.3" font-family="Times,serif" font-size="14.00">{}</text>
</g>
<!-- 4 -->
<g id="node6" class="node">
<title>4</title>
<ellipse fill="none" stroke="black" cx="53.12" cy="-22" rx="18" ry="18"/>
<ellipse fill="none" stroke="black" cx="53.12" cy="-22" rx="22" ry="22"/>
<text text-anchor="middle" x="53.12" y="-18.3" font-family="Times,serif" font-size="14.00">4</text>
</g>
<!-- 3&#45;&gt;4 -->
<g id="edge10" class="edge">
<title>3&#45;&gt;4</title>
<path fill="none" stroke="black" d="M233.86,-112.58C173.94,-113.2 33.74,-110.92 4.12,-77 -7.57,-63.6 8.33,-48.64 25.06,-37.87"/>
<polygon fill="black" stroke="black" points="26.98,-40.81 33.74,-32.65 23.37,-34.81 26.98,-40.81"/>
<text text-anchor="middle" x="17.62" y="-65.8" font-family="Times,serif" font-size="14.00">{c0}</text>
</g>
<!-- 3&#45;&gt;4 -->
<g id="edge11" class="edge">
<title>3&#45;&gt;4</title>
<path fill="none" stroke="black" d="M233.85,-111.53C183.07,-110.01 77.07,-103.65 54.12,-77 48.6,-70.58 46.85,-61.98 46.89,-53.52"/>
<polygon fill="black" stroke="black" points="50.39,-53.69 47.71,-43.44 43.41,-53.13 50.39,-53.69"/>
<text text-anchor="middle" x="77.62" y="-65.8" font-family="Times,serif" font-size="14.00">{c0, c2}</text>
</g>
<!-- 3&#45;&gt;4 -->
<g id="edge12" class="edge">
<title>3&#45;&gt;4</title>
<path fill="none" stroke="black" d="M234.81,-108.48C206.4,-103.96 160.37,-94.52 124.12,-77 114.39,-72.29 94.14,-56.65 77.76,-43.41"/>
<polygon fill="black" stroke="black" points="79.57,-40.37 69.61,-36.77 75.15,-45.8 79.57,-40.37"/>
<text text-anchor="middle" x="147.62" y="-65.8" font-family="Times,serif" font-size="14.00">{c0, c1}</text>
</g>
<!-- 3&#45;&gt;4 -->
<g id="edge13" class="edge">
<title>3&#45;&gt;4</title>
<path fill="none" stroke="black" d="M240.02,-101.63C226.68,-94.92 209.19,-85.82 194.12,-77 183.59,-70.83 182.12,-67.29 171.12,-62 142.88,-48.41 108.7,-37.69 84.41,-30.95"/>
<polygon fill="black" stroke="black" points="85.22,-27.54 74.66,-28.31 83.4,-34.3 85.22,-27.54"/>
<text text-anchor="middle" x="227.62" y="-65.8" font-family="Times,serif" font-size="14.00">{c0, c1, c2}</text>
</g>
<!-- 4&#45;&gt;4 -->
<g id="edge18" class="edge">
<title>4&#45;&gt;4</title>
<path fill="none" stroke="black" d="M75.34,-23.48C84.92,-23.6 93.12,-23.11 93.12,-22 93.12,-21.32 90.08,-20.88 85.53,-20.66"/>
<polygon fill="black" stroke="black" points="85.38,-17.16 75.34,-20.52 85.29,-24.15 85.38,-17.16"/>
<text text-anchor="middle" x="116.62" y="-18.3" font-family="Times,serif" font-size="14.00">{c0, c1}</text>
</g>
<!-- 4&#45;&gt;4 -->
<g id="edge19" class="edge">
<title>4&#45;&gt;4</title>
<path fill="none" stroke="black" d="M75.3,-24.27C102.46,-25.74 140.12,-24.98 140.12,-22 140.12,-19.38 111.03,-18.47 85.54,-19.29"/>
<polygon fill="black" stroke="black" points="85.14,-15.8 75.3,-19.73 85.44,-22.8 85.14,-15.8"/>
<text text-anchor="middle" x="163.62" y="-18.3" font-family="Times,serif" font-size="14.00">{c1, c2}</text>
</g>
<!-- 4&#45;&gt;4 -->
<g id="edge20" class="edge">
<title>4&#45;&gt;4</title>
<path fill="none" stroke="black" d="M75.19,-24.76C115.73,-27.78 187.12,-26.86 187.12,-22 187.12,-17.52 126.45,-16.38 85.21,-18.6"/>
<polygon fill="black" stroke="black" points="84.95,-15.11 75.19,-19.24 85.39,-22.1 84.95,-15.11"/>
<text text-anchor="middle" x="210.62" y="-18.3" font-family="Times,serif" font-size="14.00">{c0, c2}</text>
</g>
<!-- 4&#45;&gt;4 -->
<g id="edge21" class="edge">
<title>4&#45;&gt;4</title>
<path fill="none" stroke="black" d="M75.1,-25.13C127.08,-29.81 234.12,-28.77 234.12,-22 234.12,-15.64 139.65,-14.34 85.11,-18.08"/>
<polygon fill="black" stroke="black" points="84.79,-14.6 75.1,-18.87 85.34,-21.57 84.79,-14.6"/>
<text text-anchor="middle" x="247.62" y="-18.3" font-family="Times,serif" font-size="14.00">{c1}</text>
</g>
<!-- 4&#45;&gt;4 -->
<g id="edge22" class="edge">
<title>4&#45;&gt;4</title>
<path fill="none" stroke="black" d="M75.14,-25.54C133.93,-31.81 261.12,-30.63 261.12,-22 261.12,-13.84 147.46,-12.34 85.36,-17.5"/>
<polygon fill="black" stroke="black" points="84.76,-14.04 75.14,-18.46 85.42,-21.01 84.76,-14.04"/>
<text text-anchor="middle" x="268.12" y="-18.3" font-family="Times,serif" font-size="14.00">{}</text>
</g>
<!-- 4&#45;&gt;4 -->
<g id="edge23" class="edge">
<title>4&#45;&gt;4</title>
<path fill="none" stroke="black" d="M74.85,-25.88C138.64,-33.82 279.12,-32.52 279.12,-22 279.12,-12.01 152.55,-10.34 85.13,-16.98"/>
<polygon fill="black" stroke="black" points="84.4,-13.54 74.85,-18.12 85.17,-20.49 84.4,-13.54"/>
<text text-anchor="middle" x="292.62" y="-18.3" font-family="Times,serif" font-size="14.00">{c2}</text>
</g>
<!-- 4&#45;&gt;4 -->
<g id="edge24" class="edge">
<title>4&#45;&gt;4</title>
<path fill="none" stroke="black" d="M74.84,-26.16C145.28,-35.83 306.12,-34.44 306.12,-22 306.12,-10.12 159.41,-8.32 84.86,-16.61"/>
<polygon fill="black" stroke="black" points="84.34,-13.15 74.84,-17.84 85.2,-20.09 84.34,-13.15"/>
<text text-anchor="middle" x="319.62" y="-18.3" font-family="Times,serif" font-size="14.00">{c0}</text>
</g>
<!-- 4&#45;&gt;4 -->
<g id="edge25" class="edge">
<title>4&#45;&gt;4</title>
<path fill="none" stroke="black" d="M74.81,-26.38C151.78,-37.83 333.12,-36.38 333.12,-22 333.12,-8.21 166.35,-6.31 84.79,-16.28"/>
<polygon fill="black" stroke="black" points="84.25,-12.82 74.81,-17.62 85.19,-19.75 84.25,-12.82"/>
<text text-anchor="middle" x="366.62" y="-18.3" font-family="Times,serif" font-size="14.00">{c0, c1, c2}</text>
</g>
</g>
</svg>
