<?xml version="1.0" encoding="UTF-8" standalone="no"?>
<!DOCTYPE svg PUBLIC "-//W3C//DTD SVG 1.1//EN"
 "http://www.w3.org/Graphics/SVG/1.1/DTD/svg11.dtd">
<!-- Generated by graphviz version 2.43.0 (0)
 -->
<!-- Title: %3 Pages: 1 -->
<svg width="1074pt" height="386pt"
 viewBox="0.00 0.00 1073.66 386.00" xmlns="http://www.w3.org/2000/svg" xmlns:xlink="http://www.w3.org/1999/xlink">
<g id="graph0" class="graph" transform="scale(1 1) rotate(0) translate(4 382)">
<title>%3</title>
<polygon fill="white" stroke="transparent" points="-4,4 -4,-382 1069.66,-382 1069.66,4 -4,4"/>
<!-- fake -->
<g id="node1" class="node">
<title>fake</title>
</g>
<!-- 0 -->
<g id="node2" class="node">
<title>0</title>
<ellipse fill="none" stroke="black" cx="584.66" cy="-287" rx="27" ry="18"/>
<text text-anchor="middle" x="584.66" y="-283.3" font-family="Times,serif" font-size="14.00">0</text>
</g>
<!-- fake&#45;&gt;0 -->
<g id="edge1" class="edge">
<title>fake&#45;&gt;0</title>
<path fill="none" stroke="black" stroke-width="2" d="M584.66,-341.81C584.66,-333.79 584.66,-324.05 584.66,-315.07"/>
<polygon fill="black" stroke="black" stroke-width="2" points="588.16,-315.03 584.66,-305.03 581.16,-315.03 588.16,-315.03"/>
</g>
<!-- 0&#45;&gt;0 -->
<g id="edge12" class="edge">
<title>0&#45;&gt;0</title>
<path fill="none" stroke="black" d="M610.1,-293.69C620.69,-294.15 629.66,-291.92 629.66,-287 629.66,-283.77 625.8,-281.7 620.15,-280.79"/>
<polygon fill="black" stroke="black" points="620.26,-277.29 610.1,-280.31 619.93,-284.28 620.26,-277.29"/>
<text text-anchor="middle" x="636.66" y="-283.3" font-family="Times,serif" font-size="14.00">{}</text>
</g>
<!-- 1 -->
<g id="node3" class="node">
<title>1</title>
<ellipse fill="none" stroke="black" cx="444.66" cy="-200" rx="27" ry="18"/>
<text text-anchor="middle" x="444.66" y="-196.3" font-family="Times,serif" font-size="14.00">1</text>
</g>
<!-- 0&#45;&gt;1 -->
<g id="edge10" class="edge">
<title>0&#45;&gt;1</title>
<path fill="none" stroke="black" d="M557.48,-285.62C506.3,-284.26 398.66,-278.17 375.66,-251 361.55,-234.33 386.67,-220.25 410.46,-211.33"/>
<polygon fill="black" stroke="black" points="411.84,-214.55 420.11,-207.94 409.52,-207.95 411.84,-214.55"/>
<text text-anchor="middle" x="399.16" y="-239.8" font-family="Times,serif" font-size="14.00">{c0, c2}</text>
</g>
<!-- 0&#45;&gt;1 -->
<g id="edge11" class="edge">
<title>0&#45;&gt;1</title>
<path fill="none" stroke="black" d="M558.26,-283.14C521.96,-278.6 459.53,-268.43 445.66,-251 440.57,-244.6 439.09,-236.14 439.25,-228"/>
<polygon fill="black" stroke="black" points="442.74,-228.32 440.19,-218.04 435.77,-227.67 442.74,-228.32"/>
<text text-anchor="middle" x="479.16" y="-239.8" font-family="Times,serif" font-size="14.00">{c0, c1, c2}</text>
</g>
<!-- 0&#45;&gt;1 -->
<g id="edge13" class="edge">
<title>0&#45;&gt;1</title>
<path fill="none" stroke="black" d="M566.94,-273.3C549.25,-260.69 523.23,-242.35 512.66,-236 500.72,-228.82 487.14,-221.65 475.27,-215.68"/>
<polygon fill="black" stroke="black" points="476.7,-212.48 466.19,-211.18 473.59,-218.75 476.7,-212.48"/>
<text text-anchor="middle" x="547.16" y="-239.8" font-family="Times,serif" font-size="14.00">{c2}</text>
</g>
<!-- 0&#45;&gt;1 -->
<g id="edge14" class="edge">
<title>0&#45;&gt;1</title>
<path fill="none" stroke="black" d="M581.07,-268.96C577.94,-258.11 572.34,-244.53 562.66,-236 540.26,-216.26 507.15,-207.64 481.7,-203.88"/>
<polygon fill="black" stroke="black" points="482.03,-200.4 471.67,-202.59 481.14,-207.34 482.03,-200.4"/>
<text text-anchor="middle" x="596.16" y="-239.8" font-family="Times,serif" font-size="14.00">{c1, c2}</text>
</g>
<!-- 2 -->
<g id="node4" class="node">
<title>2</title>
<ellipse fill="none" stroke="black" cx="591.66" cy="-22" rx="27" ry="18"/>
<text text-anchor="middle" x="591.66" y="-18.3" font-family="Times,serif" font-size="14.00">2</text>
</g>
<!-- 0&#45;&gt;2 -->
<g id="edge15" class="edge">
<title>0&#45;&gt;2</title>
<path fill="none" stroke="black" d="M603.86,-274.07C611.53,-268.17 619.51,-260.31 623.66,-251 626.38,-244.91 623.87,-242.66 623.66,-236 621.66,-173.24 626.3,-156.71 614.66,-95 611.73,-79.48 606.48,-62.65 601.73,-49.16"/>
<polygon fill="black" stroke="black" points="604.95,-47.78 598.24,-39.57 598.37,-50.17 604.95,-47.78"/>
<text text-anchor="middle" x="636.16" y="-152.8" font-family="Times,serif" font-size="14.00">{c0}</text>
</g>
<!-- 0&#45;&gt;2 -->
<g id="edge16" class="edge">
<title>0&#45;&gt;2</title>
<path fill="none" stroke="black" d="M606.92,-276.49C617.85,-270.69 630.24,-262.22 637.66,-251 662.98,-212.73 661.71,-194.18 653.66,-149 646.44,-108.44 641.56,-98.07 621.66,-62 618.65,-56.54 614.91,-51.02 611.11,-45.92"/>
<polygon fill="black" stroke="black" points="613.69,-43.53 604.77,-37.82 608.18,-47.85 613.69,-43.53"/>
<text text-anchor="middle" x="679.16" y="-152.8" font-family="Times,serif" font-size="14.00">{c0, c1}</text>
</g>
<!-- 0&#45;&gt;2 -->
<g id="edge17" class="edge">
<title>0&#45;&gt;2</title>
<path fill="none" stroke="black" d="M608.48,-278.28C623.36,-272.54 642.18,-263.54 655.66,-251 688.48,-220.47 694.92,-207.25 706.66,-164 721.41,-109.67 659.89,-62.65 621.15,-39.1"/>
<polygon fill="black" stroke="black" points="622.71,-35.95 612.32,-33.89 619.16,-41.98 622.71,-35.95"/>
<text text-anchor="middle" x="722.16" y="-152.8" font-family="Times,serif" font-size="14.00">{c1}</text>
</g>
<!-- 1&#45;&gt;1 -->
<g id="edge21" class="edge">
<title>1&#45;&gt;1</title>
<path fill="none" stroke="black" d="M469.19,-207.75C480.17,-208.49 489.66,-205.91 489.66,-200 489.66,-196.03 485.38,-193.56 479.24,-192.59"/>
<polygon fill="black" stroke="black" points="479.31,-189.09 469.19,-192.25 479.07,-196.09 479.31,-189.09"/>
<text text-anchor="middle" x="496.66" y="-196.3" font-family="Times,serif" font-size="14.00">{}</text>
</g>
<!-- 1&#45;&gt;2 -->
<g id="edge23" class="edge">
<title>1&#45;&gt;2</title>
<path fill="none" stroke="black" d="M442.88,-181.96C441.47,-159.98 442.09,-121.43 459.66,-95 486.41,-54.77 512.61,-65.92 555.66,-44 558.26,-42.68 560.93,-41.25 563.59,-39.78"/>
<polygon fill="black" stroke="black" points="565.49,-42.73 572.46,-34.75 562.03,-36.65 565.49,-42.73"/>
<text text-anchor="middle" x="483.16" y="-109.3" font-family="Times,serif" font-size="14.00">{c0, c2}</text>
</g>
<!-- 1&#45;&gt;2 -->
<g id="edge24" class="edge">
<title>1&#45;&gt;2</title>
<path fill="none" stroke="black" d="M458.52,-184.42C471.3,-170.83 490.65,-149.89 506.66,-131 530.77,-102.56 557.11,-68.6 573.98,-46.46"/>
<polygon fill="black" stroke="black" points="576.91,-48.38 580.17,-38.3 571.34,-44.15 576.91,-48.38"/>
<text text-anchor="middle" x="549.16" y="-109.3" font-family="Times,serif" font-size="14.00">{c0}</text>
</g>
<!-- 1&#45;&gt;2 -->
<g id="edge25" class="edge">
<title>1&#45;&gt;2</title>
<path fill="none" stroke="black" d="M469.32,-191.96C497.28,-182.67 542.17,-163.56 566.66,-131 584.32,-107.53 589.81,-73.65 591.36,-50.13"/>
<polygon fill="black" stroke="black" points="594.86,-50.27 591.83,-40.12 587.87,-49.94 594.86,-50.27"/>
<text text-anchor="middle" x="597.16" y="-109.3" font-family="Times,serif" font-size="14.00">{c2}</text>
</g>
<!-- 3 -->
<g id="node5" class="node">
<title>3</title>
<ellipse fill="none" stroke="black" cx="263.66" cy="-113" rx="27" ry="18"/>
<text text-anchor="middle" x="263.66" y="-109.3" font-family="Times,serif" font-size="14.00">3</text>
</g>
<!-- 1&#45;&gt;3 -->
<g id="edge18" class="edge">
<title>1&#45;&gt;3</title>
<path fill="none" stroke="black" d="M417.74,-197.5C352.58,-193.58 190.57,-182.11 174.66,-164 155.92,-142.68 195.47,-128.46 227.7,-120.81"/>
<polygon fill="black" stroke="black" points="228.83,-124.15 237.83,-118.56 227.31,-117.31 228.83,-124.15"/>
<text text-anchor="middle" x="208.16" y="-152.8" font-family="Times,serif" font-size="14.00">{c0, c1, c2}</text>
</g>
<!-- 1&#45;&gt;3 -->
<g id="edge19" class="edge">
<title>1&#45;&gt;3</title>
<path fill="none" stroke="black" d="M417.75,-197.77C372.44,-195.08 283.98,-186.96 264.66,-164 259.4,-157.74 257.87,-149.32 258.05,-141.17"/>
<polygon fill="black" stroke="black" points="261.53,-141.47 259.02,-131.18 254.57,-140.79 261.53,-141.47"/>
<text text-anchor="middle" x="288.16" y="-152.8" font-family="Times,serif" font-size="14.00">{c0, c1}</text>
</g>
<!-- 1&#45;&gt;3 -->
<g id="edge20" class="edge">
<title>1&#45;&gt;3</title>
<path fill="none" stroke="black" d="M419.35,-193.29C396.5,-187.6 362.3,-177.72 334.66,-164 329.82,-161.59 308.09,-146.17 289.93,-133.08"/>
<polygon fill="black" stroke="black" points="291.55,-129.93 281.39,-126.91 287.45,-135.61 291.55,-129.93"/>
<text text-anchor="middle" x="348.16" y="-152.8" font-family="Times,serif" font-size="14.00">{c1}</text>
</g>
<!-- 1&#45;&gt;3 -->
<g id="edge22" class="edge">
<title>1&#45;&gt;3</title>
<path fill="none" stroke="black" d="M424.79,-187.74C413.03,-180.99 397.9,-172.17 384.66,-164 374.28,-157.59 372.59,-154.42 361.66,-149 341.13,-138.81 316.87,-130.13 297.63,-123.96"/>
<polygon fill="black" stroke="black" points="298.66,-120.61 288.07,-120.96 296.57,-127.29 298.66,-120.61"/>
<text text-anchor="middle" x="408.16" y="-152.8" font-family="Times,serif" font-size="14.00">{c1, c2}</text>
</g>
<!-- 2&#45;&gt;2 -->
<g id="edge34" class="edge">
<title>2&#45;&gt;2</title>
<path fill="none" stroke="black" d="M618.9,-23.5C628.68,-23.53 636.66,-23.03 636.66,-22 636.66,-21.37 633.7,-20.94 629.17,-20.71"/>
<polygon fill="black" stroke="black" points="628.97,-17.2 618.9,-20.5 628.83,-24.2 628.97,-17.2"/>
<text text-anchor="middle" x="660.16" y="-18.3" font-family="Times,serif" font-size="14.00">{c0, c2}</text>
</g>
<!-- 2&#45;&gt;2 -->
<g id="edge35" class="edge">
<title>2&#45;&gt;2</title>
<path fill="none" stroke="black" d="M618.55,-24.43C646.98,-25.68 683.66,-24.87 683.66,-22 683.66,-19.46 655.08,-18.53 628.82,-19.22"/>
<polygon fill="black" stroke="black" points="628.43,-15.73 618.55,-19.57 628.67,-22.72 628.43,-15.73"/>
<text text-anchor="middle" x="707.16" y="-18.3" font-family="Times,serif" font-size="14.00">{c1, c2}</text>
</g>
<!-- 2&#45;&gt;2 -->
<g id="edge36" class="edge">
<title>2&#45;&gt;2</title>
<path fill="none" stroke="black" d="M618.56,-25.02C661.27,-27.73 730.66,-26.72 730.66,-22 730.66,-17.64 671.44,-16.45 628.74,-18.43"/>
<polygon fill="black" stroke="black" points="628.36,-14.94 618.56,-18.98 628.74,-21.93 628.36,-14.94"/>
<text text-anchor="middle" x="744.16" y="-18.3" font-family="Times,serif" font-size="14.00">{c0}</text>
</g>
<!-- 2&#45;&gt;2 -->
<g id="edge37" class="edge">
<title>2&#45;&gt;2</title>
<path fill="none" stroke="black" d="M618.15,-25.57C668.59,-29.74 757.66,-28.55 757.66,-22 757.66,-15.88 679.7,-14.44 628.35,-17.69"/>
<polygon fill="black" stroke="black" points="627.87,-14.22 618.15,-18.43 628.37,-21.2 627.87,-14.22"/>
<text text-anchor="middle" x="781.16" y="-18.3" font-family="Times,serif" font-size="14.00">{c0, c1}</text>
</g>
<!-- 2&#45;&gt;2 -->
<g id="edge38" class="edge">
<title>2&#45;&gt;2</title>
<path fill="none" stroke="black" d="M618.22,-25.91C680.21,-31.76 804.66,-30.46 804.66,-22 804.66,-13.99 692.99,-12.4 628.52,-17.22"/>
<polygon fill="black" stroke="black" points="627.89,-13.76 618.22,-18.09 628.48,-20.74 627.89,-13.76"/>
<text text-anchor="middle" x="818.16" y="-18.3" font-family="Times,serif" font-size="14.00">{c2}</text>
</g>
<!-- 2&#45;&gt;2 -->
<g id="edge39" class="edge">
<title>2&#45;&gt;2</title>
<path fill="none" stroke="black" d="M618.12,-26.3C686.99,-33.77 831.66,-32.34 831.66,-22 831.66,-12.15 700.24,-10.38 628.28,-16.71"/>
<polygon fill="black" stroke="black" points="627.73,-13.25 618.12,-17.7 628.41,-20.21 627.73,-13.25"/>
<text text-anchor="middle" x="838.66" y="-18.3" font-family="Times,serif" font-size="14.00">{}</text>
</g>
<!-- 2&#45;&gt;2 -->
<g id="edge40" class="edge">
<title>2&#45;&gt;2</title>
<path fill="none" stroke="black" d="M617.88,-26.66C691.88,-35.77 849.66,-34.22 849.66,-22 849.66,-10.3 705.15,-8.38 627.87,-16.23"/>
<polygon fill="black" stroke="black" points="627.43,-12.76 617.88,-17.34 628.21,-19.71 627.43,-12.76"/>
<text text-anchor="middle" x="863.16" y="-18.3" font-family="Times,serif" font-size="14.00">{c1}</text>
</g>
<!-- 2&#45;&gt;2 -->
<g id="edge41" class="edge">
<title>2&#45;&gt;2</title>
<path fill="none" stroke="black" d="M617.83,-26.93C698.57,-37.78 876.66,-36.14 876.66,-22 876.66,-8.43 712.55,-6.37 627.98,-15.83"/>
<polygon fill="black" stroke="black" points="627.33,-12.38 617.83,-17.07 628.19,-19.33 627.33,-12.38"/>
<text text-anchor="middle" x="910.16" y="-18.3" font-family="Times,serif" font-size="14.00">{c0, c1, c2}</text>
</g>
<!-- 3&#45;&gt;2 -->
<g id="edge31" class="edge">
<title>3&#45;&gt;2</title>
<path fill="none" stroke="black" d="M266.19,-94.73C268.81,-83.49 274.08,-69.55 284.66,-62 333.79,-26.94 497.95,-61.67 555.66,-44 558.68,-43.08 561.71,-41.86 564.67,-40.47"/>
<polygon fill="black" stroke="black" points="566.56,-43.43 573.74,-35.63 563.26,-37.25 566.56,-43.43"/>
<text text-anchor="middle" x="308.16" y="-65.8" font-family="Times,serif" font-size="14.00">{c1, c2}</text>
</g>
<!-- 3&#45;&gt;2 -->
<g id="edge32" class="edge">
<title>3&#45;&gt;2</title>
<path fill="none" stroke="black" d="M285.1,-101.67C298.64,-94.98 316.39,-85.88 331.66,-77 342.21,-70.87 343.13,-66 354.66,-62 439.41,-32.63 470.21,-71.25 555.66,-44 558.67,-43.04 561.69,-41.8 564.64,-40.4"/>
<polygon fill="black" stroke="black" points="566.55,-43.35 573.71,-35.54 563.24,-37.18 566.55,-43.35"/>
<text text-anchor="middle" x="368.16" y="-65.8" font-family="Times,serif" font-size="14.00">{c2}</text>
</g>
<!-- 3&#45;&gt;2 -->
<g id="edge33" class="edge">
<title>3&#45;&gt;2</title>
<path fill="none" stroke="black" d="M289.29,-106.66C313.73,-101.05 351.21,-91.08 381.66,-77 392.74,-71.88 393.19,-66.16 404.66,-62 468.19,-38.93 491.58,-65.48 555.66,-44 558.65,-43 561.67,-41.73 564.61,-40.31"/>
<polygon fill="black" stroke="black" points="566.53,-43.25 573.67,-35.43 563.21,-37.09 566.53,-43.25"/>
<text text-anchor="middle" x="418.16" y="-65.8" font-family="Times,serif" font-size="14.00">{c1}</text>
</g>
<!-- 3&#45;&gt;3 -->
<g id="edge27" class="edge">
<title>3&#45;&gt;3</title>
<path fill="none" stroke="black" d="M288.19,-120.75C299.17,-121.49 308.66,-118.91 308.66,-113 308.66,-109.03 304.38,-106.56 298.24,-105.59"/>
<polygon fill="black" stroke="black" points="298.31,-102.09 288.19,-105.25 298.07,-109.09 298.31,-102.09"/>
<text text-anchor="middle" x="315.66" y="-109.3" font-family="Times,serif" font-size="14.00">{}</text>
</g>
<!-- 4 -->
<g id="node6" class="node">
<title>4</title>
<ellipse fill="none" stroke="black" cx="77.66" cy="-22" rx="18" ry="18"/>
<ellipse fill="none" stroke="black" cx="77.66" cy="-22" rx="22" ry="22"/>
<text text-anchor="middle" x="77.66" y="-18.3" font-family="Times,serif" font-size="14.00">4</text>
</g>
<!-- 3&#45;&gt;4 -->
<g id="edge26" class="edge">
<title>3&#45;&gt;4</title>
<path fill="none" stroke="black" d="M236.64,-112.61C176.51,-113.32 34.59,-111.25 4.66,-77 -11.88,-58.08 20.49,-41.78 47.27,-32.18"/>
<polygon fill="black" stroke="black" points="48.44,-35.48 56.78,-28.95 46.19,-28.85 48.44,-35.48"/>
<text text-anchor="middle" x="38.16" y="-65.8" font-family="Times,serif" font-size="14.00">{c0, c1, c2}</text>
</g>
<!-- 3&#45;&gt;4 -->
<g id="edge28" class="edge">
<title>3&#45;&gt;4</title>
<path fill="none" stroke="black" d="M236.96,-109.74C194.75,-105.64 115.28,-95.64 94.66,-77 88.06,-71.03 84,-62.53 81.51,-54.03"/>
<polygon fill="black" stroke="black" points="84.9,-53.17 79.25,-44.21 78.08,-54.74 84.9,-53.17"/>
<text text-anchor="middle" x="118.16" y="-65.8" font-family="Times,serif" font-size="14.00">{c0, c2}</text>
</g>
<!-- 3&#45;&gt;4 -->
<g id="edge29" class="edge">
<title>3&#45;&gt;4</title>
<path fill="none" stroke="black" d="M239,-105.07C218.56,-98.91 189.01,-89.03 164.66,-77 153.72,-71.59 151.98,-68.51 141.66,-62 129.68,-54.44 116.31,-46.26 104.9,-39.35"/>
<polygon fill="black" stroke="black" points="106.61,-36.29 96.24,-34.11 102.99,-42.28 106.61,-36.29"/>
<text text-anchor="middle" x="188.16" y="-65.8" font-family="Times,serif" font-size="14.00">{c0, c1}</text>
</g>
<!-- 3&#45;&gt;4 -->
<g id="edge30" class="edge">
<title>3&#45;&gt;4</title>
<path fill="none" stroke="black" d="M251.47,-96.85C241.77,-85.72 227.27,-71.03 211.66,-62 179.49,-43.39 137.76,-33.08 109.48,-27.8"/>
<polygon fill="black" stroke="black" points="109.8,-24.31 99.34,-26.02 108.59,-31.2 109.8,-24.31"/>
<text text-anchor="middle" x="245.16" y="-65.8" font-family="Times,serif" font-size="14.00">{c0}</text>
</g>
<!-- 4&#45;&gt;4 -->
<g id="edge2" class="edge">
<title>4&#45;&gt;4</title>
<path fill="none" stroke="black" d="M99.87,-23.48C109.46,-23.6 117.66,-23.11 117.66,-22 117.66,-21.32 114.61,-20.88 110.07,-20.66"/>
<polygon fill="black" stroke="black" points="109.92,-17.16 99.87,-20.52 109.82,-24.15 109.92,-17.16"/>
<text text-anchor="middle" x="151.16" y="-18.3" font-family="Times,serif" font-size="14.00">{c0, c1, c2}</text>
</g>
<!-- 4&#45;&gt;4 -->
<g id="edge3" class="edge">
<title>4&#45;&gt;4</title>
<path fill="none" stroke="black" d="M100.01,-24.13C132.75,-25.79 184.66,-25.08 184.66,-22 184.66,-19.22 142.39,-18.37 110.08,-19.45"/>
<polygon fill="black" stroke="black" points="109.85,-15.96 100.01,-19.87 110.14,-22.95 109.85,-15.96"/>
<text text-anchor="middle" x="208.16" y="-18.3" font-family="Times,serif" font-size="14.00">{c1, c2}</text>
</g>
<!-- 4&#45;&gt;4 -->
<g id="edge4" class="edge">
<title>4&#45;&gt;4</title>
<path fill="none" stroke="black" d="M99.66,-24.63C144.67,-27.81 231.66,-26.93 231.66,-22 231.66,-17.41 156.47,-16.33 109.73,-18.76"/>
<polygon fill="black" stroke="black" points="109.43,-15.27 99.66,-19.37 109.85,-22.26 109.43,-15.27"/>
<text text-anchor="middle" x="255.16" y="-18.3" font-family="Times,serif" font-size="14.00">{c0, c1}</text>
</g>
<!-- 4&#45;&gt;4 -->
<g id="edge5" class="edge">
<title>4&#45;&gt;4</title>
<path fill="none" stroke="black" d="M99.75,-25.03C155.63,-29.82 278.66,-28.81 278.66,-22 278.66,-15.57 169.17,-14.31 109.86,-18.21"/>
<polygon fill="black" stroke="black" points="109.46,-14.73 99.75,-18.97 109.98,-21.71 109.46,-14.73"/>
<text text-anchor="middle" x="292.16" y="-18.3" font-family="Times,serif" font-size="14.00">{c1}</text>
</g>
<!-- 4&#45;&gt;4 -->
<g id="edge6" class="edge">
<title>4&#45;&gt;4</title>
<path fill="none" stroke="black" d="M99.42,-25.41C161.63,-31.83 305.66,-30.69 305.66,-22 305.66,-13.75 175.89,-12.31 109.5,-17.67"/>
<polygon fill="black" stroke="black" points="109.06,-14.19 99.42,-18.59 109.7,-21.17 109.06,-14.19"/>
<text text-anchor="middle" x="319.16" y="-18.3" font-family="Times,serif" font-size="14.00">{c0}</text>
</g>
<!-- 4&#45;&gt;4 -->
<g id="edge7" class="edge">
<title>4&#45;&gt;4</title>
<path fill="none" stroke="black" d="M99.67,-25.78C168.43,-33.83 332.66,-32.57 332.66,-22 332.66,-11.93 183.46,-10.31 109.95,-17.15"/>
<polygon fill="black" stroke="black" points="109.26,-13.7 99.67,-18.22 109.98,-20.67 109.26,-13.7"/>
<text text-anchor="middle" x="346.16" y="-18.3" font-family="Times,serif" font-size="14.00">{c2}</text>
</g>
<!-- 4&#45;&gt;4 -->
<g id="edge8" class="edge">
<title>4&#45;&gt;4</title>
<path fill="none" stroke="black" d="M99.39,-26.03C174.3,-35.84 359.66,-34.5 359.66,-22 359.66,-10.04 189.88,-8.3 109.63,-16.77"/>
<polygon fill="black" stroke="black" points="108.91,-13.33 99.39,-17.97 109.73,-20.28 108.91,-13.33"/>
<text text-anchor="middle" x="383.16" y="-18.3" font-family="Times,serif" font-size="14.00">{c0, c2}</text>
</g>
<!-- 4&#45;&gt;4 -->
<g id="edge9" class="edge">
<title>4&#45;&gt;4</title>
<path fill="none" stroke="black" d="M99.39,-26.19C183.35,-37.85 406.66,-36.45 406.66,-22 406.66,-8.1 200.04,-6.27 109.57,-16.53"/>
<polygon fill="black" stroke="black" points="108.87,-13.09 99.39,-17.81 109.75,-20.04 108.87,-13.09"/>
<text text-anchor="middle" x="413.66" y="-18.3" font-family="Times,serif" font-size="14.00">{}</text>
</g>
</g>
</svg>
