<?xml version="1.0" encoding="UTF-8" standalone="no"?>
<!DOCTYPE svg PUBLIC "-//W3C//DTD SVG 1.1//EN"
 "http://www.w3.org/Graphics/SVG/1.1/DTD/svg11.dtd">
<!-- Generated by graphviz version 2.43.0 (0)
 -->
<!-- Title: %3 Pages: 1 -->
<svg width="1049pt" height="386pt"
 viewBox="0.00 0.00 1049.05 386.00" xmlns="http://www.w3.org/2000/svg" xmlns:xlink="http://www.w3.org/1999/xlink">
<g id="graph0" class="graph" transform="scale(1 1) rotate(0) translate(4 382)">
<title>%3</title>
<polygon fill="white" stroke="transparent" points="-4,4 -4,-382 1045.05,-382 1045.05,4 -4,4"/>
<!-- fake -->
<g id="node1" class="node">
<title>fake</title>
</g>
<!-- 0 -->
<g id="node2" class="node">
<title>0</title>
<ellipse fill="none" stroke="black" cx="579.05" cy="-287" rx="27" ry="18"/>
<text text-anchor="middle" x="579.05" y="-283.3" font-family="Times,serif" font-size="14.00">0</text>
</g>
<!-- fake&#45;&gt;0 -->
<g id="edge1" class="edge">
<title>fake&#45;&gt;0</title>
<path fill="none" stroke="black" stroke-width="2" d="M579.05,-341.81C579.05,-333.79 579.05,-324.05 579.05,-315.07"/>
<polygon fill="black" stroke="black" stroke-width="2" points="582.55,-315.03 579.05,-305.03 575.55,-315.03 582.55,-315.03"/>
</g>
<!-- 0&#45;&gt;0 -->
<g id="edge10" class="edge">
<title>0&#45;&gt;0</title>
<path fill="none" stroke="black" d="M604.49,-293.69C615.07,-294.15 624.05,-291.92 624.05,-287 624.05,-283.77 620.18,-281.7 614.53,-280.79"/>
<polygon fill="black" stroke="black" points="614.64,-277.29 604.49,-280.31 614.31,-284.28 614.64,-277.29"/>
<text text-anchor="middle" x="631.05" y="-283.3" font-family="Times,serif" font-size="14.00">{}</text>
</g>
<!-- 1 -->
<g id="node3" class="node">
<title>1</title>
<ellipse fill="none" stroke="black" cx="439.05" cy="-200" rx="27" ry="18"/>
<text text-anchor="middle" x="439.05" y="-196.3" font-family="Times,serif" font-size="14.00">1</text>
</g>
<!-- 0&#45;&gt;1 -->
<g id="edge11" class="edge">
<title>0&#45;&gt;1</title>
<path fill="none" stroke="black" d="M551.87,-285.62C500.68,-284.26 393.04,-278.17 370.05,-251 355.93,-234.33 381.06,-220.25 404.85,-211.33"/>
<polygon fill="black" stroke="black" points="406.22,-214.55 414.5,-207.94 403.9,-207.95 406.22,-214.55"/>
<text text-anchor="middle" x="393.55" y="-239.8" font-family="Times,serif" font-size="14.00">{c0, c1}</text>
</g>
<!-- 0&#45;&gt;1 -->
<g id="edge12" class="edge">
<title>0&#45;&gt;1</title>
<path fill="none" stroke="black" d="M552.65,-283.14C516.35,-278.6 453.91,-268.43 440.05,-251 434.95,-244.6 433.47,-236.14 433.64,-228"/>
<polygon fill="black" stroke="black" points="437.12,-228.32 434.58,-218.04 430.15,-227.67 437.12,-228.32"/>
<text text-anchor="middle" x="473.55" y="-239.8" font-family="Times,serif" font-size="14.00">{c0, c1, c2}</text>
</g>
<!-- 0&#45;&gt;1 -->
<g id="edge13" class="edge">
<title>0&#45;&gt;1</title>
<path fill="none" stroke="black" d="M561.33,-273.3C543.64,-260.69 517.61,-242.35 507.05,-236 495.1,-228.82 481.52,-221.65 469.66,-215.68"/>
<polygon fill="black" stroke="black" points="471.09,-212.48 460.57,-211.18 467.98,-218.75 471.09,-212.48"/>
<text text-anchor="middle" x="541.55" y="-239.8" font-family="Times,serif" font-size="14.00">{c0}</text>
</g>
<!-- 0&#45;&gt;1 -->
<g id="edge14" class="edge">
<title>0&#45;&gt;1</title>
<path fill="none" stroke="black" d="M575.45,-268.96C572.33,-258.11 566.72,-244.53 557.05,-236 534.64,-216.26 501.54,-207.64 476.09,-203.88"/>
<polygon fill="black" stroke="black" points="476.42,-200.4 466.05,-202.59 475.52,-207.34 476.42,-200.4"/>
<text text-anchor="middle" x="590.55" y="-239.8" font-family="Times,serif" font-size="14.00">{c0, c2}</text>
</g>
<!-- 2 -->
<g id="node4" class="node">
<title>2</title>
<ellipse fill="none" stroke="black" cx="567.05" cy="-22" rx="27" ry="18"/>
<text text-anchor="middle" x="567.05" y="-18.3" font-family="Times,serif" font-size="14.00">2</text>
</g>
<!-- 0&#45;&gt;2 -->
<g id="edge15" class="edge">
<title>0&#45;&gt;2</title>
<path fill="none" stroke="black" d="M598.24,-274.07C605.91,-268.17 613.89,-260.31 618.05,-251 620.76,-244.91 618.33,-242.66 618.05,-236 615.38,-173.16 623.45,-155.44 606.05,-95 601.19,-78.13 591.94,-60.78 583.67,-47.34"/>
<polygon fill="black" stroke="black" points="586.5,-45.26 578.17,-38.71 580.6,-49.03 586.5,-45.26"/>
<text text-anchor="middle" x="640.55" y="-152.8" font-family="Times,serif" font-size="14.00">{c1, c2}</text>
</g>
<!-- 0&#45;&gt;2 -->
<g id="edge16" class="edge">
<title>0&#45;&gt;2</title>
<path fill="none" stroke="black" d="M600.37,-275.8C611.05,-269.81 623.49,-261.38 632.05,-251 662.64,-213.92 682.16,-194.96 668.05,-149 654.53,-104.99 616.79,-65.59 591.47,-43"/>
<polygon fill="black" stroke="black" points="593.57,-40.19 583.73,-36.27 588.98,-45.47 593.57,-40.19"/>
<text text-anchor="middle" x="684.55" y="-152.8" font-family="Times,serif" font-size="14.00">{c1}</text>
</g>
<!-- 0&#45;&gt;2 -->
<g id="edge17" class="edge">
<title>0&#45;&gt;2</title>
<path fill="none" stroke="black" d="M602.56,-277.79C617.64,-271.82 637.13,-262.72 652.05,-251 691.74,-219.8 717.28,-197.13 702.05,-149 685.57,-96.95 631.28,-58.4 596.77,-38.41"/>
<polygon fill="black" stroke="black" points="598.47,-35.35 588.04,-33.5 595.04,-41.45 598.47,-35.35"/>
<text text-anchor="middle" x="718.55" y="-152.8" font-family="Times,serif" font-size="14.00">{c2}</text>
</g>
<!-- 1&#45;&gt;1 -->
<g id="edge26" class="edge">
<title>1&#45;&gt;1</title>
<path fill="none" stroke="black" d="M463.58,-207.75C474.55,-208.49 484.05,-205.91 484.05,-200 484.05,-196.03 479.76,-193.56 473.62,-192.59"/>
<polygon fill="black" stroke="black" points="473.69,-189.09 463.58,-192.25 473.45,-196.09 473.69,-189.09"/>
<text text-anchor="middle" x="491.05" y="-196.3" font-family="Times,serif" font-size="14.00">{}</text>
</g>
<!-- 1&#45;&gt;2 -->
<g id="edge31" class="edge">
<title>1&#45;&gt;2</title>
<path fill="none" stroke="black" d="M438.16,-181.75C437.78,-160.22 439.58,-122.85 454.05,-95 472.97,-58.57 494.38,-62.46 531.05,-44 533.65,-42.69 536.33,-41.27 538.99,-39.81"/>
<polygon fill="black" stroke="black" points="540.89,-42.76 547.86,-34.78 537.43,-36.67 540.89,-42.76"/>
<text text-anchor="middle" x="467.55" y="-109.3" font-family="Times,serif" font-size="14.00">{c0}</text>
</g>
<!-- 1&#45;&gt;2 -->
<g id="edge32" class="edge">
<title>1&#45;&gt;2</title>
<path fill="none" stroke="black" d="M450.41,-183.38C472.89,-152.46 523.2,-83.29 549.8,-46.71"/>
<polygon fill="black" stroke="black" points="552.66,-48.73 555.71,-38.58 547,-44.61 552.66,-48.73"/>
<text text-anchor="middle" x="536.55" y="-109.3" font-family="Times,serif" font-size="14.00">{c0, c2}</text>
</g>
<!-- 1&#45;&gt;2 -->
<g id="edge33" class="edge">
<title>1&#45;&gt;2</title>
<path fill="none" stroke="black" d="M464.19,-193.33C493.89,-185.15 542.02,-166.91 564.05,-131 579.01,-106.6 577.2,-72.9 573.3,-49.67"/>
<polygon fill="black" stroke="black" points="576.72,-48.97 571.41,-39.8 569.85,-50.28 576.72,-48.97"/>
<text text-anchor="middle" x="588.55" y="-109.3" font-family="Times,serif" font-size="14.00">{c2}</text>
</g>
<!-- 3 -->
<g id="node5" class="node">
<title>3</title>
<ellipse fill="none" stroke="black" cx="218.05" cy="-113" rx="27" ry="18"/>
<text text-anchor="middle" x="218.05" y="-109.3" font-family="Times,serif" font-size="14.00">3</text>
</g>
<!-- 1&#45;&gt;3 -->
<g id="edge27" class="edge">
<title>1&#45;&gt;3</title>
<path fill="none" stroke="black" d="M412.12,-197.5C346.96,-193.58 184.96,-182.11 169.05,-164 158.35,-151.83 172.08,-138.77 187.7,-129.06"/>
<polygon fill="black" stroke="black" points="189.51,-132.05 196.43,-124.03 186.02,-125.99 189.51,-132.05"/>
<text text-anchor="middle" x="182.55" y="-152.8" font-family="Times,serif" font-size="14.00">{c1}</text>
</g>
<!-- 1&#45;&gt;3 -->
<g id="edge28" class="edge">
<title>1&#45;&gt;3</title>
<path fill="none" stroke="black" d="M411.74,-198.83C358.5,-197.86 243.81,-192.44 219.05,-164 213.59,-157.74 212.07,-149.18 212.31,-140.91"/>
<polygon fill="black" stroke="black" points="215.81,-141.1 213.39,-130.79 208.85,-140.36 215.81,-141.1"/>
<text text-anchor="middle" x="242.55" y="-152.8" font-family="Times,serif" font-size="14.00">{c1, c2}</text>
</g>
<!-- 1&#45;&gt;3 -->
<g id="edge29" class="edge">
<title>1&#45;&gt;3</title>
<path fill="none" stroke="black" d="M412.59,-195.95C381.83,-191.71 330.04,-182.38 289.05,-164 284.11,-161.79 262.39,-146.34 244.26,-133.2"/>
<polygon fill="black" stroke="black" points="245.89,-130.05 235.74,-126.99 241.77,-135.71 245.89,-130.05"/>
<text text-anchor="middle" x="322.55" y="-152.8" font-family="Times,serif" font-size="14.00">{c0, c1, c2}</text>
</g>
<!-- 1&#45;&gt;3 -->
<g id="edge30" class="edge">
<title>1&#45;&gt;3</title>
<path fill="none" stroke="black" d="M419.17,-187.74C407.42,-180.99 392.28,-172.17 379.05,-164 368.66,-157.59 367.22,-153.9 356.05,-149 322.88,-134.46 282.48,-125.1 253.98,-119.75"/>
<polygon fill="black" stroke="black" points="254.52,-116.29 244.06,-117.96 253.28,-123.18 254.52,-116.29"/>
<text text-anchor="middle" x="402.55" y="-152.8" font-family="Times,serif" font-size="14.00">{c0, c1}</text>
</g>
<!-- 2&#45;&gt;2 -->
<g id="edge34" class="edge">
<title>2&#45;&gt;2</title>
<path fill="none" stroke="black" d="M594.29,-23.5C604.07,-23.53 612.05,-23.03 612.05,-22 612.05,-21.37 609.08,-20.94 604.56,-20.71"/>
<polygon fill="black" stroke="black" points="604.36,-17.2 594.29,-20.5 604.21,-24.2 604.36,-17.2"/>
<text text-anchor="middle" x="635.55" y="-18.3" font-family="Times,serif" font-size="14.00">{c1, c2}</text>
</g>
<!-- 2&#45;&gt;2 -->
<g id="edge35" class="edge">
<title>2&#45;&gt;2</title>
<path fill="none" stroke="black" d="M593.94,-24.43C622.37,-25.68 659.05,-24.87 659.05,-22 659.05,-19.46 630.46,-18.53 604.2,-19.22"/>
<polygon fill="black" stroke="black" points="603.81,-15.73 593.94,-19.57 604.05,-22.72 603.81,-15.73"/>
<text text-anchor="middle" x="672.55" y="-18.3" font-family="Times,serif" font-size="14.00">{c1}</text>
</g>
<!-- 2&#45;&gt;2 -->
<g id="edge36" class="edge">
<title>2&#45;&gt;2</title>
<path fill="none" stroke="black" d="M593.87,-25.17C631.29,-27.69 686.05,-26.63 686.05,-22 686.05,-17.77 640.3,-16.52 603.85,-18.26"/>
<polygon fill="black" stroke="black" points="603.65,-14.76 593.87,-18.83 604.05,-21.75 603.65,-14.76"/>
<text text-anchor="middle" x="699.55" y="-18.3" font-family="Times,serif" font-size="14.00">{c0}</text>
</g>
<!-- 2&#45;&gt;2 -->
<g id="edge37" class="edge">
<title>2&#45;&gt;2</title>
<path fill="none" stroke="black" d="M593.77,-25.74C639.52,-29.7 713.05,-28.45 713.05,-22 713.05,-16 649.5,-14.5 603.79,-17.5"/>
<polygon fill="black" stroke="black" points="603.47,-14.01 593.77,-18.26 604,-20.99 603.47,-14.01"/>
<text text-anchor="middle" x="736.55" y="-18.3" font-family="Times,serif" font-size="14.00">{c0, c1}</text>
</g>
<!-- 2&#45;&gt;2 -->
<g id="edge38" class="edge">
<title>2&#45;&gt;2</title>
<path fill="none" stroke="black" d="M593.53,-26.04C651.42,-31.74 760.05,-30.4 760.05,-22 760.05,-14.08 663.38,-12.43 603.83,-17.06"/>
<polygon fill="black" stroke="black" points="603.19,-13.61 593.53,-17.96 603.8,-20.58 603.19,-13.61"/>
<text text-anchor="middle" x="767.05" y="-18.3" font-family="Times,serif" font-size="14.00">{}</text>
</g>
<!-- 2&#45;&gt;2 -->
<g id="edge39" class="edge">
<title>2&#45;&gt;2</title>
<path fill="none" stroke="black" d="M593.27,-26.45C656.56,-33.75 778.05,-32.27 778.05,-22 778.05,-12.26 668.59,-10.42 603.34,-16.5"/>
<polygon fill="black" stroke="black" points="602.86,-13.04 593.27,-17.55 603.58,-20 602.86,-13.04"/>
<text text-anchor="middle" x="801.55" y="-18.3" font-family="Times,serif" font-size="14.00">{c0, c2}</text>
</g>
<!-- 2&#45;&gt;2 -->
<g id="edge40" class="edge">
<title>2&#45;&gt;2</title>
<path fill="none" stroke="black" d="M593.27,-26.66C667.27,-35.77 825.05,-34.22 825.05,-22 825.05,-10.3 680.54,-8.38 603.25,-16.23"/>
<polygon fill="black" stroke="black" points="602.82,-12.76 593.27,-17.34 603.6,-19.71 602.82,-12.76"/>
<text text-anchor="middle" x="858.55" y="-18.3" font-family="Times,serif" font-size="14.00">{c0, c1, c2}</text>
</g>
<!-- 2&#45;&gt;2 -->
<g id="edge41" class="edge">
<title>2&#45;&gt;2</title>
<path fill="none" stroke="black" d="M593.27,-26.75C680.4,-37.8 892.05,-36.22 892.05,-22 892.05,-8.31 695.81,-6.33 603.46,-16.07"/>
<polygon fill="black" stroke="black" points="602.8,-12.63 593.27,-17.25 603.6,-19.58 602.8,-12.63"/>
<text text-anchor="middle" x="905.55" y="-18.3" font-family="Times,serif" font-size="14.00">{c2}</text>
</g>
<!-- 3&#45;&gt;2 -->
<g id="edge23" class="edge">
<title>3&#45;&gt;2</title>
<path fill="none" stroke="black" d="M232,-97.53C244.42,-85.68 263.74,-69.66 284.05,-62 387.04,-23.17 425.91,-76.57 531.05,-44 534.06,-43.07 537.09,-41.84 540.05,-40.45"/>
<polygon fill="black" stroke="black" points="541.94,-43.41 549.11,-35.61 538.64,-37.23 541.94,-43.41"/>
<text text-anchor="middle" x="297.55" y="-65.8" font-family="Times,serif" font-size="14.00">{c1}</text>
</g>
<!-- 3&#45;&gt;2 -->
<g id="edge24" class="edge">
<title>3&#45;&gt;2</title>
<path fill="none" stroke="black" d="M241.97,-104.6C261.12,-98.3 288.42,-88.46 311.05,-77 321.93,-71.48 322.52,-66.01 334.05,-62 417.09,-33.14 447.31,-70.79 531.05,-44 534.05,-43.04 537.08,-41.8 540.03,-40.4"/>
<polygon fill="black" stroke="black" points="541.93,-43.35 549.09,-35.54 538.62,-37.18 541.93,-43.35"/>
<text text-anchor="middle" x="347.55" y="-65.8" font-family="Times,serif" font-size="14.00">{c0}</text>
</g>
<!-- 3&#45;&gt;2 -->
<g id="edge25" class="edge">
<title>3&#45;&gt;2</title>
<path fill="none" stroke="black" d="M244.21,-108.32C273.55,-103.58 322.12,-93.87 361.05,-77 372.24,-72.15 372.58,-66.18 384.05,-62 445.88,-39.44 468.67,-65.01 531.05,-44 533.97,-43.02 536.92,-41.78 539.8,-40.4"/>
<polygon fill="black" stroke="black" points="541.52,-43.44 548.68,-35.64 538.21,-37.27 541.52,-43.44"/>
<text text-anchor="middle" x="407.55" y="-65.8" font-family="Times,serif" font-size="14.00">{c0, c1}</text>
</g>
<!-- 3&#45;&gt;3 -->
<g id="edge19" class="edge">
<title>3&#45;&gt;3</title>
<path fill="none" stroke="black" d="M242.58,-120.75C253.55,-121.49 263.05,-118.91 263.05,-113 263.05,-109.03 258.76,-106.56 252.62,-105.59"/>
<polygon fill="black" stroke="black" points="252.69,-102.09 242.58,-105.25 252.45,-109.09 252.69,-102.09"/>
<text text-anchor="middle" x="270.05" y="-109.3" font-family="Times,serif" font-size="14.00">{}</text>
</g>
<!-- 4 -->
<g id="node6" class="node">
<title>4</title>
<ellipse fill="none" stroke="black" cx="53.05" cy="-22" rx="18" ry="18"/>
<ellipse fill="none" stroke="black" cx="53.05" cy="-22" rx="22" ry="22"/>
<text text-anchor="middle" x="53.05" y="-18.3" font-family="Times,serif" font-size="14.00">4</text>
</g>
<!-- 3&#45;&gt;4 -->
<g id="edge18" class="edge">
<title>3&#45;&gt;4</title>
<path fill="none" stroke="black" d="M191.03,-111.74C138.97,-110.61 27.75,-104.9 4.05,-77 -7.47,-63.45 8.41,-48.5 25.09,-37.78"/>
<polygon fill="black" stroke="black" points="26.97,-40.73 33.75,-32.59 23.37,-34.73 26.97,-40.73"/>
<text text-anchor="middle" x="17.55" y="-65.8" font-family="Times,serif" font-size="14.00">{c2}</text>
</g>
<!-- 3&#45;&gt;4 -->
<g id="edge20" class="edge">
<title>3&#45;&gt;4</title>
<path fill="none" stroke="black" d="M191.15,-110.21C149.2,-106.8 71.18,-97.78 54.05,-77 48.7,-70.52 46.98,-61.96 46.99,-53.58"/>
<polygon fill="black" stroke="black" points="50.48,-53.82 47.74,-43.58 43.5,-53.29 50.48,-53.82"/>
<text text-anchor="middle" x="87.55" y="-65.8" font-family="Times,serif" font-size="14.00">{c0, c1, c2}</text>
</g>
<!-- 3&#45;&gt;4 -->
<g id="edge21" class="edge">
<title>3&#45;&gt;4</title>
<path fill="none" stroke="black" d="M195.96,-102.5C181.04,-95.86 161.04,-86.5 144.05,-77 133.39,-71.04 131.45,-68.37 121.05,-62 108,-54.02 93.31,-45.53 80.93,-38.52"/>
<polygon fill="black" stroke="black" points="82.41,-35.33 71.98,-33.47 78.97,-41.43 82.41,-35.33"/>
<text text-anchor="middle" x="167.55" y="-65.8" font-family="Times,serif" font-size="14.00">{c1, c2}</text>
</g>
<!-- 3&#45;&gt;4 -->
<g id="edge22" class="edge">
<title>3&#45;&gt;4</title>
<path fill="none" stroke="black" d="M212.71,-94.87C208.48,-83.98 201.52,-70.39 191.05,-62 160.46,-37.49 115.3,-28.38 85.06,-24.99"/>
<polygon fill="black" stroke="black" points="85.33,-21.5 75.04,-24.02 84.65,-28.47 85.33,-21.5"/>
<text text-anchor="middle" x="227.55" y="-65.8" font-family="Times,serif" font-size="14.00">{c0, c2}</text>
</g>
<!-- 4&#45;&gt;4 -->
<g id="edge2" class="edge">
<title>4&#45;&gt;4</title>
<path fill="none" stroke="black" d="M75.26,-23.48C84.84,-23.6 93.05,-23.11 93.05,-22 93.05,-21.32 90,-20.88 85.45,-20.66"/>
<polygon fill="black" stroke="black" points="85.31,-17.16 75.26,-20.52 85.21,-24.15 85.31,-17.16"/>
<text text-anchor="middle" x="106.55" y="-18.3" font-family="Times,serif" font-size="14.00">{c1}</text>
</g>
<!-- 4&#45;&gt;4 -->
<g id="edge3" class="edge">
<title>4&#45;&gt;4</title>
<path fill="none" stroke="black" d="M75.08,-24.47C95.95,-25.67 120.05,-24.84 120.05,-22 120.05,-19.62 103.21,-18.66 85.49,-19.11"/>
<polygon fill="black" stroke="black" points="84.93,-15.63 75.08,-19.53 85.21,-22.62 84.93,-15.63"/>
<text text-anchor="middle" x="143.55" y="-18.3" font-family="Times,serif" font-size="14.00">{c0, c1}</text>
</g>
<!-- 4&#45;&gt;4 -->
<g id="edge4" class="edge">
<title>4&#45;&gt;4</title>
<path fill="none" stroke="black" d="M75.05,-24.91C110.74,-27.75 167.05,-26.78 167.05,-22 167.05,-17.65 120.4,-16.45 85.11,-18.41"/>
<polygon fill="black" stroke="black" points="84.79,-14.93 75.05,-19.09 85.26,-21.91 84.79,-14.93"/>
<text text-anchor="middle" x="200.55" y="-18.3" font-family="Times,serif" font-size="14.00">{c0, c1, c2}</text>
</g>
<!-- 4&#45;&gt;4 -->
<g id="edge5" class="edge">
<title>4&#45;&gt;4</title>
<path fill="none" stroke="black" d="M75.02,-25.13C127,-29.81 234.05,-28.77 234.05,-22 234.05,-15.64 139.57,-14.34 85.03,-18.08"/>
<polygon fill="black" stroke="black" points="84.71,-14.6 75.02,-18.87 85.26,-21.57 84.71,-14.6"/>
<text text-anchor="middle" x="247.55" y="-18.3" font-family="Times,serif" font-size="14.00">{c0}</text>
</g>
<!-- 4&#45;&gt;4 -->
<g id="edge6" class="edge">
<title>4&#45;&gt;4</title>
<path fill="none" stroke="black" d="M75.06,-25.54C133.86,-31.81 261.05,-30.63 261.05,-22 261.05,-13.84 147.39,-12.34 85.29,-17.5"/>
<polygon fill="black" stroke="black" points="84.69,-14.04 75.06,-18.46 85.34,-21.01 84.69,-14.04"/>
<text text-anchor="middle" x="268.05" y="-18.3" font-family="Times,serif" font-size="14.00">{}</text>
</g>
<!-- 4&#45;&gt;4 -->
<g id="edge7" class="edge">
<title>4&#45;&gt;4</title>
<path fill="none" stroke="black" d="M74.77,-25.88C138.57,-33.82 279.05,-32.52 279.05,-22 279.05,-12.01 152.47,-10.34 85.05,-16.98"/>
<polygon fill="black" stroke="black" points="84.33,-13.54 74.77,-18.12 85.1,-20.49 84.33,-13.54"/>
<text text-anchor="middle" x="302.55" y="-18.3" font-family="Times,serif" font-size="14.00">{c0, c2}</text>
</g>
<!-- 4&#45;&gt;4 -->
<g id="edge8" class="edge">
<title>4&#45;&gt;4</title>
<path fill="none" stroke="black" d="M74.97,-26.09C148.63,-35.83 326.05,-34.47 326.05,-22 326.05,-10.07 163.55,-8.31 85.02,-16.71"/>
<polygon fill="black" stroke="black" points="84.49,-13.25 74.97,-17.91 85.31,-20.2 84.49,-13.25"/>
<text text-anchor="middle" x="349.55" y="-18.3" font-family="Times,serif" font-size="14.00">{c1, c2}</text>
</g>
<!-- 4&#45;&gt;4 -->
<g id="edge9" class="edge">
<title>4&#45;&gt;4</title>
<path fill="none" stroke="black" d="M74.8,-26.23C157.55,-37.85 373.05,-36.44 373.05,-22 373.05,-8.11 173.65,-6.28 84.82,-16.5"/>
<polygon fill="black" stroke="black" points="84.28,-13.04 74.8,-17.77 85.17,-19.98 84.28,-13.04"/>
<text text-anchor="middle" x="386.55" y="-18.3" font-family="Times,serif" font-size="14.00">{c2}</text>
</g>
</g>
</svg>
