<?xml version="1.0" encoding="UTF-8" standalone="no"?>
<!DOCTYPE svg PUBLIC "-//W3C//DTD SVG 1.1//EN"
 "http://www.w3.org/Graphics/SVG/1.1/DTD/svg11.dtd">
<!-- Generated by graphviz version 2.43.0 (0)
 -->
<!-- Title: %3 Pages: 1 -->
<svg width="1070pt" height="386pt"
 viewBox="0.00 0.00 1069.55 386.00" xmlns="http://www.w3.org/2000/svg" xmlns:xlink="http://www.w3.org/1999/xlink">
<g id="graph0" class="graph" transform="scale(1 1) rotate(0) translate(4 382)">
<title>%3</title>
<polygon fill="white" stroke="transparent" points="-4,4 -4,-382 1065.55,-382 1065.55,4 -4,4"/>
<!-- fake -->
<g id="node1" class="node">
<title>fake</title>
</g>
<!-- 0 -->
<g id="node2" class="node">
<title>0</title>
<ellipse fill="none" stroke="black" cx="582.55" cy="-287" rx="27" ry="18"/>
<text text-anchor="middle" x="582.55" y="-283.3" font-family="Times,serif" font-size="14.00">0</text>
</g>
<!-- fake&#45;&gt;0 -->
<g id="edge1" class="edge">
<title>fake&#45;&gt;0</title>
<path fill="none" stroke="black" stroke-width="2" d="M582.55,-341.81C582.55,-333.79 582.55,-324.05 582.55,-315.07"/>
<polygon fill="black" stroke="black" stroke-width="2" points="586.05,-315.03 582.55,-305.03 579.05,-315.03 586.05,-315.03"/>
</g>
<!-- 0&#45;&gt;0 -->
<g id="edge2" class="edge">
<title>0&#45;&gt;0</title>
<path fill="none" stroke="black" d="M608,-293.69C618.58,-294.15 627.55,-291.92 627.55,-287 627.55,-283.77 623.69,-281.7 618.04,-280.79"/>
<polygon fill="black" stroke="black" points="618.15,-277.29 608,-280.31 617.82,-284.28 618.15,-277.29"/>
<text text-anchor="middle" x="634.55" y="-283.3" font-family="Times,serif" font-size="14.00">{}</text>
</g>
<!-- 1 -->
<g id="node3" class="node">
<title>1</title>
<ellipse fill="none" stroke="black" cx="442.55" cy="-200" rx="27" ry="18"/>
<text text-anchor="middle" x="442.55" y="-196.3" font-family="Times,serif" font-size="14.00">1</text>
</g>
<!-- 0&#45;&gt;1 -->
<g id="edge3" class="edge">
<title>0&#45;&gt;1</title>
<path fill="none" stroke="black" d="M555.38,-285.62C504.19,-284.26 396.55,-278.17 373.55,-251 359.44,-234.33 384.56,-220.25 408.35,-211.33"/>
<polygon fill="black" stroke="black" points="409.73,-214.55 418.01,-207.94 407.41,-207.95 409.73,-214.55"/>
<text text-anchor="middle" x="397.05" y="-239.8" font-family="Times,serif" font-size="14.00">{c0, c2}</text>
</g>
<!-- 0&#45;&gt;1 -->
<g id="edge4" class="edge">
<title>0&#45;&gt;1</title>
<path fill="none" stroke="black" d="M556.16,-283.14C519.85,-278.6 457.42,-268.43 443.55,-251 438.46,-244.6 436.98,-236.14 437.14,-228"/>
<polygon fill="black" stroke="black" points="440.63,-228.32 438.08,-218.04 433.66,-227.67 440.63,-228.32"/>
<text text-anchor="middle" x="457.05" y="-239.8" font-family="Times,serif" font-size="14.00">{c2}</text>
</g>
<!-- 0&#45;&gt;1 -->
<g id="edge5" class="edge">
<title>0&#45;&gt;1</title>
<path fill="none" stroke="black" d="M557.87,-279.23C539.27,-273.45 513.62,-264 493.55,-251 482.01,-243.52 470.89,-233.13 462,-223.76"/>
<polygon fill="black" stroke="black" points="464.43,-221.23 455.1,-216.22 459.27,-225.96 464.43,-221.23"/>
<text text-anchor="middle" x="527.05" y="-239.8" font-family="Times,serif" font-size="14.00">{c0, c1, c2}</text>
</g>
<!-- 0&#45;&gt;1 -->
<g id="edge6" class="edge">
<title>0&#45;&gt;1</title>
<path fill="none" stroke="black" d="M578.96,-268.96C575.83,-258.11 570.23,-244.53 560.55,-236 538.15,-216.26 505.04,-207.64 479.59,-203.88"/>
<polygon fill="black" stroke="black" points="479.92,-200.4 469.56,-202.59 479.03,-207.34 479.92,-200.4"/>
<text text-anchor="middle" x="594.05" y="-239.8" font-family="Times,serif" font-size="14.00">{c1, c2}</text>
</g>
<!-- 2 -->
<g id="node4" class="node">
<title>2</title>
<ellipse fill="none" stroke="black" cx="587.55" cy="-22" rx="27" ry="18"/>
<text text-anchor="middle" x="587.55" y="-18.3" font-family="Times,serif" font-size="14.00">2</text>
</g>
<!-- 0&#45;&gt;2 -->
<g id="edge7" class="edge">
<title>0&#45;&gt;2</title>
<path fill="none" stroke="black" d="M601.75,-274.07C609.42,-268.17 617.4,-260.31 621.55,-251 624.27,-244.91 621.81,-242.66 621.55,-236 619.11,-173.19 622.64,-156.68 610.55,-95 607.52,-79.5 602.25,-62.67 597.53,-49.18"/>
<polygon fill="black" stroke="black" points="600.75,-47.8 594.06,-39.59 594.17,-50.18 600.75,-47.8"/>
<text text-anchor="middle" x="633.05" y="-152.8" font-family="Times,serif" font-size="14.00">{c1}</text>
</g>
<!-- 0&#45;&gt;2 -->
<g id="edge8" class="edge">
<title>0&#45;&gt;2</title>
<path fill="none" stroke="black" d="M604.86,-276.53C615.81,-270.74 628.19,-262.26 635.55,-251 660.62,-212.65 658.81,-194.07 650.55,-149 643.1,-108.32 637.71,-98.11 617.55,-62 614.51,-56.55 610.77,-51.04 606.96,-45.94"/>
<polygon fill="black" stroke="black" points="609.54,-43.56 600.62,-37.84 604.03,-47.87 609.54,-43.56"/>
<text text-anchor="middle" x="666.05" y="-152.8" font-family="Times,serif" font-size="14.00">{c0}</text>
</g>
<!-- 0&#45;&gt;2 -->
<g id="edge9" class="edge">
<title>0&#45;&gt;2</title>
<path fill="none" stroke="black" d="M606.94,-278.85C622.05,-273.35 640.91,-264.39 653.55,-251 681.64,-221.27 677.68,-204.48 683.55,-164 690.9,-113.37 644.61,-66.86 613.73,-41.97"/>
<polygon fill="black" stroke="black" points="615.53,-38.93 605.49,-35.54 611.22,-44.45 615.53,-38.93"/>
<text text-anchor="middle" x="707.05" y="-152.8" font-family="Times,serif" font-size="14.00">{c0, c1}</text>
</g>
<!-- 1&#45;&gt;1 -->
<g id="edge27" class="edge">
<title>1&#45;&gt;1</title>
<path fill="none" stroke="black" d="M467.09,-207.75C478.06,-208.49 487.55,-205.91 487.55,-200 487.55,-196.03 483.27,-193.56 477.13,-192.59"/>
<polygon fill="black" stroke="black" points="477.2,-189.09 467.09,-192.25 476.96,-196.09 477.2,-189.09"/>
<text text-anchor="middle" x="494.55" y="-196.3" font-family="Times,serif" font-size="14.00">{}</text>
</g>
<!-- 1&#45;&gt;2 -->
<g id="edge31" class="edge">
<title>1&#45;&gt;2</title>
<path fill="none" stroke="black" d="M440.77,-181.96C439.36,-159.98 439.98,-121.43 457.55,-95 483.87,-55.42 509.4,-65.96 551.55,-44 554.14,-42.65 556.8,-41.21 559.46,-39.73"/>
<polygon fill="black" stroke="black" points="561.36,-42.68 568.31,-34.68 557.89,-36.6 561.36,-42.68"/>
<text text-anchor="middle" x="481.05" y="-109.3" font-family="Times,serif" font-size="14.00">{c0, c2}</text>
</g>
<!-- 1&#45;&gt;2 -->
<g id="edge32" class="edge">
<title>1&#45;&gt;2</title>
<path fill="none" stroke="black" d="M456.46,-184.46C469.28,-170.91 488.65,-149.98 504.55,-131 528.15,-102.83 553.67,-69.07 570.1,-46.89"/>
<polygon fill="black" stroke="black" points="573.02,-48.83 576.13,-38.7 567.38,-44.67 573.02,-48.83"/>
<text text-anchor="middle" x="546.05" y="-109.3" font-family="Times,serif" font-size="14.00">{c0}</text>
</g>
<!-- 1&#45;&gt;2 -->
<g id="edge33" class="edge">
<title>1&#45;&gt;2</title>
<path fill="none" stroke="black" d="M467.06,-191.94C494.85,-182.63 539.42,-163.5 563.55,-131 581.03,-107.46 586.2,-73.6 587.52,-50.1"/>
<polygon fill="black" stroke="black" points="591.02,-50.22 587.89,-40.1 584.03,-49.96 591.02,-50.22"/>
<text text-anchor="middle" x="593.05" y="-109.3" font-family="Times,serif" font-size="14.00">{c2}</text>
</g>
<!-- 3 -->
<g id="node5" class="node">
<title>3</title>
<ellipse fill="none" stroke="black" cx="261.55" cy="-113" rx="27" ry="18"/>
<text text-anchor="middle" x="261.55" y="-109.3" font-family="Times,serif" font-size="14.00">3</text>
</g>
<!-- 1&#45;&gt;3 -->
<g id="edge26" class="edge">
<title>1&#45;&gt;3</title>
<path fill="none" stroke="black" d="M415.63,-197.5C350.47,-193.58 188.47,-182.11 172.55,-164 153.82,-142.68 193.36,-128.46 225.6,-120.81"/>
<polygon fill="black" stroke="black" points="226.72,-124.15 235.72,-118.56 225.2,-117.31 226.72,-124.15"/>
<text text-anchor="middle" x="206.05" y="-152.8" font-family="Times,serif" font-size="14.00">{c0, c1, c2}</text>
</g>
<!-- 1&#45;&gt;3 -->
<g id="edge28" class="edge">
<title>1&#45;&gt;3</title>
<path fill="none" stroke="black" d="M415.64,-197.77C370.33,-195.08 281.87,-186.96 262.55,-164 257.29,-157.74 255.76,-149.32 255.94,-141.17"/>
<polygon fill="black" stroke="black" points="259.42,-141.47 256.92,-131.18 252.46,-140.79 259.42,-141.47"/>
<text text-anchor="middle" x="286.05" y="-152.8" font-family="Times,serif" font-size="14.00">{c1, c2}</text>
</g>
<!-- 1&#45;&gt;3 -->
<g id="edge29" class="edge">
<title>1&#45;&gt;3</title>
<path fill="none" stroke="black" d="M417.25,-193.29C394.39,-187.6 360.2,-177.72 332.55,-164 327.71,-161.59 305.98,-146.17 287.82,-133.08"/>
<polygon fill="black" stroke="black" points="289.44,-129.93 279.29,-126.91 285.34,-135.61 289.44,-129.93"/>
<text text-anchor="middle" x="346.05" y="-152.8" font-family="Times,serif" font-size="14.00">{c1}</text>
</g>
<!-- 1&#45;&gt;3 -->
<g id="edge30" class="edge">
<title>1&#45;&gt;3</title>
<path fill="none" stroke="black" d="M422.68,-187.74C410.92,-180.99 395.79,-172.17 382.55,-164 372.17,-157.59 370.49,-154.42 359.55,-149 339.02,-138.81 314.76,-130.13 295.52,-123.96"/>
<polygon fill="black" stroke="black" points="296.55,-120.61 285.96,-120.96 294.46,-127.29 296.55,-120.61"/>
<text text-anchor="middle" x="406.05" y="-152.8" font-family="Times,serif" font-size="14.00">{c0, c1}</text>
</g>
<!-- 2&#45;&gt;2 -->
<g id="edge34" class="edge">
<title>2&#45;&gt;2</title>
<path fill="none" stroke="black" d="M614.79,-23.5C624.58,-23.53 632.55,-23.03 632.55,-22 632.55,-21.37 629.59,-20.94 625.06,-20.71"/>
<polygon fill="black" stroke="black" points="624.86,-17.2 614.79,-20.5 624.72,-24.2 624.86,-17.2"/>
<text text-anchor="middle" x="666.05" y="-18.3" font-family="Times,serif" font-size="14.00">{c0, c1, c2}</text>
</g>
<!-- 2&#45;&gt;2 -->
<g id="edge35" class="edge">
<title>2&#45;&gt;2</title>
<path fill="none" stroke="black" d="M614.45,-24.27C648.9,-25.74 699.55,-24.98 699.55,-22 699.55,-19.3 657.95,-18.42 624.51,-19.37"/>
<polygon fill="black" stroke="black" points="624.32,-15.88 614.45,-19.73 624.57,-22.87 624.32,-15.88"/>
<text text-anchor="middle" x="723.05" y="-18.3" font-family="Times,serif" font-size="14.00">{c0, c2}</text>
</g>
<!-- 2&#45;&gt;2 -->
<g id="edge36" class="edge">
<title>2&#45;&gt;2</title>
<path fill="none" stroke="black" d="M614.32,-24.87C661.91,-27.76 746.55,-26.8 746.55,-22 746.55,-17.52 673.09,-16.39 624.56,-18.59"/>
<polygon fill="black" stroke="black" points="624.12,-15.11 614.32,-19.13 624.49,-22.1 624.12,-15.11"/>
<text text-anchor="middle" x="760.05" y="-18.3" font-family="Times,serif" font-size="14.00">{c1}</text>
</g>
<!-- 2&#45;&gt;2 -->
<g id="edge37" class="edge">
<title>2&#45;&gt;2</title>
<path fill="none" stroke="black" d="M614.21,-25.45C669.12,-29.76 773.55,-28.61 773.55,-22 773.55,-15.78 681,-14.4 624.34,-17.85"/>
<polygon fill="black" stroke="black" points="623.94,-14.37 614.21,-18.55 624.42,-21.35 623.94,-14.37"/>
<text text-anchor="middle" x="797.05" y="-18.3" font-family="Times,serif" font-size="14.00">{c1, c2}</text>
</g>
<!-- 2&#45;&gt;2 -->
<g id="edge38" class="edge">
<title>2&#45;&gt;2</title>
<path fill="none" stroke="black" d="M614.02,-25.79C679.87,-31.78 820.55,-30.52 820.55,-22 820.55,-13.9 693.28,-12.36 624.18,-17.38"/>
<polygon fill="black" stroke="black" points="623.71,-13.91 614.02,-18.21 624.28,-20.89 623.71,-13.91"/>
<text text-anchor="middle" x="834.05" y="-18.3" font-family="Times,serif" font-size="14.00">{c0}</text>
</g>
<!-- 2&#45;&gt;2 -->
<g id="edge39" class="edge">
<title>2&#45;&gt;2</title>
<path fill="none" stroke="black" d="M614.07,-26.2C686.6,-33.78 847.55,-32.38 847.55,-22 847.55,-12.08 700.73,-10.36 624.35,-16.83"/>
<polygon fill="black" stroke="black" points="623.69,-13.38 614.07,-17.8 624.35,-20.35 623.69,-13.38"/>
<text text-anchor="middle" x="871.05" y="-18.3" font-family="Times,serif" font-size="14.00">{c0, c1}</text>
</g>
<!-- 2&#45;&gt;2 -->
<g id="edge40" class="edge">
<title>2&#45;&gt;2</title>
<path fill="none" stroke="black" d="M613.73,-26.41C695.92,-35.8 894.55,-34.33 894.55,-22 894.55,-10.15 711.13,-8.33 623.88,-16.54"/>
<polygon fill="black" stroke="black" points="623.32,-13.08 613.73,-17.59 624.04,-20.04 623.32,-13.08"/>
<text text-anchor="middle" x="901.55" y="-18.3" font-family="Times,serif" font-size="14.00">{}</text>
</g>
<!-- 2&#45;&gt;2 -->
<g id="edge41" class="edge">
<title>2&#45;&gt;2</title>
<path fill="none" stroke="black" d="M613.77,-26.75C700.9,-37.8 912.55,-36.22 912.55,-22 912.55,-8.31 716.32,-6.33 623.97,-16.07"/>
<polygon fill="black" stroke="black" points="623.31,-12.63 613.77,-17.25 624.11,-19.58 623.31,-12.63"/>
<text text-anchor="middle" x="926.05" y="-18.3" font-family="Times,serif" font-size="14.00">{c2}</text>
</g>
<!-- 3&#45;&gt;2 -->
<g id="edge23" class="edge">
<title>3&#45;&gt;2</title>
<path fill="none" stroke="black" d="M264.79,-94.69C267.86,-83.43 273.7,-69.48 284.55,-62 333.52,-28.25 494.7,-61.44 551.55,-44 554.57,-43.07 557.6,-41.86 560.56,-40.47"/>
<polygon fill="black" stroke="black" points="562.45,-43.43 569.63,-35.63 559.16,-37.25 562.45,-43.43"/>
<text text-anchor="middle" x="298.05" y="-65.8" font-family="Times,serif" font-size="14.00">{c1}</text>
</g>
<!-- 3&#45;&gt;2 -->
<g id="edge24" class="edge">
<title>3&#45;&gt;2</title>
<path fill="none" stroke="black" d="M279.69,-99.23C300.3,-84.78 331.48,-63.09 334.55,-62 425.74,-29.58 459.26,-73.1 551.55,-44 554.56,-43.05 557.59,-41.82 560.54,-40.42"/>
<polygon fill="black" stroke="black" points="562.44,-43.37 569.61,-35.57 559.14,-37.2 562.44,-43.37"/>
<text text-anchor="middle" x="358.05" y="-65.8" font-family="Times,serif" font-size="14.00">{c1, c2}</text>
</g>
<!-- 3&#45;&gt;2 -->
<g id="edge25" class="edge">
<title>3&#45;&gt;2</title>
<path fill="none" stroke="black" d="M287.15,-106.84C311.99,-101.3 350.4,-91.32 381.55,-77 392.64,-71.9 393.09,-66.18 404.55,-62 466.39,-39.44 489.18,-65.01 551.55,-44 554.48,-43.02 557.42,-41.78 560.31,-40.4"/>
<polygon fill="black" stroke="black" points="562.03,-43.44 569.19,-35.64 558.72,-37.27 562.03,-43.44"/>
<text text-anchor="middle" x="418.05" y="-65.8" font-family="Times,serif" font-size="14.00">{c2}</text>
</g>
<!-- 3&#45;&gt;3 -->
<g id="edge20" class="edge">
<title>3&#45;&gt;3</title>
<path fill="none" stroke="black" d="M286.09,-120.75C297.06,-121.49 306.55,-118.91 306.55,-113 306.55,-109.03 302.27,-106.56 296.13,-105.59"/>
<polygon fill="black" stroke="black" points="296.2,-102.09 286.09,-105.25 295.96,-109.09 296.2,-102.09"/>
<text text-anchor="middle" x="313.55" y="-109.3" font-family="Times,serif" font-size="14.00">{}</text>
</g>
<!-- 4 -->
<g id="node6" class="node">
<title>4</title>
<ellipse fill="none" stroke="black" cx="73.55" cy="-22" rx="18" ry="18"/>
<ellipse fill="none" stroke="black" cx="73.55" cy="-22" rx="22" ry="22"/>
<text text-anchor="middle" x="73.55" y="-18.3" font-family="Times,serif" font-size="14.00">4</text>
</g>
<!-- 3&#45;&gt;4 -->
<g id="edge18" class="edge">
<title>3&#45;&gt;4</title>
<path fill="none" stroke="black" d="M234.29,-112.58C174.37,-113.2 34.17,-110.92 4.55,-77 -11.08,-59.09 18.08,-42.93 43.17,-33.05"/>
<polygon fill="black" stroke="black" points="44.68,-36.22 52.84,-29.46 42.24,-29.66 44.68,-36.22"/>
<text text-anchor="middle" x="28.05" y="-65.8" font-family="Times,serif" font-size="14.00">{c0, c1}</text>
</g>
<!-- 3&#45;&gt;4 -->
<g id="edge19" class="edge">
<title>3&#45;&gt;4</title>
<path fill="none" stroke="black" d="M234.71,-111C188.01,-108.63 94.82,-100.96 74.55,-77 69.09,-70.54 67.35,-61.92 67.39,-53.46"/>
<polygon fill="black" stroke="black" points="70.89,-53.64 68.2,-43.39 63.91,-53.08 70.89,-53.64"/>
<text text-anchor="middle" x="88.05" y="-65.8" font-family="Times,serif" font-size="14.00">{c0}</text>
</g>
<!-- 3&#45;&gt;4 -->
<g id="edge21" class="edge">
<title>3&#45;&gt;4</title>
<path fill="none" stroke="black" d="M234.9,-109.63C206,-106.1 159.35,-97.49 124.55,-77 112.28,-69.77 101.1,-58.73 92.36,-48.51"/>
<polygon fill="black" stroke="black" points="94.92,-46.12 85.89,-40.57 89.5,-50.54 94.92,-46.12"/>
<text text-anchor="middle" x="148.05" y="-65.8" font-family="Times,serif" font-size="14.00">{c0, c2}</text>
</g>
<!-- 3&#45;&gt;4 -->
<g id="edge22" class="edge">
<title>3&#45;&gt;4</title>
<path fill="none" stroke="black" d="M240.45,-101.63C227.11,-94.92 209.62,-85.82 194.55,-77 184.02,-70.83 182.39,-67.62 171.55,-62 149.68,-50.66 123.73,-40.47 104.03,-33.35"/>
<polygon fill="black" stroke="black" points="104.94,-29.96 94.35,-29.92 102.6,-36.56 104.94,-29.96"/>
<text text-anchor="middle" x="228.05" y="-65.8" font-family="Times,serif" font-size="14.00">{c0, c1, c2}</text>
</g>
<!-- 4&#45;&gt;4 -->
<g id="edge10" class="edge">
<title>4&#45;&gt;4</title>
<path fill="none" stroke="black" d="M95.77,-23.48C105.35,-23.6 113.55,-23.11 113.55,-22 113.55,-21.32 110.51,-20.88 105.96,-20.66"/>
<polygon fill="black" stroke="black" points="105.81,-17.16 95.77,-20.52 105.72,-24.15 105.81,-17.16"/>
<text text-anchor="middle" x="147.05" y="-18.3" font-family="Times,serif" font-size="14.00">{c0, c1, c2}</text>
</g>
<!-- 4&#45;&gt;4 -->
<g id="edge11" class="edge">
<title>4&#45;&gt;4</title>
<path fill="none" stroke="black" d="M95.9,-24.13C128.64,-25.79 180.55,-25.08 180.55,-22 180.55,-19.22 138.28,-18.37 105.97,-19.45"/>
<polygon fill="black" stroke="black" points="105.75,-15.96 95.9,-19.87 106.04,-22.95 105.75,-15.96"/>
<text text-anchor="middle" x="194.05" y="-18.3" font-family="Times,serif" font-size="14.00">{c2}</text>
</g>
<!-- 4&#45;&gt;4 -->
<g id="edge12" class="edge">
<title>4&#45;&gt;4</title>
<path fill="none" stroke="black" d="M95.62,-24.76C136.16,-27.78 207.55,-26.86 207.55,-22 207.55,-17.52 146.88,-16.38 105.64,-18.6"/>
<polygon fill="black" stroke="black" points="105.38,-15.11 95.62,-19.24 105.82,-22.1 105.38,-15.11"/>
<text text-anchor="middle" x="231.05" y="-18.3" font-family="Times,serif" font-size="14.00">{c1, c2}</text>
</g>
<!-- 4&#45;&gt;4 -->
<g id="edge13" class="edge">
<title>4&#45;&gt;4</title>
<path fill="none" stroke="black" d="M95.52,-25.13C147.51,-29.81 254.55,-28.77 254.55,-22 254.55,-15.64 160.08,-14.34 105.54,-18.08"/>
<polygon fill="black" stroke="black" points="105.22,-14.6 95.52,-18.87 105.77,-21.57 105.22,-14.6"/>
<text text-anchor="middle" x="261.55" y="-18.3" font-family="Times,serif" font-size="14.00">{}</text>
</g>
<!-- 4&#45;&gt;4 -->
<g id="edge14" class="edge">
<title>4&#45;&gt;4</title>
<path fill="none" stroke="black" d="M95.49,-25.58C152.61,-31.81 272.55,-30.61 272.55,-22 272.55,-13.87 165.82,-12.35 105.77,-17.43"/>
<polygon fill="black" stroke="black" points="105.11,-13.98 95.49,-18.42 105.78,-20.95 105.11,-13.98"/>
<text text-anchor="middle" x="286.05" y="-18.3" font-family="Times,serif" font-size="14.00">{c1}</text>
</g>
<!-- 4&#45;&gt;4 -->
<g id="edge15" class="edge">
<title>4&#45;&gt;4</title>
<path fill="none" stroke="black" d="M95.28,-25.88C159.07,-33.82 299.55,-32.52 299.55,-22 299.55,-12.01 172.98,-10.34 105.56,-16.98"/>
<polygon fill="black" stroke="black" points="104.83,-13.54 95.28,-18.12 105.6,-20.49 104.83,-13.54"/>
<text text-anchor="middle" x="323.05" y="-18.3" font-family="Times,serif" font-size="14.00">{c0, c1}</text>
</g>
<!-- 4&#45;&gt;4 -->
<g id="edge16" class="edge">
<title>4&#45;&gt;4</title>
<path fill="none" stroke="black" d="M95.48,-26.09C169.14,-35.83 346.55,-34.47 346.55,-22 346.55,-10.07 184.06,-8.31 105.52,-16.71"/>
<polygon fill="black" stroke="black" points="104.99,-13.25 95.48,-17.91 105.82,-20.2 104.99,-13.25"/>
<text text-anchor="middle" x="370.05" y="-18.3" font-family="Times,serif" font-size="14.00">{c0, c2}</text>
</g>
<!-- 4&#45;&gt;4 -->
<g id="edge17" class="edge">
<title>4&#45;&gt;4</title>
<path fill="none" stroke="black" d="M95.31,-26.23C178.06,-37.85 393.55,-36.44 393.55,-22 393.55,-8.11 194.16,-6.28 105.32,-16.5"/>
<polygon fill="black" stroke="black" points="104.79,-13.04 95.31,-17.77 105.67,-19.98 104.79,-13.04"/>
<text text-anchor="middle" x="407.05" y="-18.3" font-family="Times,serif" font-size="14.00">{c0}</text>
</g>
</g>
</svg>
