<?xml version="1.0" encoding="UTF-8" standalone="no"?>
<!DOCTYPE svg PUBLIC "-//W3C//DTD SVG 1.1//EN"
 "http://www.w3.org/Graphics/SVG/1.1/DTD/svg11.dtd">
<!-- Generated by graphviz version 2.43.0 (0)
 -->
<!-- Title: %3 Pages: 1 -->
<svg width="1053pt" height="386pt"
 viewBox="0.00 0.00 1053.26 386.00" xmlns="http://www.w3.org/2000/svg" xmlns:xlink="http://www.w3.org/1999/xlink">
<g id="graph0" class="graph" transform="scale(1 1) rotate(0) translate(4 382)">
<title>%3</title>
<polygon fill="white" stroke="transparent" points="-4,4 -4,-382 1049.26,-382 1049.26,4 -4,4"/>
<!-- fake -->
<g id="node1" class="node">
<title>fake</title>
</g>
<!-- 0 -->
<g id="node2" class="node">
<title>0</title>
<ellipse fill="none" stroke="black" cx="604.26" cy="-287" rx="27" ry="18"/>
<text text-anchor="middle" x="604.26" y="-283.3" font-family="Times,serif" font-size="14.00">0</text>
</g>
<!-- fake&#45;&gt;0 -->
<g id="edge1" class="edge">
<title>fake&#45;&gt;0</title>
<path fill="none" stroke="black" stroke-width="2" d="M604.26,-341.81C604.26,-333.79 604.26,-324.05 604.26,-315.07"/>
<polygon fill="black" stroke="black" stroke-width="2" points="607.76,-315.03 604.26,-305.03 600.76,-315.03 607.76,-315.03"/>
</g>
<!-- 0&#45;&gt;0 -->
<g id="edge10" class="edge">
<title>0&#45;&gt;0</title>
<path fill="none" stroke="black" d="M629.7,-293.69C640.29,-294.15 649.26,-291.92 649.26,-287 649.26,-283.77 645.39,-281.7 639.75,-280.79"/>
<polygon fill="black" stroke="black" points="639.86,-277.29 629.7,-280.31 639.52,-284.28 639.86,-277.29"/>
<text text-anchor="middle" x="656.26" y="-283.3" font-family="Times,serif" font-size="14.00">{}</text>
</g>
<!-- 1 -->
<g id="node3" class="node">
<title>1</title>
<ellipse fill="none" stroke="black" cx="444.26" cy="-200" rx="27" ry="18"/>
<text text-anchor="middle" x="444.26" y="-196.3" font-family="Times,serif" font-size="14.00">1</text>
</g>
<!-- 0&#45;&gt;1 -->
<g id="edge11" class="edge">
<title>0&#45;&gt;1</title>
<path fill="none" stroke="black" d="M577.07,-286.06C522.15,-285.56 401,-280.98 375.26,-251 361.03,-234.43 386.17,-220.34 410,-211.38"/>
<polygon fill="black" stroke="black" points="411.39,-214.6 419.66,-207.98 409.07,-208 411.39,-214.6"/>
<text text-anchor="middle" x="398.76" y="-239.8" font-family="Times,serif" font-size="14.00">{c0, c2}</text>
</g>
<!-- 0&#45;&gt;1 -->
<g id="edge12" class="edge">
<title>0&#45;&gt;1</title>
<path fill="none" stroke="black" d="M577.52,-284.02C536.68,-280.39 461.75,-271.1 445.26,-251 440.07,-244.68 438.57,-236.23 438.74,-228.09"/>
<polygon fill="black" stroke="black" points="442.22,-228.4 439.7,-218.12 435.25,-227.73 442.22,-228.4"/>
<text text-anchor="middle" x="468.76" y="-239.8" font-family="Times,serif" font-size="14.00">{c0, c1}</text>
</g>
<!-- 0&#45;&gt;1 -->
<g id="edge13" class="edge">
<title>0&#45;&gt;1</title>
<path fill="none" stroke="black" d="M580.53,-278.41C562.19,-272.13 536.45,-262.42 515.26,-251 510.5,-248.43 488.76,-233.03 470.58,-219.99"/>
<polygon fill="black" stroke="black" points="472.19,-216.84 462.03,-213.85 468.1,-222.52 472.19,-216.84"/>
<text text-anchor="middle" x="548.76" y="-239.8" font-family="Times,serif" font-size="14.00">{c0, c1, c2}</text>
</g>
<!-- 0&#45;&gt;1 -->
<g id="edge14" class="edge">
<title>0&#45;&gt;1</title>
<path fill="none" stroke="black" d="M600.78,-268.83C597.7,-257.92 592.1,-244.33 582.26,-236 554.07,-212.15 511.79,-204.21 481.46,-201.74"/>
<polygon fill="black" stroke="black" points="481.48,-198.24 471.27,-201.08 481.03,-205.22 481.48,-198.24"/>
<text text-anchor="middle" x="605.76" y="-239.8" font-family="Times,serif" font-size="14.00">{c0}</text>
</g>
<!-- 2 -->
<g id="node4" class="node">
<title>2</title>
<ellipse fill="none" stroke="black" cx="571.26" cy="-22" rx="27" ry="18"/>
<text text-anchor="middle" x="571.26" y="-18.3" font-family="Times,serif" font-size="14.00">2</text>
</g>
<!-- 0&#45;&gt;2 -->
<g id="edge15" class="edge">
<title>0&#45;&gt;2</title>
<path fill="none" stroke="black" d="M614.93,-270.31C618.29,-264.51 621.56,-257.7 623.26,-251 632.48,-214.69 691.03,-337.71 615.26,-95 609.78,-77.45 599.1,-59.8 589.63,-46.37"/>
<polygon fill="black" stroke="black" points="592.38,-44.2 583.65,-38.2 586.73,-48.33 592.38,-44.2"/>
<text text-anchor="middle" x="648.76" y="-152.8" font-family="Times,serif" font-size="14.00">{c1}</text>
</g>
<!-- 0&#45;&gt;2 -->
<g id="edge16" class="edge">
<title>0&#45;&gt;2</title>
<path fill="none" stroke="black" d="M625.3,-275.36C634.93,-269.45 645.64,-261.21 652.26,-251 677.14,-212.6 677.87,-193.26 666.26,-149 655,-106.07 645.52,-96.22 617.26,-62 611.41,-54.92 604.17,-48.12 597.18,-42.23"/>
<polygon fill="black" stroke="black" points="599.17,-39.33 589.19,-35.77 594.77,-44.78 599.17,-39.33"/>
<text text-anchor="middle" x="682.76" y="-152.8" font-family="Times,serif" font-size="14.00">{c2}</text>
</g>
<!-- 0&#45;&gt;2 -->
<g id="edge17" class="edge">
<title>0&#45;&gt;2</title>
<path fill="none" stroke="black" d="M627.77,-277.97C641.61,-272.25 658.62,-263.37 670.26,-251 702.64,-216.58 713.66,-194.31 700.26,-149 686.72,-103.22 673.76,-92.77 637.26,-62 626.5,-52.93 613.37,-44.7 601.66,-38.16"/>
<polygon fill="black" stroke="black" points="603.11,-34.97 592.65,-33.3 599.79,-41.13 603.11,-34.97"/>
<text text-anchor="middle" x="726.76" y="-152.8" font-family="Times,serif" font-size="14.00">{c1, c2}</text>
</g>
<!-- 1&#45;&gt;1 -->
<g id="edge26" class="edge">
<title>1&#45;&gt;1</title>
<path fill="none" stroke="black" d="M468.79,-207.75C479.77,-208.49 489.26,-205.91 489.26,-200 489.26,-196.03 484.97,-193.56 478.83,-192.59"/>
<polygon fill="black" stroke="black" points="478.91,-189.09 468.79,-192.25 478.66,-196.09 478.91,-189.09"/>
<text text-anchor="middle" x="496.26" y="-196.3" font-family="Times,serif" font-size="14.00">{}</text>
</g>
<!-- 1&#45;&gt;2 -->
<g id="edge31" class="edge">
<title>1&#45;&gt;2</title>
<path fill="none" stroke="black" d="M443.37,-181.75C443,-160.22 444.8,-122.85 459.26,-95 478.01,-58.9 499.01,-62.45 535.26,-44 537.86,-42.68 540.53,-41.25 543.19,-39.78"/>
<polygon fill="black" stroke="black" points="545.09,-42.73 552.05,-34.75 541.63,-36.65 545.09,-42.73"/>
<text text-anchor="middle" x="472.76" y="-109.3" font-family="Times,serif" font-size="14.00">{c2}</text>
</g>
<!-- 1&#45;&gt;2 -->
<g id="edge32" class="edge">
<title>1&#45;&gt;2</title>
<path fill="none" stroke="black" d="M455.53,-183.38C477.84,-152.46 527.76,-83.29 554.15,-46.71"/>
<polygon fill="black" stroke="black" points="557,-48.74 560.01,-38.58 551.32,-44.65 557,-48.74"/>
<text text-anchor="middle" x="531.76" y="-109.3" font-family="Times,serif" font-size="14.00">{c0}</text>
</g>
<!-- 1&#45;&gt;2 -->
<g id="edge33" class="edge">
<title>1&#45;&gt;2</title>
<path fill="none" stroke="black" d="M467.42,-190.37C491.74,-180.06 529.19,-160.43 549.26,-131 565.55,-107.12 570.27,-73.81 571.41,-50.52"/>
<polygon fill="black" stroke="black" points="574.91,-50.38 571.71,-40.29 567.92,-50.18 574.91,-50.38"/>
<text text-anchor="middle" x="587.76" y="-109.3" font-family="Times,serif" font-size="14.00">{c0, c2}</text>
</g>
<!-- 3 -->
<g id="node5" class="node">
<title>3</title>
<ellipse fill="none" stroke="black" cx="243.26" cy="-113" rx="27" ry="18"/>
<text text-anchor="middle" x="243.26" y="-109.3" font-family="Times,serif" font-size="14.00">3</text>
</g>
<!-- 1&#45;&gt;3 -->
<g id="edge27" class="edge">
<title>1&#45;&gt;3</title>
<path fill="none" stroke="black" d="M417.33,-197.5C352.18,-193.58 190.17,-182.11 174.26,-164 159.84,-147.59 185.01,-133.48 208.9,-124.47"/>
<polygon fill="black" stroke="black" points="210.33,-127.68 218.59,-121.04 207.99,-121.08 210.33,-127.68"/>
<text text-anchor="middle" x="197.76" y="-152.8" font-family="Times,serif" font-size="14.00">{c1, c2}</text>
</g>
<!-- 1&#45;&gt;3 -->
<g id="edge28" class="edge">
<title>1&#45;&gt;3</title>
<path fill="none" stroke="black" d="M417.14,-198.35C367.77,-196.53 266.29,-189.69 244.26,-164 238.85,-157.7 237.35,-149.13 237.58,-140.86"/>
<polygon fill="black" stroke="black" points="241.08,-141.06 238.65,-130.75 234.12,-140.33 241.08,-141.06"/>
<text text-anchor="middle" x="277.76" y="-152.8" font-family="Times,serif" font-size="14.00">{c0, c1, c2}</text>
</g>
<!-- 1&#45;&gt;3 -->
<g id="edge29" class="edge">
<title>1&#45;&gt;3</title>
<path fill="none" stroke="black" d="M419.07,-193.06C396.28,-187.21 362.14,-177.23 334.26,-164 323.23,-158.77 321.81,-155.13 311.26,-149 299.21,-142 285.62,-134.85 273.76,-128.86"/>
<polygon fill="black" stroke="black" points="275.2,-125.67 264.69,-124.33 272.07,-131.93 275.2,-125.67"/>
<text text-anchor="middle" x="347.76" y="-152.8" font-family="Times,serif" font-size="14.00">{c1}</text>
</g>
<!-- 1&#45;&gt;3 -->
<g id="edge30" class="edge">
<title>1&#45;&gt;3</title>
<path fill="none" stroke="black" d="M424.38,-187.74C412.63,-180.99 397.5,-172.17 384.26,-164 373.87,-157.59 372.34,-154.12 361.26,-149 334.61,-136.68 302.59,-127.5 278.63,-121.64"/>
<polygon fill="black" stroke="black" points="279.43,-118.24 268.89,-119.34 277.81,-125.05 279.43,-118.24"/>
<text text-anchor="middle" x="407.76" y="-152.8" font-family="Times,serif" font-size="14.00">{c0, c1}</text>
</g>
<!-- 2&#45;&gt;2 -->
<g id="edge34" class="edge">
<title>2&#45;&gt;2</title>
<path fill="none" stroke="black" d="M598.5,-23.5C608.28,-23.53 616.26,-23.03 616.26,-22 616.26,-21.37 613.3,-20.94 608.77,-20.71"/>
<polygon fill="black" stroke="black" points="608.57,-17.2 598.5,-20.5 608.43,-24.2 608.57,-17.2"/>
<text text-anchor="middle" x="629.76" y="-18.3" font-family="Times,serif" font-size="14.00">{c1}</text>
</g>
<!-- 2&#45;&gt;2 -->
<g id="edge35" class="edge">
<title>2&#45;&gt;2</title>
<path fill="none" stroke="black" d="M598.01,-24.61C619.7,-25.59 643.26,-24.72 643.26,-22 643.26,-19.71 626.49,-18.73 608.22,-19.06"/>
<polygon fill="black" stroke="black" points="607.89,-15.57 598.01,-19.39 608.12,-22.57 607.89,-15.57"/>
<text text-anchor="middle" x="676.76" y="-18.3" font-family="Times,serif" font-size="14.00">{c0, c1, c2}</text>
</g>
<!-- 2&#45;&gt;2 -->
<g id="edge36" class="edge">
<title>2&#45;&gt;2</title>
<path fill="none" stroke="black" d="M598.16,-25.02C640.87,-27.73 710.26,-26.72 710.26,-22 710.26,-17.64 651.04,-16.45 608.34,-18.43"/>
<polygon fill="black" stroke="black" points="607.95,-14.94 598.16,-18.98 608.33,-21.93 607.95,-14.94"/>
<text text-anchor="middle" x="733.76" y="-18.3" font-family="Times,serif" font-size="14.00">{c0, c1}</text>
</g>
<!-- 2&#45;&gt;2 -->
<g id="edge37" class="edge">
<title>2&#45;&gt;2</title>
<path fill="none" stroke="black" d="M597.91,-25.45C652.83,-29.76 757.26,-28.61 757.26,-22 757.26,-15.78 664.71,-14.4 608.04,-17.85"/>
<polygon fill="black" stroke="black" points="607.65,-14.37 597.91,-18.55 608.13,-21.35 607.65,-14.37"/>
<text text-anchor="middle" x="770.76" y="-18.3" font-family="Times,serif" font-size="14.00">{c2}</text>
</g>
<!-- 2&#45;&gt;2 -->
<g id="edge38" class="edge">
<title>2&#45;&gt;2</title>
<path fill="none" stroke="black" d="M597.82,-25.91C659.81,-31.76 784.26,-30.46 784.26,-22 784.26,-13.99 672.59,-12.4 608.12,-17.22"/>
<polygon fill="black" stroke="black" points="607.49,-13.76 597.82,-18.09 608.08,-20.74 607.49,-13.76"/>
<text text-anchor="middle" x="797.76" y="-18.3" font-family="Times,serif" font-size="14.00">{c0}</text>
</g>
<!-- 2&#45;&gt;2 -->
<g id="edge39" class="edge">
<title>2&#45;&gt;2</title>
<path fill="none" stroke="black" d="M597.71,-26.3C666.59,-33.77 811.26,-32.34 811.26,-22 811.26,-12.15 679.84,-10.38 607.88,-16.71"/>
<polygon fill="black" stroke="black" points="607.33,-13.25 597.71,-17.7 608.01,-20.21 607.33,-13.25"/>
<text text-anchor="middle" x="834.76" y="-18.3" font-family="Times,serif" font-size="14.00">{c1, c2}</text>
</g>
<!-- 2&#45;&gt;2 -->
<g id="edge40" class="edge">
<title>2&#45;&gt;2</title>
<path fill="none" stroke="black" d="M597.44,-26.5C676.36,-35.79 858.26,-34.29 858.26,-22 858.26,-10.2 690.63,-8.35 607.4,-16.43"/>
<polygon fill="black" stroke="black" points="607.01,-12.96 597.44,-17.5 607.76,-19.92 607.01,-12.96"/>
<text text-anchor="middle" x="881.76" y="-18.3" font-family="Times,serif" font-size="14.00">{c0, c2}</text>
</g>
<!-- 2&#45;&gt;2 -->
<g id="edge41" class="edge">
<title>2&#45;&gt;2</title>
<path fill="none" stroke="black" d="M597.5,-26.71C686.02,-37.81 905.26,-36.23 905.26,-22 905.26,-8.28 701.58,-6.32 607.59,-16.13"/>
<polygon fill="black" stroke="black" points="607.04,-12.68 597.5,-17.29 607.83,-19.63 607.04,-12.68"/>
<text text-anchor="middle" x="912.26" y="-18.3" font-family="Times,serif" font-size="14.00">{}</text>
</g>
<!-- 3&#45;&gt;2 -->
<g id="edge23" class="edge">
<title>3&#45;&gt;2</title>
<path fill="none" stroke="black" d="M251.99,-95.45C259.04,-83.91 270.1,-69.33 284.26,-62 333.92,-36.29 481.83,-60.52 535.26,-44 538.27,-43.07 541.3,-41.85 544.26,-40.46"/>
<polygon fill="black" stroke="black" points="546.16,-43.41 553.33,-35.61 542.86,-37.24 546.16,-43.41"/>
<text text-anchor="middle" x="297.76" y="-65.8" font-family="Times,serif" font-size="14.00">{c1}</text>
</g>
<!-- 3&#45;&gt;2 -->
<g id="edge24" class="edge">
<title>3&#45;&gt;2</title>
<path fill="none" stroke="black" d="M264.69,-101.67C278.23,-94.98 295.99,-85.88 311.26,-77 321.81,-70.87 322.73,-66 334.26,-62 419,-32.63 449.81,-71.25 535.26,-44 538.26,-43.04 541.29,-41.8 544.24,-40.4"/>
<polygon fill="black" stroke="black" points="546.14,-43.35 553.3,-35.54 542.84,-37.18 546.14,-43.35"/>
<text text-anchor="middle" x="357.76" y="-65.8" font-family="Times,serif" font-size="14.00">{c0, c1}</text>
</g>
<!-- 3&#45;&gt;2 -->
<g id="edge25" class="edge">
<title>3&#45;&gt;2</title>
<path fill="none" stroke="black" d="M269.27,-108.04C297.66,-103.12 344.02,-93.32 381.26,-77 392.44,-72.1 392.83,-66.27 404.26,-62 459.32,-41.45 479.7,-63.17 535.26,-44 538.17,-42.99 541.12,-41.74 544,-40.35"/>
<polygon fill="black" stroke="black" points="545.72,-43.4 552.87,-35.58 542.41,-37.23 545.72,-43.4"/>
<text text-anchor="middle" x="417.76" y="-65.8" font-family="Times,serif" font-size="14.00">{c0}</text>
</g>
<!-- 3&#45;&gt;3 -->
<g id="edge20" class="edge">
<title>3&#45;&gt;3</title>
<path fill="none" stroke="black" d="M267.79,-120.75C278.77,-121.49 288.26,-118.91 288.26,-113 288.26,-109.03 283.97,-106.56 277.83,-105.59"/>
<polygon fill="black" stroke="black" points="277.91,-102.09 267.79,-105.25 277.66,-109.09 277.91,-102.09"/>
<text text-anchor="middle" x="295.26" y="-109.3" font-family="Times,serif" font-size="14.00">{}</text>
</g>
<!-- 4 -->
<g id="node6" class="node">
<title>4</title>
<ellipse fill="none" stroke="black" cx="57.26" cy="-22" rx="18" ry="18"/>
<ellipse fill="none" stroke="black" cx="57.26" cy="-22" rx="22" ry="22"/>
<text text-anchor="middle" x="57.26" y="-18.3" font-family="Times,serif" font-size="14.00">4</text>
</g>
<!-- 3&#45;&gt;4 -->
<g id="edge18" class="edge">
<title>3&#45;&gt;4</title>
<path fill="none" stroke="black" d="M216.19,-112.26C159.53,-112.17 31.41,-108.41 4.26,-77 -8.07,-62.74 10.08,-47.49 28.41,-36.85"/>
<polygon fill="black" stroke="black" points="30.18,-39.88 37.29,-32.02 26.84,-33.73 30.18,-39.88"/>
<text text-anchor="middle" x="27.76" y="-65.8" font-family="Times,serif" font-size="14.00">{c0, c2}</text>
</g>
<!-- 3&#45;&gt;4 -->
<g id="edge19" class="edge">
<title>3&#45;&gt;4</title>
<path fill="none" stroke="black" d="M216.56,-109.74C174.35,-105.64 94.87,-95.64 74.26,-77 67.66,-71.03 63.6,-62.53 61.11,-54.03"/>
<polygon fill="black" stroke="black" points="64.5,-53.17 58.85,-44.21 57.68,-54.74 64.5,-53.17"/>
<text text-anchor="middle" x="87.76" y="-65.8" font-family="Times,serif" font-size="14.00">{c2}</text>
</g>
<!-- 3&#45;&gt;4 -->
<g id="edge21" class="edge">
<title>3&#45;&gt;4</title>
<path fill="none" stroke="black" d="M217.55,-107.48C192.67,-102.41 154.4,-92.78 124.26,-77 115.13,-72.22 96.38,-56.91 81.04,-43.81"/>
<polygon fill="black" stroke="black" points="83.25,-41.1 73.39,-37.23 78.68,-46.4 83.25,-41.1"/>
<text text-anchor="middle" x="157.76" y="-65.8" font-family="Times,serif" font-size="14.00">{c0, c1, c2}</text>
</g>
<!-- 3&#45;&gt;4 -->
<g id="edge22" class="edge">
<title>3&#45;&gt;4</title>
<path fill="none" stroke="black" d="M231.07,-96.85C221.37,-85.72 206.87,-71.03 191.26,-62 159.09,-43.39 117.36,-33.08 89.07,-27.8"/>
<polygon fill="black" stroke="black" points="89.4,-24.31 78.94,-26.02 88.18,-31.2 89.4,-24.31"/>
<text text-anchor="middle" x="234.76" y="-65.8" font-family="Times,serif" font-size="14.00">{c1, c2}</text>
</g>
<!-- 4&#45;&gt;4 -->
<g id="edge2" class="edge">
<title>4&#45;&gt;4</title>
<path fill="none" stroke="black" d="M79.47,-23.48C89.05,-23.6 97.26,-23.11 97.26,-22 97.26,-21.32 94.21,-20.88 89.66,-20.66"/>
<polygon fill="black" stroke="black" points="89.52,-17.16 79.47,-20.52 89.42,-24.15 89.52,-17.16"/>
<text text-anchor="middle" x="130.76" y="-18.3" font-family="Times,serif" font-size="14.00">{c0, c1, c2}</text>
</g>
<!-- 4&#45;&gt;4 -->
<g id="edge3" class="edge">
<title>4&#45;&gt;4</title>
<path fill="none" stroke="black" d="M79.6,-24.13C112.34,-25.79 164.26,-25.08 164.26,-22 164.26,-19.22 121.99,-18.37 89.68,-19.45"/>
<polygon fill="black" stroke="black" points="89.45,-15.96 79.6,-19.87 89.74,-22.95 89.45,-15.96"/>
<text text-anchor="middle" x="177.76" y="-18.3" font-family="Times,serif" font-size="14.00">{c2}</text>
</g>
<!-- 4&#45;&gt;4 -->
<g id="edge4" class="edge">
<title>4&#45;&gt;4</title>
<path fill="none" stroke="black" d="M79.32,-24.76C119.87,-27.78 191.26,-26.86 191.26,-22 191.26,-17.52 130.59,-16.38 89.34,-18.6"/>
<polygon fill="black" stroke="black" points="89.08,-15.11 79.32,-19.24 89.53,-22.1 89.08,-15.11"/>
<text text-anchor="middle" x="214.76" y="-18.3" font-family="Times,serif" font-size="14.00">{c0, c2}</text>
</g>
<!-- 4&#45;&gt;4 -->
<g id="edge5" class="edge">
<title>4&#45;&gt;4</title>
<path fill="none" stroke="black" d="M79.23,-25.13C131.21,-29.81 238.26,-28.77 238.26,-22 238.26,-15.64 143.78,-14.34 89.24,-18.08"/>
<polygon fill="black" stroke="black" points="88.92,-14.6 79.23,-18.87 89.47,-21.57 88.92,-14.6"/>
<text text-anchor="middle" x="261.76" y="-18.3" font-family="Times,serif" font-size="14.00">{c0, c1}</text>
</g>
<!-- 4&#45;&gt;4 -->
<g id="edge6" class="edge">
<title>4&#45;&gt;4</title>
<path fill="none" stroke="black" d="M79.02,-25.41C141.23,-31.83 285.26,-30.69 285.26,-22 285.26,-13.75 155.48,-12.31 89.1,-17.67"/>
<polygon fill="black" stroke="black" points="88.66,-14.19 79.02,-18.59 89.3,-21.17 88.66,-14.19"/>
<text text-anchor="middle" x="298.76" y="-18.3" font-family="Times,serif" font-size="14.00">{c0}</text>
</g>
<!-- 4&#45;&gt;4 -->
<g id="edge7" class="edge">
<title>4&#45;&gt;4</title>
<path fill="none" stroke="black" d="M79.27,-25.78C148.02,-33.83 312.26,-32.57 312.26,-22 312.26,-11.93 163.06,-10.31 89.54,-17.15"/>
<polygon fill="black" stroke="black" points="88.86,-13.7 79.27,-18.22 89.58,-20.67 88.86,-13.7"/>
<text text-anchor="middle" x="335.76" y="-18.3" font-family="Times,serif" font-size="14.00">{c1, c2}</text>
</g>
<!-- 4&#45;&gt;4 -->
<g id="edge8" class="edge">
<title>4&#45;&gt;4</title>
<path fill="none" stroke="black" d="M79.12,-25.96C157.08,-35.84 359.26,-34.52 359.26,-22 359.26,-9.98 172.94,-8.28 89.06,-16.9"/>
<polygon fill="black" stroke="black" points="88.66,-13.43 79.12,-18.04 89.45,-20.38 88.66,-13.43"/>
<text text-anchor="middle" x="372.76" y="-18.3" font-family="Times,serif" font-size="14.00">{c1}</text>
</g>
<!-- 4&#45;&gt;4 -->
<g id="edge9" class="edge">
<title>4&#45;&gt;4</title>
<path fill="none" stroke="black" d="M78.99,-26.19C162.95,-37.85 386.26,-36.45 386.26,-22 386.26,-8.1 179.64,-6.27 89.17,-16.53"/>
<polygon fill="black" stroke="black" points="88.47,-13.09 78.99,-17.81 89.34,-20.04 88.47,-13.09"/>
<text text-anchor="middle" x="393.26" y="-18.3" font-family="Times,serif" font-size="14.00">{}</text>
</g>
</g>
</svg>
