<?xml version="1.0" encoding="UTF-8" standalone="no"?>
<!DOCTYPE svg PUBLIC "-//W3C//DTD SVG 1.1//EN"
 "http://www.w3.org/Graphics/SVG/1.1/DTD/svg11.dtd">
<!-- Generated by graphviz version 2.43.0 (0)
 -->
<!-- Title: %3 Pages: 1 -->
<svg width="1069pt" height="386pt"
 viewBox="0.00 0.00 1069.45 386.00" xmlns="http://www.w3.org/2000/svg" xmlns:xlink="http://www.w3.org/1999/xlink">
<g id="graph0" class="graph" transform="scale(1 1) rotate(0) translate(4 382)">
<title>%3</title>
<polygon fill="white" stroke="transparent" points="-4,4 -4,-382 1065.45,-382 1065.45,4 -4,4"/>
<!-- fake -->
<g id="node1" class="node">
<title>fake</title>
</g>
<!-- 0 -->
<g id="node2" class="node">
<title>0</title>
<ellipse fill="none" stroke="black" cx="592.45" cy="-287" rx="27" ry="18"/>
<text text-anchor="middle" x="592.45" y="-283.3" font-family="Times,serif" font-size="14.00">0</text>
</g>
<!-- fake&#45;&gt;0 -->
<g id="edge1" class="edge">
<title>fake&#45;&gt;0</title>
<path fill="none" stroke="black" stroke-width="2" d="M592.45,-341.81C592.45,-333.79 592.45,-324.05 592.45,-315.07"/>
<polygon fill="black" stroke="black" stroke-width="2" points="595.95,-315.03 592.45,-305.03 588.95,-315.03 595.95,-315.03"/>
</g>
<!-- 0&#45;&gt;0 -->
<g id="edge11" class="edge">
<title>0&#45;&gt;0</title>
<path fill="none" stroke="black" d="M617.89,-293.69C628.48,-294.15 637.45,-291.92 637.45,-287 637.45,-283.77 633.58,-281.7 627.94,-280.79"/>
<polygon fill="black" stroke="black" points="628.05,-277.29 617.89,-280.31 627.71,-284.28 628.05,-277.29"/>
<text text-anchor="middle" x="644.45" y="-283.3" font-family="Times,serif" font-size="14.00">{}</text>
</g>
<!-- 1 -->
<g id="node3" class="node">
<title>1</title>
<ellipse fill="none" stroke="black" cx="443.45" cy="-200" rx="27" ry="18"/>
<text text-anchor="middle" x="443.45" y="-196.3" font-family="Times,serif" font-size="14.00">1</text>
</g>
<!-- 0&#45;&gt;1 -->
<g id="edge10" class="edge">
<title>0&#45;&gt;1</title>
<path fill="none" stroke="black" d="M565.26,-286.06C510.34,-285.56 389.19,-280.98 363.45,-251 346.89,-231.72 379.81,-217.44 408.3,-209.18"/>
<polygon fill="black" stroke="black" points="409.38,-212.52 418.11,-206.51 407.54,-205.76 409.38,-212.52"/>
<text text-anchor="middle" x="396.95" y="-239.8" font-family="Times,serif" font-size="14.00">{c0, c1, c2}</text>
</g>
<!-- 0&#45;&gt;1 -->
<g id="edge12" class="edge">
<title>0&#45;&gt;1</title>
<path fill="none" stroke="black" d="M566.15,-282.74C530.3,-277.76 468.76,-267.09 453.45,-251 447.7,-244.96 444.83,-236.59 443.49,-228.43"/>
<polygon fill="black" stroke="black" points="446.97,-228.01 442.52,-218.39 440,-228.68 446.97,-228.01"/>
<text text-anchor="middle" x="476.95" y="-239.8" font-family="Times,serif" font-size="14.00">{c0, c1}</text>
</g>
<!-- 0&#45;&gt;1 -->
<g id="edge13" class="edge">
<title>0&#45;&gt;1</title>
<path fill="none" stroke="black" d="M570.99,-275.86C557.21,-269.17 539.04,-260 523.45,-251 512.88,-244.9 510.76,-242.53 500.45,-236 491.1,-230.08 480.82,-223.73 471.59,-218.07"/>
<polygon fill="black" stroke="black" points="473.15,-214.92 462.79,-212.7 469.5,-220.9 473.15,-214.92"/>
<text text-anchor="middle" x="546.95" y="-239.8" font-family="Times,serif" font-size="14.00">{c0, c2}</text>
</g>
<!-- 0&#45;&gt;1 -->
<g id="edge14" class="edge">
<title>0&#45;&gt;1</title>
<path fill="none" stroke="black" d="M588.91,-268.9C585.81,-258.02 580.21,-244.43 570.45,-236 545.44,-214.39 508.18,-206.02 480.49,-202.84"/>
<polygon fill="black" stroke="black" points="480.68,-199.34 470.38,-201.85 480,-206.31 480.68,-199.34"/>
<text text-anchor="middle" x="593.95" y="-239.8" font-family="Times,serif" font-size="14.00">{c0}</text>
</g>
<!-- 2 -->
<g id="node4" class="node">
<title>2</title>
<ellipse fill="none" stroke="black" cx="587.45" cy="-22" rx="27" ry="18"/>
<text text-anchor="middle" x="587.45" y="-18.3" font-family="Times,serif" font-size="14.00">2</text>
</g>
<!-- 0&#45;&gt;2 -->
<g id="edge15" class="edge">
<title>0&#45;&gt;2</title>
<path fill="none" stroke="black" d="M603.12,-270.31C606.48,-264.51 609.75,-257.7 611.45,-251 614.53,-238.87 638.71,-272.21 610.45,-95 607.96,-79.41 602.73,-62.57 597.89,-49.09"/>
<polygon fill="black" stroke="black" points="601.09,-47.67 594.31,-39.53 594.53,-50.12 601.09,-47.67"/>
<text text-anchor="middle" x="642.95" y="-152.8" font-family="Times,serif" font-size="14.00">{c1, c2}</text>
</g>
<!-- 0&#45;&gt;2 -->
<g id="edge16" class="edge">
<title>0&#45;&gt;2</title>
<path fill="none" stroke="black" d="M608.98,-272.62C635.77,-249.2 684.35,-198.54 670.45,-149 659.05,-108.39 629.16,-69.02 608.54,-45.39"/>
<polygon fill="black" stroke="black" points="610.96,-42.84 601.68,-37.72 605.74,-47.51 610.96,-42.84"/>
<text text-anchor="middle" x="685.95" y="-152.8" font-family="Times,serif" font-size="14.00">{c1}</text>
</g>
<!-- 0&#45;&gt;2 -->
<g id="edge17" class="edge">
<title>0&#45;&gt;2</title>
<path fill="none" stroke="black" d="M613.91,-275.74C625.69,-269.52 640.16,-260.89 651.45,-251 689.72,-217.47 717.88,-197.8 703.45,-149 689.98,-103.47 676.02,-94.55 641.45,-62 633.28,-54.31 623.55,-46.85 614.61,-40.55"/>
<polygon fill="black" stroke="black" points="616.59,-37.66 606.37,-34.89 612.63,-43.43 616.59,-37.66"/>
<text text-anchor="middle" x="719.95" y="-152.8" font-family="Times,serif" font-size="14.00">{c2}</text>
</g>
<!-- 1&#45;&gt;1 -->
<g id="edge6" class="edge">
<title>1&#45;&gt;1</title>
<path fill="none" stroke="black" d="M467.98,-207.75C478.96,-208.49 488.45,-205.91 488.45,-200 488.45,-196.03 484.16,-193.56 478.02,-192.59"/>
<polygon fill="black" stroke="black" points="478.1,-189.09 467.98,-192.25 477.85,-196.09 478.1,-189.09"/>
<text text-anchor="middle" x="495.45" y="-196.3" font-family="Times,serif" font-size="14.00">{}</text>
</g>
<!-- 1&#45;&gt;2 -->
<g id="edge7" class="edge">
<title>1&#45;&gt;2</title>
<path fill="none" stroke="black" d="M441.47,-181.97C439.82,-160.01 440.02,-121.48 457.45,-95 483.58,-55.3 509.29,-65.96 551.45,-44 554.04,-42.65 556.7,-41.21 559.35,-39.73"/>
<polygon fill="black" stroke="black" points="561.26,-42.68 568.21,-34.68 557.79,-36.6 561.26,-42.68"/>
<text text-anchor="middle" x="480.95" y="-109.3" font-family="Times,serif" font-size="14.00">{c0, c2}</text>
</g>
<!-- 1&#45;&gt;2 -->
<g id="edge8" class="edge">
<title>1&#45;&gt;2</title>
<path fill="none" stroke="black" d="M457.11,-184.43C469.69,-170.85 488.74,-149.91 504.45,-131 527.93,-102.74 553.48,-69 569.94,-46.84"/>
<polygon fill="black" stroke="black" points="572.85,-48.79 575.99,-38.67 567.23,-44.63 572.85,-48.79"/>
<text text-anchor="middle" x="545.95" y="-109.3" font-family="Times,serif" font-size="14.00">{c2}</text>
</g>
<!-- 1&#45;&gt;2 -->
<g id="edge9" class="edge">
<title>1&#45;&gt;2</title>
<path fill="none" stroke="black" d="M467.76,-191.88C495.32,-182.52 539.52,-163.34 563.45,-131 580.88,-107.43 586.06,-73.58 587.4,-50.08"/>
<polygon fill="black" stroke="black" points="590.9,-50.21 587.77,-40.09 583.9,-49.95 590.9,-50.21"/>
<text text-anchor="middle" x="592.95" y="-109.3" font-family="Times,serif" font-size="14.00">{c0}</text>
</g>
<!-- 3 -->
<g id="node5" class="node">
<title>3</title>
<ellipse fill="none" stroke="black" cx="221.45" cy="-113" rx="27" ry="18"/>
<text text-anchor="middle" x="221.45" y="-109.3" font-family="Times,serif" font-size="14.00">3</text>
</g>
<!-- 1&#45;&gt;3 -->
<g id="edge2" class="edge">
<title>1&#45;&gt;3</title>
<path fill="none" stroke="black" d="M416.42,-197.5C351.03,-193.61 188.42,-182.17 172.45,-164 161.75,-151.83 175.48,-138.78 191.1,-129.06"/>
<polygon fill="black" stroke="black" points="192.91,-132.06 199.83,-124.03 189.42,-125.99 192.91,-132.06"/>
<text text-anchor="middle" x="185.95" y="-152.8" font-family="Times,serif" font-size="14.00">{c1}</text>
</g>
<!-- 1&#45;&gt;3 -->
<g id="edge3" class="edge">
<title>1&#45;&gt;3</title>
<path fill="none" stroke="black" d="M416.43,-198.86C363.13,-197.94 247.4,-192.63 222.45,-164 216.99,-157.74 215.47,-149.18 215.71,-140.91"/>
<polygon fill="black" stroke="black" points="219.21,-141.11 216.79,-130.79 212.25,-140.37 219.21,-141.11"/>
<text text-anchor="middle" x="245.95" y="-152.8" font-family="Times,serif" font-size="14.00">{c0, c1}</text>
</g>
<!-- 1&#45;&gt;3 -->
<g id="edge4" class="edge">
<title>1&#45;&gt;3</title>
<path fill="none" stroke="black" d="M417.09,-196.02C386.16,-191.82 333.84,-182.52 292.45,-164 287.51,-161.79 265.8,-146.34 247.67,-133.2"/>
<polygon fill="black" stroke="black" points="249.29,-130.05 239.14,-127 245.17,-135.71 249.29,-130.05"/>
<text text-anchor="middle" x="315.95" y="-152.8" font-family="Times,serif" font-size="14.00">{c1, c2}</text>
</g>
<!-- 1&#45;&gt;3 -->
<g id="edge5" class="edge">
<title>1&#45;&gt;3</title>
<path fill="none" stroke="black" d="M420.62,-190.34C404.12,-183.8 381.48,-174.22 362.45,-164 351.7,-158.23 350.53,-154.12 339.45,-149 312.8,-136.68 280.78,-127.5 256.82,-121.64"/>
<polygon fill="black" stroke="black" points="257.62,-118.24 247.08,-119.34 256,-125.05 257.62,-118.24"/>
<text text-anchor="middle" x="395.95" y="-152.8" font-family="Times,serif" font-size="14.00">{c0, c1, c2}</text>
</g>
<!-- 2&#45;&gt;2 -->
<g id="edge34" class="edge">
<title>2&#45;&gt;2</title>
<path fill="none" stroke="black" d="M614.69,-23.5C624.47,-23.53 632.45,-23.03 632.45,-22 632.45,-21.37 629.49,-20.94 624.96,-20.71"/>
<polygon fill="black" stroke="black" points="624.76,-17.2 614.69,-20.5 624.62,-24.2 624.76,-17.2"/>
<text text-anchor="middle" x="655.95" y="-18.3" font-family="Times,serif" font-size="14.00">{c0, c2}</text>
</g>
<!-- 2&#45;&gt;2 -->
<g id="edge35" class="edge">
<title>2&#45;&gt;2</title>
<path fill="none" stroke="black" d="M614.34,-24.43C642.77,-25.68 679.45,-24.87 679.45,-22 679.45,-19.46 650.86,-18.53 624.6,-19.22"/>
<polygon fill="black" stroke="black" points="624.21,-15.73 614.34,-19.57 624.46,-22.72 624.21,-15.73"/>
<text text-anchor="middle" x="702.95" y="-18.3" font-family="Times,serif" font-size="14.00">{c1, c2}</text>
</g>
<!-- 2&#45;&gt;2 -->
<g id="edge36" class="edge">
<title>2&#45;&gt;2</title>
<path fill="none" stroke="black" d="M614.35,-25.02C657.06,-27.73 726.45,-26.72 726.45,-22 726.45,-17.64 667.23,-16.45 624.53,-18.43"/>
<polygon fill="black" stroke="black" points="624.14,-14.94 614.35,-18.98 624.52,-21.93 624.14,-14.94"/>
<text text-anchor="middle" x="739.95" y="-18.3" font-family="Times,serif" font-size="14.00">{c1}</text>
</g>
<!-- 2&#45;&gt;2 -->
<g id="edge37" class="edge">
<title>2&#45;&gt;2</title>
<path fill="none" stroke="black" d="M613.93,-25.57C664.38,-29.74 753.45,-28.55 753.45,-22 753.45,-15.88 675.49,-14.44 624.13,-17.69"/>
<polygon fill="black" stroke="black" points="623.65,-14.22 613.93,-18.43 624.16,-21.2 623.65,-14.22"/>
<text text-anchor="middle" x="786.95" y="-18.3" font-family="Times,serif" font-size="14.00">{c0, c1, c2}</text>
</g>
<!-- 2&#45;&gt;2 -->
<g id="edge38" class="edge">
<title>2&#45;&gt;2</title>
<path fill="none" stroke="black" d="M613.92,-25.79C679.77,-31.78 820.45,-30.52 820.45,-22 820.45,-13.9 693.17,-12.36 624.08,-17.38"/>
<polygon fill="black" stroke="black" points="623.6,-13.91 613.92,-18.21 624.17,-20.89 623.6,-13.91"/>
<text text-anchor="middle" x="833.95" y="-18.3" font-family="Times,serif" font-size="14.00">{c2}</text>
</g>
<!-- 2&#45;&gt;2 -->
<g id="edge39" class="edge">
<title>2&#45;&gt;2</title>
<path fill="none" stroke="black" d="M613.96,-26.2C686.49,-33.78 847.45,-32.38 847.45,-22 847.45,-12.08 700.63,-10.36 624.25,-16.83"/>
<polygon fill="black" stroke="black" points="623.59,-13.38 613.96,-17.8 624.25,-20.35 623.59,-13.38"/>
<text text-anchor="middle" x="854.45" y="-18.3" font-family="Times,serif" font-size="14.00">{}</text>
</g>
<!-- 2&#45;&gt;2 -->
<g id="edge40" class="edge">
<title>2&#45;&gt;2</title>
<path fill="none" stroke="black" d="M613.78,-26.56C691.26,-35.78 865.45,-34.26 865.45,-22 865.45,-10.24 705.26,-8.36 623.78,-16.36"/>
<polygon fill="black" stroke="black" points="623.34,-12.88 613.78,-17.44 624.1,-19.84 623.34,-12.88"/>
<text text-anchor="middle" x="888.95" y="-18.3" font-family="Times,serif" font-size="14.00">{c0, c1}</text>
</g>
<!-- 2&#45;&gt;2 -->
<g id="edge41" class="edge">
<title>2&#45;&gt;2</title>
<path fill="none" stroke="black" d="M613.67,-26.75C700.8,-37.8 912.45,-36.22 912.45,-22 912.45,-8.31 716.22,-6.33 623.87,-16.07"/>
<polygon fill="black" stroke="black" points="623.2,-12.63 613.67,-17.25 624.01,-19.58 623.2,-12.63"/>
<text text-anchor="middle" x="925.95" y="-18.3" font-family="Times,serif" font-size="14.00">{c0}</text>
</g>
<!-- 3&#45;&gt;2 -->
<g id="edge23" class="edge">
<title>3&#45;&gt;2</title>
<path fill="none" stroke="black" d="M234.86,-97.27C246.64,-85.42 264.91,-69.56 284.45,-62 395.38,-19.09 437.74,-78.89 551.45,-44 554.46,-43.07 557.5,-41.86 560.45,-40.47"/>
<polygon fill="black" stroke="black" points="562.35,-43.43 569.52,-35.63 559.05,-37.25 562.35,-43.43"/>
<text text-anchor="middle" x="297.95" y="-65.8" font-family="Times,serif" font-size="14.00">{c1}</text>
</g>
<!-- 3&#45;&gt;2 -->
<g id="edge24" class="edge">
<title>3&#45;&gt;2</title>
<path fill="none" stroke="black" d="M245.34,-104.23C263.82,-97.86 289.82,-88.1 311.45,-77 322.3,-71.43 322.9,-65.96 334.45,-62 425.99,-30.61 459.15,-73.1 551.45,-44 554.46,-43.05 557.48,-41.82 560.44,-40.42"/>
<polygon fill="black" stroke="black" points="562.34,-43.37 569.5,-35.57 559.03,-37.2 562.34,-43.37"/>
<text text-anchor="middle" x="357.95" y="-65.8" font-family="Times,serif" font-size="14.00">{c0, c1}</text>
</g>
<!-- 3&#45;&gt;2 -->
<g id="edge25" class="edge">
<title>3&#45;&gt;2</title>
<path fill="none" stroke="black" d="M248.1,-109.16C280.61,-105.04 336.73,-95.73 381.45,-77 392.71,-72.29 392.98,-66.18 404.45,-62 466.28,-39.44 489.07,-65.01 551.45,-44 554.37,-43.02 557.32,-41.78 560.2,-40.4"/>
<polygon fill="black" stroke="black" points="561.92,-43.44 569.08,-35.64 558.61,-37.27 561.92,-43.44"/>
<text text-anchor="middle" x="417.95" y="-65.8" font-family="Times,serif" font-size="14.00">{c0}</text>
</g>
<!-- 3&#45;&gt;3 -->
<g id="edge20" class="edge">
<title>3&#45;&gt;3</title>
<path fill="none" stroke="black" d="M245.98,-120.75C256.96,-121.49 266.45,-118.91 266.45,-113 266.45,-109.03 262.16,-106.56 256.02,-105.59"/>
<polygon fill="black" stroke="black" points="256.1,-102.09 245.98,-105.25 255.85,-109.09 256.1,-102.09"/>
<text text-anchor="middle" x="273.45" y="-109.3" font-family="Times,serif" font-size="14.00">{}</text>
</g>
<!-- 4 -->
<g id="node6" class="node">
<title>4</title>
<ellipse fill="none" stroke="black" cx="73.45" cy="-22" rx="18" ry="18"/>
<ellipse fill="none" stroke="black" cx="73.45" cy="-22" rx="22" ry="22"/>
<text text-anchor="middle" x="73.45" y="-18.3" font-family="Times,serif" font-size="14.00">4</text>
</g>
<!-- 3&#45;&gt;4 -->
<g id="edge18" class="edge">
<title>3&#45;&gt;4</title>
<path fill="none" stroke="black" d="M194.47,-111.81C141.85,-110.81 28.57,-105.33 4.45,-77 -10.88,-59.01 17.82,-42.96 42.74,-33.13"/>
<polygon fill="black" stroke="black" points="44.21,-36.32 52.36,-29.55 41.77,-29.76 44.21,-36.32"/>
<text text-anchor="middle" x="27.95" y="-65.8" font-family="Times,serif" font-size="14.00">{c1, c2}</text>
</g>
<!-- 3&#45;&gt;4 -->
<g id="edge19" class="edge">
<title>3&#45;&gt;4</title>
<path fill="none" stroke="black" d="M194.82,-109.51C156.66,-105.33 89.34,-95.49 74.45,-77 69.18,-70.46 67.48,-61.88 67.49,-53.5"/>
<polygon fill="black" stroke="black" points="70.98,-53.74 68.23,-43.51 64,-53.23 70.98,-53.74"/>
<text text-anchor="middle" x="107.95" y="-65.8" font-family="Times,serif" font-size="14.00">{c0, c1, c2}</text>
</g>
<!-- 3&#45;&gt;4 -->
<g id="edge21" class="edge">
<title>3&#45;&gt;4</title>
<path fill="none" stroke="black" d="M202.11,-100.3C191.04,-93.56 176.91,-84.89 164.45,-77 154.14,-70.47 151.86,-68.37 141.45,-62 128.41,-54.02 113.71,-45.53 101.33,-38.52"/>
<polygon fill="black" stroke="black" points="102.81,-35.33 92.38,-33.47 99.37,-41.43 102.81,-35.33"/>
<text text-anchor="middle" x="177.95" y="-65.8" font-family="Times,serif" font-size="14.00">{c2}</text>
</g>
<!-- 3&#45;&gt;4 -->
<g id="edge22" class="edge">
<title>3&#45;&gt;4</title>
<path fill="none" stroke="black" d="M215.16,-95.49C210.22,-84.58 202.36,-70.73 191.45,-62 166.42,-41.98 130.71,-32.06 105.14,-27.26"/>
<polygon fill="black" stroke="black" points="105.65,-23.8 95.21,-25.56 104.47,-30.7 105.65,-23.8"/>
<text text-anchor="middle" x="227.95" y="-65.8" font-family="Times,serif" font-size="14.00">{c0, c2}</text>
</g>
<!-- 4&#45;&gt;4 -->
<g id="edge26" class="edge">
<title>4&#45;&gt;4</title>
<path fill="none" stroke="black" d="M95.66,-23.48C105.24,-23.6 113.45,-23.11 113.45,-22 113.45,-21.32 110.4,-20.88 105.85,-20.66"/>
<polygon fill="black" stroke="black" points="105.71,-17.16 95.66,-20.52 105.61,-24.15 105.71,-17.16"/>
<text text-anchor="middle" x="136.95" y="-18.3" font-family="Times,serif" font-size="14.00">{c0, c2}</text>
</g>
<!-- 4&#45;&gt;4 -->
<g id="edge27" class="edge">
<title>4&#45;&gt;4</title>
<path fill="none" stroke="black" d="M95.62,-24.27C122.78,-25.74 160.45,-24.98 160.45,-22 160.45,-19.38 131.35,-18.47 105.87,-19.29"/>
<polygon fill="black" stroke="black" points="105.47,-15.8 95.62,-19.73 105.76,-22.8 105.47,-15.8"/>
<text text-anchor="middle" x="173.95" y="-18.3" font-family="Times,serif" font-size="14.00">{c0}</text>
</g>
<!-- 4&#45;&gt;4 -->
<g id="edge28" class="edge">
<title>4&#45;&gt;4</title>
<path fill="none" stroke="black" d="M95.45,-24.91C131.14,-27.75 187.45,-26.78 187.45,-22 187.45,-17.65 140.81,-16.45 105.52,-18.41"/>
<polygon fill="black" stroke="black" points="105.2,-14.93 95.45,-19.09 105.66,-21.91 105.2,-14.93"/>
<text text-anchor="middle" x="210.95" y="-18.3" font-family="Times,serif" font-size="14.00">{c0, c1}</text>
</g>
<!-- 4&#45;&gt;4 -->
<g id="edge29" class="edge">
<title>4&#45;&gt;4</title>
<path fill="none" stroke="black" d="M95.47,-25.26C143.41,-29.79 234.45,-28.7 234.45,-22 234.45,-15.74 155.1,-14.38 105.55,-17.91"/>
<polygon fill="black" stroke="black" points="105.15,-14.43 95.47,-18.74 105.72,-21.41 105.15,-14.43"/>
<text text-anchor="middle" x="267.95" y="-18.3" font-family="Times,serif" font-size="14.00">{c0, c1, c2}</text>
</g>
<!-- 4&#45;&gt;4 -->
<g id="edge30" class="edge">
<title>4&#45;&gt;4</title>
<path fill="none" stroke="black" d="M95.21,-25.41C157.42,-31.83 301.45,-30.69 301.45,-22 301.45,-13.75 171.67,-12.31 105.29,-17.67"/>
<polygon fill="black" stroke="black" points="104.85,-14.19 95.21,-18.59 105.49,-21.17 104.85,-14.19"/>
<text text-anchor="middle" x="314.95" y="-18.3" font-family="Times,serif" font-size="14.00">{c1}</text>
</g>
<!-- 4&#45;&gt;4 -->
<g id="edge31" class="edge">
<title>4&#45;&gt;4</title>
<path fill="none" stroke="black" d="M95.46,-25.78C164.21,-33.83 328.45,-32.57 328.45,-22 328.45,-11.93 179.25,-10.31 105.73,-17.15"/>
<polygon fill="black" stroke="black" points="105.05,-13.7 95.46,-18.22 105.77,-20.67 105.05,-13.7"/>
<text text-anchor="middle" x="335.45" y="-18.3" font-family="Times,serif" font-size="14.00">{}</text>
</g>
<!-- 4&#45;&gt;4 -->
<g id="edge32" class="edge">
<title>4&#45;&gt;4</title>
<path fill="none" stroke="black" d="M95.37,-26.09C169.03,-35.83 346.45,-34.47 346.45,-22 346.45,-10.07 183.95,-8.31 105.42,-16.71"/>
<polygon fill="black" stroke="black" points="104.89,-13.25 95.37,-17.91 105.72,-20.2 104.89,-13.25"/>
<text text-anchor="middle" x="359.95" y="-18.3" font-family="Times,serif" font-size="14.00">{c2}</text>
</g>
<!-- 4&#45;&gt;4 -->
<g id="edge33" class="edge">
<title>4&#45;&gt;4</title>
<path fill="none" stroke="black" d="M95.19,-26.3C175.1,-37.84 373.45,-36.41 373.45,-22 373.45,-8.17 190.66,-6.29 105.34,-16.37"/>
<polygon fill="black" stroke="black" points="104.65,-12.93 95.19,-17.7 105.56,-19.87 104.65,-12.93"/>
<text text-anchor="middle" x="396.95" y="-18.3" font-family="Times,serif" font-size="14.00">{c1, c2}</text>
</g>
</g>
</svg>
