<?xml version="1.0" encoding="UTF-8" standalone="no"?>
<!DOCTYPE svg PUBLIC "-//W3C//DTD SVG 1.1//EN"
 "http://www.w3.org/Graphics/SVG/1.1/DTD/svg11.dtd">
<!-- Generated by graphviz version 2.43.0 (0)
 -->
<!-- Title: %3 Pages: 1 -->
<svg width="2562pt" height="475pt"
 viewBox="0.00 0.00 2562.01 475.44" xmlns="http://www.w3.org/2000/svg" xmlns:xlink="http://www.w3.org/1999/xlink">
<g id="graph0" class="graph" transform="scale(1 1) rotate(0) translate(4 471.44)">
<title>%3</title>
<polygon fill="white" stroke="transparent" points="-4,4 -4,-471.44 2558.01,-471.44 2558.01,4 -4,4"/>
<!-- fake -->
<g id="node1" class="node">
<title>fake</title>
</g>
<!-- 0 -->
<g id="node2" class="node">
<title>0</title>
<ellipse fill="none" stroke="black" cx="1869.01" cy="-376.44" rx="27" ry="18"/>
<text text-anchor="middle" x="1869.01" y="-372.74" font-family="Times,serif" font-size="14.00">0</text>
</g>
<!-- fake&#45;&gt;0 -->
<g id="edge1" class="edge">
<title>fake&#45;&gt;0</title>
<path fill="none" stroke="black" stroke-width="2" d="M1869.01,-431.25C1869.01,-423.23 1869.01,-413.49 1869.01,-404.51"/>
<polygon fill="black" stroke="black" stroke-width="2" points="1872.51,-404.47 1869.01,-394.47 1865.51,-404.47 1872.51,-404.47"/>
</g>
<!-- 0&#45;&gt;0 -->
<g id="edge68" class="edge">
<title>0&#45;&gt;0</title>
<path fill="none" stroke="black" d="M1894.45,-383.13C1905.04,-383.59 1914.01,-381.36 1914.01,-376.44 1914.01,-373.21 1910.14,-371.14 1904.5,-370.23"/>
<polygon fill="black" stroke="black" points="1904.61,-366.73 1894.45,-369.75 1904.27,-373.72 1904.61,-366.73"/>
<text text-anchor="middle" x="1921.01" y="-372.74" font-family="Times,serif" font-size="14.00">{}</text>
</g>
<!-- 1 -->
<g id="node3" class="node">
<title>1</title>
<ellipse fill="none" stroke="black" cx="1525.01" cy="-289.44" rx="27" ry="18"/>
<text text-anchor="middle" x="1525.01" y="-285.74" font-family="Times,serif" font-size="14.00">1</text>
</g>
<!-- 0&#45;&gt;1 -->
<g id="edge66" class="edge">
<title>0&#45;&gt;1</title>
<path fill="none" stroke="black" d="M1841.77,-374.79C1730.8,-372.03 1317.81,-360.43 1299.01,-340.44 1294.44,-335.58 1294.67,-330.5 1299.01,-325.44 1322.85,-297.62 1429.73,-291.72 1487.56,-290.59"/>
<polygon fill="black" stroke="black" points="1487.81,-294.09 1497.76,-290.44 1487.7,-287.09 1487.81,-294.09"/>
<text text-anchor="middle" x="1343.01" y="-329.24" font-family="Times,serif" font-size="14.00">{c0, c1, c2, c3}</text>
</g>
<!-- 0&#45;&gt;1 -->
<g id="edge67" class="edge">
<title>0&#45;&gt;1</title>
<path fill="none" stroke="black" d="M1842.02,-375.46C1748.08,-375.27 1439.44,-372.2 1410.01,-340.44 1384.44,-312.85 1445.75,-299.73 1488.33,-294.11"/>
<polygon fill="black" stroke="black" points="1488.92,-297.56 1498.42,-292.87 1488.07,-290.61 1488.92,-297.56"/>
<text text-anchor="middle" x="1433.51" y="-329.24" font-family="Times,serif" font-size="14.00">{c0, c3}</text>
</g>
<!-- 0&#45;&gt;1 -->
<g id="edge69" class="edge">
<title>0&#45;&gt;1</title>
<path fill="none" stroke="black" d="M1841.83,-375.06C1757.49,-373.62 1504.37,-367.09 1480.01,-340.44 1469.73,-329.2 1481.6,-316.43 1495.72,-306.62"/>
<polygon fill="black" stroke="black" points="1497.62,-309.56 1504.15,-301.21 1493.84,-303.67 1497.62,-309.56"/>
<text text-anchor="middle" x="1493.51" y="-329.24" font-family="Times,serif" font-size="14.00">{c3}</text>
</g>
<!-- 0&#45;&gt;1 -->
<g id="edge70" class="edge">
<title>0&#45;&gt;1</title>
<path fill="none" stroke="black" d="M1841.96,-374.57C1765.5,-371.87 1551.91,-362.41 1530.01,-340.44 1524.12,-334.53 1521.93,-326.06 1521.5,-317.76"/>
<polygon fill="black" stroke="black" points="1525.01,-317.64 1521.75,-307.56 1518.01,-317.47 1525.01,-317.64"/>
<text text-anchor="middle" x="1553.51" y="-329.24" font-family="Times,serif" font-size="14.00">{c1, c3}</text>
</g>
<!-- 0&#45;&gt;1 -->
<g id="edge71" class="edge">
<title>0&#45;&gt;1</title>
<path fill="none" stroke="black" d="M1841.69,-375.92C1791.95,-375.94 1684.01,-371.93 1600.01,-340.44 1598.62,-339.92 1572.72,-322.58 1551.74,-308.46"/>
<polygon fill="black" stroke="black" points="1553.68,-305.55 1543.43,-302.86 1549.77,-311.35 1553.68,-305.55"/>
<text text-anchor="middle" x="1633.51" y="-329.24" font-family="Times,serif" font-size="14.00">{c1, c2, c3}</text>
</g>
<!-- 0&#45;&gt;1 -->
<g id="edge72" class="edge">
<title>0&#45;&gt;1</title>
<path fill="none" stroke="black" d="M1842.32,-373.43C1806.52,-370.03 1741.5,-361.33 1690.01,-340.44 1678.7,-335.85 1678.2,-330.3 1667.01,-325.44 1632.68,-310.53 1590.81,-301.18 1561.46,-295.94"/>
<polygon fill="black" stroke="black" points="1561.7,-292.43 1551.25,-294.19 1560.51,-299.33 1561.7,-292.43"/>
<text text-anchor="middle" x="1723.51" y="-329.24" font-family="Times,serif" font-size="14.00">{c0, c2, c3}</text>
</g>
<!-- 0&#45;&gt;1 -->
<g id="edge73" class="edge">
<title>0&#45;&gt;1</title>
<path fill="none" stroke="black" d="M1845.39,-367.63C1827.11,-361.24 1801.4,-351.48 1780.01,-340.44 1769.16,-334.84 1768.41,-329.78 1757.01,-325.44 1691.36,-300.44 1608.87,-293.24 1562.03,-291.2"/>
<polygon fill="black" stroke="black" points="1562.16,-287.7 1552.04,-290.82 1561.9,-294.7 1562.16,-287.7"/>
<text text-anchor="middle" x="1813.51" y="-329.24" font-family="Times,serif" font-size="14.00">{c0, c1, c3}</text>
</g>
<!-- 0&#45;&gt;1 -->
<g id="edge74" class="edge">
<title>0&#45;&gt;1</title>
<path fill="none" stroke="black" d="M1866.02,-358.29C1863.13,-347.1 1857.57,-333.17 1847.01,-325.44 1802.58,-292.89 1637.64,-289.66 1562.61,-289.94"/>
<polygon fill="black" stroke="black" points="1562.19,-286.44 1552.21,-290 1562.24,-293.44 1562.19,-286.44"/>
<text text-anchor="middle" x="1882.51" y="-329.24" font-family="Times,serif" font-size="14.00">{c2, c3}</text>
</g>
<!-- 2 -->
<g id="node4" class="node">
<title>2</title>
<ellipse fill="none" stroke="black" cx="1479.01" cy="-24.44" rx="27" ry="18"/>
<text text-anchor="middle" x="1479.01" y="-20.74" font-family="Times,serif" font-size="14.00">2</text>
</g>
<!-- 0&#45;&gt;2 -->
<g id="edge75" class="edge">
<title>0&#45;&gt;2</title>
<path fill="none" stroke="black" d="M1888.73,-364.02C1896.92,-358.13 1905.54,-350.13 1910.01,-340.44 1912.8,-334.38 1911.7,-331.89 1910.01,-325.44 1879.18,-207.87 1856.11,-170.54 1759.01,-97.44 1685.59,-42.16 1573.95,-29.12 1516.33,-26.18"/>
<polygon fill="black" stroke="black" points="1516.36,-22.68 1506.22,-25.74 1516.06,-29.67 1516.36,-22.68"/>
<text text-anchor="middle" x="1886.51" y="-198.74" font-family="Times,serif" font-size="14.00">{c2}</text>
</g>
<!-- 0&#45;&gt;2 -->
<g id="edge76" class="edge">
<title>0&#45;&gt;2</title>
<path fill="none" stroke="black" d="M1891.5,-366.22C1918.45,-353.51 1960.01,-327.84 1960.01,-290.44 1960.01,-290.44 1960.01,-290.44 1960.01,-114.44 1960.01,-69.34 1628.9,-37.81 1516.11,-28.38"/>
<polygon fill="black" stroke="black" points="1516.15,-24.87 1505.9,-27.54 1515.58,-31.85 1516.15,-24.87"/>
<text text-anchor="middle" x="1983.51" y="-198.74" font-family="Times,serif" font-size="14.00">{c1, c2}</text>
</g>
<!-- 0&#45;&gt;2 -->
<g id="edge77" class="edge">
<title>0&#45;&gt;2</title>
<path fill="none" stroke="black" d="M1896.2,-374.26C1945.13,-370.53 2043.01,-354.99 2043.01,-290.44 2043.01,-290.44 2043.01,-290.44 2043.01,-114.44 2043.01,-60.92 1641.65,-34.36 1516.09,-27.36"/>
<polygon fill="black" stroke="black" points="1516.01,-23.85 1505.83,-26.8 1515.63,-30.84 1516.01,-23.85"/>
<text text-anchor="middle" x="2056.51" y="-198.74" font-family="Times,serif" font-size="14.00">{c0}</text>
</g>
<!-- 0&#45;&gt;2 -->
<g id="edge78" class="edge">
<title>0&#45;&gt;2</title>
<path fill="none" stroke="black" d="M1895.78,-373.25C1929.66,-369.72 1989.21,-360.97 2036.01,-340.44 2071.02,-325.08 2106.01,-328.67 2106.01,-290.44 2106.01,-290.44 2106.01,-290.44 2106.01,-114.44 2106.01,-54.49 1650.94,-32.09 1516.18,-26.77"/>
<polygon fill="black" stroke="black" points="1516.08,-23.26 1505.95,-26.38 1515.81,-30.26 1516.08,-23.26"/>
<text text-anchor="middle" x="2139.51" y="-198.74" font-family="Times,serif" font-size="14.00">{c0, c1, c2}</text>
</g>
<!-- 0&#45;&gt;2 -->
<g id="edge79" class="edge">
<title>0&#45;&gt;2</title>
<path fill="none" stroke="black" d="M1895.97,-374.47C1976.39,-370.86 2209.01,-354.86 2209.01,-290.44 2209.01,-290.44 2209.01,-290.44 2209.01,-114.44 2209.01,-43.91 1665.23,-28.83 1516.32,-26.02"/>
<polygon fill="black" stroke="black" points="1516.35,-22.52 1506.29,-25.84 1516.23,-29.52 1516.35,-22.52"/>
<text text-anchor="middle" x="2232.51" y="-198.74" font-family="Times,serif" font-size="14.00">{c0, c2}</text>
</g>
<!-- 0&#45;&gt;2 -->
<g id="edge80" class="edge">
<title>0&#45;&gt;2</title>
<path fill="none" stroke="black" d="M1896.11,-375.78C1989.47,-376.25 2292.01,-371.52 2292.01,-290.44 2292.01,-290.44 2292.01,-290.44 2292.01,-114.44 2292.01,-35.32 1675.77,-26.51 1516.31,-25.55"/>
<polygon fill="black" stroke="black" points="1516.08,-22.05 1506.06,-25.49 1516.04,-29.05 1516.08,-22.05"/>
<text text-anchor="middle" x="2315.51" y="-198.74" font-family="Times,serif" font-size="14.00">{c0, c1}</text>
</g>
<!-- 0&#45;&gt;2 -->
<g id="edge81" class="edge">
<title>0&#45;&gt;2</title>
<path fill="none" stroke="black" d="M1896.44,-376.16C1961.57,-377.2 2130.18,-375.93 2265.01,-340.44 2316.94,-326.77 2375.01,-344.14 2375.01,-290.44 2375.01,-290.44 2375.01,-290.44 2375.01,-114.44 2375.01,-26.73 1686.33,-24.4 1516.51,-25.16"/>
<polygon fill="black" stroke="black" points="1516.3,-21.66 1506.31,-25.22 1516.33,-28.66 1516.3,-21.66"/>
<text text-anchor="middle" x="2388.51" y="-198.74" font-family="Times,serif" font-size="14.00">{c1}</text>
</g>
<!-- 1&#45;&gt;1 -->
<g id="edge6" class="edge">
<title>1&#45;&gt;1</title>
<path fill="none" stroke="black" d="M1549.54,-297.19C1560.52,-297.93 1570.01,-295.34 1570.01,-289.44 1570.01,-285.47 1565.72,-283 1559.58,-282.03"/>
<polygon fill="black" stroke="black" points="1559.66,-278.53 1549.54,-281.69 1559.41,-285.53 1559.66,-278.53"/>
<text text-anchor="middle" x="1577.01" y="-285.74" font-family="Times,serif" font-size="14.00">{}</text>
</g>
<!-- 1&#45;&gt;2 -->
<g id="edge11" class="edge">
<title>1&#45;&gt;2</title>
<path fill="none" stroke="black" d="M1520.84,-271.61C1518.29,-261.84 1514.79,-249.34 1511.01,-238.44 1499.65,-205.69 1487.81,-200.43 1481.01,-166.44 1479.7,-159.9 1477.97,-157.37 1481.01,-151.44 1487.25,-139.25 1499.77,-145.62 1506.01,-133.44 1513.3,-119.2 1508.86,-113.18 1506.01,-97.44 1503.14,-81.63 1497.01,-64.78 1491.31,-51.35"/>
<polygon fill="black" stroke="black" points="1494.34,-49.56 1487.09,-41.83 1487.94,-52.39 1494.34,-49.56"/>
<text text-anchor="middle" x="1504.51" y="-155.24" font-family="Times,serif" font-size="14.00">{c0, c3}</text>
</g>
<!-- 1&#45;&gt;2 -->
<g id="edge12" class="edge">
<title>1&#45;&gt;2</title>
<path fill="none" stroke="black" d="M1526.77,-271.37C1527.27,-265.67 1527.76,-259.29 1528.01,-253.44 1530.97,-184.12 1534.04,-165.77 1522.01,-97.44 1519.39,-82.57 1521.04,-77.79 1514.01,-64.44 1510.71,-58.16 1506.17,-52.09 1501.46,-46.69"/>
<polygon fill="black" stroke="black" points="1503.93,-44.21 1494.55,-39.29 1498.82,-48.99 1503.93,-44.21"/>
<text text-anchor="middle" x="1543.51" y="-155.24" font-family="Times,serif" font-size="14.00">{c0}</text>
</g>
<!-- 1&#45;&gt;2 -->
<g id="edge13" class="edge">
<title>1&#45;&gt;2</title>
<path fill="none" stroke="black" d="M1533.94,-272.2C1546.85,-246.76 1568.45,-195.82 1561.01,-151.44 1554.25,-111.1 1555.09,-97.49 1531.01,-64.44 1524.73,-55.82 1516,-48.25 1507.48,-42.13"/>
<polygon fill="black" stroke="black" points="1509.39,-39.19 1499.14,-36.5 1505.48,-45 1509.39,-39.19"/>
<text text-anchor="middle" x="1575.51" y="-155.24" font-family="Times,serif" font-size="14.00">{c3}</text>
</g>
<!-- 1&#45;&gt;2 -->
<g id="edge14" class="edge">
<title>1&#45;&gt;2</title>
<path fill="none" stroke="black" d="M1540.99,-274.58C1547.22,-268.56 1554.05,-261.12 1559.01,-253.44 1584.92,-213.29 1603.29,-198.1 1593.01,-151.44 1583.69,-109.12 1579.86,-94.86 1549.01,-64.44 1538.17,-53.75 1523.8,-45.07 1510.91,-38.64"/>
<polygon fill="black" stroke="black" points="1512.39,-35.47 1501.85,-34.36 1509.39,-41.79 1512.39,-35.47"/>
<text text-anchor="middle" x="1618.51" y="-155.24" font-family="Times,serif" font-size="14.00">{c1, c3}</text>
</g>
<!-- 1&#45;&gt;2 -->
<g id="edge15" class="edge">
<title>1&#45;&gt;2</title>
<path fill="none" stroke="black" d="M1546.67,-278.36C1587,-258.03 1667.64,-209.08 1646.01,-151.44 1627.97,-103.37 1611.53,-94.64 1570.01,-64.44 1552.77,-51.9 1530.87,-42.35 1512.88,-35.85"/>
<polygon fill="black" stroke="black" points="1513.93,-32.51 1503.34,-32.54 1511.64,-39.12 1513.93,-32.51"/>
<text text-anchor="middle" x="1672.51" y="-155.24" font-family="Times,serif" font-size="14.00">{c0, c1}</text>
</g>
<!-- 1&#45;&gt;2 -->
<g id="edge16" class="edge">
<title>1&#45;&gt;2</title>
<path fill="none" stroke="black" d="M1549.77,-282.09C1605.18,-266.5 1731.93,-222.33 1700.01,-151.44 1666.79,-77.66 1567.94,-44.95 1514.41,-32.31"/>
<polygon fill="black" stroke="black" points="1515.17,-28.9 1504.65,-30.11 1513.63,-35.73 1515.17,-28.9"/>
<text text-anchor="middle" x="1737.51" y="-155.24" font-family="Times,serif" font-size="14.00">{c0, c1, c3}</text>
</g>
<!-- 1&#45;&gt;2 -->
<g id="edge17" class="edge">
<title>1&#45;&gt;2</title>
<path fill="none" stroke="black" d="M1551.48,-285.52C1625.42,-276.19 1825.47,-242.16 1775.01,-151.44 1723.08,-58.08 1583.51,-33.89 1516.25,-27.63"/>
<polygon fill="black" stroke="black" points="1516.36,-24.12 1506.1,-26.77 1515.77,-31.1 1516.36,-24.12"/>
<text text-anchor="middle" x="1794.51" y="-155.24" font-family="Times,serif" font-size="14.00">{c1}</text>
</g>
<!-- 3 -->
<g id="node5" class="node">
<title>3</title>
<ellipse fill="none" stroke="black" cx="1073.01" cy="-202.44" rx="27" ry="18"/>
<text text-anchor="middle" x="1073.01" y="-198.74" font-family="Times,serif" font-size="14.00">3</text>
</g>
<!-- 1&#45;&gt;3 -->
<g id="edge2" class="edge">
<title>1&#45;&gt;3</title>
<path fill="none" stroke="black" d="M1498.06,-287.97C1380.08,-285.78 914.11,-275.74 893.01,-253.44 850.46,-208.47 971.43,-202.76 1035.73,-202.77"/>
<polygon fill="black" stroke="black" points="1035.88,-206.27 1045.9,-202.82 1035.92,-199.27 1035.88,-206.27"/>
<text text-anchor="middle" x="916.51" y="-242.24" font-family="Times,serif" font-size="14.00">{c2, c3}</text>
</g>
<!-- 1&#45;&gt;3 -->
<g id="edge3" class="edge">
<title>1&#45;&gt;3</title>
<path fill="none" stroke="black" d="M1497.78,-287.77C1387.82,-284.93 981.52,-273.14 963.01,-253.44 938.44,-227.29 995.78,-213.77 1036.56,-207.67"/>
<polygon fill="black" stroke="black" points="1037.1,-211.13 1046.51,-206.27 1036.12,-204.19 1037.1,-211.13"/>
<text text-anchor="middle" x="1007.01" y="-242.24" font-family="Times,serif" font-size="14.00">{c0, c1, c2, c3}</text>
</g>
<!-- 1&#45;&gt;3 -->
<g id="edge4" class="edge">
<title>1&#45;&gt;3</title>
<path fill="none" stroke="black" d="M1497.87,-288.4C1404.88,-288 1103.16,-284.31 1074.01,-253.44 1068.31,-247.4 1066.73,-238.9 1066.98,-230.61"/>
<polygon fill="black" stroke="black" points="1070.49,-230.76 1068.12,-220.44 1063.53,-229.99 1070.49,-230.76"/>
<text text-anchor="middle" x="1107.51" y="-242.24" font-family="Times,serif" font-size="14.00">{c0, c1, c2}</text>
</g>
<!-- 1&#45;&gt;3 -->
<g id="edge5" class="edge">
<title>1&#45;&gt;3</title>
<path fill="none" stroke="black" d="M1497.95,-287.48C1425.02,-284.65 1225.73,-275.08 1164.01,-253.44 1152.49,-249.4 1151.56,-244.57 1141.01,-238.44 1128.96,-231.43 1115.36,-224.29 1103.51,-218.3"/>
<polygon fill="black" stroke="black" points="1104.95,-215.11 1094.44,-213.77 1101.82,-221.37 1104.95,-215.11"/>
<text text-anchor="middle" x="1197.51" y="-242.24" font-family="Times,serif" font-size="14.00">{c1, c2, c3}</text>
</g>
<!-- 1&#45;&gt;3 -->
<g id="edge7" class="edge">
<title>1&#45;&gt;3</title>
<path fill="none" stroke="black" d="M1497.91,-288.88C1448.03,-288.84 1339.03,-284.78 1254.01,-253.44 1242.56,-249.22 1242.26,-243.17 1231.01,-238.44 1191.28,-221.74 1142.43,-212.48 1109.66,-207.75"/>
<polygon fill="black" stroke="black" points="1110,-204.26 1099.61,-206.37 1109.04,-211.2 1110,-204.26"/>
<text text-anchor="middle" x="1287.51" y="-242.24" font-family="Times,serif" font-size="14.00">{c0, c2, c3}</text>
</g>
<!-- 1&#45;&gt;3 -->
<g id="edge8" class="edge">
<title>1&#45;&gt;3</title>
<path fill="none" stroke="black" d="M1498.33,-286.51C1462.2,-283.18 1396.23,-274.56 1344.01,-253.44 1332.7,-248.86 1332.43,-242.73 1321.01,-238.44 1249.71,-211.68 1159.88,-205.15 1110.26,-203.7"/>
<polygon fill="black" stroke="black" points="1110.09,-200.19 1100.01,-203.45 1109.92,-207.19 1110.09,-200.19"/>
<text text-anchor="middle" x="1367.51" y="-242.24" font-family="Times,serif" font-size="14.00">{c0, c2}</text>
</g>
<!-- 1&#45;&gt;3 -->
<g id="edge9" class="edge">
<title>1&#45;&gt;3</title>
<path fill="none" stroke="black" d="M1499.58,-282.53C1476.59,-276.7 1442.14,-266.74 1414.01,-253.44 1402.98,-248.22 1402.5,-242.55 1391.01,-238.44 1340.05,-220.19 1182.34,-209.44 1109.98,-205.35"/>
<polygon fill="black" stroke="black" points="1110.13,-201.85 1099.95,-204.79 1109.74,-208.84 1110.13,-201.85"/>
<text text-anchor="middle" x="1437.51" y="-242.24" font-family="Times,serif" font-size="14.00">{c1, c2}</text>
</g>
<!-- 1&#45;&gt;3 -->
<g id="edge10" class="edge">
<title>1&#45;&gt;3</title>
<path fill="none" stroke="black" d="M1509.47,-274.62C1494.16,-261.31 1471.56,-242.61 1461.01,-238.44 1397.75,-213.42 1194.36,-206.11 1110.1,-204.12"/>
<polygon fill="black" stroke="black" points="1110.04,-200.62 1099.97,-203.9 1109.89,-207.62 1110.04,-200.62"/>
<text text-anchor="middle" x="1496.51" y="-242.24" font-family="Times,serif" font-size="14.00">{c2}</text>
</g>
<!-- 2&#45;&gt;2 -->
<g id="edge82" class="edge">
<title>2&#45;&gt;2</title>
<path fill="none" stroke="black" d="M1506.25,-25.94C1516.03,-25.97 1524.01,-25.47 1524.01,-24.44 1524.01,-23.81 1521.05,-23.38 1516.52,-23.14"/>
<polygon fill="black" stroke="black" points="1516.32,-19.64 1506.25,-22.94 1516.18,-26.64 1516.32,-19.64"/>
<text text-anchor="middle" x="1547.51" y="-20.74" font-family="Times,serif" font-size="14.00">{c2, c3}</text>
</g>
<!-- 2&#45;&gt;2 -->
<g id="edge83" class="edge">
<title>2&#45;&gt;2</title>
<path fill="none" stroke="black" d="M1505.9,-26.86C1534.33,-28.12 1571.01,-27.31 1571.01,-24.44 1571.01,-21.9 1542.42,-20.97 1516.16,-21.65"/>
<polygon fill="black" stroke="black" points="1515.77,-18.17 1505.9,-22.01 1516.02,-25.16 1515.77,-18.17"/>
<text text-anchor="middle" x="1584.51" y="-20.74" font-family="Times,serif" font-size="14.00">{c2}</text>
</g>
<!-- 2&#45;&gt;2 -->
<g id="edge84" class="edge">
<title>2&#45;&gt;2</title>
<path fill="none" stroke="black" d="M1505.83,-27.61C1543.25,-30.12 1598.01,-29.07 1598.01,-24.44 1598.01,-20.21 1552.26,-18.96 1515.81,-20.7"/>
<polygon fill="black" stroke="black" points="1515.61,-17.2 1505.83,-21.26 1516.01,-24.19 1515.61,-17.2"/>
<text text-anchor="middle" x="1631.51" y="-20.74" font-family="Times,serif" font-size="14.00">{c0, c2, c3}</text>
</g>
<!-- 2&#45;&gt;2 -->
<g id="edge85" class="edge">
<title>2&#45;&gt;2</title>
<path fill="none" stroke="black" d="M1505.66,-27.88C1560.58,-32.2 1665.01,-31.05 1665.01,-24.44 1665.01,-18.22 1572.46,-16.83 1515.79,-20.29"/>
<polygon fill="black" stroke="black" points="1515.4,-16.81 1505.66,-20.99 1515.88,-23.79 1515.4,-16.81"/>
<text text-anchor="middle" x="1688.51" y="-20.74" font-family="Times,serif" font-size="14.00">{c0, c3}</text>
</g>
<!-- 2&#45;&gt;2 -->
<g id="edge86" class="edge">
<title>2&#45;&gt;2</title>
<path fill="none" stroke="black" d="M1505.48,-28.23C1571.33,-34.22 1712.01,-32.95 1712.01,-24.44 1712.01,-16.34 1584.73,-14.8 1515.64,-19.82"/>
<polygon fill="black" stroke="black" points="1515.16,-16.35 1505.48,-20.65 1515.73,-23.32 1515.16,-16.35"/>
<text text-anchor="middle" x="1735.51" y="-20.74" font-family="Times,serif" font-size="14.00">{c1, c2}</text>
</g>
<!-- 2&#45;&gt;2 -->
<g id="edge87" class="edge">
<title>2&#45;&gt;2</title>
<path fill="none" stroke="black" d="M1505.48,-28.53C1581.49,-36.23 1759.01,-34.87 1759.01,-24.44 1759.01,-14.46 1596.42,-12.78 1515.82,-19.4"/>
<polygon fill="black" stroke="black" points="1515.12,-15.95 1505.48,-20.34 1515.76,-22.92 1515.12,-15.95"/>
<text text-anchor="middle" x="1772.51" y="-20.74" font-family="Times,serif" font-size="14.00">{c0}</text>
</g>
<!-- 2&#45;&gt;2 -->
<g id="edge88" class="edge">
<title>2&#45;&gt;2</title>
<path fill="none" stroke="black" d="M1505.19,-28.85C1587.37,-38.24 1786.01,-36.77 1786.01,-24.44 1786.01,-12.59 1602.59,-10.77 1515.33,-18.98"/>
<polygon fill="black" stroke="black" points="1514.77,-15.52 1505.19,-20.03 1515.49,-22.48 1514.77,-15.52"/>
<text text-anchor="middle" x="1819.51" y="-20.74" font-family="Times,serif" font-size="14.00">{c1, c2, c3}</text>
</g>
<!-- 2&#45;&gt;2 -->
<g id="edge89" class="edge">
<title>2&#45;&gt;2</title>
<path fill="none" stroke="black" d="M1505.35,-29C1599.9,-40.26 1853.01,-38.73 1853.01,-24.44 1853.01,-10.63 1616.91,-8.74 1515.59,-18.76"/>
<polygon fill="black" stroke="black" points="1514.92,-15.31 1505.35,-19.87 1515.67,-22.27 1514.92,-15.31"/>
<text text-anchor="middle" x="1886.51" y="-20.74" font-family="Times,serif" font-size="14.00">{c0, c1, c2}</text>
</g>
<!-- 2&#45;&gt;2 -->
<g id="edge90" class="edge">
<title>2&#45;&gt;2</title>
<path fill="none" stroke="black" d="M1505.14,-29.11C1610.9,-42.27 1920.01,-40.71 1920.01,-24.44 1920.01,-8.65 1629.33,-6.71 1515.29,-18.61"/>
<polygon fill="black" stroke="black" points="1514.68,-15.16 1505.14,-19.76 1515.48,-22.11 1514.68,-15.16"/>
<text text-anchor="middle" x="1933.51" y="-20.74" font-family="Times,serif" font-size="14.00">{c3}</text>
</g>
<!-- 2&#45;&gt;2 -->
<g id="edge91" class="edge">
<title>2&#45;&gt;2</title>
<path fill="none" stroke="black" d="M1505.07,-29.34C1616.48,-44.28 1947.01,-42.64 1947.01,-24.44 1947.01,-6.75 1634.94,-4.7 1515.05,-18.3"/>
<polygon fill="black" stroke="black" points="1514.57,-14.84 1505.07,-19.53 1515.42,-21.78 1514.57,-14.84"/>
<text text-anchor="middle" x="1970.51" y="-20.74" font-family="Times,serif" font-size="14.00">{c1, c3}</text>
</g>
<!-- 2&#45;&gt;2 -->
<g id="edge92" class="edge">
<title>2&#45;&gt;2</title>
<path fill="none" stroke="black" d="M1505.15,-29.51C1624.81,-46.28 1994.01,-44.59 1994.01,-24.44 1994.01,-4.82 1644.02,-2.69 1515.13,-18.07"/>
<polygon fill="black" stroke="black" points="1514.62,-14.61 1505.15,-19.36 1515.52,-21.55 1514.62,-14.61"/>
<text text-anchor="middle" x="2017.51" y="-20.74" font-family="Times,serif" font-size="14.00">{c0, c2}</text>
</g>
<!-- 2&#45;&gt;2 -->
<g id="edge93" class="edge">
<title>2&#45;&gt;2</title>
<path fill="none" stroke="black" d="M1504.9,-29.62C1632.23,-48.29 2041.01,-46.56 2041.01,-24.44 2041.01,-2.87 1652.72,-0.68 1515.13,-17.87"/>
<polygon fill="black" stroke="black" points="1514.34,-14.44 1504.9,-19.25 1515.28,-21.38 1514.34,-14.44"/>
<text text-anchor="middle" x="2048.01" y="-20.74" font-family="Times,serif" font-size="14.00">{}</text>
</g>
<!-- 2&#45;&gt;2 -->
<g id="edge94" class="edge">
<title>2&#45;&gt;2</title>
<path fill="none" stroke="black" d="M1505.14,-29.86C1637.36,-50.29 2059.01,-48.48 2059.01,-24.44 2059.01,-0.98 1657.7,1.31 1515.33,-17.56"/>
<polygon fill="black" stroke="black" points="1514.54,-14.13 1505.14,-19.01 1515.53,-21.06 1514.54,-14.13"/>
<text text-anchor="middle" x="2103.01" y="-20.74" font-family="Times,serif" font-size="14.00">{c0, c1, c2, c3}</text>
</g>
<!-- 2&#45;&gt;2 -->
<g id="edge95" class="edge">
<title>2&#45;&gt;2</title>
<path fill="none" stroke="black" d="M1504.95,-29.86C1648.98,-52.3 2147.01,-50.5 2147.01,-24.44 2147.01,1.04 1671.1,3.33 1515.18,-17.54"/>
<polygon fill="black" stroke="black" points="1514.35,-14.13 1504.95,-19.02 1515.35,-21.05 1514.35,-14.13"/>
<text text-anchor="middle" x="2170.51" y="-20.74" font-family="Times,serif" font-size="14.00">{c0, c1}</text>
</g>
<!-- 2&#45;&gt;2 -->
<g id="edge96" class="edge">
<title>2&#45;&gt;2</title>
<path fill="none" stroke="black" d="M1504.76,-29.94C1655.98,-54.31 2194.01,-52.47 2194.01,-24.44 2194.01,3 1678.85,5.34 1515.04,-17.4"/>
<polygon fill="black" stroke="black" points="1514.14,-14 1504.76,-18.93 1515.17,-20.92 1514.14,-14"/>
<text text-anchor="middle" x="2227.51" y="-20.74" font-family="Times,serif" font-size="14.00">{c0, c1, c3}</text>
</g>
<!-- 2&#45;&gt;2 -->
<g id="edge97" class="edge">
<title>2&#45;&gt;2</title>
<path fill="none" stroke="black" d="M1505.09,-30.06C1665.99,-56.31 2261.01,-54.44 2261.01,-24.44 2261.01,4.98 1689,7.35 1515.01,-17.31"/>
<polygon fill="black" stroke="black" points="1514.46,-13.85 1505.09,-18.81 1515.51,-20.77 1514.46,-13.85"/>
<text text-anchor="middle" x="2274.51" y="-20.74" font-family="Times,serif" font-size="14.00">{c1}</text>
</g>
<!-- 3&#45;&gt;2 -->
<g id="edge59" class="edge">
<title>3&#45;&gt;2</title>
<path fill="none" stroke="black" d="M1063.07,-185.3C1056.09,-174.83 1046.05,-161.33 1035.01,-151.44 1023.43,-141.06 1012.67,-146.97 1005.01,-133.44 997.13,-119.51 995.25,-110.12 1005.01,-97.44 1024.08,-72.66 1043.92,-90.9 1073.01,-79.44 1086.14,-74.26 1087.42,-68.27 1101.01,-64.44 1235.13,-26.65 1277.04,-72.06 1414.01,-46.44 1424.76,-44.43 1436.21,-41.14 1446.45,-37.75"/>
<polygon fill="black" stroke="black" points="1447.9,-40.95 1456.21,-34.38 1445.62,-34.33 1447.9,-40.95"/>
<text text-anchor="middle" x="1028.51" y="-111.74" font-family="Times,serif" font-size="14.00">{c2, c3}</text>
</g>
<!-- 3&#45;&gt;2 -->
<g id="edge60" class="edge">
<title>3&#45;&gt;2</title>
<path fill="none" stroke="black" d="M1071.94,-184.09C1071.37,-162.46 1072.98,-124.98 1088.01,-97.44 1098.72,-77.8 1105.31,-72.92 1126.01,-64.44 1185.35,-40.13 1351.01,-58.39 1414.01,-46.44 1424.76,-44.4 1436.2,-41.1 1446.44,-37.72"/>
<polygon fill="black" stroke="black" points="1447.9,-40.92 1456.21,-34.35 1445.61,-34.3 1447.9,-40.92"/>
<text text-anchor="middle" x="1101.51" y="-111.74" font-family="Times,serif" font-size="14.00">{c2}</text>
</g>
<!-- 3&#45;&gt;2 -->
<g id="edge61" class="edge">
<title>3&#45;&gt;2</title>
<path fill="none" stroke="black" d="M1081.56,-185.31C1094.12,-162.94 1119.54,-122.41 1151.01,-97.44 1244.27,-23.41 1297.41,-70.56 1414.01,-46.44 1424.72,-44.22 1436.15,-40.88 1446.4,-37.5"/>
<polygon fill="black" stroke="black" points="1447.84,-40.71 1456.17,-34.16 1445.58,-34.08 1447.84,-40.71"/>
<text text-anchor="middle" x="1184.51" y="-111.74" font-family="Times,serif" font-size="14.00">{c0, c2, c3}</text>
</g>
<!-- 3&#45;&gt;2 -->
<g id="edge62" class="edge">
<title>3&#45;&gt;2</title>
<path fill="none" stroke="black" d="M1096.43,-193.34C1126.26,-182.41 1178.64,-161.07 1218.01,-133.44 1236.53,-120.44 1236.17,-111.36 1254.01,-97.44 1276.48,-79.89 1282.28,-74.35 1309.01,-64.44 1353.4,-47.98 1368.03,-57.74 1414.01,-46.44 1424.55,-43.85 1435.85,-40.42 1446.04,-37.1"/>
<polygon fill="black" stroke="black" points="1447.4,-40.33 1455.77,-33.84 1445.18,-33.69 1447.4,-40.33"/>
<text text-anchor="middle" x="1277.51" y="-111.74" font-family="Times,serif" font-size="14.00">{c0, c3}</text>
</g>
<!-- 3&#45;&gt;2 -->
<g id="edge63" class="edge">
<title>3&#45;&gt;2</title>
<path fill="none" stroke="black" d="M1099.31,-197.9C1143.59,-191.04 1234.66,-172.99 1301.01,-133.44 1320.44,-121.85 1320.77,-113.2 1337.01,-97.44 1352.35,-82.54 1353.81,-75.66 1372.01,-64.44 1384.54,-56.71 1418.72,-44.77 1445.11,-36.13"/>
<polygon fill="black" stroke="black" points="1446.35,-39.41 1454.78,-33 1444.19,-32.75 1446.35,-39.41"/>
<text text-anchor="middle" x="1350.51" y="-111.74" font-family="Times,serif" font-size="14.00">{c0}</text>
</g>
<!-- 3&#45;&gt;2 -->
<g id="edge64" class="edge">
<title>3&#45;&gt;2</title>
<path fill="none" stroke="black" d="M1100,-200.69C1154.04,-198.06 1277.71,-186.24 1364.01,-133.44 1383.31,-121.63 1383.77,-113.2 1400.01,-97.44 1415.35,-82.54 1419.23,-78.86 1435.01,-64.44 1441.47,-58.53 1448.54,-52.2 1455.09,-46.4"/>
<polygon fill="black" stroke="black" points="1457.84,-48.64 1463.02,-39.4 1453.2,-43.4 1457.84,-48.64"/>
<text text-anchor="middle" x="1413.51" y="-111.74" font-family="Times,serif" font-size="14.00">{c3}</text>
</g>
<!-- 3&#45;&gt;2 -->
<g id="edge65" class="edge">
<title>3&#45;&gt;2</title>
<path fill="none" stroke="black" d="M1099.71,-199.74C1173.48,-194.53 1377.85,-176.46 1427.01,-133.44 1451.4,-112.09 1465.36,-76.74 1472.55,-52.33"/>
<polygon fill="black" stroke="black" points="1475.95,-53.18 1475.23,-42.61 1469.2,-51.32 1475.95,-53.18"/>
<text text-anchor="middle" x="1478.51" y="-111.74" font-family="Times,serif" font-size="14.00">{c0, c2}</text>
</g>
<!-- 3&#45;&gt;3 -->
<g id="edge55" class="edge">
<title>3&#45;&gt;3</title>
<path fill="none" stroke="black" d="M1097.54,-210.19C1108.52,-210.93 1118.01,-208.34 1118.01,-202.44 1118.01,-198.47 1113.72,-196 1107.58,-195.03"/>
<polygon fill="black" stroke="black" points="1107.66,-191.53 1097.54,-194.69 1107.41,-198.53 1107.66,-191.53"/>
<text text-anchor="middle" x="1125.01" y="-198.74" font-family="Times,serif" font-size="14.00">{}</text>
</g>
<!-- 4 -->
<g id="node6" class="node">
<title>4</title>
<ellipse fill="none" stroke="black" cx="626.01" cy="-115.44" rx="27" ry="18"/>
<text text-anchor="middle" x="626.01" y="-111.74" font-family="Times,serif" font-size="14.00">4</text>
</g>
<!-- 3&#45;&gt;4 -->
<g id="edge50" class="edge">
<title>3&#45;&gt;4</title>
<path fill="none" stroke="black" d="M1045.85,-201.02C924.75,-199.03 438.98,-189.61 417.01,-166.44 412.42,-161.6 412.7,-156.53 417.01,-151.44 438.57,-125.97 534.52,-119.02 588.61,-117.13"/>
<polygon fill="black" stroke="black" points="588.94,-120.62 598.83,-116.82 588.73,-113.63 588.94,-120.62"/>
<text text-anchor="middle" x="450.51" y="-155.24" font-family="Times,serif" font-size="14.00">{c0, c1, c2}</text>
</g>
<!-- 3&#45;&gt;4 -->
<g id="edge51" class="edge">
<title>3&#45;&gt;4</title>
<path fill="none" stroke="black" d="M1045.96,-200.78C935.77,-197.99 525.68,-186.3 507.01,-166.44 480.29,-138.02 544.91,-125.13 589.02,-119.79"/>
<polygon fill="black" stroke="black" points="589.63,-123.25 599.17,-118.65 588.84,-116.29 589.63,-123.25"/>
<text text-anchor="middle" x="530.51" y="-155.24" font-family="Times,serif" font-size="14.00">{c0, c1}</text>
</g>
<!-- 3&#45;&gt;4 -->
<g id="edge52" class="edge">
<title>3&#45;&gt;4</title>
<path fill="none" stroke="black" d="M1045.93,-201.63C946.98,-202.04 609.12,-200.9 577.01,-166.44 565.89,-154.51 579.88,-141.35 595.72,-131.53"/>
<polygon fill="black" stroke="black" points="597.64,-134.46 604.56,-126.44 594.15,-128.4 597.64,-134.46"/>
<text text-anchor="middle" x="590.51" y="-155.24" font-family="Times,serif" font-size="14.00">{c1}</text>
</g>
<!-- 3&#45;&gt;4 -->
<g id="edge53" class="edge">
<title>3&#45;&gt;4</title>
<path fill="none" stroke="black" d="M1045.85,-201.38C953.52,-200.89 655.79,-196.95 627.01,-166.44 621.31,-160.4 619.73,-151.89 619.99,-143.61"/>
<polygon fill="black" stroke="black" points="623.49,-143.76 621.12,-133.43 616.53,-142.99 623.49,-143.76"/>
<text text-anchor="middle" x="650.51" y="-155.24" font-family="Times,serif" font-size="14.00">{c1, c3}</text>
</g>
<!-- 3&#45;&gt;4 -->
<g id="edge54" class="edge">
<title>3&#45;&gt;4</title>
<path fill="none" stroke="black" d="M1045.87,-200.72C970.72,-198.45 761.21,-190.11 697.01,-166.44 694.39,-165.47 671.04,-148.89 651.83,-135.09"/>
<polygon fill="black" stroke="black" points="653.81,-132.2 643.65,-129.2 649.72,-137.88 653.81,-132.2"/>
<text text-anchor="middle" x="730.51" y="-155.24" font-family="Times,serif" font-size="14.00">{c1, c2, c3}</text>
</g>
<!-- 3&#45;&gt;4 -->
<g id="edge56" class="edge">
<title>3&#45;&gt;4</title>
<path fill="none" stroke="black" d="M1045.65,-202.14C993.6,-202.6 877.47,-199.44 787.01,-166.44 775.54,-162.25 775.19,-156.34 764.01,-151.44 730.84,-136.9 690.44,-127.54 661.95,-122.19"/>
<polygon fill="black" stroke="black" points="662.49,-118.73 652.02,-120.4 661.24,-125.62 662.49,-118.73"/>
<text text-anchor="middle" x="810.51" y="-155.24" font-family="Times,serif" font-size="14.00">{c1, c2}</text>
</g>
<!-- 3&#45;&gt;4 -->
<g id="edge57" class="edge">
<title>3&#45;&gt;4</title>
<path fill="none" stroke="black" d="M1045.81,-200.63C1003.91,-198.59 921.67,-191.46 857.01,-166.44 845.63,-162.03 845.38,-155.88 834.01,-151.44 776.94,-129.15 705.61,-121.04 663.05,-118.1"/>
<polygon fill="black" stroke="black" points="663.07,-114.6 652.87,-117.46 662.63,-121.58 663.07,-114.6"/>
<text text-anchor="middle" x="890.51" y="-155.24" font-family="Times,serif" font-size="14.00">{c0, c1, c3}</text>
</g>
<!-- 3&#45;&gt;4 -->
<g id="edge58" class="edge">
<title>3&#45;&gt;4</title>
<path fill="none" stroke="black" d="M1047.11,-196.67C1021.05,-191.33 980.11,-181.4 947.01,-166.44 935.89,-161.41 935.48,-155.59 924.01,-151.44 876.84,-134.36 731.95,-123.17 663.1,-118.67"/>
<polygon fill="black" stroke="black" points="663.32,-115.18 653.12,-118.03 662.87,-122.16 663.32,-115.18"/>
<text text-anchor="middle" x="991.01" y="-155.24" font-family="Times,serif" font-size="14.00">{c0, c1, c2, c3}</text>
</g>
<!-- 4&#45;&gt;2 -->
<g id="edge43" class="edge">
<title>4&#45;&gt;2</title>
<path fill="none" stroke="black" d="M628.08,-97.05C630.43,-85.75 635.41,-71.8 646.01,-64.44 681.07,-40.1 1371.93,-53.57 1414.01,-46.44 1425,-44.57 1436.67,-41.25 1447.06,-37.79"/>
<polygon fill="black" stroke="black" points="1448.26,-41.07 1456.55,-34.47 1445.95,-34.47 1448.26,-41.07"/>
<text text-anchor="middle" x="669.51" y="-68.24" font-family="Times,serif" font-size="14.00">{c2, c3}</text>
</g>
<!-- 4&#45;&gt;2 -->
<g id="edge44" class="edge">
<title>4&#45;&gt;2</title>
<path fill="none" stroke="black" d="M647.11,-104.07C660.45,-97.36 677.95,-88.26 693.01,-79.44 703.54,-73.27 704.36,-68.07 716.01,-64.44 790.08,-41.37 1337.53,-59.5 1414.01,-46.44 1424.99,-44.56 1436.67,-41.23 1447.05,-37.77"/>
<polygon fill="black" stroke="black" points="1448.26,-41.06 1456.55,-34.46 1445.95,-34.45 1448.26,-41.06"/>
<text text-anchor="middle" x="729.51" y="-68.24" font-family="Times,serif" font-size="14.00">{c2}</text>
</g>
<!-- 4&#45;&gt;2 -->
<g id="edge45" class="edge">
<title>4&#45;&gt;2</title>
<path fill="none" stroke="black" d="M651.42,-109.07C675.65,-103.43 712.81,-93.44 743.01,-79.44 754.08,-74.3 754.36,-68.08 766.01,-64.44 834.76,-42.96 1343.02,-58.63 1414.01,-46.44 1424.99,-44.55 1436.67,-41.22 1447.05,-37.76"/>
<polygon fill="black" stroke="black" points="1448.26,-41.04 1456.55,-34.44 1445.95,-34.44 1448.26,-41.04"/>
<text text-anchor="middle" x="789.51" y="-68.24" font-family="Times,serif" font-size="14.00">{c1, c2}</text>
</g>
<!-- 4&#45;&gt;2 -->
<g id="edge46" class="edge">
<title>4&#45;&gt;2</title>
<path fill="none" stroke="black" d="M652.94,-112.71C690.13,-109.6 758.75,-101.2 813.01,-79.44 824.34,-74.89 824.37,-68.1 836.01,-64.44 958.6,-25.91 1287.39,-68.41 1414.01,-46.44 1424.99,-44.53 1436.67,-41.2 1447.05,-37.74"/>
<polygon fill="black" stroke="black" points="1448.25,-41.02 1456.54,-34.42 1445.95,-34.41 1448.25,-41.02"/>
<text text-anchor="middle" x="869.51" y="-68.24" font-family="Times,serif" font-size="14.00">{c1, c2, c3}</text>
</g>
<!-- 4&#45;&gt;2 -->
<g id="edge47" class="edge">
<title>4&#45;&gt;2</title>
<path fill="none" stroke="black" d="M653.3,-114.98C704.1,-115.14 815.87,-111.42 903.01,-79.44 914.47,-75.23 914.38,-68.13 926.01,-64.44 1029.44,-31.6 1307.14,-65.3 1414.01,-46.44 1424.89,-44.52 1436.47,-41.21 1446.79,-37.78"/>
<polygon fill="black" stroke="black" points="1447.94,-41.09 1456.24,-34.5 1445.64,-34.48 1447.94,-41.09"/>
<text text-anchor="middle" x="939.51" y="-68.24" font-family="Times,serif" font-size="14.00">{c3}</text>
</g>
<!-- 4&#45;&gt;2 -->
<g id="edge48" class="edge">
<title>4&#45;&gt;2</title>
<path fill="none" stroke="black" d="M653.21,-113.16C721.35,-109.71 897.88,-99.08 953.01,-79.44 964.5,-75.34 964.38,-68.15 976.01,-64.44 1068.8,-34.77 1318.11,-63.57 1414.01,-46.44 1424.89,-44.49 1436.46,-41.18 1446.79,-37.75"/>
<polygon fill="black" stroke="black" points="1447.93,-41.06 1456.23,-34.48 1445.64,-34.45 1447.93,-41.06"/>
<text text-anchor="middle" x="999.51" y="-68.24" font-family="Times,serif" font-size="14.00">{c1, c3}</text>
</g>
<!-- 4&#45;&gt;2 -->
<g id="edge49" class="edge">
<title>4&#45;&gt;2</title>
<path fill="none" stroke="black" d="M652.93,-113.76C730.66,-111.54 954.27,-103.21 1023.01,-79.44 1034.54,-75.45 1034.4,-68.2 1046.01,-64.44 1123.9,-39.2 1333.47,-61.15 1414.01,-46.44 1424.77,-44.47 1436.22,-41.2 1446.46,-37.81"/>
<polygon fill="black" stroke="black" points="1447.92,-41.01 1456.22,-34.43 1445.63,-34.39 1447.92,-41.01"/>
<text text-anchor="middle" x="1059.51" y="-68.24" font-family="Times,serif" font-size="14.00">{c1}</text>
</g>
<!-- 4&#45;&gt;4 -->
<g id="edge37" class="edge">
<title>4&#45;&gt;4</title>
<path fill="none" stroke="black" d="M650.54,-123.19C661.52,-123.93 671.01,-121.34 671.01,-115.44 671.01,-111.47 666.72,-109 660.58,-108.03"/>
<polygon fill="black" stroke="black" points="660.66,-104.53 650.54,-107.69 660.41,-111.53 660.66,-104.53"/>
<text text-anchor="middle" x="678.01" y="-111.74" font-family="Times,serif" font-size="14.00">{}</text>
</g>
<!-- 5 -->
<g id="node7" class="node">
<title>5</title>
<ellipse fill="none" stroke="black" cx="335.01" cy="-24.44" rx="18" ry="18"/>
<ellipse fill="none" stroke="black" cx="335.01" cy="-24.44" rx="22" ry="22"/>
<text text-anchor="middle" x="335.01" y="-20.74" font-family="Times,serif" font-size="14.00">5</text>
</g>
<!-- 4&#45;&gt;5 -->
<g id="edge34" class="edge">
<title>4&#45;&gt;5</title>
<path fill="none" stroke="black" d="M598.74,-113.93C481.56,-111.64 25.69,-101.31 5.01,-79.44 -36.86,-35.15 211.94,-27.18 302.77,-25.75"/>
<polygon fill="black" stroke="black" points="303.09,-29.25 313.04,-25.61 302.99,-22.25 303.09,-29.25"/>
<text text-anchor="middle" x="38.51" y="-68.24" font-family="Times,serif" font-size="14.00">{c0, c1, c2}</text>
</g>
<!-- 4&#45;&gt;5 -->
<g id="edge35" class="edge">
<title>4&#45;&gt;5</title>
<path fill="none" stroke="black" d="M598.82,-114.76C495.27,-115.72 129.66,-116.45 95.01,-79.44 90.45,-74.57 90.69,-69.52 95.01,-64.44 121.27,-33.56 243.2,-27.06 302.47,-25.74"/>
<polygon fill="black" stroke="black" points="302.84,-29.24 312.78,-25.55 302.71,-22.24 302.84,-29.24"/>
<text text-anchor="middle" x="139.01" y="-68.24" font-family="Times,serif" font-size="14.00">{c0, c1, c2, c3}</text>
</g>
<!-- 4&#45;&gt;5 -->
<g id="edge36" class="edge">
<title>4&#45;&gt;5</title>
<path fill="none" stroke="black" d="M598.88,-114.26C510.13,-113.38 232.61,-108.35 206.01,-79.44 175.75,-46.55 255.7,-33.04 303.02,-28.04"/>
<polygon fill="black" stroke="black" points="303.52,-31.51 313.13,-27.05 302.84,-24.54 303.52,-31.51"/>
<text text-anchor="middle" x="229.51" y="-68.24" font-family="Times,serif" font-size="14.00">{c0, c3}</text>
</g>
<!-- 4&#45;&gt;5 -->
<g id="edge38" class="edge">
<title>4&#45;&gt;5</title>
<path fill="none" stroke="black" d="M599.09,-113.78C520.85,-111.59 297.6,-103.29 276.01,-79.44 262.13,-64.1 284.38,-48.33 305.41,-37.82"/>
<polygon fill="black" stroke="black" points="306.99,-40.95 314.54,-33.52 304.01,-34.61 306.99,-40.95"/>
<text text-anchor="middle" x="309.51" y="-68.24" font-family="Times,serif" font-size="14.00">{c0, c2, c3}</text>
</g>
<!-- 4&#45;&gt;5 -->
<g id="edge39" class="edge">
<title>4&#45;&gt;5</title>
<path fill="none" stroke="black" d="M599.12,-113.78C540.55,-111.88 403.72,-104.78 366.01,-79.44 357.13,-73.47 350.48,-64.04 345.66,-54.72"/>
<polygon fill="black" stroke="black" points="348.81,-53.19 341.45,-45.57 342.45,-56.12 348.81,-53.19"/>
<text text-anchor="middle" x="399.51" y="-68.24" font-family="Times,serif" font-size="14.00">{c0, c1, c3}</text>
</g>
<!-- 4&#45;&gt;5 -->
<g id="edge40" class="edge">
<title>4&#45;&gt;5</title>
<path fill="none" stroke="black" d="M599.19,-112.04C564.9,-108.29 504.21,-99.28 456.01,-79.44 444.72,-74.79 443.84,-70.05 433.01,-64.44 411.14,-53.1 385.18,-42.9 365.48,-35.79"/>
<polygon fill="black" stroke="black" points="366.4,-32.4 355.81,-32.35 364.06,-38.99 366.4,-32.4"/>
<text text-anchor="middle" x="469.51" y="-68.24" font-family="Times,serif" font-size="14.00">{c0}</text>
</g>
<!-- 4&#45;&gt;5 -->
<g id="edge41" class="edge">
<title>4&#45;&gt;5</title>
<path fill="none" stroke="black" d="M600.41,-109.27C575.57,-103.73 537.16,-93.76 506.01,-79.44 494.92,-74.34 494.16,-69.39 483.01,-64.44 444.77,-47.46 397.59,-36.62 366.93,-30.78"/>
<polygon fill="black" stroke="black" points="367.28,-27.29 356.81,-28.92 366.02,-34.17 367.28,-27.29"/>
<text text-anchor="middle" x="529.51" y="-68.24" font-family="Times,serif" font-size="14.00">{c0, c2}</text>
</g>
<!-- 4&#45;&gt;5 -->
<g id="edge42" class="edge">
<title>4&#45;&gt;5</title>
<path fill="none" stroke="black" d="M607.85,-101.72C587.23,-87.32 556.03,-65.67 553.01,-64.44 490.39,-38.79 410.84,-29.97 367.23,-26.97"/>
<polygon fill="black" stroke="black" points="367.41,-23.47 357.21,-26.34 366.97,-30.46 367.41,-23.47"/>
<text text-anchor="middle" x="598.51" y="-68.24" font-family="Times,serif" font-size="14.00">{c0, c1}</text>
</g>
<!-- 5&#45;&gt;5 -->
<g id="edge18" class="edge">
<title>5&#45;&gt;5</title>
<path fill="none" stroke="black" d="M357.22,-25.92C366.8,-26.04 375.01,-25.55 375.01,-24.44 375.01,-23.76 371.96,-23.31 367.41,-23.09"/>
<polygon fill="black" stroke="black" points="367.27,-19.59 357.22,-22.96 367.17,-26.59 367.27,-19.59"/>
<text text-anchor="middle" x="398.51" y="-20.74" font-family="Times,serif" font-size="14.00">{c0, c2}</text>
</g>
<!-- 5&#45;&gt;5 -->
<g id="edge19" class="edge">
<title>5&#45;&gt;5</title>
<path fill="none" stroke="black" d="M357.18,-26.71C384.34,-28.18 422.01,-27.42 422.01,-24.44 422.01,-21.81 392.91,-20.91 367.43,-21.73"/>
<polygon fill="black" stroke="black" points="367.03,-18.24 357.18,-22.16 367.32,-25.24 367.03,-18.24"/>
<text text-anchor="middle" x="435.51" y="-20.74" font-family="Times,serif" font-size="14.00">{c0}</text>
</g>
<!-- 5&#45;&gt;5 -->
<g id="edge20" class="edge">
<title>5&#45;&gt;5</title>
<path fill="none" stroke="black" d="M357.01,-27.35C392.7,-30.19 449.01,-29.22 449.01,-24.44 449.01,-20.09 402.37,-18.89 367.08,-20.85"/>
<polygon fill="black" stroke="black" points="366.76,-17.36 357.01,-21.52 367.22,-24.35 366.76,-17.36"/>
<text text-anchor="middle" x="482.51" y="-20.74" font-family="Times,serif" font-size="14.00">{c0, c1, c3}</text>
</g>
<!-- 5&#45;&gt;5 -->
<g id="edge21" class="edge">
<title>5&#45;&gt;5</title>
<path fill="none" stroke="black" d="M356.98,-27.57C408.96,-32.25 516.01,-31.2 516.01,-24.44 516.01,-18.08 421.53,-16.78 366.99,-20.52"/>
<polygon fill="black" stroke="black" points="366.67,-17.03 356.98,-21.31 367.22,-24.01 366.67,-17.03"/>
<text text-anchor="middle" x="523.01" y="-20.74" font-family="Times,serif" font-size="14.00">{}</text>
</g>
<!-- 5&#45;&gt;5 -->
<g id="edge22" class="edge">
<title>5&#45;&gt;5</title>
<path fill="none" stroke="black" d="M356.95,-28.02C414.07,-34.25 534.01,-33.05 534.01,-24.44 534.01,-16.31 427.27,-14.79 367.23,-19.87"/>
<polygon fill="black" stroke="black" points="366.57,-16.41 356.95,-20.85 367.24,-23.38 366.57,-16.41"/>
<text text-anchor="middle" x="557.51" y="-20.74" font-family="Times,serif" font-size="14.00">{c1, c2}</text>
</g>
<!-- 5&#45;&gt;5 -->
<g id="edge23" class="edge">
<title>5&#45;&gt;5</title>
<path fill="none" stroke="black" d="M357.12,-28.27C424.45,-36.26 581.01,-34.98 581.01,-24.44 581.01,-14.39 438.79,-12.75 367.15,-19.54"/>
<polygon fill="black" stroke="black" points="366.69,-16.07 357.12,-20.61 367.43,-23.03 366.69,-16.07"/>
<text text-anchor="middle" x="604.51" y="-20.74" font-family="Times,serif" font-size="14.00">{c0, c1}</text>
</g>
<!-- 5&#45;&gt;5 -->
<g id="edge24" class="edge">
<title>5&#45;&gt;5</title>
<path fill="none" stroke="black" d="M356.84,-28.43C433.46,-38.28 628.01,-36.95 628.01,-24.44 628.01,-12.44 449.09,-10.72 366.84,-19.29"/>
<polygon fill="black" stroke="black" points="366.37,-15.82 356.84,-20.44 367.18,-22.77 366.37,-15.82"/>
<text text-anchor="middle" x="672.01" y="-20.74" font-family="Times,serif" font-size="14.00">{c0, c1, c2, c3}</text>
</g>
<!-- 5&#45;&gt;5 -->
<g id="edge25" class="edge">
<title>5&#45;&gt;5</title>
<path fill="none" stroke="black" d="M356.91,-28.48C447.97,-40.3 716.01,-38.95 716.01,-24.44 716.01,-10.42 465.98,-8.68 366.85,-19.23"/>
<polygon fill="black" stroke="black" points="366.44,-15.76 356.91,-20.4 367.25,-22.71 366.44,-15.76"/>
<text text-anchor="middle" x="729.51" y="-20.74" font-family="Times,serif" font-size="14.00">{c2}</text>
</g>
<!-- 5&#45;&gt;5 -->
<g id="edge26" class="edge">
<title>5&#45;&gt;5</title>
<path fill="none" stroke="black" d="M356.74,-28.68C453.36,-42.3 743.01,-40.89 743.01,-24.44 743.01,-8.51 471.73,-6.68 366.67,-18.93"/>
<polygon fill="black" stroke="black" points="366.22,-15.45 356.74,-20.2 367.11,-22.4 366.22,-15.45"/>
<text text-anchor="middle" x="776.51" y="-20.74" font-family="Times,serif" font-size="14.00">{c0, c1, c2}</text>
</g>
<!-- 5&#45;&gt;5 -->
<g id="edge27" class="edge">
<title>5&#45;&gt;5</title>
<path fill="none" stroke="black" d="M356.66,-28.76C463.55,-44.32 810.01,-42.88 810.01,-24.44 810.01,-6.54 483.55,-4.66 366.66,-18.79"/>
<polygon fill="black" stroke="black" points="366.12,-15.33 356.66,-20.12 367.04,-22.27 366.12,-15.33"/>
<text text-anchor="middle" x="833.51" y="-20.74" font-family="Times,serif" font-size="14.00">{c2, c3}</text>
</g>
<!-- 5&#45;&gt;5 -->
<g id="edge28" class="edge">
<title>5&#45;&gt;5</title>
<path fill="none" stroke="black" d="M356.84,-28.92C471.66,-46.32 857.01,-44.83 857.01,-24.44 857.01,-4.61 492.44,-2.65 366.85,-18.57"/>
<polygon fill="black" stroke="black" points="366.26,-15.12 356.84,-19.96 367.22,-22.05 366.26,-15.12"/>
<text text-anchor="middle" x="880.51" y="-20.74" font-family="Times,serif" font-size="14.00">{c1, c3}</text>
</g>
<!-- 5&#45;&gt;5 -->
<g id="edge29" class="edge">
<title>5&#45;&gt;5</title>
<path fill="none" stroke="black" d="M356.74,-29.02C479,-48.33 904.01,-46.8 904.01,-24.44 904.01,-2.67 501.12,-0.64 367.03,-18.37"/>
<polygon fill="black" stroke="black" points="366.14,-14.96 356.74,-19.85 367.14,-21.89 366.14,-14.96"/>
<text text-anchor="middle" x="937.51" y="-20.74" font-family="Times,serif" font-size="14.00">{c0, c2, c3}</text>
</g>
<!-- 5&#45;&gt;5 -->
<g id="edge30" class="edge">
<title>5&#45;&gt;5</title>
<path fill="none" stroke="black" d="M356.62,-29.07C488.03,-50.33 971.01,-48.79 971.01,-24.44 971.01,-0.68 511.33,1.37 366.86,-18.28"/>
<polygon fill="black" stroke="black" points="366,-14.87 356.62,-19.8 367.03,-21.8 366,-14.87"/>
<text text-anchor="middle" x="984.51" y="-20.74" font-family="Times,serif" font-size="14.00">{c1}</text>
</g>
<!-- 5&#45;&gt;5 -->
<g id="edge31" class="edge">
<title>5&#45;&gt;5</title>
<path fill="none" stroke="black" d="M356.65,-29.22C493.47,-52.33 998.01,-50.74 998.01,-24.44 998.01,1.25 516.84,3.37 366.86,-18.07"/>
<polygon fill="black" stroke="black" points="365.99,-14.67 356.65,-19.66 367.07,-21.58 365.99,-14.67"/>
<text text-anchor="middle" x="1011.51" y="-20.74" font-family="Times,serif" font-size="14.00">{c3}</text>
</g>
<!-- 5&#45;&gt;5 -->
<g id="edge32" class="edge">
<title>5&#45;&gt;5</title>
<path fill="none" stroke="black" d="M356.56,-29.32C498.67,-54.34 1025.01,-52.71 1025.01,-24.44 1025.01,3.2 522.05,5.38 366.7,-17.91"/>
<polygon fill="black" stroke="black" points="365.87,-14.5 356.56,-19.55 366.99,-21.41 365.87,-14.5"/>
<text text-anchor="middle" x="1058.51" y="-20.74" font-family="Times,serif" font-size="14.00">{c1, c2, c3}</text>
</g>
<!-- 5&#45;&gt;5 -->
<g id="edge33" class="edge">
<title>5&#45;&gt;5</title>
<path fill="none" stroke="black" d="M356.7,-29.4C507.88,-56.34 1092.01,-54.69 1092.01,-24.44 1092.01,5.16 532.71,7.38 367.04,-17.78"/>
<polygon fill="black" stroke="black" points="366,-14.4 356.7,-19.47 367.14,-21.31 366,-14.4"/>
<text text-anchor="middle" x="1115.51" y="-20.74" font-family="Times,serif" font-size="14.00">{c0, c3}</text>
</g>
</g>
</svg>
