<?xml version="1.0" encoding="UTF-8" standalone="no"?>
<!DOCTYPE svg PUBLIC "-//W3C//DTD SVG 1.1//EN"
 "http://www.w3.org/Graphics/SVG/1.1/DTD/svg11.dtd">
<!-- Generated by graphviz version 2.43.0 (0)
 -->
<!-- Title: %3 Pages: 1 -->
<svg width="2567pt" height="475pt"
 viewBox="0.00 0.00 2567.21 475.44" xmlns="http://www.w3.org/2000/svg" xmlns:xlink="http://www.w3.org/1999/xlink">
<g id="graph0" class="graph" transform="scale(1 1) rotate(0) translate(4 471.44)">
<title>%3</title>
<polygon fill="white" stroke="transparent" points="-4,4 -4,-471.44 2563.21,-471.44 2563.21,4 -4,4"/>
<!-- fake -->
<g id="node1" class="node">
<title>fake</title>
</g>
<!-- 0 -->
<g id="node2" class="node">
<title>0</title>
<ellipse fill="none" stroke="black" cx="1847.21" cy="-376.44" rx="27" ry="18"/>
<text text-anchor="middle" x="1847.21" y="-372.74" font-family="Times,serif" font-size="14.00">0</text>
</g>
<!-- fake&#45;&gt;0 -->
<g id="edge1" class="edge">
<title>fake&#45;&gt;0</title>
<path fill="none" stroke="black" stroke-width="2" d="M1847.21,-431.25C1847.21,-423.23 1847.21,-413.49 1847.21,-404.51"/>
<polygon fill="black" stroke="black" stroke-width="2" points="1850.71,-404.47 1847.21,-394.47 1843.71,-404.47 1850.71,-404.47"/>
</g>
<!-- 0&#45;&gt;0 -->
<g id="edge9" class="edge">
<title>0&#45;&gt;0</title>
<path fill="none" stroke="black" d="M1872.65,-383.13C1883.24,-383.59 1892.21,-381.36 1892.21,-376.44 1892.21,-373.21 1888.35,-371.14 1882.7,-370.23"/>
<polygon fill="black" stroke="black" points="1882.81,-366.73 1872.65,-369.75 1882.48,-373.72 1882.81,-366.73"/>
<text text-anchor="middle" x="1899.21" y="-372.74" font-family="Times,serif" font-size="14.00">{}</text>
</g>
<!-- 1 -->
<g id="node3" class="node">
<title>1</title>
<ellipse fill="none" stroke="black" cx="1486.21" cy="-289.44" rx="27" ry="18"/>
<text text-anchor="middle" x="1486.21" y="-285.74" font-family="Times,serif" font-size="14.00">1</text>
</g>
<!-- 0&#45;&gt;1 -->
<g id="edge2" class="edge">
<title>0&#45;&gt;1</title>
<path fill="none" stroke="black" d="M1819.97,-374.8C1709,-372.03 1296.02,-360.44 1277.21,-340.44 1272.64,-335.59 1272.9,-330.53 1277.21,-325.44 1298.77,-299.97 1394.72,-293.02 1448.81,-291.14"/>
<polygon fill="black" stroke="black" points="1449.15,-294.63 1459.03,-290.82 1448.93,-287.63 1449.15,-294.63"/>
<text text-anchor="middle" x="1310.71" y="-329.24" font-family="Times,serif" font-size="14.00">{c0, c1, c2}</text>
</g>
<!-- 0&#45;&gt;1 -->
<g id="edge3" class="edge">
<title>0&#45;&gt;1</title>
<path fill="none" stroke="black" d="M1820.01,-375.56C1723,-375.71 1398.15,-373.71 1367.21,-340.44 1340.65,-311.88 1405.21,-299.04 1449.27,-293.75"/>
<polygon fill="black" stroke="black" points="1449.86,-297.21 1459.41,-292.62 1449.08,-290.25 1449.86,-297.21"/>
<text text-anchor="middle" x="1380.71" y="-329.24" font-family="Times,serif" font-size="14.00">{c0}</text>
</g>
<!-- 0&#45;&gt;1 -->
<g id="edge4" class="edge">
<title>0&#45;&gt;1</title>
<path fill="none" stroke="black" d="M1820.07,-375.32C1729.91,-374.62 1444.53,-370.08 1417.21,-340.44 1402.25,-324.21 1428.16,-309.92 1452.39,-300.81"/>
<polygon fill="black" stroke="black" points="1453.59,-304.1 1461.85,-297.47 1451.25,-297.5 1453.59,-304.1"/>
<text text-anchor="middle" x="1440.71" y="-329.24" font-family="Times,serif" font-size="14.00">{c0, c1}</text>
</g>
<!-- 0&#45;&gt;1 -->
<g id="edge5" class="edge">
<title>0&#45;&gt;1</title>
<path fill="none" stroke="black" d="M1820.12,-374.84C1740.23,-372.78 1509.74,-364.78 1487.21,-340.44 1481.57,-334.35 1480,-325.83 1480.26,-317.55"/>
<polygon fill="black" stroke="black" points="1483.76,-317.71 1481.38,-307.39 1476.8,-316.95 1483.76,-317.71"/>
<text text-anchor="middle" x="1520.71" y="-329.24" font-family="Times,serif" font-size="14.00">{c0, c1, c3}</text>
</g>
<!-- 0&#45;&gt;1 -->
<g id="edge6" class="edge">
<title>0&#45;&gt;1</title>
<path fill="none" stroke="black" d="M1820.21,-375.86C1770.52,-375.79 1661.91,-371.69 1577.21,-340.44 1565.76,-336.22 1564.76,-331.58 1554.21,-325.44 1542.16,-318.44 1528.57,-311.29 1516.72,-305.3"/>
<polygon fill="black" stroke="black" points="1518.16,-302.11 1507.65,-300.77 1515.03,-308.37 1518.16,-302.11"/>
<text text-anchor="middle" x="1600.71" y="-329.24" font-family="Times,serif" font-size="14.00">{c0, c3}</text>
</g>
<!-- 0&#45;&gt;1 -->
<g id="edge7" class="edge">
<title>0&#45;&gt;1</title>
<path fill="none" stroke="black" d="M1820.4,-374.17C1781.14,-371.56 1706.24,-363.72 1647.21,-340.44 1635.86,-335.96 1635.39,-330.34 1624.21,-325.44 1591.05,-310.9 1550.64,-301.54 1522.15,-296.19"/>
<polygon fill="black" stroke="black" points="1522.69,-292.73 1512.23,-294.4 1521.44,-299.62 1522.69,-292.73"/>
<text text-anchor="middle" x="1691.21" y="-329.24" font-family="Times,serif" font-size="14.00">{c0, c1, c2, c3}</text>
</g>
<!-- 0&#45;&gt;1 -->
<g id="edge8" class="edge">
<title>0&#45;&gt;1</title>
<path fill="none" stroke="black" d="M1823.59,-367.63C1805.32,-361.24 1779.61,-351.48 1758.21,-340.44 1747.37,-334.85 1746.64,-329.73 1735.21,-325.44 1663.62,-298.59 1573.43,-292.1 1523.61,-290.68"/>
<polygon fill="black" stroke="black" points="1523.4,-287.17 1513.32,-290.44 1523.23,-294.17 1523.4,-287.17"/>
<text text-anchor="middle" x="1791.71" y="-329.24" font-family="Times,serif" font-size="14.00">{c0, c2, c3}</text>
</g>
<!-- 0&#45;&gt;1 -->
<g id="edge10" class="edge">
<title>0&#45;&gt;1</title>
<path fill="none" stroke="black" d="M1844.24,-358.28C1841.36,-347.07 1835.79,-333.15 1825.21,-325.44 1777.94,-291 1601.5,-288.88 1523.59,-289.7"/>
<polygon fill="black" stroke="black" points="1523.23,-286.21 1513.28,-289.83 1523.32,-293.21 1523.23,-286.21"/>
<text text-anchor="middle" x="1860.71" y="-329.24" font-family="Times,serif" font-size="14.00">{c0, c2}</text>
</g>
<!-- 2 -->
<g id="node4" class="node">
<title>2</title>
<ellipse fill="none" stroke="black" cx="1484.21" cy="-24.44" rx="27" ry="18"/>
<text text-anchor="middle" x="1484.21" y="-20.74" font-family="Times,serif" font-size="14.00">2</text>
</g>
<!-- 0&#45;&gt;2 -->
<g id="edge11" class="edge">
<title>0&#45;&gt;2</title>
<path fill="none" stroke="black" d="M1866.94,-364.02C1875.12,-358.13 1883.74,-350.13 1888.21,-340.44 1891,-334.39 1889.9,-331.89 1888.21,-325.44 1857.44,-208.11 1834.25,-171.53 1738.21,-97.44 1673.06,-47.18 1574.37,-32 1521.22,-27.42"/>
<polygon fill="black" stroke="black" points="1521.47,-23.93 1511.22,-26.64 1520.92,-30.91 1521.47,-23.93"/>
<text text-anchor="middle" x="1864.71" y="-198.74" font-family="Times,serif" font-size="14.00">{c1}</text>
</g>
<!-- 0&#45;&gt;2 -->
<g id="edge12" class="edge">
<title>0&#45;&gt;2</title>
<path fill="none" stroke="black" d="M1869.16,-365.72C1894.94,-352.65 1934.21,-326.76 1934.21,-290.44 1934.21,-290.44 1934.21,-290.44 1934.21,-114.44 1934.21,-30.53 1629.28,-24.46 1521.45,-24.93"/>
<polygon fill="black" stroke="black" points="1521.32,-21.44 1511.35,-25 1521.37,-28.44 1521.32,-21.44"/>
<text text-anchor="middle" x="1957.71" y="-198.74" font-family="Times,serif" font-size="14.00">{c1, c2}</text>
</g>
<!-- 0&#45;&gt;2 -->
<g id="edge13" class="edge">
<title>0&#45;&gt;2</title>
<path fill="none" stroke="black" d="M1874.15,-374.01C1922.08,-369.85 2017.21,-353.63 2017.21,-290.44 2017.21,-290.44 2017.21,-290.44 2017.21,-114.44 2017.21,-62.75 1962.06,-78.11 1912.21,-64.44 1838.84,-44.32 1610.78,-31.51 1521.03,-27.13"/>
<polygon fill="black" stroke="black" points="1521.19,-23.63 1511.04,-26.65 1520.86,-30.62 1521.19,-23.63"/>
<text text-anchor="middle" x="2040.71" y="-198.74" font-family="Times,serif" font-size="14.00">{c2, c3}</text>
</g>
<!-- 0&#45;&gt;2 -->
<g id="edge14" class="edge">
<title>0&#45;&gt;2</title>
<path fill="none" stroke="black" d="M1873.81,-372.26C1938.76,-363.74 2100.21,-337.82 2100.21,-290.44 2100.21,-290.44 2100.21,-290.44 2100.21,-114.44 2100.21,-51.71 2029.42,-78.21 1968.21,-64.44 1804.72,-27.67 1603.3,-24.49 1521.43,-24.9"/>
<polygon fill="black" stroke="black" points="1521.34,-21.4 1511.37,-24.98 1521.39,-28.4 1521.34,-21.4"/>
<text text-anchor="middle" x="2113.71" y="-198.74" font-family="Times,serif" font-size="14.00">{c3}</text>
</g>
<!-- 0&#45;&gt;2 -->
<g id="edge15" class="edge">
<title>0&#45;&gt;2</title>
<path fill="none" stroke="black" d="M1874.15,-373.97C1950.57,-369.08 2163.21,-350.09 2163.21,-290.44 2163.21,-290.44 2163.21,-290.44 2163.21,-114.44 2163.21,-55.02 2097.11,-77.8 2039.21,-64.44 1940.15,-41.59 1628.78,-29.95 1521.2,-26.53"/>
<polygon fill="black" stroke="black" points="1521.25,-23.03 1511.15,-26.22 1521.03,-30.03 1521.25,-23.03"/>
<text text-anchor="middle" x="2186.71" y="-198.74" font-family="Times,serif" font-size="14.00">{c1, c3}</text>
</g>
<!-- 0&#45;&gt;2 -->
<g id="edge16" class="edge">
<title>0&#45;&gt;2</title>
<path fill="none" stroke="black" d="M1874.32,-375.46C1964.13,-374.8 2246.21,-366.67 2246.21,-290.44 2246.21,-290.44 2246.21,-290.44 2246.21,-114.44 2246.21,-40.63 1674.83,-27.91 1521.63,-25.83"/>
<polygon fill="black" stroke="black" points="1521.38,-22.33 1511.33,-25.7 1521.29,-29.33 1521.38,-22.33"/>
<text text-anchor="middle" x="2259.71" y="-198.74" font-family="Times,serif" font-size="14.00">{c2}</text>
</g>
<!-- 0&#45;&gt;2 -->
<g id="edge17" class="edge">
<title>0&#45;&gt;2</title>
<path fill="none" stroke="black" d="M1874.09,-374.39C1948.56,-371.26 2156.29,-360.88 2221.21,-340.44 2264.12,-326.93 2309.21,-335.42 2309.21,-290.44 2309.21,-290.44 2309.21,-290.44 2309.21,-114.44 2309.21,-34.08 1682.5,-26.19 1521.54,-25.49"/>
<polygon fill="black" stroke="black" points="1521.2,-21.99 1511.19,-25.45 1521.18,-28.99 1521.2,-21.99"/>
<text text-anchor="middle" x="2342.71" y="-198.74" font-family="Times,serif" font-size="14.00">{c1, c2, c3}</text>
</g>
<!-- 1&#45;&gt;1 -->
<g id="edge56" class="edge">
<title>1&#45;&gt;1</title>
<path fill="none" stroke="black" d="M1510.74,-297.19C1521.72,-297.93 1531.21,-295.35 1531.21,-289.44 1531.21,-285.47 1526.93,-283 1520.79,-282.04"/>
<polygon fill="black" stroke="black" points="1520.86,-278.54 1510.74,-281.69 1520.62,-285.53 1520.86,-278.54"/>
<text text-anchor="middle" x="1538.21" y="-285.74" font-family="Times,serif" font-size="14.00">{}</text>
</g>
<!-- 1&#45;&gt;2 -->
<g id="edge59" class="edge">
<title>1&#45;&gt;2</title>
<path fill="none" stroke="black" d="M1483.94,-271.13C1482.45,-261.42 1480.22,-249.14 1477.21,-238.44 1467.9,-205.39 1455.54,-200.19 1449.21,-166.44 1447.98,-159.89 1445.5,-156.98 1449.21,-151.44 1460.99,-133.9 1481.43,-150.98 1493.21,-133.44 1509.38,-109.36 1502.81,-75.11 1495.02,-51.67"/>
<polygon fill="black" stroke="black" points="1498.24,-50.27 1491.56,-42.05 1491.65,-52.64 1498.24,-50.27"/>
<text text-anchor="middle" x="1472.71" y="-155.24" font-family="Times,serif" font-size="14.00">{c0, c2}</text>
</g>
<!-- 1&#45;&gt;2 -->
<g id="edge60" class="edge">
<title>1&#45;&gt;2</title>
<path fill="none" stroke="black" d="M1489.8,-271.38C1490.95,-265.69 1492.19,-259.3 1493.21,-253.44 1506.63,-176.71 1512.05,-157.31 1514.21,-79.44 1514.4,-72.78 1516.36,-70.75 1514.21,-64.44 1512.2,-58.54 1508.9,-52.82 1505.2,-47.68"/>
<polygon fill="black" stroke="black" points="1507.74,-45.25 1498.77,-39.62 1502.27,-49.62 1507.74,-45.25"/>
<text text-anchor="middle" x="1532.71" y="-155.24" font-family="Times,serif" font-size="14.00">{c0, c3}</text>
</g>
<!-- 1&#45;&gt;2 -->
<g id="edge61" class="edge">
<title>1&#45;&gt;2</title>
<path fill="none" stroke="black" d="M1499.07,-273.57C1516.93,-251.8 1548.41,-209.18 1560.21,-166.44 1570.45,-129.36 1546.51,-91.24 1528.21,-64.44 1523.35,-57.33 1516.92,-50.67 1510.47,-44.93"/>
<polygon fill="black" stroke="black" points="1512.34,-41.93 1502.42,-38.2 1507.85,-47.3 1512.34,-41.93"/>
<text text-anchor="middle" x="1585.71" y="-155.24" font-family="Times,serif" font-size="14.00">{c2, c3}</text>
</g>
<!-- 1&#45;&gt;2 -->
<g id="edge62" class="edge">
<title>1&#45;&gt;2</title>
<path fill="none" stroke="black" d="M1508.2,-278.86C1549.67,-259.22 1633.54,-211.16 1613.21,-151.44 1597.48,-105.24 1582.32,-97.28 1546.21,-64.44 1536.51,-55.62 1524.56,-47.57 1513.75,-41.11"/>
<polygon fill="black" stroke="black" points="1515.43,-38.04 1505.02,-36.08 1511.93,-44.1 1515.43,-38.04"/>
<text text-anchor="middle" x="1628.71" y="-155.24" font-family="Times,serif" font-size="14.00">{c3}</text>
</g>
<!-- 1&#45;&gt;2 -->
<g id="edge63" class="edge">
<title>1&#45;&gt;2</title>
<path fill="none" stroke="black" d="M1510.67,-281.63C1529.82,-275.72 1556.72,-266.12 1578.21,-253.44 1625.14,-225.76 1662.66,-203.38 1646.21,-151.44 1627.39,-92.01 1558.62,-54.96 1516.97,-37.46"/>
<polygon fill="black" stroke="black" points="1518.1,-34.14 1507.52,-33.62 1515.47,-40.62 1518.1,-34.14"/>
<text text-anchor="middle" x="1662.71" y="-155.24" font-family="Times,serif" font-size="14.00">{c2}</text>
</g>
<!-- 1&#45;&gt;2 -->
<g id="edge64" class="edge">
<title>1&#45;&gt;2</title>
<path fill="none" stroke="black" d="M1512.01,-283.26C1570.63,-270.04 1706.78,-230.38 1680.21,-151.44 1656.91,-82.22 1568.97,-47.96 1519.17,-33.78"/>
<polygon fill="black" stroke="black" points="1520.02,-30.39 1509.45,-31.13 1518.18,-37.14 1520.02,-30.39"/>
<text text-anchor="middle" x="1716.71" y="-155.24" font-family="Times,serif" font-size="14.00">{c0, c2, c3}</text>
</g>
<!-- 1&#45;&gt;2 -->
<g id="edge65" class="edge">
<title>1&#45;&gt;2</title>
<path fill="none" stroke="black" d="M1512.99,-286.23C1590.54,-278.63 1806.51,-248.51 1754.21,-151.44 1708.05,-65.78 1583.94,-37.97 1521.36,-29.25"/>
<polygon fill="black" stroke="black" points="1521.51,-25.74 1511.14,-27.92 1520.61,-32.68 1521.51,-25.74"/>
<text text-anchor="middle" x="1772.71" y="-155.24" font-family="Times,serif" font-size="14.00">{c0}</text>
</g>
<!-- 3 -->
<g id="node5" class="node">
<title>3</title>
<ellipse fill="none" stroke="black" cx="1019.21" cy="-202.44" rx="27" ry="18"/>
<text text-anchor="middle" x="1019.21" y="-198.74" font-family="Times,serif" font-size="14.00">3</text>
</g>
<!-- 1&#45;&gt;3 -->
<g id="edge50" class="edge">
<title>1&#45;&gt;3</title>
<path fill="none" stroke="black" d="M1459.08,-287.95C1341.4,-285.71 880.12,-275.55 859.21,-253.44 821.94,-214.03 923.77,-205.5 981.9,-203.78"/>
<polygon fill="black" stroke="black" points="982.28,-207.27 992.2,-203.53 982.12,-200.27 982.28,-207.27"/>
<text text-anchor="middle" x="872.71" y="-242.24" font-family="Times,serif" font-size="14.00">{c1}</text>
</g>
<!-- 1&#45;&gt;3 -->
<g id="edge51" class="edge">
<title>1&#45;&gt;3</title>
<path fill="none" stroke="black" d="M1459.01,-287.82C1347.25,-285.12 928.28,-273.7 909.21,-253.44 884.62,-227.32 941.97,-213.78 982.76,-207.68"/>
<polygon fill="black" stroke="black" points="983.29,-211.14 992.71,-206.28 982.32,-204.2 983.29,-211.14"/>
<text text-anchor="middle" x="953.21" y="-242.24" font-family="Times,serif" font-size="14.00">{c0, c1, c2, c3}</text>
</g>
<!-- 1&#45;&gt;3 -->
<g id="edge52" class="edge">
<title>1&#45;&gt;3</title>
<path fill="none" stroke="black" d="M1459.17,-288.48C1364.26,-288.33 1050.47,-285.41 1020.21,-253.44 1014.5,-247.41 1012.92,-238.91 1013.18,-230.62"/>
<polygon fill="black" stroke="black" points="1016.68,-230.77 1014.31,-220.45 1009.73,-230 1016.68,-230.77"/>
<text text-anchor="middle" x="1043.71" y="-242.24" font-family="Times,serif" font-size="14.00">{c1, c2}</text>
</g>
<!-- 1&#45;&gt;3 -->
<g id="edge53" class="edge">
<title>1&#45;&gt;3</title>
<path fill="none" stroke="black" d="M1459.04,-287.87C1381.14,-285.94 1158.26,-278.35 1090.21,-253.44 1087.59,-252.48 1064.24,-235.9 1045.03,-222.09"/>
<polygon fill="black" stroke="black" points="1047.01,-219.21 1036.85,-216.21 1042.92,-224.89 1047.01,-219.21"/>
<text text-anchor="middle" x="1113.71" y="-242.24" font-family="Times,serif" font-size="14.00">{c0, c1}</text>
</g>
<!-- 1&#45;&gt;3 -->
<g id="edge54" class="edge">
<title>1&#45;&gt;3</title>
<path fill="none" stroke="black" d="M1459.09,-287.16C1391.16,-283.69 1215.17,-273.03 1160.21,-253.44 1148.72,-249.34 1148.29,-243.56 1137.21,-238.44 1110.57,-226.12 1078.54,-216.94 1054.58,-211.09"/>
<polygon fill="black" stroke="black" points="1055.38,-207.68 1044.84,-208.78 1053.76,-214.49 1055.38,-207.68"/>
<text text-anchor="middle" x="1183.71" y="-242.24" font-family="Times,serif" font-size="14.00">{c1, c3}</text>
</g>
<!-- 1&#45;&gt;3 -->
<g id="edge55" class="edge">
<title>1&#45;&gt;3</title>
<path fill="none" stroke="black" d="M1459.11,-288.59C1411.33,-288.02 1309.65,-283.06 1230.21,-253.44 1218.78,-249.18 1218.54,-242.98 1207.21,-238.44 1157.21,-218.41 1095.07,-209.71 1056.27,-206.03"/>
<polygon fill="black" stroke="black" points="1056.24,-202.51 1045.97,-205.12 1055.62,-209.48 1056.24,-202.51"/>
<text text-anchor="middle" x="1263.71" y="-242.24" font-family="Times,serif" font-size="14.00">{c0, c1, c2}</text>
</g>
<!-- 1&#45;&gt;3 -->
<g id="edge57" class="edge">
<title>1&#45;&gt;3</title>
<path fill="none" stroke="black" d="M1459.73,-285.91C1426.2,-282.02 1367.15,-272.89 1320.21,-253.44 1308.94,-248.77 1308.67,-242.64 1297.21,-238.44 1215.01,-208.29 1110.96,-203.23 1056.43,-202.89"/>
<polygon fill="black" stroke="black" points="1056.21,-199.39 1046.21,-202.88 1056.2,-206.39 1056.21,-199.39"/>
<text text-anchor="middle" x="1353.71" y="-242.24" font-family="Times,serif" font-size="14.00">{c1, c2, c3}</text>
</g>
<!-- 1&#45;&gt;3 -->
<g id="edge58" class="edge">
<title>1&#45;&gt;3</title>
<path fill="none" stroke="black" d="M1463.84,-279.17C1448.47,-272.55 1427.76,-263.14 1410.21,-253.44 1399.53,-247.54 1398.73,-242.47 1387.21,-238.44 1326.84,-217.33 1137.43,-207.88 1056.49,-204.73"/>
<polygon fill="black" stroke="black" points="1056.39,-201.22 1046.26,-204.34 1056.12,-208.21 1056.39,-201.22"/>
<text text-anchor="middle" x="1443.71" y="-242.24" font-family="Times,serif" font-size="14.00">{c0, c1, c3}</text>
</g>
<!-- 2&#45;&gt;2 -->
<g id="edge66" class="edge">
<title>2&#45;&gt;2</title>
<path fill="none" stroke="black" d="M1511.45,-25.94C1521.23,-25.97 1529.21,-25.47 1529.21,-24.44 1529.21,-23.81 1526.25,-23.38 1521.72,-23.15"/>
<polygon fill="black" stroke="black" points="1521.52,-19.64 1511.45,-22.94 1521.38,-26.64 1521.52,-19.64"/>
<text text-anchor="middle" x="1562.71" y="-20.74" font-family="Times,serif" font-size="14.00">{c0, c1, c2}</text>
</g>
<!-- 2&#45;&gt;2 -->
<g id="edge67" class="edge">
<title>2&#45;&gt;2</title>
<path fill="none" stroke="black" d="M1511.11,-26.71C1545.56,-28.18 1596.21,-27.43 1596.21,-24.44 1596.21,-21.74 1554.61,-20.86 1521.17,-21.81"/>
<polygon fill="black" stroke="black" points="1520.98,-18.32 1511.11,-22.17 1521.23,-25.31 1520.98,-18.32"/>
<text text-anchor="middle" x="1619.71" y="-20.74" font-family="Times,serif" font-size="14.00">{c0, c2}</text>
</g>
<!-- 2&#45;&gt;2 -->
<g id="edge68" class="edge">
<title>2&#45;&gt;2</title>
<path fill="none" stroke="black" d="M1510.98,-27.31C1558.57,-30.2 1643.21,-29.25 1643.21,-24.44 1643.21,-19.97 1569.74,-18.83 1521.22,-21.03"/>
<polygon fill="black" stroke="black" points="1520.78,-17.55 1510.98,-21.57 1521.15,-24.54 1520.78,-17.55"/>
<text text-anchor="middle" x="1656.71" y="-20.74" font-family="Times,serif" font-size="14.00">{c1}</text>
</g>
<!-- 2&#45;&gt;2 -->
<g id="edge69" class="edge">
<title>2&#45;&gt;2</title>
<path fill="none" stroke="black" d="M1510.86,-27.89C1565.78,-32.2 1670.21,-31.05 1670.21,-24.44 1670.21,-18.22 1577.66,-16.84 1521,-20.29"/>
<polygon fill="black" stroke="black" points="1520.6,-16.81 1510.86,-20.99 1521.08,-23.8 1520.6,-16.81"/>
<text text-anchor="middle" x="1693.71" y="-20.74" font-family="Times,serif" font-size="14.00">{c0, c3}</text>
</g>
<!-- 2&#45;&gt;2 -->
<g id="edge70" class="edge">
<title>2&#45;&gt;2</title>
<path fill="none" stroke="black" d="M1510.68,-28.23C1576.53,-34.22 1717.21,-32.96 1717.21,-24.44 1717.21,-16.34 1589.93,-14.8 1520.84,-19.82"/>
<polygon fill="black" stroke="black" points="1520.37,-16.35 1510.68,-20.65 1520.93,-23.33 1520.37,-16.35"/>
<text text-anchor="middle" x="1740.71" y="-20.74" font-family="Times,serif" font-size="14.00">{c1, c2}</text>
</g>
<!-- 2&#45;&gt;2 -->
<g id="edge71" class="edge">
<title>2&#45;&gt;2</title>
<path fill="none" stroke="black" d="M1510.69,-28.54C1586.69,-36.24 1764.21,-34.87 1764.21,-24.44 1764.21,-14.46 1601.62,-12.78 1521.02,-19.4"/>
<polygon fill="black" stroke="black" points="1520.33,-15.95 1510.69,-20.35 1520.96,-22.92 1520.33,-15.95"/>
<text text-anchor="middle" x="1787.71" y="-20.74" font-family="Times,serif" font-size="14.00">{c2, c3}</text>
</g>
<!-- 2&#45;&gt;2 -->
<g id="edge72" class="edge">
<title>2&#45;&gt;2</title>
<path fill="none" stroke="black" d="M1510.6,-28.79C1596.11,-38.25 1811.21,-36.8 1811.21,-24.44 1811.21,-12.54 1611.78,-10.76 1520.64,-19.09"/>
<polygon fill="black" stroke="black" points="1520.2,-15.61 1510.6,-20.1 1520.9,-22.58 1520.2,-15.61"/>
<text text-anchor="middle" x="1824.71" y="-20.74" font-family="Times,serif" font-size="14.00">{c3}</text>
</g>
<!-- 2&#45;&gt;2 -->
<g id="edge73" class="edge">
<title>2&#45;&gt;2</title>
<path fill="none" stroke="black" d="M1510.52,-29.08C1602.11,-40.25 1838.21,-38.71 1838.21,-24.44 1838.21,-10.68 1618.42,-8.75 1520.7,-18.67"/>
<polygon fill="black" stroke="black" points="1520.08,-15.22 1510.52,-19.8 1520.85,-22.18 1520.08,-15.22"/>
<text text-anchor="middle" x="1861.71" y="-20.74" font-family="Times,serif" font-size="14.00">{c1, c3}</text>
</g>
<!-- 2&#45;&gt;2 -->
<g id="edge74" class="edge">
<title>2&#45;&gt;2</title>
<path fill="none" stroke="black" d="M1510.29,-29.24C1610.6,-42.27 1885.21,-40.67 1885.21,-24.44 1885.21,-8.74 1628.01,-6.73 1520.52,-18.43"/>
<polygon fill="black" stroke="black" points="1519.81,-14.99 1510.29,-19.64 1520.63,-21.94 1519.81,-14.99"/>
<text text-anchor="middle" x="1898.71" y="-20.74" font-family="Times,serif" font-size="14.00">{c2}</text>
</g>
<!-- 2&#45;&gt;2 -->
<g id="edge75" class="edge">
<title>2&#45;&gt;2</title>
<path fill="none" stroke="black" d="M1510.38,-29.49C1616.73,-44.27 1912.21,-42.59 1912.21,-24.44 1912.21,-6.85 1634.35,-4.73 1520.55,-18.09"/>
<polygon fill="black" stroke="black" points="1519.86,-14.65 1510.38,-19.39 1520.75,-21.6 1519.86,-14.65"/>
<text text-anchor="middle" x="1945.71" y="-20.74" font-family="Times,serif" font-size="14.00">{c0, c1, c3}</text>
</g>
<!-- 2&#45;&gt;2 -->
<g id="edge76" class="edge">
<title>2&#45;&gt;2</title>
<path fill="none" stroke="black" d="M1510.33,-29.57C1627.55,-46.28 1979.21,-44.57 1979.21,-24.44 1979.21,-4.86 1646.52,-2.71 1520.46,-17.98"/>
<polygon fill="black" stroke="black" points="1519.79,-14.54 1510.33,-19.31 1520.7,-21.48 1519.79,-14.54"/>
<text text-anchor="middle" x="2012.71" y="-20.74" font-family="Times,serif" font-size="14.00">{c0, c2, c3}</text>
</g>
<!-- 2&#45;&gt;2 -->
<g id="edge77" class="edge">
<title>2&#45;&gt;2</title>
<path fill="none" stroke="black" d="M1510.1,-29.63C1637.43,-48.29 2046.21,-46.57 2046.21,-24.44 2046.21,-2.88 1657.93,-0.69 1520.33,-17.87"/>
<polygon fill="black" stroke="black" points="1519.54,-14.45 1510.1,-19.26 1520.48,-21.39 1519.54,-14.45"/>
<text text-anchor="middle" x="2090.21" y="-20.74" font-family="Times,serif" font-size="14.00">{c0, c1, c2, c3}</text>
</g>
<!-- 2&#45;&gt;2 -->
<g id="edge78" class="edge">
<title>2&#45;&gt;2</title>
<path fill="none" stroke="black" d="M1510.14,-29.67C1649.64,-50.31 2134.21,-48.56 2134.21,-24.44 2134.21,-0.86 1671.17,1.33 1520.05,-17.86"/>
<polygon fill="black" stroke="black" points="1519.57,-14.39 1510.14,-19.21 1520.52,-21.32 1519.57,-14.39"/>
<text text-anchor="middle" x="2157.71" y="-20.74" font-family="Times,serif" font-size="14.00">{c0, c1}</text>
</g>
<!-- 2&#45;&gt;2 -->
<g id="edge79" class="edge">
<title>2&#45;&gt;2</title>
<path fill="none" stroke="black" d="M1510.09,-29.79C1656.97,-52.31 2181.21,-50.53 2181.21,-24.44 2181.21,1.08 1679.25,3.34 1520.07,-17.67"/>
<polygon fill="black" stroke="black" points="1519.5,-14.22 1510.09,-19.09 1520.48,-21.15 1519.5,-14.22"/>
<text text-anchor="middle" x="2194.71" y="-20.74" font-family="Times,serif" font-size="14.00">{c0}</text>
</g>
<!-- 2&#45;&gt;2 -->
<g id="edge80" class="edge">
<title>2&#45;&gt;2</title>
<path fill="none" stroke="black" d="M1510.08,-29.94C1662.32,-54.31 2208.21,-52.48 2208.21,-24.44 2208.21,2.99 1685.53,5.34 1520.43,-17.4"/>
<polygon fill="black" stroke="black" points="1519.46,-14.01 1510.08,-18.94 1520.48,-20.93 1519.46,-14.01"/>
<text text-anchor="middle" x="2215.21" y="-20.74" font-family="Times,serif" font-size="14.00">{}</text>
</g>
<!-- 2&#45;&gt;2 -->
<g id="edge81" class="edge">
<title>2&#45;&gt;2</title>
<path fill="none" stroke="black" d="M1510.34,-30.15C1667.51,-56.31 2226.21,-54.41 2226.21,-24.44 2226.21,4.93 1689.66,7.34 1520.25,-17.2"/>
<polygon fill="black" stroke="black" points="1519.68,-13.74 1510.34,-18.73 1520.76,-20.66 1519.68,-13.74"/>
<text text-anchor="middle" x="2259.71" y="-20.74" font-family="Times,serif" font-size="14.00">{c1, c2, c3}</text>
</g>
<!-- 3&#45;&gt;2 -->
<g id="edge27" class="edge">
<title>3&#45;&gt;2</title>
<path fill="none" stroke="black" d="M1014.69,-184.47C1011.84,-174.65 1007.84,-162.15 1003.21,-151.44 999.58,-143.04 995.51,-142.3 993.21,-133.44 989.2,-117.95 983.23,-109.95 993.21,-97.44 1015.67,-69.29 1038.48,-92.06 1072.21,-79.44 1085.43,-74.5 1086.65,-68.35 1100.21,-64.44 1210.23,-32.7 1243.49,-59.8 1357.21,-46.44 1388.23,-42.8 1423.23,-36.88 1448.62,-32.25"/>
<polygon fill="black" stroke="black" points="1449.33,-35.67 1458.53,-30.42 1448.06,-28.79 1449.33,-35.67"/>
<text text-anchor="middle" x="1006.71" y="-111.74" font-family="Times,serif" font-size="14.00">{c1}</text>
</g>
<!-- 3&#45;&gt;2 -->
<g id="edge28" class="edge">
<title>3&#45;&gt;2</title>
<path fill="none" stroke="black" d="M1021.12,-184.17C1024.46,-161.58 1033.36,-121.99 1056.21,-97.44 1069.77,-82.87 1079.32,-88.15 1097.21,-79.44 1109.91,-73.27 1111.66,-68.41 1125.21,-64.44 1224.47,-35.4 1254.54,-58.89 1357.21,-46.44 1388.21,-42.68 1423.21,-36.77 1448.61,-32.17"/>
<polygon fill="black" stroke="black" points="1449.32,-35.6 1458.52,-30.36 1448.05,-28.72 1449.32,-35.6"/>
<text text-anchor="middle" x="1079.71" y="-111.74" font-family="Times,serif" font-size="14.00">{c0, c3}</text>
</g>
<!-- 3&#45;&gt;2 -->
<g id="edge29" class="edge">
<title>3&#45;&gt;2</title>
<path fill="none" stroke="black" d="M1036.38,-188.4C1053.67,-175.07 1080.9,-153.53 1103.21,-133.44 1120.03,-118.3 1122.98,-113.2 1139.21,-97.44 1154.55,-82.55 1154.75,-73.3 1174.21,-64.44 1248.6,-30.59 1276.18,-57.11 1357.21,-46.44 1388.17,-42.36 1423.18,-36.48 1448.58,-31.98"/>
<polygon fill="black" stroke="black" points="1449.27,-35.41 1458.5,-30.2 1448.04,-28.52 1449.27,-35.41"/>
<text text-anchor="middle" x="1152.71" y="-111.74" font-family="Times,serif" font-size="14.00">{c3}</text>
</g>
<!-- 3&#45;&gt;2 -->
<g id="edge30" class="edge">
<title>3&#45;&gt;2</title>
<path fill="none" stroke="black" d="M1042.71,-193.51C1072.9,-182.67 1126.2,-161.36 1166.21,-133.44 1184.77,-120.49 1184.38,-111.37 1202.21,-97.44 1224.68,-79.9 1230.48,-74.36 1257.21,-64.44 1261.68,-62.78 1385.68,-41.92 1448.48,-31.41"/>
<polygon fill="black" stroke="black" points="1449.08,-34.86 1458.37,-29.75 1447.93,-27.95 1449.08,-34.86"/>
<text text-anchor="middle" x="1225.71" y="-111.74" font-family="Times,serif" font-size="14.00">{c1, c3}</text>
</g>
<!-- 3&#45;&gt;2 -->
<g id="edge31" class="edge">
<title>3&#45;&gt;2</title>
<path fill="none" stroke="black" d="M1045.39,-198.01C1089.92,-191.27 1182.1,-173.34 1249.21,-133.44 1268.66,-121.88 1266.54,-110.22 1285.21,-97.44 1315.27,-76.88 1326.12,-77.26 1360.21,-64.44 1390.1,-53.2 1424.83,-42.47 1449.92,-35.12"/>
<polygon fill="black" stroke="black" points="1451.08,-38.43 1459.71,-32.29 1449.13,-31.71 1451.08,-38.43"/>
<text text-anchor="middle" x="1318.71" y="-111.74" font-family="Times,serif" font-size="14.00">{c0, c1, c3}</text>
</g>
<!-- 3&#45;&gt;2 -->
<g id="edge32" class="edge">
<title>3&#45;&gt;2</title>
<path fill="none" stroke="black" d="M1046.57,-201.31C1106.02,-199.9 1249.86,-190.38 1352.21,-133.44 1371.98,-122.44 1371.12,-112.27 1388.21,-97.44 1410.7,-77.94 1437.98,-57.78 1457.71,-43.77"/>
<polygon fill="black" stroke="black" points="1459.77,-46.6 1465.93,-37.98 1455.74,-40.88 1459.77,-46.6"/>
<text text-anchor="middle" x="1411.71" y="-111.74" font-family="Times,serif" font-size="14.00">{c0, c1}</text>
</g>
<!-- 3&#45;&gt;2 -->
<g id="edge33" class="edge">
<title>3&#45;&gt;2</title>
<path fill="none" stroke="black" d="M1046.3,-200.54C1128.94,-197.28 1375.79,-183.45 1435.21,-133.44 1459.89,-112.68 1472.71,-76.89 1478.95,-52.24"/>
<polygon fill="black" stroke="black" points="1482.37,-52.97 1481.23,-42.44 1475.55,-51.38 1482.37,-52.97"/>
<text text-anchor="middle" x="1475.71" y="-111.74" font-family="Times,serif" font-size="14.00">{c0}</text>
</g>
<!-- 3&#45;&gt;3 -->
<g id="edge22" class="edge">
<title>3&#45;&gt;3</title>
<path fill="none" stroke="black" d="M1043.74,-210.19C1054.72,-210.93 1064.21,-208.35 1064.21,-202.44 1064.21,-198.47 1059.93,-196 1053.79,-195.04"/>
<polygon fill="black" stroke="black" points="1053.86,-191.54 1043.74,-194.69 1053.62,-198.53 1053.86,-191.54"/>
<text text-anchor="middle" x="1071.21" y="-198.74" font-family="Times,serif" font-size="14.00">{}</text>
</g>
<!-- 4 -->
<g id="node6" class="node">
<title>4</title>
<ellipse fill="none" stroke="black" cx="644.21" cy="-115.44" rx="27" ry="18"/>
<text text-anchor="middle" x="644.21" y="-111.74" font-family="Times,serif" font-size="14.00">4</text>
</g>
<!-- 3&#45;&gt;4 -->
<g id="edge18" class="edge">
<title>3&#45;&gt;4</title>
<path fill="none" stroke="black" d="M992.17,-200.97C873.83,-198.8 406.38,-188.81 385.21,-166.44 380.63,-161.6 380.82,-156.46 385.21,-151.44 413.57,-119 542.41,-115.43 607.02,-115.75"/>
<polygon fill="black" stroke="black" points="607.16,-119.25 617.19,-115.83 607.22,-112.25 607.16,-119.25"/>
<text text-anchor="middle" x="408.71" y="-155.24" font-family="Times,serif" font-size="14.00">{c2, c3}</text>
</g>
<!-- 3&#45;&gt;4 -->
<g id="edge19" class="edge">
<title>3&#45;&gt;4</title>
<path fill="none" stroke="black" d="M992.26,-200.78C882.45,-197.98 473.81,-186.23 455.21,-166.44 450.65,-161.58 450.95,-156.57 455.21,-151.44 474.14,-128.69 557.58,-120.66 607.04,-117.88"/>
<polygon fill="black" stroke="black" points="607.24,-121.37 617.04,-117.36 606.88,-114.38 607.24,-121.37"/>
<text text-anchor="middle" x="499.21" y="-155.24" font-family="Times,serif" font-size="14.00">{c0, c1, c2, c3}</text>
</g>
<!-- 3&#45;&gt;4 -->
<g id="edge20" class="edge">
<title>3&#45;&gt;4</title>
<path fill="none" stroke="black" d="M991.93,-201.44C898.45,-201.13 595.18,-197.74 566.21,-166.44 549.25,-148.12 581.52,-133.64 609.57,-125.07"/>
<polygon fill="black" stroke="black" points="610.58,-128.42 619.22,-122.29 608.65,-121.7 610.58,-128.42"/>
<text text-anchor="middle" x="599.71" y="-155.24" font-family="Times,serif" font-size="14.00">{c0, c2, c3}</text>
</g>
<!-- 3&#45;&gt;4 -->
<g id="edge21" class="edge">
<title>3&#45;&gt;4</title>
<path fill="none" stroke="black" d="M992.13,-200.62C912.22,-197.94 681.44,-188.38 656.21,-166.44 649.7,-160.78 646.39,-152.26 644.8,-143.85"/>
<polygon fill="black" stroke="black" points="648.27,-143.37 643.61,-133.85 641.32,-144.19 648.27,-143.37"/>
<text text-anchor="middle" x="679.71" y="-155.24" font-family="Times,serif" font-size="14.00">{c1, c2}</text>
</g>
<!-- 3&#45;&gt;4 -->
<g id="edge23" class="edge">
<title>3&#45;&gt;4</title>
<path fill="none" stroke="black" d="M992.01,-202.25C939.1,-202.96 819.38,-200.28 726.21,-166.44 714.74,-162.28 713.57,-157.89 703.21,-151.44 693.4,-145.34 682.56,-138.83 672.87,-133.11"/>
<polygon fill="black" stroke="black" points="674.4,-129.95 664,-127.9 670.85,-135.99 674.4,-129.95"/>
<text text-anchor="middle" x="749.71" y="-155.24" font-family="Times,serif" font-size="14.00">{c0, c2}</text>
</g>
<!-- 3&#45;&gt;4 -->
<g id="edge24" class="edge">
<title>3&#45;&gt;4</title>
<path fill="none" stroke="black" d="M992.19,-200.83C949.28,-199.07 863.52,-192.3 796.21,-166.44 784.82,-162.06 784.35,-156.43 773.21,-151.44 743.11,-137.95 706.67,-128.65 680.21,-123.05"/>
<polygon fill="black" stroke="black" points="680.73,-119.58 670.24,-121.01 679.33,-126.44 680.73,-119.58"/>
<text text-anchor="middle" x="829.71" y="-155.24" font-family="Times,serif" font-size="14.00">{c0, c1, c2}</text>
</g>
<!-- 3&#45;&gt;4 -->
<g id="edge25" class="edge">
<title>3&#45;&gt;4</title>
<path fill="none" stroke="black" d="M993.14,-197.14C965.71,-192.04 921.68,-182.18 886.21,-166.44 875.06,-161.49 874.6,-155.83 863.21,-151.44 802.18,-127.9 725.71,-120.19 681.17,-117.67"/>
<polygon fill="black" stroke="black" points="681.26,-114.17 671.1,-117.15 680.9,-121.16 681.26,-114.17"/>
<text text-anchor="middle" x="919.71" y="-155.24" font-family="Times,serif" font-size="14.00">{c1, c2, c3}</text>
</g>
<!-- 3&#45;&gt;4 -->
<g id="edge26" class="edge">
<title>3&#45;&gt;4</title>
<path fill="none" stroke="black" d="M1002.53,-188.07C984.86,-174.02 958.75,-153.66 953.21,-151.44 904.7,-132.03 752.89,-121.96 681.73,-118.21"/>
<polygon fill="black" stroke="black" points="681.6,-114.7 671.43,-117.68 681.24,-121.69 681.6,-114.7"/>
<text text-anchor="middle" x="988.71" y="-155.24" font-family="Times,serif" font-size="14.00">{c2}</text>
</g>
<!-- 4&#45;&gt;2 -->
<g id="edge91" class="edge">
<title>4&#45;&gt;2</title>
<path fill="none" stroke="black" d="M639.17,-97.3C637.12,-86.4 636.88,-72.81 645.21,-64.44 659.16,-50.42 1337.52,-48.31 1357.21,-46.44 1388.3,-43.49 1423.29,-37.51 1448.66,-32.68"/>
<polygon fill="black" stroke="black" points="1449.41,-36.1 1458.56,-30.76 1448.08,-29.22 1449.41,-36.1"/>
<text text-anchor="middle" x="678.71" y="-68.24" font-family="Times,serif" font-size="14.00">{c0, c1, c2}</text>
</g>
<!-- 4&#45;&gt;2 -->
<g id="edge92" class="edge">
<title>4&#45;&gt;2</title>
<path fill="none" stroke="black" d="M665.65,-104.11C679.19,-97.42 696.94,-88.32 712.21,-79.44 722.76,-73.31 723.56,-68.09 735.21,-64.44 801.19,-43.78 1288.39,-53.1 1357.21,-46.44 1388.3,-43.44 1423.29,-37.45 1448.66,-32.64"/>
<polygon fill="black" stroke="black" points="1449.41,-36.06 1458.56,-30.73 1448.08,-29.19 1449.41,-36.06"/>
<text text-anchor="middle" x="758.71" y="-68.24" font-family="Times,serif" font-size="14.00">{c0, c2}</text>
</g>
<!-- 4&#45;&gt;2 -->
<g id="edge93" class="edge">
<title>4&#45;&gt;2</title>
<path fill="none" stroke="black" d="M670.23,-110.48C698.61,-105.56 744.97,-95.77 782.21,-79.44 793.39,-74.54 793.57,-68.11 805.21,-64.44 863.74,-46 1296.14,-52.46 1357.21,-46.44 1388.29,-43.38 1423.28,-37.4 1448.66,-32.61"/>
<polygon fill="black" stroke="black" points="1449.4,-36.03 1458.56,-30.7 1448.08,-29.15 1449.4,-36.03"/>
<text text-anchor="middle" x="818.71" y="-68.24" font-family="Times,serif" font-size="14.00">{c1}</text>
</g>
<!-- 4&#45;&gt;2 -->
<g id="edge94" class="edge">
<title>4&#45;&gt;2</title>
<path fill="none" stroke="black" d="M670.97,-112.77C708.28,-109.71 777.51,-101.35 832.21,-79.44 843.54,-74.9 843.58,-68.13 855.21,-64.44 961.62,-30.72 1246.14,-57.57 1357.21,-46.44 1388.29,-43.33 1423.28,-37.36 1448.65,-32.57"/>
<polygon fill="black" stroke="black" points="1449.39,-36 1458.56,-30.68 1448.08,-29.12 1449.39,-36"/>
<text text-anchor="middle" x="878.71" y="-68.24" font-family="Times,serif" font-size="14.00">{c1, c2}</text>
</g>
<!-- 4&#45;&gt;2 -->
<g id="edge95" class="edge">
<title>4&#45;&gt;2</title>
<path fill="none" stroke="black" d="M671.52,-114.63C719.68,-114.12 822.15,-109.25 902.21,-79.44 913.65,-75.18 913.59,-68.16 925.21,-64.44 1016.72,-35.15 1261.63,-56.3 1357.21,-46.44 1388.28,-43.24 1423.27,-37.27 1448.65,-32.52"/>
<polygon fill="black" stroke="black" points="1449.38,-35.94 1458.55,-30.63 1448.07,-29.06 1449.38,-35.94"/>
<text text-anchor="middle" x="938.71" y="-68.24" font-family="Times,serif" font-size="14.00">{c2}</text>
</g>
<!-- 4&#45;&gt;2 -->
<g id="edge96" class="edge">
<title>4&#45;&gt;2</title>
<path fill="none" stroke="black" d="M671.26,-112.97C736.45,-109.16 900.69,-97.99 952.21,-79.44 963.69,-75.31 963.6,-68.19 975.21,-64.44 1056.08,-38.31 1272.7,-55.39 1357.21,-46.44 1388.27,-43.15 1423.26,-37.2 1448.64,-32.47"/>
<polygon fill="black" stroke="black" points="1449.37,-35.89 1458.55,-30.59 1448.07,-29.01 1449.37,-35.89"/>
<text text-anchor="middle" x="998.71" y="-68.24" font-family="Times,serif" font-size="14.00">{c0, c1}</text>
</g>
<!-- 4&#45;&gt;2 -->
<g id="edge97" class="edge">
<title>4&#45;&gt;2</title>
<path fill="none" stroke="black" d="M671.18,-113.63C746.38,-111.09 957.17,-102.09 1022.21,-79.44 1033.74,-75.43 1033.62,-68.25 1045.21,-64.44 1111.18,-42.74 1288.19,-54.12 1357.21,-46.44 1388.25,-42.99 1423.25,-37.05 1448.63,-32.36"/>
<polygon fill="black" stroke="black" points="1449.35,-35.79 1458.54,-30.51 1448.07,-28.91 1449.35,-35.79"/>
<text text-anchor="middle" x="1058.71" y="-68.24" font-family="Times,serif" font-size="14.00">{c0}</text>
</g>
<!-- 4&#45;&gt;4 -->
<g id="edge85" class="edge">
<title>4&#45;&gt;4</title>
<path fill="none" stroke="black" d="M668.74,-123.19C679.72,-123.93 689.21,-121.35 689.21,-115.44 689.21,-111.47 684.93,-109 678.79,-108.04"/>
<polygon fill="black" stroke="black" points="678.86,-104.54 668.74,-107.69 678.62,-111.53 678.86,-104.54"/>
<text text-anchor="middle" x="696.21" y="-111.74" font-family="Times,serif" font-size="14.00">{}</text>
</g>
<!-- 5 -->
<g id="node7" class="node">
<title>5</title>
<ellipse fill="none" stroke="black" cx="278.21" cy="-24.44" rx="18" ry="18"/>
<ellipse fill="none" stroke="black" cx="278.21" cy="-24.44" rx="22" ry="22"/>
<text text-anchor="middle" x="278.21" y="-20.74" font-family="Times,serif" font-size="14.00">5</text>
</g>
<!-- 4&#45;&gt;5 -->
<g id="edge82" class="edge">
<title>4&#45;&gt;5</title>
<path fill="none" stroke="black" d="M616.92,-113.98C497.45,-111.85 25.58,-102.02 4.21,-79.44 -29.93,-43.38 166.04,-30.45 245.69,-26.73"/>
<polygon fill="black" stroke="black" points="246.29,-30.2 256.13,-26.26 245.98,-23.21 246.29,-30.2"/>
<text text-anchor="middle" x="37.71" y="-68.24" font-family="Times,serif" font-size="14.00">{c0, c1, c3}</text>
</g>
<!-- 4&#45;&gt;5 -->
<g id="edge83" class="edge">
<title>4&#45;&gt;5</title>
<path fill="none" stroke="black" d="M617.14,-114.83C511.39,-116.08 130.26,-117.86 94.21,-79.44 49.53,-31.82 181.34,-25.47 245.42,-25.11"/>
<polygon fill="black" stroke="black" points="245.81,-28.61 255.81,-25.1 245.81,-21.61 245.81,-28.61"/>
<text text-anchor="middle" x="117.71" y="-68.24" font-family="Times,serif" font-size="14.00">{c1, c3}</text>
</g>
<!-- 4&#45;&gt;5 -->
<g id="edge84" class="edge">
<title>4&#45;&gt;5</title>
<path fill="none" stroke="black" d="M617.01,-114.56C520,-114.71 195.15,-112.71 164.21,-79.44 137.49,-50.7 204.05,-35.73 246.39,-29.34"/>
<polygon fill="black" stroke="black" points="246.89,-32.81 256.3,-27.93 245.91,-25.88 246.89,-32.81"/>
<text text-anchor="middle" x="187.71" y="-68.24" font-family="Times,serif" font-size="14.00">{c0, c3}</text>
</g>
<!-- 4&#45;&gt;5 -->
<g id="edge86" class="edge">
<title>4&#45;&gt;5</title>
<path fill="none" stroke="black" d="M617.12,-114.2C529.83,-113.15 260.09,-107.63 234.21,-79.44 223.03,-67.27 236.33,-52.7 251.16,-41.76"/>
<polygon fill="black" stroke="black" points="253.15,-44.65 259.41,-36.1 249.19,-38.87 253.15,-44.65"/>
<text text-anchor="middle" x="267.71" y="-68.24" font-family="Times,serif" font-size="14.00">{c1, c2, c3}</text>
</g>
<!-- 4&#45;&gt;5 -->
<g id="edge87" class="edge">
<title>4&#45;&gt;5</title>
<path fill="none" stroke="black" d="M617.2,-114.02C549.58,-112.57 374.83,-106.25 324.21,-79.44 312.39,-73.18 302.32,-62.52 294.65,-52.31"/>
<polygon fill="black" stroke="black" points="297.39,-50.12 288.77,-43.95 291.66,-54.14 297.39,-50.12"/>
<text text-anchor="middle" x="337.71" y="-68.24" font-family="Times,serif" font-size="14.00">{c3}</text>
</g>
<!-- 4&#45;&gt;5 -->
<g id="edge88" class="edge">
<title>4&#45;&gt;5</title>
<path fill="none" stroke="black" d="M617.21,-114.86C567.52,-114.79 458.91,-110.69 374.21,-79.44 362.76,-75.22 361.71,-70.66 351.21,-64.44 336.74,-55.88 320.25,-47 306.61,-39.88"/>
<polygon fill="black" stroke="black" points="308.17,-36.74 297.68,-35.25 304.95,-42.96 308.17,-36.74"/>
<text text-anchor="middle" x="418.21" y="-68.24" font-family="Times,serif" font-size="14.00">{c0, c1, c2, c3}</text>
</g>
<!-- 4&#45;&gt;5 -->
<g id="edge89" class="edge">
<title>4&#45;&gt;5</title>
<path fill="none" stroke="black" d="M617.72,-111.58C585.42,-107.42 529.65,-98.09 485.21,-79.44 473.96,-74.72 473.48,-69.12 462.21,-64.44 411.57,-43.42 348.19,-33.2 310.58,-28.65"/>
<polygon fill="black" stroke="black" points="310.56,-25.13 300.23,-27.46 309.77,-32.08 310.56,-25.13"/>
<text text-anchor="middle" x="508.71" y="-68.24" font-family="Times,serif" font-size="14.00">{c2, c3}</text>
</g>
<!-- 4&#45;&gt;5 -->
<g id="edge90" class="edge">
<title>4&#45;&gt;5</title>
<path fill="none" stroke="black" d="M620.59,-106.63C602.32,-100.24 576.61,-90.48 555.21,-79.44 544.37,-73.85 543.61,-68.8 532.21,-64.44 456.31,-35.43 359.84,-27.96 310.49,-26.06"/>
<polygon fill="black" stroke="black" points="310.52,-22.56 300.41,-25.73 310.29,-29.56 310.52,-22.56"/>
<text text-anchor="middle" x="588.71" y="-68.24" font-family="Times,serif" font-size="14.00">{c0, c2, c3}</text>
</g>
<!-- 5&#45;&gt;5 -->
<g id="edge34" class="edge">
<title>5&#45;&gt;5</title>
<path fill="none" stroke="black" d="M300.42,-25.92C310.01,-26.04 318.21,-25.55 318.21,-24.44 318.21,-23.77 315.16,-23.32 310.62,-23.1"/>
<polygon fill="black" stroke="black" points="310.47,-19.6 300.42,-22.96 310.37,-26.6 310.47,-19.6"/>
<text text-anchor="middle" x="351.71" y="-20.74" font-family="Times,serif" font-size="14.00">{c0, c2, c3}</text>
</g>
<!-- 5&#45;&gt;5 -->
<g id="edge35" class="edge">
<title>5&#45;&gt;5</title>
<path fill="none" stroke="black" d="M300.56,-26.57C333.3,-28.23 385.21,-27.52 385.21,-24.44 385.21,-21.66 342.94,-20.82 310.63,-21.89"/>
<polygon fill="black" stroke="black" points="310.4,-18.4 300.56,-22.31 310.69,-25.4 310.4,-18.4"/>
<text text-anchor="middle" x="408.71" y="-20.74" font-family="Times,serif" font-size="14.00">{c2, c3}</text>
</g>
<!-- 5&#45;&gt;5 -->
<g id="edge36" class="edge">
<title>5&#45;&gt;5</title>
<path fill="none" stroke="black" d="M300.21,-27.07C345.22,-30.25 432.21,-29.38 432.21,-24.44 432.21,-19.85 357.02,-18.77 310.28,-21.2"/>
<polygon fill="black" stroke="black" points="309.98,-17.71 300.21,-21.81 310.4,-24.7 309.98,-17.71"/>
<text text-anchor="middle" x="439.21" y="-20.74" font-family="Times,serif" font-size="14.00">{}</text>
</g>
<!-- 5&#45;&gt;5 -->
<g id="edge37" class="edge">
<title>5&#45;&gt;5</title>
<path fill="none" stroke="black" d="M300.3,-27.64C350.53,-32.24 450.21,-31.18 450.21,-24.44 450.21,-18.14 362.97,-16.8 310.59,-20.43"/>
<polygon fill="black" stroke="black" points="309.99,-16.96 300.3,-21.25 310.55,-23.94 309.99,-16.96"/>
<text text-anchor="middle" x="494.21" y="-20.74" font-family="Times,serif" font-size="14.00">{c0, c1, c2, c3}</text>
</g>
<!-- 5&#45;&gt;5 -->
<g id="edge38" class="edge">
<title>5&#45;&gt;5</title>
<path fill="none" stroke="black" d="M300.1,-27.72C367.73,-34.29 538.21,-33.19 538.21,-24.44 538.21,-16.1 383.34,-14.72 310.26,-20.29"/>
<polygon fill="black" stroke="black" points="309.77,-16.82 300.1,-21.16 310.36,-23.79 309.77,-16.82"/>
<text text-anchor="middle" x="561.71" y="-20.74" font-family="Times,serif" font-size="14.00">{c1, c2}</text>
</g>
<!-- 5&#45;&gt;5 -->
<g id="edge39" class="edge">
<title>5&#45;&gt;5</title>
<path fill="none" stroke="black" d="M299.96,-27.98C376.53,-36.3 585.21,-35.12 585.21,-24.44 585.21,-14.2 393.29,-12.7 310.02,-19.93"/>
<polygon fill="black" stroke="black" points="309.57,-16.46 299.96,-20.91 310.25,-23.43 309.57,-16.46"/>
<text text-anchor="middle" x="598.71" y="-20.74" font-family="Times,serif" font-size="14.00">{c0}</text>
</g>
<!-- 5&#45;&gt;5 -->
<g id="edge40" class="edge">
<title>5&#45;&gt;5</title>
<path fill="none" stroke="black" d="M299.98,-28.27C382.43,-38.3 612.21,-37.02 612.21,-24.44 612.21,-12.34 399.6,-10.7 310.02,-19.51"/>
<polygon fill="black" stroke="black" points="309.54,-16.04 299.98,-20.61 310.3,-23 309.54,-16.04"/>
<text text-anchor="middle" x="635.71" y="-20.74" font-family="Times,serif" font-size="14.00">{c0, c1}</text>
</g>
<!-- 5&#45;&gt;5 -->
<g id="edge41" class="edge">
<title>5&#45;&gt;5</title>
<path fill="none" stroke="black" d="M300.12,-28.48C391.17,-40.3 659.21,-38.96 659.21,-24.44 659.21,-10.42 409.18,-8.69 310.05,-19.24"/>
<polygon fill="black" stroke="black" points="309.64,-15.76 300.12,-20.4 310.46,-22.71 309.64,-15.76"/>
<text text-anchor="middle" x="682.71" y="-20.74" font-family="Times,serif" font-size="14.00">{c0, c2}</text>
</g>
<!-- 5&#45;&gt;5 -->
<g id="edge42" class="edge">
<title>5&#45;&gt;5</title>
<path fill="none" stroke="black" d="M300.04,-28.64C399.2,-42.31 706.21,-40.91 706.21,-24.44 706.21,-8.5 418.67,-6.68 310.26,-18.97"/>
<polygon fill="black" stroke="black" points="309.53,-15.53 300.04,-20.24 310.4,-22.48 309.53,-15.53"/>
<text text-anchor="middle" x="729.71" y="-20.74" font-family="Times,serif" font-size="14.00">{c1, c3}</text>
</g>
<!-- 5&#45;&gt;5 -->
<g id="edge43" class="edge">
<title>5&#45;&gt;5</title>
<path fill="none" stroke="black" d="M299.87,-28.76C406.75,-44.32 753.21,-42.88 753.21,-24.44 753.21,-6.54 426.76,-4.66 309.86,-18.8"/>
<polygon fill="black" stroke="black" points="309.32,-15.34 299.87,-20.12 310.24,-22.28 309.32,-15.34"/>
<text text-anchor="middle" x="786.71" y="-20.74" font-family="Times,serif" font-size="14.00">{c0, c1, c2}</text>
</g>
<!-- 5&#45;&gt;5 -->
<g id="edge44" class="edge">
<title>5&#45;&gt;5</title>
<path fill="none" stroke="black" d="M299.98,-28.87C416.83,-46.33 820.21,-44.85 820.21,-24.44 820.21,-4.59 438.59,-2.65 310.19,-18.63"/>
<polygon fill="black" stroke="black" points="309.41,-15.2 299.98,-20.02 310.36,-22.14 309.41,-15.2"/>
<text text-anchor="middle" x="853.71" y="-20.74" font-family="Times,serif" font-size="14.00">{c0, c1, c3}</text>
</g>
<!-- 5&#45;&gt;5 -->
<g id="edge45" class="edge">
<title>5&#45;&gt;5</title>
<path fill="none" stroke="black" d="M300.08,-28.97C426.52,-48.33 887.21,-46.82 887.21,-24.44 887.21,-2.63 449.62,-0.64 310.35,-18.48"/>
<polygon fill="black" stroke="black" points="309.5,-15.07 300.08,-19.92 310.47,-22 309.5,-15.07"/>
<text text-anchor="middle" x="900.71" y="-20.74" font-family="Times,serif" font-size="14.00">{c1}</text>
</g>
<!-- 5&#45;&gt;5 -->
<g id="edge46" class="edge">
<title>5&#45;&gt;5</title>
<path fill="none" stroke="black" d="M299.83,-29.08C431.23,-50.34 914.21,-48.79 914.21,-24.44 914.21,-0.69 454.53,1.36 310.07,-18.29"/>
<polygon fill="black" stroke="black" points="309.21,-14.88 299.83,-19.8 310.23,-21.8 309.21,-14.88"/>
<text text-anchor="middle" x="947.71" y="-20.74" font-family="Times,serif" font-size="14.00">{c1, c2, c3}</text>
</g>
<!-- 5&#45;&gt;5 -->
<g id="edge47" class="edge">
<title>5&#45;&gt;5</title>
<path fill="none" stroke="black" d="M299.83,-29.15C440.25,-52.34 981.21,-50.77 981.21,-24.44 981.21,1.3 464.28,3.38 309.89,-18.21"/>
<polygon fill="black" stroke="black" points="309.2,-14.78 299.83,-19.74 310.25,-21.7 309.2,-14.78"/>
<text text-anchor="middle" x="994.71" y="-20.74" font-family="Times,serif" font-size="14.00">{c2}</text>
</g>
<!-- 5&#45;&gt;5 -->
<g id="edge48" class="edge">
<title>5&#45;&gt;5</title>
<path fill="none" stroke="black" d="M299.69,-29.25C445.18,-54.35 1008.21,-52.74 1008.21,-24.44 1008.21,3.25 469.12,5.38 309.64,-18.05"/>
<polygon fill="black" stroke="black" points="309.02,-14.61 299.69,-19.63 310.12,-21.52 309.02,-14.61"/>
<text text-anchor="middle" x="1021.71" y="-20.74" font-family="Times,serif" font-size="14.00">{c3}</text>
</g>
<!-- 5&#45;&gt;5 -->
<g id="edge49" class="edge">
<title>5&#45;&gt;5</title>
<path fill="none" stroke="black" d="M299.9,-29.4C451.08,-56.35 1035.21,-54.69 1035.21,-24.44 1035.21,5.16 475.91,7.38 310.24,-17.78"/>
<polygon fill="black" stroke="black" points="309.21,-14.4 299.9,-19.48 310.34,-21.31 309.21,-14.4"/>
<text text-anchor="middle" x="1058.71" y="-20.74" font-family="Times,serif" font-size="14.00">{c0, c3}</text>
</g>
</g>
</svg>
