<?xml version="1.0" encoding="UTF-8" standalone="no"?>
<!DOCTYPE svg PUBLIC "-//W3C//DTD SVG 1.1//EN"
 "http://www.w3.org/Graphics/SVG/1.1/DTD/svg11.dtd">
<!-- Generated by graphviz version 2.43.0 (0)
 -->
<!-- Title: %3 Pages: 1 -->
<svg width="2557pt" height="475pt"
 viewBox="0.00 0.00 2557.08 475.44" xmlns="http://www.w3.org/2000/svg" xmlns:xlink="http://www.w3.org/1999/xlink">
<g id="graph0" class="graph" transform="scale(1 1) rotate(0) translate(4 471.44)">
<title>%3</title>
<polygon fill="white" stroke="transparent" points="-4,4 -4,-471.44 2553.08,-471.44 2553.08,4 -4,4"/>
<!-- fake -->
<g id="node1" class="node">
<title>fake</title>
</g>
<!-- 0 -->
<g id="node2" class="node">
<title>0</title>
<ellipse fill="none" stroke="black" cx="1829.08" cy="-376.44" rx="27" ry="18"/>
<text text-anchor="middle" x="1829.08" y="-372.74" font-family="Times,serif" font-size="14.00">0</text>
</g>
<!-- fake&#45;&gt;0 -->
<g id="edge1" class="edge">
<title>fake&#45;&gt;0</title>
<path fill="none" stroke="black" stroke-width="2" d="M1829.08,-431.25C1829.08,-423.23 1829.08,-413.49 1829.08,-404.51"/>
<polygon fill="black" stroke="black" stroke-width="2" points="1832.58,-404.47 1829.08,-394.47 1825.58,-404.47 1832.58,-404.47"/>
</g>
<!-- 0&#45;&gt;0 -->
<g id="edge5" class="edge">
<title>0&#45;&gt;0</title>
<path fill="none" stroke="black" d="M1854.52,-383.13C1865.11,-383.59 1874.08,-381.36 1874.08,-376.44 1874.08,-373.21 1870.22,-371.14 1864.57,-370.23"/>
<polygon fill="black" stroke="black" points="1864.68,-366.73 1854.52,-369.75 1864.35,-373.72 1864.68,-366.73"/>
<text text-anchor="middle" x="1881.08" y="-372.74" font-family="Times,serif" font-size="14.00">{}</text>
</g>
<!-- 1 -->
<g id="node3" class="node">
<title>1</title>
<ellipse fill="none" stroke="black" cx="1487.08" cy="-289.44" rx="27" ry="18"/>
<text text-anchor="middle" x="1487.08" y="-285.74" font-family="Times,serif" font-size="14.00">1</text>
</g>
<!-- 0&#45;&gt;1 -->
<g id="edge2" class="edge">
<title>0&#45;&gt;1</title>
<path fill="none" stroke="black" d="M1801.84,-374.79C1690.87,-372.03 1277.89,-360.43 1259.08,-340.44 1254.51,-335.58 1254.74,-330.5 1259.08,-325.44 1283.2,-297.33 1391.52,-291.57 1449.75,-290.53"/>
<polygon fill="black" stroke="black" points="1450.06,-294.03 1460.01,-290.39 1449.96,-287.03 1450.06,-294.03"/>
<text text-anchor="middle" x="1282.58" y="-329.24" font-family="Times,serif" font-size="14.00">{c0, c1}</text>
</g>
<!-- 0&#45;&gt;1 -->
<g id="edge3" class="edge">
<title>0&#45;&gt;1</title>
<path fill="none" stroke="black" d="M1801.78,-375.64C1702.04,-376.12 1361.46,-375.16 1329.08,-340.44 1292.6,-301.31 1392.45,-292.65 1449.85,-290.83"/>
<polygon fill="black" stroke="black" points="1450.12,-294.33 1460.03,-290.57 1449.94,-287.33 1450.12,-294.33"/>
<text text-anchor="middle" x="1362.58" y="-329.24" font-family="Times,serif" font-size="14.00">{c0, c1, c3}</text>
</g>
<!-- 0&#45;&gt;1 -->
<g id="edge4" class="edge">
<title>0&#45;&gt;1</title>
<path fill="none" stroke="black" d="M1801.99,-375.2C1714.7,-374.15 1444.96,-368.62 1419.08,-340.44 1404.45,-324.5 1429.32,-310.31 1452.99,-301.16"/>
<polygon fill="black" stroke="black" points="1454.39,-304.37 1462.6,-297.67 1452,-297.79 1454.39,-304.37"/>
<text text-anchor="middle" x="1452.58" y="-329.24" font-family="Times,serif" font-size="14.00">{c0, c2, c3}</text>
</g>
<!-- 0&#45;&gt;1 -->
<g id="edge6" class="edge">
<title>0&#45;&gt;1</title>
<path fill="none" stroke="black" d="M1802.04,-375.85C1733.55,-376.39 1555.39,-374.39 1509.08,-340.44 1501.41,-334.82 1496.38,-325.93 1493.09,-317.19"/>
<polygon fill="black" stroke="black" points="1496.4,-316.07 1490.07,-307.58 1489.72,-318.17 1496.4,-316.07"/>
<text text-anchor="middle" x="1553.08" y="-329.24" font-family="Times,serif" font-size="14.00">{c0, c1, c2, c3}</text>
</g>
<!-- 0&#45;&gt;1 -->
<g id="edge7" class="edge">
<title>0&#45;&gt;1</title>
<path fill="none" stroke="black" d="M1802.09,-374.44C1761.34,-372.15 1682.29,-364.7 1620.08,-340.44 1608.71,-336 1608.11,-330.67 1597.08,-325.44 1573.01,-314.02 1544.27,-305.02 1522.21,-299.01"/>
<polygon fill="black" stroke="black" points="1522.84,-295.55 1512.27,-296.38 1521.05,-302.32 1522.84,-295.55"/>
<text text-anchor="middle" x="1643.58" y="-329.24" font-family="Times,serif" font-size="14.00">{c0, c3}</text>
</g>
<!-- 0&#45;&gt;1 -->
<g id="edge8" class="edge">
<title>0&#45;&gt;1</title>
<path fill="none" stroke="black" d="M1802.88,-371.51C1774.29,-366.62 1727.59,-356.84 1690.08,-340.44 1678.9,-335.55 1678.39,-330.02 1667.08,-325.44 1619.95,-306.34 1561.56,-297.45 1524.3,-293.46"/>
<polygon fill="black" stroke="black" points="1524.22,-289.94 1513.92,-292.42 1523.52,-296.9 1524.22,-289.94"/>
<text text-anchor="middle" x="1723.58" y="-329.24" font-family="Times,serif" font-size="14.00">{c0, c1, c2}</text>
</g>
<!-- 0&#45;&gt;1 -->
<g id="edge9" class="edge">
<title>0&#45;&gt;1</title>
<path fill="none" stroke="black" d="M1811.19,-362.69C1790.86,-348.27 1760.1,-326.6 1757.08,-325.44 1678.11,-294.99 1577.52,-290.01 1524.18,-289.77"/>
<polygon fill="black" stroke="black" points="1524.17,-286.27 1514.17,-289.78 1524.17,-293.27 1524.17,-286.27"/>
<text text-anchor="middle" x="1791.58" y="-329.24" font-family="Times,serif" font-size="14.00">{c0}</text>
</g>
<!-- 0&#45;&gt;1 -->
<g id="edge10" class="edge">
<title>0&#45;&gt;1</title>
<path fill="none" stroke="black" d="M1826.09,-358.29C1823.2,-347.1 1817.64,-333.18 1807.08,-325.44 1762.94,-293.08 1599.02,-289.75 1524.45,-289.97"/>
<polygon fill="black" stroke="black" points="1524.1,-286.47 1514.12,-290.02 1524.14,-293.47 1524.1,-286.47"/>
<text text-anchor="middle" x="1842.58" y="-329.24" font-family="Times,serif" font-size="14.00">{c0, c2}</text>
</g>
<!-- 2 -->
<g id="node4" class="node">
<title>2</title>
<ellipse fill="none" stroke="black" cx="1474.08" cy="-24.44" rx="27" ry="18"/>
<text text-anchor="middle" x="1474.08" y="-20.74" font-family="Times,serif" font-size="14.00">2</text>
</g>
<!-- 0&#45;&gt;2 -->
<g id="edge11" class="edge">
<title>0&#45;&gt;2</title>
<path fill="none" stroke="black" d="M1848.81,-364.02C1856.99,-358.13 1865.61,-350.13 1870.08,-340.44 1872.87,-334.38 1871.55,-331.94 1870.08,-325.44 1844.14,-210.8 1829.05,-169.35 1736.08,-97.44 1668.74,-45.35 1566.14,-30.92 1511.46,-26.94"/>
<polygon fill="black" stroke="black" points="1511.39,-23.43 1501.19,-26.27 1510.94,-30.41 1511.39,-23.43"/>
<text text-anchor="middle" x="1853.58" y="-198.74" font-family="Times,serif" font-size="14.00">{c1}</text>
</g>
<!-- 0&#45;&gt;2 -->
<g id="edge12" class="edge">
<title>0&#45;&gt;2</title>
<path fill="none" stroke="black" d="M1852.07,-366.36C1879.61,-353.79 1922.08,-328.28 1922.08,-290.44 1922.08,-290.44 1922.08,-290.44 1922.08,-114.44 1922.08,-30.88 1618.51,-24.58 1511.15,-24.96"/>
<polygon fill="black" stroke="black" points="1511.08,-21.46 1501.1,-25.02 1511.12,-28.46 1511.08,-21.46"/>
<text text-anchor="middle" x="1945.58" y="-198.74" font-family="Times,serif" font-size="14.00">{c1, c2}</text>
</g>
<!-- 0&#45;&gt;2 -->
<g id="edge13" class="edge">
<title>0&#45;&gt;2</title>
<path fill="none" stroke="black" d="M1856.19,-374.4C1905.56,-370.9 2005.08,-355.76 2005.08,-290.44 2005.08,-290.44 2005.08,-290.44 2005.08,-114.44 2005.08,-62.75 1949.93,-78.12 1900.08,-64.44 1827.22,-44.44 1601.05,-31.59 1511.32,-27.16"/>
<polygon fill="black" stroke="black" points="1511.23,-23.66 1501.07,-26.67 1510.89,-30.65 1511.23,-23.66"/>
<text text-anchor="middle" x="2028.58" y="-198.74" font-family="Times,serif" font-size="14.00">{c1, c3}</text>
</g>
<!-- 0&#45;&gt;2 -->
<g id="edge14" class="edge">
<title>0&#45;&gt;2</title>
<path fill="none" stroke="black" d="M1855.82,-372.44C1922,-364.27 2088.08,-338.95 2088.08,-290.44 2088.08,-290.44 2088.08,-290.44 2088.08,-114.44 2088.08,-51.7 2017.28,-78.21 1956.08,-64.44 1793.43,-27.82 1593.08,-24.55 1511.4,-24.92"/>
<polygon fill="black" stroke="black" points="1511.1,-21.42 1501.13,-24.99 1511.15,-28.42 1511.1,-21.42"/>
<text text-anchor="middle" x="2121.58" y="-198.74" font-family="Times,serif" font-size="14.00">{c1, c2, c3}</text>
</g>
<!-- 0&#45;&gt;2 -->
<g id="edge15" class="edge">
<title>0&#45;&gt;2</title>
<path fill="none" stroke="black" d="M1855.99,-374.88C1939.89,-372.41 2191.08,-359.27 2191.08,-290.44 2191.08,-290.44 2191.08,-290.44 2191.08,-114.44 2191.08,-45.3 1659.23,-29.24 1511.66,-26.11"/>
<polygon fill="black" stroke="black" points="1511.38,-22.6 1501.31,-25.9 1511.24,-29.6 1511.38,-22.6"/>
<text text-anchor="middle" x="2214.58" y="-198.74" font-family="Times,serif" font-size="14.00">{c2, c3}</text>
</g>
<!-- 0&#45;&gt;2 -->
<g id="edge16" class="edge">
<title>0&#45;&gt;2</title>
<path fill="none" stroke="black" d="M1856.25,-376.05C1952.86,-377.52 2274.08,-375.97 2274.08,-290.44 2274.08,-290.44 2274.08,-290.44 2274.08,-114.44 2274.08,-36.66 1669.03,-26.85 1511.31,-25.62"/>
<polygon fill="black" stroke="black" points="1511.18,-22.11 1501.16,-25.54 1511.13,-29.11 1511.18,-22.11"/>
<text text-anchor="middle" x="2287.58" y="-198.74" font-family="Times,serif" font-size="14.00">{c2}</text>
</g>
<!-- 0&#45;&gt;2 -->
<g id="edge17" class="edge">
<title>0&#45;&gt;2</title>
<path fill="none" stroke="black" d="M1856.25,-374.77C1937.53,-372.52 2177.8,-364 2252.08,-340.44 2293.86,-327.19 2337.08,-334.27 2337.08,-290.44 2337.08,-290.44 2337.08,-290.44 2337.08,-114.44 2337.08,-30.15 1677.32,-25.22 1511.53,-25.31"/>
<polygon fill="black" stroke="black" points="1511.33,-21.81 1501.33,-25.32 1511.34,-28.81 1511.33,-21.81"/>
<text text-anchor="middle" x="2350.58" y="-198.74" font-family="Times,serif" font-size="14.00">{c3}</text>
</g>
<!-- 1&#45;&gt;1 -->
<g id="edge52" class="edge">
<title>1&#45;&gt;1</title>
<path fill="none" stroke="black" d="M1511.61,-297.19C1522.59,-297.93 1532.08,-295.34 1532.08,-289.44 1532.08,-285.47 1527.8,-283 1521.65,-282.03"/>
<polygon fill="black" stroke="black" points="1521.73,-278.53 1511.61,-281.69 1521.49,-285.53 1521.73,-278.53"/>
<text text-anchor="middle" x="1539.08" y="-285.74" font-family="Times,serif" font-size="14.00">{}</text>
</g>
<!-- 1&#45;&gt;2 -->
<g id="edge59" class="edge">
<title>1&#45;&gt;2</title>
<path fill="none" stroke="black" d="M1482.92,-271.61C1480.36,-261.84 1476.86,-249.34 1473.08,-238.44 1461.72,-205.69 1449.88,-200.43 1443.08,-166.44 1441.77,-159.9 1439.44,-157.02 1443.08,-151.44 1453.96,-134.78 1473.2,-150.1 1484.08,-133.44 1499.96,-109.13 1493.08,-74.93 1485.1,-51.56"/>
<polygon fill="black" stroke="black" points="1488.31,-50.14 1481.56,-41.97 1481.74,-52.57 1488.31,-50.14"/>
<text text-anchor="middle" x="1466.58" y="-155.24" font-family="Times,serif" font-size="14.00">{c0, c2}</text>
</g>
<!-- 1&#45;&gt;2 -->
<g id="edge60" class="edge">
<title>1&#45;&gt;2</title>
<path fill="none" stroke="black" d="M1490.08,-271.49C1497.85,-226.12 1517.11,-102.75 1504.08,-64.44 1502.07,-58.53 1498.77,-52.82 1495.07,-47.68"/>
<polygon fill="black" stroke="black" points="1497.61,-45.25 1488.64,-39.61 1492.14,-49.61 1497.61,-45.25"/>
<text text-anchor="middle" x="1529.58" y="-155.24" font-family="Times,serif" font-size="14.00">{c0, c3}</text>
</g>
<!-- 1&#45;&gt;2 -->
<g id="edge61" class="edge">
<title>1&#45;&gt;2</title>
<path fill="none" stroke="black" d="M1502.2,-274.22C1525.68,-250.35 1567.24,-200.07 1557.08,-151.44 1548.45,-110.13 1544.08,-98.43 1519.08,-64.44 1513.71,-57.14 1506.74,-50.26 1499.89,-44.38"/>
<polygon fill="black" stroke="black" points="1501.98,-41.56 1492.02,-37.96 1497.56,-46.99 1501.98,-41.56"/>
<text text-anchor="middle" x="1581.58" y="-155.24" font-family="Times,serif" font-size="14.00">{c2, c3}</text>
</g>
<!-- 1&#45;&gt;2 -->
<g id="edge62" class="edge">
<title>1&#45;&gt;2</title>
<path fill="none" stroke="black" d="M1508.73,-278.46C1549.06,-258.31 1629.82,-209.64 1609.08,-151.44 1592.33,-104.42 1575.71,-97.23 1538.08,-64.44 1527.89,-55.56 1515.43,-47.46 1504.22,-40.97"/>
<polygon fill="black" stroke="black" points="1505.61,-37.74 1495.17,-35.92 1502.2,-43.85 1505.61,-37.74"/>
<text text-anchor="middle" x="1625.58" y="-155.24" font-family="Times,serif" font-size="14.00">{c2}</text>
</g>
<!-- 1&#45;&gt;2 -->
<g id="edge63" class="edge">
<title>1&#45;&gt;2</title>
<path fill="none" stroke="black" d="M1511.22,-281.2C1529.47,-275.17 1554.78,-265.62 1575.08,-253.44 1621.8,-225.41 1660.16,-203.18 1643.08,-151.44 1622.92,-90.34 1550.74,-53.73 1507.51,-36.8"/>
<polygon fill="black" stroke="black" points="1508.56,-33.45 1497.97,-33.2 1506.09,-40 1508.56,-33.45"/>
<text text-anchor="middle" x="1659.58" y="-155.24" font-family="Times,serif" font-size="14.00">{c0}</text>
</g>
<!-- 1&#45;&gt;2 -->
<g id="edge64" class="edge">
<title>1&#45;&gt;2</title>
<path fill="none" stroke="black" d="M1512.43,-283.09C1570.03,-269.52 1703.74,-229.14 1677.08,-151.44 1652.65,-80.23 1560.82,-46.66 1509.45,-33.15"/>
<polygon fill="black" stroke="black" points="1509.99,-29.68 1499.44,-30.64 1508.29,-36.47 1509.99,-29.68"/>
<text text-anchor="middle" x="1713.58" y="-155.24" font-family="Times,serif" font-size="14.00">{c0, c2, c3}</text>
</g>
<!-- 1&#45;&gt;2 -->
<g id="edge65" class="edge">
<title>1&#45;&gt;2</title>
<path fill="none" stroke="black" d="M1513.76,-286.08C1590.46,-278.13 1802.85,-247.16 1751.08,-151.44 1703.47,-63.4 1574.62,-36.66 1510.85,-28.71"/>
<polygon fill="black" stroke="black" points="1511.17,-25.22 1500.83,-27.55 1510.36,-32.17 1511.17,-25.22"/>
<text text-anchor="middle" x="1769.58" y="-155.24" font-family="Times,serif" font-size="14.00">{c3}</text>
</g>
<!-- 3 -->
<g id="node5" class="node">
<title>3</title>
<ellipse fill="none" stroke="black" cx="1029.08" cy="-202.44" rx="27" ry="18"/>
<text text-anchor="middle" x="1029.08" y="-198.74" font-family="Times,serif" font-size="14.00">3</text>
</g>
<!-- 1&#45;&gt;3 -->
<g id="edge50" class="edge">
<title>1&#45;&gt;3</title>
<path fill="none" stroke="black" d="M1460.13,-287.97C1342.16,-285.78 876.18,-275.74 855.08,-253.44 814.14,-210.16 929.2,-203.56 991.71,-203.05"/>
<polygon fill="black" stroke="black" points="992,-206.55 1001.99,-203.01 991.97,-199.55 992,-206.55"/>
<text text-anchor="middle" x="878.58" y="-242.24" font-family="Times,serif" font-size="14.00">{c0, c1}</text>
</g>
<!-- 1&#45;&gt;3 -->
<g id="edge51" class="edge">
<title>1&#45;&gt;3</title>
<path fill="none" stroke="black" d="M1459.85,-287.77C1349.89,-284.93 943.59,-273.14 925.08,-253.44 901.97,-228.84 954.3,-214.97 992.8,-208.35"/>
<polygon fill="black" stroke="black" points="993.41,-211.8 1002.72,-206.75 992.29,-204.89 993.41,-211.8"/>
<text text-anchor="middle" x="948.58" y="-242.24" font-family="Times,serif" font-size="14.00">{c1, c3}</text>
</g>
<!-- 1&#45;&gt;3 -->
<g id="edge53" class="edge">
<title>1&#45;&gt;3</title>
<path fill="none" stroke="black" d="M1459.88,-288.61C1361.3,-288.96 1026.89,-287.59 995.08,-253.44 986.39,-244.1 993.61,-232.37 1003.59,-222.61"/>
<polygon fill="black" stroke="black" points="1005.99,-225.16 1011.16,-215.92 1001.35,-219.92 1005.99,-225.16"/>
<text text-anchor="middle" x="1008.58" y="-242.24" font-family="Times,serif" font-size="14.00">{c1}</text>
</g>
<!-- 1&#45;&gt;3 -->
<g id="edge54" class="edge">
<title>1&#45;&gt;3</title>
<path fill="none" stroke="black" d="M1460.15,-288.03C1369.25,-286.4 1077.62,-279.22 1045.08,-253.44 1038,-247.82 1034,-239.05 1031.76,-230.42"/>
<polygon fill="black" stroke="black" points="1035.19,-229.69 1029.86,-220.54 1028.31,-231.02 1035.19,-229.69"/>
<text text-anchor="middle" x="1078.58" y="-242.24" font-family="Times,serif" font-size="14.00">{c1, c2, c3}</text>
</g>
<!-- 1&#45;&gt;3 -->
<g id="edge55" class="edge">
<title>1&#45;&gt;3</title>
<path fill="none" stroke="black" d="M1460.18,-287.41C1388.64,-284.43 1195.11,-274.57 1135.08,-253.44 1123.57,-249.38 1122.86,-244.16 1112.08,-238.44 1095.99,-229.89 1077.36,-221.87 1061.83,-215.68"/>
<polygon fill="black" stroke="black" points="1062.72,-212.26 1052.13,-211.88 1060.17,-218.78 1062.72,-212.26"/>
<text text-anchor="middle" x="1179.08" y="-242.24" font-family="Times,serif" font-size="14.00">{c0, c1, c2, c3}</text>
</g>
<!-- 1&#45;&gt;3 -->
<g id="edge56" class="edge">
<title>1&#45;&gt;3</title>
<path fill="none" stroke="black" d="M1460.11,-288.27C1414.55,-287.17 1320.05,-281.37 1246.08,-253.44 1234.66,-249.13 1234.42,-242.94 1223.08,-238.44 1170.96,-217.73 1106.08,-209.19 1066.13,-205.73"/>
<polygon fill="black" stroke="black" points="1066.29,-202.23 1056.05,-204.92 1065.73,-209.21 1066.29,-202.23"/>
<text text-anchor="middle" x="1279.58" y="-242.24" font-family="Times,serif" font-size="14.00">{c0, c1, c2}</text>
</g>
<!-- 1&#45;&gt;3 -->
<g id="edge57" class="edge">
<title>1&#45;&gt;3</title>
<path fill="none" stroke="black" d="M1460.84,-285.2C1430.01,-280.75 1377.79,-271.21 1336.08,-253.44 1324.85,-248.65 1324.54,-242.63 1313.08,-238.44 1228.69,-207.61 1121.81,-202.87 1066.32,-202.74"/>
<polygon fill="black" stroke="black" points="1066.24,-199.25 1056.25,-202.77 1066.26,-206.25 1066.24,-199.25"/>
<text text-anchor="middle" x="1359.58" y="-242.24" font-family="Times,serif" font-size="14.00">{c1, c2}</text>
</g>
<!-- 1&#45;&gt;3 -->
<g id="edge58" class="edge">
<title>1&#45;&gt;3</title>
<path fill="none" stroke="black" d="M1464.25,-279.78C1447.75,-273.24 1425.11,-263.66 1406.08,-253.44 1395.33,-247.66 1394.59,-242.49 1383.08,-238.44 1325.42,-218.16 1145.29,-208.31 1066.55,-204.89"/>
<polygon fill="black" stroke="black" points="1066.27,-201.38 1056.14,-204.45 1065.98,-208.37 1066.27,-201.38"/>
<text text-anchor="middle" x="1439.58" y="-242.24" font-family="Times,serif" font-size="14.00">{c0, c1, c3}</text>
</g>
<!-- 2&#45;&gt;2 -->
<g id="edge82" class="edge">
<title>2&#45;&gt;2</title>
<path fill="none" stroke="black" d="M1501.32,-25.94C1511.1,-25.97 1519.08,-25.47 1519.08,-24.44 1519.08,-23.81 1516.12,-23.38 1511.59,-23.14"/>
<polygon fill="black" stroke="black" points="1511.39,-19.64 1501.32,-22.94 1511.25,-26.64 1511.39,-19.64"/>
<text text-anchor="middle" x="1542.58" y="-20.74" font-family="Times,serif" font-size="14.00">{c0, c1}</text>
</g>
<!-- 2&#45;&gt;2 -->
<g id="edge83" class="edge">
<title>2&#45;&gt;2</title>
<path fill="none" stroke="black" d="M1500.97,-26.86C1529.4,-28.12 1566.08,-27.31 1566.08,-24.44 1566.08,-21.9 1537.49,-20.97 1511.23,-21.65"/>
<polygon fill="black" stroke="black" points="1510.84,-18.17 1500.97,-22.01 1511.09,-25.16 1510.84,-18.17"/>
<text text-anchor="middle" x="1589.58" y="-20.74" font-family="Times,serif" font-size="14.00">{c0, c2}</text>
</g>
<!-- 2&#45;&gt;2 -->
<g id="edge84" class="edge">
<title>2&#45;&gt;2</title>
<path fill="none" stroke="black" d="M1500.98,-27.45C1543.69,-30.17 1613.08,-29.16 1613.08,-24.44 1613.08,-20.07 1553.86,-18.88 1511.16,-20.87"/>
<polygon fill="black" stroke="black" points="1510.78,-17.38 1500.98,-21.42 1511.16,-24.37 1510.78,-17.38"/>
<text text-anchor="middle" x="1636.58" y="-20.74" font-family="Times,serif" font-size="14.00">{c0, c3}</text>
</g>
<!-- 2&#45;&gt;2 -->
<g id="edge85" class="edge">
<title>2&#45;&gt;2</title>
<path fill="none" stroke="black" d="M1500.73,-27.88C1555.65,-32.2 1660.08,-31.05 1660.08,-24.44 1660.08,-18.22 1567.53,-16.83 1510.87,-20.29"/>
<polygon fill="black" stroke="black" points="1510.47,-16.81 1500.73,-20.99 1510.95,-23.79 1510.47,-16.81"/>
<text text-anchor="middle" x="1673.58" y="-20.74" font-family="Times,serif" font-size="14.00">{c1}</text>
</g>
<!-- 2&#45;&gt;2 -->
<g id="edge86" class="edge">
<title>2&#45;&gt;2</title>
<path fill="none" stroke="black" d="M1500.64,-28.35C1562.63,-34.2 1687.08,-32.89 1687.08,-24.44 1687.08,-16.43 1575.41,-14.83 1510.94,-19.66"/>
<polygon fill="black" stroke="black" points="1510.31,-16.2 1500.64,-20.52 1510.9,-23.17 1510.31,-16.2"/>
<text text-anchor="middle" x="1720.58" y="-20.74" font-family="Times,serif" font-size="14.00">{c0, c1, c3}</text>
</g>
<!-- 2&#45;&gt;2 -->
<g id="edge87" class="edge">
<title>2&#45;&gt;2</title>
<path fill="none" stroke="black" d="M1500.56,-28.53C1576.56,-36.23 1754.08,-34.87 1754.08,-24.44 1754.08,-14.46 1591.49,-12.78 1510.89,-19.4"/>
<polygon fill="black" stroke="black" points="1510.2,-15.95 1500.56,-20.34 1510.83,-22.92 1510.2,-15.95"/>
<text text-anchor="middle" x="1777.58" y="-20.74" font-family="Times,serif" font-size="14.00">{c1, c2}</text>
</g>
<!-- 2&#45;&gt;2 -->
<g id="edge88" class="edge">
<title>2&#45;&gt;2</title>
<path fill="none" stroke="black" d="M1500.47,-28.78C1585.98,-38.25 1801.08,-36.8 1801.08,-24.44 1801.08,-12.54 1601.65,-10.75 1510.51,-19.08"/>
<polygon fill="black" stroke="black" points="1510.07,-15.61 1500.47,-20.09 1510.77,-22.58 1510.07,-15.61"/>
<text text-anchor="middle" x="1845.08" y="-20.74" font-family="Times,serif" font-size="14.00">{c0, c1, c2, c3}</text>
</g>
<!-- 2&#45;&gt;2 -->
<g id="edge89" class="edge">
<title>2&#45;&gt;2</title>
<path fill="none" stroke="black" d="M1500.4,-28.85C1600.73,-40.27 1889.08,-38.8 1889.08,-24.44 1889.08,-10.54 1619.02,-8.71 1510.67,-18.96"/>
<polygon fill="black" stroke="black" points="1509.99,-15.51 1500.4,-20.02 1510.71,-22.47 1509.99,-15.51"/>
<text text-anchor="middle" x="1912.58" y="-20.74" font-family="Times,serif" font-size="14.00">{c1, c3}</text>
</g>
<!-- 2&#45;&gt;2 -->
<g id="edge90" class="edge">
<title>2&#45;&gt;2</title>
<path fill="none" stroke="black" d="M1500.4,-29.07C1609.09,-42.28 1936.08,-40.73 1936.08,-24.44 1936.08,-8.62 1627.97,-6.7 1510.51,-18.68"/>
<polygon fill="black" stroke="black" points="1509.96,-15.22 1500.4,-19.81 1510.73,-22.18 1509.96,-15.22"/>
<text text-anchor="middle" x="1969.58" y="-20.74" font-family="Times,serif" font-size="14.00">{c1, c2, c3}</text>
</g>
<!-- 2&#45;&gt;2 -->
<g id="edge91" class="edge">
<title>2&#45;&gt;2</title>
<path fill="none" stroke="black" d="M1500.37,-29.2C1619.57,-44.29 2003.08,-42.7 2003.08,-24.44 2003.08,-6.66 1639.52,-4.68 1510.34,-18.52"/>
<polygon fill="black" stroke="black" points="1509.9,-15.04 1500.37,-19.68 1510.71,-22 1509.9,-15.04"/>
<text text-anchor="middle" x="2026.58" y="-20.74" font-family="Times,serif" font-size="14.00">{c2, c3}</text>
</g>
<!-- 2&#45;&gt;2 -->
<g id="edge92" class="edge">
<title>2&#45;&gt;2</title>
<path fill="none" stroke="black" d="M1500.22,-29.35C1627.01,-46.29 2050.08,-44.65 2050.08,-24.44 2050.08,-4.73 1648.22,-2.68 1510.44,-18.27"/>
<polygon fill="black" stroke="black" points="1509.72,-14.83 1500.22,-19.52 1510.57,-21.78 1509.72,-14.83"/>
<text text-anchor="middle" x="2063.58" y="-20.74" font-family="Times,serif" font-size="14.00">{c2}</text>
</g>
<!-- 2&#45;&gt;2 -->
<g id="edge93" class="edge">
<title>2&#45;&gt;2</title>
<path fill="none" stroke="black" d="M1500.26,-29.56C1632.52,-48.29 2077.08,-46.59 2077.08,-24.44 2077.08,-2.83 1653.96,-0.68 1510.49,-17.98"/>
<polygon fill="black" stroke="black" points="1509.72,-14.55 1500.26,-19.31 1510.63,-21.49 1509.72,-14.55"/>
<text text-anchor="middle" x="2090.58" y="-20.74" font-family="Times,serif" font-size="14.00">{c0}</text>
</g>
<!-- 2&#45;&gt;2 -->
<g id="edge94" class="edge">
<title>2&#45;&gt;2</title>
<path fill="none" stroke="black" d="M1500.14,-29.73C1637.71,-50.3 2104.08,-48.53 2104.08,-24.44 2104.08,-0.91 1659.31,1.33 1510.35,-17.73"/>
<polygon fill="black" stroke="black" points="1509.57,-14.31 1500.14,-19.14 1510.53,-21.24 1509.57,-14.31"/>
<text text-anchor="middle" x="2111.08" y="-20.74" font-family="Times,serif" font-size="14.00">{}</text>
</g>
<!-- 2&#45;&gt;2 -->
<g id="edge95" class="edge">
<title>2&#45;&gt;2</title>
<path fill="none" stroke="black" d="M1500.2,-29.93C1642.38,-52.3 2122.08,-50.47 2122.08,-24.44 2122.08,1.01 1663.69,3.33 1510.28,-17.48"/>
<polygon fill="black" stroke="black" points="1509.59,-14.04 1500.2,-18.95 1510.6,-20.97 1509.59,-14.04"/>
<text text-anchor="middle" x="2155.58" y="-20.74" font-family="Times,serif" font-size="14.00">{c0, c2, c3}</text>
</g>
<!-- 2&#45;&gt;2 -->
<g id="edge96" class="edge">
<title>2&#45;&gt;2</title>
<path fill="none" stroke="black" d="M1499.84,-29.94C1651.05,-54.31 2189.08,-52.47 2189.08,-24.44 2189.08,3 1673.92,5.34 1510.11,-17.4"/>
<polygon fill="black" stroke="black" points="1509.21,-14 1499.84,-18.93 1510.24,-20.92 1509.21,-14"/>
<text text-anchor="middle" x="2222.58" y="-20.74" font-family="Times,serif" font-size="14.00">{c0, c1, c2}</text>
</g>
<!-- 2&#45;&gt;2 -->
<g id="edge97" class="edge">
<title>2&#45;&gt;2</title>
<path fill="none" stroke="black" d="M1500.17,-30.06C1661.06,-56.31 2256.08,-54.44 2256.08,-24.44 2256.08,4.98 1684.08,7.35 1510.08,-17.31"/>
<polygon fill="black" stroke="black" points="1509.53,-13.85 1500.17,-18.81 1510.58,-20.77 1509.53,-13.85"/>
<text text-anchor="middle" x="2269.58" y="-20.74" font-family="Times,serif" font-size="14.00">{c3}</text>
</g>
<!-- 3&#45;&gt;2 -->
<g id="edge75" class="edge">
<title>3&#45;&gt;2</title>
<path fill="none" stroke="black" d="M1027.49,-184.27C1025.79,-173.9 1022.3,-160.9 1015.08,-151.44 1005.65,-139.07 992.74,-146.97 985.08,-133.44 977.2,-119.51 974.96,-109.83 985.08,-97.44 1010.32,-66.51 1035.54,-93.01 1073.08,-79.44 1086.36,-74.64 1087.49,-68.26 1101.08,-64.44 1237.35,-26.11 1280.65,-76.04 1419.08,-46.44 1427.09,-44.72 1435.48,-42.03 1443.22,-39.13"/>
<polygon fill="black" stroke="black" points="1444.6,-42.34 1452.6,-35.4 1442.02,-35.84 1444.6,-42.34"/>
<text text-anchor="middle" x="1008.58" y="-111.74" font-family="Times,serif" font-size="14.00">{c0, c1}</text>
</g>
<!-- 3&#45;&gt;2 -->
<g id="edge76" class="edge">
<title>3&#45;&gt;2</title>
<path fill="none" stroke="black" d="M1031.75,-184.5C1036,-162.29 1046.18,-123.11 1068.08,-97.44 1070.49,-94.62 1122.53,-65.5 1126.08,-64.44 1251.13,-27.21 1291.56,-74.02 1419.08,-46.44 1427.09,-44.71 1435.47,-42 1443.21,-39.1"/>
<polygon fill="black" stroke="black" points="1444.59,-42.32 1452.6,-35.38 1442.01,-35.81 1444.59,-42.32"/>
<text text-anchor="middle" x="1091.58" y="-111.74" font-family="Times,serif" font-size="14.00">{c0, c3}</text>
</g>
<!-- 3&#45;&gt;2 -->
<g id="edge77" class="edge">
<title>3&#45;&gt;2</title>
<path fill="none" stroke="black" d="M1046.69,-188.46C1064.42,-175.18 1092.33,-153.68 1115.08,-133.44 1131.98,-118.39 1134.85,-113.2 1151.08,-97.44 1166.42,-82.54 1166.53,-73.09 1186.08,-64.44 1233.57,-43.43 1368.41,-57.82 1419.08,-46.44 1427,-44.66 1435.31,-41.96 1442.99,-39.09"/>
<polygon fill="black" stroke="black" points="1444.3,-42.33 1452.32,-35.41 1441.73,-35.82 1444.3,-42.33"/>
<text text-anchor="middle" x="1164.58" y="-111.74" font-family="Times,serif" font-size="14.00">{c1}</text>
</g>
<!-- 3&#45;&gt;2 -->
<g id="edge78" class="edge">
<title>3&#45;&gt;2</title>
<path fill="none" stroke="black" d="M1052.9,-193.57C1083.52,-182.8 1137.55,-161.57 1178.08,-133.44 1196.67,-120.53 1195.4,-110.21 1214.08,-97.44 1244.14,-76.88 1254.04,-74.36 1289.08,-64.44 1345.2,-48.54 1362.58,-60.93 1419.08,-46.44 1426.95,-44.42 1435.23,-41.63 1442.91,-38.74"/>
<polygon fill="black" stroke="black" points="1444.21,-42 1452.24,-35.09 1441.65,-35.48 1444.21,-42"/>
<text text-anchor="middle" x="1247.58" y="-111.74" font-family="Times,serif" font-size="14.00">{c0, c1, c3}</text>
</g>
<!-- 3&#45;&gt;2 -->
<g id="edge79" class="edge">
<title>3&#45;&gt;2</title>
<path fill="none" stroke="black" d="M1055.83,-198.81C1103.84,-193.13 1206.56,-176.55 1281.08,-133.44 1300.67,-122.11 1299.25,-111.36 1317.08,-97.44 1339.55,-79.89 1346.45,-76.91 1372.08,-64.44 1372.51,-64.23 1411.98,-49.15 1441.69,-37.8"/>
<polygon fill="black" stroke="black" points="1443.23,-40.96 1451.32,-34.12 1440.73,-34.42 1443.23,-40.96"/>
<text text-anchor="middle" x="1340.58" y="-111.74" font-family="Times,serif" font-size="14.00">{c1, c3}</text>
</g>
<!-- 3&#45;&gt;2 -->
<g id="edge80" class="edge">
<title>3&#45;&gt;2</title>
<path fill="none" stroke="black" d="M1056.29,-201.59C1116.09,-200.78 1261.75,-192.4 1364.08,-133.44 1383.69,-122.14 1383.97,-113.33 1400.08,-97.44 1417.47,-80.29 1437.31,-61 1452.07,-46.7"/>
<polygon fill="black" stroke="black" points="1454.53,-49.19 1459.28,-39.72 1449.66,-44.16 1454.53,-49.19"/>
<text text-anchor="middle" x="1413.58" y="-111.74" font-family="Times,serif" font-size="14.00">{c0}</text>
</g>
<!-- 3&#45;&gt;2 -->
<g id="edge81" class="edge">
<title>3&#45;&gt;2</title>
<path fill="none" stroke="black" d="M1056,-200.5C1136.33,-197.16 1372.17,-183.24 1427.08,-133.44 1450.57,-112.14 1462.84,-77.02 1468.88,-52.64"/>
<polygon fill="black" stroke="black" points="1472.35,-53.12 1471.16,-42.6 1465.53,-51.57 1472.35,-53.12"/>
<text text-anchor="middle" x="1466.58" y="-111.74" font-family="Times,serif" font-size="14.00">{c3}</text>
</g>
<!-- 3&#45;&gt;3 -->
<g id="edge67" class="edge">
<title>3&#45;&gt;3</title>
<path fill="none" stroke="black" d="M1053.61,-210.19C1064.59,-210.93 1074.08,-208.34 1074.08,-202.44 1074.08,-198.47 1069.8,-196 1063.65,-195.03"/>
<polygon fill="black" stroke="black" points="1063.73,-191.53 1053.61,-194.69 1063.49,-198.53 1063.73,-191.53"/>
<text text-anchor="middle" x="1081.08" y="-198.74" font-family="Times,serif" font-size="14.00">{}</text>
</g>
<!-- 4 -->
<g id="node6" class="node">
<title>4</title>
<ellipse fill="none" stroke="black" cx="627.08" cy="-115.44" rx="27" ry="18"/>
<text text-anchor="middle" x="627.08" y="-111.74" font-family="Times,serif" font-size="14.00">4</text>
</g>
<!-- 3&#45;&gt;4 -->
<g id="edge66" class="edge">
<title>3&#45;&gt;4</title>
<path fill="none" stroke="black" d="M1002.13,-200.97C884.16,-198.78 418.18,-188.74 397.08,-166.44 392.5,-161.59 392.74,-156.49 397.08,-151.44 421.43,-123.1 530.68,-117.44 589.43,-116.48"/>
<polygon fill="black" stroke="black" points="589.82,-119.98 599.77,-116.35 589.73,-112.98 589.82,-119.98"/>
<text text-anchor="middle" x="441.08" y="-155.24" font-family="Times,serif" font-size="14.00">{c0, c1, c2, c3}</text>
</g>
<!-- 3&#45;&gt;4 -->
<g id="edge68" class="edge">
<title>3&#45;&gt;4</title>
<path fill="none" stroke="black" d="M1002.05,-201.72C899.98,-202.53 542.02,-202.73 508.08,-166.44 481.44,-137.95 546.03,-125.09 590.11,-119.77"/>
<polygon fill="black" stroke="black" points="590.71,-123.23 600.26,-118.63 589.93,-116.27 590.71,-123.23"/>
<text text-anchor="middle" x="521.58" y="-155.24" font-family="Times,serif" font-size="14.00">{c2}</text>
</g>
<!-- 3&#45;&gt;4 -->
<g id="edge69" class="edge">
<title>3&#45;&gt;4</title>
<path fill="none" stroke="black" d="M1002.06,-201.52C906.46,-201.52 588.38,-199.07 558.08,-166.44 543.06,-150.26 568.99,-135.96 593.23,-126.84"/>
<polygon fill="black" stroke="black" points="594.44,-130.12 602.7,-123.49 592.1,-123.53 594.44,-130.12"/>
<text text-anchor="middle" x="581.58" y="-155.24" font-family="Times,serif" font-size="14.00">{c1, c2}</text>
</g>
<!-- 3&#45;&gt;4 -->
<g id="edge70" class="edge">
<title>3&#45;&gt;4</title>
<path fill="none" stroke="black" d="M1002,-201.12C916.06,-199.84 653.59,-193.71 628.08,-166.44 622.41,-160.37 620.84,-151.86 621.09,-143.58"/>
<polygon fill="black" stroke="black" points="624.59,-143.74 622.22,-133.41 617.64,-142.96 624.59,-143.74"/>
<text text-anchor="middle" x="661.58" y="-155.24" font-family="Times,serif" font-size="14.00">{c0, c1, c2}</text>
</g>
<!-- 3&#45;&gt;4 -->
<g id="edge71" class="edge">
<title>3&#45;&gt;4</title>
<path fill="none" stroke="black" d="M1002.25,-200.01C936.76,-196.28 770.24,-185.18 718.08,-166.44 706.6,-162.31 705.63,-157.57 695.08,-151.44 683.03,-144.43 669.44,-137.29 657.58,-131.3"/>
<polygon fill="black" stroke="black" points="659.03,-128.11 648.52,-126.77 655.9,-134.37 659.03,-128.11"/>
<text text-anchor="middle" x="751.58" y="-155.24" font-family="Times,serif" font-size="14.00">{c0, c2, c3}</text>
</g>
<!-- 3&#45;&gt;4 -->
<g id="edge72" class="edge">
<title>3&#45;&gt;4</title>
<path fill="none" stroke="black" d="M1001.95,-200.77C959.31,-198.93 874.6,-192.05 808.08,-166.44 796.69,-162.05 796.33,-156.17 785.08,-151.44 745.35,-134.74 696.5,-125.48 663.73,-120.75"/>
<polygon fill="black" stroke="black" points="664.07,-117.26 653.69,-119.37 663.12,-124.2 664.07,-117.26"/>
<text text-anchor="middle" x="841.58" y="-155.24" font-family="Times,serif" font-size="14.00">{c1, c2, c3}</text>
</g>
<!-- 3&#45;&gt;4 -->
<g id="edge73" class="edge">
<title>3&#45;&gt;4</title>
<path fill="none" stroke="black" d="M1003.15,-197.03C976.12,-191.86 932.91,-181.97 898.08,-166.44 886.93,-161.47 886.51,-155.73 875.08,-151.44 803.78,-124.68 713.96,-118.15 664.33,-116.7"/>
<polygon fill="black" stroke="black" points="664.16,-113.19 654.08,-116.45 663.99,-120.19 664.16,-113.19"/>
<text text-anchor="middle" x="921.58" y="-155.24" font-family="Times,serif" font-size="14.00">{c0, c2}</text>
</g>
<!-- 3&#45;&gt;4 -->
<g id="edge74" class="edge">
<title>3&#45;&gt;4</title>
<path fill="none" stroke="black" d="M1008.86,-190.22C996.9,-183.49 981.51,-174.66 968.08,-166.44 957.67,-160.06 956.57,-155.55 945.08,-151.44 894.12,-133.19 736.41,-122.44 664.05,-118.35"/>
<polygon fill="black" stroke="black" points="664.2,-114.85 654.02,-117.79 663.81,-121.84 664.2,-114.85"/>
<text text-anchor="middle" x="991.58" y="-155.24" font-family="Times,serif" font-size="14.00">{c2, c3}</text>
</g>
<!-- 4&#45;&gt;2 -->
<g id="edge43" class="edge">
<title>4&#45;&gt;2</title>
<path fill="none" stroke="black" d="M628.8,-97.08C630.91,-85.79 635.62,-71.84 646.08,-64.44 681.15,-39.64 1376.93,-54.72 1419.08,-46.44 1427.12,-44.86 1435.52,-42.21 1443.26,-39.31"/>
<polygon fill="black" stroke="black" points="1444.64,-42.53 1452.64,-35.58 1442.05,-36.03 1444.64,-42.53"/>
<text text-anchor="middle" x="669.58" y="-68.24" font-family="Times,serif" font-size="14.00">{c0, c1}</text>
</g>
<!-- 4&#45;&gt;2 -->
<g id="edge44" class="edge">
<title>4&#45;&gt;2</title>
<path fill="none" stroke="black" d="M648.15,-103.88C661.25,-97.17 678.33,-88.13 693.08,-79.44 703.59,-73.24 704.43,-68.06 716.08,-64.44 790.69,-41.22 1342.43,-61.59 1419.08,-46.44 1427.12,-44.85 1435.51,-42.2 1443.26,-39.3"/>
<polygon fill="black" stroke="black" points="1444.64,-42.52 1452.64,-35.57 1442.05,-36.01 1444.64,-42.52"/>
<text text-anchor="middle" x="739.58" y="-68.24" font-family="Times,serif" font-size="14.00">{c0, c2}</text>
</g>
<!-- 4&#45;&gt;2 -->
<g id="edge45" class="edge">
<title>4&#45;&gt;2</title>
<path fill="none" stroke="black" d="M653.23,-110.32C681.24,-105.33 726.6,-95.51 763.08,-79.44 774.25,-74.52 774.43,-68.08 786.08,-64.44 920.39,-22.43 1281.07,-73.92 1419.08,-46.44 1427.12,-44.84 1435.51,-42.18 1443.25,-39.29"/>
<polygon fill="black" stroke="black" points="1444.64,-42.5 1452.63,-35.55 1442.05,-36 1444.64,-42.5"/>
<text text-anchor="middle" x="799.58" y="-68.24" font-family="Times,serif" font-size="14.00">{c1}</text>
</g>
<!-- 4&#45;&gt;2 -->
<g id="edge46" class="edge">
<title>4&#45;&gt;2</title>
<path fill="none" stroke="black" d="M653.87,-112.69C690.86,-109.55 759.11,-101.12 813.08,-79.44 824.41,-74.89 824.44,-68.1 836.08,-64.44 959.74,-25.59 1291.99,-71.91 1419.08,-46.44 1427.11,-44.83 1435.51,-42.17 1443.25,-39.27"/>
<polygon fill="black" stroke="black" points="1444.63,-42.49 1452.63,-35.54 1442.05,-35.98 1444.63,-42.49"/>
<text text-anchor="middle" x="859.58" y="-68.24" font-family="Times,serif" font-size="14.00">{c1, c2}</text>
</g>
<!-- 4&#45;&gt;2 -->
<g id="edge47" class="edge">
<title>4&#45;&gt;2</title>
<path fill="none" stroke="black" d="M654.18,-114.59C701.96,-114.02 803.64,-109.06 883.08,-79.44 894.52,-75.17 894.45,-68.12 906.08,-64.44 1014.84,-30.02 1307.28,-69.09 1419.08,-46.44 1427.11,-44.81 1435.5,-42.14 1443.25,-39.25"/>
<polygon fill="black" stroke="black" points="1444.63,-42.46 1452.63,-35.52 1442.04,-35.96 1444.63,-42.46"/>
<text text-anchor="middle" x="919.58" y="-68.24" font-family="Times,serif" font-size="14.00">{c2}</text>
</g>
<!-- 4&#45;&gt;2 -->
<g id="edge48" class="edge">
<title>4&#45;&gt;2</title>
<path fill="none" stroke="black" d="M653.95,-112.95C718.73,-109.12 881.9,-97.88 933.08,-79.44 944.56,-75.3 944.45,-68.14 956.08,-64.44 1054.19,-33.19 1318.2,-67.08 1419.08,-46.44 1427.11,-44.8 1435.5,-42.12 1443.24,-39.23"/>
<polygon fill="black" stroke="black" points="1444.62,-42.44 1452.62,-35.5 1442.04,-35.94 1444.62,-42.44"/>
<text text-anchor="middle" x="969.58" y="-68.24" font-family="Times,serif" font-size="14.00">{c0}</text>
</g>
<!-- 4&#45;&gt;2 -->
<g id="edge49" class="edge">
<title>4&#45;&gt;2</title>
<path fill="none" stroke="black" d="M654.03,-113.45C726.16,-110.53 922.29,-100.8 983.08,-79.44 994.59,-75.39 994.46,-68.17 1006.08,-64.44 1093.55,-36.35 1329.12,-65.06 1419.08,-46.44 1427.1,-44.78 1435.49,-42.1 1443.24,-39.2"/>
<polygon fill="black" stroke="black" points="1444.62,-42.42 1452.62,-35.47 1442.03,-35.91 1444.62,-42.42"/>
<text text-anchor="middle" x="1039.58" y="-68.24" font-family="Times,serif" font-size="14.00">{c0, c1, c2}</text>
</g>
<!-- 4&#45;&gt;4 -->
<g id="edge37" class="edge">
<title>4&#45;&gt;4</title>
<path fill="none" stroke="black" d="M651.61,-123.19C662.59,-123.93 672.08,-121.34 672.08,-115.44 672.08,-111.47 667.8,-109 661.65,-108.03"/>
<polygon fill="black" stroke="black" points="661.73,-104.53 651.61,-107.69 661.49,-111.53 661.73,-104.53"/>
<text text-anchor="middle" x="679.08" y="-111.74" font-family="Times,serif" font-size="14.00">{}</text>
</g>
<!-- 5 -->
<g id="node7" class="node">
<title>5</title>
<ellipse fill="none" stroke="black" cx="340.08" cy="-24.44" rx="18" ry="18"/>
<ellipse fill="none" stroke="black" cx="340.08" cy="-24.44" rx="22" ry="22"/>
<text text-anchor="middle" x="340.08" y="-20.74" font-family="Times,serif" font-size="14.00">5</text>
</g>
<!-- 4&#45;&gt;5 -->
<g id="edge34" class="edge">
<title>4&#45;&gt;5</title>
<path fill="none" stroke="black" d="M600.16,-113.94C483.42,-111.67 25.81,-101.37 5.08,-79.44 -37.5,-34.4 216.24,-26.92 307.95,-25.68"/>
<polygon fill="black" stroke="black" points="308.1,-29.18 318.05,-25.56 308.01,-22.18 308.1,-29.18"/>
<text text-anchor="middle" x="49.08" y="-68.24" font-family="Times,serif" font-size="14.00">{c0, c1, c2, c3}</text>
</g>
<!-- 4&#45;&gt;5 -->
<g id="edge35" class="edge">
<title>4&#45;&gt;5</title>
<path fill="none" stroke="black" d="M599.88,-114.69C498.85,-115.34 149.27,-114.98 116.08,-79.44 111.53,-74.57 111.79,-69.54 116.08,-64.44 140.19,-35.77 251.64,-28.17 307.7,-26.16"/>
<polygon fill="black" stroke="black" points="307.93,-29.66 317.81,-25.84 307.7,-22.66 307.93,-29.66"/>
<text text-anchor="middle" x="149.58" y="-68.24" font-family="Times,serif" font-size="14.00">{c0, c2, c3}</text>
</g>
<!-- 4&#45;&gt;5 -->
<g id="edge36" class="edge">
<title>4&#45;&gt;5</title>
<path fill="none" stroke="black" d="M599.89,-114.26C510.93,-113.4 232.75,-108.41 206.08,-79.44 174.59,-45.22 258.99,-32.24 307.94,-27.69"/>
<polygon fill="black" stroke="black" points="308.42,-31.16 318.08,-26.81 307.82,-24.18 308.42,-31.16"/>
<text text-anchor="middle" x="239.58" y="-68.24" font-family="Times,serif" font-size="14.00">{c0, c1, c3}</text>
</g>
<!-- 4&#45;&gt;5 -->
<g id="edge38" class="edge">
<title>4&#45;&gt;5</title>
<path fill="none" stroke="black" d="M600.02,-113.61C524.61,-111.03 316.3,-101.91 296.08,-79.44 285.13,-67.26 298.07,-52.86 312.7,-41.99"/>
<polygon fill="black" stroke="black" points="315.09,-44.6 321.34,-36.04 311.12,-38.83 315.09,-44.6"/>
<text text-anchor="middle" x="319.58" y="-68.24" font-family="Times,serif" font-size="14.00">{c1, c3}</text>
</g>
<!-- 4&#45;&gt;5 -->
<g id="edge39" class="edge">
<title>4&#45;&gt;5</title>
<path fill="none" stroke="black" d="M599.95,-113.99C540.88,-112.51 402.99,-106.22 366.08,-79.44 358.04,-73.6 352.38,-64.61 348.45,-55.63"/>
<polygon fill="black" stroke="black" points="351.63,-54.15 344.82,-46.03 345.08,-56.62 351.63,-54.15"/>
<text text-anchor="middle" x="389.58" y="-68.24" font-family="Times,serif" font-size="14.00">{c2, c3}</text>
</g>
<!-- 4&#45;&gt;5 -->
<g id="edge40" class="edge">
<title>4&#45;&gt;5</title>
<path fill="none" stroke="black" d="M600.21,-112.86C562.39,-109.91 491.82,-101.67 436.08,-79.44 424.75,-74.92 423.58,-70.65 413.08,-64.44 398.61,-55.88 382.12,-46.99 368.48,-39.87"/>
<polygon fill="black" stroke="black" points="370.04,-36.74 359.55,-35.25 366.82,-42.96 370.04,-36.74"/>
<text text-anchor="middle" x="469.58" y="-68.24" font-family="Times,serif" font-size="14.00">{c1, c2, c3}</text>
</g>
<!-- 4&#45;&gt;5 -->
<g id="edge41" class="edge">
<title>4&#45;&gt;5</title>
<path fill="none" stroke="black" d="M602.33,-107.71C581.46,-101.6 551.08,-91.69 526.08,-79.44 515.12,-74.07 514.29,-69.26 503.08,-64.44 459.67,-45.76 405.73,-35.08 372.1,-29.77"/>
<polygon fill="black" stroke="black" points="372.34,-26.27 361.93,-28.23 371.29,-33.19 372.34,-26.27"/>
<text text-anchor="middle" x="539.58" y="-68.24" font-family="Times,serif" font-size="14.00">{c3}</text>
</g>
<!-- 4&#45;&gt;5 -->
<g id="edge42" class="edge">
<title>4&#45;&gt;5</title>
<path fill="none" stroke="black" d="M609.04,-101.98C588.14,-87.58 556.15,-65.69 553.08,-64.44 492.12,-39.55 414.86,-30.46 372.15,-27.2"/>
<polygon fill="black" stroke="black" points="372.29,-23.7 362.07,-26.49 371.8,-30.69 372.29,-23.7"/>
<text text-anchor="middle" x="598.58" y="-68.24" font-family="Times,serif" font-size="14.00">{c0, c3}</text>
</g>
<!-- 5&#45;&gt;5 -->
<g id="edge18" class="edge">
<title>5&#45;&gt;5</title>
<path fill="none" stroke="black" d="M362.29,-25.92C371.88,-26.04 380.08,-25.55 380.08,-24.44 380.08,-23.76 377.03,-23.31 372.49,-23.09"/>
<polygon fill="black" stroke="black" points="372.34,-19.59 362.29,-22.96 372.24,-26.59 372.34,-19.59"/>
<text text-anchor="middle" x="393.58" y="-20.74" font-family="Times,serif" font-size="14.00">{c2}</text>
</g>
<!-- 5&#45;&gt;5 -->
<g id="edge19" class="edge">
<title>5&#45;&gt;5</title>
<path fill="none" stroke="black" d="M362.11,-26.9C382.99,-28.1 407.08,-27.28 407.08,-24.44 407.08,-22.06 390.25,-21.1 372.53,-21.54"/>
<polygon fill="black" stroke="black" points="371.96,-18.06 362.11,-21.97 372.25,-25.06 371.96,-18.06"/>
<text text-anchor="middle" x="430.58" y="-20.74" font-family="Times,serif" font-size="14.00">{c1, c2}</text>
</g>
<!-- 5&#45;&gt;5 -->
<g id="edge20" class="edge">
<title>5&#45;&gt;5</title>
<path fill="none" stroke="black" d="M362.08,-27.35C397.78,-30.19 454.08,-29.22 454.08,-24.44 454.08,-20.09 407.44,-18.89 372.15,-20.85"/>
<polygon fill="black" stroke="black" points="371.83,-17.36 362.08,-21.52 372.29,-24.35 371.83,-17.36"/>
<text text-anchor="middle" x="487.58" y="-20.74" font-family="Times,serif" font-size="14.00">{c0, c1, c2}</text>
</g>
<!-- 5&#45;&gt;5 -->
<g id="edge21" class="edge">
<title>5&#45;&gt;5</title>
<path fill="none" stroke="black" d="M362.05,-27.57C414.04,-32.25 521.08,-31.2 521.08,-24.44 521.08,-18.08 426.61,-16.78 372.06,-20.52"/>
<polygon fill="black" stroke="black" points="371.75,-17.03 362.05,-21.31 372.3,-24.01 371.75,-17.03"/>
<text text-anchor="middle" x="534.58" y="-20.74" font-family="Times,serif" font-size="14.00">{c0}</text>
</g>
<!-- 5&#45;&gt;5 -->
<g id="edge22" class="edge">
<title>5&#45;&gt;5</title>
<path fill="none" stroke="black" d="M362.09,-27.98C420.89,-34.25 548.08,-33.07 548.08,-24.44 548.08,-16.28 434.42,-14.78 372.32,-19.93"/>
<polygon fill="black" stroke="black" points="371.72,-16.48 362.09,-20.9 372.38,-23.44 371.72,-16.48"/>
<text text-anchor="middle" x="581.58" y="-20.74" font-family="Times,serif" font-size="14.00">{c0, c1, c3}</text>
</g>
<!-- 5&#45;&gt;5 -->
<g id="edge23" class="edge">
<title>5&#45;&gt;5</title>
<path fill="none" stroke="black" d="M361.92,-28.11C433.73,-36.28 615.08,-35.05 615.08,-24.44 615.08,-14.3 449.66,-12.73 372.24,-19.72"/>
<polygon fill="black" stroke="black" points="371.52,-16.28 361.92,-20.77 372.22,-23.24 371.52,-16.28"/>
<text text-anchor="middle" x="648.58" y="-20.74" font-family="Times,serif" font-size="14.00">{c0, c2, c3}</text>
</g>
<!-- 5&#45;&gt;5 -->
<g id="edge24" class="edge">
<title>5&#45;&gt;5</title>
<path fill="none" stroke="black" d="M361.81,-28.24C445.33,-38.3 682.08,-37.03 682.08,-24.44 682.08,-12.33 463.02,-10.69 372,-19.54"/>
<polygon fill="black" stroke="black" points="371.37,-16.08 361.81,-20.64 372.13,-23.04 371.37,-16.08"/>
<text text-anchor="middle" x="689.08" y="-20.74" font-family="Times,serif" font-size="14.00">{}</text>
</g>
<!-- 5&#45;&gt;5 -->
<g id="edge25" class="edge">
<title>5&#45;&gt;5</title>
<path fill="none" stroke="black" d="M361.76,-28.52C449.86,-40.3 700.08,-38.94 700.08,-24.44 700.08,-10.46 467.62,-8.69 371.93,-19.13"/>
<polygon fill="black" stroke="black" points="371.27,-15.69 361.76,-20.36 372.11,-22.64 371.27,-15.69"/>
<text text-anchor="middle" x="723.58" y="-20.74" font-family="Times,serif" font-size="14.00">{c0, c2}</text>
</g>
<!-- 5&#45;&gt;5 -->
<g id="edge26" class="edge">
<title>5&#45;&gt;5</title>
<path fill="none" stroke="black" d="M361.79,-28.68C458.27,-42.3 747.08,-40.89 747.08,-24.44 747.08,-8.53 477.13,-6.68 372.02,-18.89"/>
<polygon fill="black" stroke="black" points="371.27,-15.46 361.79,-20.2 372.16,-22.4 371.27,-15.46"/>
<text text-anchor="middle" x="770.58" y="-20.74" font-family="Times,serif" font-size="14.00">{c1, c3}</text>
</g>
<!-- 5&#45;&gt;5 -->
<g id="edge27" class="edge">
<title>5&#45;&gt;5</title>
<path fill="none" stroke="black" d="M361.7,-28.81C466.17,-44.31 794.08,-42.86 794.08,-24.44 794.08,-6.58 485.72,-4.67 371.79,-18.71"/>
<polygon fill="black" stroke="black" points="371.15,-15.26 361.7,-20.07 372.08,-22.2 371.15,-15.26"/>
<text text-anchor="middle" x="817.58" y="-20.74" font-family="Times,serif" font-size="14.00">{c0, c1}</text>
</g>
<!-- 5&#45;&gt;5 -->
<g id="edge28" class="edge">
<title>5&#45;&gt;5</title>
<path fill="none" stroke="black" d="M361.94,-28.97C474.54,-46.32 841.08,-44.8 841.08,-24.44 841.08,-4.65 495.01,-2.66 372.11,-18.47"/>
<polygon fill="black" stroke="black" points="371.36,-15.05 361.94,-19.9 372.33,-21.98 371.36,-15.05"/>
<text text-anchor="middle" x="864.58" y="-20.74" font-family="Times,serif" font-size="14.00">{c2, c3}</text>
</g>
<!-- 5&#45;&gt;5 -->
<g id="edge29" class="edge">
<title>5&#45;&gt;5</title>
<path fill="none" stroke="black" d="M361.91,-29.08C482.15,-48.32 888.08,-46.77 888.08,-24.44 888.08,-2.69 503.28,-0.65 372.01,-18.31"/>
<polygon fill="black" stroke="black" points="371.3,-14.88 361.91,-19.79 372.31,-21.81 371.3,-14.88"/>
<text text-anchor="middle" x="911.58" y="-20.74" font-family="Times,serif" font-size="14.00">{c0, c3}</text>
</g>
<!-- 5&#45;&gt;5 -->
<g id="edge30" class="edge">
<title>5&#45;&gt;5</title>
<path fill="none" stroke="black" d="M361.62,-29.14C489,-50.33 935.08,-48.76 935.08,-24.44 935.08,-0.71 510.51,1.36 371.51,-18.22"/>
<polygon fill="black" stroke="black" points="370.98,-14.76 361.62,-19.73 372.03,-21.68 370.98,-14.76"/>
<text text-anchor="middle" x="948.58" y="-20.74" font-family="Times,serif" font-size="14.00">{c3}</text>
</g>
<!-- 5&#45;&gt;5 -->
<g id="edge31" class="edge">
<title>5&#45;&gt;5</title>
<path fill="none" stroke="black" d="M361.7,-29.29C494.7,-52.33 962.08,-50.71 962.08,-24.44 962.08,1.22 516.35,3.37 371.59,-18.01"/>
<polygon fill="black" stroke="black" points="371.02,-14.55 361.7,-19.59 372.13,-21.47 371.02,-14.55"/>
<text text-anchor="middle" x="995.58" y="-20.74" font-family="Times,serif" font-size="14.00">{c1, c2, c3}</text>
</g>
<!-- 5&#45;&gt;5 -->
<g id="edge32" class="edge">
<title>5&#45;&gt;5</title>
<path fill="none" stroke="black" d="M361.62,-29.32C503.63,-54.34 1029.08,-52.71 1029.08,-24.44 1029.08,3.2 526.97,5.38 371.76,-17.91"/>
<polygon fill="black" stroke="black" points="370.93,-14.49 361.62,-19.55 372.05,-21.4 370.93,-14.49"/>
<text text-anchor="middle" x="1073.08" y="-20.74" font-family="Times,serif" font-size="14.00">{c0, c1, c2, c3}</text>
</g>
<!-- 5&#45;&gt;5 -->
<g id="edge33" class="edge">
<title>5&#45;&gt;5</title>
<path fill="none" stroke="black" d="M361.95,-29.4C515.08,-56.34 1117.08,-54.69 1117.08,-24.44 1117.08,5.19 539.52,7.39 371.93,-17.85"/>
<polygon fill="black" stroke="black" points="371.26,-14.42 361.95,-19.47 372.38,-21.33 371.26,-14.42"/>
<text text-anchor="middle" x="1130.58" y="-20.74" font-family="Times,serif" font-size="14.00">{c1}</text>
</g>
</g>
</svg>
