<?xml version="1.0" encoding="UTF-8" standalone="no"?>
<!DOCTYPE svg PUBLIC "-//W3C//DTD SVG 1.1//EN"
 "http://www.w3.org/Graphics/SVG/1.1/DTD/svg11.dtd">
<!-- Generated by graphviz version 2.43.0 (0)
 -->
<!-- Title: %3 Pages: 1 -->
<svg width="2577pt" height="475pt"
 viewBox="0.00 0.00 2577.07 475.44" xmlns="http://www.w3.org/2000/svg" xmlns:xlink="http://www.w3.org/1999/xlink">
<g id="graph0" class="graph" transform="scale(1 1) rotate(0) translate(4 471.44)">
<title>%3</title>
<polygon fill="white" stroke="transparent" points="-4,4 -4,-471.44 2573.07,-471.44 2573.07,4 -4,4"/>
<!-- fake -->
<g id="node1" class="node">
<title>fake</title>
</g>
<!-- 0 -->
<g id="node2" class="node">
<title>0</title>
<ellipse fill="none" stroke="black" cx="1877.07" cy="-376.44" rx="27" ry="18"/>
<text text-anchor="middle" x="1877.07" y="-372.74" font-family="Times,serif" font-size="14.00">0</text>
</g>
<!-- fake&#45;&gt;0 -->
<g id="edge1" class="edge">
<title>fake&#45;&gt;0</title>
<path fill="none" stroke="black" stroke-width="2" d="M1877.07,-431.25C1877.07,-423.23 1877.07,-413.49 1877.07,-404.51"/>
<polygon fill="black" stroke="black" stroke-width="2" points="1880.57,-404.47 1877.07,-394.47 1873.57,-404.47 1880.57,-404.47"/>
</g>
<!-- 0&#45;&gt;0 -->
<g id="edge22" class="edge">
<title>0&#45;&gt;0</title>
<path fill="none" stroke="black" d="M1902.51,-383.13C1913.1,-383.59 1922.07,-381.36 1922.07,-376.44 1922.07,-373.21 1918.2,-371.14 1912.56,-370.23"/>
<polygon fill="black" stroke="black" points="1912.67,-366.73 1902.51,-369.75 1912.33,-373.72 1912.67,-366.73"/>
<text text-anchor="middle" x="1929.07" y="-372.74" font-family="Times,serif" font-size="14.00">{}</text>
</g>
<!-- 1 -->
<g id="node3" class="node">
<title>1</title>
<ellipse fill="none" stroke="black" cx="1516.07" cy="-289.44" rx="27" ry="18"/>
<text text-anchor="middle" x="1516.07" y="-285.74" font-family="Times,serif" font-size="14.00">1</text>
</g>
<!-- 0&#45;&gt;1 -->
<g id="edge18" class="edge">
<title>0&#45;&gt;1</title>
<path fill="none" stroke="black" d="M1849.83,-374.79C1738.86,-372.03 1325.87,-360.43 1307.07,-340.44 1302.5,-335.58 1302.76,-330.53 1307.07,-325.44 1328.63,-299.97 1424.58,-293.02 1478.67,-291.13"/>
<polygon fill="black" stroke="black" points="1479,-294.62 1488.89,-290.82 1478.79,-287.63 1479,-294.62"/>
<text text-anchor="middle" x="1340.57" y="-329.24" font-family="Times,serif" font-size="14.00">{c0, c1, c2}</text>
</g>
<!-- 0&#45;&gt;1 -->
<g id="edge19" class="edge">
<title>0&#45;&gt;1</title>
<path fill="none" stroke="black" d="M1849.86,-375.56C1752.85,-375.71 1428,-373.71 1397.07,-340.44 1370.51,-311.87 1435.07,-299.04 1479.12,-293.75"/>
<polygon fill="black" stroke="black" points="1479.72,-297.2 1489.27,-292.62 1478.94,-290.25 1479.72,-297.2"/>
<text text-anchor="middle" x="1410.57" y="-329.24" font-family="Times,serif" font-size="14.00">{c0}</text>
</g>
<!-- 0&#45;&gt;1 -->
<g id="edge20" class="edge">
<title>0&#45;&gt;1</title>
<path fill="none" stroke="black" d="M1849.93,-375.31C1759.77,-374.62 1474.39,-370.07 1447.07,-340.44 1432.11,-324.21 1458.02,-309.91 1482.25,-300.81"/>
<polygon fill="black" stroke="black" points="1483.44,-304.1 1491.7,-297.47 1481.11,-297.5 1483.44,-304.1"/>
<text text-anchor="middle" x="1470.57" y="-329.24" font-family="Times,serif" font-size="14.00">{c0, c1}</text>
</g>
<!-- 0&#45;&gt;1 -->
<g id="edge21" class="edge">
<title>0&#45;&gt;1</title>
<path fill="none" stroke="black" d="M1849.98,-374.83C1770.09,-372.78 1539.6,-364.77 1517.07,-340.44 1511.43,-334.35 1509.86,-325.83 1510.11,-317.55"/>
<polygon fill="black" stroke="black" points="1513.62,-317.71 1511.23,-307.39 1506.66,-316.94 1513.62,-317.71"/>
<text text-anchor="middle" x="1550.57" y="-329.24" font-family="Times,serif" font-size="14.00">{c0, c2, c3}</text>
</g>
<!-- 0&#45;&gt;1 -->
<g id="edge23" class="edge">
<title>0&#45;&gt;1</title>
<path fill="none" stroke="black" d="M1850.07,-375.86C1800.38,-375.79 1691.77,-371.68 1607.07,-340.44 1595.62,-336.21 1594.62,-331.57 1584.07,-325.44 1572.02,-318.43 1558.42,-311.29 1546.57,-305.3"/>
<polygon fill="black" stroke="black" points="1548.01,-302.11 1537.5,-300.77 1544.88,-308.37 1548.01,-302.11"/>
<text text-anchor="middle" x="1651.07" y="-329.24" font-family="Times,serif" font-size="14.00">{c0, c1, c2, c3}</text>
</g>
<!-- 0&#45;&gt;1 -->
<g id="edge24" class="edge">
<title>0&#45;&gt;1</title>
<path fill="none" stroke="black" d="M1850.58,-372.57C1818.28,-368.42 1762.51,-359.08 1718.07,-340.44 1706.81,-335.72 1706.38,-330.03 1695.07,-325.44 1648.2,-306.42 1590.13,-297.51 1553.08,-293.49"/>
<polygon fill="black" stroke="black" points="1553.06,-289.97 1542.76,-292.44 1552.35,-296.94 1553.06,-289.97"/>
<text text-anchor="middle" x="1741.57" y="-329.24" font-family="Times,serif" font-size="14.00">{c0, c3}</text>
</g>
<!-- 0&#45;&gt;1 -->
<g id="edge25" class="edge">
<title>0&#45;&gt;1</title>
<path fill="none" stroke="black" d="M1853.45,-367.63C1835.17,-361.24 1809.46,-351.48 1788.07,-340.44 1777.22,-334.84 1776.49,-329.72 1765.07,-325.44 1693.48,-298.59 1603.29,-292.1 1553.47,-290.67"/>
<polygon fill="black" stroke="black" points="1553.25,-287.17 1543.17,-290.43 1553.09,-294.16 1553.25,-287.17"/>
<text text-anchor="middle" x="1821.57" y="-329.24" font-family="Times,serif" font-size="14.00">{c0, c1, c3}</text>
</g>
<!-- 0&#45;&gt;1 -->
<g id="edge26" class="edge">
<title>0&#45;&gt;1</title>
<path fill="none" stroke="black" d="M1874.1,-358.27C1871.21,-347.07 1865.65,-333.14 1855.07,-325.44 1807.79,-291 1631.36,-288.88 1553.45,-289.7"/>
<polygon fill="black" stroke="black" points="1553.09,-286.2 1543.13,-289.83 1553.18,-293.2 1553.09,-286.2"/>
<text text-anchor="middle" x="1890.57" y="-329.24" font-family="Times,serif" font-size="14.00">{c0, c2}</text>
</g>
<!-- 2 -->
<g id="node4" class="node">
<title>2</title>
<ellipse fill="none" stroke="black" cx="1494.07" cy="-24.44" rx="27" ry="18"/>
<text text-anchor="middle" x="1494.07" y="-20.74" font-family="Times,serif" font-size="14.00">2</text>
</g>
<!-- 0&#45;&gt;2 -->
<g id="edge27" class="edge">
<title>0&#45;&gt;2</title>
<path fill="none" stroke="black" d="M1896.79,-364.02C1904.98,-358.13 1913.6,-350.13 1918.07,-340.44 1920.86,-334.38 1919.91,-331.84 1918.07,-325.44 1883.81,-206.21 1855.55,-172.86 1757.07,-97.44 1689.24,-45.49 1586.34,-31 1531.53,-26.98"/>
<polygon fill="black" stroke="black" points="1531.44,-23.46 1521.23,-26.3 1530.98,-30.45 1531.44,-23.46"/>
<text text-anchor="middle" x="1890.57" y="-198.74" font-family="Times,serif" font-size="14.00">{c1}</text>
</g>
<!-- 0&#45;&gt;2 -->
<g id="edge28" class="edge">
<title>0&#45;&gt;2</title>
<path fill="none" stroke="black" d="M1899.02,-365.72C1924.79,-352.64 1964.07,-326.76 1964.07,-290.44 1964.07,-290.44 1964.07,-290.44 1964.07,-114.44 1964.07,-70.39 1641.27,-38.22 1530.7,-28.5"/>
<polygon fill="black" stroke="black" points="1530.95,-25.01 1520.68,-27.63 1530.34,-31.98 1530.95,-25.01"/>
<text text-anchor="middle" x="1977.57" y="-198.74" font-family="Times,serif" font-size="14.00">{c3}</text>
</g>
<!-- 0&#45;&gt;2 -->
<g id="edge29" class="edge">
<title>0&#45;&gt;2</title>
<path fill="none" stroke="black" d="M1903.54,-372.49C1946.6,-366.07 2027.07,-346.56 2027.07,-290.44 2027.07,-290.44 2027.07,-290.44 2027.07,-114.44 2027.07,-64.07 1651.93,-35.57 1531.09,-27.7"/>
<polygon fill="black" stroke="black" points="1531.07,-24.19 1520.86,-27.04 1530.62,-31.18 1531.07,-24.19"/>
<text text-anchor="middle" x="2050.57" y="-198.74" font-family="Times,serif" font-size="14.00">{c1, c3}</text>
</g>
<!-- 0&#45;&gt;2 -->
<g id="edge30" class="edge">
<title>0&#45;&gt;2</title>
<path fill="none" stroke="black" d="M1903.34,-371.56C1964.28,-361.84 2110.07,-334.03 2110.07,-290.44 2110.07,-290.44 2110.07,-290.44 2110.07,-114.44 2110.07,-55.59 1663.98,-32.45 1531.03,-26.86"/>
<polygon fill="black" stroke="black" points="1531.07,-23.36 1520.93,-26.44 1530.78,-30.35 1531.07,-23.36"/>
<text text-anchor="middle" x="2133.57" y="-198.74" font-family="Times,serif" font-size="14.00">{c2, c3}</text>
</g>
<!-- 0&#45;&gt;2 -->
<g id="edge31" class="edge">
<title>0&#45;&gt;2</title>
<path fill="none" stroke="black" d="M1904.01,-373.97C1980.43,-369.07 2193.07,-350.09 2193.07,-290.44 2193.07,-290.44 2193.07,-290.44 2193.07,-114.44 2193.07,-47.08 1675.72,-29.75 1531.18,-26.22"/>
<polygon fill="black" stroke="black" points="1531.12,-22.72 1521.04,-25.98 1530.96,-29.72 1531.12,-22.72"/>
<text text-anchor="middle" x="2206.57" y="-198.74" font-family="Times,serif" font-size="14.00">{c2}</text>
</g>
<!-- 0&#45;&gt;2 -->
<g id="edge32" class="edge">
<title>0&#45;&gt;2</title>
<path fill="none" stroke="black" d="M1904.02,-375.16C1990.61,-373.54 2256.07,-362.68 2256.07,-290.44 2256.07,-290.44 2256.07,-290.44 2256.07,-114.44 2256.07,-40.62 1684.68,-27.91 1531.48,-25.83"/>
<polygon fill="black" stroke="black" points="1531.23,-22.32 1521.19,-25.7 1531.14,-29.32 1531.23,-22.32"/>
<text text-anchor="middle" x="2279.57" y="-198.74" font-family="Times,serif" font-size="14.00">{c1, c2}</text>
</g>
<!-- 0&#45;&gt;2 -->
<g id="edge33" class="edge">
<title>0&#45;&gt;2</title>
<path fill="none" stroke="black" d="M1904.1,-375.73C1963.81,-375.73 2111.05,-372.19 2229.07,-340.44 2280.93,-326.48 2339.07,-344.14 2339.07,-290.44 2339.07,-290.44 2339.07,-290.44 2339.07,-114.44 2339.07,-31.98 1694.48,-25.67 1531.27,-25.39"/>
<polygon fill="black" stroke="black" points="1531.23,-21.89 1521.22,-25.38 1531.22,-28.89 1531.23,-21.89"/>
<text text-anchor="middle" x="2372.57" y="-198.74" font-family="Times,serif" font-size="14.00">{c1, c2, c3}</text>
</g>
<!-- 1&#45;&gt;1 -->
<g id="edge2" class="edge">
<title>1&#45;&gt;1</title>
<path fill="none" stroke="black" d="M1540.6,-297.19C1551.58,-297.93 1561.07,-295.34 1561.07,-289.44 1561.07,-285.47 1556.78,-283 1550.64,-282.03"/>
<polygon fill="black" stroke="black" points="1550.71,-278.53 1540.6,-281.69 1550.47,-285.53 1550.71,-278.53"/>
<text text-anchor="middle" x="1568.07" y="-285.74" font-family="Times,serif" font-size="14.00">{}</text>
</g>
<!-- 1&#45;&gt;2 -->
<g id="edge11" class="edge">
<title>1&#45;&gt;2</title>
<path fill="none" stroke="black" d="M1512.85,-271.17C1510.89,-261.48 1508.18,-249.2 1505.07,-238.44 1495.61,-205.75 1484.93,-199.95 1479.07,-166.44 1477.92,-159.87 1476.09,-157.4 1479.07,-151.44 1485.03,-139.51 1497.1,-145.36 1503.07,-133.44 1510.22,-119.13 1504.06,-113.41 1503.07,-97.44 1502.14,-82.56 1500.15,-66.04 1498.27,-52.59"/>
<polygon fill="black" stroke="black" points="1501.71,-51.94 1496.81,-42.55 1494.79,-52.95 1501.71,-51.94"/>
<text text-anchor="middle" x="1502.57" y="-155.24" font-family="Times,serif" font-size="14.00">{c0, c2}</text>
</g>
<!-- 1&#45;&gt;2 -->
<g id="edge12" class="edge">
<title>1&#45;&gt;2</title>
<path fill="none" stroke="black" d="M1519.4,-271.32C1526.12,-233.09 1538.72,-138.33 1515.07,-64.44 1513.54,-59.65 1511.42,-54.77 1509.11,-50.16"/>
<polygon fill="black" stroke="black" points="1512.09,-48.29 1504.25,-41.16 1505.93,-51.62 1512.09,-48.29"/>
<text text-anchor="middle" x="1541.57" y="-155.24" font-family="Times,serif" font-size="14.00">{c3}</text>
</g>
<!-- 1&#45;&gt;2 -->
<g id="edge13" class="edge">
<title>1&#45;&gt;2</title>
<path fill="none" stroke="black" d="M1526.93,-272.58C1530.55,-266.75 1534.35,-259.98 1537.07,-253.44 1554.87,-210.62 1566.5,-197.21 1559.07,-151.44 1552.54,-111.21 1550.8,-99.53 1530.07,-64.44 1526.41,-58.25 1521.65,-52.22 1516.79,-46.82"/>
<polygon fill="black" stroke="black" points="1519.15,-44.23 1509.71,-39.41 1514.09,-49.06 1519.15,-44.23"/>
<text text-anchor="middle" x="1583.57" y="-155.24" font-family="Times,serif" font-size="14.00">{c0, c3}</text>
</g>
<!-- 1&#45;&gt;2 -->
<g id="edge14" class="edge">
<title>1&#45;&gt;2</title>
<path fill="none" stroke="black" d="M1534.88,-276.42C1567.16,-254.14 1628.06,-203.89 1611.07,-151.44 1596.35,-106.02 1581.85,-98.17 1548.07,-64.44 1540.27,-56.65 1530.8,-49.26 1521.98,-43.05"/>
<polygon fill="black" stroke="black" points="1523.71,-39.99 1513.47,-37.26 1519.77,-45.78 1523.71,-39.99"/>
<text text-anchor="middle" x="1636.57" y="-155.24" font-family="Times,serif" font-size="14.00">{c2, c3}</text>
</g>
<!-- 1&#45;&gt;2 -->
<g id="edge15" class="edge">
<title>1&#45;&gt;2</title>
<path fill="none" stroke="black" d="M1539.68,-280.32C1588.07,-262.19 1691.74,-215 1664.07,-151.44 1638.41,-92.5 1568.41,-55.27 1526.67,-37.6"/>
<polygon fill="black" stroke="black" points="1527.79,-34.28 1517.21,-33.73 1525.14,-40.76 1527.79,-34.28"/>
<text text-anchor="middle" x="1681.57" y="-155.24" font-family="Times,serif" font-size="14.00">{c2}</text>
</g>
<!-- 1&#45;&gt;2 -->
<g id="edge16" class="edge">
<title>1&#45;&gt;2</title>
<path fill="none" stroke="black" d="M1541.23,-282.64C1597.63,-268.2 1727.1,-226.33 1699.07,-151.44 1672.56,-80.61 1581.03,-46.95 1529.7,-33.3"/>
<polygon fill="black" stroke="black" points="1530.25,-29.83 1519.69,-30.76 1528.52,-36.62 1530.25,-29.83"/>
<text text-anchor="middle" x="1735.57" y="-155.24" font-family="Times,serif" font-size="14.00">{c0, c2, c3}</text>
</g>
<!-- 1&#45;&gt;2 -->
<g id="edge17" class="edge">
<title>1&#45;&gt;2</title>
<path fill="none" stroke="black" d="M1542.63,-285.82C1617.91,-277.21 1823.96,-244.77 1773.07,-151.44 1724.87,-63.03 1595.21,-36.47 1531.05,-28.63"/>
<polygon fill="black" stroke="black" points="1531.3,-25.14 1520.97,-27.49 1530.52,-32.09 1531.3,-25.14"/>
<text text-anchor="middle" x="1791.57" y="-155.24" font-family="Times,serif" font-size="14.00">{c0}</text>
</g>
<!-- 3 -->
<g id="node5" class="node">
<title>3</title>
<ellipse fill="none" stroke="black" cx="1046.07" cy="-202.44" rx="27" ry="18"/>
<text text-anchor="middle" x="1046.07" y="-198.74" font-family="Times,serif" font-size="14.00">3</text>
</g>
<!-- 1&#45;&gt;3 -->
<g id="edge3" class="edge">
<title>1&#45;&gt;3</title>
<path fill="none" stroke="black" d="M1488.85,-287.95C1370.79,-285.73 908.04,-275.61 887.07,-253.44 850.1,-214.35 950.7,-205.67 1008.54,-203.84"/>
<polygon fill="black" stroke="black" points="1008.9,-207.33 1018.8,-203.57 1008.71,-200.33 1008.9,-207.33"/>
<text text-anchor="middle" x="910.57" y="-242.24" font-family="Times,serif" font-size="14.00">{c0, c1}</text>
</g>
<!-- 1&#45;&gt;3 -->
<g id="edge4" class="edge">
<title>1&#45;&gt;3</title>
<path fill="none" stroke="black" d="M1488.98,-287.76C1379.61,-284.9 975.48,-273.04 957.07,-253.44 937.49,-232.6 977.93,-218.17 1010.51,-210.35"/>
<polygon fill="black" stroke="black" points="1011.32,-213.75 1020.3,-208.13 1009.77,-206.93 1011.32,-213.75"/>
<text text-anchor="middle" x="990.57" y="-242.24" font-family="Times,serif" font-size="14.00">{c0, c1, c2}</text>
</g>
<!-- 1&#45;&gt;3 -->
<g id="edge5" class="edge">
<title>1&#45;&gt;3</title>
<path fill="none" stroke="black" d="M1488.85,-288.49C1393.33,-288.39 1077.52,-285.6 1047.07,-253.44 1041.36,-247.41 1039.78,-238.91 1040.03,-230.62"/>
<polygon fill="black" stroke="black" points="1043.54,-230.77 1041.17,-220.45 1036.58,-229.99 1043.54,-230.77"/>
<text text-anchor="middle" x="1091.07" y="-242.24" font-family="Times,serif" font-size="14.00">{c0, c1, c2, c3}</text>
</g>
<!-- 1&#45;&gt;3 -->
<g id="edge6" class="edge">
<title>1&#45;&gt;3</title>
<path fill="none" stroke="black" d="M1488.97,-287.46C1416.43,-284.57 1219.2,-274.9 1158.07,-253.44 1146.55,-249.39 1145.91,-244.03 1135.07,-238.44 1117.18,-229.21 1096.28,-220.87 1079.23,-214.65"/>
<polygon fill="black" stroke="black" points="1080.28,-211.31 1069.69,-211.25 1077.93,-217.91 1080.28,-211.31"/>
<text text-anchor="middle" x="1191.57" y="-242.24" font-family="Times,serif" font-size="14.00">{c0, c1, c3}</text>
</g>
<!-- 1&#45;&gt;3 -->
<g id="edge7" class="edge">
<title>1&#45;&gt;3</title>
<path fill="none" stroke="black" d="M1488.88,-288.82C1439.38,-288.67 1331.92,-284.41 1248.07,-253.44 1236.62,-249.21 1236.38,-243.03 1225.07,-238.44 1178.2,-219.42 1120.13,-210.51 1083.08,-206.49"/>
<polygon fill="black" stroke="black" points="1083.06,-202.97 1072.76,-205.44 1082.35,-209.94 1083.06,-202.97"/>
<text text-anchor="middle" x="1271.57" y="-242.24" font-family="Times,serif" font-size="14.00">{c1, c3}</text>
</g>
<!-- 1&#45;&gt;3 -->
<g id="edge8" class="edge">
<title>1&#45;&gt;3</title>
<path fill="none" stroke="black" d="M1489.2,-287.1C1450.24,-284.41 1376.34,-276.47 1318.07,-253.44 1306.72,-248.95 1306.49,-242.72 1295.07,-238.44 1223.48,-211.59 1133.29,-205.1 1083.47,-203.67"/>
<polygon fill="black" stroke="black" points="1083.25,-200.17 1073.17,-203.43 1083.09,-207.16 1083.25,-200.17"/>
<text text-anchor="middle" x="1341.57" y="-242.24" font-family="Times,serif" font-size="14.00">{c1, c2}</text>
</g>
<!-- 1&#45;&gt;3 -->
<g id="edge9" class="edge">
<title>1&#45;&gt;3</title>
<path fill="none" stroke="black" d="M1490.25,-283.84C1463.8,-278.57 1421.9,-268.64 1388.07,-253.44 1376.94,-248.43 1376.56,-242.55 1365.07,-238.44 1313.94,-220.15 1155.74,-209.42 1083.16,-205.34"/>
<polygon fill="black" stroke="black" points="1083.27,-201.84 1073.09,-204.79 1082.88,-208.83 1083.27,-201.84"/>
<text text-anchor="middle" x="1401.57" y="-242.24" font-family="Times,serif" font-size="14.00">{c1}</text>
</g>
<!-- 1&#45;&gt;3 -->
<g id="edge10" class="edge">
<title>1&#45;&gt;3</title>
<path fill="none" stroke="black" d="M1493.43,-279.38C1477.61,-272.79 1456.17,-263.33 1438.07,-253.44 1427.36,-247.59 1426.59,-242.46 1415.07,-238.44 1354.46,-217.25 1164.15,-207.83 1083.15,-204.7"/>
<polygon fill="black" stroke="black" points="1083.05,-201.2 1072.92,-204.32 1082.79,-208.19 1083.05,-201.2"/>
<text text-anchor="middle" x="1471.57" y="-242.24" font-family="Times,serif" font-size="14.00">{c1, c2, c3}</text>
</g>
<!-- 2&#45;&gt;2 -->
<g id="edge82" class="edge">
<title>2&#45;&gt;2</title>
<path fill="none" stroke="black" d="M1521.31,-25.94C1531.09,-25.97 1539.07,-25.47 1539.07,-24.44 1539.07,-23.81 1536.11,-23.38 1531.58,-23.14"/>
<polygon fill="black" stroke="black" points="1531.38,-19.64 1521.31,-22.94 1531.24,-26.64 1531.38,-19.64"/>
<text text-anchor="middle" x="1562.57" y="-20.74" font-family="Times,serif" font-size="14.00">{c0, c2}</text>
</g>
<!-- 2&#45;&gt;2 -->
<g id="edge83" class="edge">
<title>2&#45;&gt;2</title>
<path fill="none" stroke="black" d="M1520.96,-26.86C1549.39,-28.12 1586.07,-27.31 1586.07,-24.44 1586.07,-21.9 1557.48,-20.97 1531.22,-21.65"/>
<polygon fill="black" stroke="black" points="1530.83,-18.17 1520.96,-22.01 1531.08,-25.16 1530.83,-18.17"/>
<text text-anchor="middle" x="1599.57" y="-20.74" font-family="Times,serif" font-size="14.00">{c1}</text>
</g>
<!-- 2&#45;&gt;2 -->
<g id="edge84" class="edge">
<title>2&#45;&gt;2</title>
<path fill="none" stroke="black" d="M1520.89,-27.61C1558.31,-30.12 1613.07,-29.07 1613.07,-24.44 1613.07,-20.21 1567.32,-18.96 1530.87,-20.7"/>
<polygon fill="black" stroke="black" points="1530.67,-17.2 1520.89,-21.26 1531.07,-24.19 1530.67,-17.2"/>
<text text-anchor="middle" x="1657.07" y="-20.74" font-family="Times,serif" font-size="14.00">{c0, c1, c2, c3}</text>
</g>
<!-- 2&#45;&gt;2 -->
<g id="edge85" class="edge">
<title>2&#45;&gt;2</title>
<path fill="none" stroke="black" d="M1520.72,-27.76C1580.05,-32.22 1701.07,-31.11 1701.07,-24.44 1701.07,-18.13 1592.92,-16.8 1530.98,-20.43"/>
<polygon fill="black" stroke="black" points="1530.47,-16.96 1520.72,-21.11 1530.93,-23.94 1530.47,-16.96"/>
<text text-anchor="middle" x="1714.57" y="-20.74" font-family="Times,serif" font-size="14.00">{c3}</text>
</g>
<!-- 2&#45;&gt;2 -->
<g id="edge86" class="edge">
<title>2&#45;&gt;2</title>
<path fill="none" stroke="black" d="M1520.6,-28.23C1586.66,-34.22 1728.07,-32.95 1728.07,-24.44 1728.07,-16.34 1600.13,-14.8 1530.79,-19.82"/>
<polygon fill="black" stroke="black" points="1530.28,-16.35 1520.6,-20.65 1530.85,-23.33 1530.28,-16.35"/>
<text text-anchor="middle" x="1751.57" y="-20.74" font-family="Times,serif" font-size="14.00">{c0, c3}</text>
</g>
<!-- 2&#45;&gt;2 -->
<g id="edge87" class="edge">
<title>2&#45;&gt;2</title>
<path fill="none" stroke="black" d="M1520.59,-28.53C1596.79,-36.23 1775.07,-34.87 1775.07,-24.44 1775.07,-14.46 1611.78,-12.78 1530.95,-19.4"/>
<polygon fill="black" stroke="black" points="1530.23,-15.95 1520.59,-20.34 1530.86,-22.92 1530.23,-15.95"/>
<text text-anchor="middle" x="1798.57" y="-20.74" font-family="Times,serif" font-size="14.00">{c1, c3}</text>
</g>
<!-- 2&#45;&gt;2 -->
<g id="edge88" class="edge">
<title>2&#45;&gt;2</title>
<path fill="none" stroke="black" d="M1520.5,-28.78C1606.19,-38.25 1822.07,-36.8 1822.07,-24.44 1822.07,-12.54 1621.91,-10.75 1530.56,-19.08"/>
<polygon fill="black" stroke="black" points="1530.1,-15.61 1520.5,-20.09 1530.8,-22.58 1530.1,-15.61"/>
<text text-anchor="middle" x="1845.57" y="-20.74" font-family="Times,serif" font-size="14.00">{c2, c3}</text>
</g>
<!-- 2&#45;&gt;2 -->
<g id="edge89" class="edge">
<title>2&#45;&gt;2</title>
<path fill="none" stroke="black" d="M1520.44,-29C1615.16,-40.26 1869.07,-38.73 1869.07,-24.44 1869.07,-10.62 1631.74,-8.73 1530.39,-18.79"/>
<polygon fill="black" stroke="black" points="1530.01,-15.31 1520.44,-19.87 1530.76,-22.27 1530.01,-15.31"/>
<text text-anchor="middle" x="1882.57" y="-20.74" font-family="Times,serif" font-size="14.00">{c2}</text>
</g>
<!-- 2&#45;&gt;2 -->
<g id="edge90" class="edge">
<title>2&#45;&gt;2</title>
<path fill="none" stroke="black" d="M1520.17,-29.24C1620.64,-42.26 1896.07,-40.66 1896.07,-24.44 1896.07,-8.74 1638.11,-6.73 1530.42,-18.42"/>
<polygon fill="black" stroke="black" points="1529.69,-14.98 1520.17,-19.64 1530.52,-21.94 1529.69,-14.98"/>
<text text-anchor="middle" x="1929.57" y="-20.74" font-family="Times,serif" font-size="14.00">{c0, c1, c2}</text>
</g>
<!-- 2&#45;&gt;2 -->
<g id="edge91" class="edge">
<title>2&#45;&gt;2</title>
<path fill="none" stroke="black" d="M1520.15,-29.34C1631.71,-44.28 1963.07,-42.64 1963.07,-24.44 1963.07,-6.75 1650.22,-4.7 1530.15,-18.3"/>
<polygon fill="black" stroke="black" points="1529.65,-14.84 1520.15,-19.53 1530.5,-21.78 1529.65,-14.84"/>
<text text-anchor="middle" x="1986.57" y="-20.74" font-family="Times,serif" font-size="14.00">{c0, c1}</text>
</g>
<!-- 2&#45;&gt;2 -->
<g id="edge92" class="edge">
<title>2&#45;&gt;2</title>
<path fill="none" stroke="black" d="M1520.23,-29.51C1640.03,-46.28 2010.07,-44.59 2010.07,-24.44 2010.07,-4.82 1659.29,-2.69 1530.22,-18.07"/>
<polygon fill="black" stroke="black" points="1529.7,-14.61 1520.23,-19.36 1530.6,-21.55 1529.7,-14.61"/>
<text text-anchor="middle" x="2033.57" y="-20.74" font-family="Times,serif" font-size="14.00">{c1, c2}</text>
</g>
<!-- 2&#45;&gt;2 -->
<g id="edge93" class="edge">
<title>2&#45;&gt;2</title>
<path fill="none" stroke="black" d="M1519.97,-29.62C1647.44,-48.29 2057.07,-46.56 2057.07,-24.44 2057.07,-2.87 1667.98,-0.68 1530.22,-17.87"/>
<polygon fill="black" stroke="black" points="1529.42,-14.45 1519.97,-19.25 1530.35,-21.38 1529.42,-14.45"/>
<text text-anchor="middle" x="2090.57" y="-20.74" font-family="Times,serif" font-size="14.00">{c0, c2, c3}</text>
</g>
<!-- 2&#45;&gt;2 -->
<g id="edge94" class="edge">
<title>2&#45;&gt;2</title>
<path fill="none" stroke="black" d="M1520.13,-29.73C1657.7,-50.3 2124.07,-48.53 2124.07,-24.44 2124.07,-0.91 1679.3,1.33 1530.33,-17.73"/>
<polygon fill="black" stroke="black" points="1529.56,-14.31 1520.13,-19.14 1530.51,-21.24 1529.56,-14.31"/>
<text text-anchor="middle" x="2131.07" y="-20.74" font-family="Times,serif" font-size="14.00">{}</text>
</g>
<!-- 2&#45;&gt;2 -->
<g id="edge95" class="edge">
<title>2&#45;&gt;2</title>
<path fill="none" stroke="black" d="M1520.18,-29.93C1662.37,-52.3 2142.07,-50.47 2142.07,-24.44 2142.07,1.01 1683.68,3.33 1530.27,-17.48"/>
<polygon fill="black" stroke="black" points="1529.57,-14.04 1520.18,-18.95 1530.58,-20.97 1529.57,-14.04"/>
<text text-anchor="middle" x="2175.57" y="-20.74" font-family="Times,serif" font-size="14.00">{c1, c2, c3}</text>
</g>
<!-- 2&#45;&gt;2 -->
<g id="edge96" class="edge">
<title>2&#45;&gt;2</title>
<path fill="none" stroke="black" d="M1519.82,-29.94C1671.04,-54.31 2209.07,-52.47 2209.07,-24.44 2209.07,3 1693.91,5.34 1530.1,-17.4"/>
<polygon fill="black" stroke="black" points="1529.2,-14 1519.82,-18.93 1530.23,-20.92 1529.2,-14"/>
<text text-anchor="middle" x="2242.57" y="-20.74" font-family="Times,serif" font-size="14.00">{c0, c1, c3}</text>
</g>
<!-- 2&#45;&gt;2 -->
<g id="edge97" class="edge">
<title>2&#45;&gt;2</title>
<path fill="none" stroke="black" d="M1520.15,-30.06C1681.05,-56.31 2276.07,-54.44 2276.07,-24.44 2276.07,4.98 1704.06,7.35 1530.07,-17.31"/>
<polygon fill="black" stroke="black" points="1529.51,-13.85 1520.15,-18.81 1530.57,-20.77 1529.51,-13.85"/>
<text text-anchor="middle" x="2289.57" y="-20.74" font-family="Times,serif" font-size="14.00">{c0}</text>
</g>
<!-- 3&#45;&gt;2 -->
<g id="edge75" class="edge">
<title>3&#45;&gt;2</title>
<path fill="none" stroke="black" d="M1035.54,-185.82C1023.36,-167.59 1004.73,-139.17 1003.07,-133.44 998.62,-118.07 993.29,-110.1 1003.07,-97.44 1022.44,-72.36 1042.56,-91 1072.07,-79.44 1085.21,-74.29 1086.51,-68.37 1100.07,-64.44 1205.78,-33.78 1237.63,-58.23 1347.07,-46.44 1385.13,-42.34 1428.49,-35.93 1458.2,-31.27"/>
<polygon fill="black" stroke="black" points="1458.78,-34.72 1468.11,-29.7 1457.69,-27.81 1458.78,-34.72"/>
<text text-anchor="middle" x="1016.57" y="-111.74" font-family="Times,serif" font-size="14.00">{c1}</text>
</g>
<!-- 3&#45;&gt;2 -->
<g id="edge76" class="edge">
<title>3&#45;&gt;2</title>
<path fill="none" stroke="black" d="M1045.14,-184.25C1044.83,-162.1 1047.34,-123.37 1066.07,-97.44 1067.17,-95.92 1123.27,-64.98 1125.07,-64.44 1219.77,-35.62 1248.69,-57.44 1347.07,-46.44 1385.11,-42.18 1428.48,-35.8 1458.2,-31.19"/>
<polygon fill="black" stroke="black" points="1458.77,-34.64 1468.11,-29.64 1457.68,-27.72 1458.77,-34.64"/>
<text text-anchor="middle" x="1079.57" y="-111.74" font-family="Times,serif" font-size="14.00">{c3}</text>
</g>
<!-- 3&#45;&gt;2 -->
<g id="edge77" class="edge">
<title>3&#45;&gt;2</title>
<path fill="none" stroke="black" d="M1056.11,-185.53C1070.4,-163.77 1098.3,-124.36 1129.07,-97.44 1150.52,-78.67 1157.05,-73.55 1184.07,-64.44 1253.13,-41.15 1274.76,-55.59 1347.07,-46.44 1385.05,-41.63 1428.42,-35.33 1458.16,-30.89"/>
<polygon fill="black" stroke="black" points="1458.71,-34.35 1468.08,-29.41 1457.67,-27.43 1458.71,-34.35"/>
<text text-anchor="middle" x="1152.57" y="-111.74" font-family="Times,serif" font-size="14.00">{c0, c3}</text>
</g>
<!-- 3&#45;&gt;2 -->
<g id="edge78" class="edge">
<title>3&#45;&gt;2</title>
<path fill="none" stroke="black" d="M1068.41,-192.25C1095.3,-180.65 1141.17,-159.08 1176.07,-133.44 1194.3,-120.04 1194.23,-111.36 1212.07,-97.44 1234.54,-79.89 1240.34,-74.35 1267.07,-64.44 1301.41,-51.7 1402.84,-37.22 1457.76,-30.02"/>
<polygon fill="black" stroke="black" points="1458.3,-33.47 1467.77,-28.72 1457.4,-26.53 1458.3,-33.47"/>
<text text-anchor="middle" x="1235.57" y="-111.74" font-family="Times,serif" font-size="14.00">{c1, c3}</text>
</g>
<!-- 3&#45;&gt;2 -->
<g id="edge79" class="edge">
<title>3&#45;&gt;2</title>
<path fill="none" stroke="black" d="M1071.98,-197.27C1113.81,-189.68 1197.74,-170.8 1259.07,-133.44 1278.39,-121.66 1277.23,-111.36 1295.07,-97.44 1317.54,-79.89 1323.84,-75.6 1350.07,-64.44 1385.67,-49.28 1428.75,-38.53 1458.47,-32.21"/>
<polygon fill="black" stroke="black" points="1459.3,-35.61 1468.39,-30.16 1457.88,-28.76 1459.3,-35.61"/>
<text text-anchor="middle" x="1318.57" y="-111.74" font-family="Times,serif" font-size="14.00">{c0, c1}</text>
</g>
<!-- 3&#45;&gt;2 -->
<g id="edge80" class="edge">
<title>3&#45;&gt;2</title>
<path fill="none" stroke="black" d="M1072.92,-200.52C1127.33,-197.59 1252.97,-185.27 1342.07,-133.44 1361.63,-122.06 1360.34,-111.5 1378.07,-97.44 1405.61,-75.59 1440.18,-54.89 1464.38,-41.34"/>
<polygon fill="black" stroke="black" points="1466.37,-44.24 1473.43,-36.34 1462.99,-38.12 1466.37,-44.24"/>
<text text-anchor="middle" x="1411.57" y="-111.74" font-family="Times,serif" font-size="14.00">{c0, c1, c3}</text>
</g>
<!-- 3&#45;&gt;2 -->
<g id="edge81" class="edge">
<title>3&#45;&gt;2</title>
<path fill="none" stroke="black" d="M1073.12,-200.24C1153.3,-196.19 1387.66,-180.49 1445.07,-133.44 1470.01,-112.99 1482.77,-77.14 1488.92,-52.38"/>
<polygon fill="black" stroke="black" points="1492.36,-53.06 1491.17,-42.53 1485.53,-51.5 1492.36,-53.06"/>
<text text-anchor="middle" x="1485.57" y="-111.74" font-family="Times,serif" font-size="14.00">{c0}</text>
</g>
<!-- 3&#45;&gt;3 -->
<g id="edge69" class="edge">
<title>3&#45;&gt;3</title>
<path fill="none" stroke="black" d="M1070.6,-210.19C1081.58,-210.93 1091.07,-208.34 1091.07,-202.44 1091.07,-198.47 1086.78,-196 1080.64,-195.03"/>
<polygon fill="black" stroke="black" points="1080.71,-191.53 1070.6,-194.69 1080.47,-198.53 1080.71,-191.53"/>
<text text-anchor="middle" x="1098.07" y="-198.74" font-family="Times,serif" font-size="14.00">{}</text>
</g>
<!-- 4 -->
<g id="node6" class="node">
<title>4</title>
<ellipse fill="none" stroke="black" cx="644.07" cy="-115.44" rx="27" ry="18"/>
<text text-anchor="middle" x="644.07" y="-111.74" font-family="Times,serif" font-size="14.00">4</text>
</g>
<!-- 3&#45;&gt;4 -->
<g id="edge66" class="edge">
<title>3&#45;&gt;4</title>
<path fill="none" stroke="black" d="M1019.12,-201.01C898.94,-198.99 416.87,-189.44 395.07,-166.44 390.48,-161.6 390.69,-156.47 395.07,-151.44 422.01,-120.45 543.81,-116.1 606.51,-115.98"/>
<polygon fill="black" stroke="black" points="606.76,-119.48 616.77,-115.99 606.78,-112.48 606.76,-119.48"/>
<text text-anchor="middle" x="439.07" y="-155.24" font-family="Times,serif" font-size="14.00">{c0, c1, c2, c3}</text>
</g>
<!-- 3&#45;&gt;4 -->
<g id="edge67" class="edge">
<title>3&#45;&gt;4</title>
<path fill="none" stroke="black" d="M1018.77,-201.8C913.96,-202.89 541.36,-204.09 506.07,-166.44 474.6,-132.87 556.17,-121.78 606.98,-118.16"/>
<polygon fill="black" stroke="black" points="607.24,-121.65 617,-117.51 606.79,-114.66 607.24,-121.65"/>
<text text-anchor="middle" x="539.57" y="-155.24" font-family="Times,serif" font-size="14.00">{c0, c2, c3}</text>
</g>
<!-- 3&#45;&gt;4 -->
<g id="edge68" class="edge">
<title>3&#45;&gt;4</title>
<path fill="none" stroke="black" d="M1018.97,-201.42C926.11,-201.07 624.84,-197.53 596.07,-166.44 585.17,-154.66 598.64,-141.59 614.05,-131.77"/>
<polygon fill="black" stroke="black" points="615.85,-134.78 622.67,-126.67 612.28,-128.75 615.85,-134.78"/>
<text text-anchor="middle" x="619.57" y="-155.24" font-family="Times,serif" font-size="14.00">{c2, c3}</text>
</g>
<!-- 3&#45;&gt;4 -->
<g id="edge70" class="edge">
<title>3&#45;&gt;4</title>
<path fill="none" stroke="black" d="M1019.07,-200.52C937.03,-197.52 694.6,-186.98 666.07,-166.44 658.35,-160.88 653.3,-152.01 650.02,-143.27"/>
<polygon fill="black" stroke="black" points="653.33,-142.14 647.01,-133.64 646.65,-144.23 653.33,-142.14"/>
<text text-anchor="middle" x="689.57" y="-155.24" font-family="Times,serif" font-size="14.00">{c1, c2}</text>
</g>
<!-- 3&#45;&gt;4 -->
<g id="edge71" class="edge">
<title>3&#45;&gt;4</title>
<path fill="none" stroke="black" d="M1018.84,-199.98C953.23,-196.2 787.93,-185.08 736.07,-166.44 724.58,-162.31 723.64,-157.54 713.07,-151.44 700.77,-144.34 686.86,-137.13 674.77,-131.12"/>
<polygon fill="black" stroke="black" points="676.04,-127.84 665.52,-126.58 672.95,-134.13 676.04,-127.84"/>
<text text-anchor="middle" x="749.57" y="-155.24" font-family="Times,serif" font-size="14.00">{c2}</text>
</g>
<!-- 3&#45;&gt;4 -->
<g id="edge72" class="edge">
<title>3&#45;&gt;4</title>
<path fill="none" stroke="black" d="M1018.93,-201.67C970.56,-201.24 866.97,-196.51 786.07,-166.44 774.63,-162.19 774.15,-156.55 763.07,-151.44 736.03,-138.97 703.49,-129.76 679.28,-123.93"/>
<polygon fill="black" stroke="black" points="679.98,-120.5 669.45,-121.64 678.39,-127.32 679.98,-120.5"/>
<text text-anchor="middle" x="809.57" y="-155.24" font-family="Times,serif" font-size="14.00">{c0, c2}</text>
</g>
<!-- 3&#45;&gt;4 -->
<g id="edge73" class="edge">
<title>3&#45;&gt;4</title>
<path fill="none" stroke="black" d="M1019.34,-199.84C981.71,-196.85 911.51,-188.58 856.07,-166.44 844.73,-161.91 844.4,-155.97 833.07,-151.44 782.8,-131.33 720.33,-122.65 681.32,-118.99"/>
<polygon fill="black" stroke="black" points="681.24,-115.47 670.97,-118.09 680.63,-122.44 681.24,-115.47"/>
<text text-anchor="middle" x="889.57" y="-155.24" font-family="Times,serif" font-size="14.00">{c1, c2, c3}</text>
</g>
<!-- 3&#45;&gt;4 -->
<g id="edge74" class="edge">
<title>3&#45;&gt;4</title>
<path fill="none" stroke="black" d="M1021.56,-194.67C1000.9,-188.54 970.82,-178.62 946.07,-166.44 935.12,-161.05 934.53,-155.64 923.07,-151.44 840.56,-121.2 736.15,-116.18 681.42,-115.86"/>
<polygon fill="black" stroke="black" points="681.16,-112.36 671.16,-115.86 681.16,-119.36 681.16,-112.36"/>
<text text-anchor="middle" x="979.57" y="-155.24" font-family="Times,serif" font-size="14.00">{c0, c1, c2}</text>
</g>
<!-- 4&#45;&gt;2 -->
<g id="edge43" class="edge">
<title>4&#45;&gt;2</title>
<path fill="none" stroke="black" d="M639.03,-97.3C636.98,-86.4 636.74,-72.81 645.07,-64.44 658.82,-50.61 1327.63,-48.07 1347.07,-46.44 1385.21,-43.23 1428.57,-36.68 1458.25,-31.74"/>
<polygon fill="black" stroke="black" points="1458.87,-35.19 1468.15,-30.07 1457.71,-28.29 1458.87,-35.19"/>
<text text-anchor="middle" x="668.57" y="-68.24" font-family="Times,serif" font-size="14.00">{c0, c2}</text>
</g>
<!-- 4&#45;&gt;2 -->
<g id="edge44" class="edge">
<title>4&#45;&gt;2</title>
<path fill="none" stroke="black" d="M661.69,-101.64C681.72,-87.17 712.03,-65.45 715.07,-64.44 781.73,-42.27 1277.07,-52.41 1347.07,-46.44 1385.21,-43.18 1428.56,-36.64 1458.25,-31.71"/>
<polygon fill="black" stroke="black" points="1458.87,-35.16 1468.15,-30.05 1457.7,-28.26 1458.87,-35.16"/>
<text text-anchor="middle" x="728.57" y="-68.24" font-family="Times,serif" font-size="14.00">{c1}</text>
</g>
<!-- 4&#45;&gt;2 -->
<g id="edge45" class="edge">
<title>4&#45;&gt;2</title>
<path fill="none" stroke="black" d="M668.48,-107.47C688.71,-101.29 717.95,-91.4 742.07,-79.44 753,-74.01 753.42,-68.1 765.07,-64.44 826.79,-45.05 1282.61,-52.02 1347.07,-46.44 1385.21,-43.13 1428.56,-36.6 1458.25,-31.69"/>
<polygon fill="black" stroke="black" points="1458.86,-35.14 1468.14,-30.03 1457.7,-28.23 1458.86,-35.14"/>
<text text-anchor="middle" x="778.57" y="-68.24" font-family="Times,serif" font-size="14.00">{c2}</text>
</g>
<!-- 4&#45;&gt;2 -->
<g id="edge46" class="edge">
<title>4&#45;&gt;2</title>
<path fill="none" stroke="black" d="M670.33,-111.03C700.6,-106.47 751.42,-96.87 792.07,-79.44 803.28,-74.63 803.43,-68.11 815.07,-64.44 871.47,-46.63 1288.15,-51.63 1347.07,-46.44 1385.2,-43.08 1428.55,-36.55 1458.24,-31.66"/>
<polygon fill="black" stroke="black" points="1458.86,-35.11 1468.14,-30.01 1457.7,-28.2 1458.86,-35.11"/>
<text text-anchor="middle" x="848.57" y="-68.24" font-family="Times,serif" font-size="14.00">{c0, c1, c2}</text>
</g>
<!-- 4&#45;&gt;2 -->
<g id="edge47" class="edge">
<title>4&#45;&gt;2</title>
<path fill="none" stroke="black" d="M671.06,-114.2C716.2,-112.99 809.22,-107.02 882.07,-79.44 893.48,-75.12 893.44,-68.15 905.07,-64.44 998.71,-34.51 1249.17,-55.4 1347.07,-46.44 1385.19,-42.95 1428.54,-36.44 1458.24,-31.59"/>
<polygon fill="black" stroke="black" points="1458.84,-35.04 1468.14,-29.95 1457.7,-28.13 1458.84,-35.04"/>
<text text-anchor="middle" x="928.57" y="-68.24" font-family="Times,serif" font-size="14.00">{c0, c1}</text>
</g>
<!-- 4&#45;&gt;2 -->
<g id="edge48" class="edge">
<title>4&#45;&gt;2</title>
<path fill="none" stroke="black" d="M671.11,-112.97C736.31,-109.16 900.55,-97.98 952.07,-79.44 963.55,-75.3 963.46,-68.2 975.07,-64.44 1053.81,-38.94 1264.68,-54.3 1347.07,-46.44 1385.18,-42.8 1428.53,-36.32 1458.23,-31.51"/>
<polygon fill="black" stroke="black" points="1458.83,-34.96 1468.13,-29.89 1457.7,-28.05 1458.83,-34.96"/>
<text text-anchor="middle" x="998.57" y="-68.24" font-family="Times,serif" font-size="14.00">{c1, c2}</text>
</g>
<!-- 4&#45;&gt;2 -->
<g id="edge49" class="edge">
<title>4&#45;&gt;2</title>
<path fill="none" stroke="black" d="M671.04,-113.62C746.24,-111.08 957.03,-102.09 1022.07,-79.44 1033.59,-75.42 1033.48,-68.26 1045.07,-64.44 1108.91,-43.37 1280.18,-53.2 1347.07,-46.44 1385.15,-42.59 1428.52,-36.14 1458.22,-31.4"/>
<polygon fill="black" stroke="black" points="1458.81,-34.85 1468.12,-29.8 1457.69,-27.94 1458.81,-34.85"/>
<text text-anchor="middle" x="1058.57" y="-68.24" font-family="Times,serif" font-size="14.00">{c0}</text>
</g>
<!-- 4&#45;&gt;4 -->
<g id="edge36" class="edge">
<title>4&#45;&gt;4</title>
<path fill="none" stroke="black" d="M668.6,-123.19C679.58,-123.93 689.07,-121.34 689.07,-115.44 689.07,-111.47 684.78,-109 678.64,-108.03"/>
<polygon fill="black" stroke="black" points="678.71,-104.53 668.6,-107.69 678.47,-111.53 678.71,-104.53"/>
<text text-anchor="middle" x="696.07" y="-111.74" font-family="Times,serif" font-size="14.00">{}</text>
</g>
<!-- 5 -->
<g id="node7" class="node">
<title>5</title>
<ellipse fill="none" stroke="black" cx="268.07" cy="-24.44" rx="18" ry="18"/>
<ellipse fill="none" stroke="black" cx="268.07" cy="-24.44" rx="22" ry="22"/>
<text text-anchor="middle" x="268.07" y="-20.74" font-family="Times,serif" font-size="14.00">5</text>
</g>
<!-- 4&#45;&gt;5 -->
<g id="edge34" class="edge">
<title>4&#45;&gt;5</title>
<path fill="none" stroke="black" d="M616.77,-113.98C497.31,-111.85 25.44,-102.01 4.07,-79.44 -28.73,-44.8 158.22,-31.08 235.65,-26.93"/>
<polygon fill="black" stroke="black" points="236.01,-30.42 245.82,-26.41 235.65,-23.43 236.01,-30.42"/>
<text text-anchor="middle" x="17.57" y="-68.24" font-family="Times,serif" font-size="14.00">{c3}</text>
</g>
<!-- 4&#45;&gt;5 -->
<g id="edge35" class="edge">
<title>4&#45;&gt;5</title>
<path fill="none" stroke="black" d="M617.03,-113.85C503.91,-111.29 73.62,-100.18 54.07,-79.44 49.49,-74.59 49.8,-69.56 54.07,-64.44 76.86,-37.12 182.05,-28.88 235.98,-26.44"/>
<polygon fill="black" stroke="black" points="236.2,-29.94 246.04,-26.03 235.91,-22.94 236.2,-29.94"/>
<text text-anchor="middle" x="87.57" y="-68.24" font-family="Times,serif" font-size="14.00">{c1, c2, c3}</text>
</g>
<!-- 4&#45;&gt;5 -->
<g id="edge37" class="edge">
<title>4&#45;&gt;5</title>
<path fill="none" stroke="black" d="M616.77,-114.64C517.03,-115.12 176.45,-114.16 144.07,-79.44 114.88,-48.13 190.14,-34.03 235.89,-28.5"/>
<polygon fill="black" stroke="black" points="236.44,-31.96 245.99,-27.36 235.66,-25.01 236.44,-31.96"/>
<text text-anchor="middle" x="177.57" y="-68.24" font-family="Times,serif" font-size="14.00">{c0, c2, c3}</text>
</g>
<!-- 4&#45;&gt;5 -->
<g id="edge38" class="edge">
<title>4&#45;&gt;5</title>
<path fill="none" stroke="black" d="M616.97,-114.2C529.68,-113.15 259.95,-107.62 234.07,-79.44 224.69,-69.23 232.6,-56.1 243.14,-45.34"/>
<polygon fill="black" stroke="black" points="245.74,-47.71 250.68,-38.34 240.97,-42.58 245.74,-47.71"/>
<text text-anchor="middle" x="257.57" y="-68.24" font-family="Times,serif" font-size="14.00">{c2, c3}</text>
</g>
<!-- 4&#45;&gt;5 -->
<g id="edge39" class="edge">
<title>4&#45;&gt;5</title>
<path fill="none" stroke="black" d="M616.99,-114.57C546.04,-114.46 356.6,-111.12 304.07,-79.44 294.27,-73.53 286.58,-63.81 280.87,-54.24"/>
<polygon fill="black" stroke="black" points="283.83,-52.36 275.99,-45.23 277.68,-55.69 283.83,-52.36"/>
<text text-anchor="middle" x="348.07" y="-68.24" font-family="Times,serif" font-size="14.00">{c0, c1, c2, c3}</text>
</g>
<!-- 4&#45;&gt;5 -->
<g id="edge40" class="edge">
<title>4&#45;&gt;5</title>
<path fill="none" stroke="black" d="M617.03,-113.98C573.21,-112.44 484.58,-105.98 415.07,-79.44 403.67,-75.08 403.1,-69.65 392.07,-64.44 361.76,-50.12 324.88,-39.29 299.25,-32.72"/>
<polygon fill="black" stroke="black" points="299.9,-29.27 289.35,-30.24 298.2,-36.06 299.9,-29.27"/>
<text text-anchor="middle" x="438.57" y="-68.24" font-family="Times,serif" font-size="14.00">{c0, c3}</text>
</g>
<!-- 4&#45;&gt;5 -->
<g id="edge41" class="edge">
<title>4&#45;&gt;5</title>
<path fill="none" stroke="black" d="M617.58,-111.57C585.28,-107.42 529.51,-98.08 485.07,-79.44 473.81,-74.72 473.36,-69.06 462.07,-64.44 407.74,-42.23 339.53,-32.29 300.16,-28.14"/>
<polygon fill="black" stroke="black" points="300.38,-24.64 290.09,-27.14 299.69,-31.61 300.38,-24.64"/>
<text text-anchor="middle" x="518.57" y="-68.24" font-family="Times,serif" font-size="14.00">{c0, c1, c3}</text>
</g>
<!-- 4&#45;&gt;5 -->
<g id="edge42" class="edge">
<title>4&#45;&gt;5</title>
<path fill="none" stroke="black" d="M622.61,-104.3C608.83,-97.61 590.65,-88.44 575.07,-79.44 564.5,-73.33 563.5,-68.7 552.07,-64.44 465.26,-32.04 354.51,-26.14 300.55,-25.33"/>
<polygon fill="black" stroke="black" points="300.27,-21.83 290.24,-25.23 300.2,-28.83 300.27,-21.83"/>
<text text-anchor="middle" x="598.57" y="-68.24" font-family="Times,serif" font-size="14.00">{c1, c3}</text>
</g>
<!-- 5&#45;&gt;5 -->
<g id="edge50" class="edge">
<title>5&#45;&gt;5</title>
<path fill="none" stroke="black" d="M290.28,-25.92C299.86,-26.04 308.07,-25.55 308.07,-24.44 308.07,-23.76 305.02,-23.31 300.47,-23.09"/>
<polygon fill="black" stroke="black" points="300.33,-19.59 290.28,-22.96 300.23,-26.59 300.33,-19.59"/>
<text text-anchor="middle" x="331.57" y="-20.74" font-family="Times,serif" font-size="14.00">{c1, c2}</text>
</g>
<!-- 5&#45;&gt;5 -->
<g id="edge51" class="edge">
<title>5&#45;&gt;5</title>
<path fill="none" stroke="black" d="M290.24,-26.71C317.4,-28.18 355.07,-27.42 355.07,-24.44 355.07,-21.81 325.97,-20.91 300.49,-21.73"/>
<polygon fill="black" stroke="black" points="300.09,-18.24 290.24,-22.16 300.38,-25.24 300.09,-18.24"/>
<text text-anchor="middle" x="378.57" y="-20.74" font-family="Times,serif" font-size="14.00">{c1, c3}</text>
</g>
<!-- 5&#45;&gt;5 -->
<g id="edge52" class="edge">
<title>5&#45;&gt;5</title>
<path fill="none" stroke="black" d="M290.13,-27.2C330.67,-30.22 402.07,-29.3 402.07,-24.44 402.07,-19.95 341.39,-18.82 300.15,-21.04"/>
<polygon fill="black" stroke="black" points="299.89,-17.55 290.13,-21.67 300.33,-24.53 299.89,-17.55"/>
<text text-anchor="middle" x="435.57" y="-20.74" font-family="Times,serif" font-size="14.00">{c0, c1, c3}</text>
</g>
<!-- 5&#45;&gt;5 -->
<g id="edge53" class="edge">
<title>5&#45;&gt;5</title>
<path fill="none" stroke="black" d="M290.16,-27.47C346.03,-32.26 469.07,-31.25 469.07,-24.44 469.07,-18.01 359.57,-16.75 300.26,-20.65"/>
<polygon fill="black" stroke="black" points="299.87,-17.17 290.16,-21.4 300.39,-24.15 299.87,-17.17"/>
<text text-anchor="middle" x="502.57" y="-20.74" font-family="Times,serif" font-size="14.00">{c0, c2, c3}</text>
</g>
<!-- 5&#45;&gt;5 -->
<g id="edge54" class="edge">
<title>5&#45;&gt;5</title>
<path fill="none" stroke="black" d="M289.84,-27.67C358.67,-34.29 536.07,-33.21 536.07,-24.44 536.07,-16.08 374.91,-14.71 300.21,-20.32"/>
<polygon fill="black" stroke="black" points="299.51,-16.87 289.84,-21.2 300.1,-23.84 299.51,-16.87"/>
<text text-anchor="middle" x="559.57" y="-20.74" font-family="Times,serif" font-size="14.00">{c0, c3}</text>
</g>
<!-- 5&#45;&gt;5 -->
<g id="edge55" class="edge">
<title>5&#45;&gt;5</title>
<path fill="none" stroke="black" d="M289.83,-27.94C367.58,-36.29 583.07,-35.13 583.07,-24.44 583.07,-14.18 384.49,-12.69 299.81,-19.97"/>
<polygon fill="black" stroke="black" points="299.45,-16.49 289.83,-20.93 300.11,-23.46 299.45,-16.49"/>
<text text-anchor="middle" x="616.57" y="-20.74" font-family="Times,serif" font-size="14.00">{c1, c2, c3}</text>
</g>
<!-- 5&#45;&gt;5 -->
<g id="edge56" class="edge">
<title>5&#45;&gt;5</title>
<path fill="none" stroke="black" d="M289.76,-28.11C378.62,-38.31 650.07,-37.08 650.07,-24.44 650.07,-12.24 397.37,-10.67 299.79,-19.74"/>
<polygon fill="black" stroke="black" points="299.35,-16.26 289.76,-20.77 300.07,-23.23 299.35,-16.26"/>
<text text-anchor="middle" x="657.07" y="-20.74" font-family="Times,serif" font-size="14.00">{}</text>
</g>
<!-- 5&#45;&gt;5 -->
<g id="edge57" class="edge">
<title>5&#45;&gt;5</title>
<path fill="none" stroke="black" d="M289.83,-28.4C383.16,-40.31 668.07,-38.98 668.07,-24.44 668.07,-10.39 402.31,-8.68 300.05,-19.3"/>
<polygon fill="black" stroke="black" points="299.36,-15.86 289.83,-20.47 300.16,-22.81 299.36,-15.86"/>
<text text-anchor="middle" x="681.57" y="-20.74" font-family="Times,serif" font-size="14.00">{c1}</text>
</g>
<!-- 5&#45;&gt;5 -->
<g id="edge58" class="edge">
<title>5&#45;&gt;5</title>
<path fill="none" stroke="black" d="M289.88,-28.64C388.9,-42.31 695.07,-40.91 695.07,-24.44 695.07,-8.5 408.31,-6.67 300.08,-18.96"/>
<polygon fill="black" stroke="black" points="299.37,-15.53 289.88,-20.24 300.24,-22.47 299.37,-15.53"/>
<text text-anchor="middle" x="708.57" y="-20.74" font-family="Times,serif" font-size="14.00">{c2}</text>
</g>
<!-- 5&#45;&gt;5 -->
<g id="edge59" class="edge">
<title>5&#45;&gt;5</title>
<path fill="none" stroke="black" d="M289.69,-28.81C394.15,-44.31 722.07,-42.86 722.07,-24.44 722.07,-6.58 413.71,-4.67 299.78,-18.71"/>
<polygon fill="black" stroke="black" points="299.13,-15.26 289.69,-20.07 300.07,-22.2 299.13,-15.26"/>
<text text-anchor="middle" x="745.57" y="-20.74" font-family="Times,serif" font-size="14.00">{c0, c2}</text>
</g>
<!-- 5&#45;&gt;5 -->
<g id="edge60" class="edge">
<title>5&#45;&gt;5</title>
<path fill="none" stroke="black" d="M289.93,-28.97C402.53,-46.32 769.07,-44.8 769.07,-24.44 769.07,-4.65 422.99,-2.66 300.09,-18.47"/>
<polygon fill="black" stroke="black" points="299.35,-15.05 289.93,-19.9 300.32,-21.98 299.35,-15.05"/>
<text text-anchor="middle" x="792.57" y="-20.74" font-family="Times,serif" font-size="14.00">{c0, c1}</text>
</g>
<!-- 5&#45;&gt;5 -->
<g id="edge61" class="edge">
<title>5&#45;&gt;5</title>
<path fill="none" stroke="black" d="M289.9,-29.08C410.14,-48.32 816.07,-46.77 816.07,-24.44 816.07,-2.69 431.26,-0.65 299.99,-18.31"/>
<polygon fill="black" stroke="black" points="299.29,-14.88 289.9,-19.79 300.3,-21.81 299.29,-14.88"/>
<text text-anchor="middle" x="860.07" y="-20.74" font-family="Times,serif" font-size="14.00">{c0, c1, c2, c3}</text>
</g>
<!-- 5&#45;&gt;5 -->
<g id="edge62" class="edge">
<title>5&#45;&gt;5</title>
<path fill="none" stroke="black" d="M289.68,-29.07C421.09,-50.33 904.07,-48.79 904.07,-24.44 904.07,-0.68 444.39,1.37 299.92,-18.28"/>
<polygon fill="black" stroke="black" points="299.06,-14.87 289.68,-19.8 300.09,-21.8 299.06,-14.87"/>
<text text-anchor="middle" x="917.57" y="-20.74" font-family="Times,serif" font-size="14.00">{c0}</text>
</g>
<!-- 5&#45;&gt;5 -->
<g id="edge63" class="edge">
<title>5&#45;&gt;5</title>
<path fill="none" stroke="black" d="M289.71,-29.22C426.53,-52.33 931.07,-50.74 931.07,-24.44 931.07,1.25 449.9,3.37 299.92,-18.07"/>
<polygon fill="black" stroke="black" points="299.05,-14.67 289.71,-19.66 300.12,-21.58 299.05,-14.67"/>
<text text-anchor="middle" x="964.57" y="-20.74" font-family="Times,serif" font-size="14.00">{c0, c1, c2}</text>
</g>
<!-- 5&#45;&gt;5 -->
<g id="edge64" class="edge">
<title>5&#45;&gt;5</title>
<path fill="none" stroke="black" d="M289.55,-29.25C435.04,-54.34 998.07,-52.74 998.07,-24.44 998.07,3.26 458.97,5.39 299.49,-18.05"/>
<polygon fill="black" stroke="black" points="298.87,-14.6 289.55,-19.63 299.97,-21.52 298.87,-14.6"/>
<text text-anchor="middle" x="1021.57" y="-20.74" font-family="Times,serif" font-size="14.00">{c2, c3}</text>
</g>
<!-- 5&#45;&gt;5 -->
<g id="edge65" class="edge">
<title>5&#45;&gt;5</title>
<path fill="none" stroke="black" d="M289.93,-29.4C443.07,-56.34 1045.07,-54.69 1045.07,-24.44 1045.07,5.19 467.51,7.39 299.91,-17.85"/>
<polygon fill="black" stroke="black" points="299.24,-14.42 289.93,-19.47 300.37,-21.33 299.24,-14.42"/>
<text text-anchor="middle" x="1058.57" y="-20.74" font-family="Times,serif" font-size="14.00">{c3}</text>
</g>
</g>
</svg>
